G04 #@! TF.FileFunction,Soldermask,Bot*
%FSLAX46Y46*%
G04 Gerber Fmt 4.6, Leading zero omitted, Abs format (unit mm)*
G04 Created by KiCad (PCBNEW 4.0.2-stable) date 05.06.2016 11:41:23*
%MOMM*%
G01*
G04 APERTURE LIST*
%ADD10C,0.150000*%
%ADD11C,0.900000*%
%ADD12R,0.950000X1.400000*%
%ADD13R,1.100000X1.400000*%
%ADD14R,1.400000X0.950000*%
%ADD15R,0.485000X1.200000*%
%ADD16R,1.200000X1.700000*%
%ADD17R,1.400000X2.400000*%
%ADD18C,1.700000*%
%ADD19C,1.724000*%
%ADD20C,0.254000*%
G04 APERTURE END LIST*
D10*
D11*
X99009200Y-62395100D03*
X99009200Y-63665100D03*
X100279200Y-62395100D03*
X100279200Y-63665100D03*
X101549200Y-62395100D03*
X101549200Y-63665100D03*
X102819200Y-62395100D03*
X102819200Y-63665100D03*
X104089200Y-62395100D03*
X104089200Y-63665100D03*
X105359200Y-62395100D03*
X105359200Y-63665100D03*
X106629200Y-62395100D03*
X106629200Y-63665100D03*
X107899200Y-62395100D03*
X107899200Y-63665100D03*
X109169200Y-62395100D03*
X109169200Y-63665100D03*
X110439200Y-62395100D03*
X110439200Y-63665100D03*
X111709200Y-62395100D03*
X111709200Y-63665100D03*
X112979200Y-62395100D03*
X112979200Y-63665100D03*
X114249200Y-62395100D03*
X114249200Y-63665100D03*
X36779200Y-62395100D03*
X36779200Y-63665100D03*
X38049200Y-62395100D03*
X38049200Y-63665100D03*
X39319200Y-62395100D03*
X39319200Y-63665100D03*
X40589200Y-62395100D03*
X40589200Y-63665100D03*
X41859200Y-62395100D03*
X41859200Y-63665100D03*
X43129200Y-62395100D03*
X43129200Y-63665100D03*
X44399200Y-62395100D03*
X44399200Y-63665100D03*
X45669200Y-62395100D03*
X45669200Y-63665100D03*
X46939200Y-62395100D03*
X46939200Y-63665100D03*
X48209200Y-62395100D03*
X48209200Y-63665100D03*
X49479200Y-62395100D03*
X49479200Y-63665100D03*
X50749200Y-62395100D03*
X50749200Y-63665100D03*
X52019200Y-62395100D03*
X52019200Y-63665100D03*
X53289200Y-62395100D03*
X53289200Y-63665100D03*
X54559200Y-62395100D03*
X54559200Y-63665100D03*
X55829200Y-62395100D03*
X55829200Y-63665100D03*
X57099200Y-62395100D03*
X57099200Y-63665100D03*
X58369200Y-62395100D03*
X58369200Y-63665100D03*
X59639200Y-62395100D03*
X59639200Y-63665100D03*
X60909200Y-62395100D03*
X60909200Y-63665100D03*
X60909200Y-108115100D03*
X60909200Y-106845100D03*
X59639200Y-108115100D03*
X59639200Y-106845100D03*
X58369200Y-108115100D03*
X58369200Y-106845100D03*
X57099200Y-108115100D03*
X57099200Y-106845100D03*
X55829200Y-108115100D03*
X55829200Y-106845100D03*
X54559200Y-108115100D03*
X54559200Y-106845100D03*
X53289200Y-108115100D03*
X53289200Y-106845100D03*
X52019200Y-108115100D03*
X52019200Y-106845100D03*
X50749200Y-108115100D03*
X50749200Y-106845100D03*
X49479200Y-108115100D03*
X49479200Y-106845100D03*
X48209200Y-108115100D03*
X48209200Y-106845100D03*
X46939200Y-108115100D03*
X46939200Y-106845100D03*
X45669200Y-108115100D03*
X45669200Y-106845100D03*
X44399200Y-108115100D03*
X44399200Y-106845100D03*
X43129200Y-108115100D03*
X43129200Y-106845100D03*
X41859200Y-108115100D03*
X41859200Y-106845100D03*
X40589200Y-108115100D03*
X40589200Y-106845100D03*
X39319200Y-108115100D03*
X39319200Y-106845100D03*
X38049200Y-108115100D03*
X38049200Y-106845100D03*
X36779200Y-108115100D03*
X36779200Y-106845100D03*
X60909200Y-100495100D03*
X60909200Y-99225100D03*
X59639200Y-100495100D03*
X59639200Y-99225100D03*
X58369200Y-100495100D03*
X58369200Y-99225100D03*
X57099200Y-100495100D03*
X57099200Y-99225100D03*
X55829200Y-100495100D03*
X55829200Y-99225100D03*
X54559200Y-100495100D03*
X54559200Y-99225100D03*
X53289200Y-100495100D03*
X53289200Y-99225100D03*
X52019200Y-100495100D03*
X52019200Y-99225100D03*
X50749200Y-99225100D03*
X50749200Y-100495100D03*
X49479200Y-100495100D03*
X49479200Y-99225100D03*
X48209200Y-100495100D03*
X48209200Y-99225100D03*
X46939200Y-100495100D03*
X46939200Y-99225100D03*
X45669200Y-100495100D03*
X45669200Y-99225100D03*
X44399200Y-99225100D03*
X44399200Y-100495100D03*
X43129200Y-100495100D03*
X43129200Y-99225100D03*
X41859200Y-100495100D03*
X41859200Y-99225100D03*
X40589200Y-100495100D03*
X40589200Y-99225100D03*
X39319200Y-100495100D03*
X39319200Y-99225100D03*
X38049200Y-99225100D03*
X38049200Y-100495100D03*
X36779200Y-100495100D03*
X36779200Y-99225100D03*
X102819200Y-106845100D03*
X104089200Y-108115100D03*
X104089200Y-106845100D03*
X102819200Y-108115100D03*
X100279200Y-108115100D03*
X100279200Y-106845100D03*
X99009200Y-108115100D03*
X99009200Y-106845100D03*
X96469200Y-106845100D03*
X97739200Y-108115100D03*
X97739200Y-106845100D03*
X96469200Y-108115100D03*
X95199200Y-108115100D03*
X95199200Y-106845100D03*
X93929200Y-108115100D03*
X93929200Y-106845100D03*
X92659200Y-108115100D03*
X92659200Y-106845100D03*
X101549200Y-108115100D03*
X101549200Y-106845100D03*
X112979200Y-108115100D03*
X112979200Y-106845100D03*
X111709200Y-108115100D03*
X111709200Y-106845100D03*
X114249200Y-108115100D03*
X114249200Y-106845100D03*
X109169200Y-106845100D03*
X110439200Y-108115100D03*
X110439200Y-106845100D03*
X109169200Y-108115100D03*
X107899200Y-108115100D03*
X107899200Y-106845100D03*
X106629200Y-108115100D03*
X106629200Y-106845100D03*
X105359200Y-108115100D03*
X105359200Y-106845100D03*
X115519200Y-106845100D03*
X116789200Y-108115100D03*
X116789200Y-106845100D03*
X115519200Y-108115100D03*
X96469200Y-100495100D03*
X97739200Y-100495100D03*
X96469200Y-99225100D03*
X97739200Y-99225100D03*
X95199200Y-100495100D03*
X93929200Y-100495100D03*
X93929200Y-99225100D03*
X92659200Y-100495100D03*
X95199200Y-99225100D03*
X92659200Y-99225100D03*
X115519200Y-100495100D03*
X116789200Y-100495100D03*
X115519200Y-99225100D03*
X116789200Y-99225100D03*
X105359200Y-100495100D03*
X102819200Y-99225100D03*
X104089200Y-100495100D03*
X104089200Y-99225100D03*
X102819200Y-100495100D03*
X105359200Y-99225100D03*
X107899200Y-100495100D03*
X107899200Y-99225100D03*
X109169200Y-100495100D03*
X106629200Y-100495100D03*
X110439200Y-99225100D03*
X109169200Y-99225100D03*
X110439200Y-100495100D03*
X106629200Y-99225100D03*
X101549200Y-100495100D03*
X100279200Y-100495100D03*
X100279200Y-99225100D03*
X99009200Y-100495100D03*
X99009200Y-99225100D03*
X101549200Y-99225100D03*
X114249200Y-100495100D03*
X112979200Y-100495100D03*
X112979200Y-99225100D03*
X111709200Y-100495100D03*
X111709200Y-99225100D03*
X114249200Y-99225100D03*
X36779200Y-70015100D03*
X36779200Y-71285100D03*
X38049200Y-70015100D03*
X38049200Y-71285100D03*
X39319200Y-70015100D03*
X39319200Y-71285100D03*
X40589200Y-70015100D03*
X40589200Y-71285100D03*
X41859200Y-70015100D03*
X41859200Y-71285100D03*
X43129200Y-70015100D03*
X43129200Y-71285100D03*
X44399200Y-70015100D03*
X44399200Y-71285100D03*
X45669200Y-70015100D03*
X45669200Y-71285100D03*
X46939200Y-70015100D03*
X46939200Y-71285100D03*
X48209200Y-70015100D03*
X48209200Y-71285100D03*
X49479200Y-70015100D03*
X49479200Y-71285100D03*
X50749200Y-70015100D03*
X50749200Y-71285100D03*
X52019200Y-70015100D03*
X52019200Y-71285100D03*
X53289200Y-70015100D03*
X53289200Y-71285100D03*
X54559200Y-70015100D03*
X54559200Y-71285100D03*
X55829200Y-70015100D03*
X55829200Y-71285100D03*
X57099200Y-70015100D03*
X57099200Y-71285100D03*
X58369200Y-70015100D03*
X58369200Y-71285100D03*
X59639200Y-70015100D03*
X59639200Y-71285100D03*
X60909200Y-70015100D03*
X60909200Y-71285100D03*
X115519200Y-62395100D03*
X115519200Y-63665100D03*
X116789200Y-62395100D03*
X116789200Y-63665100D03*
X119646700Y-63030100D03*
X96151700Y-63030100D03*
X63766700Y-63030100D03*
X33921700Y-63030100D03*
X63766700Y-70650100D03*
X33921700Y-70650100D03*
X63766700Y-99860100D03*
X63766700Y-107480100D03*
X33921700Y-99860100D03*
X33921700Y-107480100D03*
X119646700Y-99860100D03*
X89801700Y-99860100D03*
X89801700Y-107480100D03*
X119646700Y-107480100D03*
D12*
X51180000Y-125090000D03*
X51180000Y-123190000D03*
X98760000Y-144380000D03*
X98760000Y-146280000D03*
D13*
X84320000Y-95080000D03*
X84320000Y-92880000D03*
X71770000Y-95100000D03*
X71770000Y-92900000D03*
D12*
X51290000Y-137680000D03*
X51290000Y-139580000D03*
D14*
X101990000Y-129910000D03*
X103890000Y-129910000D03*
D13*
X89310000Y-95170000D03*
X89310000Y-92970000D03*
X86750000Y-95100000D03*
X86750000Y-92900000D03*
X69490000Y-95170000D03*
X69490000Y-92970000D03*
D15*
X98200000Y-142160000D03*
X97700000Y-142160000D03*
X97200000Y-142160000D03*
X96700000Y-142160000D03*
X96200000Y-142160000D03*
X95700000Y-142160000D03*
X95200000Y-142160000D03*
X94700000Y-142160000D03*
X94200000Y-142160000D03*
X93700000Y-142160000D03*
X93200000Y-142160000D03*
X92700000Y-142160000D03*
X92200000Y-142160000D03*
X91700000Y-142160000D03*
X91200000Y-142160000D03*
X90700000Y-142160000D03*
X90200000Y-142160000D03*
X89700000Y-142160000D03*
X89200000Y-142160000D03*
X88700000Y-142160000D03*
X88200000Y-142160000D03*
X87700000Y-142160000D03*
X87200000Y-142160000D03*
X86700000Y-142160000D03*
X86700000Y-134660000D03*
X87200000Y-134660000D03*
X87700000Y-134660000D03*
X88200000Y-134660000D03*
X88700000Y-134660000D03*
X89200000Y-134660000D03*
X89700000Y-134660000D03*
X90200000Y-134660000D03*
X90700000Y-134660000D03*
X91200000Y-134660000D03*
X91700000Y-134660000D03*
X92200000Y-134660000D03*
X92700000Y-134660000D03*
X93200000Y-134660000D03*
X93700000Y-134660000D03*
X94200000Y-134660000D03*
X94700000Y-134660000D03*
X95200000Y-134660000D03*
X95700000Y-134660000D03*
X96200000Y-134660000D03*
X96700000Y-134660000D03*
X97200000Y-134660000D03*
X97700000Y-134660000D03*
X98200000Y-134660000D03*
D14*
X79210000Y-92480000D03*
X81110000Y-92480000D03*
X79180000Y-94760000D03*
X81080000Y-94760000D03*
D12*
X43950000Y-75480000D03*
X43950000Y-77380000D03*
D15*
X59940000Y-135380000D03*
X59440000Y-135380000D03*
X58940000Y-135380000D03*
X58440000Y-135380000D03*
X57940000Y-135380000D03*
X57440000Y-135380000D03*
X56940000Y-135380000D03*
X56440000Y-135380000D03*
X55940000Y-135380000D03*
X55440000Y-135380000D03*
X54940000Y-135380000D03*
X54440000Y-135380000D03*
X53940000Y-135380000D03*
X53440000Y-135380000D03*
X52940000Y-135380000D03*
X52440000Y-135380000D03*
X51940000Y-135380000D03*
X51440000Y-135380000D03*
X50940000Y-135380000D03*
X50440000Y-135380000D03*
X49940000Y-135380000D03*
X49440000Y-135380000D03*
X48940000Y-135380000D03*
X48440000Y-135380000D03*
X48440000Y-127880000D03*
X48940000Y-127880000D03*
X49440000Y-127880000D03*
X49940000Y-127880000D03*
X50440000Y-127880000D03*
X50940000Y-127880000D03*
X51440000Y-127880000D03*
X51940000Y-127880000D03*
X52440000Y-127880000D03*
X52940000Y-127880000D03*
X53440000Y-127880000D03*
X53940000Y-127880000D03*
X54440000Y-127880000D03*
X54940000Y-127880000D03*
X55440000Y-127880000D03*
X55940000Y-127880000D03*
X56440000Y-127880000D03*
X56940000Y-127880000D03*
X57440000Y-127880000D03*
X57940000Y-127880000D03*
X58440000Y-127880000D03*
X58940000Y-127880000D03*
X59440000Y-127880000D03*
X59940000Y-127880000D03*
D16*
X86745000Y-89350000D03*
X84245000Y-89350000D03*
X80945000Y-89350000D03*
X79245000Y-89350000D03*
X76745000Y-89350000D03*
X74245000Y-89350000D03*
X71820000Y-89350000D03*
X70120000Y-89350000D03*
X89245000Y-89350000D03*
X82595000Y-89350000D03*
X66770000Y-89350000D03*
D17*
X94270000Y-68350000D03*
X66270000Y-67150000D03*
D18*
X91970000Y-65050000D03*
X67770000Y-65050000D03*
D19*
X45890000Y-75190000D03*
X45890000Y-77730000D03*
X45890000Y-80270000D03*
X45890000Y-82810000D03*
X45890000Y-85350000D03*
X45890000Y-87890000D03*
X45890000Y-90430000D03*
X45890000Y-92970000D03*
X45890000Y-95510000D03*
X108120000Y-81540000D03*
X108120000Y-84080000D03*
X108120000Y-89160000D03*
X108120000Y-86620000D03*
D20*
G36*
X114731800Y-158153100D02*
X82984340Y-158153100D01*
X82984340Y-150157180D01*
X114731800Y-150157180D01*
X114731800Y-158153100D01*
X114731800Y-158153100D01*
G37*
X114731800Y-158153100D02*
X82984340Y-158153100D01*
X82984340Y-150157180D01*
X114731800Y-150157180D01*
X114731800Y-158153100D01*
G36*
X76730860Y-158153100D02*
X39984680Y-158153100D01*
X39984680Y-150157180D01*
X76730860Y-150157180D01*
X76730860Y-158153100D01*
X76730860Y-158153100D01*
G37*
X76730860Y-158153100D02*
X39984680Y-158153100D01*
X39984680Y-150157180D01*
X76730860Y-150157180D01*
X76730860Y-158153100D01*
M02*
