G04 #@! TF.FileFunction,Legend,Bot*
%FSLAX46Y46*%
G04 Gerber Fmt 4.6, Leading zero omitted, Abs format (unit mm)*
G04 Created by KiCad (PCBNEW 4.0.2-stable) date 05.06.2016 11:41:23*
%MOMM*%
G01*
G04 APERTURE LIST*
%ADD10C,0.150000*%
G04 APERTURE END LIST*
D10*
X121234200Y-110655100D02*
X121234200Y-59855100D01*
X32334200Y-110655100D02*
X121234200Y-110655100D01*
X32334200Y-59855100D02*
X32334200Y-110655100D01*
X121234200Y-59855100D02*
X32334200Y-59855100D01*
X51780000Y-124490000D02*
X51780000Y-123790000D01*
X50580000Y-123790000D02*
X50580000Y-124490000D01*
X98160000Y-144980000D02*
X98160000Y-145680000D01*
X99360000Y-145680000D02*
X99360000Y-144980000D01*
X83645000Y-93480000D02*
X83645000Y-94480000D01*
X84995000Y-94480000D02*
X84995000Y-93480000D01*
X71095000Y-93500000D02*
X71095000Y-94500000D01*
X72445000Y-94500000D02*
X72445000Y-93500000D01*
X50690000Y-138280000D02*
X50690000Y-138980000D01*
X51890000Y-138980000D02*
X51890000Y-138280000D01*
X102590000Y-130510000D02*
X103290000Y-130510000D01*
X103290000Y-129310000D02*
X102590000Y-129310000D01*
X88635000Y-93570000D02*
X88635000Y-94570000D01*
X89985000Y-94570000D02*
X89985000Y-93570000D01*
X86075000Y-93500000D02*
X86075000Y-94500000D01*
X87425000Y-94500000D02*
X87425000Y-93500000D01*
X68815000Y-93570000D02*
X68815000Y-94570000D01*
X70165000Y-94570000D02*
X70165000Y-93570000D01*
X98825000Y-141585000D02*
X98567500Y-141585000D01*
X98825000Y-135235000D02*
X98567500Y-135235000D01*
X86075000Y-135235000D02*
X86332500Y-135235000D01*
X86075000Y-141585000D02*
X86332500Y-141585000D01*
X98825000Y-141585000D02*
X98825000Y-135235000D01*
X86075000Y-141585000D02*
X86075000Y-135235000D01*
X98567500Y-141585000D02*
X98567500Y-142660000D01*
X79810000Y-93080000D02*
X80510000Y-93080000D01*
X80510000Y-91880000D02*
X79810000Y-91880000D01*
X79780000Y-95360000D02*
X80480000Y-95360000D01*
X80480000Y-94160000D02*
X79780000Y-94160000D01*
X43350000Y-76080000D02*
X43350000Y-76780000D01*
X44550000Y-76780000D02*
X44550000Y-76080000D01*
X60565000Y-134805000D02*
X60307500Y-134805000D01*
X60565000Y-128455000D02*
X60307500Y-128455000D01*
X47815000Y-128455000D02*
X48072500Y-128455000D01*
X47815000Y-134805000D02*
X48072500Y-134805000D01*
X60565000Y-134805000D02*
X60565000Y-128455000D01*
X47815000Y-134805000D02*
X47815000Y-128455000D01*
X60307500Y-134805000D02*
X60307500Y-135880000D01*
X87770000Y-89350000D02*
X88270000Y-89350000D01*
X85270000Y-89350000D02*
X85770000Y-89350000D01*
X77770000Y-89350000D02*
X78270000Y-89350000D01*
X75270000Y-89350000D02*
X75770000Y-89350000D01*
X72870000Y-89350000D02*
X73270000Y-89350000D01*
X67770000Y-89350000D02*
X69170000Y-89350000D01*
X65870000Y-68750000D02*
X65870000Y-89350000D01*
X94770000Y-69950000D02*
X94770000Y-89350000D01*
X94770000Y-89350000D02*
X90270000Y-89350000D01*
X94770000Y-59550000D02*
X65870000Y-59550000D01*
X65870000Y-59550000D02*
X65870000Y-65550000D01*
X94770000Y-59550000D02*
X94770000Y-66750000D01*
X95143485Y-60712243D02*
X95191104Y-60759862D01*
X95333961Y-60807481D01*
X95429199Y-60807481D01*
X95572057Y-60759862D01*
X95667295Y-60664624D01*
X95714914Y-60569386D01*
X95762533Y-60378910D01*
X95762533Y-60236052D01*
X95714914Y-60045576D01*
X95667295Y-59950338D01*
X95572057Y-59855100D01*
X95429199Y-59807481D01*
X95333961Y-59807481D01*
X95191104Y-59855100D01*
X95143485Y-59902719D01*
X94524438Y-59807481D02*
X94333961Y-59807481D01*
X94238723Y-59855100D01*
X94143485Y-59950338D01*
X94095866Y-60140814D01*
X94095866Y-60474148D01*
X94143485Y-60664624D01*
X94238723Y-60759862D01*
X94333961Y-60807481D01*
X94524438Y-60807481D01*
X94619676Y-60759862D01*
X94714914Y-60664624D01*
X94762533Y-60474148D01*
X94762533Y-60140814D01*
X94714914Y-59950338D01*
X94619676Y-59855100D01*
X94524438Y-59807481D01*
X93667295Y-60807481D02*
X93667295Y-59807481D01*
X93095866Y-60807481D01*
X93095866Y-59807481D01*
X92095866Y-60807481D02*
X92667295Y-60807481D01*
X92381581Y-60807481D02*
X92381581Y-59807481D01*
X92476819Y-59950338D01*
X92572057Y-60045576D01*
X92667295Y-60093195D01*
X53437143Y-123497143D02*
X53484762Y-123449524D01*
X53532381Y-123306667D01*
X53532381Y-123211429D01*
X53484762Y-123068571D01*
X53389524Y-122973333D01*
X53294286Y-122925714D01*
X53103810Y-122878095D01*
X52960952Y-122878095D01*
X52770476Y-122925714D01*
X52675238Y-122973333D01*
X52580000Y-123068571D01*
X52532381Y-123211429D01*
X52532381Y-123306667D01*
X52580000Y-123449524D01*
X52627619Y-123497143D01*
X53532381Y-124449524D02*
X53532381Y-123878095D01*
X53532381Y-124163809D02*
X52532381Y-124163809D01*
X52675238Y-124068571D01*
X52770476Y-123973333D01*
X52818095Y-123878095D01*
X52960952Y-125020952D02*
X52913333Y-124925714D01*
X52865714Y-124878095D01*
X52770476Y-124830476D01*
X52722857Y-124830476D01*
X52627619Y-124878095D01*
X52580000Y-124925714D01*
X52532381Y-125020952D01*
X52532381Y-125211429D01*
X52580000Y-125306667D01*
X52627619Y-125354286D01*
X52722857Y-125401905D01*
X52770476Y-125401905D01*
X52865714Y-125354286D01*
X52913333Y-125306667D01*
X52960952Y-125211429D01*
X52960952Y-125020952D01*
X53008571Y-124925714D01*
X53056190Y-124878095D01*
X53151429Y-124830476D01*
X53341905Y-124830476D01*
X53437143Y-124878095D01*
X53484762Y-124925714D01*
X53532381Y-125020952D01*
X53532381Y-125211429D01*
X53484762Y-125306667D01*
X53437143Y-125354286D01*
X53341905Y-125401905D01*
X53151429Y-125401905D01*
X53056190Y-125354286D01*
X53008571Y-125306667D01*
X52960952Y-125211429D01*
X97217143Y-144687143D02*
X97264762Y-144639524D01*
X97312381Y-144496667D01*
X97312381Y-144401429D01*
X97264762Y-144258571D01*
X97169524Y-144163333D01*
X97074286Y-144115714D01*
X96883810Y-144068095D01*
X96740952Y-144068095D01*
X96550476Y-144115714D01*
X96455238Y-144163333D01*
X96360000Y-144258571D01*
X96312381Y-144401429D01*
X96312381Y-144496667D01*
X96360000Y-144639524D01*
X96407619Y-144687143D01*
X97312381Y-145639524D02*
X97312381Y-145068095D01*
X97312381Y-145353809D02*
X96312381Y-145353809D01*
X96455238Y-145258571D01*
X96550476Y-145163333D01*
X96598095Y-145068095D01*
X96312381Y-145972857D02*
X96312381Y-146591905D01*
X96693333Y-146258571D01*
X96693333Y-146401429D01*
X96740952Y-146496667D01*
X96788571Y-146544286D01*
X96883810Y-146591905D01*
X97121905Y-146591905D01*
X97217143Y-146544286D01*
X97264762Y-146496667D01*
X97312381Y-146401429D01*
X97312381Y-146115714D01*
X97264762Y-146020476D01*
X97217143Y-145972857D01*
X84780381Y-97369334D02*
X84304190Y-97036000D01*
X84780381Y-96797905D02*
X83780381Y-96797905D01*
X83780381Y-97178858D01*
X83828000Y-97274096D01*
X83875619Y-97321715D01*
X83970857Y-97369334D01*
X84113714Y-97369334D01*
X84208952Y-97321715D01*
X84256571Y-97274096D01*
X84304190Y-97178858D01*
X84304190Y-96797905D01*
X83780381Y-97702667D02*
X83780381Y-98321715D01*
X84161333Y-97988381D01*
X84161333Y-98131239D01*
X84208952Y-98226477D01*
X84256571Y-98274096D01*
X84351810Y-98321715D01*
X84589905Y-98321715D01*
X84685143Y-98274096D01*
X84732762Y-98226477D01*
X84780381Y-98131239D01*
X84780381Y-97845524D01*
X84732762Y-97750286D01*
X84685143Y-97702667D01*
X72334381Y-97623334D02*
X71858190Y-97290000D01*
X72334381Y-97051905D02*
X71334381Y-97051905D01*
X71334381Y-97432858D01*
X71382000Y-97528096D01*
X71429619Y-97575715D01*
X71524857Y-97623334D01*
X71667714Y-97623334D01*
X71762952Y-97575715D01*
X71810571Y-97528096D01*
X71858190Y-97432858D01*
X71858190Y-97051905D01*
X71667714Y-98480477D02*
X72334381Y-98480477D01*
X71286762Y-98242381D02*
X72001048Y-98004286D01*
X72001048Y-98623334D01*
X49747143Y-137987143D02*
X49794762Y-137939524D01*
X49842381Y-137796667D01*
X49842381Y-137701429D01*
X49794762Y-137558571D01*
X49699524Y-137463333D01*
X49604286Y-137415714D01*
X49413810Y-137368095D01*
X49270952Y-137368095D01*
X49080476Y-137415714D01*
X48985238Y-137463333D01*
X48890000Y-137558571D01*
X48842381Y-137701429D01*
X48842381Y-137796667D01*
X48890000Y-137939524D01*
X48937619Y-137987143D01*
X49842381Y-138939524D02*
X49842381Y-138368095D01*
X49842381Y-138653809D02*
X48842381Y-138653809D01*
X48985238Y-138558571D01*
X49080476Y-138463333D01*
X49128095Y-138368095D01*
X48842381Y-139844286D02*
X48842381Y-139368095D01*
X49318571Y-139320476D01*
X49270952Y-139368095D01*
X49223333Y-139463333D01*
X49223333Y-139701429D01*
X49270952Y-139796667D01*
X49318571Y-139844286D01*
X49413810Y-139891905D01*
X49651905Y-139891905D01*
X49747143Y-139844286D01*
X49794762Y-139796667D01*
X49842381Y-139701429D01*
X49842381Y-139463333D01*
X49794762Y-139368095D01*
X49747143Y-139320476D01*
X103582857Y-132167143D02*
X103630476Y-132214762D01*
X103773333Y-132262381D01*
X103868571Y-132262381D01*
X104011429Y-132214762D01*
X104106667Y-132119524D01*
X104154286Y-132024286D01*
X104201905Y-131833810D01*
X104201905Y-131690952D01*
X104154286Y-131500476D01*
X104106667Y-131405238D01*
X104011429Y-131310000D01*
X103868571Y-131262381D01*
X103773333Y-131262381D01*
X103630476Y-131310000D01*
X103582857Y-131357619D01*
X102630476Y-132262381D02*
X103201905Y-132262381D01*
X102916191Y-132262381D02*
X102916191Y-131262381D01*
X103011429Y-131405238D01*
X103106667Y-131500476D01*
X103201905Y-131548095D01*
X101773333Y-131262381D02*
X101963810Y-131262381D01*
X102059048Y-131310000D01*
X102106667Y-131357619D01*
X102201905Y-131500476D01*
X102249524Y-131690952D01*
X102249524Y-132071905D01*
X102201905Y-132167143D01*
X102154286Y-132214762D01*
X102059048Y-132262381D01*
X101868571Y-132262381D01*
X101773333Y-132214762D01*
X101725714Y-132167143D01*
X101678095Y-132071905D01*
X101678095Y-131833810D01*
X101725714Y-131738571D01*
X101773333Y-131690952D01*
X101868571Y-131643333D01*
X102059048Y-131643333D01*
X102154286Y-131690952D01*
X102201905Y-131738571D01*
X102249524Y-131833810D01*
X89860381Y-97369334D02*
X89384190Y-97036000D01*
X89860381Y-96797905D02*
X88860381Y-96797905D01*
X88860381Y-97178858D01*
X88908000Y-97274096D01*
X88955619Y-97321715D01*
X89050857Y-97369334D01*
X89193714Y-97369334D01*
X89288952Y-97321715D01*
X89336571Y-97274096D01*
X89384190Y-97178858D01*
X89384190Y-96797905D01*
X89860381Y-98321715D02*
X89860381Y-97750286D01*
X89860381Y-98036000D02*
X88860381Y-98036000D01*
X89003238Y-97940762D01*
X89098476Y-97845524D01*
X89146095Y-97750286D01*
X87320381Y-97369334D02*
X86844190Y-97036000D01*
X87320381Y-96797905D02*
X86320381Y-96797905D01*
X86320381Y-97178858D01*
X86368000Y-97274096D01*
X86415619Y-97321715D01*
X86510857Y-97369334D01*
X86653714Y-97369334D01*
X86748952Y-97321715D01*
X86796571Y-97274096D01*
X86844190Y-97178858D01*
X86844190Y-96797905D01*
X86415619Y-97750286D02*
X86368000Y-97797905D01*
X86320381Y-97893143D01*
X86320381Y-98131239D01*
X86368000Y-98226477D01*
X86415619Y-98274096D01*
X86510857Y-98321715D01*
X86606095Y-98321715D01*
X86748952Y-98274096D01*
X87320381Y-97702667D01*
X87320381Y-98321715D01*
X69794381Y-97623334D02*
X69318190Y-97290000D01*
X69794381Y-97051905D02*
X68794381Y-97051905D01*
X68794381Y-97432858D01*
X68842000Y-97528096D01*
X68889619Y-97575715D01*
X68984857Y-97623334D01*
X69127714Y-97623334D01*
X69222952Y-97575715D01*
X69270571Y-97528096D01*
X69318190Y-97432858D01*
X69318190Y-97051905D01*
X68794381Y-98528096D02*
X68794381Y-98051905D01*
X69270571Y-98004286D01*
X69222952Y-98051905D01*
X69175333Y-98147143D01*
X69175333Y-98385239D01*
X69222952Y-98480477D01*
X69270571Y-98528096D01*
X69365810Y-98575715D01*
X69603905Y-98575715D01*
X69699143Y-98528096D01*
X69746762Y-98480477D01*
X69794381Y-98385239D01*
X69794381Y-98147143D01*
X69746762Y-98051905D01*
X69699143Y-98004286D01*
X93217905Y-131278381D02*
X93217905Y-132087905D01*
X93170286Y-132183143D01*
X93122667Y-132230762D01*
X93027429Y-132278381D01*
X92836952Y-132278381D01*
X92741714Y-132230762D01*
X92694095Y-132183143D01*
X92646476Y-132087905D01*
X92646476Y-131278381D01*
X91741714Y-131278381D02*
X91932191Y-131278381D01*
X92027429Y-131326000D01*
X92075048Y-131373619D01*
X92170286Y-131516476D01*
X92217905Y-131706952D01*
X92217905Y-132087905D01*
X92170286Y-132183143D01*
X92122667Y-132230762D01*
X92027429Y-132278381D01*
X91836952Y-132278381D01*
X91741714Y-132230762D01*
X91694095Y-132183143D01*
X91646476Y-132087905D01*
X91646476Y-131849810D01*
X91694095Y-131754571D01*
X91741714Y-131706952D01*
X91836952Y-131659333D01*
X92027429Y-131659333D01*
X92122667Y-131706952D01*
X92170286Y-131754571D01*
X92217905Y-131849810D01*
X76842857Y-93067143D02*
X76890476Y-93114762D01*
X77033333Y-93162381D01*
X77128571Y-93162381D01*
X77271429Y-93114762D01*
X77366667Y-93019524D01*
X77414286Y-92924286D01*
X77461905Y-92733810D01*
X77461905Y-92590952D01*
X77414286Y-92400476D01*
X77366667Y-92305238D01*
X77271429Y-92210000D01*
X77128571Y-92162381D01*
X77033333Y-92162381D01*
X76890476Y-92210000D01*
X76842857Y-92257619D01*
X76509524Y-92162381D02*
X75890476Y-92162381D01*
X76223810Y-92543333D01*
X76080952Y-92543333D01*
X75985714Y-92590952D01*
X75938095Y-92638571D01*
X75890476Y-92733810D01*
X75890476Y-92971905D01*
X75938095Y-93067143D01*
X75985714Y-93114762D01*
X76080952Y-93162381D01*
X76366667Y-93162381D01*
X76461905Y-93114762D01*
X76509524Y-93067143D01*
X74938095Y-93162381D02*
X75509524Y-93162381D01*
X75223810Y-93162381D02*
X75223810Y-92162381D01*
X75319048Y-92305238D01*
X75414286Y-92400476D01*
X75509524Y-92448095D01*
X80772857Y-97017143D02*
X80820476Y-97064762D01*
X80963333Y-97112381D01*
X81058571Y-97112381D01*
X81201429Y-97064762D01*
X81296667Y-96969524D01*
X81344286Y-96874286D01*
X81391905Y-96683810D01*
X81391905Y-96540952D01*
X81344286Y-96350476D01*
X81296667Y-96255238D01*
X81201429Y-96160000D01*
X81058571Y-96112381D01*
X80963333Y-96112381D01*
X80820476Y-96160000D01*
X80772857Y-96207619D01*
X80439524Y-96112381D02*
X79820476Y-96112381D01*
X80153810Y-96493333D01*
X80010952Y-96493333D01*
X79915714Y-96540952D01*
X79868095Y-96588571D01*
X79820476Y-96683810D01*
X79820476Y-96921905D01*
X79868095Y-97017143D01*
X79915714Y-97064762D01*
X80010952Y-97112381D01*
X80296667Y-97112381D01*
X80391905Y-97064762D01*
X80439524Y-97017143D01*
X79439524Y-96207619D02*
X79391905Y-96160000D01*
X79296667Y-96112381D01*
X79058571Y-96112381D01*
X78963333Y-96160000D01*
X78915714Y-96207619D01*
X78868095Y-96302857D01*
X78868095Y-96398095D01*
X78915714Y-96540952D01*
X79487143Y-97112381D01*
X78868095Y-97112381D01*
X42407143Y-75787143D02*
X42454762Y-75739524D01*
X42502381Y-75596667D01*
X42502381Y-75501429D01*
X42454762Y-75358571D01*
X42359524Y-75263333D01*
X42264286Y-75215714D01*
X42073810Y-75168095D01*
X41930952Y-75168095D01*
X41740476Y-75215714D01*
X41645238Y-75263333D01*
X41550000Y-75358571D01*
X41502381Y-75501429D01*
X41502381Y-75596667D01*
X41550000Y-75739524D01*
X41597619Y-75787143D01*
X41502381Y-76120476D02*
X41502381Y-76739524D01*
X41883333Y-76406190D01*
X41883333Y-76549048D01*
X41930952Y-76644286D01*
X41978571Y-76691905D01*
X42073810Y-76739524D01*
X42311905Y-76739524D01*
X42407143Y-76691905D01*
X42454762Y-76644286D01*
X42502381Y-76549048D01*
X42502381Y-76263333D01*
X42454762Y-76168095D01*
X42407143Y-76120476D01*
X41930952Y-77310952D02*
X41883333Y-77215714D01*
X41835714Y-77168095D01*
X41740476Y-77120476D01*
X41692857Y-77120476D01*
X41597619Y-77168095D01*
X41550000Y-77215714D01*
X41502381Y-77310952D01*
X41502381Y-77501429D01*
X41550000Y-77596667D01*
X41597619Y-77644286D01*
X41692857Y-77691905D01*
X41740476Y-77691905D01*
X41835714Y-77644286D01*
X41883333Y-77596667D01*
X41930952Y-77501429D01*
X41930952Y-77310952D01*
X41978571Y-77215714D01*
X42026190Y-77168095D01*
X42121429Y-77120476D01*
X42311905Y-77120476D01*
X42407143Y-77168095D01*
X42454762Y-77215714D01*
X42502381Y-77310952D01*
X42502381Y-77501429D01*
X42454762Y-77596667D01*
X42407143Y-77644286D01*
X42311905Y-77691905D01*
X42121429Y-77691905D01*
X42026190Y-77644286D01*
X41978571Y-77596667D01*
X41930952Y-77501429D01*
X59181905Y-125182381D02*
X59181905Y-125991905D01*
X59134286Y-126087143D01*
X59086667Y-126134762D01*
X58991429Y-126182381D01*
X58800952Y-126182381D01*
X58705714Y-126134762D01*
X58658095Y-126087143D01*
X58610476Y-125991905D01*
X58610476Y-125182381D01*
X58229524Y-125182381D02*
X57562857Y-125182381D01*
X57991429Y-126182381D01*
X99258285Y-71985143D02*
X99305904Y-72032762D01*
X99448761Y-72080381D01*
X99543999Y-72080381D01*
X99686857Y-72032762D01*
X99782095Y-71937524D01*
X99829714Y-71842286D01*
X99877333Y-71651810D01*
X99877333Y-71508952D01*
X99829714Y-71318476D01*
X99782095Y-71223238D01*
X99686857Y-71128000D01*
X99543999Y-71080381D01*
X99448761Y-71080381D01*
X99305904Y-71128000D01*
X99258285Y-71175619D01*
X98639238Y-71080381D02*
X98448761Y-71080381D01*
X98353523Y-71128000D01*
X98258285Y-71223238D01*
X98210666Y-71413714D01*
X98210666Y-71747048D01*
X98258285Y-71937524D01*
X98353523Y-72032762D01*
X98448761Y-72080381D01*
X98639238Y-72080381D01*
X98734476Y-72032762D01*
X98829714Y-71937524D01*
X98877333Y-71747048D01*
X98877333Y-71413714D01*
X98829714Y-71223238D01*
X98734476Y-71128000D01*
X98639238Y-71080381D01*
X97782095Y-72080381D02*
X97782095Y-71080381D01*
X97210666Y-72080381D01*
X97210666Y-71080381D01*
X96782095Y-71175619D02*
X96734476Y-71128000D01*
X96639238Y-71080381D01*
X96401142Y-71080381D01*
X96305904Y-71128000D01*
X96258285Y-71175619D01*
X96210666Y-71270857D01*
X96210666Y-71366095D01*
X96258285Y-71508952D01*
X96829714Y-72080381D01*
X96210666Y-72080381D01*
M02*
