G04 #@! TF.FileFunction,Copper,L1,Top,Signal*
%FSLAX46Y46*%
G04 Gerber Fmt 4.6, Leading zero omitted, Abs format (unit mm)*
G04 Created by KiCad (PCBNEW 4.0.2-stable) date 14/07/2016 12:59:32*
%MOMM*%
G01*
G04 APERTURE LIST*
%ADD10C,0.152400*%
%ADD11C,0.002540*%
%ADD12R,0.900000X1.200000*%
%ADD13R,1.200000X0.750000*%
%ADD14R,2.032000X3.657600*%
%ADD15R,2.032000X1.016000*%
%ADD16C,1.651000*%
%ADD17R,2.032000X2.032000*%
%ADD18O,2.032000X2.032000*%
%ADD19R,0.406400X1.524000*%
%ADD20R,1.524000X0.406400*%
%ADD21R,1.270000X0.406400*%
%ADD22R,0.497840X2.499360*%
%ADD23R,1.998980X2.499360*%
%ADD24C,1.407160*%
%ADD25R,1.200000X0.900000*%
%ADD26R,0.750000X1.200000*%
%ADD27R,1.600000X2.000000*%
%ADD28R,1.727200X1.727200*%
%ADD29O,1.727200X1.727200*%
%ADD30R,1.198880X1.198880*%
%ADD31R,2.235200X2.235200*%
%ADD32C,0.700000*%
%ADD33C,0.203100*%
%ADD34C,0.406400*%
%ADD35C,0.254000*%
G04 APERTURE END LIST*
D10*
D11*
G36*
X125165000Y-86102220D02*
X125106580Y-86191120D01*
X124961800Y-86358760D01*
X124758600Y-86567040D01*
X124524920Y-86782940D01*
X124451260Y-86831200D01*
X124451260Y-86561960D01*
X124438560Y-86536560D01*
X124336960Y-86493380D01*
X124309020Y-86506080D01*
X124268380Y-86607680D01*
X124278540Y-86635620D01*
X124382680Y-86676260D01*
X124408080Y-86666100D01*
X124451260Y-86561960D01*
X124451260Y-86831200D01*
X124372520Y-86884540D01*
X124276000Y-86884540D01*
X124250600Y-86866760D01*
X124149000Y-86823580D01*
X124027080Y-86887080D01*
X124027080Y-86561960D01*
X124016920Y-86536560D01*
X123912780Y-86493380D01*
X123887380Y-86506080D01*
X123844200Y-86607680D01*
X123856900Y-86635620D01*
X123958500Y-86676260D01*
X123986440Y-86666100D01*
X124027080Y-86561960D01*
X124027080Y-86887080D01*
X124011840Y-86897240D01*
X123940720Y-86963280D01*
X123783240Y-87087740D01*
X123780700Y-87087740D01*
X123780700Y-86828660D01*
X123768000Y-86798180D01*
X123691800Y-86716900D01*
X123676560Y-86711820D01*
X123641000Y-86777860D01*
X123641000Y-86798180D01*
X123704500Y-86879460D01*
X123729900Y-86882000D01*
X123780700Y-86828660D01*
X123780700Y-87087740D01*
X123671480Y-87097900D01*
X123592740Y-87047100D01*
X123468280Y-86981060D01*
X123394620Y-87036940D01*
X123285400Y-87082660D01*
X123056800Y-87110600D01*
X122757080Y-87123300D01*
X122431960Y-87123300D01*
X122134780Y-87108060D01*
X122117000Y-87102980D01*
X122117000Y-86798180D01*
X122048420Y-86721980D01*
X121990000Y-86711820D01*
X121875700Y-86757540D01*
X121863000Y-86798180D01*
X121929040Y-86871840D01*
X121990000Y-86882000D01*
X122101760Y-86836280D01*
X122117000Y-86798180D01*
X122117000Y-87102980D01*
X121908720Y-87075040D01*
X121807120Y-87031860D01*
X121715680Y-87016620D01*
X121639480Y-87059800D01*
X121609000Y-87072500D01*
X121609000Y-86798180D01*
X121542960Y-86714360D01*
X121522640Y-86711820D01*
X121441360Y-86777860D01*
X121438820Y-86798180D01*
X121502320Y-86879460D01*
X121522640Y-86882000D01*
X121606460Y-86815960D01*
X121609000Y-86798180D01*
X121609000Y-87072500D01*
X121504860Y-87118220D01*
X121421040Y-87067420D01*
X121299120Y-87014080D01*
X121207680Y-87067420D01*
X121184820Y-87075040D01*
X121184820Y-86798180D01*
X121118780Y-86714360D01*
X121101000Y-86711820D01*
X121017180Y-86777860D01*
X121014640Y-86798180D01*
X121080680Y-86879460D01*
X121101000Y-86882000D01*
X121182280Y-86815960D01*
X121184820Y-86798180D01*
X121184820Y-87075040D01*
X121078140Y-87118220D01*
X120996860Y-87067420D01*
X120872400Y-87016620D01*
X120788580Y-87062340D01*
X120648880Y-87110600D01*
X120557440Y-87057260D01*
X120430440Y-87006460D01*
X120382180Y-87047100D01*
X120316140Y-87118220D01*
X120227240Y-87108060D01*
X120085000Y-87003920D01*
X119864020Y-86790560D01*
X119838620Y-86762620D01*
X119622720Y-86513700D01*
X119526200Y-86340980D01*
X119541440Y-86264780D01*
X119658280Y-86300340D01*
X119869100Y-86460360D01*
X119958000Y-86544180D01*
X120189140Y-86747380D01*
X120336460Y-86821040D01*
X120377100Y-86800720D01*
X120463460Y-86747380D01*
X120554900Y-86800720D01*
X120659040Y-86838820D01*
X120786040Y-86757540D01*
X120874940Y-86658480D01*
X121027340Y-86508620D01*
X121136560Y-86483220D01*
X121202600Y-86521320D01*
X121334680Y-86579740D01*
X121421040Y-86526400D01*
X121540420Y-86475600D01*
X121631860Y-86526400D01*
X121763940Y-86577200D01*
X121847760Y-86523860D01*
X121936660Y-86493380D01*
X122073820Y-86564500D01*
X122282100Y-86749920D01*
X122490380Y-86937880D01*
X122627540Y-87011540D01*
X122726600Y-86986140D01*
X122731680Y-86981060D01*
X122863760Y-86930260D01*
X122947580Y-86986140D01*
X123033940Y-87014080D01*
X123166020Y-86945500D01*
X123371760Y-86765160D01*
X123453040Y-86686420D01*
X123719740Y-86440040D01*
X123902620Y-86318120D01*
X124024540Y-86307960D01*
X124098200Y-86394320D01*
X124154080Y-86457820D01*
X124197260Y-86394320D01*
X124296320Y-86305420D01*
X124420780Y-86300340D01*
X124486820Y-86381620D01*
X124486820Y-86389240D01*
X124537620Y-86401940D01*
X124667160Y-86313040D01*
X124723040Y-86262240D01*
X124923700Y-86102220D01*
X125081180Y-86036180D01*
X125159920Y-86074280D01*
X125165000Y-86102220D01*
X125165000Y-86102220D01*
X125165000Y-86102220D01*
G37*
X125165000Y-86102220D02*
X125106580Y-86191120D01*
X124961800Y-86358760D01*
X124758600Y-86567040D01*
X124524920Y-86782940D01*
X124451260Y-86831200D01*
X124451260Y-86561960D01*
X124438560Y-86536560D01*
X124336960Y-86493380D01*
X124309020Y-86506080D01*
X124268380Y-86607680D01*
X124278540Y-86635620D01*
X124382680Y-86676260D01*
X124408080Y-86666100D01*
X124451260Y-86561960D01*
X124451260Y-86831200D01*
X124372520Y-86884540D01*
X124276000Y-86884540D01*
X124250600Y-86866760D01*
X124149000Y-86823580D01*
X124027080Y-86887080D01*
X124027080Y-86561960D01*
X124016920Y-86536560D01*
X123912780Y-86493380D01*
X123887380Y-86506080D01*
X123844200Y-86607680D01*
X123856900Y-86635620D01*
X123958500Y-86676260D01*
X123986440Y-86666100D01*
X124027080Y-86561960D01*
X124027080Y-86887080D01*
X124011840Y-86897240D01*
X123940720Y-86963280D01*
X123783240Y-87087740D01*
X123780700Y-87087740D01*
X123780700Y-86828660D01*
X123768000Y-86798180D01*
X123691800Y-86716900D01*
X123676560Y-86711820D01*
X123641000Y-86777860D01*
X123641000Y-86798180D01*
X123704500Y-86879460D01*
X123729900Y-86882000D01*
X123780700Y-86828660D01*
X123780700Y-87087740D01*
X123671480Y-87097900D01*
X123592740Y-87047100D01*
X123468280Y-86981060D01*
X123394620Y-87036940D01*
X123285400Y-87082660D01*
X123056800Y-87110600D01*
X122757080Y-87123300D01*
X122431960Y-87123300D01*
X122134780Y-87108060D01*
X122117000Y-87102980D01*
X122117000Y-86798180D01*
X122048420Y-86721980D01*
X121990000Y-86711820D01*
X121875700Y-86757540D01*
X121863000Y-86798180D01*
X121929040Y-86871840D01*
X121990000Y-86882000D01*
X122101760Y-86836280D01*
X122117000Y-86798180D01*
X122117000Y-87102980D01*
X121908720Y-87075040D01*
X121807120Y-87031860D01*
X121715680Y-87016620D01*
X121639480Y-87059800D01*
X121609000Y-87072500D01*
X121609000Y-86798180D01*
X121542960Y-86714360D01*
X121522640Y-86711820D01*
X121441360Y-86777860D01*
X121438820Y-86798180D01*
X121502320Y-86879460D01*
X121522640Y-86882000D01*
X121606460Y-86815960D01*
X121609000Y-86798180D01*
X121609000Y-87072500D01*
X121504860Y-87118220D01*
X121421040Y-87067420D01*
X121299120Y-87014080D01*
X121207680Y-87067420D01*
X121184820Y-87075040D01*
X121184820Y-86798180D01*
X121118780Y-86714360D01*
X121101000Y-86711820D01*
X121017180Y-86777860D01*
X121014640Y-86798180D01*
X121080680Y-86879460D01*
X121101000Y-86882000D01*
X121182280Y-86815960D01*
X121184820Y-86798180D01*
X121184820Y-87075040D01*
X121078140Y-87118220D01*
X120996860Y-87067420D01*
X120872400Y-87016620D01*
X120788580Y-87062340D01*
X120648880Y-87110600D01*
X120557440Y-87057260D01*
X120430440Y-87006460D01*
X120382180Y-87047100D01*
X120316140Y-87118220D01*
X120227240Y-87108060D01*
X120085000Y-87003920D01*
X119864020Y-86790560D01*
X119838620Y-86762620D01*
X119622720Y-86513700D01*
X119526200Y-86340980D01*
X119541440Y-86264780D01*
X119658280Y-86300340D01*
X119869100Y-86460360D01*
X119958000Y-86544180D01*
X120189140Y-86747380D01*
X120336460Y-86821040D01*
X120377100Y-86800720D01*
X120463460Y-86747380D01*
X120554900Y-86800720D01*
X120659040Y-86838820D01*
X120786040Y-86757540D01*
X120874940Y-86658480D01*
X121027340Y-86508620D01*
X121136560Y-86483220D01*
X121202600Y-86521320D01*
X121334680Y-86579740D01*
X121421040Y-86526400D01*
X121540420Y-86475600D01*
X121631860Y-86526400D01*
X121763940Y-86577200D01*
X121847760Y-86523860D01*
X121936660Y-86493380D01*
X122073820Y-86564500D01*
X122282100Y-86749920D01*
X122490380Y-86937880D01*
X122627540Y-87011540D01*
X122726600Y-86986140D01*
X122731680Y-86981060D01*
X122863760Y-86930260D01*
X122947580Y-86986140D01*
X123033940Y-87014080D01*
X123166020Y-86945500D01*
X123371760Y-86765160D01*
X123453040Y-86686420D01*
X123719740Y-86440040D01*
X123902620Y-86318120D01*
X124024540Y-86307960D01*
X124098200Y-86394320D01*
X124154080Y-86457820D01*
X124197260Y-86394320D01*
X124296320Y-86305420D01*
X124420780Y-86300340D01*
X124486820Y-86381620D01*
X124486820Y-86389240D01*
X124537620Y-86401940D01*
X124667160Y-86313040D01*
X124723040Y-86262240D01*
X124923700Y-86102220D01*
X125081180Y-86036180D01*
X125159920Y-86074280D01*
X125165000Y-86102220D01*
X125165000Y-86102220D01*
G36*
X125586640Y-85093840D02*
X125525680Y-85231000D01*
X125370740Y-85426580D01*
X125162460Y-85637400D01*
X124946560Y-85817740D01*
X124806860Y-85904100D01*
X124532540Y-85995540D01*
X124237900Y-86033640D01*
X124232820Y-86036180D01*
X123895000Y-86104760D01*
X123689260Y-86247000D01*
X123521620Y-86386700D01*
X123404780Y-86455280D01*
X123392080Y-86457820D01*
X123285400Y-86516240D01*
X123216820Y-86584820D01*
X123023780Y-86696580D01*
X122767240Y-86704200D01*
X122508160Y-86610220D01*
X122371000Y-86501000D01*
X122249080Y-86391780D01*
X122114460Y-86328280D01*
X121913800Y-86297800D01*
X121603920Y-86290180D01*
X121517560Y-86290180D01*
X121139100Y-86300340D01*
X120900340Y-86338440D01*
X120770800Y-86404480D01*
X120760640Y-86417180D01*
X120631100Y-86521320D01*
X120486320Y-86511160D01*
X120298360Y-86374000D01*
X120171360Y-86249540D01*
X120001180Y-86053960D01*
X119950380Y-85926960D01*
X119985940Y-85840600D01*
X120024040Y-85731380D01*
X119942760Y-85596760D01*
X119871640Y-85525640D01*
X119744640Y-85378320D01*
X119681140Y-85200520D01*
X119660820Y-84931280D01*
X119660820Y-84844920D01*
X119686220Y-84486780D01*
X119762420Y-84283580D01*
X119787820Y-84258180D01*
X119899580Y-84105780D01*
X119869100Y-83940680D01*
X119701460Y-83747640D01*
X119488100Y-83549520D01*
X119704000Y-83323460D01*
X119838620Y-83165980D01*
X119861480Y-83069460D01*
X119790360Y-82990720D01*
X119706540Y-82868800D01*
X119711620Y-82802760D01*
X119800520Y-82797680D01*
X119945300Y-82891660D01*
X119965620Y-82911980D01*
X120171360Y-83102480D01*
X119950380Y-83331080D01*
X119808140Y-83511420D01*
X119790360Y-83605400D01*
X119876720Y-83615560D01*
X120046900Y-83541900D01*
X120278040Y-83381880D01*
X120336460Y-83333620D01*
X120570140Y-83148200D01*
X120753020Y-83044060D01*
X120953680Y-82998340D01*
X121240700Y-82988180D01*
X121319440Y-82988180D01*
X121690280Y-83003420D01*
X121931580Y-83056760D01*
X122045880Y-83127880D01*
X122175420Y-83221860D01*
X122279560Y-83191380D01*
X122355760Y-83127880D01*
X122525940Y-83005960D01*
X122652940Y-83023740D01*
X122754540Y-83135500D01*
X122866300Y-83224400D01*
X122934880Y-83211700D01*
X122932340Y-83117720D01*
X122848520Y-83028820D01*
X122741840Y-82863720D01*
X122782480Y-82655440D01*
X122950120Y-82447160D01*
X123059340Y-82368420D01*
X123148240Y-82388740D01*
X123272700Y-82525900D01*
X123300640Y-82561460D01*
X123468280Y-82751960D01*
X123607980Y-82800220D01*
X123762920Y-82703700D01*
X123905160Y-82551300D01*
X124131220Y-82284600D01*
X124339500Y-82508120D01*
X124499520Y-82657980D01*
X124616360Y-82731640D01*
X124629060Y-82734180D01*
X124756060Y-82792600D01*
X124908460Y-82937380D01*
X125045620Y-83115180D01*
X125119280Y-83270120D01*
X125116740Y-83333620D01*
X125038000Y-83364100D01*
X124908460Y-83259960D01*
X124850040Y-83191380D01*
X124712880Y-83036440D01*
X124629060Y-83003420D01*
X124550320Y-83077080D01*
X124537620Y-83092320D01*
X124385220Y-83224400D01*
X124255680Y-83204080D01*
X124232820Y-83165980D01*
X124232820Y-82691000D01*
X124187100Y-82576700D01*
X124149000Y-82564000D01*
X124072800Y-82632580D01*
X124062640Y-82691000D01*
X124108360Y-82802760D01*
X124149000Y-82818000D01*
X124222660Y-82749420D01*
X124232820Y-82691000D01*
X124232820Y-83165980D01*
X124202340Y-83117720D01*
X124115980Y-83038980D01*
X123912780Y-83008500D01*
X123707040Y-83011040D01*
X123412400Y-83038980D01*
X123216820Y-83112640D01*
X123133000Y-83183760D01*
X123133000Y-82691000D01*
X123087280Y-82576700D01*
X123046640Y-82564000D01*
X122972980Y-82632580D01*
X122962820Y-82691000D01*
X123008540Y-82802760D01*
X123046640Y-82818000D01*
X123122840Y-82749420D01*
X123133000Y-82691000D01*
X123133000Y-83183760D01*
X123051720Y-83257420D01*
X123051720Y-83259960D01*
X122906940Y-83404740D01*
X122810420Y-83435220D01*
X122703740Y-83364100D01*
X122688500Y-83351400D01*
X122561500Y-83257420D01*
X122462440Y-83285360D01*
X122393860Y-83348860D01*
X122302420Y-83463160D01*
X122327820Y-83564760D01*
X122409100Y-83661280D01*
X122508160Y-83803520D01*
X122515780Y-83884800D01*
X122439580Y-83854320D01*
X122289720Y-83724780D01*
X122155100Y-83587620D01*
X121979840Y-83402200D01*
X121835060Y-83298060D01*
X121664880Y-83252340D01*
X121405800Y-83242180D01*
X121276260Y-83242180D01*
X120963840Y-83247260D01*
X120763180Y-83280280D01*
X120613320Y-83359020D01*
X120458380Y-83501260D01*
X120438060Y-83519040D01*
X120252640Y-83765420D01*
X120168820Y-83994020D01*
X120168820Y-84016880D01*
X120120560Y-84225160D01*
X120041820Y-84342000D01*
X119950380Y-84509640D01*
X119914820Y-84799200D01*
X119914820Y-84834760D01*
X119942760Y-85131940D01*
X120049440Y-85350380D01*
X120138340Y-85454520D01*
X120278040Y-85622160D01*
X120303440Y-85733920D01*
X120252640Y-85822820D01*
X120191680Y-85942200D01*
X120265340Y-86046340D01*
X120303440Y-86076820D01*
X120516800Y-86183500D01*
X120709840Y-86186040D01*
X120803820Y-86120000D01*
X120907960Y-86079360D01*
X121136560Y-86048880D01*
X121443900Y-86036180D01*
X121512480Y-86036180D01*
X121850300Y-86038720D01*
X122068740Y-86061580D01*
X122216060Y-86117460D01*
X122343060Y-86219060D01*
X122411640Y-86290180D01*
X122650400Y-86485760D01*
X122858680Y-86534020D01*
X123041560Y-86462900D01*
X123120300Y-86379080D01*
X123061880Y-86264780D01*
X123051720Y-86252080D01*
X122978060Y-86109840D01*
X123028860Y-86053960D01*
X123160940Y-86114920D01*
X123193960Y-86142860D01*
X123366680Y-86226680D01*
X123511460Y-86198740D01*
X123582580Y-86081900D01*
X123552100Y-85942200D01*
X123455580Y-85827900D01*
X123394620Y-85817740D01*
X123305720Y-85784720D01*
X123140620Y-85657720D01*
X123000920Y-85523100D01*
X122838360Y-85342760D01*
X122757080Y-85220840D01*
X122762160Y-85187820D01*
X122879000Y-85246240D01*
X123013620Y-85368160D01*
X123209200Y-85530720D01*
X123445420Y-85665340D01*
X123674020Y-85728840D01*
X123963580Y-85766940D01*
X124263300Y-85779640D01*
X124519840Y-85761860D01*
X124677320Y-85716140D01*
X124697640Y-85695820D01*
X124819560Y-85619620D01*
X124875440Y-85612000D01*
X125012600Y-85548500D01*
X125185320Y-85398640D01*
X125335180Y-85220840D01*
X125413920Y-85065900D01*
X125413920Y-85050660D01*
X125358040Y-84921120D01*
X125294540Y-84852540D01*
X125198020Y-84720460D01*
X125078640Y-84484240D01*
X124992280Y-84270880D01*
X124862740Y-83973700D01*
X124723040Y-83717160D01*
X124634140Y-83600320D01*
X124537620Y-83470780D01*
X124542700Y-83409820D01*
X124550320Y-83409820D01*
X124659540Y-83473320D01*
X124804320Y-83618100D01*
X124933860Y-83785740D01*
X124994820Y-83917820D01*
X124994820Y-83925440D01*
X125035460Y-84027040D01*
X125139600Y-84232780D01*
X125286920Y-84494400D01*
X125292000Y-84499480D01*
X125439320Y-84766180D01*
X125546000Y-84979540D01*
X125586640Y-85093840D01*
X125586640Y-85093840D01*
X125586640Y-85093840D01*
G37*
X125586640Y-85093840D02*
X125525680Y-85231000D01*
X125370740Y-85426580D01*
X125162460Y-85637400D01*
X124946560Y-85817740D01*
X124806860Y-85904100D01*
X124532540Y-85995540D01*
X124237900Y-86033640D01*
X124232820Y-86036180D01*
X123895000Y-86104760D01*
X123689260Y-86247000D01*
X123521620Y-86386700D01*
X123404780Y-86455280D01*
X123392080Y-86457820D01*
X123285400Y-86516240D01*
X123216820Y-86584820D01*
X123023780Y-86696580D01*
X122767240Y-86704200D01*
X122508160Y-86610220D01*
X122371000Y-86501000D01*
X122249080Y-86391780D01*
X122114460Y-86328280D01*
X121913800Y-86297800D01*
X121603920Y-86290180D01*
X121517560Y-86290180D01*
X121139100Y-86300340D01*
X120900340Y-86338440D01*
X120770800Y-86404480D01*
X120760640Y-86417180D01*
X120631100Y-86521320D01*
X120486320Y-86511160D01*
X120298360Y-86374000D01*
X120171360Y-86249540D01*
X120001180Y-86053960D01*
X119950380Y-85926960D01*
X119985940Y-85840600D01*
X120024040Y-85731380D01*
X119942760Y-85596760D01*
X119871640Y-85525640D01*
X119744640Y-85378320D01*
X119681140Y-85200520D01*
X119660820Y-84931280D01*
X119660820Y-84844920D01*
X119686220Y-84486780D01*
X119762420Y-84283580D01*
X119787820Y-84258180D01*
X119899580Y-84105780D01*
X119869100Y-83940680D01*
X119701460Y-83747640D01*
X119488100Y-83549520D01*
X119704000Y-83323460D01*
X119838620Y-83165980D01*
X119861480Y-83069460D01*
X119790360Y-82990720D01*
X119706540Y-82868800D01*
X119711620Y-82802760D01*
X119800520Y-82797680D01*
X119945300Y-82891660D01*
X119965620Y-82911980D01*
X120171360Y-83102480D01*
X119950380Y-83331080D01*
X119808140Y-83511420D01*
X119790360Y-83605400D01*
X119876720Y-83615560D01*
X120046900Y-83541900D01*
X120278040Y-83381880D01*
X120336460Y-83333620D01*
X120570140Y-83148200D01*
X120753020Y-83044060D01*
X120953680Y-82998340D01*
X121240700Y-82988180D01*
X121319440Y-82988180D01*
X121690280Y-83003420D01*
X121931580Y-83056760D01*
X122045880Y-83127880D01*
X122175420Y-83221860D01*
X122279560Y-83191380D01*
X122355760Y-83127880D01*
X122525940Y-83005960D01*
X122652940Y-83023740D01*
X122754540Y-83135500D01*
X122866300Y-83224400D01*
X122934880Y-83211700D01*
X122932340Y-83117720D01*
X122848520Y-83028820D01*
X122741840Y-82863720D01*
X122782480Y-82655440D01*
X122950120Y-82447160D01*
X123059340Y-82368420D01*
X123148240Y-82388740D01*
X123272700Y-82525900D01*
X123300640Y-82561460D01*
X123468280Y-82751960D01*
X123607980Y-82800220D01*
X123762920Y-82703700D01*
X123905160Y-82551300D01*
X124131220Y-82284600D01*
X124339500Y-82508120D01*
X124499520Y-82657980D01*
X124616360Y-82731640D01*
X124629060Y-82734180D01*
X124756060Y-82792600D01*
X124908460Y-82937380D01*
X125045620Y-83115180D01*
X125119280Y-83270120D01*
X125116740Y-83333620D01*
X125038000Y-83364100D01*
X124908460Y-83259960D01*
X124850040Y-83191380D01*
X124712880Y-83036440D01*
X124629060Y-83003420D01*
X124550320Y-83077080D01*
X124537620Y-83092320D01*
X124385220Y-83224400D01*
X124255680Y-83204080D01*
X124232820Y-83165980D01*
X124232820Y-82691000D01*
X124187100Y-82576700D01*
X124149000Y-82564000D01*
X124072800Y-82632580D01*
X124062640Y-82691000D01*
X124108360Y-82802760D01*
X124149000Y-82818000D01*
X124222660Y-82749420D01*
X124232820Y-82691000D01*
X124232820Y-83165980D01*
X124202340Y-83117720D01*
X124115980Y-83038980D01*
X123912780Y-83008500D01*
X123707040Y-83011040D01*
X123412400Y-83038980D01*
X123216820Y-83112640D01*
X123133000Y-83183760D01*
X123133000Y-82691000D01*
X123087280Y-82576700D01*
X123046640Y-82564000D01*
X122972980Y-82632580D01*
X122962820Y-82691000D01*
X123008540Y-82802760D01*
X123046640Y-82818000D01*
X123122840Y-82749420D01*
X123133000Y-82691000D01*
X123133000Y-83183760D01*
X123051720Y-83257420D01*
X123051720Y-83259960D01*
X122906940Y-83404740D01*
X122810420Y-83435220D01*
X122703740Y-83364100D01*
X122688500Y-83351400D01*
X122561500Y-83257420D01*
X122462440Y-83285360D01*
X122393860Y-83348860D01*
X122302420Y-83463160D01*
X122327820Y-83564760D01*
X122409100Y-83661280D01*
X122508160Y-83803520D01*
X122515780Y-83884800D01*
X122439580Y-83854320D01*
X122289720Y-83724780D01*
X122155100Y-83587620D01*
X121979840Y-83402200D01*
X121835060Y-83298060D01*
X121664880Y-83252340D01*
X121405800Y-83242180D01*
X121276260Y-83242180D01*
X120963840Y-83247260D01*
X120763180Y-83280280D01*
X120613320Y-83359020D01*
X120458380Y-83501260D01*
X120438060Y-83519040D01*
X120252640Y-83765420D01*
X120168820Y-83994020D01*
X120168820Y-84016880D01*
X120120560Y-84225160D01*
X120041820Y-84342000D01*
X119950380Y-84509640D01*
X119914820Y-84799200D01*
X119914820Y-84834760D01*
X119942760Y-85131940D01*
X120049440Y-85350380D01*
X120138340Y-85454520D01*
X120278040Y-85622160D01*
X120303440Y-85733920D01*
X120252640Y-85822820D01*
X120191680Y-85942200D01*
X120265340Y-86046340D01*
X120303440Y-86076820D01*
X120516800Y-86183500D01*
X120709840Y-86186040D01*
X120803820Y-86120000D01*
X120907960Y-86079360D01*
X121136560Y-86048880D01*
X121443900Y-86036180D01*
X121512480Y-86036180D01*
X121850300Y-86038720D01*
X122068740Y-86061580D01*
X122216060Y-86117460D01*
X122343060Y-86219060D01*
X122411640Y-86290180D01*
X122650400Y-86485760D01*
X122858680Y-86534020D01*
X123041560Y-86462900D01*
X123120300Y-86379080D01*
X123061880Y-86264780D01*
X123051720Y-86252080D01*
X122978060Y-86109840D01*
X123028860Y-86053960D01*
X123160940Y-86114920D01*
X123193960Y-86142860D01*
X123366680Y-86226680D01*
X123511460Y-86198740D01*
X123582580Y-86081900D01*
X123552100Y-85942200D01*
X123455580Y-85827900D01*
X123394620Y-85817740D01*
X123305720Y-85784720D01*
X123140620Y-85657720D01*
X123000920Y-85523100D01*
X122838360Y-85342760D01*
X122757080Y-85220840D01*
X122762160Y-85187820D01*
X122879000Y-85246240D01*
X123013620Y-85368160D01*
X123209200Y-85530720D01*
X123445420Y-85665340D01*
X123674020Y-85728840D01*
X123963580Y-85766940D01*
X124263300Y-85779640D01*
X124519840Y-85761860D01*
X124677320Y-85716140D01*
X124697640Y-85695820D01*
X124819560Y-85619620D01*
X124875440Y-85612000D01*
X125012600Y-85548500D01*
X125185320Y-85398640D01*
X125335180Y-85220840D01*
X125413920Y-85065900D01*
X125413920Y-85050660D01*
X125358040Y-84921120D01*
X125294540Y-84852540D01*
X125198020Y-84720460D01*
X125078640Y-84484240D01*
X124992280Y-84270880D01*
X124862740Y-83973700D01*
X124723040Y-83717160D01*
X124634140Y-83600320D01*
X124537620Y-83470780D01*
X124542700Y-83409820D01*
X124550320Y-83409820D01*
X124659540Y-83473320D01*
X124804320Y-83618100D01*
X124933860Y-83785740D01*
X124994820Y-83917820D01*
X124994820Y-83925440D01*
X125035460Y-84027040D01*
X125139600Y-84232780D01*
X125286920Y-84494400D01*
X125292000Y-84499480D01*
X125439320Y-84766180D01*
X125546000Y-84979540D01*
X125586640Y-85093840D01*
X125586640Y-85093840D01*
G36*
X122091600Y-85248780D02*
X122078900Y-85327520D01*
X121967140Y-85441820D01*
X121863000Y-85525640D01*
X121863000Y-85274180D01*
X121796960Y-85190360D01*
X121776640Y-85187820D01*
X121695360Y-85253860D01*
X121692820Y-85274180D01*
X121756320Y-85355460D01*
X121776640Y-85358000D01*
X121860460Y-85291960D01*
X121863000Y-85274180D01*
X121863000Y-85525640D01*
X121804580Y-85576440D01*
X121690280Y-85586600D01*
X121563280Y-85467220D01*
X121502320Y-85393560D01*
X121329600Y-85172580D01*
X121141640Y-85393560D01*
X120986700Y-85551040D01*
X120862240Y-85589140D01*
X120714920Y-85505320D01*
X120554900Y-85358000D01*
X120402500Y-85190360D01*
X120364400Y-85078600D01*
X120417740Y-84982080D01*
X120486320Y-84847460D01*
X120420280Y-84720460D01*
X120369480Y-84613780D01*
X120417740Y-84494400D01*
X120552360Y-84339460D01*
X120720000Y-84181980D01*
X120841920Y-84093080D01*
X120864780Y-84088000D01*
X120968920Y-84146420D01*
X121128940Y-84288660D01*
X121291500Y-84461380D01*
X121410880Y-84616320D01*
X121438820Y-84682360D01*
X121370240Y-84756020D01*
X121311820Y-84766180D01*
X121197520Y-84715380D01*
X121184820Y-84674740D01*
X121128940Y-84547740D01*
X121009560Y-84410580D01*
X120892720Y-84342000D01*
X120887640Y-84342000D01*
X120775880Y-84402960D01*
X120653960Y-84535040D01*
X120593000Y-84662040D01*
X120593000Y-84667120D01*
X120656500Y-84773800D01*
X120697140Y-84799200D01*
X120760640Y-84855080D01*
X120697140Y-84898260D01*
X120600620Y-84997320D01*
X120593000Y-85032880D01*
X120648880Y-85154800D01*
X120768260Y-85289420D01*
X120882560Y-85358000D01*
X120887640Y-85358000D01*
X121001940Y-85294500D01*
X121123860Y-85159880D01*
X121184820Y-85030340D01*
X121184820Y-85025260D01*
X121253400Y-84943980D01*
X121311820Y-84933820D01*
X121423580Y-85002400D01*
X121438820Y-85060820D01*
X121484540Y-85175120D01*
X121522640Y-85187820D01*
X121598840Y-85119240D01*
X121609000Y-85060820D01*
X121563280Y-84949060D01*
X121522640Y-84933820D01*
X121441360Y-84870320D01*
X121438820Y-84850000D01*
X121497240Y-84773800D01*
X121616620Y-84778880D01*
X121710600Y-84857620D01*
X121715680Y-84870320D01*
X121786800Y-84933820D01*
X121817280Y-84918580D01*
X121804580Y-84829680D01*
X121690280Y-84684900D01*
X121652180Y-84646800D01*
X121517560Y-84486780D01*
X121474380Y-84359780D01*
X121479460Y-84344540D01*
X121568360Y-84342000D01*
X121736000Y-84461380D01*
X121842680Y-84560440D01*
X122017940Y-84743320D01*
X122083980Y-84847460D01*
X122053500Y-84913500D01*
X121992540Y-84954140D01*
X121880780Y-85030340D01*
X121911260Y-85096380D01*
X121990000Y-85157340D01*
X122091600Y-85248780D01*
X122091600Y-85248780D01*
X122091600Y-85248780D01*
G37*
X122091600Y-85248780D02*
X122078900Y-85327520D01*
X121967140Y-85441820D01*
X121863000Y-85525640D01*
X121863000Y-85274180D01*
X121796960Y-85190360D01*
X121776640Y-85187820D01*
X121695360Y-85253860D01*
X121692820Y-85274180D01*
X121756320Y-85355460D01*
X121776640Y-85358000D01*
X121860460Y-85291960D01*
X121863000Y-85274180D01*
X121863000Y-85525640D01*
X121804580Y-85576440D01*
X121690280Y-85586600D01*
X121563280Y-85467220D01*
X121502320Y-85393560D01*
X121329600Y-85172580D01*
X121141640Y-85393560D01*
X120986700Y-85551040D01*
X120862240Y-85589140D01*
X120714920Y-85505320D01*
X120554900Y-85358000D01*
X120402500Y-85190360D01*
X120364400Y-85078600D01*
X120417740Y-84982080D01*
X120486320Y-84847460D01*
X120420280Y-84720460D01*
X120369480Y-84613780D01*
X120417740Y-84494400D01*
X120552360Y-84339460D01*
X120720000Y-84181980D01*
X120841920Y-84093080D01*
X120864780Y-84088000D01*
X120968920Y-84146420D01*
X121128940Y-84288660D01*
X121291500Y-84461380D01*
X121410880Y-84616320D01*
X121438820Y-84682360D01*
X121370240Y-84756020D01*
X121311820Y-84766180D01*
X121197520Y-84715380D01*
X121184820Y-84674740D01*
X121128940Y-84547740D01*
X121009560Y-84410580D01*
X120892720Y-84342000D01*
X120887640Y-84342000D01*
X120775880Y-84402960D01*
X120653960Y-84535040D01*
X120593000Y-84662040D01*
X120593000Y-84667120D01*
X120656500Y-84773800D01*
X120697140Y-84799200D01*
X120760640Y-84855080D01*
X120697140Y-84898260D01*
X120600620Y-84997320D01*
X120593000Y-85032880D01*
X120648880Y-85154800D01*
X120768260Y-85289420D01*
X120882560Y-85358000D01*
X120887640Y-85358000D01*
X121001940Y-85294500D01*
X121123860Y-85159880D01*
X121184820Y-85030340D01*
X121184820Y-85025260D01*
X121253400Y-84943980D01*
X121311820Y-84933820D01*
X121423580Y-85002400D01*
X121438820Y-85060820D01*
X121484540Y-85175120D01*
X121522640Y-85187820D01*
X121598840Y-85119240D01*
X121609000Y-85060820D01*
X121563280Y-84949060D01*
X121522640Y-84933820D01*
X121441360Y-84870320D01*
X121438820Y-84850000D01*
X121497240Y-84773800D01*
X121616620Y-84778880D01*
X121710600Y-84857620D01*
X121715680Y-84870320D01*
X121786800Y-84933820D01*
X121817280Y-84918580D01*
X121804580Y-84829680D01*
X121690280Y-84684900D01*
X121652180Y-84646800D01*
X121517560Y-84486780D01*
X121474380Y-84359780D01*
X121479460Y-84344540D01*
X121568360Y-84342000D01*
X121736000Y-84461380D01*
X121842680Y-84560440D01*
X122017940Y-84743320D01*
X122083980Y-84847460D01*
X122053500Y-84913500D01*
X121992540Y-84954140D01*
X121880780Y-85030340D01*
X121911260Y-85096380D01*
X121990000Y-85157340D01*
X122091600Y-85248780D01*
X122091600Y-85248780D01*
G36*
X121182280Y-84855080D02*
X121121320Y-84898260D01*
X121022260Y-85017640D01*
X121014640Y-85068440D01*
X120946060Y-85175120D01*
X120887640Y-85187820D01*
X120775880Y-85119240D01*
X120760640Y-85060820D01*
X120829220Y-84949060D01*
X120887640Y-84933820D01*
X121001940Y-84888100D01*
X121014640Y-84850000D01*
X120946060Y-84773800D01*
X120887640Y-84766180D01*
X120775880Y-84697600D01*
X120760640Y-84639180D01*
X120829220Y-84524880D01*
X120887640Y-84512180D01*
X120999400Y-84575680D01*
X121014640Y-84631560D01*
X121080680Y-84771260D01*
X121121320Y-84799200D01*
X121182280Y-84855080D01*
X121182280Y-84855080D01*
X121182280Y-84855080D01*
G37*
X121182280Y-84855080D02*
X121121320Y-84898260D01*
X121022260Y-85017640D01*
X121014640Y-85068440D01*
X120946060Y-85175120D01*
X120887640Y-85187820D01*
X120775880Y-85119240D01*
X120760640Y-85060820D01*
X120829220Y-84949060D01*
X120887640Y-84933820D01*
X121001940Y-84888100D01*
X121014640Y-84850000D01*
X120946060Y-84773800D01*
X120887640Y-84766180D01*
X120775880Y-84697600D01*
X120760640Y-84639180D01*
X120829220Y-84524880D01*
X120887640Y-84512180D01*
X120999400Y-84575680D01*
X121014640Y-84631560D01*
X121080680Y-84771260D01*
X121121320Y-84799200D01*
X121182280Y-84855080D01*
X121182280Y-84855080D01*
G36*
X124278540Y-85076060D02*
X124215040Y-85170040D01*
X124149000Y-85187820D01*
X124037240Y-85126860D01*
X124024540Y-85109080D01*
X124029620Y-85010020D01*
X124131220Y-84956680D01*
X124232820Y-84977000D01*
X124278540Y-85076060D01*
X124278540Y-85076060D01*
X124278540Y-85076060D01*
G37*
X124278540Y-85076060D02*
X124215040Y-85170040D01*
X124149000Y-85187820D01*
X124037240Y-85126860D01*
X124024540Y-85109080D01*
X124029620Y-85010020D01*
X124131220Y-84956680D01*
X124232820Y-84977000D01*
X124278540Y-85076060D01*
X124278540Y-85076060D01*
G36*
X124870360Y-85076060D02*
X124806860Y-85170040D01*
X124740820Y-85187820D01*
X124629060Y-85126860D01*
X124616360Y-85109080D01*
X124621440Y-85010020D01*
X124723040Y-84956680D01*
X124827180Y-84977000D01*
X124870360Y-85076060D01*
X124870360Y-85076060D01*
X124870360Y-85076060D01*
G37*
X124870360Y-85076060D02*
X124806860Y-85170040D01*
X124740820Y-85187820D01*
X124629060Y-85126860D01*
X124616360Y-85109080D01*
X124621440Y-85010020D01*
X124723040Y-84956680D01*
X124827180Y-84977000D01*
X124870360Y-85076060D01*
X124870360Y-85076060D01*
G36*
X122764700Y-84872860D02*
X122703740Y-84992240D01*
X122625000Y-85020180D01*
X122515780Y-84956680D01*
X122492920Y-84926200D01*
X122482760Y-84796660D01*
X122571660Y-84710300D01*
X122693580Y-84720460D01*
X122718980Y-84740780D01*
X122764700Y-84872860D01*
X122764700Y-84872860D01*
X122764700Y-84872860D01*
G37*
X122764700Y-84872860D02*
X122703740Y-84992240D01*
X122625000Y-85020180D01*
X122515780Y-84956680D01*
X122492920Y-84926200D01*
X122482760Y-84796660D01*
X122571660Y-84710300D01*
X122693580Y-84720460D01*
X122718980Y-84740780D01*
X122764700Y-84872860D01*
X122764700Y-84872860D01*
G36*
X123790860Y-84169280D02*
X123788320Y-84194680D01*
X123689260Y-84273420D01*
X123498760Y-84321680D01*
X123305720Y-84329300D01*
X123191420Y-84288660D01*
X123133000Y-84174360D01*
X123234600Y-84108320D01*
X123478440Y-84088000D01*
X123712120Y-84108320D01*
X123790860Y-84169280D01*
X123790860Y-84169280D01*
X123790860Y-84169280D01*
G37*
X123790860Y-84169280D02*
X123788320Y-84194680D01*
X123689260Y-84273420D01*
X123498760Y-84321680D01*
X123305720Y-84329300D01*
X123191420Y-84288660D01*
X123133000Y-84174360D01*
X123234600Y-84108320D01*
X123478440Y-84088000D01*
X123712120Y-84108320D01*
X123790860Y-84169280D01*
X123790860Y-84169280D01*
G36*
X124636680Y-84184520D02*
X124634140Y-84194680D01*
X124532540Y-84281040D01*
X124349660Y-84329300D01*
X124176940Y-84319140D01*
X124123600Y-84288660D01*
X124065180Y-84171820D01*
X124166780Y-84105780D01*
X124367440Y-84088000D01*
X124580800Y-84110860D01*
X124636680Y-84184520D01*
X124636680Y-84184520D01*
X124636680Y-84184520D01*
G37*
X124636680Y-84184520D02*
X124634140Y-84194680D01*
X124532540Y-84281040D01*
X124349660Y-84329300D01*
X124176940Y-84319140D01*
X124123600Y-84288660D01*
X124065180Y-84171820D01*
X124166780Y-84105780D01*
X124367440Y-84088000D01*
X124580800Y-84110860D01*
X124636680Y-84184520D01*
X124636680Y-84184520D01*
D12*
X79250000Y-116900000D03*
X79250000Y-119100000D03*
X82125000Y-116900000D03*
X82125000Y-119100000D03*
X94350000Y-124700000D03*
X94350000Y-126900000D03*
D13*
X117825000Y-121375000D03*
X115925000Y-121375000D03*
D14*
X121552000Y-126400000D03*
D15*
X114948000Y-126400000D03*
X114948000Y-128686000D03*
X114948000Y-124114000D03*
D16*
X79245000Y-127220000D03*
X79245000Y-124680000D03*
X81785000Y-127220000D03*
X81785000Y-124680000D03*
X84325000Y-127220000D03*
X84325000Y-124680000D03*
X86865000Y-127220000D03*
X86865000Y-124680000D03*
X89405000Y-127220000D03*
X89405000Y-124680000D03*
D17*
X102225000Y-86075000D03*
D18*
X102225000Y-88615000D03*
D19*
X100725000Y-106560000D03*
X99924900Y-106560000D03*
X99124800Y-106560000D03*
X98324700Y-106560000D03*
X97524600Y-106560000D03*
X96724500Y-106560000D03*
X101525100Y-106560000D03*
X102325200Y-106560000D03*
X103125300Y-106560000D03*
X103925400Y-106560000D03*
X104725500Y-106560000D03*
X100725000Y-117990000D03*
X99924900Y-117990000D03*
X99124800Y-117990000D03*
X98324700Y-117990000D03*
X97524600Y-117990000D03*
X96724500Y-117990000D03*
X101525100Y-117990000D03*
X102325200Y-117990000D03*
X103125300Y-117990000D03*
X103925400Y-117990000D03*
X104725500Y-117990000D03*
D20*
X95010000Y-112275000D03*
X106440000Y-112275000D03*
X95010000Y-113075100D03*
X106440000Y-113075100D03*
X106440000Y-113875200D03*
X95010000Y-113875200D03*
X95010000Y-114675300D03*
X106440000Y-114675300D03*
X106440000Y-115475400D03*
X95010000Y-115475400D03*
X95010000Y-116275500D03*
X106440000Y-116275500D03*
X106440000Y-111474900D03*
X95010000Y-111474900D03*
X95010000Y-110674800D03*
X106440000Y-110674800D03*
X106440000Y-109874700D03*
X95010000Y-109874700D03*
X95010000Y-109074600D03*
X106440000Y-109074600D03*
X106440000Y-108274500D03*
X95010000Y-108274500D03*
D21*
X92231000Y-102291000D03*
X92231000Y-101656000D03*
X92231000Y-100995600D03*
X92231000Y-100335200D03*
X92231000Y-99700200D03*
X92231000Y-99039800D03*
X92231000Y-98379400D03*
X92231000Y-97744400D03*
X92231000Y-97084000D03*
X92231000Y-96449000D03*
X92231000Y-95788600D03*
X92231000Y-95128200D03*
X92231000Y-94493200D03*
X92231000Y-93832800D03*
X85119000Y-93832800D03*
X85119000Y-94493200D03*
X85119000Y-95102800D03*
X85119000Y-95788600D03*
X85119000Y-96449000D03*
X85119000Y-97084000D03*
X85119000Y-97744400D03*
X85119000Y-98379400D03*
X85119000Y-99039800D03*
X85119000Y-99700200D03*
X85119000Y-100335200D03*
X85119000Y-100995600D03*
X85119000Y-101656000D03*
X85119000Y-102291000D03*
D22*
X86925000Y-88599360D03*
X87722560Y-88599360D03*
X85327340Y-88599360D03*
X86127440Y-88599360D03*
D23*
X82426660Y-83100260D03*
X91423340Y-83100260D03*
X82525720Y-88599360D03*
X91423340Y-88599360D03*
D24*
X89124640Y-86100000D03*
X84725360Y-86100000D03*
D22*
X88522660Y-88599360D03*
D12*
X94925000Y-89025000D03*
X94925000Y-86825000D03*
X98050000Y-86825000D03*
X98050000Y-89025000D03*
D25*
X98725000Y-95125000D03*
X96525000Y-95125000D03*
D26*
X78700000Y-97125000D03*
X78700000Y-99025000D03*
X80600000Y-97125000D03*
X80600000Y-99025000D03*
X82500000Y-97125000D03*
X82500000Y-99025000D03*
D13*
X82450000Y-92800000D03*
X80550000Y-92800000D03*
X91425000Y-114675000D03*
X89525000Y-114675000D03*
X100750000Y-121800000D03*
X98850000Y-121800000D03*
X110000000Y-111475000D03*
X111900000Y-111475000D03*
X97850000Y-102700000D03*
X99750000Y-102700000D03*
D27*
X111050000Y-126375000D03*
X111050000Y-122375000D03*
D28*
X121975000Y-115750000D03*
D29*
X119435000Y-115750000D03*
X121975000Y-113210000D03*
X119435000Y-113210000D03*
X121975000Y-110670000D03*
X119435000Y-110670000D03*
X121975000Y-108130000D03*
X119435000Y-108130000D03*
X121975000Y-105590000D03*
X119435000Y-105590000D03*
D28*
X111825000Y-100550000D03*
D29*
X111825000Y-98010000D03*
X114365000Y-100550000D03*
X114365000Y-98010000D03*
X116905000Y-100550000D03*
X116905000Y-98010000D03*
X119445000Y-100550000D03*
X119445000Y-98010000D03*
X121985000Y-100550000D03*
X121985000Y-98010000D03*
D17*
X121975000Y-120050000D03*
D18*
X124515000Y-120050000D03*
D30*
X111825980Y-93200000D03*
X113924020Y-93200000D03*
X100025980Y-98650000D03*
X102124020Y-98650000D03*
D25*
X107350000Y-98650000D03*
X105150000Y-98650000D03*
X119400000Y-93200000D03*
X117200000Y-93200000D03*
D31*
X103200000Y-94400000D03*
D32*
X78700000Y-95550000D03*
X108200000Y-115475000D03*
X111625000Y-112900000D03*
X121575000Y-122500000D03*
X119350000Y-119200000D03*
X103300000Y-123150000D03*
X96950000Y-124400000D03*
X96950000Y-122500000D03*
X95450000Y-122500000D03*
X93950000Y-122500000D03*
X92450000Y-122500000D03*
X104550000Y-124400000D03*
X102050000Y-124400000D03*
X99550000Y-124400000D03*
X98250000Y-124400000D03*
X109475000Y-93650000D03*
X107375000Y-93650000D03*
X107375000Y-95750000D03*
X104350000Y-82500000D03*
X101850000Y-82500000D03*
X99350000Y-82500000D03*
X96850000Y-82500000D03*
X94350000Y-82500000D03*
X99475000Y-85125000D03*
X96975000Y-85125000D03*
X79475000Y-82525000D03*
X79475000Y-85025000D03*
X79475000Y-87525000D03*
X79475000Y-90025000D03*
X108850000Y-123775000D03*
X108050000Y-122375000D03*
X109350000Y-122375000D03*
X98850000Y-123250000D03*
X80500000Y-113600000D03*
X80500000Y-111100000D03*
X80500000Y-108600000D03*
X80500000Y-106100000D03*
X83000000Y-106100000D03*
X83000000Y-108600000D03*
X83000000Y-111100000D03*
X83000000Y-113600000D03*
X85500000Y-113600000D03*
X85500000Y-111100000D03*
X85500000Y-108600000D03*
X106000000Y-103050000D03*
X109500000Y-102350000D03*
X107700000Y-102350000D03*
X107700000Y-100550000D03*
X109500000Y-100550000D03*
X121325000Y-103000000D03*
X123025000Y-103000000D03*
X125875000Y-93000000D03*
X125875000Y-108000000D03*
X125875000Y-103000000D03*
X125875000Y-98000000D03*
X96300000Y-90700000D03*
X95550000Y-98400000D03*
X96450000Y-97100000D03*
X94550000Y-97100000D03*
X101600000Y-91550000D03*
X100100000Y-93050000D03*
X94500000Y-93700000D03*
X87550000Y-95800000D03*
X88450000Y-94900000D03*
X89350000Y-94000000D03*
X90250000Y-93100000D03*
X97450000Y-92200000D03*
X95350000Y-92200000D03*
X93250000Y-92200000D03*
X91150000Y-92200000D03*
X116775000Y-95175000D03*
X118075000Y-95175000D03*
X119375000Y-95175000D03*
X120675000Y-95175000D03*
X121975000Y-94375000D03*
X121975000Y-95475000D03*
X87025000Y-119025000D03*
X90575000Y-116875000D03*
X85525000Y-120525000D03*
X85525000Y-119025000D03*
X85525000Y-117525000D03*
X85525000Y-116025000D03*
X95000000Y-118275000D03*
X114225000Y-119850000D03*
X115225000Y-118850000D03*
X115225000Y-116750000D03*
X114125000Y-117850000D03*
X113025000Y-118950000D03*
X111925000Y-120050000D03*
X113050000Y-122375000D03*
X114325000Y-121375000D03*
X114325000Y-122475000D03*
X106425000Y-117975000D03*
X108525000Y-117975000D03*
X115500000Y-108475000D03*
X114600000Y-109375000D03*
X113700000Y-110275000D03*
X106250000Y-106475000D03*
X107750000Y-106475000D03*
X109250000Y-106475000D03*
X110750000Y-106475000D03*
X112250000Y-106475000D03*
X113250000Y-105475000D03*
X114250000Y-104475000D03*
X115250000Y-103475000D03*
X98925000Y-120575000D03*
X98725000Y-116050000D03*
X97075000Y-116050000D03*
X101400000Y-114800000D03*
X100500000Y-114250000D03*
X103650000Y-116125000D03*
X104550000Y-116125000D03*
X104550000Y-115175000D03*
X97475000Y-111650000D03*
X98975000Y-111350000D03*
X98775000Y-109800000D03*
X100075000Y-110250000D03*
X101175000Y-109150000D03*
X99875000Y-108500000D03*
X98575000Y-108500000D03*
X97275000Y-108500000D03*
X97275000Y-109800000D03*
X94000000Y-103575000D03*
X94500000Y-104875000D03*
X94500000Y-106175000D03*
X93000000Y-106175000D03*
X92100000Y-105275000D03*
X92100000Y-103575000D03*
X85500000Y-106100000D03*
X97350000Y-100575000D03*
X98450000Y-100575000D03*
X101950000Y-101200000D03*
X100850000Y-101175000D03*
X99750000Y-101175000D03*
X104200000Y-111850000D03*
X85350000Y-92400000D03*
X85350000Y-91100000D03*
X82650000Y-95000000D03*
X81350000Y-95000000D03*
X85500000Y-104800000D03*
X94050000Y-98400000D03*
X83050000Y-100750000D03*
X81750000Y-100750000D03*
X80450000Y-100750000D03*
X79150000Y-100750000D03*
X92900000Y-110250000D03*
X102600000Y-111850000D03*
X103400000Y-112650000D03*
X80700000Y-116900000D03*
X87500000Y-121100000D03*
X97850000Y-103750000D03*
X92925000Y-114675000D03*
X108650000Y-111475000D03*
X100725000Y-120125000D03*
X112925000Y-126400000D03*
X96900000Y-113100000D03*
X101600000Y-113100000D03*
X93400000Y-107750000D03*
X102150000Y-110250000D03*
X102325000Y-104650000D03*
X101550000Y-104250000D03*
X85125000Y-103350000D03*
X99450000Y-104250000D03*
X100500000Y-104250000D03*
D33*
X98725000Y-95125000D02*
X98725000Y-92115000D01*
X98725000Y-92115000D02*
X102225000Y-88615000D01*
X92231000Y-100335200D02*
X95814800Y-100335200D01*
X98725000Y-97425000D02*
X98725000Y-95125000D01*
X95814800Y-100335200D02*
X98725000Y-97425000D01*
D34*
X117825000Y-118000000D02*
X117865000Y-118000000D01*
X117865000Y-118000000D02*
X118165000Y-117700000D01*
X118250000Y-117700000D02*
X118165000Y-117700000D01*
X118165000Y-117700000D02*
X117825000Y-117360000D01*
X122750000Y-117700000D02*
X118250000Y-117700000D01*
X124400000Y-112350000D02*
X124400000Y-93550000D01*
X124400000Y-93550000D02*
X121250000Y-90400000D01*
X121250000Y-90400000D02*
X104010000Y-90400000D01*
X104010000Y-90400000D02*
X102225000Y-88615000D01*
X124400000Y-116650000D02*
X123350000Y-117700000D01*
X123350000Y-117700000D02*
X122750000Y-117700000D01*
X124400000Y-112350000D02*
X124400000Y-116650000D01*
X118250000Y-117700000D02*
X117825000Y-117700000D01*
X78700000Y-97125000D02*
X78700000Y-95550000D01*
X85119000Y-97084000D02*
X82541000Y-97084000D01*
X82541000Y-97084000D02*
X82500000Y-97125000D01*
X117825000Y-121375000D02*
X117825000Y-127700000D01*
X116839000Y-128686000D02*
X114948000Y-128686000D01*
X117825000Y-127700000D02*
X116839000Y-128686000D01*
X117825000Y-121375000D02*
X117825000Y-118000000D01*
X117825000Y-118000000D02*
X117825000Y-117700000D01*
X117825000Y-117700000D02*
X117825000Y-117360000D01*
X117825000Y-117360000D02*
X119435000Y-115750000D01*
D33*
X82541000Y-97084000D02*
X82500000Y-97125000D01*
D34*
X80600000Y-97125000D02*
X82500000Y-97125000D01*
X78700000Y-97125000D02*
X80600000Y-97125000D01*
X106440000Y-115475400D02*
X108199600Y-115475400D01*
X108199600Y-115475400D02*
X108200000Y-115475000D01*
X111900000Y-111475000D02*
X111900000Y-112625000D01*
X111900000Y-112625000D02*
X111625000Y-112900000D01*
X120550000Y-122500000D02*
X121575000Y-122500000D01*
X119600000Y-121550000D02*
X120550000Y-122500000D01*
X119600000Y-119450000D02*
X119600000Y-121550000D01*
X119350000Y-119200000D02*
X119600000Y-119450000D01*
X96950000Y-122500000D02*
X96950000Y-124400000D01*
X93950000Y-122500000D02*
X95450000Y-122500000D01*
X91225000Y-122500000D02*
X92450000Y-122500000D01*
X87750000Y-119025000D02*
X91225000Y-122500000D01*
X87025000Y-119025000D02*
X87750000Y-119025000D01*
X102050000Y-124400000D02*
X104550000Y-124400000D01*
X98250000Y-124400000D02*
X99550000Y-124400000D01*
X84125000Y-129625000D02*
X87000000Y-129625000D01*
X87000000Y-129625000D02*
X89405000Y-127220000D01*
X81650000Y-129625000D02*
X79245000Y-127220000D01*
X84125000Y-129625000D02*
X81650000Y-129625000D01*
X94350000Y-126900000D02*
X92125000Y-126900000D01*
X90625000Y-126000000D02*
X89405000Y-127220000D01*
X91225000Y-126000000D02*
X90625000Y-126000000D01*
X92125000Y-126900000D02*
X91225000Y-126000000D01*
X107350000Y-98650000D02*
X107350000Y-95775000D01*
X107375000Y-93650000D02*
X109475000Y-93650000D01*
X107350000Y-95775000D02*
X107375000Y-95750000D01*
X99350000Y-82500000D02*
X101850000Y-82500000D01*
X94350000Y-82500000D02*
X96850000Y-82500000D01*
X98050000Y-86825000D02*
X98050000Y-85400000D01*
X97775000Y-85125000D02*
X96975000Y-85125000D01*
X98050000Y-85400000D02*
X97775000Y-85125000D01*
X80550000Y-92800000D02*
X80550000Y-91100000D01*
X79475000Y-87525000D02*
X79475000Y-85025000D01*
X80550000Y-91100000D02*
X79475000Y-90025000D01*
X111050000Y-122375000D02*
X109350000Y-122375000D01*
X108850000Y-123175000D02*
X108850000Y-123775000D01*
X108050000Y-122375000D02*
X108850000Y-123175000D01*
X80500000Y-108600000D02*
X80500000Y-111100000D01*
X83000000Y-106100000D02*
X80500000Y-106100000D01*
X83000000Y-111100000D02*
X83000000Y-108600000D01*
X85500000Y-113600000D02*
X83000000Y-113600000D01*
X85500000Y-108600000D02*
X85500000Y-111100000D01*
X107350000Y-98650000D02*
X108825000Y-98650000D01*
X109500000Y-99325000D02*
X109500000Y-100550000D01*
X108825000Y-98650000D02*
X109500000Y-99325000D01*
X107700000Y-102350000D02*
X106700000Y-102350000D01*
X106700000Y-102350000D02*
X106000000Y-103050000D01*
X111825000Y-100550000D02*
X109500000Y-100550000D01*
X107700000Y-100550000D02*
X107700000Y-102350000D01*
X123025000Y-103000000D02*
X121325000Y-103000000D01*
X125875000Y-98000000D02*
X125875000Y-93000000D01*
X125875000Y-98000000D02*
X125875000Y-103000000D01*
X96300000Y-90700000D02*
X98650000Y-90700000D01*
X95350000Y-91650000D02*
X96300000Y-90700000D01*
X95350000Y-92200000D02*
X95350000Y-91650000D01*
X99450000Y-86825000D02*
X98050000Y-86825000D01*
X99675000Y-87050000D02*
X99450000Y-86825000D01*
X99675000Y-89675000D02*
X99675000Y-87050000D01*
X98650000Y-90700000D02*
X99675000Y-89675000D01*
X94550000Y-97100000D02*
X96450000Y-97100000D01*
X100100000Y-93050000D02*
X101600000Y-91550000D01*
X90250000Y-93100000D02*
X91150000Y-92200000D01*
X86305600Y-97744400D02*
X87550000Y-96500000D01*
X87550000Y-96500000D02*
X87550000Y-95800000D01*
X88450000Y-94900000D02*
X89350000Y-94000000D01*
X85119000Y-97744400D02*
X86305600Y-97744400D01*
X93250000Y-92200000D02*
X95350000Y-92200000D01*
X119400000Y-93200000D02*
X119400000Y-95150000D01*
X119400000Y-95150000D02*
X119375000Y-95175000D01*
X118075000Y-95175000D02*
X116775000Y-95175000D01*
X120675000Y-95175000D02*
X119375000Y-95175000D01*
X121985000Y-98010000D02*
X121985000Y-95485000D01*
X121985000Y-95485000D02*
X121975000Y-95475000D01*
X87025000Y-119025000D02*
X87025000Y-119050000D01*
X91174500Y-116275500D02*
X90575000Y-116875000D01*
X95010000Y-116275500D02*
X91174500Y-116275500D01*
X85525000Y-119025000D02*
X85525000Y-120525000D01*
X85525000Y-116025000D02*
X85525000Y-117525000D01*
X95010000Y-116275500D02*
X95010000Y-118265000D01*
X95010000Y-118265000D02*
X95000000Y-118275000D01*
X111050000Y-122375000D02*
X111050000Y-120925000D01*
X115225000Y-116750000D02*
X115225000Y-118850000D01*
X113025000Y-118950000D02*
X114125000Y-117850000D01*
X111050000Y-120925000D02*
X111925000Y-120050000D01*
X111050000Y-122375000D02*
X113050000Y-122375000D01*
X115925000Y-121375000D02*
X114325000Y-121375000D01*
X114948000Y-123098000D02*
X114948000Y-124114000D01*
X114325000Y-122475000D02*
X114948000Y-123098000D01*
D33*
X104550000Y-116125000D02*
X104575000Y-116125000D01*
X104575000Y-116125000D02*
X106425000Y-117975000D01*
D34*
X111900000Y-111475000D02*
X113175000Y-111475000D01*
X114600000Y-109375000D02*
X115500000Y-108475000D01*
X113700000Y-110950000D02*
X113700000Y-110275000D01*
X113175000Y-111475000D02*
X113700000Y-110950000D01*
D33*
X101175000Y-109150000D02*
X101375000Y-109150000D01*
X101375000Y-109150000D02*
X102425000Y-108100000D01*
X102425000Y-108100000D02*
X104900000Y-108100000D01*
X104900000Y-108100000D02*
X106250000Y-106750000D01*
X106250000Y-106750000D02*
X106250000Y-106475000D01*
D34*
X107750000Y-106475000D02*
X109250000Y-106475000D01*
X110750000Y-106475000D02*
X112250000Y-106475000D01*
X113250000Y-105475000D02*
X114250000Y-104475000D01*
X115250000Y-103475000D02*
X116075000Y-102650000D01*
X116075000Y-102650000D02*
X116500000Y-102650000D01*
X116500000Y-102650000D02*
X116905000Y-102245000D01*
X116905000Y-102245000D02*
X116905000Y-100550000D01*
X98850000Y-121800000D02*
X98850000Y-120650000D01*
X98850000Y-120650000D02*
X98925000Y-120575000D01*
X99924900Y-117990000D02*
X99924900Y-119300100D01*
X98925000Y-120300000D02*
X98925000Y-120575000D01*
X99924900Y-119300100D02*
X98925000Y-120300000D01*
X99924900Y-116749900D02*
X99924900Y-117990000D01*
X98725000Y-116050000D02*
X99075000Y-116400000D01*
X99075000Y-116400000D02*
X99575000Y-116400000D01*
X99575000Y-116400000D02*
X99924900Y-116749900D01*
X95010000Y-116275500D02*
X96849500Y-116275500D01*
X96849500Y-116275500D02*
X97075000Y-116050000D01*
X104550000Y-115175000D02*
X101775000Y-115175000D01*
X101775000Y-115175000D02*
X101400000Y-114800000D01*
X98975000Y-112725000D02*
X98975000Y-111350000D01*
X100500000Y-114250000D02*
X98975000Y-112725000D01*
X106440000Y-115475400D02*
X104850400Y-115475400D01*
X104550000Y-116125000D02*
X103650000Y-116125000D01*
X104850400Y-115475400D02*
X104550000Y-115175000D01*
X95010000Y-110674800D02*
X97024800Y-110674800D01*
X97024800Y-110674800D02*
X97475000Y-111125000D01*
X97475000Y-111125000D02*
X97475000Y-111650000D01*
X98975000Y-111350000D02*
X100075000Y-110250000D01*
X101175000Y-109150000D02*
X100525000Y-108500000D01*
X100525000Y-108500000D02*
X99875000Y-108500000D01*
X98575000Y-108500000D02*
X97275000Y-108500000D01*
X97275000Y-109800000D02*
X98775000Y-109800000D01*
D33*
X94500000Y-106175000D02*
X94650000Y-106175000D01*
X96200200Y-110674800D02*
X95010000Y-110674800D01*
X96575000Y-110300000D02*
X96200200Y-110674800D01*
X96575000Y-108100000D02*
X96575000Y-110300000D01*
X94650000Y-106175000D02*
X96575000Y-108100000D01*
D34*
X94000000Y-104375000D02*
X94000000Y-103575000D01*
X94500000Y-104875000D02*
X94000000Y-104375000D01*
X93000000Y-106175000D02*
X94500000Y-106175000D01*
X92100000Y-103575000D02*
X92100000Y-105275000D01*
X85500000Y-104800000D02*
X85500000Y-106100000D01*
X98425000Y-100575000D02*
X97350000Y-100575000D01*
X98450000Y-100550000D02*
X98425000Y-100575000D01*
X98450000Y-100575000D02*
X98450000Y-100550000D01*
X99750000Y-102700000D02*
X99750000Y-101175000D01*
X100875000Y-101200000D02*
X101950000Y-101200000D01*
X100850000Y-101175000D02*
X100875000Y-101200000D01*
X106440000Y-110674800D02*
X104550200Y-110674800D01*
X104550200Y-110674800D02*
X104200000Y-111025000D01*
X104200000Y-111025000D02*
X104200000Y-111850000D01*
X99750000Y-102700000D02*
X102350000Y-102700000D01*
X103125300Y-105274700D02*
X103125300Y-106560000D01*
X103450000Y-104950000D02*
X103125300Y-105274700D01*
X103450000Y-103800000D02*
X103450000Y-104950000D01*
X102350000Y-102700000D02*
X103450000Y-103800000D01*
X85327340Y-88599360D02*
X85327340Y-91077340D01*
X85327340Y-91077340D02*
X85350000Y-91100000D01*
X80550000Y-92800000D02*
X80550000Y-91850000D01*
X85327340Y-90572660D02*
X85327340Y-88599360D01*
X84600000Y-91300000D02*
X85327340Y-90572660D01*
X81100000Y-91300000D02*
X84600000Y-91300000D01*
X80550000Y-91850000D02*
X81100000Y-91300000D01*
X85119000Y-95788600D02*
X83438600Y-95788600D01*
X83438600Y-95788600D02*
X82650000Y-95000000D01*
X80550000Y-94200000D02*
X80550000Y-92800000D01*
X81350000Y-95000000D02*
X80550000Y-94200000D01*
X85119000Y-100995600D02*
X86550000Y-100995600D01*
X85119000Y-100335200D02*
X86235200Y-100335200D01*
X86235200Y-100335200D02*
X86550000Y-100650000D01*
X86550000Y-100650000D02*
X86550000Y-100995600D01*
X86550000Y-100995600D02*
X86550000Y-103750000D01*
X86550000Y-103750000D02*
X85500000Y-104800000D01*
X85119000Y-97744400D02*
X84005600Y-97744400D01*
X83425000Y-99025000D02*
X82500000Y-99025000D01*
X83650000Y-98800000D02*
X83425000Y-99025000D01*
X83650000Y-98100000D02*
X83650000Y-98800000D01*
X84005600Y-97744400D02*
X83650000Y-98100000D01*
X85119000Y-100335200D02*
X83464800Y-100335200D01*
X83464800Y-100335200D02*
X83050000Y-100750000D01*
X85119000Y-100995600D02*
X83295600Y-100995600D01*
X83295600Y-100995600D02*
X83050000Y-100750000D01*
X80600000Y-99025000D02*
X80600000Y-100600000D01*
X80600000Y-100600000D02*
X80450000Y-100750000D01*
X92231000Y-98379400D02*
X94029400Y-98379400D01*
X94029400Y-98379400D02*
X94050000Y-98400000D01*
X83050000Y-100750000D02*
X81750000Y-100750000D01*
X80450000Y-100750000D02*
X79150000Y-100750000D01*
X95010000Y-110674800D02*
X93324800Y-110674800D01*
X93324800Y-110674800D02*
X92900000Y-110250000D01*
X103400000Y-112650000D02*
X102600000Y-111850000D01*
X106440000Y-110674800D02*
X107825200Y-110674800D01*
X111900000Y-110450000D02*
X111900000Y-111475000D01*
X111475000Y-110025000D02*
X111900000Y-110450000D01*
X108475000Y-110025000D02*
X111475000Y-110025000D01*
X107825200Y-110674800D02*
X108475000Y-110025000D01*
X95010000Y-116275500D02*
X89850500Y-116275500D01*
X89525000Y-115950000D02*
X89525000Y-114675000D01*
X89850500Y-116275500D02*
X89525000Y-115950000D01*
X103125300Y-106560000D02*
X103125300Y-107524700D01*
X103125300Y-107524700D02*
X99975200Y-110674800D01*
X99975200Y-110674800D02*
X95010000Y-110674800D01*
X114948000Y-124114000D02*
X113064000Y-124114000D01*
X112300000Y-122375000D02*
X111050000Y-122375000D01*
X112800000Y-122875000D02*
X112300000Y-122375000D01*
X112800000Y-123850000D02*
X112800000Y-122875000D01*
X113064000Y-124114000D02*
X112800000Y-123850000D01*
X80600000Y-99025000D02*
X82500000Y-99025000D01*
X78700000Y-99025000D02*
X80600000Y-99025000D01*
D33*
X85600000Y-125025000D02*
X85600000Y-123000000D01*
X85600000Y-123000000D02*
X87500000Y-121100000D01*
X85600000Y-125955000D02*
X86865000Y-127220000D01*
X85600000Y-125025000D02*
X85600000Y-125955000D01*
X86865000Y-127220000D02*
X86865000Y-126960000D01*
X80700000Y-116900000D02*
X82125000Y-116900000D01*
X80700000Y-116900000D02*
X79250000Y-116900000D01*
D34*
X97850000Y-103750000D02*
X97850000Y-102700000D01*
X99124800Y-106560000D02*
X99124800Y-105024800D01*
X99124800Y-105024800D02*
X97850000Y-103750000D01*
D33*
X81850000Y-116900000D02*
X81825000Y-116925000D01*
D34*
X100725000Y-120125000D02*
X100725000Y-121775000D01*
X100725000Y-121775000D02*
X100750000Y-121800000D01*
X95010000Y-114675300D02*
X99175300Y-114675300D01*
X100725000Y-116225000D02*
X100725000Y-117990000D01*
X99175300Y-114675300D02*
X100725000Y-116225000D01*
X108650000Y-111475000D02*
X106440100Y-111475000D01*
X106440100Y-111475000D02*
X106440000Y-111474900D01*
X108650000Y-111475000D02*
X110000000Y-111475000D01*
X92925000Y-114675000D02*
X95009700Y-114675000D01*
X95009700Y-114675000D02*
X95010000Y-114675300D01*
X92925000Y-114675000D02*
X91425000Y-114675000D01*
X100725000Y-120125000D02*
X100725000Y-117990000D01*
X106440100Y-111475000D02*
X106440000Y-111474900D01*
X91425300Y-114675300D02*
X91425000Y-114675000D01*
D33*
X91425300Y-114675300D02*
X91425000Y-114675000D01*
D34*
X112925000Y-126400000D02*
X111075000Y-126400000D01*
X111075000Y-126400000D02*
X111050000Y-126375000D01*
X114948000Y-126400000D02*
X112925000Y-126400000D01*
D33*
X104725500Y-117990000D02*
X104725500Y-119175500D01*
X120705000Y-109400000D02*
X121975000Y-108130000D01*
X118750000Y-109400000D02*
X120705000Y-109400000D01*
X108600000Y-119550000D02*
X118750000Y-109400000D01*
X105100000Y-119550000D02*
X108600000Y-119550000D01*
X104725500Y-119175500D02*
X105100000Y-119550000D01*
X119435000Y-110670000D02*
X117982756Y-110670000D01*
X103925400Y-119175400D02*
X103925400Y-117990000D01*
X104655502Y-119905502D02*
X103925400Y-119175400D01*
X108747254Y-119905502D02*
X104655502Y-119905502D01*
X117982756Y-110670000D02*
X108747254Y-119905502D01*
X103125300Y-117990000D02*
X103125300Y-119225300D01*
X120695000Y-111950000D02*
X121975000Y-110670000D01*
X117205512Y-111950000D02*
X120695000Y-111950000D01*
X108894508Y-120261004D02*
X117205512Y-111950000D01*
X104161004Y-120261004D02*
X108894508Y-120261004D01*
X103125300Y-119225300D02*
X104161004Y-120261004D01*
X119435000Y-113210000D02*
X116448268Y-113210000D01*
X102325200Y-119225200D02*
X102325200Y-117990000D01*
X103716506Y-120616506D02*
X102325200Y-119225200D01*
X109041762Y-120616506D02*
X103716506Y-120616506D01*
X116448268Y-113210000D02*
X109041762Y-120616506D01*
X119400000Y-114500000D02*
X120685000Y-114500000D01*
X120685000Y-114500000D02*
X121975000Y-113210000D01*
X101525100Y-117990000D02*
X101525100Y-119275100D01*
X115661024Y-114500000D02*
X119400000Y-114500000D01*
X109189016Y-120972008D02*
X115661024Y-114500000D01*
X103222008Y-120972008D02*
X109189016Y-120972008D01*
X101525100Y-119275100D02*
X103222008Y-120972008D01*
X121290000Y-113210000D02*
X121975000Y-113210000D01*
X106440000Y-108274500D02*
X113254988Y-108274500D01*
X118200000Y-99255000D02*
X119445000Y-98010000D01*
X118200000Y-103329488D02*
X118200000Y-99255000D01*
X113254988Y-108274500D02*
X118200000Y-103329488D01*
X106440000Y-109874700D02*
X107475300Y-109874700D01*
X119445000Y-102587244D02*
X119445000Y-100550000D01*
X113402242Y-108630002D02*
X119445000Y-102587244D01*
X108719998Y-108630002D02*
X113402242Y-108630002D01*
X107475300Y-109874700D02*
X108719998Y-108630002D01*
X96900000Y-113100000D02*
X96875100Y-113075100D01*
X95010000Y-113075100D02*
X96875100Y-113075100D01*
X82125000Y-119100000D02*
X82125000Y-122480000D01*
X82125000Y-122480000D02*
X84325000Y-124680000D01*
X94350000Y-124700000D02*
X89425000Y-124700000D01*
X89425000Y-124700000D02*
X89405000Y-124680000D01*
X101600000Y-113100000D02*
X102375200Y-113875200D01*
X102375200Y-113875200D02*
X106440000Y-113875200D01*
X106439800Y-113875000D02*
X106440000Y-113875200D01*
X93400000Y-107750000D02*
X93924500Y-108274500D01*
X95010000Y-108274500D02*
X93924500Y-108274500D01*
X79250000Y-119100000D02*
X79250000Y-124675000D01*
X79250000Y-124675000D02*
X79245000Y-124680000D01*
X106440000Y-109074600D02*
X103325400Y-109074600D01*
X103325400Y-109074600D02*
X102150000Y-110250000D01*
X106440000Y-112275000D02*
X107525000Y-112275000D01*
X116588996Y-105946004D02*
X121985000Y-100550000D01*
X116588996Y-109467736D02*
X116588996Y-105946004D01*
X112092436Y-113964296D02*
X116588996Y-109467736D01*
X109214296Y-113964296D02*
X112092436Y-113964296D01*
X107525000Y-112275000D02*
X109214296Y-113964296D01*
X106440000Y-113075100D02*
X107375100Y-113075100D01*
X118110000Y-105590000D02*
X119435000Y-105590000D01*
X116944498Y-106755502D02*
X118110000Y-105590000D01*
X116944498Y-109614990D02*
X116944498Y-106755502D01*
X112239690Y-114319798D02*
X116944498Y-109614990D01*
X108619798Y-114319798D02*
X112239690Y-114319798D01*
X107375100Y-113075100D02*
X108619798Y-114319798D01*
X106440000Y-114675300D02*
X112386944Y-114675300D01*
X120665000Y-106900000D02*
X121975000Y-105590000D01*
X118550000Y-106900000D02*
X120665000Y-106900000D01*
X117300000Y-108150000D02*
X118550000Y-106900000D01*
X117300000Y-109762244D02*
X117300000Y-108150000D01*
X112386944Y-114675300D02*
X117300000Y-109762244D01*
X106440000Y-116275500D02*
X111289500Y-116275500D01*
X111289500Y-116275500D02*
X119435000Y-108130000D01*
X86925000Y-88599360D02*
X86925000Y-93050000D01*
X86142200Y-93832800D02*
X85119000Y-93832800D01*
X86925000Y-93050000D02*
X86142200Y-93832800D01*
X85119000Y-94493200D02*
X86256800Y-94493200D01*
X87722560Y-93027440D02*
X87722560Y-88599360D01*
X86256800Y-94493200D02*
X87722560Y-93027440D01*
X85119000Y-95102800D02*
X84252800Y-95102800D01*
X83400000Y-92800000D02*
X82450000Y-92800000D01*
X83700000Y-93100000D02*
X83400000Y-92800000D01*
X83700000Y-94550000D02*
X83700000Y-93100000D01*
X84252800Y-95102800D02*
X83700000Y-94550000D01*
X94925000Y-89025000D02*
X94925000Y-89975000D01*
X90422254Y-90830502D02*
X86300000Y-94952756D01*
X94069498Y-90830502D02*
X90422254Y-90830502D01*
X94925000Y-89975000D02*
X94069498Y-90830502D01*
X86001000Y-96449000D02*
X85119000Y-96449000D01*
X86300000Y-94952756D02*
X86300000Y-96150000D01*
X86300000Y-96150000D02*
X86001000Y-96449000D01*
X94925000Y-89025000D02*
X98050000Y-89025000D01*
X103925400Y-106560000D02*
X103925400Y-105424600D01*
X113100000Y-99275000D02*
X114365000Y-98010000D01*
X113100000Y-102797244D02*
X113100000Y-99275000D01*
X111352746Y-104544498D02*
X113100000Y-102797244D01*
X104805502Y-104544498D02*
X111352746Y-104544498D01*
X103925400Y-105424600D02*
X104805502Y-104544498D01*
X104725500Y-106560000D02*
X104725500Y-105474500D01*
X114365000Y-102035000D02*
X114365000Y-100550000D01*
X111500000Y-104900000D02*
X114365000Y-102035000D01*
X105300000Y-104900000D02*
X111500000Y-104900000D01*
X104725500Y-105474500D02*
X105300000Y-104900000D01*
X88522660Y-88599360D02*
X88522660Y-90147660D01*
X93975000Y-86825000D02*
X94925000Y-86825000D01*
X93400000Y-87400000D02*
X93975000Y-86825000D01*
X93400000Y-89900000D02*
X93400000Y-87400000D01*
X92825000Y-90475000D02*
X93400000Y-89900000D01*
X88850000Y-90475000D02*
X92825000Y-90475000D01*
X88522660Y-90147660D02*
X88850000Y-90475000D01*
X94925000Y-86825000D02*
X94925000Y-85425000D01*
X94925000Y-85425000D02*
X96500000Y-83850000D01*
X96500000Y-83850000D02*
X101700000Y-83850000D01*
X101700000Y-83850000D02*
X102225000Y-84375000D01*
X102225000Y-84375000D02*
X102225000Y-86075000D01*
D10*
X113924020Y-93200000D02*
X117200000Y-93200000D01*
X102124020Y-98650000D02*
X105150000Y-98650000D01*
X111825000Y-98010000D02*
X111825000Y-93200980D01*
X111825000Y-93200980D02*
X111825980Y-93200000D01*
D33*
X102325200Y-106560000D02*
X102325200Y-104650200D01*
X102325200Y-104650200D02*
X102325000Y-104650000D01*
X101525100Y-104274900D02*
X101550000Y-104250000D01*
X101525100Y-106560000D02*
X101525100Y-104274900D01*
X92231000Y-95128200D02*
X96521800Y-95128200D01*
X96521800Y-95128200D02*
X96525000Y-95125000D01*
X92231000Y-95128200D02*
X91166288Y-95128200D01*
X91166288Y-95128200D02*
X89022490Y-97271998D01*
X89022490Y-97271998D02*
X89022490Y-107380758D01*
X89022490Y-107380758D02*
X90450000Y-108808268D01*
X90450000Y-108808268D02*
X90450000Y-115300000D01*
X90450000Y-115300000D02*
X90625400Y-115475400D01*
X90625400Y-115475400D02*
X95010000Y-115475400D01*
X92231000Y-100995600D02*
X94051112Y-100995600D01*
X98324700Y-105269188D02*
X98324700Y-106560000D01*
X94051112Y-100995600D02*
X98324700Y-105269188D01*
X92231000Y-101656000D02*
X94208756Y-101656000D01*
X97524600Y-104971844D02*
X97524600Y-106560000D01*
X94208756Y-101656000D02*
X97524600Y-104971844D01*
X92231000Y-102291000D02*
X94341000Y-102291000D01*
X96724500Y-104674500D02*
X96724500Y-106560000D01*
X94341000Y-102291000D02*
X96724500Y-104674500D01*
X85119000Y-103344000D02*
X85119000Y-102291000D01*
X85125000Y-103350000D02*
X85119000Y-103344000D01*
X99924900Y-104724900D02*
X99924900Y-106560000D01*
X99450000Y-104250000D02*
X99924900Y-104724900D01*
X85119000Y-99039800D02*
X87137044Y-99039800D01*
X99124800Y-118925200D02*
X99124800Y-117990000D01*
X97483494Y-120566506D02*
X99124800Y-118925200D01*
X90908238Y-120566506D02*
X97483494Y-120566506D01*
X87433494Y-117091762D02*
X90908238Y-120566506D01*
X87433494Y-99336250D02*
X87433494Y-117091762D01*
X87137044Y-99039800D02*
X87433494Y-99336250D01*
X98324700Y-117990000D02*
X98324700Y-118875300D01*
X86979400Y-98379400D02*
X85119000Y-98379400D01*
X87788996Y-99188996D02*
X86979400Y-98379400D01*
X87788996Y-116944508D02*
X87788996Y-99188996D01*
X91055492Y-120211004D02*
X87788996Y-116944508D01*
X96988996Y-120211004D02*
X91055492Y-120211004D01*
X98324700Y-118875300D02*
X96988996Y-120211004D01*
X92231000Y-93832800D02*
X91456176Y-93832800D01*
X97524600Y-118975400D02*
X97524600Y-117990000D01*
X96644498Y-119855502D02*
X97524600Y-118975400D01*
X91202746Y-119855502D02*
X96644498Y-119855502D01*
X88144498Y-116797254D02*
X91202746Y-119855502D01*
X88144498Y-97144478D02*
X88144498Y-116797254D01*
X91456176Y-93832800D02*
X88144498Y-97144478D01*
X93700000Y-119500000D02*
X91350000Y-119500000D01*
X91350000Y-119500000D02*
X88500000Y-116650000D01*
X91298532Y-94493200D02*
X92231000Y-94493200D01*
X88500000Y-97291732D02*
X91298532Y-94493200D01*
X88500000Y-116650000D02*
X88500000Y-97291732D01*
X96724500Y-118925500D02*
X96724500Y-117990000D01*
X96150000Y-119500000D02*
X96724500Y-118925500D01*
X93700000Y-119500000D02*
X96150000Y-119500000D01*
X92725000Y-112275000D02*
X95010000Y-112275000D01*
X91161004Y-110711004D02*
X92725000Y-112275000D01*
X91161004Y-108213760D02*
X91161004Y-110711004D01*
X89733494Y-106786250D02*
X91161004Y-108213760D01*
X89733494Y-97566506D02*
X89733494Y-106786250D01*
X90851000Y-96449000D02*
X89733494Y-97566506D01*
X92231000Y-96449000D02*
X90851000Y-96449000D01*
X91008644Y-95788600D02*
X92231000Y-95788600D01*
X89377992Y-97419252D02*
X91008644Y-95788600D01*
X89377992Y-107083504D02*
X89377992Y-97419252D01*
X90805502Y-108511014D02*
X89377992Y-107083504D01*
X90805502Y-110880502D02*
X90805502Y-108511014D01*
X93800200Y-113875200D02*
X90805502Y-110880502D01*
X95010000Y-113875200D02*
X93800200Y-113875200D01*
X95010000Y-111474900D02*
X92427656Y-111474900D01*
X91166000Y-97084000D02*
X92231000Y-97084000D01*
X90088996Y-98161004D02*
X91166000Y-97084000D01*
X90088996Y-106638996D02*
X90088996Y-98161004D01*
X91516506Y-108066506D02*
X90088996Y-106638996D01*
X91516506Y-110563750D02*
X91516506Y-108066506D01*
X92427656Y-111474900D02*
X91516506Y-110563750D01*
X92231000Y-99039800D02*
X91260200Y-99039800D01*
X94021944Y-109874700D02*
X95010000Y-109874700D01*
X90444498Y-106297254D02*
X94021944Y-109874700D01*
X90444498Y-99855502D02*
X90444498Y-106297254D01*
X91260200Y-99039800D02*
X90444498Y-99855502D01*
X95010000Y-109074600D02*
X93724600Y-109074600D01*
X91299800Y-99700200D02*
X92231000Y-99700200D01*
X90800000Y-100200000D02*
X91299800Y-99700200D01*
X90800000Y-106150000D02*
X90800000Y-100200000D01*
X93724600Y-109074600D02*
X90800000Y-106150000D01*
D10*
X100025980Y-98650000D02*
X100025980Y-97574020D01*
X100025980Y-97574020D02*
X103200000Y-94400000D01*
D33*
X100725000Y-106560000D02*
X100725000Y-104475000D01*
X100725000Y-104475000D02*
X100500000Y-104250000D01*
D35*
G36*
X80830739Y-81598690D02*
X80779730Y-81850580D01*
X80779730Y-84349940D01*
X80824008Y-84585257D01*
X80963080Y-84801381D01*
X81175280Y-84946371D01*
X81427170Y-84997380D01*
X83426150Y-84997380D01*
X83661467Y-84953102D01*
X83877591Y-84814030D01*
X84022581Y-84601830D01*
X84073590Y-84349940D01*
X84073590Y-81850580D01*
X84029312Y-81615263D01*
X83940342Y-81477000D01*
X89910566Y-81477000D01*
X89827419Y-81598690D01*
X89776410Y-81850580D01*
X89776410Y-84349940D01*
X89820688Y-84585257D01*
X89959760Y-84801381D01*
X90171960Y-84946371D01*
X90423850Y-84997380D01*
X92422830Y-84997380D01*
X92658147Y-84953102D01*
X92874271Y-84814030D01*
X93019261Y-84601830D01*
X93070270Y-84349940D01*
X93070270Y-81850580D01*
X93025992Y-81615263D01*
X92937022Y-81477000D01*
X104823000Y-81477000D01*
X104823000Y-87750000D01*
X104833006Y-87799410D01*
X104861447Y-87841035D01*
X104903841Y-87868315D01*
X104950000Y-87877000D01*
X118350000Y-87877000D01*
X118399410Y-87866994D01*
X118441035Y-87838553D01*
X118468315Y-87796159D01*
X118477000Y-87750000D01*
X118477000Y-83564143D01*
X118851998Y-83564143D01*
X118852987Y-83568581D01*
X118852266Y-83573069D01*
X118879953Y-83689546D01*
X118906014Y-83806456D01*
X118908627Y-83810178D01*
X118909678Y-83814600D01*
X118979835Y-83911621D01*
X119048648Y-84009652D01*
X119052484Y-84012090D01*
X119055149Y-84015775D01*
X119150209Y-84104045D01*
X119090462Y-84263371D01*
X119075679Y-84353585D01*
X119051544Y-84441767D01*
X119026144Y-84799908D01*
X119029001Y-84822544D01*
X119024550Y-84844920D01*
X119024550Y-84931280D01*
X119029283Y-84955077D01*
X119026354Y-84979164D01*
X119046674Y-85248404D01*
X119069505Y-85330361D01*
X119081938Y-85414521D01*
X119145438Y-85592321D01*
X119205304Y-85692335D01*
X119221201Y-85720418D01*
X119217635Y-85723339D01*
X119188501Y-85735371D01*
X119122307Y-85801427D01*
X119049967Y-85860684D01*
X119035083Y-85888468D01*
X119012771Y-85910734D01*
X118976894Y-85997093D01*
X118932737Y-86079523D01*
X118929619Y-86110889D01*
X118917526Y-86139997D01*
X118902286Y-86216197D01*
X118902182Y-86315848D01*
X118894272Y-86415186D01*
X118902052Y-86439207D01*
X118902026Y-86464457D01*
X118940065Y-86556565D01*
X118970772Y-86651366D01*
X119067292Y-86824086D01*
X119109693Y-86873824D01*
X119142060Y-86930599D01*
X119357960Y-87179520D01*
X119363925Y-87184149D01*
X119367818Y-87190622D01*
X119393218Y-87218562D01*
X119410101Y-87231044D01*
X119422070Y-87248294D01*
X119643050Y-87461654D01*
X119679685Y-87485213D01*
X119709131Y-87517303D01*
X119851371Y-87621443D01*
X119887864Y-87638429D01*
X119918578Y-87664448D01*
X119999451Y-87690366D01*
X120076445Y-87726203D01*
X120116663Y-87727931D01*
X120154994Y-87740215D01*
X120243894Y-87750375D01*
X120292016Y-87746393D01*
X120339689Y-87754054D01*
X120414584Y-87736252D01*
X120491309Y-87729903D01*
X120507083Y-87721786D01*
X120563007Y-87741049D01*
X120587217Y-87739571D01*
X120610676Y-87745722D01*
X120710361Y-87732053D01*
X120810806Y-87725921D01*
X120832607Y-87715291D01*
X120856635Y-87711996D01*
X120860951Y-87710505D01*
X120903131Y-87719251D01*
X120973066Y-87745754D01*
X121023542Y-87744217D01*
X121072990Y-87754469D01*
X121146456Y-87740473D01*
X121221211Y-87738196D01*
X121267258Y-87717459D01*
X121287853Y-87713535D01*
X121342656Y-87723245D01*
X121408415Y-87747138D01*
X121463711Y-87744693D01*
X121518214Y-87754350D01*
X121586537Y-87739262D01*
X121656433Y-87736172D01*
X121706583Y-87712753D01*
X121760634Y-87700817D01*
X121782243Y-87691330D01*
X121824124Y-87705661D01*
X122032405Y-87733601D01*
X122056932Y-87732054D01*
X122102194Y-87743495D01*
X122399374Y-87758735D01*
X122415739Y-87756343D01*
X122431960Y-87759570D01*
X122757080Y-87759570D01*
X122770496Y-87756901D01*
X122784016Y-87759000D01*
X123083736Y-87746300D01*
X123108540Y-87740264D01*
X123133992Y-87742170D01*
X123362592Y-87714230D01*
X123445519Y-87686936D01*
X123447844Y-87686464D01*
X123483484Y-87705763D01*
X123521686Y-87709735D01*
X123557402Y-87723860D01*
X123644136Y-87722465D01*
X123730413Y-87731435D01*
X123839634Y-87721275D01*
X123894840Y-87704855D01*
X123956699Y-87699910D01*
X123990025Y-87682878D01*
X124026730Y-87675577D01*
X124053573Y-87657641D01*
X124077591Y-87650497D01*
X124118750Y-87617090D01*
X124177762Y-87586931D01*
X124264356Y-87518494D01*
X124276000Y-87520810D01*
X124372520Y-87520810D01*
X124435949Y-87508193D01*
X124500617Y-87507782D01*
X124556512Y-87484212D01*
X124616010Y-87472377D01*
X124669782Y-87436448D01*
X124729371Y-87411320D01*
X124804062Y-87360723D01*
X124873612Y-87315155D01*
X124911459Y-87277986D01*
X124956700Y-87250279D01*
X125190381Y-87034378D01*
X125200225Y-87020837D01*
X125214031Y-87011363D01*
X125417230Y-86803083D01*
X125427903Y-86786674D01*
X125443344Y-86774639D01*
X125588124Y-86606999D01*
X125608848Y-86570467D01*
X125638314Y-86540545D01*
X125696734Y-86451646D01*
X125740525Y-86343588D01*
X125786912Y-86236627D01*
X125787041Y-86228808D01*
X125789978Y-86221561D01*
X125789303Y-86133522D01*
X125795121Y-86111139D01*
X125789632Y-86071730D01*
X125791007Y-85988400D01*
X125785927Y-85960461D01*
X125772154Y-85925595D01*
X125823369Y-85873756D01*
X125842708Y-85844431D01*
X125869473Y-85821681D01*
X126024413Y-85626101D01*
X126060936Y-85554840D01*
X126107111Y-85489414D01*
X126168071Y-85352253D01*
X126193633Y-85238942D01*
X126222080Y-85126329D01*
X126220883Y-85118147D01*
X126222703Y-85110079D01*
X126202956Y-84995606D01*
X126186143Y-84880683D01*
X126145503Y-84766383D01*
X126125439Y-84732756D01*
X126115097Y-84694992D01*
X126008417Y-84481631D01*
X126000291Y-84471161D01*
X125996269Y-84458532D01*
X125848949Y-84191832D01*
X125841657Y-84183193D01*
X125841334Y-84182206D01*
X125700929Y-83932866D01*
X125615807Y-83764698D01*
X125601563Y-83729087D01*
X125624399Y-83696581D01*
X125694375Y-83600410D01*
X125695634Y-83595181D01*
X125698728Y-83590777D01*
X125724663Y-83474646D01*
X125752502Y-83359050D01*
X125755042Y-83295550D01*
X125750480Y-83266614D01*
X125754720Y-83237631D01*
X125731283Y-83144851D01*
X125716379Y-83050319D01*
X125701091Y-83025331D01*
X125693917Y-82996932D01*
X125620257Y-82841992D01*
X125579641Y-82787455D01*
X125549407Y-82726544D01*
X125412247Y-82548744D01*
X125375112Y-82516346D01*
X125346691Y-82476085D01*
X125194291Y-82331305D01*
X125106252Y-82275690D01*
X125021960Y-82214555D01*
X124900906Y-82158870D01*
X124890164Y-82152098D01*
X124790233Y-82058511D01*
X124596720Y-81850838D01*
X124566101Y-81828778D01*
X124542628Y-81799231D01*
X124466210Y-81756810D01*
X124395293Y-81705717D01*
X124358564Y-81697054D01*
X124325569Y-81678738D01*
X124238731Y-81668790D01*
X124153663Y-81648726D01*
X124116414Y-81654778D01*
X124078922Y-81650483D01*
X123994891Y-81674522D01*
X123908616Y-81688540D01*
X123876518Y-81708387D01*
X123840236Y-81718766D01*
X123771799Y-81773134D01*
X123697458Y-81819100D01*
X123675398Y-81849719D01*
X123645851Y-81873192D01*
X123589852Y-81939258D01*
X123563985Y-81920098D01*
X123516593Y-81869938D01*
X123465199Y-81846922D01*
X123419946Y-81813400D01*
X123352993Y-81796671D01*
X123290017Y-81768467D01*
X123201117Y-81748147D01*
X123180508Y-81747562D01*
X123161189Y-81740354D01*
X123057083Y-81744060D01*
X122952956Y-81741106D01*
X122933690Y-81748453D01*
X122913085Y-81749187D01*
X122818327Y-81792449D01*
X122720992Y-81829569D01*
X122706004Y-81843730D01*
X122687248Y-81852293D01*
X122578028Y-81931033D01*
X122519889Y-81993465D01*
X122454458Y-82048213D01*
X122286818Y-82256493D01*
X122273073Y-82282808D01*
X122252154Y-82303880D01*
X122216002Y-82392068D01*
X122171878Y-82476542D01*
X122171544Y-82480301D01*
X122167229Y-82478676D01*
X122068914Y-82435488D01*
X121827614Y-82382148D01*
X121771224Y-82380952D01*
X121716406Y-82367687D01*
X121345566Y-82352447D01*
X121332456Y-82354499D01*
X121319440Y-82351910D01*
X121240700Y-82351910D01*
X121229482Y-82354141D01*
X121218191Y-82352308D01*
X120931171Y-82362468D01*
X120872545Y-82376302D01*
X120812330Y-82377969D01*
X120611670Y-82423689D01*
X120526593Y-82461720D01*
X120445129Y-82488834D01*
X120406885Y-82453423D01*
X120395211Y-82441749D01*
X120339625Y-82404608D01*
X120291731Y-82357970D01*
X120146951Y-82263990D01*
X120075953Y-82235681D01*
X120010077Y-82196909D01*
X119961711Y-82190129D01*
X119916346Y-82172041D01*
X119839917Y-82173057D01*
X119764221Y-82162446D01*
X119675321Y-82167526D01*
X119595644Y-82188162D01*
X119513932Y-82197980D01*
X119476532Y-82219012D01*
X119434991Y-82229771D01*
X119369275Y-82279328D01*
X119297541Y-82319668D01*
X119271036Y-82353411D01*
X119236774Y-82379249D01*
X119195027Y-82450180D01*
X119144189Y-82514902D01*
X119132614Y-82556222D01*
X119110849Y-82593203D01*
X119099424Y-82674709D01*
X119077224Y-82753960D01*
X119072144Y-82820000D01*
X119082990Y-82910271D01*
X119084194Y-83001181D01*
X119097684Y-83032568D01*
X119098165Y-83036568D01*
X119027968Y-83110068D01*
X119025530Y-83113904D01*
X119021845Y-83116569D01*
X118959048Y-83218530D01*
X118894822Y-83319604D01*
X118894037Y-83324084D01*
X118891654Y-83327954D01*
X118872658Y-83446166D01*
X118851998Y-83564143D01*
X118477000Y-83564143D01*
X118477000Y-81477000D01*
X126373000Y-81477000D01*
X126373000Y-109223000D01*
X125238200Y-109223000D01*
X125238200Y-93550000D01*
X125174396Y-93229235D01*
X124992697Y-92957303D01*
X121842697Y-89807303D01*
X121570766Y-89625604D01*
X121250000Y-89561800D01*
X104357194Y-89561800D01*
X103825730Y-89030336D01*
X103908345Y-88615000D01*
X103782670Y-87983190D01*
X103555501Y-87643208D01*
X103692441Y-87555090D01*
X103837431Y-87342890D01*
X103888440Y-87091000D01*
X103888440Y-85059000D01*
X103844162Y-84823683D01*
X103705090Y-84607559D01*
X103492890Y-84462569D01*
X103241000Y-84411560D01*
X102961550Y-84411560D01*
X102961550Y-84375000D01*
X102913842Y-84135156D01*
X102905483Y-84093134D01*
X102745819Y-83854180D01*
X102220819Y-83329181D01*
X101981865Y-83169517D01*
X101964083Y-83165980D01*
X101700000Y-83113450D01*
X96500000Y-83113450D01*
X96285320Y-83156153D01*
X96218134Y-83169517D01*
X95979180Y-83329181D01*
X94404181Y-84904181D01*
X94244517Y-85143135D01*
X94188450Y-85425000D01*
X94188450Y-85654806D01*
X94023559Y-85760910D01*
X93878569Y-85973110D01*
X93850184Y-86113278D01*
X93707850Y-86141590D01*
X93693135Y-86144517D01*
X93454181Y-86304180D01*
X92879181Y-86879181D01*
X92872864Y-86888635D01*
X92674720Y-86753249D01*
X92422830Y-86702240D01*
X90423850Y-86702240D01*
X90315495Y-86722628D01*
X90462987Y-86367428D01*
X90463452Y-85834908D01*
X90260094Y-85342746D01*
X89883874Y-84965869D01*
X89392068Y-84761653D01*
X88859548Y-84761188D01*
X88367386Y-84964546D01*
X87990509Y-85340766D01*
X87786293Y-85832572D01*
X87785828Y-86365092D01*
X87925135Y-86702240D01*
X87473640Y-86702240D01*
X87318278Y-86731473D01*
X87173920Y-86702240D01*
X86676080Y-86702240D01*
X86520718Y-86731473D01*
X86376360Y-86702240D01*
X85924681Y-86702240D01*
X86063707Y-86367428D01*
X86064172Y-85834908D01*
X85860814Y-85342746D01*
X85484594Y-84965869D01*
X84992788Y-84761653D01*
X84460268Y-84761188D01*
X83968106Y-84964546D01*
X83591229Y-85340766D01*
X83387013Y-85832572D01*
X83386548Y-86365092D01*
X83525914Y-86702383D01*
X83525210Y-86702240D01*
X81526230Y-86702240D01*
X81290913Y-86746518D01*
X81074789Y-86885590D01*
X80929799Y-87097790D01*
X80878790Y-87349680D01*
X80878790Y-89849040D01*
X80923068Y-90084357D01*
X81062140Y-90300481D01*
X81274340Y-90445471D01*
X81526230Y-90496480D01*
X83525210Y-90496480D01*
X83760527Y-90452202D01*
X83976651Y-90313130D01*
X84121641Y-90100930D01*
X84172650Y-89849040D01*
X84172650Y-88885110D01*
X84443420Y-88885110D01*
X84443420Y-89975349D01*
X84540093Y-90208738D01*
X84718721Y-90387367D01*
X84952110Y-90484040D01*
X85044130Y-90484040D01*
X85202880Y-90325290D01*
X85202880Y-88726360D01*
X84602170Y-88726360D01*
X84443420Y-88885110D01*
X84172650Y-88885110D01*
X84172650Y-87349680D01*
X84166569Y-87317362D01*
X84443420Y-87432321D01*
X84443420Y-88313610D01*
X84602170Y-88472360D01*
X85202880Y-88472360D01*
X85202880Y-88452360D01*
X85231080Y-88452360D01*
X85231080Y-89849040D01*
X85275358Y-90084357D01*
X85414430Y-90300481D01*
X85454088Y-90327578D01*
X85610550Y-90484040D01*
X85702570Y-90484040D01*
X85740173Y-90468464D01*
X85878520Y-90496480D01*
X86188450Y-90496480D01*
X86188450Y-92744911D01*
X85917992Y-93015369D01*
X85754000Y-92982160D01*
X84484000Y-92982160D01*
X84415668Y-92995018D01*
X84380483Y-92818135D01*
X84380483Y-92818134D01*
X84220819Y-92579180D01*
X83920819Y-92279181D01*
X83681865Y-92119517D01*
X83597171Y-92102670D01*
X83514090Y-91973559D01*
X83301890Y-91828569D01*
X83050000Y-91777560D01*
X81850000Y-91777560D01*
X81614683Y-91821838D01*
X81511354Y-91888329D01*
X81509698Y-91886673D01*
X81276309Y-91790000D01*
X80835750Y-91790000D01*
X80677000Y-91948750D01*
X80677000Y-92673000D01*
X80697000Y-92673000D01*
X80697000Y-92927000D01*
X80677000Y-92927000D01*
X80677000Y-93651250D01*
X80835750Y-93810000D01*
X81276309Y-93810000D01*
X81509698Y-93713327D01*
X81511068Y-93711957D01*
X81598110Y-93771431D01*
X81850000Y-93822440D01*
X82963450Y-93822440D01*
X82963450Y-94550000D01*
X83008219Y-94775065D01*
X83019517Y-94831865D01*
X83179181Y-95070819D01*
X83731980Y-95623619D01*
X83970934Y-95783283D01*
X83997665Y-95788600D01*
X84024239Y-95793886D01*
X83887569Y-95993910D01*
X83883387Y-96014563D01*
X83849000Y-96048950D01*
X83849000Y-96118109D01*
X83858012Y-96139866D01*
X83836560Y-96245800D01*
X83449924Y-96245800D01*
X83339090Y-96073559D01*
X83126890Y-95928569D01*
X82875000Y-95877560D01*
X82125000Y-95877560D01*
X81889683Y-95921838D01*
X81673559Y-96060910D01*
X81548617Y-96243769D01*
X81439090Y-96073559D01*
X81226890Y-95928569D01*
X80975000Y-95877560D01*
X80225000Y-95877560D01*
X79989683Y-95921838D01*
X79773559Y-96060910D01*
X79648617Y-96243769D01*
X79545199Y-96083053D01*
X79684828Y-95746788D01*
X79685170Y-95354931D01*
X79535529Y-94992771D01*
X79258686Y-94715445D01*
X78896788Y-94565172D01*
X78504931Y-94564830D01*
X78142771Y-94714471D01*
X77865445Y-94991314D01*
X77715172Y-95353212D01*
X77714830Y-95745069D01*
X77855969Y-96086653D01*
X77728569Y-96273110D01*
X77677560Y-96525000D01*
X77677560Y-97725000D01*
X77721838Y-97960317D01*
X77788329Y-98063646D01*
X77786673Y-98065302D01*
X77690000Y-98298691D01*
X77690000Y-98739250D01*
X77848750Y-98898000D01*
X78573000Y-98898000D01*
X78573000Y-98878000D01*
X78827000Y-98878000D01*
X78827000Y-98898000D01*
X79551250Y-98898000D01*
X79650000Y-98799250D01*
X79748750Y-98898000D01*
X80473000Y-98898000D01*
X80473000Y-98878000D01*
X80727000Y-98878000D01*
X80727000Y-98898000D01*
X81451250Y-98898000D01*
X81550000Y-98799250D01*
X81648750Y-98898000D01*
X82373000Y-98898000D01*
X82373000Y-98878000D01*
X82627000Y-98878000D01*
X82627000Y-98898000D01*
X83351250Y-98898000D01*
X83510000Y-98739250D01*
X83510000Y-98298691D01*
X83413327Y-98065302D01*
X83411957Y-98063932D01*
X83471431Y-97976890D01*
X83482506Y-97922200D01*
X83889011Y-97922200D01*
X83887569Y-97924310D01*
X83876937Y-97976813D01*
X83849000Y-98004750D01*
X83849000Y-98073909D01*
X83854557Y-98087326D01*
X83836560Y-98176200D01*
X83836560Y-98582600D01*
X83861334Y-98714262D01*
X83836560Y-98836600D01*
X83836560Y-99243000D01*
X83861334Y-99374662D01*
X83836560Y-99497000D01*
X83836560Y-99903400D01*
X83853681Y-99994390D01*
X83849000Y-100005691D01*
X83849000Y-100074850D01*
X83873414Y-100099264D01*
X83880838Y-100138717D01*
X84019910Y-100354841D01*
X84022063Y-100356312D01*
X83945673Y-100432702D01*
X83898880Y-100545670D01*
X83849000Y-100595550D01*
X83849000Y-100664709D01*
X83849286Y-100665400D01*
X83849000Y-100666091D01*
X83849000Y-100735250D01*
X83898880Y-100785130D01*
X83945673Y-100898098D01*
X84034826Y-100987251D01*
X84032559Y-100988710D01*
X83887569Y-101200910D01*
X83883387Y-101221563D01*
X83849000Y-101255950D01*
X83849000Y-101325109D01*
X83858012Y-101346866D01*
X83836560Y-101452800D01*
X83836560Y-101859200D01*
X83858857Y-101977696D01*
X83836560Y-102087800D01*
X83836560Y-102494200D01*
X83880838Y-102729517D01*
X84019910Y-102945641D01*
X84180734Y-103055527D01*
X84140172Y-103153212D01*
X84139830Y-103545069D01*
X84289471Y-103907229D01*
X84566314Y-104184555D01*
X84928212Y-104334828D01*
X85320069Y-104335170D01*
X85682229Y-104185529D01*
X85959555Y-103908686D01*
X86109828Y-103546788D01*
X86110170Y-103154931D01*
X86065996Y-103048021D01*
X86205441Y-102958290D01*
X86350431Y-102746090D01*
X86401440Y-102494200D01*
X86401440Y-102087800D01*
X86379143Y-101969304D01*
X86401440Y-101859200D01*
X86401440Y-101452800D01*
X86381033Y-101344344D01*
X86389000Y-101325109D01*
X86389000Y-101255950D01*
X86358698Y-101225648D01*
X86357162Y-101217483D01*
X86218090Y-101001359D01*
X86200848Y-100989578D01*
X86292327Y-100898098D01*
X86339120Y-100785130D01*
X86389000Y-100735250D01*
X86389000Y-100666091D01*
X86388714Y-100665400D01*
X86389000Y-100664709D01*
X86389000Y-100595550D01*
X86339120Y-100545670D01*
X86292327Y-100432702D01*
X86214239Y-100354614D01*
X86350431Y-100155290D01*
X86361063Y-100102787D01*
X86389000Y-100074850D01*
X86389000Y-100005691D01*
X86383443Y-99992274D01*
X86401440Y-99903400D01*
X86401440Y-99776350D01*
X86696944Y-99776350D01*
X86696944Y-117091762D01*
X86729106Y-117253450D01*
X86753011Y-117373627D01*
X86912675Y-117612581D01*
X90387418Y-121087325D01*
X90626372Y-121246989D01*
X90660981Y-121253873D01*
X90908238Y-121303056D01*
X97483494Y-121303056D01*
X97624837Y-121274941D01*
X97615000Y-121298690D01*
X97615000Y-121514250D01*
X97773750Y-121673000D01*
X98723000Y-121673000D01*
X98723000Y-120948750D01*
X98564250Y-120790000D01*
X98301638Y-120790000D01*
X99645619Y-119446020D01*
X99726345Y-119325205D01*
X99797898Y-119253652D01*
X99797898Y-119387000D01*
X99886800Y-119387000D01*
X99886800Y-119575092D01*
X99740172Y-119928212D01*
X99739830Y-120320069D01*
X99886800Y-120675765D01*
X99886800Y-120839780D01*
X99811354Y-120888329D01*
X99809698Y-120886673D01*
X99576309Y-120790000D01*
X99135750Y-120790000D01*
X98977000Y-120948750D01*
X98977000Y-121673000D01*
X98997000Y-121673000D01*
X98997000Y-121927000D01*
X98977000Y-121927000D01*
X98977000Y-122651250D01*
X99135750Y-122810000D01*
X99576309Y-122810000D01*
X99809698Y-122713327D01*
X99811068Y-122711957D01*
X99898110Y-122771431D01*
X100150000Y-122822440D01*
X101350000Y-122822440D01*
X101585317Y-122778162D01*
X101767780Y-122660750D01*
X109615000Y-122660750D01*
X109615000Y-123501309D01*
X109711673Y-123734698D01*
X109890301Y-123913327D01*
X110123690Y-124010000D01*
X110764250Y-124010000D01*
X110923000Y-123851250D01*
X110923000Y-122502000D01*
X111177000Y-122502000D01*
X111177000Y-123851250D01*
X111335750Y-124010000D01*
X111976310Y-124010000D01*
X112209699Y-123913327D01*
X112388327Y-123734698D01*
X112485000Y-123501309D01*
X112485000Y-123479691D01*
X113297000Y-123479691D01*
X113297000Y-123828250D01*
X113455750Y-123987000D01*
X114821000Y-123987000D01*
X114821000Y-123129750D01*
X115075000Y-123129750D01*
X115075000Y-123987000D01*
X116440250Y-123987000D01*
X116599000Y-123828250D01*
X116599000Y-123479691D01*
X116502327Y-123246302D01*
X116323699Y-123067673D01*
X116090310Y-122971000D01*
X115233750Y-122971000D01*
X115075000Y-123129750D01*
X114821000Y-123129750D01*
X114662250Y-122971000D01*
X113805690Y-122971000D01*
X113572301Y-123067673D01*
X113393673Y-123246302D01*
X113297000Y-123479691D01*
X112485000Y-123479691D01*
X112485000Y-122660750D01*
X112326250Y-122502000D01*
X111177000Y-122502000D01*
X110923000Y-122502000D01*
X109773750Y-122502000D01*
X109615000Y-122660750D01*
X101767780Y-122660750D01*
X101801441Y-122639090D01*
X101946431Y-122426890D01*
X101997440Y-122175000D01*
X101997440Y-121425000D01*
X101953162Y-121189683D01*
X101814090Y-120973559D01*
X101601890Y-120828569D01*
X101563200Y-120820734D01*
X101563200Y-120674908D01*
X101657110Y-120448748D01*
X102701188Y-121492827D01*
X102940142Y-121652491D01*
X102963962Y-121657229D01*
X103222008Y-121708558D01*
X109189016Y-121708558D01*
X109470881Y-121652491D01*
X109615000Y-121556194D01*
X109615000Y-122089250D01*
X109773750Y-122248000D01*
X110923000Y-122248000D01*
X110923000Y-120898750D01*
X111177000Y-120898750D01*
X111177000Y-122248000D01*
X112326250Y-122248000D01*
X112485000Y-122089250D01*
X112485000Y-121660750D01*
X114690000Y-121660750D01*
X114690000Y-121876310D01*
X114786673Y-122109699D01*
X114965302Y-122288327D01*
X115198691Y-122385000D01*
X115639250Y-122385000D01*
X115798000Y-122226250D01*
X115798000Y-121502000D01*
X114848750Y-121502000D01*
X114690000Y-121660750D01*
X112485000Y-121660750D01*
X112485000Y-121248691D01*
X112388327Y-121015302D01*
X112246716Y-120873690D01*
X114690000Y-120873690D01*
X114690000Y-121089250D01*
X114848750Y-121248000D01*
X115798000Y-121248000D01*
X115798000Y-120523750D01*
X115639250Y-120365000D01*
X115198691Y-120365000D01*
X114965302Y-120461673D01*
X114786673Y-120640301D01*
X114690000Y-120873690D01*
X112246716Y-120873690D01*
X112209699Y-120836673D01*
X111976310Y-120740000D01*
X111335750Y-120740000D01*
X111177000Y-120898750D01*
X110923000Y-120898750D01*
X110764250Y-120740000D01*
X110462662Y-120740000D01*
X115966113Y-115236550D01*
X118009173Y-115236550D01*
X117907041Y-115750000D01*
X117963876Y-116035730D01*
X117232303Y-116767303D01*
X117050604Y-117039234D01*
X117031649Y-117134526D01*
X116986800Y-117360000D01*
X116986800Y-120398693D01*
X116886354Y-120463329D01*
X116884698Y-120461673D01*
X116651309Y-120365000D01*
X116210750Y-120365000D01*
X116052000Y-120523750D01*
X116052000Y-121248000D01*
X116072000Y-121248000D01*
X116072000Y-121502000D01*
X116052000Y-121502000D01*
X116052000Y-122226250D01*
X116210750Y-122385000D01*
X116651309Y-122385000D01*
X116884698Y-122288327D01*
X116886068Y-122286957D01*
X116973110Y-122346431D01*
X116986800Y-122349203D01*
X116986800Y-127352806D01*
X116500507Y-127839099D01*
X116428090Y-127726559D01*
X116215890Y-127581569D01*
X116027686Y-127543457D01*
X116199317Y-127511162D01*
X116415441Y-127372090D01*
X116560431Y-127159890D01*
X116611440Y-126908000D01*
X116611440Y-125892000D01*
X116567162Y-125656683D01*
X116428090Y-125440559D01*
X116215890Y-125295569D01*
X116025431Y-125257000D01*
X116090310Y-125257000D01*
X116323699Y-125160327D01*
X116502327Y-124981698D01*
X116599000Y-124748309D01*
X116599000Y-124399750D01*
X116440250Y-124241000D01*
X115075000Y-124241000D01*
X115075000Y-124261000D01*
X114821000Y-124261000D01*
X114821000Y-124241000D01*
X113455750Y-124241000D01*
X113297000Y-124399750D01*
X113297000Y-124748309D01*
X113393673Y-124981698D01*
X113572301Y-125160327D01*
X113805690Y-125257000D01*
X113865887Y-125257000D01*
X113696683Y-125288838D01*
X113480559Y-125427910D01*
X113408046Y-125534037D01*
X113121788Y-125415172D01*
X112729931Y-125414830D01*
X112497440Y-125510893D01*
X112497440Y-125375000D01*
X112453162Y-125139683D01*
X112314090Y-124923559D01*
X112101890Y-124778569D01*
X111850000Y-124727560D01*
X110250000Y-124727560D01*
X110014683Y-124771838D01*
X109798559Y-124910910D01*
X109653569Y-125123110D01*
X109602560Y-125375000D01*
X109602560Y-127375000D01*
X109646838Y-127610317D01*
X109785910Y-127826441D01*
X109998110Y-127971431D01*
X110250000Y-128022440D01*
X111850000Y-128022440D01*
X112085317Y-127978162D01*
X112301441Y-127839090D01*
X112446431Y-127626890D01*
X112497440Y-127375000D01*
X112497440Y-127289003D01*
X112728212Y-127384828D01*
X113120069Y-127385170D01*
X113407930Y-127266229D01*
X113467910Y-127359441D01*
X113680110Y-127504431D01*
X113868314Y-127542543D01*
X113696683Y-127574838D01*
X113480559Y-127713910D01*
X113335569Y-127926110D01*
X113284560Y-128178000D01*
X113284560Y-129194000D01*
X113328838Y-129429317D01*
X113467910Y-129645441D01*
X113680110Y-129790431D01*
X113932000Y-129841440D01*
X115964000Y-129841440D01*
X116199317Y-129797162D01*
X116415441Y-129658090D01*
X116506924Y-129524200D01*
X116839000Y-129524200D01*
X117159766Y-129460396D01*
X117431697Y-129278697D01*
X118417697Y-128292697D01*
X118599396Y-128020765D01*
X118663200Y-127700000D01*
X118663200Y-124571200D01*
X119888560Y-124571200D01*
X119888560Y-128228800D01*
X119932838Y-128464117D01*
X120071910Y-128680241D01*
X120284110Y-128825231D01*
X120536000Y-128876240D01*
X122568000Y-128876240D01*
X122803317Y-128831962D01*
X123019441Y-128692890D01*
X123164431Y-128480690D01*
X123215440Y-128228800D01*
X123215440Y-124571200D01*
X123171162Y-124335883D01*
X123032090Y-124119759D01*
X122819890Y-123974769D01*
X122568000Y-123923760D01*
X120536000Y-123923760D01*
X120300683Y-123968038D01*
X120084559Y-124107110D01*
X119939569Y-124319310D01*
X119888560Y-124571200D01*
X118663200Y-124571200D01*
X118663200Y-122351307D01*
X118876441Y-122214090D01*
X119021431Y-122001890D01*
X119072440Y-121750000D01*
X119072440Y-121000000D01*
X119028162Y-120764683D01*
X118889090Y-120548559D01*
X118676890Y-120403569D01*
X118663200Y-120400797D01*
X118663200Y-118538200D01*
X120556838Y-118538200D01*
X120507559Y-118569910D01*
X120362569Y-118782110D01*
X120311560Y-119034000D01*
X120311560Y-121066000D01*
X120355838Y-121301317D01*
X120494910Y-121517441D01*
X120707110Y-121662431D01*
X120959000Y-121713440D01*
X122991000Y-121713440D01*
X123226317Y-121669162D01*
X123442441Y-121530090D01*
X123544198Y-121381163D01*
X123883190Y-121607670D01*
X124515000Y-121733345D01*
X125146810Y-121607670D01*
X125682433Y-121249778D01*
X126040325Y-120714155D01*
X126166000Y-120082345D01*
X126166000Y-120017655D01*
X126040325Y-119385845D01*
X125682433Y-118850222D01*
X125146810Y-118492330D01*
X124515000Y-118366655D01*
X123883190Y-118492330D01*
X123543208Y-118719499D01*
X123455090Y-118582559D01*
X123381111Y-118532012D01*
X123670766Y-118474396D01*
X123942697Y-118292697D01*
X124725205Y-117510189D01*
X124723000Y-118299645D01*
X124732868Y-118349083D01*
X124761193Y-118390787D01*
X124803511Y-118418185D01*
X124850000Y-118427000D01*
X126373000Y-118427000D01*
X126373000Y-130298000D01*
X77527000Y-130298000D01*
X77527000Y-128246215D01*
X78398390Y-128246215D01*
X78475656Y-128494976D01*
X79022131Y-128692340D01*
X79602535Y-128665553D01*
X80014344Y-128494976D01*
X80091610Y-128246215D01*
X79245000Y-127399605D01*
X78398390Y-128246215D01*
X77527000Y-128246215D01*
X77527000Y-126997131D01*
X77772660Y-126997131D01*
X77799447Y-127577535D01*
X77970024Y-127989344D01*
X78218785Y-128066610D01*
X79065395Y-127220000D01*
X78218785Y-126373390D01*
X77970024Y-126450656D01*
X77772660Y-126997131D01*
X77527000Y-126997131D01*
X77527000Y-117452000D01*
X78100000Y-117452000D01*
X78149410Y-117441994D01*
X78152560Y-117439842D01*
X78152560Y-117500000D01*
X78196838Y-117735317D01*
X78335910Y-117951441D01*
X78405711Y-117999134D01*
X78348559Y-118035910D01*
X78203569Y-118248110D01*
X78152560Y-118500000D01*
X78152560Y-119700000D01*
X78196838Y-119935317D01*
X78335910Y-120151441D01*
X78513450Y-120272749D01*
X78513450Y-123402007D01*
X78418774Y-123441126D01*
X78007570Y-123851613D01*
X77784754Y-124388214D01*
X77784247Y-124969237D01*
X78006126Y-125506226D01*
X78416613Y-125917430D01*
X78479366Y-125943487D01*
X78475656Y-125945024D01*
X78398390Y-126193785D01*
X79245000Y-127040395D01*
X80091610Y-126193785D01*
X80014344Y-125945024D01*
X80010926Y-125943789D01*
X80071226Y-125918874D01*
X80482430Y-125508387D01*
X80514804Y-125430421D01*
X80546126Y-125506226D01*
X80956613Y-125917430D01*
X81034579Y-125949804D01*
X80958774Y-125981126D01*
X80547570Y-126391613D01*
X80521513Y-126454366D01*
X80519976Y-126450656D01*
X80271215Y-126373390D01*
X79424605Y-127220000D01*
X80271215Y-128066610D01*
X80519976Y-127989344D01*
X80521211Y-127985926D01*
X80546126Y-128046226D01*
X80956613Y-128457430D01*
X81493214Y-128680246D01*
X82074237Y-128680753D01*
X82611226Y-128458874D01*
X83022430Y-128048387D01*
X83054804Y-127970421D01*
X83086126Y-128046226D01*
X83496613Y-128457430D01*
X84033214Y-128680246D01*
X84614237Y-128680753D01*
X85151226Y-128458874D01*
X85562430Y-128048387D01*
X85594804Y-127970421D01*
X85626126Y-128046226D01*
X86036613Y-128457430D01*
X86573214Y-128680246D01*
X87154237Y-128680753D01*
X87691226Y-128458874D01*
X87904256Y-128246215D01*
X88558390Y-128246215D01*
X88635656Y-128494976D01*
X89182131Y-128692340D01*
X89762535Y-128665553D01*
X90174344Y-128494976D01*
X90251610Y-128246215D01*
X89405000Y-127399605D01*
X88558390Y-128246215D01*
X87904256Y-128246215D01*
X88102430Y-128048387D01*
X88128487Y-127985634D01*
X88130024Y-127989344D01*
X88378785Y-128066610D01*
X89225395Y-127220000D01*
X89584605Y-127220000D01*
X90431215Y-128066610D01*
X90679976Y-127989344D01*
X90877340Y-127442869D01*
X90865474Y-127185750D01*
X93265000Y-127185750D01*
X93265000Y-127626309D01*
X93361673Y-127859698D01*
X93540301Y-128038327D01*
X93773690Y-128135000D01*
X94064250Y-128135000D01*
X94223000Y-127976250D01*
X94223000Y-127027000D01*
X94477000Y-127027000D01*
X94477000Y-127976250D01*
X94635750Y-128135000D01*
X94926310Y-128135000D01*
X95159699Y-128038327D01*
X95338327Y-127859698D01*
X95435000Y-127626309D01*
X95435000Y-127185750D01*
X95276250Y-127027000D01*
X94477000Y-127027000D01*
X94223000Y-127027000D01*
X93423750Y-127027000D01*
X93265000Y-127185750D01*
X90865474Y-127185750D01*
X90850553Y-126862465D01*
X90679976Y-126450656D01*
X90431215Y-126373390D01*
X89584605Y-127220000D01*
X89225395Y-127220000D01*
X88378785Y-126373390D01*
X88130024Y-126450656D01*
X88128789Y-126454074D01*
X88103874Y-126393774D01*
X87693387Y-125982570D01*
X87615421Y-125950196D01*
X87691226Y-125918874D01*
X88102430Y-125508387D01*
X88134804Y-125430421D01*
X88166126Y-125506226D01*
X88576613Y-125917430D01*
X88639366Y-125943487D01*
X88635656Y-125945024D01*
X88558390Y-126193785D01*
X89405000Y-127040395D01*
X90251610Y-126193785D01*
X90174344Y-125945024D01*
X90170926Y-125943789D01*
X90231226Y-125918874D01*
X90642430Y-125508387D01*
X90672259Y-125436550D01*
X93278254Y-125436550D01*
X93296838Y-125535317D01*
X93435910Y-125751441D01*
X93504006Y-125797969D01*
X93361673Y-125940302D01*
X93265000Y-126173691D01*
X93265000Y-126614250D01*
X93423750Y-126773000D01*
X94223000Y-126773000D01*
X94223000Y-126753000D01*
X94477000Y-126753000D01*
X94477000Y-126773000D01*
X95276250Y-126773000D01*
X95435000Y-126614250D01*
X95435000Y-126173691D01*
X95338327Y-125940302D01*
X95197090Y-125799064D01*
X95251441Y-125764090D01*
X95396431Y-125551890D01*
X95447440Y-125300000D01*
X95447440Y-124100000D01*
X95403162Y-123864683D01*
X95264090Y-123648559D01*
X95051890Y-123503569D01*
X94800000Y-123452560D01*
X93900000Y-123452560D01*
X93664683Y-123496838D01*
X93448559Y-123635910D01*
X93303569Y-123848110D01*
X93280212Y-123963450D01*
X90689191Y-123963450D01*
X90643874Y-123853774D01*
X90233387Y-123442570D01*
X89696786Y-123219754D01*
X89115763Y-123219247D01*
X88578774Y-123441126D01*
X88167570Y-123851613D01*
X88135196Y-123929579D01*
X88103874Y-123853774D01*
X87693387Y-123442570D01*
X87156786Y-123219754D01*
X86575763Y-123219247D01*
X86336550Y-123318088D01*
X86336550Y-123305088D01*
X87555888Y-122085750D01*
X97615000Y-122085750D01*
X97615000Y-122301310D01*
X97711673Y-122534699D01*
X97890302Y-122713327D01*
X98123691Y-122810000D01*
X98564250Y-122810000D01*
X98723000Y-122651250D01*
X98723000Y-121927000D01*
X97773750Y-121927000D01*
X97615000Y-122085750D01*
X87555888Y-122085750D01*
X87556590Y-122085049D01*
X87695069Y-122085170D01*
X88057229Y-121935529D01*
X88334555Y-121658686D01*
X88484828Y-121296788D01*
X88485170Y-120904931D01*
X88335529Y-120542771D01*
X88058686Y-120265445D01*
X87696788Y-120115172D01*
X87304931Y-120114830D01*
X86942771Y-120264471D01*
X86665445Y-120541314D01*
X86515172Y-120903212D01*
X86515050Y-121043312D01*
X85079181Y-122479181D01*
X84919517Y-122718135D01*
X84863450Y-123000000D01*
X84863450Y-123322178D01*
X84616786Y-123219754D01*
X84035763Y-123219247D01*
X83943859Y-123257221D01*
X82861550Y-122174912D01*
X82861550Y-120270194D01*
X83026441Y-120164090D01*
X83171431Y-119951890D01*
X83222440Y-119700000D01*
X83222440Y-118500000D01*
X83178162Y-118264683D01*
X83039090Y-118048559D01*
X82969289Y-118000866D01*
X83026441Y-117964090D01*
X83171431Y-117751890D01*
X83222440Y-117500000D01*
X83222440Y-116300000D01*
X83178162Y-116064683D01*
X83039090Y-115848559D01*
X82826890Y-115703569D01*
X82575000Y-115652560D01*
X81675000Y-115652560D01*
X81439683Y-115696838D01*
X81223559Y-115835910D01*
X81109150Y-116003353D01*
X80896788Y-115915172D01*
X80504931Y-115914830D01*
X80269366Y-116012163D01*
X80164090Y-115848559D01*
X79951890Y-115703569D01*
X79700000Y-115652560D01*
X78800000Y-115652560D01*
X78564683Y-115696838D01*
X78348559Y-115835910D01*
X78227000Y-116013818D01*
X78227000Y-110875000D01*
X78216994Y-110825590D01*
X78188553Y-110783965D01*
X78146159Y-110756685D01*
X78100000Y-110748000D01*
X77527000Y-110748000D01*
X77527000Y-99310750D01*
X77690000Y-99310750D01*
X77690000Y-99751309D01*
X77786673Y-99984698D01*
X77965301Y-100163327D01*
X78198690Y-100260000D01*
X78414250Y-100260000D01*
X78573000Y-100101250D01*
X78573000Y-99152000D01*
X78827000Y-99152000D01*
X78827000Y-100101250D01*
X78985750Y-100260000D01*
X79201310Y-100260000D01*
X79434699Y-100163327D01*
X79613327Y-99984698D01*
X79650000Y-99896162D01*
X79686673Y-99984698D01*
X79865301Y-100163327D01*
X80098690Y-100260000D01*
X80314250Y-100260000D01*
X80473000Y-100101250D01*
X80473000Y-99152000D01*
X80727000Y-99152000D01*
X80727000Y-100101250D01*
X80885750Y-100260000D01*
X81101310Y-100260000D01*
X81334699Y-100163327D01*
X81513327Y-99984698D01*
X81550000Y-99896162D01*
X81586673Y-99984698D01*
X81765301Y-100163327D01*
X81998690Y-100260000D01*
X82214250Y-100260000D01*
X82373000Y-100101250D01*
X82373000Y-99152000D01*
X82627000Y-99152000D01*
X82627000Y-100101250D01*
X82785750Y-100260000D01*
X83001310Y-100260000D01*
X83234699Y-100163327D01*
X83413327Y-99984698D01*
X83510000Y-99751309D01*
X83510000Y-99310750D01*
X83351250Y-99152000D01*
X82627000Y-99152000D01*
X82373000Y-99152000D01*
X81648750Y-99152000D01*
X81550000Y-99250750D01*
X81451250Y-99152000D01*
X80727000Y-99152000D01*
X80473000Y-99152000D01*
X79748750Y-99152000D01*
X79650000Y-99250750D01*
X79551250Y-99152000D01*
X78827000Y-99152000D01*
X78573000Y-99152000D01*
X77848750Y-99152000D01*
X77690000Y-99310750D01*
X77527000Y-99310750D01*
X77527000Y-93085750D01*
X79315000Y-93085750D01*
X79315000Y-93301310D01*
X79411673Y-93534699D01*
X79590302Y-93713327D01*
X79823691Y-93810000D01*
X80264250Y-93810000D01*
X80423000Y-93651250D01*
X80423000Y-92927000D01*
X79473750Y-92927000D01*
X79315000Y-93085750D01*
X77527000Y-93085750D01*
X77527000Y-92298690D01*
X79315000Y-92298690D01*
X79315000Y-92514250D01*
X79473750Y-92673000D01*
X80423000Y-92673000D01*
X80423000Y-91948750D01*
X80264250Y-91790000D01*
X79823691Y-91790000D01*
X79590302Y-91886673D01*
X79411673Y-92065301D01*
X79315000Y-92298690D01*
X77527000Y-92298690D01*
X77527000Y-81477000D01*
X80913886Y-81477000D01*
X80830739Y-81598690D01*
X80830739Y-81598690D01*
G37*
X80830739Y-81598690D02*
X80779730Y-81850580D01*
X80779730Y-84349940D01*
X80824008Y-84585257D01*
X80963080Y-84801381D01*
X81175280Y-84946371D01*
X81427170Y-84997380D01*
X83426150Y-84997380D01*
X83661467Y-84953102D01*
X83877591Y-84814030D01*
X84022581Y-84601830D01*
X84073590Y-84349940D01*
X84073590Y-81850580D01*
X84029312Y-81615263D01*
X83940342Y-81477000D01*
X89910566Y-81477000D01*
X89827419Y-81598690D01*
X89776410Y-81850580D01*
X89776410Y-84349940D01*
X89820688Y-84585257D01*
X89959760Y-84801381D01*
X90171960Y-84946371D01*
X90423850Y-84997380D01*
X92422830Y-84997380D01*
X92658147Y-84953102D01*
X92874271Y-84814030D01*
X93019261Y-84601830D01*
X93070270Y-84349940D01*
X93070270Y-81850580D01*
X93025992Y-81615263D01*
X92937022Y-81477000D01*
X104823000Y-81477000D01*
X104823000Y-87750000D01*
X104833006Y-87799410D01*
X104861447Y-87841035D01*
X104903841Y-87868315D01*
X104950000Y-87877000D01*
X118350000Y-87877000D01*
X118399410Y-87866994D01*
X118441035Y-87838553D01*
X118468315Y-87796159D01*
X118477000Y-87750000D01*
X118477000Y-83564143D01*
X118851998Y-83564143D01*
X118852987Y-83568581D01*
X118852266Y-83573069D01*
X118879953Y-83689546D01*
X118906014Y-83806456D01*
X118908627Y-83810178D01*
X118909678Y-83814600D01*
X118979835Y-83911621D01*
X119048648Y-84009652D01*
X119052484Y-84012090D01*
X119055149Y-84015775D01*
X119150209Y-84104045D01*
X119090462Y-84263371D01*
X119075679Y-84353585D01*
X119051544Y-84441767D01*
X119026144Y-84799908D01*
X119029001Y-84822544D01*
X119024550Y-84844920D01*
X119024550Y-84931280D01*
X119029283Y-84955077D01*
X119026354Y-84979164D01*
X119046674Y-85248404D01*
X119069505Y-85330361D01*
X119081938Y-85414521D01*
X119145438Y-85592321D01*
X119205304Y-85692335D01*
X119221201Y-85720418D01*
X119217635Y-85723339D01*
X119188501Y-85735371D01*
X119122307Y-85801427D01*
X119049967Y-85860684D01*
X119035083Y-85888468D01*
X119012771Y-85910734D01*
X118976894Y-85997093D01*
X118932737Y-86079523D01*
X118929619Y-86110889D01*
X118917526Y-86139997D01*
X118902286Y-86216197D01*
X118902182Y-86315848D01*
X118894272Y-86415186D01*
X118902052Y-86439207D01*
X118902026Y-86464457D01*
X118940065Y-86556565D01*
X118970772Y-86651366D01*
X119067292Y-86824086D01*
X119109693Y-86873824D01*
X119142060Y-86930599D01*
X119357960Y-87179520D01*
X119363925Y-87184149D01*
X119367818Y-87190622D01*
X119393218Y-87218562D01*
X119410101Y-87231044D01*
X119422070Y-87248294D01*
X119643050Y-87461654D01*
X119679685Y-87485213D01*
X119709131Y-87517303D01*
X119851371Y-87621443D01*
X119887864Y-87638429D01*
X119918578Y-87664448D01*
X119999451Y-87690366D01*
X120076445Y-87726203D01*
X120116663Y-87727931D01*
X120154994Y-87740215D01*
X120243894Y-87750375D01*
X120292016Y-87746393D01*
X120339689Y-87754054D01*
X120414584Y-87736252D01*
X120491309Y-87729903D01*
X120507083Y-87721786D01*
X120563007Y-87741049D01*
X120587217Y-87739571D01*
X120610676Y-87745722D01*
X120710361Y-87732053D01*
X120810806Y-87725921D01*
X120832607Y-87715291D01*
X120856635Y-87711996D01*
X120860951Y-87710505D01*
X120903131Y-87719251D01*
X120973066Y-87745754D01*
X121023542Y-87744217D01*
X121072990Y-87754469D01*
X121146456Y-87740473D01*
X121221211Y-87738196D01*
X121267258Y-87717459D01*
X121287853Y-87713535D01*
X121342656Y-87723245D01*
X121408415Y-87747138D01*
X121463711Y-87744693D01*
X121518214Y-87754350D01*
X121586537Y-87739262D01*
X121656433Y-87736172D01*
X121706583Y-87712753D01*
X121760634Y-87700817D01*
X121782243Y-87691330D01*
X121824124Y-87705661D01*
X122032405Y-87733601D01*
X122056932Y-87732054D01*
X122102194Y-87743495D01*
X122399374Y-87758735D01*
X122415739Y-87756343D01*
X122431960Y-87759570D01*
X122757080Y-87759570D01*
X122770496Y-87756901D01*
X122784016Y-87759000D01*
X123083736Y-87746300D01*
X123108540Y-87740264D01*
X123133992Y-87742170D01*
X123362592Y-87714230D01*
X123445519Y-87686936D01*
X123447844Y-87686464D01*
X123483484Y-87705763D01*
X123521686Y-87709735D01*
X123557402Y-87723860D01*
X123644136Y-87722465D01*
X123730413Y-87731435D01*
X123839634Y-87721275D01*
X123894840Y-87704855D01*
X123956699Y-87699910D01*
X123990025Y-87682878D01*
X124026730Y-87675577D01*
X124053573Y-87657641D01*
X124077591Y-87650497D01*
X124118750Y-87617090D01*
X124177762Y-87586931D01*
X124264356Y-87518494D01*
X124276000Y-87520810D01*
X124372520Y-87520810D01*
X124435949Y-87508193D01*
X124500617Y-87507782D01*
X124556512Y-87484212D01*
X124616010Y-87472377D01*
X124669782Y-87436448D01*
X124729371Y-87411320D01*
X124804062Y-87360723D01*
X124873612Y-87315155D01*
X124911459Y-87277986D01*
X124956700Y-87250279D01*
X125190381Y-87034378D01*
X125200225Y-87020837D01*
X125214031Y-87011363D01*
X125417230Y-86803083D01*
X125427903Y-86786674D01*
X125443344Y-86774639D01*
X125588124Y-86606999D01*
X125608848Y-86570467D01*
X125638314Y-86540545D01*
X125696734Y-86451646D01*
X125740525Y-86343588D01*
X125786912Y-86236627D01*
X125787041Y-86228808D01*
X125789978Y-86221561D01*
X125789303Y-86133522D01*
X125795121Y-86111139D01*
X125789632Y-86071730D01*
X125791007Y-85988400D01*
X125785927Y-85960461D01*
X125772154Y-85925595D01*
X125823369Y-85873756D01*
X125842708Y-85844431D01*
X125869473Y-85821681D01*
X126024413Y-85626101D01*
X126060936Y-85554840D01*
X126107111Y-85489414D01*
X126168071Y-85352253D01*
X126193633Y-85238942D01*
X126222080Y-85126329D01*
X126220883Y-85118147D01*
X126222703Y-85110079D01*
X126202956Y-84995606D01*
X126186143Y-84880683D01*
X126145503Y-84766383D01*
X126125439Y-84732756D01*
X126115097Y-84694992D01*
X126008417Y-84481631D01*
X126000291Y-84471161D01*
X125996269Y-84458532D01*
X125848949Y-84191832D01*
X125841657Y-84183193D01*
X125841334Y-84182206D01*
X125700929Y-83932866D01*
X125615807Y-83764698D01*
X125601563Y-83729087D01*
X125624399Y-83696581D01*
X125694375Y-83600410D01*
X125695634Y-83595181D01*
X125698728Y-83590777D01*
X125724663Y-83474646D01*
X125752502Y-83359050D01*
X125755042Y-83295550D01*
X125750480Y-83266614D01*
X125754720Y-83237631D01*
X125731283Y-83144851D01*
X125716379Y-83050319D01*
X125701091Y-83025331D01*
X125693917Y-82996932D01*
X125620257Y-82841992D01*
X125579641Y-82787455D01*
X125549407Y-82726544D01*
X125412247Y-82548744D01*
X125375112Y-82516346D01*
X125346691Y-82476085D01*
X125194291Y-82331305D01*
X125106252Y-82275690D01*
X125021960Y-82214555D01*
X124900906Y-82158870D01*
X124890164Y-82152098D01*
X124790233Y-82058511D01*
X124596720Y-81850838D01*
X124566101Y-81828778D01*
X124542628Y-81799231D01*
X124466210Y-81756810D01*
X124395293Y-81705717D01*
X124358564Y-81697054D01*
X124325569Y-81678738D01*
X124238731Y-81668790D01*
X124153663Y-81648726D01*
X124116414Y-81654778D01*
X124078922Y-81650483D01*
X123994891Y-81674522D01*
X123908616Y-81688540D01*
X123876518Y-81708387D01*
X123840236Y-81718766D01*
X123771799Y-81773134D01*
X123697458Y-81819100D01*
X123675398Y-81849719D01*
X123645851Y-81873192D01*
X123589852Y-81939258D01*
X123563985Y-81920098D01*
X123516593Y-81869938D01*
X123465199Y-81846922D01*
X123419946Y-81813400D01*
X123352993Y-81796671D01*
X123290017Y-81768467D01*
X123201117Y-81748147D01*
X123180508Y-81747562D01*
X123161189Y-81740354D01*
X123057083Y-81744060D01*
X122952956Y-81741106D01*
X122933690Y-81748453D01*
X122913085Y-81749187D01*
X122818327Y-81792449D01*
X122720992Y-81829569D01*
X122706004Y-81843730D01*
X122687248Y-81852293D01*
X122578028Y-81931033D01*
X122519889Y-81993465D01*
X122454458Y-82048213D01*
X122286818Y-82256493D01*
X122273073Y-82282808D01*
X122252154Y-82303880D01*
X122216002Y-82392068D01*
X122171878Y-82476542D01*
X122171544Y-82480301D01*
X122167229Y-82478676D01*
X122068914Y-82435488D01*
X121827614Y-82382148D01*
X121771224Y-82380952D01*
X121716406Y-82367687D01*
X121345566Y-82352447D01*
X121332456Y-82354499D01*
X121319440Y-82351910D01*
X121240700Y-82351910D01*
X121229482Y-82354141D01*
X121218191Y-82352308D01*
X120931171Y-82362468D01*
X120872545Y-82376302D01*
X120812330Y-82377969D01*
X120611670Y-82423689D01*
X120526593Y-82461720D01*
X120445129Y-82488834D01*
X120406885Y-82453423D01*
X120395211Y-82441749D01*
X120339625Y-82404608D01*
X120291731Y-82357970D01*
X120146951Y-82263990D01*
X120075953Y-82235681D01*
X120010077Y-82196909D01*
X119961711Y-82190129D01*
X119916346Y-82172041D01*
X119839917Y-82173057D01*
X119764221Y-82162446D01*
X119675321Y-82167526D01*
X119595644Y-82188162D01*
X119513932Y-82197980D01*
X119476532Y-82219012D01*
X119434991Y-82229771D01*
X119369275Y-82279328D01*
X119297541Y-82319668D01*
X119271036Y-82353411D01*
X119236774Y-82379249D01*
X119195027Y-82450180D01*
X119144189Y-82514902D01*
X119132614Y-82556222D01*
X119110849Y-82593203D01*
X119099424Y-82674709D01*
X119077224Y-82753960D01*
X119072144Y-82820000D01*
X119082990Y-82910271D01*
X119084194Y-83001181D01*
X119097684Y-83032568D01*
X119098165Y-83036568D01*
X119027968Y-83110068D01*
X119025530Y-83113904D01*
X119021845Y-83116569D01*
X118959048Y-83218530D01*
X118894822Y-83319604D01*
X118894037Y-83324084D01*
X118891654Y-83327954D01*
X118872658Y-83446166D01*
X118851998Y-83564143D01*
X118477000Y-83564143D01*
X118477000Y-81477000D01*
X126373000Y-81477000D01*
X126373000Y-109223000D01*
X125238200Y-109223000D01*
X125238200Y-93550000D01*
X125174396Y-93229235D01*
X124992697Y-92957303D01*
X121842697Y-89807303D01*
X121570766Y-89625604D01*
X121250000Y-89561800D01*
X104357194Y-89561800D01*
X103825730Y-89030336D01*
X103908345Y-88615000D01*
X103782670Y-87983190D01*
X103555501Y-87643208D01*
X103692441Y-87555090D01*
X103837431Y-87342890D01*
X103888440Y-87091000D01*
X103888440Y-85059000D01*
X103844162Y-84823683D01*
X103705090Y-84607559D01*
X103492890Y-84462569D01*
X103241000Y-84411560D01*
X102961550Y-84411560D01*
X102961550Y-84375000D01*
X102913842Y-84135156D01*
X102905483Y-84093134D01*
X102745819Y-83854180D01*
X102220819Y-83329181D01*
X101981865Y-83169517D01*
X101964083Y-83165980D01*
X101700000Y-83113450D01*
X96500000Y-83113450D01*
X96285320Y-83156153D01*
X96218134Y-83169517D01*
X95979180Y-83329181D01*
X94404181Y-84904181D01*
X94244517Y-85143135D01*
X94188450Y-85425000D01*
X94188450Y-85654806D01*
X94023559Y-85760910D01*
X93878569Y-85973110D01*
X93850184Y-86113278D01*
X93707850Y-86141590D01*
X93693135Y-86144517D01*
X93454181Y-86304180D01*
X92879181Y-86879181D01*
X92872864Y-86888635D01*
X92674720Y-86753249D01*
X92422830Y-86702240D01*
X90423850Y-86702240D01*
X90315495Y-86722628D01*
X90462987Y-86367428D01*
X90463452Y-85834908D01*
X90260094Y-85342746D01*
X89883874Y-84965869D01*
X89392068Y-84761653D01*
X88859548Y-84761188D01*
X88367386Y-84964546D01*
X87990509Y-85340766D01*
X87786293Y-85832572D01*
X87785828Y-86365092D01*
X87925135Y-86702240D01*
X87473640Y-86702240D01*
X87318278Y-86731473D01*
X87173920Y-86702240D01*
X86676080Y-86702240D01*
X86520718Y-86731473D01*
X86376360Y-86702240D01*
X85924681Y-86702240D01*
X86063707Y-86367428D01*
X86064172Y-85834908D01*
X85860814Y-85342746D01*
X85484594Y-84965869D01*
X84992788Y-84761653D01*
X84460268Y-84761188D01*
X83968106Y-84964546D01*
X83591229Y-85340766D01*
X83387013Y-85832572D01*
X83386548Y-86365092D01*
X83525914Y-86702383D01*
X83525210Y-86702240D01*
X81526230Y-86702240D01*
X81290913Y-86746518D01*
X81074789Y-86885590D01*
X80929799Y-87097790D01*
X80878790Y-87349680D01*
X80878790Y-89849040D01*
X80923068Y-90084357D01*
X81062140Y-90300481D01*
X81274340Y-90445471D01*
X81526230Y-90496480D01*
X83525210Y-90496480D01*
X83760527Y-90452202D01*
X83976651Y-90313130D01*
X84121641Y-90100930D01*
X84172650Y-89849040D01*
X84172650Y-88885110D01*
X84443420Y-88885110D01*
X84443420Y-89975349D01*
X84540093Y-90208738D01*
X84718721Y-90387367D01*
X84952110Y-90484040D01*
X85044130Y-90484040D01*
X85202880Y-90325290D01*
X85202880Y-88726360D01*
X84602170Y-88726360D01*
X84443420Y-88885110D01*
X84172650Y-88885110D01*
X84172650Y-87349680D01*
X84166569Y-87317362D01*
X84443420Y-87432321D01*
X84443420Y-88313610D01*
X84602170Y-88472360D01*
X85202880Y-88472360D01*
X85202880Y-88452360D01*
X85231080Y-88452360D01*
X85231080Y-89849040D01*
X85275358Y-90084357D01*
X85414430Y-90300481D01*
X85454088Y-90327578D01*
X85610550Y-90484040D01*
X85702570Y-90484040D01*
X85740173Y-90468464D01*
X85878520Y-90496480D01*
X86188450Y-90496480D01*
X86188450Y-92744911D01*
X85917992Y-93015369D01*
X85754000Y-92982160D01*
X84484000Y-92982160D01*
X84415668Y-92995018D01*
X84380483Y-92818135D01*
X84380483Y-92818134D01*
X84220819Y-92579180D01*
X83920819Y-92279181D01*
X83681865Y-92119517D01*
X83597171Y-92102670D01*
X83514090Y-91973559D01*
X83301890Y-91828569D01*
X83050000Y-91777560D01*
X81850000Y-91777560D01*
X81614683Y-91821838D01*
X81511354Y-91888329D01*
X81509698Y-91886673D01*
X81276309Y-91790000D01*
X80835750Y-91790000D01*
X80677000Y-91948750D01*
X80677000Y-92673000D01*
X80697000Y-92673000D01*
X80697000Y-92927000D01*
X80677000Y-92927000D01*
X80677000Y-93651250D01*
X80835750Y-93810000D01*
X81276309Y-93810000D01*
X81509698Y-93713327D01*
X81511068Y-93711957D01*
X81598110Y-93771431D01*
X81850000Y-93822440D01*
X82963450Y-93822440D01*
X82963450Y-94550000D01*
X83008219Y-94775065D01*
X83019517Y-94831865D01*
X83179181Y-95070819D01*
X83731980Y-95623619D01*
X83970934Y-95783283D01*
X83997665Y-95788600D01*
X84024239Y-95793886D01*
X83887569Y-95993910D01*
X83883387Y-96014563D01*
X83849000Y-96048950D01*
X83849000Y-96118109D01*
X83858012Y-96139866D01*
X83836560Y-96245800D01*
X83449924Y-96245800D01*
X83339090Y-96073559D01*
X83126890Y-95928569D01*
X82875000Y-95877560D01*
X82125000Y-95877560D01*
X81889683Y-95921838D01*
X81673559Y-96060910D01*
X81548617Y-96243769D01*
X81439090Y-96073559D01*
X81226890Y-95928569D01*
X80975000Y-95877560D01*
X80225000Y-95877560D01*
X79989683Y-95921838D01*
X79773559Y-96060910D01*
X79648617Y-96243769D01*
X79545199Y-96083053D01*
X79684828Y-95746788D01*
X79685170Y-95354931D01*
X79535529Y-94992771D01*
X79258686Y-94715445D01*
X78896788Y-94565172D01*
X78504931Y-94564830D01*
X78142771Y-94714471D01*
X77865445Y-94991314D01*
X77715172Y-95353212D01*
X77714830Y-95745069D01*
X77855969Y-96086653D01*
X77728569Y-96273110D01*
X77677560Y-96525000D01*
X77677560Y-97725000D01*
X77721838Y-97960317D01*
X77788329Y-98063646D01*
X77786673Y-98065302D01*
X77690000Y-98298691D01*
X77690000Y-98739250D01*
X77848750Y-98898000D01*
X78573000Y-98898000D01*
X78573000Y-98878000D01*
X78827000Y-98878000D01*
X78827000Y-98898000D01*
X79551250Y-98898000D01*
X79650000Y-98799250D01*
X79748750Y-98898000D01*
X80473000Y-98898000D01*
X80473000Y-98878000D01*
X80727000Y-98878000D01*
X80727000Y-98898000D01*
X81451250Y-98898000D01*
X81550000Y-98799250D01*
X81648750Y-98898000D01*
X82373000Y-98898000D01*
X82373000Y-98878000D01*
X82627000Y-98878000D01*
X82627000Y-98898000D01*
X83351250Y-98898000D01*
X83510000Y-98739250D01*
X83510000Y-98298691D01*
X83413327Y-98065302D01*
X83411957Y-98063932D01*
X83471431Y-97976890D01*
X83482506Y-97922200D01*
X83889011Y-97922200D01*
X83887569Y-97924310D01*
X83876937Y-97976813D01*
X83849000Y-98004750D01*
X83849000Y-98073909D01*
X83854557Y-98087326D01*
X83836560Y-98176200D01*
X83836560Y-98582600D01*
X83861334Y-98714262D01*
X83836560Y-98836600D01*
X83836560Y-99243000D01*
X83861334Y-99374662D01*
X83836560Y-99497000D01*
X83836560Y-99903400D01*
X83853681Y-99994390D01*
X83849000Y-100005691D01*
X83849000Y-100074850D01*
X83873414Y-100099264D01*
X83880838Y-100138717D01*
X84019910Y-100354841D01*
X84022063Y-100356312D01*
X83945673Y-100432702D01*
X83898880Y-100545670D01*
X83849000Y-100595550D01*
X83849000Y-100664709D01*
X83849286Y-100665400D01*
X83849000Y-100666091D01*
X83849000Y-100735250D01*
X83898880Y-100785130D01*
X83945673Y-100898098D01*
X84034826Y-100987251D01*
X84032559Y-100988710D01*
X83887569Y-101200910D01*
X83883387Y-101221563D01*
X83849000Y-101255950D01*
X83849000Y-101325109D01*
X83858012Y-101346866D01*
X83836560Y-101452800D01*
X83836560Y-101859200D01*
X83858857Y-101977696D01*
X83836560Y-102087800D01*
X83836560Y-102494200D01*
X83880838Y-102729517D01*
X84019910Y-102945641D01*
X84180734Y-103055527D01*
X84140172Y-103153212D01*
X84139830Y-103545069D01*
X84289471Y-103907229D01*
X84566314Y-104184555D01*
X84928212Y-104334828D01*
X85320069Y-104335170D01*
X85682229Y-104185529D01*
X85959555Y-103908686D01*
X86109828Y-103546788D01*
X86110170Y-103154931D01*
X86065996Y-103048021D01*
X86205441Y-102958290D01*
X86350431Y-102746090D01*
X86401440Y-102494200D01*
X86401440Y-102087800D01*
X86379143Y-101969304D01*
X86401440Y-101859200D01*
X86401440Y-101452800D01*
X86381033Y-101344344D01*
X86389000Y-101325109D01*
X86389000Y-101255950D01*
X86358698Y-101225648D01*
X86357162Y-101217483D01*
X86218090Y-101001359D01*
X86200848Y-100989578D01*
X86292327Y-100898098D01*
X86339120Y-100785130D01*
X86389000Y-100735250D01*
X86389000Y-100666091D01*
X86388714Y-100665400D01*
X86389000Y-100664709D01*
X86389000Y-100595550D01*
X86339120Y-100545670D01*
X86292327Y-100432702D01*
X86214239Y-100354614D01*
X86350431Y-100155290D01*
X86361063Y-100102787D01*
X86389000Y-100074850D01*
X86389000Y-100005691D01*
X86383443Y-99992274D01*
X86401440Y-99903400D01*
X86401440Y-99776350D01*
X86696944Y-99776350D01*
X86696944Y-117091762D01*
X86729106Y-117253450D01*
X86753011Y-117373627D01*
X86912675Y-117612581D01*
X90387418Y-121087325D01*
X90626372Y-121246989D01*
X90660981Y-121253873D01*
X90908238Y-121303056D01*
X97483494Y-121303056D01*
X97624837Y-121274941D01*
X97615000Y-121298690D01*
X97615000Y-121514250D01*
X97773750Y-121673000D01*
X98723000Y-121673000D01*
X98723000Y-120948750D01*
X98564250Y-120790000D01*
X98301638Y-120790000D01*
X99645619Y-119446020D01*
X99726345Y-119325205D01*
X99797898Y-119253652D01*
X99797898Y-119387000D01*
X99886800Y-119387000D01*
X99886800Y-119575092D01*
X99740172Y-119928212D01*
X99739830Y-120320069D01*
X99886800Y-120675765D01*
X99886800Y-120839780D01*
X99811354Y-120888329D01*
X99809698Y-120886673D01*
X99576309Y-120790000D01*
X99135750Y-120790000D01*
X98977000Y-120948750D01*
X98977000Y-121673000D01*
X98997000Y-121673000D01*
X98997000Y-121927000D01*
X98977000Y-121927000D01*
X98977000Y-122651250D01*
X99135750Y-122810000D01*
X99576309Y-122810000D01*
X99809698Y-122713327D01*
X99811068Y-122711957D01*
X99898110Y-122771431D01*
X100150000Y-122822440D01*
X101350000Y-122822440D01*
X101585317Y-122778162D01*
X101767780Y-122660750D01*
X109615000Y-122660750D01*
X109615000Y-123501309D01*
X109711673Y-123734698D01*
X109890301Y-123913327D01*
X110123690Y-124010000D01*
X110764250Y-124010000D01*
X110923000Y-123851250D01*
X110923000Y-122502000D01*
X111177000Y-122502000D01*
X111177000Y-123851250D01*
X111335750Y-124010000D01*
X111976310Y-124010000D01*
X112209699Y-123913327D01*
X112388327Y-123734698D01*
X112485000Y-123501309D01*
X112485000Y-123479691D01*
X113297000Y-123479691D01*
X113297000Y-123828250D01*
X113455750Y-123987000D01*
X114821000Y-123987000D01*
X114821000Y-123129750D01*
X115075000Y-123129750D01*
X115075000Y-123987000D01*
X116440250Y-123987000D01*
X116599000Y-123828250D01*
X116599000Y-123479691D01*
X116502327Y-123246302D01*
X116323699Y-123067673D01*
X116090310Y-122971000D01*
X115233750Y-122971000D01*
X115075000Y-123129750D01*
X114821000Y-123129750D01*
X114662250Y-122971000D01*
X113805690Y-122971000D01*
X113572301Y-123067673D01*
X113393673Y-123246302D01*
X113297000Y-123479691D01*
X112485000Y-123479691D01*
X112485000Y-122660750D01*
X112326250Y-122502000D01*
X111177000Y-122502000D01*
X110923000Y-122502000D01*
X109773750Y-122502000D01*
X109615000Y-122660750D01*
X101767780Y-122660750D01*
X101801441Y-122639090D01*
X101946431Y-122426890D01*
X101997440Y-122175000D01*
X101997440Y-121425000D01*
X101953162Y-121189683D01*
X101814090Y-120973559D01*
X101601890Y-120828569D01*
X101563200Y-120820734D01*
X101563200Y-120674908D01*
X101657110Y-120448748D01*
X102701188Y-121492827D01*
X102940142Y-121652491D01*
X102963962Y-121657229D01*
X103222008Y-121708558D01*
X109189016Y-121708558D01*
X109470881Y-121652491D01*
X109615000Y-121556194D01*
X109615000Y-122089250D01*
X109773750Y-122248000D01*
X110923000Y-122248000D01*
X110923000Y-120898750D01*
X111177000Y-120898750D01*
X111177000Y-122248000D01*
X112326250Y-122248000D01*
X112485000Y-122089250D01*
X112485000Y-121660750D01*
X114690000Y-121660750D01*
X114690000Y-121876310D01*
X114786673Y-122109699D01*
X114965302Y-122288327D01*
X115198691Y-122385000D01*
X115639250Y-122385000D01*
X115798000Y-122226250D01*
X115798000Y-121502000D01*
X114848750Y-121502000D01*
X114690000Y-121660750D01*
X112485000Y-121660750D01*
X112485000Y-121248691D01*
X112388327Y-121015302D01*
X112246716Y-120873690D01*
X114690000Y-120873690D01*
X114690000Y-121089250D01*
X114848750Y-121248000D01*
X115798000Y-121248000D01*
X115798000Y-120523750D01*
X115639250Y-120365000D01*
X115198691Y-120365000D01*
X114965302Y-120461673D01*
X114786673Y-120640301D01*
X114690000Y-120873690D01*
X112246716Y-120873690D01*
X112209699Y-120836673D01*
X111976310Y-120740000D01*
X111335750Y-120740000D01*
X111177000Y-120898750D01*
X110923000Y-120898750D01*
X110764250Y-120740000D01*
X110462662Y-120740000D01*
X115966113Y-115236550D01*
X118009173Y-115236550D01*
X117907041Y-115750000D01*
X117963876Y-116035730D01*
X117232303Y-116767303D01*
X117050604Y-117039234D01*
X117031649Y-117134526D01*
X116986800Y-117360000D01*
X116986800Y-120398693D01*
X116886354Y-120463329D01*
X116884698Y-120461673D01*
X116651309Y-120365000D01*
X116210750Y-120365000D01*
X116052000Y-120523750D01*
X116052000Y-121248000D01*
X116072000Y-121248000D01*
X116072000Y-121502000D01*
X116052000Y-121502000D01*
X116052000Y-122226250D01*
X116210750Y-122385000D01*
X116651309Y-122385000D01*
X116884698Y-122288327D01*
X116886068Y-122286957D01*
X116973110Y-122346431D01*
X116986800Y-122349203D01*
X116986800Y-127352806D01*
X116500507Y-127839099D01*
X116428090Y-127726559D01*
X116215890Y-127581569D01*
X116027686Y-127543457D01*
X116199317Y-127511162D01*
X116415441Y-127372090D01*
X116560431Y-127159890D01*
X116611440Y-126908000D01*
X116611440Y-125892000D01*
X116567162Y-125656683D01*
X116428090Y-125440559D01*
X116215890Y-125295569D01*
X116025431Y-125257000D01*
X116090310Y-125257000D01*
X116323699Y-125160327D01*
X116502327Y-124981698D01*
X116599000Y-124748309D01*
X116599000Y-124399750D01*
X116440250Y-124241000D01*
X115075000Y-124241000D01*
X115075000Y-124261000D01*
X114821000Y-124261000D01*
X114821000Y-124241000D01*
X113455750Y-124241000D01*
X113297000Y-124399750D01*
X113297000Y-124748309D01*
X113393673Y-124981698D01*
X113572301Y-125160327D01*
X113805690Y-125257000D01*
X113865887Y-125257000D01*
X113696683Y-125288838D01*
X113480559Y-125427910D01*
X113408046Y-125534037D01*
X113121788Y-125415172D01*
X112729931Y-125414830D01*
X112497440Y-125510893D01*
X112497440Y-125375000D01*
X112453162Y-125139683D01*
X112314090Y-124923559D01*
X112101890Y-124778569D01*
X111850000Y-124727560D01*
X110250000Y-124727560D01*
X110014683Y-124771838D01*
X109798559Y-124910910D01*
X109653569Y-125123110D01*
X109602560Y-125375000D01*
X109602560Y-127375000D01*
X109646838Y-127610317D01*
X109785910Y-127826441D01*
X109998110Y-127971431D01*
X110250000Y-128022440D01*
X111850000Y-128022440D01*
X112085317Y-127978162D01*
X112301441Y-127839090D01*
X112446431Y-127626890D01*
X112497440Y-127375000D01*
X112497440Y-127289003D01*
X112728212Y-127384828D01*
X113120069Y-127385170D01*
X113407930Y-127266229D01*
X113467910Y-127359441D01*
X113680110Y-127504431D01*
X113868314Y-127542543D01*
X113696683Y-127574838D01*
X113480559Y-127713910D01*
X113335569Y-127926110D01*
X113284560Y-128178000D01*
X113284560Y-129194000D01*
X113328838Y-129429317D01*
X113467910Y-129645441D01*
X113680110Y-129790431D01*
X113932000Y-129841440D01*
X115964000Y-129841440D01*
X116199317Y-129797162D01*
X116415441Y-129658090D01*
X116506924Y-129524200D01*
X116839000Y-129524200D01*
X117159766Y-129460396D01*
X117431697Y-129278697D01*
X118417697Y-128292697D01*
X118599396Y-128020765D01*
X118663200Y-127700000D01*
X118663200Y-124571200D01*
X119888560Y-124571200D01*
X119888560Y-128228800D01*
X119932838Y-128464117D01*
X120071910Y-128680241D01*
X120284110Y-128825231D01*
X120536000Y-128876240D01*
X122568000Y-128876240D01*
X122803317Y-128831962D01*
X123019441Y-128692890D01*
X123164431Y-128480690D01*
X123215440Y-128228800D01*
X123215440Y-124571200D01*
X123171162Y-124335883D01*
X123032090Y-124119759D01*
X122819890Y-123974769D01*
X122568000Y-123923760D01*
X120536000Y-123923760D01*
X120300683Y-123968038D01*
X120084559Y-124107110D01*
X119939569Y-124319310D01*
X119888560Y-124571200D01*
X118663200Y-124571200D01*
X118663200Y-122351307D01*
X118876441Y-122214090D01*
X119021431Y-122001890D01*
X119072440Y-121750000D01*
X119072440Y-121000000D01*
X119028162Y-120764683D01*
X118889090Y-120548559D01*
X118676890Y-120403569D01*
X118663200Y-120400797D01*
X118663200Y-118538200D01*
X120556838Y-118538200D01*
X120507559Y-118569910D01*
X120362569Y-118782110D01*
X120311560Y-119034000D01*
X120311560Y-121066000D01*
X120355838Y-121301317D01*
X120494910Y-121517441D01*
X120707110Y-121662431D01*
X120959000Y-121713440D01*
X122991000Y-121713440D01*
X123226317Y-121669162D01*
X123442441Y-121530090D01*
X123544198Y-121381163D01*
X123883190Y-121607670D01*
X124515000Y-121733345D01*
X125146810Y-121607670D01*
X125682433Y-121249778D01*
X126040325Y-120714155D01*
X126166000Y-120082345D01*
X126166000Y-120017655D01*
X126040325Y-119385845D01*
X125682433Y-118850222D01*
X125146810Y-118492330D01*
X124515000Y-118366655D01*
X123883190Y-118492330D01*
X123543208Y-118719499D01*
X123455090Y-118582559D01*
X123381111Y-118532012D01*
X123670766Y-118474396D01*
X123942697Y-118292697D01*
X124725205Y-117510189D01*
X124723000Y-118299645D01*
X124732868Y-118349083D01*
X124761193Y-118390787D01*
X124803511Y-118418185D01*
X124850000Y-118427000D01*
X126373000Y-118427000D01*
X126373000Y-130298000D01*
X77527000Y-130298000D01*
X77527000Y-128246215D01*
X78398390Y-128246215D01*
X78475656Y-128494976D01*
X79022131Y-128692340D01*
X79602535Y-128665553D01*
X80014344Y-128494976D01*
X80091610Y-128246215D01*
X79245000Y-127399605D01*
X78398390Y-128246215D01*
X77527000Y-128246215D01*
X77527000Y-126997131D01*
X77772660Y-126997131D01*
X77799447Y-127577535D01*
X77970024Y-127989344D01*
X78218785Y-128066610D01*
X79065395Y-127220000D01*
X78218785Y-126373390D01*
X77970024Y-126450656D01*
X77772660Y-126997131D01*
X77527000Y-126997131D01*
X77527000Y-117452000D01*
X78100000Y-117452000D01*
X78149410Y-117441994D01*
X78152560Y-117439842D01*
X78152560Y-117500000D01*
X78196838Y-117735317D01*
X78335910Y-117951441D01*
X78405711Y-117999134D01*
X78348559Y-118035910D01*
X78203569Y-118248110D01*
X78152560Y-118500000D01*
X78152560Y-119700000D01*
X78196838Y-119935317D01*
X78335910Y-120151441D01*
X78513450Y-120272749D01*
X78513450Y-123402007D01*
X78418774Y-123441126D01*
X78007570Y-123851613D01*
X77784754Y-124388214D01*
X77784247Y-124969237D01*
X78006126Y-125506226D01*
X78416613Y-125917430D01*
X78479366Y-125943487D01*
X78475656Y-125945024D01*
X78398390Y-126193785D01*
X79245000Y-127040395D01*
X80091610Y-126193785D01*
X80014344Y-125945024D01*
X80010926Y-125943789D01*
X80071226Y-125918874D01*
X80482430Y-125508387D01*
X80514804Y-125430421D01*
X80546126Y-125506226D01*
X80956613Y-125917430D01*
X81034579Y-125949804D01*
X80958774Y-125981126D01*
X80547570Y-126391613D01*
X80521513Y-126454366D01*
X80519976Y-126450656D01*
X80271215Y-126373390D01*
X79424605Y-127220000D01*
X80271215Y-128066610D01*
X80519976Y-127989344D01*
X80521211Y-127985926D01*
X80546126Y-128046226D01*
X80956613Y-128457430D01*
X81493214Y-128680246D01*
X82074237Y-128680753D01*
X82611226Y-128458874D01*
X83022430Y-128048387D01*
X83054804Y-127970421D01*
X83086126Y-128046226D01*
X83496613Y-128457430D01*
X84033214Y-128680246D01*
X84614237Y-128680753D01*
X85151226Y-128458874D01*
X85562430Y-128048387D01*
X85594804Y-127970421D01*
X85626126Y-128046226D01*
X86036613Y-128457430D01*
X86573214Y-128680246D01*
X87154237Y-128680753D01*
X87691226Y-128458874D01*
X87904256Y-128246215D01*
X88558390Y-128246215D01*
X88635656Y-128494976D01*
X89182131Y-128692340D01*
X89762535Y-128665553D01*
X90174344Y-128494976D01*
X90251610Y-128246215D01*
X89405000Y-127399605D01*
X88558390Y-128246215D01*
X87904256Y-128246215D01*
X88102430Y-128048387D01*
X88128487Y-127985634D01*
X88130024Y-127989344D01*
X88378785Y-128066610D01*
X89225395Y-127220000D01*
X89584605Y-127220000D01*
X90431215Y-128066610D01*
X90679976Y-127989344D01*
X90877340Y-127442869D01*
X90865474Y-127185750D01*
X93265000Y-127185750D01*
X93265000Y-127626309D01*
X93361673Y-127859698D01*
X93540301Y-128038327D01*
X93773690Y-128135000D01*
X94064250Y-128135000D01*
X94223000Y-127976250D01*
X94223000Y-127027000D01*
X94477000Y-127027000D01*
X94477000Y-127976250D01*
X94635750Y-128135000D01*
X94926310Y-128135000D01*
X95159699Y-128038327D01*
X95338327Y-127859698D01*
X95435000Y-127626309D01*
X95435000Y-127185750D01*
X95276250Y-127027000D01*
X94477000Y-127027000D01*
X94223000Y-127027000D01*
X93423750Y-127027000D01*
X93265000Y-127185750D01*
X90865474Y-127185750D01*
X90850553Y-126862465D01*
X90679976Y-126450656D01*
X90431215Y-126373390D01*
X89584605Y-127220000D01*
X89225395Y-127220000D01*
X88378785Y-126373390D01*
X88130024Y-126450656D01*
X88128789Y-126454074D01*
X88103874Y-126393774D01*
X87693387Y-125982570D01*
X87615421Y-125950196D01*
X87691226Y-125918874D01*
X88102430Y-125508387D01*
X88134804Y-125430421D01*
X88166126Y-125506226D01*
X88576613Y-125917430D01*
X88639366Y-125943487D01*
X88635656Y-125945024D01*
X88558390Y-126193785D01*
X89405000Y-127040395D01*
X90251610Y-126193785D01*
X90174344Y-125945024D01*
X90170926Y-125943789D01*
X90231226Y-125918874D01*
X90642430Y-125508387D01*
X90672259Y-125436550D01*
X93278254Y-125436550D01*
X93296838Y-125535317D01*
X93435910Y-125751441D01*
X93504006Y-125797969D01*
X93361673Y-125940302D01*
X93265000Y-126173691D01*
X93265000Y-126614250D01*
X93423750Y-126773000D01*
X94223000Y-126773000D01*
X94223000Y-126753000D01*
X94477000Y-126753000D01*
X94477000Y-126773000D01*
X95276250Y-126773000D01*
X95435000Y-126614250D01*
X95435000Y-126173691D01*
X95338327Y-125940302D01*
X95197090Y-125799064D01*
X95251441Y-125764090D01*
X95396431Y-125551890D01*
X95447440Y-125300000D01*
X95447440Y-124100000D01*
X95403162Y-123864683D01*
X95264090Y-123648559D01*
X95051890Y-123503569D01*
X94800000Y-123452560D01*
X93900000Y-123452560D01*
X93664683Y-123496838D01*
X93448559Y-123635910D01*
X93303569Y-123848110D01*
X93280212Y-123963450D01*
X90689191Y-123963450D01*
X90643874Y-123853774D01*
X90233387Y-123442570D01*
X89696786Y-123219754D01*
X89115763Y-123219247D01*
X88578774Y-123441126D01*
X88167570Y-123851613D01*
X88135196Y-123929579D01*
X88103874Y-123853774D01*
X87693387Y-123442570D01*
X87156786Y-123219754D01*
X86575763Y-123219247D01*
X86336550Y-123318088D01*
X86336550Y-123305088D01*
X87555888Y-122085750D01*
X97615000Y-122085750D01*
X97615000Y-122301310D01*
X97711673Y-122534699D01*
X97890302Y-122713327D01*
X98123691Y-122810000D01*
X98564250Y-122810000D01*
X98723000Y-122651250D01*
X98723000Y-121927000D01*
X97773750Y-121927000D01*
X97615000Y-122085750D01*
X87555888Y-122085750D01*
X87556590Y-122085049D01*
X87695069Y-122085170D01*
X88057229Y-121935529D01*
X88334555Y-121658686D01*
X88484828Y-121296788D01*
X88485170Y-120904931D01*
X88335529Y-120542771D01*
X88058686Y-120265445D01*
X87696788Y-120115172D01*
X87304931Y-120114830D01*
X86942771Y-120264471D01*
X86665445Y-120541314D01*
X86515172Y-120903212D01*
X86515050Y-121043312D01*
X85079181Y-122479181D01*
X84919517Y-122718135D01*
X84863450Y-123000000D01*
X84863450Y-123322178D01*
X84616786Y-123219754D01*
X84035763Y-123219247D01*
X83943859Y-123257221D01*
X82861550Y-122174912D01*
X82861550Y-120270194D01*
X83026441Y-120164090D01*
X83171431Y-119951890D01*
X83222440Y-119700000D01*
X83222440Y-118500000D01*
X83178162Y-118264683D01*
X83039090Y-118048559D01*
X82969289Y-118000866D01*
X83026441Y-117964090D01*
X83171431Y-117751890D01*
X83222440Y-117500000D01*
X83222440Y-116300000D01*
X83178162Y-116064683D01*
X83039090Y-115848559D01*
X82826890Y-115703569D01*
X82575000Y-115652560D01*
X81675000Y-115652560D01*
X81439683Y-115696838D01*
X81223559Y-115835910D01*
X81109150Y-116003353D01*
X80896788Y-115915172D01*
X80504931Y-115914830D01*
X80269366Y-116012163D01*
X80164090Y-115848559D01*
X79951890Y-115703569D01*
X79700000Y-115652560D01*
X78800000Y-115652560D01*
X78564683Y-115696838D01*
X78348559Y-115835910D01*
X78227000Y-116013818D01*
X78227000Y-110875000D01*
X78216994Y-110825590D01*
X78188553Y-110783965D01*
X78146159Y-110756685D01*
X78100000Y-110748000D01*
X77527000Y-110748000D01*
X77527000Y-99310750D01*
X77690000Y-99310750D01*
X77690000Y-99751309D01*
X77786673Y-99984698D01*
X77965301Y-100163327D01*
X78198690Y-100260000D01*
X78414250Y-100260000D01*
X78573000Y-100101250D01*
X78573000Y-99152000D01*
X78827000Y-99152000D01*
X78827000Y-100101250D01*
X78985750Y-100260000D01*
X79201310Y-100260000D01*
X79434699Y-100163327D01*
X79613327Y-99984698D01*
X79650000Y-99896162D01*
X79686673Y-99984698D01*
X79865301Y-100163327D01*
X80098690Y-100260000D01*
X80314250Y-100260000D01*
X80473000Y-100101250D01*
X80473000Y-99152000D01*
X80727000Y-99152000D01*
X80727000Y-100101250D01*
X80885750Y-100260000D01*
X81101310Y-100260000D01*
X81334699Y-100163327D01*
X81513327Y-99984698D01*
X81550000Y-99896162D01*
X81586673Y-99984698D01*
X81765301Y-100163327D01*
X81998690Y-100260000D01*
X82214250Y-100260000D01*
X82373000Y-100101250D01*
X82373000Y-99152000D01*
X82627000Y-99152000D01*
X82627000Y-100101250D01*
X82785750Y-100260000D01*
X83001310Y-100260000D01*
X83234699Y-100163327D01*
X83413327Y-99984698D01*
X83510000Y-99751309D01*
X83510000Y-99310750D01*
X83351250Y-99152000D01*
X82627000Y-99152000D01*
X82373000Y-99152000D01*
X81648750Y-99152000D01*
X81550000Y-99250750D01*
X81451250Y-99152000D01*
X80727000Y-99152000D01*
X80473000Y-99152000D01*
X79748750Y-99152000D01*
X79650000Y-99250750D01*
X79551250Y-99152000D01*
X78827000Y-99152000D01*
X78573000Y-99152000D01*
X77848750Y-99152000D01*
X77690000Y-99310750D01*
X77527000Y-99310750D01*
X77527000Y-93085750D01*
X79315000Y-93085750D01*
X79315000Y-93301310D01*
X79411673Y-93534699D01*
X79590302Y-93713327D01*
X79823691Y-93810000D01*
X80264250Y-93810000D01*
X80423000Y-93651250D01*
X80423000Y-92927000D01*
X79473750Y-92927000D01*
X79315000Y-93085750D01*
X77527000Y-93085750D01*
X77527000Y-92298690D01*
X79315000Y-92298690D01*
X79315000Y-92514250D01*
X79473750Y-92673000D01*
X80423000Y-92673000D01*
X80423000Y-91948750D01*
X80264250Y-91790000D01*
X79823691Y-91790000D01*
X79590302Y-91886673D01*
X79411673Y-92065301D01*
X79315000Y-92298690D01*
X77527000Y-92298690D01*
X77527000Y-81477000D01*
X80913886Y-81477000D01*
X80830739Y-81598690D01*
G36*
X108294912Y-118813450D02*
X105563696Y-118813450D01*
X105576140Y-118752000D01*
X105576140Y-117228000D01*
X105552179Y-117100661D01*
X105678000Y-117126140D01*
X107202000Y-117126140D01*
X107437317Y-117081862D01*
X107545808Y-117012050D01*
X110096312Y-117012050D01*
X108294912Y-118813450D01*
X108294912Y-118813450D01*
G37*
X108294912Y-118813450D02*
X105563696Y-118813450D01*
X105576140Y-118752000D01*
X105576140Y-117228000D01*
X105552179Y-117100661D01*
X105678000Y-117126140D01*
X107202000Y-117126140D01*
X107437317Y-117081862D01*
X107545808Y-117012050D01*
X110096312Y-117012050D01*
X108294912Y-118813450D01*
G36*
X89713450Y-109113357D02*
X89713450Y-113762300D01*
X89652000Y-113823750D01*
X89652000Y-114548000D01*
X89672000Y-114548000D01*
X89672000Y-114802000D01*
X89652000Y-114802000D01*
X89652000Y-115526250D01*
X89810750Y-115685000D01*
X89838430Y-115685000D01*
X89929181Y-115820819D01*
X90104580Y-115996219D01*
X90343534Y-116155883D01*
X90390299Y-116165185D01*
X90625400Y-116211950D01*
X93903788Y-116211950D01*
X93996110Y-116275031D01*
X94248000Y-116326040D01*
X95772000Y-116326040D01*
X96007317Y-116281762D01*
X96174939Y-116173900D01*
X96248250Y-116173900D01*
X96407000Y-116015150D01*
X96407000Y-115945990D01*
X96378987Y-115878361D01*
X96419440Y-115678600D01*
X96419440Y-115513500D01*
X98828106Y-115513500D01*
X99886800Y-116572194D01*
X99886800Y-116593000D01*
X99797898Y-116593000D01*
X99797898Y-116726348D01*
X99664550Y-116593000D01*
X99595391Y-116593000D01*
X99527762Y-116621013D01*
X99328000Y-116580560D01*
X98921600Y-116580560D01*
X98717523Y-116618960D01*
X98527900Y-116580560D01*
X98121500Y-116580560D01*
X97917423Y-116618960D01*
X97727800Y-116580560D01*
X97321400Y-116580560D01*
X97117323Y-116618960D01*
X96927700Y-116580560D01*
X96521300Y-116580560D01*
X96407000Y-116602067D01*
X96407000Y-116535850D01*
X96248250Y-116377100D01*
X95137000Y-116377100D01*
X95137000Y-116954950D01*
X95295750Y-117113700D01*
X95897006Y-117113700D01*
X95873860Y-117228000D01*
X95873860Y-118734502D01*
X95844912Y-118763450D01*
X91655089Y-118763450D01*
X89427489Y-116535850D01*
X93613000Y-116535850D01*
X93613000Y-116605010D01*
X93709673Y-116838399D01*
X93888302Y-117017027D01*
X94121691Y-117113700D01*
X94724250Y-117113700D01*
X94883000Y-116954950D01*
X94883000Y-116377100D01*
X93771750Y-116377100D01*
X93613000Y-116535850D01*
X89427489Y-116535850D01*
X89236550Y-116344912D01*
X89236550Y-115685000D01*
X89239250Y-115685000D01*
X89398000Y-115526250D01*
X89398000Y-114802000D01*
X89378000Y-114802000D01*
X89378000Y-114548000D01*
X89398000Y-114548000D01*
X89398000Y-113823750D01*
X89239250Y-113665000D01*
X89236550Y-113665000D01*
X89236550Y-108636457D01*
X89713450Y-109113357D01*
X89713450Y-109113357D01*
G37*
X89713450Y-109113357D02*
X89713450Y-113762300D01*
X89652000Y-113823750D01*
X89652000Y-114548000D01*
X89672000Y-114548000D01*
X89672000Y-114802000D01*
X89652000Y-114802000D01*
X89652000Y-115526250D01*
X89810750Y-115685000D01*
X89838430Y-115685000D01*
X89929181Y-115820819D01*
X90104580Y-115996219D01*
X90343534Y-116155883D01*
X90390299Y-116165185D01*
X90625400Y-116211950D01*
X93903788Y-116211950D01*
X93996110Y-116275031D01*
X94248000Y-116326040D01*
X95772000Y-116326040D01*
X96007317Y-116281762D01*
X96174939Y-116173900D01*
X96248250Y-116173900D01*
X96407000Y-116015150D01*
X96407000Y-115945990D01*
X96378987Y-115878361D01*
X96419440Y-115678600D01*
X96419440Y-115513500D01*
X98828106Y-115513500D01*
X99886800Y-116572194D01*
X99886800Y-116593000D01*
X99797898Y-116593000D01*
X99797898Y-116726348D01*
X99664550Y-116593000D01*
X99595391Y-116593000D01*
X99527762Y-116621013D01*
X99328000Y-116580560D01*
X98921600Y-116580560D01*
X98717523Y-116618960D01*
X98527900Y-116580560D01*
X98121500Y-116580560D01*
X97917423Y-116618960D01*
X97727800Y-116580560D01*
X97321400Y-116580560D01*
X97117323Y-116618960D01*
X96927700Y-116580560D01*
X96521300Y-116580560D01*
X96407000Y-116602067D01*
X96407000Y-116535850D01*
X96248250Y-116377100D01*
X95137000Y-116377100D01*
X95137000Y-116954950D01*
X95295750Y-117113700D01*
X95897006Y-117113700D01*
X95873860Y-117228000D01*
X95873860Y-118734502D01*
X95844912Y-118763450D01*
X91655089Y-118763450D01*
X89427489Y-116535850D01*
X93613000Y-116535850D01*
X93613000Y-116605010D01*
X93709673Y-116838399D01*
X93888302Y-117017027D01*
X94121691Y-117113700D01*
X94724250Y-117113700D01*
X94883000Y-116954950D01*
X94883000Y-116377100D01*
X93771750Y-116377100D01*
X93613000Y-116535850D01*
X89427489Y-116535850D01*
X89236550Y-116344912D01*
X89236550Y-115685000D01*
X89239250Y-115685000D01*
X89398000Y-115526250D01*
X89398000Y-114802000D01*
X89378000Y-114802000D01*
X89378000Y-114548000D01*
X89398000Y-114548000D01*
X89398000Y-113823750D01*
X89239250Y-113665000D01*
X89236550Y-113665000D01*
X89236550Y-108636457D01*
X89713450Y-109113357D01*
G36*
X103226900Y-107724939D02*
X103226900Y-107798250D01*
X103385650Y-107957000D01*
X103454809Y-107957000D01*
X103522438Y-107928987D01*
X103722200Y-107969440D01*
X104128600Y-107969440D01*
X104332677Y-107931040D01*
X104522300Y-107969440D01*
X104928700Y-107969440D01*
X105056039Y-107945479D01*
X105030560Y-108071300D01*
X105030560Y-108338050D01*
X103325400Y-108338050D01*
X103043535Y-108394117D01*
X102804581Y-108553780D01*
X102093411Y-109264951D01*
X101954931Y-109264830D01*
X101592771Y-109414471D01*
X101315445Y-109691314D01*
X101165172Y-110053212D01*
X101164830Y-110445069D01*
X101314471Y-110807229D01*
X101591314Y-111084555D01*
X101953212Y-111234828D01*
X102345069Y-111235170D01*
X102707229Y-111085529D01*
X102984555Y-110808686D01*
X103134828Y-110446788D01*
X103134950Y-110306688D01*
X103630489Y-109811150D01*
X105030560Y-109811150D01*
X105030560Y-110077900D01*
X105069043Y-110282418D01*
X105043000Y-110345290D01*
X105043000Y-110414450D01*
X105201750Y-110573200D01*
X105278100Y-110573200D01*
X105426110Y-110674331D01*
X105431868Y-110675497D01*
X105275061Y-110776400D01*
X105201750Y-110776400D01*
X105043000Y-110935150D01*
X105043000Y-111004310D01*
X105071013Y-111071939D01*
X105030560Y-111271700D01*
X105030560Y-111678100D01*
X105068960Y-111882177D01*
X105030560Y-112071800D01*
X105030560Y-112478200D01*
X105068960Y-112682277D01*
X105030560Y-112871900D01*
X105030560Y-113138650D01*
X102680289Y-113138650D01*
X102585049Y-113043411D01*
X102585170Y-112904931D01*
X102435529Y-112542771D01*
X102158686Y-112265445D01*
X101796788Y-112115172D01*
X101404931Y-112114830D01*
X101042771Y-112264471D01*
X100765445Y-112541314D01*
X100615172Y-112903212D01*
X100614830Y-113295069D01*
X100764471Y-113657229D01*
X101041314Y-113934555D01*
X101403212Y-114084828D01*
X101543312Y-114084950D01*
X101854380Y-114396019D01*
X102093334Y-114555683D01*
X102132387Y-114563451D01*
X102375200Y-114611750D01*
X105030560Y-114611750D01*
X105030560Y-114878500D01*
X105069043Y-115083018D01*
X105043000Y-115145890D01*
X105043000Y-115215050D01*
X105201750Y-115373800D01*
X105278100Y-115373800D01*
X105426110Y-115474931D01*
X105431868Y-115476097D01*
X105275061Y-115577000D01*
X105201750Y-115577000D01*
X105043000Y-115735750D01*
X105043000Y-115804910D01*
X105071013Y-115872539D01*
X105030560Y-116072300D01*
X105030560Y-116478700D01*
X105054521Y-116606039D01*
X104928700Y-116580560D01*
X104522300Y-116580560D01*
X104318223Y-116618960D01*
X104128600Y-116580560D01*
X103722200Y-116580560D01*
X103518123Y-116618960D01*
X103328500Y-116580560D01*
X102922100Y-116580560D01*
X102718023Y-116618960D01*
X102528400Y-116580560D01*
X102122000Y-116580560D01*
X101917923Y-116618960D01*
X101728300Y-116580560D01*
X101563200Y-116580560D01*
X101563200Y-116225000D01*
X101499396Y-115904235D01*
X101317697Y-115632303D01*
X99767997Y-114082603D01*
X99496066Y-113900904D01*
X99175300Y-113837100D01*
X97555830Y-113837100D01*
X97734555Y-113658686D01*
X97884828Y-113296788D01*
X97885170Y-112904931D01*
X97735529Y-112542771D01*
X97458686Y-112265445D01*
X97096788Y-112115172D01*
X96704931Y-112114830D01*
X96419440Y-112232792D01*
X96419440Y-112071800D01*
X96381040Y-111867723D01*
X96419440Y-111678100D01*
X96419440Y-111271700D01*
X96380957Y-111067182D01*
X96407000Y-111004310D01*
X96407000Y-110935150D01*
X96248250Y-110776400D01*
X96171900Y-110776400D01*
X96023890Y-110675269D01*
X96018132Y-110674103D01*
X96174939Y-110573200D01*
X96248250Y-110573200D01*
X96407000Y-110414450D01*
X96407000Y-110345290D01*
X96378987Y-110277661D01*
X96419440Y-110077900D01*
X96419440Y-109671500D01*
X96381040Y-109467423D01*
X96419440Y-109277800D01*
X96419440Y-108871400D01*
X96381040Y-108667323D01*
X96419440Y-108477700D01*
X96419440Y-108071300D01*
X96395479Y-107943961D01*
X96521300Y-107969440D01*
X96927700Y-107969440D01*
X97131777Y-107931040D01*
X97321400Y-107969440D01*
X97727800Y-107969440D01*
X97931877Y-107931040D01*
X98121500Y-107969440D01*
X98527900Y-107969440D01*
X98731977Y-107931040D01*
X98921600Y-107969440D01*
X99328000Y-107969440D01*
X99532077Y-107931040D01*
X99721700Y-107969440D01*
X100128100Y-107969440D01*
X100332177Y-107931040D01*
X100521800Y-107969440D01*
X100928200Y-107969440D01*
X101132277Y-107931040D01*
X101321900Y-107969440D01*
X101728300Y-107969440D01*
X101932377Y-107931040D01*
X102122000Y-107969440D01*
X102528400Y-107969440D01*
X102732918Y-107930957D01*
X102795791Y-107957000D01*
X102864950Y-107957000D01*
X103023700Y-107798250D01*
X103023700Y-107721900D01*
X103124831Y-107573890D01*
X103125997Y-107568132D01*
X103226900Y-107724939D01*
X103226900Y-107724939D01*
G37*
X103226900Y-107724939D02*
X103226900Y-107798250D01*
X103385650Y-107957000D01*
X103454809Y-107957000D01*
X103522438Y-107928987D01*
X103722200Y-107969440D01*
X104128600Y-107969440D01*
X104332677Y-107931040D01*
X104522300Y-107969440D01*
X104928700Y-107969440D01*
X105056039Y-107945479D01*
X105030560Y-108071300D01*
X105030560Y-108338050D01*
X103325400Y-108338050D01*
X103043535Y-108394117D01*
X102804581Y-108553780D01*
X102093411Y-109264951D01*
X101954931Y-109264830D01*
X101592771Y-109414471D01*
X101315445Y-109691314D01*
X101165172Y-110053212D01*
X101164830Y-110445069D01*
X101314471Y-110807229D01*
X101591314Y-111084555D01*
X101953212Y-111234828D01*
X102345069Y-111235170D01*
X102707229Y-111085529D01*
X102984555Y-110808686D01*
X103134828Y-110446788D01*
X103134950Y-110306688D01*
X103630489Y-109811150D01*
X105030560Y-109811150D01*
X105030560Y-110077900D01*
X105069043Y-110282418D01*
X105043000Y-110345290D01*
X105043000Y-110414450D01*
X105201750Y-110573200D01*
X105278100Y-110573200D01*
X105426110Y-110674331D01*
X105431868Y-110675497D01*
X105275061Y-110776400D01*
X105201750Y-110776400D01*
X105043000Y-110935150D01*
X105043000Y-111004310D01*
X105071013Y-111071939D01*
X105030560Y-111271700D01*
X105030560Y-111678100D01*
X105068960Y-111882177D01*
X105030560Y-112071800D01*
X105030560Y-112478200D01*
X105068960Y-112682277D01*
X105030560Y-112871900D01*
X105030560Y-113138650D01*
X102680289Y-113138650D01*
X102585049Y-113043411D01*
X102585170Y-112904931D01*
X102435529Y-112542771D01*
X102158686Y-112265445D01*
X101796788Y-112115172D01*
X101404931Y-112114830D01*
X101042771Y-112264471D01*
X100765445Y-112541314D01*
X100615172Y-112903212D01*
X100614830Y-113295069D01*
X100764471Y-113657229D01*
X101041314Y-113934555D01*
X101403212Y-114084828D01*
X101543312Y-114084950D01*
X101854380Y-114396019D01*
X102093334Y-114555683D01*
X102132387Y-114563451D01*
X102375200Y-114611750D01*
X105030560Y-114611750D01*
X105030560Y-114878500D01*
X105069043Y-115083018D01*
X105043000Y-115145890D01*
X105043000Y-115215050D01*
X105201750Y-115373800D01*
X105278100Y-115373800D01*
X105426110Y-115474931D01*
X105431868Y-115476097D01*
X105275061Y-115577000D01*
X105201750Y-115577000D01*
X105043000Y-115735750D01*
X105043000Y-115804910D01*
X105071013Y-115872539D01*
X105030560Y-116072300D01*
X105030560Y-116478700D01*
X105054521Y-116606039D01*
X104928700Y-116580560D01*
X104522300Y-116580560D01*
X104318223Y-116618960D01*
X104128600Y-116580560D01*
X103722200Y-116580560D01*
X103518123Y-116618960D01*
X103328500Y-116580560D01*
X102922100Y-116580560D01*
X102718023Y-116618960D01*
X102528400Y-116580560D01*
X102122000Y-116580560D01*
X101917923Y-116618960D01*
X101728300Y-116580560D01*
X101563200Y-116580560D01*
X101563200Y-116225000D01*
X101499396Y-115904235D01*
X101317697Y-115632303D01*
X99767997Y-114082603D01*
X99496066Y-113900904D01*
X99175300Y-113837100D01*
X97555830Y-113837100D01*
X97734555Y-113658686D01*
X97884828Y-113296788D01*
X97885170Y-112904931D01*
X97735529Y-112542771D01*
X97458686Y-112265445D01*
X97096788Y-112115172D01*
X96704931Y-112114830D01*
X96419440Y-112232792D01*
X96419440Y-112071800D01*
X96381040Y-111867723D01*
X96419440Y-111678100D01*
X96419440Y-111271700D01*
X96380957Y-111067182D01*
X96407000Y-111004310D01*
X96407000Y-110935150D01*
X96248250Y-110776400D01*
X96171900Y-110776400D01*
X96023890Y-110675269D01*
X96018132Y-110674103D01*
X96174939Y-110573200D01*
X96248250Y-110573200D01*
X96407000Y-110414450D01*
X96407000Y-110345290D01*
X96378987Y-110277661D01*
X96419440Y-110077900D01*
X96419440Y-109671500D01*
X96381040Y-109467423D01*
X96419440Y-109277800D01*
X96419440Y-108871400D01*
X96381040Y-108667323D01*
X96419440Y-108477700D01*
X96419440Y-108071300D01*
X96395479Y-107943961D01*
X96521300Y-107969440D01*
X96927700Y-107969440D01*
X97131777Y-107931040D01*
X97321400Y-107969440D01*
X97727800Y-107969440D01*
X97931877Y-107931040D01*
X98121500Y-107969440D01*
X98527900Y-107969440D01*
X98731977Y-107931040D01*
X98921600Y-107969440D01*
X99328000Y-107969440D01*
X99532077Y-107931040D01*
X99721700Y-107969440D01*
X100128100Y-107969440D01*
X100332177Y-107931040D01*
X100521800Y-107969440D01*
X100928200Y-107969440D01*
X101132277Y-107931040D01*
X101321900Y-107969440D01*
X101728300Y-107969440D01*
X101932377Y-107931040D01*
X102122000Y-107969440D01*
X102528400Y-107969440D01*
X102732918Y-107930957D01*
X102795791Y-107957000D01*
X102864950Y-107957000D01*
X103023700Y-107798250D01*
X103023700Y-107721900D01*
X103124831Y-107573890D01*
X103125997Y-107568132D01*
X103226900Y-107724939D01*
G36*
X102192655Y-90266000D02*
X102257345Y-90266000D01*
X102618723Y-90194117D01*
X103417303Y-90992697D01*
X103689234Y-91174396D01*
X104010000Y-91238200D01*
X120902806Y-91238200D01*
X123561800Y-93897194D01*
X123561800Y-116302806D01*
X123486040Y-116378566D01*
X123486040Y-114886400D01*
X123441762Y-114651083D01*
X123302690Y-114434959D01*
X123090490Y-114289969D01*
X123046869Y-114281136D01*
X123064029Y-114269670D01*
X123388885Y-113783489D01*
X123502959Y-113210000D01*
X123388885Y-112636511D01*
X123064029Y-112150330D01*
X122749248Y-111940000D01*
X123064029Y-111729670D01*
X123388885Y-111243489D01*
X123502959Y-110670000D01*
X123388885Y-110096511D01*
X123064029Y-109610330D01*
X122749248Y-109400000D01*
X123064029Y-109189670D01*
X123388885Y-108703489D01*
X123502959Y-108130000D01*
X123388885Y-107556511D01*
X123064029Y-107070330D01*
X122749248Y-106860000D01*
X123064029Y-106649670D01*
X123388885Y-106163489D01*
X123502959Y-105590000D01*
X123388885Y-105016511D01*
X123064029Y-104530330D01*
X122577848Y-104205474D01*
X122004359Y-104091400D01*
X121945641Y-104091400D01*
X121372152Y-104205474D01*
X120885971Y-104530330D01*
X120705000Y-104801172D01*
X120524029Y-104530330D01*
X120037848Y-104205474D01*
X119481774Y-104094864D01*
X121579366Y-101997273D01*
X121985000Y-102077959D01*
X122558489Y-101963885D01*
X123044670Y-101639029D01*
X123369526Y-101152848D01*
X123483600Y-100579359D01*
X123483600Y-100520641D01*
X123369526Y-99947152D01*
X123044670Y-99460971D01*
X122773839Y-99280008D01*
X123191821Y-98898490D01*
X123439968Y-98369027D01*
X123319469Y-98137000D01*
X122112000Y-98137000D01*
X122112000Y-98157000D01*
X121858000Y-98157000D01*
X121858000Y-98137000D01*
X121838000Y-98137000D01*
X121838000Y-97883000D01*
X121858000Y-97883000D01*
X121858000Y-96676183D01*
X122112000Y-96676183D01*
X122112000Y-97883000D01*
X123319469Y-97883000D01*
X123439968Y-97650973D01*
X123191821Y-97121510D01*
X122759947Y-96727312D01*
X122344026Y-96555042D01*
X122112000Y-96676183D01*
X121858000Y-96676183D01*
X121625974Y-96555042D01*
X121210053Y-96727312D01*
X120778179Y-97121510D01*
X120720664Y-97244228D01*
X120504670Y-96920971D01*
X120018489Y-96596115D01*
X119445000Y-96482041D01*
X118871511Y-96596115D01*
X118385330Y-96920971D01*
X118175000Y-97235752D01*
X117964670Y-96920971D01*
X117478489Y-96596115D01*
X116905000Y-96482041D01*
X116331511Y-96596115D01*
X115845330Y-96920971D01*
X115635000Y-97235752D01*
X115424670Y-96920971D01*
X114938489Y-96596115D01*
X114365000Y-96482041D01*
X113791511Y-96596115D01*
X113305330Y-96920971D01*
X113095000Y-97235752D01*
X112884670Y-96920971D01*
X112536200Y-96688131D01*
X112536200Y-94426035D01*
X112660737Y-94402602D01*
X112876861Y-94263530D01*
X112877543Y-94262533D01*
X113072690Y-94395871D01*
X113324580Y-94446880D01*
X114523460Y-94446880D01*
X114758777Y-94402602D01*
X114974901Y-94263530D01*
X115119891Y-94051330D01*
X115148268Y-93911200D01*
X116013493Y-93911200D01*
X116135910Y-94101441D01*
X116348110Y-94246431D01*
X116600000Y-94297440D01*
X117800000Y-94297440D01*
X118035317Y-94253162D01*
X118251441Y-94114090D01*
X118297969Y-94045994D01*
X118440302Y-94188327D01*
X118673691Y-94285000D01*
X119114250Y-94285000D01*
X119273000Y-94126250D01*
X119273000Y-93327000D01*
X119527000Y-93327000D01*
X119527000Y-94126250D01*
X119685750Y-94285000D01*
X120126309Y-94285000D01*
X120359698Y-94188327D01*
X120538327Y-94009699D01*
X120635000Y-93776310D01*
X120635000Y-93485750D01*
X120476250Y-93327000D01*
X119527000Y-93327000D01*
X119273000Y-93327000D01*
X119253000Y-93327000D01*
X119253000Y-93073000D01*
X119273000Y-93073000D01*
X119273000Y-92273750D01*
X119527000Y-92273750D01*
X119527000Y-93073000D01*
X120476250Y-93073000D01*
X120635000Y-92914250D01*
X120635000Y-92623690D01*
X120538327Y-92390301D01*
X120359698Y-92211673D01*
X120126309Y-92115000D01*
X119685750Y-92115000D01*
X119527000Y-92273750D01*
X119273000Y-92273750D01*
X119114250Y-92115000D01*
X118673691Y-92115000D01*
X118440302Y-92211673D01*
X118299064Y-92352910D01*
X118264090Y-92298559D01*
X118051890Y-92153569D01*
X117800000Y-92102560D01*
X116600000Y-92102560D01*
X116364683Y-92146838D01*
X116148559Y-92285910D01*
X116009930Y-92488800D01*
X115149871Y-92488800D01*
X115126622Y-92365243D01*
X114987550Y-92149119D01*
X114775350Y-92004129D01*
X114523460Y-91953120D01*
X113324580Y-91953120D01*
X113089263Y-91997398D01*
X112873139Y-92136470D01*
X112872457Y-92137467D01*
X112677310Y-92004129D01*
X112425420Y-91953120D01*
X111226540Y-91953120D01*
X110991223Y-91997398D01*
X110775099Y-92136470D01*
X110630109Y-92348670D01*
X110579100Y-92600560D01*
X110579100Y-93799440D01*
X110623378Y-94034757D01*
X110762450Y-94250881D01*
X110974650Y-94395871D01*
X111113800Y-94424050D01*
X111113800Y-96688131D01*
X110765330Y-96920971D01*
X110440474Y-97407152D01*
X110326400Y-97980641D01*
X110326400Y-98039359D01*
X110440474Y-98612848D01*
X110755526Y-99084356D01*
X110601701Y-99148073D01*
X110423073Y-99326702D01*
X110326400Y-99560091D01*
X110326400Y-100264250D01*
X110485150Y-100423000D01*
X111698000Y-100423000D01*
X111698000Y-100403000D01*
X111952000Y-100403000D01*
X111952000Y-100423000D01*
X111972000Y-100423000D01*
X111972000Y-100677000D01*
X111952000Y-100677000D01*
X111952000Y-101889850D01*
X112110750Y-102048600D01*
X112363450Y-102048600D01*
X112363450Y-102492155D01*
X111047658Y-103807948D01*
X104805502Y-103807948D01*
X104570401Y-103854713D01*
X104523636Y-103864015D01*
X104284682Y-104023679D01*
X103404581Y-104903781D01*
X103244917Y-105142735D01*
X103240886Y-105163000D01*
X103178525Y-105163000D01*
X103309828Y-104846788D01*
X103310170Y-104454931D01*
X103160529Y-104092771D01*
X102883686Y-103815445D01*
X102521788Y-103665172D01*
X102357835Y-103665029D01*
X102108686Y-103415445D01*
X101746788Y-103265172D01*
X101354931Y-103264830D01*
X101024634Y-103401305D01*
X100920133Y-103357913D01*
X100985000Y-103201310D01*
X100985000Y-102985750D01*
X100826250Y-102827000D01*
X99877000Y-102827000D01*
X99877000Y-102847000D01*
X99623000Y-102847000D01*
X99623000Y-102827000D01*
X99603000Y-102827000D01*
X99603000Y-102573000D01*
X99623000Y-102573000D01*
X99623000Y-101848750D01*
X99877000Y-101848750D01*
X99877000Y-102573000D01*
X100826250Y-102573000D01*
X100985000Y-102414250D01*
X100985000Y-102198690D01*
X100888327Y-101965301D01*
X100709698Y-101786673D01*
X100476309Y-101690000D01*
X100035750Y-101690000D01*
X99877000Y-101848750D01*
X99623000Y-101848750D01*
X99464250Y-101690000D01*
X99023691Y-101690000D01*
X98790302Y-101786673D01*
X98788932Y-101788043D01*
X98701890Y-101728569D01*
X98450000Y-101677560D01*
X97250000Y-101677560D01*
X97014683Y-101721838D01*
X96798559Y-101860910D01*
X96653569Y-102073110D01*
X96602560Y-102325000D01*
X96602560Y-102505410D01*
X95168900Y-101071750D01*
X95814800Y-101071750D01*
X96096665Y-101015683D01*
X96335619Y-100856019D01*
X96355888Y-100835750D01*
X110326400Y-100835750D01*
X110326400Y-101539909D01*
X110423073Y-101773298D01*
X110601701Y-101951927D01*
X110835090Y-102048600D01*
X111539250Y-102048600D01*
X111698000Y-101889850D01*
X111698000Y-100677000D01*
X110485150Y-100677000D01*
X110326400Y-100835750D01*
X96355888Y-100835750D01*
X98779100Y-98412539D01*
X98779100Y-99249440D01*
X98823378Y-99484757D01*
X98962450Y-99700881D01*
X99174650Y-99845871D01*
X99426540Y-99896880D01*
X100625420Y-99896880D01*
X100860737Y-99852602D01*
X101076861Y-99713530D01*
X101077543Y-99712533D01*
X101272690Y-99845871D01*
X101524580Y-99896880D01*
X102723460Y-99896880D01*
X102958777Y-99852602D01*
X103174901Y-99713530D01*
X103319891Y-99501330D01*
X103348268Y-99361200D01*
X103963493Y-99361200D01*
X104085910Y-99551441D01*
X104298110Y-99696431D01*
X104550000Y-99747440D01*
X105750000Y-99747440D01*
X105985317Y-99703162D01*
X106201441Y-99564090D01*
X106247969Y-99495994D01*
X106390302Y-99638327D01*
X106623691Y-99735000D01*
X107064250Y-99735000D01*
X107223000Y-99576250D01*
X107223000Y-98777000D01*
X107477000Y-98777000D01*
X107477000Y-99576250D01*
X107635750Y-99735000D01*
X108076309Y-99735000D01*
X108309698Y-99638327D01*
X108488327Y-99459699D01*
X108585000Y-99226310D01*
X108585000Y-98935750D01*
X108426250Y-98777000D01*
X107477000Y-98777000D01*
X107223000Y-98777000D01*
X107203000Y-98777000D01*
X107203000Y-98523000D01*
X107223000Y-98523000D01*
X107223000Y-97723750D01*
X107477000Y-97723750D01*
X107477000Y-98523000D01*
X108426250Y-98523000D01*
X108585000Y-98364250D01*
X108585000Y-98073690D01*
X108488327Y-97840301D01*
X108309698Y-97661673D01*
X108076309Y-97565000D01*
X107635750Y-97565000D01*
X107477000Y-97723750D01*
X107223000Y-97723750D01*
X107064250Y-97565000D01*
X106623691Y-97565000D01*
X106390302Y-97661673D01*
X106249064Y-97802910D01*
X106214090Y-97748559D01*
X106001890Y-97603569D01*
X105750000Y-97552560D01*
X104550000Y-97552560D01*
X104314683Y-97596838D01*
X104098559Y-97735910D01*
X103959930Y-97938800D01*
X103349871Y-97938800D01*
X103326622Y-97815243D01*
X103187550Y-97599119D01*
X102975350Y-97454129D01*
X102723460Y-97403120D01*
X101524580Y-97403120D01*
X101289263Y-97447398D01*
X101073139Y-97586470D01*
X101072457Y-97587467D01*
X101040296Y-97565492D01*
X102440748Y-96165040D01*
X104317600Y-96165040D01*
X104552917Y-96120762D01*
X104769041Y-95981690D01*
X104914031Y-95769490D01*
X104965040Y-95517600D01*
X104965040Y-93282400D01*
X104920762Y-93047083D01*
X104781690Y-92830959D01*
X104569490Y-92685969D01*
X104317600Y-92634960D01*
X102082400Y-92634960D01*
X101847083Y-92679238D01*
X101630959Y-92818310D01*
X101485969Y-93030510D01*
X101434960Y-93282400D01*
X101434960Y-95159252D01*
X99523086Y-97071126D01*
X99461550Y-97163221D01*
X99461550Y-96196746D01*
X99560317Y-96178162D01*
X99776441Y-96039090D01*
X99921431Y-95826890D01*
X99972440Y-95575000D01*
X99972440Y-94675000D01*
X99928162Y-94439683D01*
X99789090Y-94223559D01*
X99576890Y-94078569D01*
X99461550Y-94055212D01*
X99461550Y-92420088D01*
X101711372Y-90170267D01*
X102192655Y-90266000D01*
X102192655Y-90266000D01*
G37*
X102192655Y-90266000D02*
X102257345Y-90266000D01*
X102618723Y-90194117D01*
X103417303Y-90992697D01*
X103689234Y-91174396D01*
X104010000Y-91238200D01*
X120902806Y-91238200D01*
X123561800Y-93897194D01*
X123561800Y-116302806D01*
X123486040Y-116378566D01*
X123486040Y-114886400D01*
X123441762Y-114651083D01*
X123302690Y-114434959D01*
X123090490Y-114289969D01*
X123046869Y-114281136D01*
X123064029Y-114269670D01*
X123388885Y-113783489D01*
X123502959Y-113210000D01*
X123388885Y-112636511D01*
X123064029Y-112150330D01*
X122749248Y-111940000D01*
X123064029Y-111729670D01*
X123388885Y-111243489D01*
X123502959Y-110670000D01*
X123388885Y-110096511D01*
X123064029Y-109610330D01*
X122749248Y-109400000D01*
X123064029Y-109189670D01*
X123388885Y-108703489D01*
X123502959Y-108130000D01*
X123388885Y-107556511D01*
X123064029Y-107070330D01*
X122749248Y-106860000D01*
X123064029Y-106649670D01*
X123388885Y-106163489D01*
X123502959Y-105590000D01*
X123388885Y-105016511D01*
X123064029Y-104530330D01*
X122577848Y-104205474D01*
X122004359Y-104091400D01*
X121945641Y-104091400D01*
X121372152Y-104205474D01*
X120885971Y-104530330D01*
X120705000Y-104801172D01*
X120524029Y-104530330D01*
X120037848Y-104205474D01*
X119481774Y-104094864D01*
X121579366Y-101997273D01*
X121985000Y-102077959D01*
X122558489Y-101963885D01*
X123044670Y-101639029D01*
X123369526Y-101152848D01*
X123483600Y-100579359D01*
X123483600Y-100520641D01*
X123369526Y-99947152D01*
X123044670Y-99460971D01*
X122773839Y-99280008D01*
X123191821Y-98898490D01*
X123439968Y-98369027D01*
X123319469Y-98137000D01*
X122112000Y-98137000D01*
X122112000Y-98157000D01*
X121858000Y-98157000D01*
X121858000Y-98137000D01*
X121838000Y-98137000D01*
X121838000Y-97883000D01*
X121858000Y-97883000D01*
X121858000Y-96676183D01*
X122112000Y-96676183D01*
X122112000Y-97883000D01*
X123319469Y-97883000D01*
X123439968Y-97650973D01*
X123191821Y-97121510D01*
X122759947Y-96727312D01*
X122344026Y-96555042D01*
X122112000Y-96676183D01*
X121858000Y-96676183D01*
X121625974Y-96555042D01*
X121210053Y-96727312D01*
X120778179Y-97121510D01*
X120720664Y-97244228D01*
X120504670Y-96920971D01*
X120018489Y-96596115D01*
X119445000Y-96482041D01*
X118871511Y-96596115D01*
X118385330Y-96920971D01*
X118175000Y-97235752D01*
X117964670Y-96920971D01*
X117478489Y-96596115D01*
X116905000Y-96482041D01*
X116331511Y-96596115D01*
X115845330Y-96920971D01*
X115635000Y-97235752D01*
X115424670Y-96920971D01*
X114938489Y-96596115D01*
X114365000Y-96482041D01*
X113791511Y-96596115D01*
X113305330Y-96920971D01*
X113095000Y-97235752D01*
X112884670Y-96920971D01*
X112536200Y-96688131D01*
X112536200Y-94426035D01*
X112660737Y-94402602D01*
X112876861Y-94263530D01*
X112877543Y-94262533D01*
X113072690Y-94395871D01*
X113324580Y-94446880D01*
X114523460Y-94446880D01*
X114758777Y-94402602D01*
X114974901Y-94263530D01*
X115119891Y-94051330D01*
X115148268Y-93911200D01*
X116013493Y-93911200D01*
X116135910Y-94101441D01*
X116348110Y-94246431D01*
X116600000Y-94297440D01*
X117800000Y-94297440D01*
X118035317Y-94253162D01*
X118251441Y-94114090D01*
X118297969Y-94045994D01*
X118440302Y-94188327D01*
X118673691Y-94285000D01*
X119114250Y-94285000D01*
X119273000Y-94126250D01*
X119273000Y-93327000D01*
X119527000Y-93327000D01*
X119527000Y-94126250D01*
X119685750Y-94285000D01*
X120126309Y-94285000D01*
X120359698Y-94188327D01*
X120538327Y-94009699D01*
X120635000Y-93776310D01*
X120635000Y-93485750D01*
X120476250Y-93327000D01*
X119527000Y-93327000D01*
X119273000Y-93327000D01*
X119253000Y-93327000D01*
X119253000Y-93073000D01*
X119273000Y-93073000D01*
X119273000Y-92273750D01*
X119527000Y-92273750D01*
X119527000Y-93073000D01*
X120476250Y-93073000D01*
X120635000Y-92914250D01*
X120635000Y-92623690D01*
X120538327Y-92390301D01*
X120359698Y-92211673D01*
X120126309Y-92115000D01*
X119685750Y-92115000D01*
X119527000Y-92273750D01*
X119273000Y-92273750D01*
X119114250Y-92115000D01*
X118673691Y-92115000D01*
X118440302Y-92211673D01*
X118299064Y-92352910D01*
X118264090Y-92298559D01*
X118051890Y-92153569D01*
X117800000Y-92102560D01*
X116600000Y-92102560D01*
X116364683Y-92146838D01*
X116148559Y-92285910D01*
X116009930Y-92488800D01*
X115149871Y-92488800D01*
X115126622Y-92365243D01*
X114987550Y-92149119D01*
X114775350Y-92004129D01*
X114523460Y-91953120D01*
X113324580Y-91953120D01*
X113089263Y-91997398D01*
X112873139Y-92136470D01*
X112872457Y-92137467D01*
X112677310Y-92004129D01*
X112425420Y-91953120D01*
X111226540Y-91953120D01*
X110991223Y-91997398D01*
X110775099Y-92136470D01*
X110630109Y-92348670D01*
X110579100Y-92600560D01*
X110579100Y-93799440D01*
X110623378Y-94034757D01*
X110762450Y-94250881D01*
X110974650Y-94395871D01*
X111113800Y-94424050D01*
X111113800Y-96688131D01*
X110765330Y-96920971D01*
X110440474Y-97407152D01*
X110326400Y-97980641D01*
X110326400Y-98039359D01*
X110440474Y-98612848D01*
X110755526Y-99084356D01*
X110601701Y-99148073D01*
X110423073Y-99326702D01*
X110326400Y-99560091D01*
X110326400Y-100264250D01*
X110485150Y-100423000D01*
X111698000Y-100423000D01*
X111698000Y-100403000D01*
X111952000Y-100403000D01*
X111952000Y-100423000D01*
X111972000Y-100423000D01*
X111972000Y-100677000D01*
X111952000Y-100677000D01*
X111952000Y-101889850D01*
X112110750Y-102048600D01*
X112363450Y-102048600D01*
X112363450Y-102492155D01*
X111047658Y-103807948D01*
X104805502Y-103807948D01*
X104570401Y-103854713D01*
X104523636Y-103864015D01*
X104284682Y-104023679D01*
X103404581Y-104903781D01*
X103244917Y-105142735D01*
X103240886Y-105163000D01*
X103178525Y-105163000D01*
X103309828Y-104846788D01*
X103310170Y-104454931D01*
X103160529Y-104092771D01*
X102883686Y-103815445D01*
X102521788Y-103665172D01*
X102357835Y-103665029D01*
X102108686Y-103415445D01*
X101746788Y-103265172D01*
X101354931Y-103264830D01*
X101024634Y-103401305D01*
X100920133Y-103357913D01*
X100985000Y-103201310D01*
X100985000Y-102985750D01*
X100826250Y-102827000D01*
X99877000Y-102827000D01*
X99877000Y-102847000D01*
X99623000Y-102847000D01*
X99623000Y-102827000D01*
X99603000Y-102827000D01*
X99603000Y-102573000D01*
X99623000Y-102573000D01*
X99623000Y-101848750D01*
X99877000Y-101848750D01*
X99877000Y-102573000D01*
X100826250Y-102573000D01*
X100985000Y-102414250D01*
X100985000Y-102198690D01*
X100888327Y-101965301D01*
X100709698Y-101786673D01*
X100476309Y-101690000D01*
X100035750Y-101690000D01*
X99877000Y-101848750D01*
X99623000Y-101848750D01*
X99464250Y-101690000D01*
X99023691Y-101690000D01*
X98790302Y-101786673D01*
X98788932Y-101788043D01*
X98701890Y-101728569D01*
X98450000Y-101677560D01*
X97250000Y-101677560D01*
X97014683Y-101721838D01*
X96798559Y-101860910D01*
X96653569Y-102073110D01*
X96602560Y-102325000D01*
X96602560Y-102505410D01*
X95168900Y-101071750D01*
X95814800Y-101071750D01*
X96096665Y-101015683D01*
X96335619Y-100856019D01*
X96355888Y-100835750D01*
X110326400Y-100835750D01*
X110326400Y-101539909D01*
X110423073Y-101773298D01*
X110601701Y-101951927D01*
X110835090Y-102048600D01*
X111539250Y-102048600D01*
X111698000Y-101889850D01*
X111698000Y-100677000D01*
X110485150Y-100677000D01*
X110326400Y-100835750D01*
X96355888Y-100835750D01*
X98779100Y-98412539D01*
X98779100Y-99249440D01*
X98823378Y-99484757D01*
X98962450Y-99700881D01*
X99174650Y-99845871D01*
X99426540Y-99896880D01*
X100625420Y-99896880D01*
X100860737Y-99852602D01*
X101076861Y-99713530D01*
X101077543Y-99712533D01*
X101272690Y-99845871D01*
X101524580Y-99896880D01*
X102723460Y-99896880D01*
X102958777Y-99852602D01*
X103174901Y-99713530D01*
X103319891Y-99501330D01*
X103348268Y-99361200D01*
X103963493Y-99361200D01*
X104085910Y-99551441D01*
X104298110Y-99696431D01*
X104550000Y-99747440D01*
X105750000Y-99747440D01*
X105985317Y-99703162D01*
X106201441Y-99564090D01*
X106247969Y-99495994D01*
X106390302Y-99638327D01*
X106623691Y-99735000D01*
X107064250Y-99735000D01*
X107223000Y-99576250D01*
X107223000Y-98777000D01*
X107477000Y-98777000D01*
X107477000Y-99576250D01*
X107635750Y-99735000D01*
X108076309Y-99735000D01*
X108309698Y-99638327D01*
X108488327Y-99459699D01*
X108585000Y-99226310D01*
X108585000Y-98935750D01*
X108426250Y-98777000D01*
X107477000Y-98777000D01*
X107223000Y-98777000D01*
X107203000Y-98777000D01*
X107203000Y-98523000D01*
X107223000Y-98523000D01*
X107223000Y-97723750D01*
X107477000Y-97723750D01*
X107477000Y-98523000D01*
X108426250Y-98523000D01*
X108585000Y-98364250D01*
X108585000Y-98073690D01*
X108488327Y-97840301D01*
X108309698Y-97661673D01*
X108076309Y-97565000D01*
X107635750Y-97565000D01*
X107477000Y-97723750D01*
X107223000Y-97723750D01*
X107064250Y-97565000D01*
X106623691Y-97565000D01*
X106390302Y-97661673D01*
X106249064Y-97802910D01*
X106214090Y-97748559D01*
X106001890Y-97603569D01*
X105750000Y-97552560D01*
X104550000Y-97552560D01*
X104314683Y-97596838D01*
X104098559Y-97735910D01*
X103959930Y-97938800D01*
X103349871Y-97938800D01*
X103326622Y-97815243D01*
X103187550Y-97599119D01*
X102975350Y-97454129D01*
X102723460Y-97403120D01*
X101524580Y-97403120D01*
X101289263Y-97447398D01*
X101073139Y-97586470D01*
X101072457Y-97587467D01*
X101040296Y-97565492D01*
X102440748Y-96165040D01*
X104317600Y-96165040D01*
X104552917Y-96120762D01*
X104769041Y-95981690D01*
X104914031Y-95769490D01*
X104965040Y-95517600D01*
X104965040Y-93282400D01*
X104920762Y-93047083D01*
X104781690Y-92830959D01*
X104569490Y-92685969D01*
X104317600Y-92634960D01*
X102082400Y-92634960D01*
X101847083Y-92679238D01*
X101630959Y-92818310D01*
X101485969Y-93030510D01*
X101434960Y-93282400D01*
X101434960Y-95159252D01*
X99523086Y-97071126D01*
X99461550Y-97163221D01*
X99461550Y-96196746D01*
X99560317Y-96178162D01*
X99776441Y-96039090D01*
X99921431Y-95826890D01*
X99972440Y-95575000D01*
X99972440Y-94675000D01*
X99928162Y-94439683D01*
X99789090Y-94223559D01*
X99576890Y-94078569D01*
X99461550Y-94055212D01*
X99461550Y-92420088D01*
X101711372Y-90170267D01*
X102192655Y-90266000D01*
G36*
X110984412Y-115538950D02*
X107546212Y-115538950D01*
X107453890Y-115475869D01*
X107448132Y-115474703D01*
X107545808Y-115411850D01*
X111111512Y-115411850D01*
X110984412Y-115538950D01*
X110984412Y-115538950D01*
G37*
X110984412Y-115538950D02*
X107546212Y-115538950D01*
X107453890Y-115475869D01*
X107448132Y-115474703D01*
X107545808Y-115411850D01*
X111111512Y-115411850D01*
X110984412Y-115538950D01*
G36*
X115852446Y-109162647D02*
X113135000Y-111880094D01*
X113135000Y-111760750D01*
X112976250Y-111602000D01*
X112027000Y-111602000D01*
X112027000Y-112326250D01*
X112185750Y-112485000D01*
X112530094Y-112485000D01*
X111787348Y-113227746D01*
X109519385Y-113227746D01*
X108751727Y-112460089D01*
X108845069Y-112460170D01*
X109046442Y-112376964D01*
X109148110Y-112446431D01*
X109400000Y-112497440D01*
X110600000Y-112497440D01*
X110835317Y-112453162D01*
X110938646Y-112386671D01*
X110940302Y-112388327D01*
X111173691Y-112485000D01*
X111614250Y-112485000D01*
X111773000Y-112326250D01*
X111773000Y-111602000D01*
X111753000Y-111602000D01*
X111753000Y-111348000D01*
X111773000Y-111348000D01*
X111773000Y-110623750D01*
X112027000Y-110623750D01*
X112027000Y-111348000D01*
X112976250Y-111348000D01*
X113135000Y-111189250D01*
X113135000Y-110973690D01*
X113038327Y-110740301D01*
X112859698Y-110561673D01*
X112626309Y-110465000D01*
X112185750Y-110465000D01*
X112027000Y-110623750D01*
X111773000Y-110623750D01*
X111614250Y-110465000D01*
X111173691Y-110465000D01*
X110940302Y-110561673D01*
X110938932Y-110563043D01*
X110851890Y-110503569D01*
X110600000Y-110452560D01*
X109400000Y-110452560D01*
X109164683Y-110496838D01*
X109046299Y-110573016D01*
X108846788Y-110490172D01*
X108454931Y-110489830D01*
X108099235Y-110636800D01*
X107837000Y-110636800D01*
X107837000Y-110547798D01*
X107768217Y-110547798D01*
X107996119Y-110395519D01*
X109025087Y-109366552D01*
X113402242Y-109366552D01*
X113684107Y-109310485D01*
X113923061Y-109150821D01*
X115852446Y-107221436D01*
X115852446Y-109162647D01*
X115852446Y-109162647D01*
G37*
X115852446Y-109162647D02*
X113135000Y-111880094D01*
X113135000Y-111760750D01*
X112976250Y-111602000D01*
X112027000Y-111602000D01*
X112027000Y-112326250D01*
X112185750Y-112485000D01*
X112530094Y-112485000D01*
X111787348Y-113227746D01*
X109519385Y-113227746D01*
X108751727Y-112460089D01*
X108845069Y-112460170D01*
X109046442Y-112376964D01*
X109148110Y-112446431D01*
X109400000Y-112497440D01*
X110600000Y-112497440D01*
X110835317Y-112453162D01*
X110938646Y-112386671D01*
X110940302Y-112388327D01*
X111173691Y-112485000D01*
X111614250Y-112485000D01*
X111773000Y-112326250D01*
X111773000Y-111602000D01*
X111753000Y-111602000D01*
X111753000Y-111348000D01*
X111773000Y-111348000D01*
X111773000Y-110623750D01*
X112027000Y-110623750D01*
X112027000Y-111348000D01*
X112976250Y-111348000D01*
X113135000Y-111189250D01*
X113135000Y-110973690D01*
X113038327Y-110740301D01*
X112859698Y-110561673D01*
X112626309Y-110465000D01*
X112185750Y-110465000D01*
X112027000Y-110623750D01*
X111773000Y-110623750D01*
X111614250Y-110465000D01*
X111173691Y-110465000D01*
X110940302Y-110561673D01*
X110938932Y-110563043D01*
X110851890Y-110503569D01*
X110600000Y-110452560D01*
X109400000Y-110452560D01*
X109164683Y-110496838D01*
X109046299Y-110573016D01*
X108846788Y-110490172D01*
X108454931Y-110489830D01*
X108099235Y-110636800D01*
X107837000Y-110636800D01*
X107837000Y-110547798D01*
X107768217Y-110547798D01*
X107996119Y-110395519D01*
X109025087Y-109366552D01*
X113402242Y-109366552D01*
X113684107Y-109310485D01*
X113923061Y-109150821D01*
X115852446Y-107221436D01*
X115852446Y-109162647D01*
G36*
X93501125Y-110395520D02*
X93705181Y-110531865D01*
X93740079Y-110555183D01*
X93757123Y-110558573D01*
X93771750Y-110573200D01*
X93830656Y-110573200D01*
X93855264Y-110578095D01*
X93996110Y-110674331D01*
X94001868Y-110675497D01*
X93904192Y-110738350D01*
X92732745Y-110738350D01*
X92253056Y-110258662D01*
X92253056Y-109147451D01*
X93501125Y-110395520D01*
X93501125Y-110395520D01*
G37*
X93501125Y-110395520D02*
X93705181Y-110531865D01*
X93740079Y-110555183D01*
X93757123Y-110558573D01*
X93771750Y-110573200D01*
X93830656Y-110573200D01*
X93855264Y-110578095D01*
X93996110Y-110674331D01*
X94001868Y-110675497D01*
X93904192Y-110738350D01*
X92732745Y-110738350D01*
X92253056Y-110258662D01*
X92253056Y-109147451D01*
X93501125Y-110395520D01*
G36*
X117032000Y-100423000D02*
X117052000Y-100423000D01*
X117052000Y-100677000D01*
X117032000Y-100677000D01*
X117032000Y-101883817D01*
X117264026Y-102004958D01*
X117463450Y-101922359D01*
X117463450Y-103024399D01*
X112949900Y-107537950D01*
X107546212Y-107537950D01*
X107453890Y-107474869D01*
X107202000Y-107423860D01*
X105678000Y-107423860D01*
X105550661Y-107447821D01*
X105576140Y-107322000D01*
X105576140Y-105798000D01*
X105555156Y-105686482D01*
X105605089Y-105636550D01*
X111500000Y-105636550D01*
X111781865Y-105580483D01*
X112020819Y-105420819D01*
X114885820Y-102555819D01*
X115045483Y-102316865D01*
X115053527Y-102276425D01*
X115101550Y-102035000D01*
X115101550Y-101854931D01*
X115424670Y-101639029D01*
X115640664Y-101315772D01*
X115698179Y-101438490D01*
X116130053Y-101832688D01*
X116545974Y-102004958D01*
X116778000Y-101883817D01*
X116778000Y-100677000D01*
X116758000Y-100677000D01*
X116758000Y-100423000D01*
X116778000Y-100423000D01*
X116778000Y-100403000D01*
X117032000Y-100403000D01*
X117032000Y-100423000D01*
X117032000Y-100423000D01*
G37*
X117032000Y-100423000D02*
X117052000Y-100423000D01*
X117052000Y-100677000D01*
X117032000Y-100677000D01*
X117032000Y-101883817D01*
X117264026Y-102004958D01*
X117463450Y-101922359D01*
X117463450Y-103024399D01*
X112949900Y-107537950D01*
X107546212Y-107537950D01*
X107453890Y-107474869D01*
X107202000Y-107423860D01*
X105678000Y-107423860D01*
X105550661Y-107447821D01*
X105576140Y-107322000D01*
X105576140Y-105798000D01*
X105555156Y-105686482D01*
X105605089Y-105636550D01*
X111500000Y-105636550D01*
X111781865Y-105580483D01*
X112020819Y-105420819D01*
X114885820Y-102555819D01*
X115045483Y-102316865D01*
X115053527Y-102276425D01*
X115101550Y-102035000D01*
X115101550Y-101854931D01*
X115424670Y-101639029D01*
X115640664Y-101315772D01*
X115698179Y-101438490D01*
X116130053Y-101832688D01*
X116545974Y-102004958D01*
X116778000Y-101883817D01*
X116778000Y-100677000D01*
X116758000Y-100677000D01*
X116758000Y-100423000D01*
X116778000Y-100423000D01*
X116778000Y-100403000D01*
X117032000Y-100403000D01*
X117032000Y-100423000D01*
G36*
X95987950Y-104979589D02*
X95987950Y-105453788D01*
X95924869Y-105546110D01*
X95873860Y-105798000D01*
X95873860Y-107322000D01*
X95897821Y-107449339D01*
X95772000Y-107423860D01*
X94331013Y-107423860D01*
X94235529Y-107192771D01*
X93958686Y-106915445D01*
X93596788Y-106765172D01*
X93204931Y-106764830D01*
X92842771Y-106914471D01*
X92724337Y-107032699D01*
X91536550Y-105844912D01*
X91536550Y-103129601D01*
X91596000Y-103141640D01*
X92866000Y-103141640D01*
X93101317Y-103097362D01*
X93209808Y-103027550D01*
X94035912Y-103027550D01*
X95987950Y-104979589D01*
X95987950Y-104979589D01*
G37*
X95987950Y-104979589D02*
X95987950Y-105453788D01*
X95924869Y-105546110D01*
X95873860Y-105798000D01*
X95873860Y-107322000D01*
X95897821Y-107449339D01*
X95772000Y-107423860D01*
X94331013Y-107423860D01*
X94235529Y-107192771D01*
X93958686Y-106915445D01*
X93596788Y-106765172D01*
X93204931Y-106764830D01*
X92842771Y-106914471D01*
X92724337Y-107032699D01*
X91536550Y-105844912D01*
X91536550Y-103129601D01*
X91596000Y-103141640D01*
X92866000Y-103141640D01*
X93101317Y-103097362D01*
X93209808Y-103027550D01*
X94035912Y-103027550D01*
X95987950Y-104979589D01*
G36*
X95460910Y-96026441D02*
X95673110Y-96171431D01*
X95925000Y-96222440D01*
X97125000Y-96222440D01*
X97360317Y-96178162D01*
X97576441Y-96039090D01*
X97624134Y-95969289D01*
X97660910Y-96026441D01*
X97873110Y-96171431D01*
X97988450Y-96194788D01*
X97988450Y-97119911D01*
X95509712Y-99598650D01*
X93513440Y-99598650D01*
X93513440Y-99497000D01*
X93488666Y-99365338D01*
X93513440Y-99243000D01*
X93513440Y-98836600D01*
X93493033Y-98728144D01*
X93501000Y-98708909D01*
X93501000Y-98639750D01*
X93470698Y-98609448D01*
X93469162Y-98601283D01*
X93332747Y-98389289D01*
X93462431Y-98199490D01*
X93473063Y-98146987D01*
X93501000Y-98119050D01*
X93501000Y-98049891D01*
X93495443Y-98036474D01*
X93513440Y-97947600D01*
X93513440Y-97541200D01*
X93488666Y-97409538D01*
X93513440Y-97287200D01*
X93513440Y-96880800D01*
X93491143Y-96762304D01*
X93513440Y-96652200D01*
X93513440Y-96245800D01*
X93488666Y-96114138D01*
X93513440Y-95991800D01*
X93513440Y-95864750D01*
X95356865Y-95864750D01*
X95460910Y-96026441D01*
X95460910Y-96026441D01*
G37*
X95460910Y-96026441D02*
X95673110Y-96171431D01*
X95925000Y-96222440D01*
X97125000Y-96222440D01*
X97360317Y-96178162D01*
X97576441Y-96039090D01*
X97624134Y-95969289D01*
X97660910Y-96026441D01*
X97873110Y-96171431D01*
X97988450Y-96194788D01*
X97988450Y-97119911D01*
X95509712Y-99598650D01*
X93513440Y-99598650D01*
X93513440Y-99497000D01*
X93488666Y-99365338D01*
X93513440Y-99243000D01*
X93513440Y-98836600D01*
X93493033Y-98728144D01*
X93501000Y-98708909D01*
X93501000Y-98639750D01*
X93470698Y-98609448D01*
X93469162Y-98601283D01*
X93332747Y-98389289D01*
X93462431Y-98199490D01*
X93473063Y-98146987D01*
X93501000Y-98119050D01*
X93501000Y-98049891D01*
X93495443Y-98036474D01*
X93513440Y-97947600D01*
X93513440Y-97541200D01*
X93488666Y-97409538D01*
X93513440Y-97287200D01*
X93513440Y-96880800D01*
X93491143Y-96762304D01*
X93513440Y-96652200D01*
X93513440Y-96245800D01*
X93488666Y-96114138D01*
X93513440Y-95991800D01*
X93513440Y-95864750D01*
X95356865Y-95864750D01*
X95460910Y-96026441D01*
G36*
X100757559Y-84594910D02*
X100612569Y-84807110D01*
X100561560Y-85059000D01*
X100561560Y-87091000D01*
X100605838Y-87326317D01*
X100744910Y-87542441D01*
X100893837Y-87644198D01*
X100667330Y-87983190D01*
X100541655Y-88615000D01*
X100648121Y-89150240D01*
X98204181Y-91594181D01*
X98044517Y-91833135D01*
X97988450Y-92115000D01*
X97988450Y-94053254D01*
X97889683Y-94071838D01*
X97673559Y-94210910D01*
X97625866Y-94280711D01*
X97589090Y-94223559D01*
X97376890Y-94078569D01*
X97125000Y-94027560D01*
X95925000Y-94027560D01*
X95689683Y-94071838D01*
X95473559Y-94210910D01*
X95350065Y-94391650D01*
X93513440Y-94391650D01*
X93513440Y-94290000D01*
X93488666Y-94158338D01*
X93513440Y-94036000D01*
X93513440Y-93629600D01*
X93469162Y-93394283D01*
X93330090Y-93178159D01*
X93117890Y-93033169D01*
X92866000Y-92982160D01*
X91596000Y-92982160D01*
X91360683Y-93026438D01*
X91144559Y-93165510D01*
X91136152Y-93177814D01*
X90935357Y-93311980D01*
X87623679Y-96623659D01*
X87464015Y-96862613D01*
X87407948Y-97144478D01*
X87407948Y-97796927D01*
X87261265Y-97698917D01*
X86979400Y-97642850D01*
X86389000Y-97642850D01*
X86389000Y-97617398D01*
X86296926Y-97617398D01*
X86350431Y-97539090D01*
X86354613Y-97518437D01*
X86389000Y-97484050D01*
X86389000Y-97414891D01*
X86379988Y-97393134D01*
X86401440Y-97287200D01*
X86401440Y-97050254D01*
X86521819Y-96969819D01*
X86820820Y-96670819D01*
X86980483Y-96431865D01*
X86980981Y-96429359D01*
X87036550Y-96150000D01*
X87036550Y-95257844D01*
X90727343Y-91567052D01*
X94069498Y-91567052D01*
X94351363Y-91510985D01*
X94590317Y-91351321D01*
X95445820Y-90495819D01*
X95605483Y-90256865D01*
X95611321Y-90227516D01*
X95826441Y-90089090D01*
X95971431Y-89876890D01*
X95994788Y-89761550D01*
X96978254Y-89761550D01*
X96996838Y-89860317D01*
X97135910Y-90076441D01*
X97348110Y-90221431D01*
X97600000Y-90272440D01*
X98500000Y-90272440D01*
X98735317Y-90228162D01*
X98951441Y-90089090D01*
X99096431Y-89876890D01*
X99147440Y-89625000D01*
X99147440Y-88425000D01*
X99103162Y-88189683D01*
X98964090Y-87973559D01*
X98895994Y-87927031D01*
X99038327Y-87784698D01*
X99135000Y-87551309D01*
X99135000Y-87110750D01*
X98976250Y-86952000D01*
X98177000Y-86952000D01*
X98177000Y-86972000D01*
X97923000Y-86972000D01*
X97923000Y-86952000D01*
X97123750Y-86952000D01*
X96965000Y-87110750D01*
X96965000Y-87551309D01*
X97061673Y-87784698D01*
X97202910Y-87925936D01*
X97148559Y-87960910D01*
X97003569Y-88173110D01*
X96980212Y-88288450D01*
X95996746Y-88288450D01*
X95978162Y-88189683D01*
X95839090Y-87973559D01*
X95769289Y-87925866D01*
X95826441Y-87889090D01*
X95971431Y-87676890D01*
X96022440Y-87425000D01*
X96022440Y-86225000D01*
X95998674Y-86098691D01*
X96965000Y-86098691D01*
X96965000Y-86539250D01*
X97123750Y-86698000D01*
X97923000Y-86698000D01*
X97923000Y-85748750D01*
X98177000Y-85748750D01*
X98177000Y-86698000D01*
X98976250Y-86698000D01*
X99135000Y-86539250D01*
X99135000Y-86098691D01*
X99038327Y-85865302D01*
X98859699Y-85686673D01*
X98626310Y-85590000D01*
X98335750Y-85590000D01*
X98177000Y-85748750D01*
X97923000Y-85748750D01*
X97764250Y-85590000D01*
X97473690Y-85590000D01*
X97240301Y-85686673D01*
X97061673Y-85865302D01*
X96965000Y-86098691D01*
X95998674Y-86098691D01*
X95978162Y-85989683D01*
X95839090Y-85773559D01*
X95707792Y-85683847D01*
X96805089Y-84586550D01*
X100770551Y-84586550D01*
X100757559Y-84594910D01*
X100757559Y-84594910D01*
G37*
X100757559Y-84594910D02*
X100612569Y-84807110D01*
X100561560Y-85059000D01*
X100561560Y-87091000D01*
X100605838Y-87326317D01*
X100744910Y-87542441D01*
X100893837Y-87644198D01*
X100667330Y-87983190D01*
X100541655Y-88615000D01*
X100648121Y-89150240D01*
X98204181Y-91594181D01*
X98044517Y-91833135D01*
X97988450Y-92115000D01*
X97988450Y-94053254D01*
X97889683Y-94071838D01*
X97673559Y-94210910D01*
X97625866Y-94280711D01*
X97589090Y-94223559D01*
X97376890Y-94078569D01*
X97125000Y-94027560D01*
X95925000Y-94027560D01*
X95689683Y-94071838D01*
X95473559Y-94210910D01*
X95350065Y-94391650D01*
X93513440Y-94391650D01*
X93513440Y-94290000D01*
X93488666Y-94158338D01*
X93513440Y-94036000D01*
X93513440Y-93629600D01*
X93469162Y-93394283D01*
X93330090Y-93178159D01*
X93117890Y-93033169D01*
X92866000Y-92982160D01*
X91596000Y-92982160D01*
X91360683Y-93026438D01*
X91144559Y-93165510D01*
X91136152Y-93177814D01*
X90935357Y-93311980D01*
X87623679Y-96623659D01*
X87464015Y-96862613D01*
X87407948Y-97144478D01*
X87407948Y-97796927D01*
X87261265Y-97698917D01*
X86979400Y-97642850D01*
X86389000Y-97642850D01*
X86389000Y-97617398D01*
X86296926Y-97617398D01*
X86350431Y-97539090D01*
X86354613Y-97518437D01*
X86389000Y-97484050D01*
X86389000Y-97414891D01*
X86379988Y-97393134D01*
X86401440Y-97287200D01*
X86401440Y-97050254D01*
X86521819Y-96969819D01*
X86820820Y-96670819D01*
X86980483Y-96431865D01*
X86980981Y-96429359D01*
X87036550Y-96150000D01*
X87036550Y-95257844D01*
X90727343Y-91567052D01*
X94069498Y-91567052D01*
X94351363Y-91510985D01*
X94590317Y-91351321D01*
X95445820Y-90495819D01*
X95605483Y-90256865D01*
X95611321Y-90227516D01*
X95826441Y-90089090D01*
X95971431Y-89876890D01*
X95994788Y-89761550D01*
X96978254Y-89761550D01*
X96996838Y-89860317D01*
X97135910Y-90076441D01*
X97348110Y-90221431D01*
X97600000Y-90272440D01*
X98500000Y-90272440D01*
X98735317Y-90228162D01*
X98951441Y-90089090D01*
X99096431Y-89876890D01*
X99147440Y-89625000D01*
X99147440Y-88425000D01*
X99103162Y-88189683D01*
X98964090Y-87973559D01*
X98895994Y-87927031D01*
X99038327Y-87784698D01*
X99135000Y-87551309D01*
X99135000Y-87110750D01*
X98976250Y-86952000D01*
X98177000Y-86952000D01*
X98177000Y-86972000D01*
X97923000Y-86972000D01*
X97923000Y-86952000D01*
X97123750Y-86952000D01*
X96965000Y-87110750D01*
X96965000Y-87551309D01*
X97061673Y-87784698D01*
X97202910Y-87925936D01*
X97148559Y-87960910D01*
X97003569Y-88173110D01*
X96980212Y-88288450D01*
X95996746Y-88288450D01*
X95978162Y-88189683D01*
X95839090Y-87973559D01*
X95769289Y-87925866D01*
X95826441Y-87889090D01*
X95971431Y-87676890D01*
X96022440Y-87425000D01*
X96022440Y-86225000D01*
X95998674Y-86098691D01*
X96965000Y-86098691D01*
X96965000Y-86539250D01*
X97123750Y-86698000D01*
X97923000Y-86698000D01*
X97923000Y-85748750D01*
X98177000Y-85748750D01*
X98177000Y-86698000D01*
X98976250Y-86698000D01*
X99135000Y-86539250D01*
X99135000Y-86098691D01*
X99038327Y-85865302D01*
X98859699Y-85686673D01*
X98626310Y-85590000D01*
X98335750Y-85590000D01*
X98177000Y-85748750D01*
X97923000Y-85748750D01*
X97764250Y-85590000D01*
X97473690Y-85590000D01*
X97240301Y-85686673D01*
X97061673Y-85865302D01*
X96965000Y-86098691D01*
X95998674Y-86098691D01*
X95978162Y-85989683D01*
X95839090Y-85773559D01*
X95707792Y-85683847D01*
X96805089Y-84586550D01*
X100770551Y-84586550D01*
X100757559Y-84594910D01*
M02*
