M48
;DRILL file {KiCad 4.0.2-stable} date 05.06.2016 11:41:31
;FORMAT={-:-/ absolute / metric / decimal}
FMAT,2
METRIC,TZ
T1C0.300
T2C0.400
T3C0.762
%
G90
G05
M71
T1
X30.81Y-127.737
X31.89Y-118.07
X34.074Y-105.92
X36.87Y-89.27
X36.906Y-105.181
X37.305Y-85.7
X37.313Y-130.912
X38.43Y-130.2
X38.7Y-73.5
X38.8Y-84.7
X40.1Y-137.2
X40.8Y-73.1
X40.83Y-133.65
X41.26Y-81.91
X41.38Y-143.46
X41.52Y-141.28
X41.732Y-127.229
X42.1Y-138.7
X42.555Y-60.179
X42.92Y-137.85
X43.1Y-136.2
X43.151Y-125.785
X43.57Y-59.44
X43.586Y-124.536
X43.6Y-86.8
X44.226Y-137.929
X44.3Y-141.8
X44.5Y-143.9
X44.6Y-59.745
X45.3Y-137.4
X45.555Y-118.402
X45.86Y-145.65
X46.414Y-138.75
X46.459Y-137.181
X46.736Y-67.564
X46.974Y-103.607
X47.49Y-138.4
X47.877Y-148.599
X47.892Y-147.079
X48.218Y-113.55
X48.235Y-104.419
X48.3Y-124.8
X48.3Y-130.7
X48.5Y-72.5
X48.62Y-74.575
X48.8Y-143.6
X49.276Y-67.564
X49.303Y-73.448
X49.53Y-104.419
X49.69Y-142.51
X49.86Y-133.84
X49.9Y-138.3
X49.9Y-144.4
X50.175Y-146.583
X50.406Y-141.186
X50.44Y-129.35
X51.1Y-119.8
X51.206Y-121.768
X51.44Y-136.45
X52.07Y-104.902
X52.1Y-113.
X52.1Y-114.6
X52.87Y-130.721
X52.895Y-149.25
X52.959Y-121.717
X53.Y-133.1
X53.34Y-104.978
X54.102Y-67.564
X54.61Y-104.978
X55.181Y-114.605
X55.42Y-143.618
X55.44Y-141.9
X55.88Y-105.054
X56.88Y-136.58
X56.88Y-138.65
X56.896Y-116.395
X57.054Y-113.531
X57.099Y-105.054
X57.8Y-125.8
X57.8Y-147.6
X57.861Y-149.212
X58.344Y-105.181
X58.356Y-143.434
X58.38Y-133.82
X59.4Y-142.
X59.9Y-118.8
X60.1Y-145.3
X60.259Y-137.5
X60.675Y-113.043
X60.681Y-111.836
X60.7Y-135.7
X61.Y-138.8
X61.163Y-105.321
X61.37Y-136.44
X61.531Y-110.744
X61.793Y-141.407
X61.832Y-131.521
X62.103Y-98.069
X62.611Y-109.957
X62.852Y-149.161
X63.27Y-138.64
X63.284Y-146.113
X63.32Y-133.66
X63.9Y-135.7
X64.4Y-148.328
X65.06Y-138.11
X65.1Y-144.8
X65.18Y-136.4
X66.038Y-143.348
X66.2Y-136.2
X66.43Y-147.906
X66.54Y-141.11
X66.56Y-112.68
X66.63Y-130.08
X66.764Y-110.884
X67.3Y-135.2
X67.34Y-144.417
X67.348Y-149.076
X67.53Y-127.81
X67.6Y-131.5
X68.532Y-144.517
X68.974Y-149.136
X69.Y-108.9
X69.202Y-105.169
X69.336Y-147.489
X69.8Y-132.7
X70.32Y-87.74
X70.5Y-133.8
X70.6Y-67.6
X70.85Y-136.24
X71.9Y-111.2
X72.06Y-66.421
X72.65Y-136.97
X72.949Y-65.557
X72.973Y-133.463
X72.977Y-130.514
X73.145Y-135.916
X73.74Y-72.41
X73.9Y-112.4
X74.Y-64.5
X74.115Y-129.74
X74.6Y-140.6
X74.866Y-130.36
X75.5Y-63.1
X75.59Y-148.831
X75.74Y-131.13
X76.13Y-74.31
X76.68Y-83.68
X76.753Y-114.486
X76.79Y-108.59
X76.8Y-112.7
X77.012Y-111.132
X77.226Y-73.864
X78.15Y-85.16
X79.35Y-86.14
X79.45Y-87.67
X79.8Y-101.3
X80.196Y-129.32
X80.2Y-141.8
X80.95Y-85.28
X81.02Y-83.83
X81.1Y-102.6
X81.8Y-141.3
X82.2Y-137.3
X83.75Y-84.76
X84.Y-105.5
X85.Y-106.5
X85.675Y-125.019
X85.775Y-140.086
X86.1Y-107.6
X86.6Y-136.9
X86.8Y-141.
X87.3Y-146.6
X87.859Y-149.212
X88.5Y-110.4
X88.625Y-121.728
X89.Y-111.6
X89.7Y-131.5
X89.7Y-133.35
X90.4Y-113.6
X90.4Y-146.6
X90.6Y-128.4
X92.003Y-126.983
X92.8Y-146.3
X92.862Y-149.009
X93.7Y-141.3
X94.3Y-146.8
X94.3Y-149.
X96.497Y-147.99
X96.7Y-145.4
X96.85Y-112.26
X97.323Y-136.158
X97.65Y-120.9
X98.06Y-148.67
X99.32Y-148.83
X99.54Y-137.161
X99.728Y-141.493
X99.74Y-133.34
X100.Y-118.6
X100.2Y-114.
X100.39Y-136.39
X100.429Y-140.367
X100.747Y-132.213
X100.851Y-148.793
X101.04Y-141.559
X101.06Y-137.215
X101.22Y-130.75
X101.6Y-103.8
X101.896Y-121.69
X102.025Y-131.719
X102.14Y-138.96
X102.58Y-142.54
X102.76Y-143.81
X103.3Y-103.9
X103.745Y-144.855
X104.Y-120.7
X105.005Y-142.89
X105.3Y-102.6
X105.41Y-118.39
X105.44Y-128.91
X105.825Y-142.37
X105.842Y-148.768
X105.877Y-139.32
X106.9Y-119.5
X107.002Y-139.696
X107.1Y-132.1
X107.335Y-138.914
X108.3Y-146.31
X108.815Y-139.301
X109.1Y-105.2
X109.1Y-110.7
X109.4Y-132.2
X109.4Y-141.8
X109.4Y-144.8
X109.9Y-139.5
X110.8Y-109.3
X110.91Y-139.45
X111.1Y-147.2
X111.341Y-148.78
X111.579Y-110.388
X112.9Y-105.9
X112.903Y-109.601
X113.65Y-148.66
X114.6Y-113.5
X115.2Y-124.1
X115.2Y-133.2
X115.24Y-139.76
X119.151Y-98.882
X119.507Y-100.813
T2
X36.779Y-62.395
X36.779Y-63.665
X36.779Y-70.015
X36.779Y-71.285
X36.779Y-99.225
X36.779Y-100.495
X36.779Y-106.845
X36.779Y-108.115
X38.049Y-62.395
X38.049Y-63.665
X38.049Y-70.015
X38.049Y-71.285
X38.049Y-99.225
X38.049Y-100.495
X38.049Y-106.845
X38.049Y-108.115
X39.319Y-62.395
X39.319Y-63.665
X39.319Y-70.015
X39.319Y-71.285
X39.319Y-99.225
X39.319Y-100.495
X39.319Y-106.845
X39.319Y-108.115
X40.589Y-62.395
X40.589Y-63.665
X40.589Y-70.015
X40.589Y-71.285
X40.589Y-99.225
X40.589Y-100.495
X40.589Y-106.845
X40.589Y-108.115
X41.859Y-62.395
X41.859Y-63.665
X41.859Y-70.015
X41.859Y-71.285
X41.859Y-99.225
X41.859Y-100.495
X41.859Y-106.845
X41.859Y-108.115
X43.129Y-62.395
X43.129Y-63.665
X43.129Y-70.015
X43.129Y-71.285
X43.129Y-99.225
X43.129Y-100.495
X43.129Y-106.845
X43.129Y-108.115
X44.399Y-62.395
X44.399Y-63.665
X44.399Y-70.015
X44.399Y-71.285
X44.399Y-99.225
X44.399Y-100.495
X44.399Y-106.845
X44.399Y-108.115
X45.669Y-62.395
X45.669Y-63.665
X45.669Y-70.015
X45.669Y-71.285
X45.669Y-99.225
X45.669Y-100.495
X45.669Y-106.845
X45.669Y-108.115
X46.939Y-62.395
X46.939Y-63.665
X46.939Y-70.015
X46.939Y-71.285
X46.939Y-99.225
X46.939Y-100.495
X46.939Y-106.845
X46.939Y-108.115
X48.209Y-62.395
X48.209Y-63.665
X48.209Y-70.015
X48.209Y-71.285
X48.209Y-99.225
X48.209Y-100.495
X48.209Y-106.845
X48.209Y-108.115
X49.479Y-62.395
X49.479Y-63.665
X49.479Y-70.015
X49.479Y-71.285
X49.479Y-99.225
X49.479Y-100.495
X49.479Y-106.845
X49.479Y-108.115
X50.749Y-62.395
X50.749Y-63.665
X50.749Y-70.015
X50.749Y-71.285
X50.749Y-99.225
X50.749Y-100.495
X50.749Y-106.845
X50.749Y-108.115
X52.019Y-62.395
X52.019Y-63.665
X52.019Y-70.015
X52.019Y-71.285
X52.019Y-99.225
X52.019Y-100.495
X52.019Y-106.845
X52.019Y-108.115
X53.289Y-62.395
X53.289Y-63.665
X53.289Y-70.015
X53.289Y-71.285
X53.289Y-99.225
X53.289Y-100.495
X53.289Y-106.845
X53.289Y-108.115
X54.559Y-62.395
X54.559Y-63.665
X54.559Y-70.015
X54.559Y-71.285
X54.559Y-99.225
X54.559Y-100.495
X54.559Y-106.845
X54.559Y-108.115
X55.829Y-62.395
X55.829Y-63.665
X55.829Y-70.015
X55.829Y-71.285
X55.829Y-99.225
X55.829Y-100.495
X55.829Y-106.845
X55.829Y-108.115
X57.099Y-62.395
X57.099Y-63.665
X57.099Y-70.015
X57.099Y-71.285
X57.099Y-99.225
X57.099Y-100.495
X57.099Y-106.845
X57.099Y-108.115
X58.369Y-62.395
X58.369Y-63.665
X58.369Y-70.015
X58.369Y-71.285
X58.369Y-99.225
X58.369Y-100.495
X58.369Y-106.845
X58.369Y-108.115
X59.639Y-62.395
X59.639Y-63.665
X59.639Y-70.015
X59.639Y-71.285
X59.639Y-99.225
X59.639Y-100.495
X59.639Y-106.845
X59.639Y-108.115
X60.909Y-62.395
X60.909Y-63.665
X60.909Y-70.015
X60.909Y-71.285
X60.909Y-99.225
X60.909Y-100.495
X60.909Y-106.845
X60.909Y-108.115
X92.659Y-99.225
X92.659Y-100.495
X92.659Y-106.845
X92.659Y-108.115
X93.929Y-99.225
X93.929Y-100.495
X93.929Y-106.845
X93.929Y-108.115
X95.199Y-99.225
X95.199Y-100.495
X95.199Y-106.845
X95.199Y-108.115
X96.469Y-99.225
X96.469Y-100.495
X96.469Y-106.845
X96.469Y-108.115
X97.739Y-99.225
X97.739Y-100.495
X97.739Y-106.845
X97.739Y-108.115
X99.009Y-62.395
X99.009Y-63.665
X99.009Y-99.225
X99.009Y-100.495
X99.009Y-106.845
X99.009Y-108.115
X100.279Y-62.395
X100.279Y-63.665
X100.279Y-99.225
X100.279Y-100.495
X100.279Y-106.845
X100.279Y-108.115
X101.549Y-62.395
X101.549Y-63.665
X101.549Y-99.225
X101.549Y-100.495
X101.549Y-106.845
X101.549Y-108.115
X102.819Y-62.395
X102.819Y-63.665
X102.819Y-99.225
X102.819Y-100.495
X102.819Y-106.845
X102.819Y-108.115
X104.089Y-62.395
X104.089Y-63.665
X104.089Y-99.225
X104.089Y-100.495
X104.089Y-106.845
X104.089Y-108.115
X105.359Y-62.395
X105.359Y-63.665
X105.359Y-99.225
X105.359Y-100.495
X105.359Y-106.845
X105.359Y-108.115
X106.629Y-62.395
X106.629Y-63.665
X106.629Y-99.225
X106.629Y-100.495
X106.629Y-106.845
X106.629Y-108.115
X107.899Y-62.395
X107.899Y-63.665
X107.899Y-99.225
X107.899Y-100.495
X107.899Y-106.845
X107.899Y-108.115
X109.169Y-62.395
X109.169Y-63.665
X109.169Y-99.225
X109.169Y-100.495
X109.169Y-106.845
X109.169Y-108.115
X110.439Y-62.395
X110.439Y-63.665
X110.439Y-99.225
X110.439Y-100.495
X110.439Y-106.845
X110.439Y-108.115
X111.709Y-62.395
X111.709Y-63.665
X111.709Y-99.225
X111.709Y-100.495
X111.709Y-106.845
X111.709Y-108.115
X112.979Y-62.395
X112.979Y-63.665
X112.979Y-99.225
X112.979Y-100.495
X112.979Y-106.845
X112.979Y-108.115
X114.249Y-62.395
X114.249Y-63.665
X114.249Y-99.225
X114.249Y-100.495
X114.249Y-106.845
X114.249Y-108.115
X115.519Y-62.395
X115.519Y-63.665
X115.519Y-99.225
X115.519Y-100.495
X115.519Y-106.845
X115.519Y-108.115
X116.789Y-62.395
X116.789Y-63.665
X116.789Y-99.225
X116.789Y-100.495
X116.789Y-106.845
X116.789Y-108.115
T3
X45.89Y-75.19
X45.89Y-77.73
X45.89Y-80.27
X45.89Y-82.81
X45.89Y-85.35
X45.89Y-87.89
X45.89Y-90.43
X45.89Y-92.97
X45.89Y-95.51
X108.12Y-81.54
X108.12Y-84.08
X108.12Y-86.62
X108.12Y-89.16
T0
M30
