G04 #@! TF.FileFunction,Soldermask,Top*
%FSLAX46Y46*%
G04 Gerber Fmt 4.6, Leading zero omitted, Abs format (unit mm)*
G04 Created by KiCad (PCBNEW 4.0.2-stable) date 05.06.2016 11:41:23*
%MOMM*%
G01*
G04 APERTURE LIST*
%ADD10C,0.150000*%
%ADD11C,0.900000*%
%ADD12R,1.400000X0.950000*%
%ADD13R,0.950000X1.400000*%
%ADD14R,0.485000X1.200000*%
%ADD15R,0.901040X7.200240*%
%ADD16R,0.901040X6.199480*%
%ADD17R,1.100000X1.400000*%
%ADD18R,0.600000X1.200000*%
%ADD19R,0.650000X1.650000*%
%ADD20C,1.700000*%
%ADD21R,0.850000X1.760000*%
%ADD22C,1.724000*%
%ADD23C,0.254000*%
G04 APERTURE END LIST*
D10*
D11*
X99009200Y-62395100D03*
X99009200Y-63665100D03*
X100279200Y-62395100D03*
X100279200Y-63665100D03*
X101549200Y-62395100D03*
X101549200Y-63665100D03*
X102819200Y-62395100D03*
X102819200Y-63665100D03*
X104089200Y-62395100D03*
X104089200Y-63665100D03*
X105359200Y-62395100D03*
X105359200Y-63665100D03*
X106629200Y-62395100D03*
X106629200Y-63665100D03*
X107899200Y-62395100D03*
X107899200Y-63665100D03*
X109169200Y-62395100D03*
X109169200Y-63665100D03*
X110439200Y-62395100D03*
X110439200Y-63665100D03*
X111709200Y-62395100D03*
X111709200Y-63665100D03*
X112979200Y-62395100D03*
X112979200Y-63665100D03*
X114249200Y-62395100D03*
X114249200Y-63665100D03*
X36779200Y-62395100D03*
X36779200Y-63665100D03*
X38049200Y-62395100D03*
X38049200Y-63665100D03*
X39319200Y-62395100D03*
X39319200Y-63665100D03*
X40589200Y-62395100D03*
X40589200Y-63665100D03*
X41859200Y-62395100D03*
X41859200Y-63665100D03*
X43129200Y-62395100D03*
X43129200Y-63665100D03*
X44399200Y-62395100D03*
X44399200Y-63665100D03*
X45669200Y-62395100D03*
X45669200Y-63665100D03*
X46939200Y-62395100D03*
X46939200Y-63665100D03*
X48209200Y-62395100D03*
X48209200Y-63665100D03*
X49479200Y-62395100D03*
X49479200Y-63665100D03*
X50749200Y-62395100D03*
X50749200Y-63665100D03*
X52019200Y-62395100D03*
X52019200Y-63665100D03*
X53289200Y-62395100D03*
X53289200Y-63665100D03*
X54559200Y-62395100D03*
X54559200Y-63665100D03*
X55829200Y-62395100D03*
X55829200Y-63665100D03*
X57099200Y-62395100D03*
X57099200Y-63665100D03*
X58369200Y-62395100D03*
X58369200Y-63665100D03*
X59639200Y-62395100D03*
X59639200Y-63665100D03*
X60909200Y-62395100D03*
X60909200Y-63665100D03*
X60909200Y-108115100D03*
X60909200Y-106845100D03*
X59639200Y-108115100D03*
X59639200Y-106845100D03*
X58369200Y-108115100D03*
X58369200Y-106845100D03*
X57099200Y-108115100D03*
X57099200Y-106845100D03*
X55829200Y-108115100D03*
X55829200Y-106845100D03*
X54559200Y-108115100D03*
X54559200Y-106845100D03*
X53289200Y-108115100D03*
X53289200Y-106845100D03*
X52019200Y-108115100D03*
X52019200Y-106845100D03*
X50749200Y-108115100D03*
X50749200Y-106845100D03*
X49479200Y-108115100D03*
X49479200Y-106845100D03*
X48209200Y-108115100D03*
X48209200Y-106845100D03*
X46939200Y-108115100D03*
X46939200Y-106845100D03*
X45669200Y-108115100D03*
X45669200Y-106845100D03*
X44399200Y-108115100D03*
X44399200Y-106845100D03*
X43129200Y-108115100D03*
X43129200Y-106845100D03*
X41859200Y-108115100D03*
X41859200Y-106845100D03*
X40589200Y-108115100D03*
X40589200Y-106845100D03*
X39319200Y-108115100D03*
X39319200Y-106845100D03*
X38049200Y-108115100D03*
X38049200Y-106845100D03*
X36779200Y-108115100D03*
X36779200Y-106845100D03*
X60909200Y-100495100D03*
X60909200Y-99225100D03*
X59639200Y-100495100D03*
X59639200Y-99225100D03*
X58369200Y-100495100D03*
X58369200Y-99225100D03*
X57099200Y-100495100D03*
X57099200Y-99225100D03*
X55829200Y-100495100D03*
X55829200Y-99225100D03*
X54559200Y-100495100D03*
X54559200Y-99225100D03*
X53289200Y-100495100D03*
X53289200Y-99225100D03*
X52019200Y-100495100D03*
X52019200Y-99225100D03*
X50749200Y-99225100D03*
X50749200Y-100495100D03*
X49479200Y-100495100D03*
X49479200Y-99225100D03*
X48209200Y-100495100D03*
X48209200Y-99225100D03*
X46939200Y-100495100D03*
X46939200Y-99225100D03*
X45669200Y-100495100D03*
X45669200Y-99225100D03*
X44399200Y-99225100D03*
X44399200Y-100495100D03*
X43129200Y-100495100D03*
X43129200Y-99225100D03*
X41859200Y-100495100D03*
X41859200Y-99225100D03*
X40589200Y-100495100D03*
X40589200Y-99225100D03*
X39319200Y-100495100D03*
X39319200Y-99225100D03*
X38049200Y-99225100D03*
X38049200Y-100495100D03*
X36779200Y-100495100D03*
X36779200Y-99225100D03*
X102819200Y-106845100D03*
X104089200Y-108115100D03*
X104089200Y-106845100D03*
X102819200Y-108115100D03*
X100279200Y-108115100D03*
X100279200Y-106845100D03*
X99009200Y-108115100D03*
X99009200Y-106845100D03*
X96469200Y-106845100D03*
X97739200Y-108115100D03*
X97739200Y-106845100D03*
X96469200Y-108115100D03*
X95199200Y-108115100D03*
X95199200Y-106845100D03*
X93929200Y-108115100D03*
X93929200Y-106845100D03*
X92659200Y-108115100D03*
X92659200Y-106845100D03*
X101549200Y-108115100D03*
X101549200Y-106845100D03*
X112979200Y-108115100D03*
X112979200Y-106845100D03*
X111709200Y-108115100D03*
X111709200Y-106845100D03*
X114249200Y-108115100D03*
X114249200Y-106845100D03*
X109169200Y-106845100D03*
X110439200Y-108115100D03*
X110439200Y-106845100D03*
X109169200Y-108115100D03*
X107899200Y-108115100D03*
X107899200Y-106845100D03*
X106629200Y-108115100D03*
X106629200Y-106845100D03*
X105359200Y-108115100D03*
X105359200Y-106845100D03*
X115519200Y-106845100D03*
X116789200Y-108115100D03*
X116789200Y-106845100D03*
X115519200Y-108115100D03*
X96469200Y-100495100D03*
X97739200Y-100495100D03*
X96469200Y-99225100D03*
X97739200Y-99225100D03*
X95199200Y-100495100D03*
X93929200Y-100495100D03*
X93929200Y-99225100D03*
X92659200Y-100495100D03*
X95199200Y-99225100D03*
X92659200Y-99225100D03*
X115519200Y-100495100D03*
X116789200Y-100495100D03*
X115519200Y-99225100D03*
X116789200Y-99225100D03*
X105359200Y-100495100D03*
X102819200Y-99225100D03*
X104089200Y-100495100D03*
X104089200Y-99225100D03*
X102819200Y-100495100D03*
X105359200Y-99225100D03*
X107899200Y-100495100D03*
X107899200Y-99225100D03*
X109169200Y-100495100D03*
X106629200Y-100495100D03*
X110439200Y-99225100D03*
X109169200Y-99225100D03*
X110439200Y-100495100D03*
X106629200Y-99225100D03*
X101549200Y-100495100D03*
X100279200Y-100495100D03*
X100279200Y-99225100D03*
X99009200Y-100495100D03*
X99009200Y-99225100D03*
X101549200Y-99225100D03*
X114249200Y-100495100D03*
X112979200Y-100495100D03*
X112979200Y-99225100D03*
X111709200Y-100495100D03*
X111709200Y-99225100D03*
X114249200Y-99225100D03*
X36779200Y-70015100D03*
X36779200Y-71285100D03*
X38049200Y-70015100D03*
X38049200Y-71285100D03*
X39319200Y-70015100D03*
X39319200Y-71285100D03*
X40589200Y-70015100D03*
X40589200Y-71285100D03*
X41859200Y-70015100D03*
X41859200Y-71285100D03*
X43129200Y-70015100D03*
X43129200Y-71285100D03*
X44399200Y-70015100D03*
X44399200Y-71285100D03*
X45669200Y-70015100D03*
X45669200Y-71285100D03*
X46939200Y-70015100D03*
X46939200Y-71285100D03*
X48209200Y-70015100D03*
X48209200Y-71285100D03*
X49479200Y-70015100D03*
X49479200Y-71285100D03*
X50749200Y-70015100D03*
X50749200Y-71285100D03*
X52019200Y-70015100D03*
X52019200Y-71285100D03*
X53289200Y-70015100D03*
X53289200Y-71285100D03*
X54559200Y-70015100D03*
X54559200Y-71285100D03*
X55829200Y-70015100D03*
X55829200Y-71285100D03*
X57099200Y-70015100D03*
X57099200Y-71285100D03*
X58369200Y-70015100D03*
X58369200Y-71285100D03*
X59639200Y-70015100D03*
X59639200Y-71285100D03*
X60909200Y-70015100D03*
X60909200Y-71285100D03*
X115519200Y-62395100D03*
X115519200Y-63665100D03*
X116789200Y-62395100D03*
X116789200Y-63665100D03*
X119646700Y-63030100D03*
X96151700Y-63030100D03*
X63766700Y-63030100D03*
X33921700Y-63030100D03*
X63766700Y-70650100D03*
X33921700Y-70650100D03*
X63766700Y-99860100D03*
X63766700Y-107480100D03*
X33921700Y-99860100D03*
X33921700Y-107480100D03*
X119646700Y-99860100D03*
X89801700Y-99860100D03*
X89801700Y-107480100D03*
X119646700Y-107480100D03*
D12*
X33462000Y-61620400D03*
X31562000Y-61620400D03*
X42880000Y-142850000D03*
X44780000Y-142850000D03*
X38190000Y-143550000D03*
X36290000Y-143550000D03*
D13*
X116530000Y-139670000D03*
X116530000Y-137770000D03*
X110920000Y-130730000D03*
X110920000Y-128830000D03*
D12*
X36500000Y-141270000D03*
X34600000Y-141270000D03*
X95140000Y-129550000D03*
X93240000Y-129550000D03*
D13*
X97590000Y-118920000D03*
X97590000Y-117020000D03*
X63300000Y-142400000D03*
X63300000Y-144300000D03*
X74650000Y-137250000D03*
X74650000Y-139150000D03*
X101000000Y-118730000D03*
X101000000Y-116830000D03*
D14*
X102430000Y-140730000D03*
X102930000Y-140730000D03*
X103430000Y-140730000D03*
X103930000Y-140730000D03*
X104430000Y-140730000D03*
X104930000Y-140730000D03*
X105430000Y-140730000D03*
X105930000Y-140730000D03*
X106430000Y-140730000D03*
X106930000Y-140730000D03*
X107430000Y-140730000D03*
X107930000Y-140730000D03*
X108430000Y-140730000D03*
X108930000Y-140730000D03*
X109430000Y-140730000D03*
X109930000Y-140730000D03*
X110430000Y-140730000D03*
X110930000Y-140730000D03*
X111430000Y-140730000D03*
X111930000Y-140730000D03*
X112430000Y-140730000D03*
X112930000Y-140730000D03*
X113430000Y-140730000D03*
X113930000Y-140730000D03*
X113930000Y-133230000D03*
X113430000Y-133230000D03*
X112930000Y-133230000D03*
X112430000Y-133230000D03*
X111930000Y-133230000D03*
X111430000Y-133230000D03*
X110930000Y-133230000D03*
X110430000Y-133230000D03*
X109930000Y-133230000D03*
X109430000Y-133230000D03*
X108930000Y-133230000D03*
X108430000Y-133230000D03*
X107930000Y-133230000D03*
X107430000Y-133230000D03*
X106930000Y-133230000D03*
X106430000Y-133230000D03*
X105930000Y-133230000D03*
X105430000Y-133230000D03*
X104930000Y-133230000D03*
X104430000Y-133230000D03*
X103930000Y-133230000D03*
X103430000Y-133230000D03*
X102930000Y-133230000D03*
X102430000Y-133230000D03*
X54800000Y-139900000D03*
X55300000Y-139900000D03*
X55800000Y-139900000D03*
X56300000Y-139900000D03*
X56800000Y-139900000D03*
X57300000Y-139900000D03*
X57800000Y-139900000D03*
X58300000Y-139900000D03*
X58800000Y-139900000D03*
X59300000Y-139900000D03*
X59800000Y-139900000D03*
X60300000Y-139900000D03*
X60800000Y-139900000D03*
X61300000Y-139900000D03*
X61800000Y-139900000D03*
X62300000Y-139900000D03*
X62800000Y-139900000D03*
X63300000Y-139900000D03*
X63800000Y-139900000D03*
X64300000Y-139900000D03*
X64800000Y-139900000D03*
X65300000Y-139900000D03*
X65800000Y-139900000D03*
X66300000Y-139900000D03*
X66300000Y-132400000D03*
X65800000Y-132400000D03*
X65300000Y-132400000D03*
X64800000Y-132400000D03*
X64300000Y-132400000D03*
X63800000Y-132400000D03*
X63300000Y-132400000D03*
X62800000Y-132400000D03*
X62300000Y-132400000D03*
X61800000Y-132400000D03*
X61300000Y-132400000D03*
X60800000Y-132400000D03*
X60300000Y-132400000D03*
X59800000Y-132400000D03*
X59300000Y-132400000D03*
X58800000Y-132400000D03*
X58300000Y-132400000D03*
X57800000Y-132400000D03*
X57300000Y-132400000D03*
X56800000Y-132400000D03*
X56300000Y-132400000D03*
X55800000Y-132400000D03*
X55300000Y-132400000D03*
X54800000Y-132400000D03*
X77200000Y-138380000D03*
X77700000Y-138380000D03*
X78200000Y-138380000D03*
X78700000Y-138380000D03*
X79200000Y-138380000D03*
X79700000Y-138380000D03*
X80200000Y-138380000D03*
X80700000Y-138380000D03*
X81200000Y-138380000D03*
X81700000Y-138380000D03*
X82200000Y-138380000D03*
X82700000Y-138380000D03*
X83200000Y-138380000D03*
X83700000Y-138380000D03*
X84200000Y-138380000D03*
X84700000Y-138380000D03*
X85200000Y-138380000D03*
X85700000Y-138380000D03*
X86200000Y-138380000D03*
X86700000Y-138380000D03*
X87200000Y-138380000D03*
X87700000Y-138380000D03*
X88200000Y-138380000D03*
X88700000Y-138380000D03*
X88700000Y-130880000D03*
X88200000Y-130880000D03*
X87700000Y-130880000D03*
X87200000Y-130880000D03*
X86700000Y-130880000D03*
X86200000Y-130880000D03*
X85700000Y-130880000D03*
X85200000Y-130880000D03*
X84700000Y-130880000D03*
X84200000Y-130880000D03*
X83700000Y-130880000D03*
X83200000Y-130880000D03*
X82700000Y-130880000D03*
X82200000Y-130880000D03*
X81700000Y-130880000D03*
X81200000Y-130880000D03*
X80700000Y-130880000D03*
X80200000Y-130880000D03*
X79700000Y-130880000D03*
X79200000Y-130880000D03*
X78700000Y-130880000D03*
X78200000Y-130880000D03*
X77700000Y-130880000D03*
X77200000Y-130880000D03*
D15*
X40855900Y-153779220D03*
X41854120Y-153779220D03*
D16*
X42855140Y-153280100D03*
X43855640Y-153279220D03*
X44856400Y-153279220D03*
X45854620Y-153279220D03*
D15*
X46855140Y-153780100D03*
X47856140Y-153779220D03*
D16*
X48854360Y-153279220D03*
X49855120Y-153279220D03*
X50855880Y-153279220D03*
X51854100Y-153279220D03*
D15*
X52854860Y-153779220D03*
D16*
X53855620Y-153279220D03*
X54856380Y-153279220D03*
X55854600Y-153279220D03*
X56855360Y-153279220D03*
D15*
X57856120Y-153779220D03*
D16*
X58854340Y-153279220D03*
X59855100Y-153279220D03*
X60855860Y-153279220D03*
X61854080Y-153279220D03*
D15*
X62854840Y-153779220D03*
D16*
X63855600Y-153279220D03*
X64856360Y-153279220D03*
X65854580Y-153279220D03*
D15*
X66855340Y-153779220D03*
D16*
X67856100Y-153279220D03*
D15*
X68854320Y-153779220D03*
D16*
X69855080Y-153279220D03*
X70855840Y-153279220D03*
X71854060Y-153279220D03*
X72854820Y-153279220D03*
X73855580Y-153279220D03*
X74856340Y-153279220D03*
D15*
X75854560Y-153779220D03*
X40855900Y-153779220D03*
X41854120Y-153779220D03*
D16*
X42855140Y-153280100D03*
X43855140Y-153280100D03*
X44856400Y-153279220D03*
X45854620Y-153279220D03*
X46855380Y-153279220D03*
D15*
X47856140Y-153779220D03*
D16*
X48854360Y-153279220D03*
X49855120Y-153279220D03*
X50855880Y-153279220D03*
X51854100Y-153279220D03*
D15*
X52854860Y-153779220D03*
D16*
X53855620Y-153279220D03*
X54856380Y-153279220D03*
X55854600Y-153279220D03*
X56855360Y-153279220D03*
D15*
X57856120Y-153779220D03*
D16*
X58854340Y-153279220D03*
X59855100Y-153279220D03*
X60855860Y-153279220D03*
X61854080Y-153279220D03*
D15*
X62854840Y-153779220D03*
D16*
X63855600Y-153279220D03*
X64856360Y-153279220D03*
X65854580Y-153279220D03*
D15*
X66855340Y-153779220D03*
D16*
X67856100Y-153279220D03*
D15*
X68854320Y-153779220D03*
D16*
X69855080Y-153279220D03*
X70855840Y-153279220D03*
X71854060Y-153279220D03*
X72854820Y-153279220D03*
X73855580Y-153279220D03*
X74856340Y-153279220D03*
D15*
X75854560Y-153779220D03*
D16*
X83855560Y-153279220D03*
X84856320Y-153279220D03*
X85854540Y-153279220D03*
X86855300Y-153279220D03*
D15*
X87856060Y-153779220D03*
D16*
X88854280Y-153279220D03*
X89855040Y-153279220D03*
X90855800Y-153279220D03*
X91854020Y-153279220D03*
D15*
X92854780Y-153779220D03*
D16*
X93855540Y-153279220D03*
X94856300Y-153279220D03*
X95854520Y-153279220D03*
X96855280Y-153279220D03*
X97856040Y-153279220D03*
X98854260Y-153279220D03*
X99855020Y-153279220D03*
D15*
X100855780Y-153779220D03*
D16*
X101854000Y-153279220D03*
X102854760Y-153279220D03*
X103855520Y-153279220D03*
X104856280Y-153279220D03*
D15*
X105854500Y-153779220D03*
D16*
X106855260Y-153279220D03*
X107856020Y-153279220D03*
X108854240Y-153279220D03*
X109855000Y-153279220D03*
D15*
X110855760Y-153779220D03*
X111853980Y-153779220D03*
D16*
X112854740Y-153279220D03*
D15*
X113855500Y-153779220D03*
D16*
X83855560Y-153279220D03*
X84856320Y-153279220D03*
X85854540Y-153279220D03*
X86855300Y-153279220D03*
D15*
X87856060Y-153779220D03*
D16*
X88854280Y-153279220D03*
X89855040Y-153279220D03*
X90855800Y-153279220D03*
X91854020Y-153279220D03*
D15*
X92854780Y-153779220D03*
D16*
X93855540Y-153279220D03*
X94856300Y-153279220D03*
X95854520Y-153279220D03*
X96855280Y-153279220D03*
X97856040Y-153279220D03*
X98854260Y-153279220D03*
X99855020Y-153279220D03*
D15*
X100855780Y-153779220D03*
D16*
X101854000Y-153279220D03*
X102854760Y-153279220D03*
X103855520Y-153279220D03*
X104856280Y-153279220D03*
D15*
X105854500Y-153779220D03*
D16*
X106855260Y-153279220D03*
X107856020Y-153279220D03*
X108854240Y-153279220D03*
X109855000Y-153279220D03*
D15*
X110855760Y-153779220D03*
X111853980Y-153779220D03*
D16*
X112854740Y-153279220D03*
D15*
X113855500Y-153779220D03*
D13*
X85660000Y-128210000D03*
X85660000Y-126310000D03*
X57790000Y-130320000D03*
X57790000Y-128420000D03*
X96680000Y-125030000D03*
X96680000Y-123130000D03*
X74110000Y-119870000D03*
X74110000Y-117970000D03*
X74650000Y-132550000D03*
X74650000Y-134450000D03*
X41780000Y-130210000D03*
X41780000Y-128310000D03*
X35331400Y-61991200D03*
X35331400Y-63891200D03*
X118237000Y-100477400D03*
X118237000Y-98577400D03*
X62407800Y-108249800D03*
X62407800Y-106349800D03*
D12*
X60840000Y-102450000D03*
X58940000Y-102450000D03*
D13*
X116840000Y-109800000D03*
X116840000Y-111700000D03*
D12*
X116900000Y-65750000D03*
X115000000Y-65750000D03*
X116880000Y-67980000D03*
X114980000Y-67980000D03*
X117340000Y-60560000D03*
X115440000Y-60560000D03*
X119507000Y-60579000D03*
X121407000Y-60579000D03*
D13*
X84600000Y-77890000D03*
X84600000Y-75990000D03*
X30740000Y-117930000D03*
X30740000Y-119830000D03*
D12*
X84530000Y-80590000D03*
X86430000Y-80590000D03*
D13*
X33220000Y-78930000D03*
X33220000Y-77030000D03*
X41670000Y-85340000D03*
X41670000Y-87240000D03*
D17*
X30380000Y-110250000D03*
X30380000Y-108050000D03*
X30290000Y-105630000D03*
X30290000Y-103430000D03*
X30390000Y-113200000D03*
X30390000Y-115400000D03*
D18*
X82215000Y-76350000D03*
X81565000Y-76350000D03*
X80915000Y-76350000D03*
X80265000Y-76350000D03*
X79615000Y-76350000D03*
X78965000Y-76350000D03*
X78315000Y-76350000D03*
X77665000Y-76350000D03*
X77015000Y-76350000D03*
X76365000Y-76350000D03*
X76365000Y-82150000D03*
X77015000Y-82150000D03*
X77665000Y-82150000D03*
X78315000Y-82150000D03*
X78965000Y-82150000D03*
X79615000Y-82150000D03*
X80265000Y-82150000D03*
X80915000Y-82150000D03*
X81565000Y-82150000D03*
X82215000Y-82150000D03*
X74765000Y-122690000D03*
X74115000Y-122690000D03*
X73465000Y-122690000D03*
X72815000Y-122690000D03*
X72165000Y-122690000D03*
X71515000Y-122690000D03*
X70865000Y-122690000D03*
X70215000Y-122690000D03*
X69565000Y-122690000D03*
X68915000Y-122690000D03*
X68915000Y-128490000D03*
X69565000Y-128490000D03*
X70215000Y-128490000D03*
X70865000Y-128490000D03*
X71515000Y-128490000D03*
X72165000Y-128490000D03*
X72815000Y-128490000D03*
X73465000Y-128490000D03*
X74115000Y-128490000D03*
X74765000Y-128490000D03*
D14*
X38520000Y-139880000D03*
X39020000Y-139880000D03*
X39520000Y-139880000D03*
X40020000Y-139880000D03*
X40520000Y-139880000D03*
X41020000Y-139880000D03*
X41520000Y-139880000D03*
X42020000Y-139880000D03*
X42520000Y-139880000D03*
X43020000Y-139880000D03*
X43520000Y-139880000D03*
X44020000Y-139880000D03*
X44520000Y-139880000D03*
X45020000Y-139880000D03*
X45520000Y-139880000D03*
X46020000Y-139880000D03*
X46520000Y-139880000D03*
X47020000Y-139880000D03*
X47520000Y-139880000D03*
X48020000Y-139880000D03*
X48520000Y-139880000D03*
X49020000Y-139880000D03*
X49520000Y-139880000D03*
X50020000Y-139880000D03*
X50020000Y-132380000D03*
X49520000Y-132380000D03*
X49020000Y-132380000D03*
X48520000Y-132380000D03*
X48020000Y-132380000D03*
X47520000Y-132380000D03*
X47020000Y-132380000D03*
X46520000Y-132380000D03*
X46020000Y-132380000D03*
X45520000Y-132380000D03*
X45020000Y-132380000D03*
X44520000Y-132380000D03*
X44020000Y-132380000D03*
X43520000Y-132380000D03*
X43020000Y-132380000D03*
X42520000Y-132380000D03*
X42020000Y-132380000D03*
X41520000Y-132380000D03*
X41020000Y-132380000D03*
X40520000Y-132380000D03*
X40020000Y-132380000D03*
X39520000Y-132380000D03*
X39020000Y-132380000D03*
X38520000Y-132380000D03*
D19*
X33805000Y-118490000D03*
X34455000Y-118490000D03*
X35105000Y-118490000D03*
X35755000Y-118490000D03*
X35755000Y-112590000D03*
X35105000Y-112590000D03*
X34455000Y-112590000D03*
X33805000Y-112590000D03*
D20*
X91970000Y-65050000D03*
X67770000Y-65050000D03*
D21*
X101320000Y-121730000D03*
X100370000Y-121730000D03*
X99420000Y-121730000D03*
X99420000Y-124430000D03*
X101320000Y-124430000D03*
X100370000Y-124430000D03*
X100240000Y-127560000D03*
X99290000Y-127560000D03*
X98340000Y-127560000D03*
X98340000Y-130260000D03*
X100240000Y-130260000D03*
X99290000Y-130260000D03*
D18*
X41905000Y-77340000D03*
X41255000Y-77340000D03*
X40605000Y-77340000D03*
X39955000Y-77340000D03*
X39305000Y-77340000D03*
X38655000Y-77340000D03*
X38005000Y-77340000D03*
X37355000Y-77340000D03*
X36705000Y-77340000D03*
X36055000Y-77340000D03*
X36055000Y-83140000D03*
X36705000Y-83140000D03*
X37355000Y-83140000D03*
X38005000Y-83140000D03*
X38655000Y-83140000D03*
X39305000Y-83140000D03*
X39955000Y-83140000D03*
X40605000Y-83140000D03*
X41255000Y-83140000D03*
X41905000Y-83140000D03*
D22*
X45890000Y-75190000D03*
X45890000Y-77730000D03*
X45890000Y-80270000D03*
X45890000Y-82810000D03*
X45890000Y-85350000D03*
X45890000Y-87890000D03*
X45890000Y-90430000D03*
X45890000Y-92970000D03*
X45890000Y-95510000D03*
X108120000Y-81540000D03*
X108120000Y-84080000D03*
X108120000Y-89160000D03*
X108120000Y-86620000D03*
D23*
G36*
X76730860Y-158153100D02*
X39984680Y-158153100D01*
X39984680Y-150157180D01*
X76730860Y-150157180D01*
X76730860Y-158153100D01*
X76730860Y-158153100D01*
G37*
X76730860Y-158153100D02*
X39984680Y-158153100D01*
X39984680Y-150157180D01*
X76730860Y-150157180D01*
X76730860Y-158153100D01*
G36*
X114731800Y-158153100D02*
X82984340Y-158153100D01*
X82984340Y-150157180D01*
X114731800Y-150157180D01*
X114731800Y-158153100D01*
X114731800Y-158153100D01*
G37*
X114731800Y-158153100D02*
X82984340Y-158153100D01*
X82984340Y-150157180D01*
X114731800Y-150157180D01*
X114731800Y-158153100D01*
M02*
