G04 #@! TF.FileFunction,Legend,Bot*
%FSLAX46Y46*%
G04 Gerber Fmt 4.6, Leading zero omitted, Abs format (unit mm)*
G04 Created by KiCad (PCBNEW 4.0.2-stable) date 14/07/2016 12:53:21*
%MOMM*%
G01*
G04 APERTURE LIST*
%ADD10C,0.152400*%
%ADD11C,0.127000*%
%ADD12C,0.381000*%
%ADD13C,0.190500*%
%ADD14C,0.002540*%
%ADD15C,0.150000*%
G04 APERTURE END LIST*
D10*
D11*
X116639048Y-109802262D02*
X116215714Y-110437262D01*
X116215714Y-109802262D02*
X116639048Y-110437262D01*
X116004048Y-109862738D02*
X115973810Y-109832500D01*
X115913333Y-109802262D01*
X115762143Y-109802262D01*
X115701667Y-109832500D01*
X115671429Y-109862738D01*
X115641190Y-109923214D01*
X115641190Y-109983690D01*
X115671429Y-110074405D01*
X116034286Y-110437262D01*
X115641190Y-110437262D01*
X109614048Y-102627262D02*
X109190714Y-103262262D01*
X109190714Y-102627262D02*
X109614048Y-103262262D01*
X109009286Y-102627262D02*
X108616190Y-102627262D01*
X108827857Y-102869167D01*
X108737143Y-102869167D01*
X108676667Y-102899405D01*
X108646429Y-102929643D01*
X108616190Y-102990119D01*
X108616190Y-103141310D01*
X108646429Y-103201786D01*
X108676667Y-103232024D01*
X108737143Y-103262262D01*
X108918571Y-103262262D01*
X108979048Y-103232024D01*
X109009286Y-103201786D01*
D12*
X105100000Y-106975000D02*
X105100000Y-103925000D01*
X117100000Y-106975000D02*
X105100000Y-106975000D01*
X117100000Y-103925000D02*
X117100000Y-106975000D01*
X105100000Y-103925000D02*
X117100000Y-103925000D01*
X112225000Y-116825000D02*
X112225000Y-111075000D01*
X117075000Y-116825000D02*
X112225000Y-116825000D01*
X117075000Y-111075000D02*
X117075000Y-116825000D01*
X112225000Y-111075000D02*
X117075000Y-111075000D01*
D11*
X116248810Y-112180262D02*
X116248810Y-111545262D01*
X116097619Y-111545262D01*
X116006905Y-111575500D01*
X115946429Y-111635976D01*
X115916190Y-111696452D01*
X115885952Y-111817405D01*
X115885952Y-111908119D01*
X115916190Y-112029071D01*
X115946429Y-112089548D01*
X116006905Y-112150024D01*
X116097619Y-112180262D01*
X116248810Y-112180262D01*
X115311429Y-111545262D02*
X115613810Y-111545262D01*
X115644048Y-111847643D01*
X115613810Y-111817405D01*
X115553333Y-111787167D01*
X115402143Y-111787167D01*
X115341667Y-111817405D01*
X115311429Y-111847643D01*
X115281190Y-111908119D01*
X115281190Y-112059310D01*
X115311429Y-112119786D01*
X115341667Y-112150024D01*
X115402143Y-112180262D01*
X115553333Y-112180262D01*
X115613810Y-112150024D01*
X115644048Y-112119786D01*
X116279048Y-113014833D02*
X115976667Y-113014833D01*
X116339524Y-113196262D02*
X116127857Y-112561262D01*
X115916190Y-113196262D01*
X115371904Y-113196262D02*
X115734762Y-113196262D01*
X115553333Y-113196262D02*
X115553333Y-112561262D01*
X115613809Y-112651976D01*
X115674285Y-112712452D01*
X115734762Y-112742690D01*
X116248810Y-114212262D02*
X116248810Y-113577262D01*
X116097619Y-113577262D01*
X116006905Y-113607500D01*
X115946429Y-113667976D01*
X115916190Y-113728452D01*
X115885952Y-113849405D01*
X115885952Y-113940119D01*
X115916190Y-114061071D01*
X115946429Y-114121548D01*
X116006905Y-114182024D01*
X116097619Y-114212262D01*
X116248810Y-114212262D01*
X115281190Y-114212262D02*
X115644048Y-114212262D01*
X115462619Y-114212262D02*
X115462619Y-113577262D01*
X115523095Y-113667976D01*
X115583571Y-113728452D01*
X115644048Y-113758690D01*
X116248810Y-115228262D02*
X116248810Y-114593262D01*
X116097619Y-114593262D01*
X116006905Y-114623500D01*
X115946429Y-114683976D01*
X115916190Y-114744452D01*
X115885952Y-114865405D01*
X115885952Y-114956119D01*
X115916190Y-115077071D01*
X115946429Y-115137548D01*
X116006905Y-115198024D01*
X116097619Y-115228262D01*
X116248810Y-115228262D01*
X115674286Y-114593262D02*
X115281190Y-114593262D01*
X115492857Y-114835167D01*
X115402143Y-114835167D01*
X115341667Y-114865405D01*
X115311429Y-114895643D01*
X115281190Y-114956119D01*
X115281190Y-115107310D01*
X115311429Y-115167786D01*
X115341667Y-115198024D01*
X115402143Y-115228262D01*
X115583571Y-115228262D01*
X115644048Y-115198024D01*
X115674286Y-115167786D01*
X116309286Y-115609262D02*
X115916190Y-115609262D01*
X116127857Y-115851167D01*
X116037143Y-115851167D01*
X115976667Y-115881405D01*
X115946429Y-115911643D01*
X115916190Y-115972119D01*
X115916190Y-116123310D01*
X115946429Y-116183786D01*
X115976667Y-116214024D01*
X116037143Y-116244262D01*
X116218571Y-116244262D01*
X116279048Y-116214024D01*
X116309286Y-116183786D01*
X115734762Y-115609262D02*
X115523095Y-116244262D01*
X115311428Y-115609262D01*
X115160238Y-115609262D02*
X114767142Y-115609262D01*
X114978809Y-115851167D01*
X114888095Y-115851167D01*
X114827619Y-115881405D01*
X114797381Y-115911643D01*
X114767142Y-115972119D01*
X114767142Y-116123310D01*
X114797381Y-116183786D01*
X114827619Y-116214024D01*
X114888095Y-116244262D01*
X115069523Y-116244262D01*
X115130000Y-116214024D01*
X115160238Y-116183786D01*
X113763572Y-112180262D02*
X113763572Y-111545262D01*
X113612381Y-111545262D01*
X113521667Y-111575500D01*
X113461191Y-111635976D01*
X113430952Y-111696452D01*
X113400714Y-111817405D01*
X113400714Y-111908119D01*
X113430952Y-112029071D01*
X113461191Y-112089548D01*
X113521667Y-112150024D01*
X113612381Y-112180262D01*
X113763572Y-112180262D01*
X112856429Y-111545262D02*
X112977381Y-111545262D01*
X113037857Y-111575500D01*
X113068095Y-111605738D01*
X113128572Y-111696452D01*
X113158810Y-111817405D01*
X113158810Y-112059310D01*
X113128572Y-112119786D01*
X113098333Y-112150024D01*
X113037857Y-112180262D01*
X112916905Y-112180262D01*
X112856429Y-112150024D01*
X112826191Y-112119786D01*
X112795952Y-112059310D01*
X112795952Y-111908119D01*
X112826191Y-111847643D01*
X112856429Y-111817405D01*
X112916905Y-111787167D01*
X113037857Y-111787167D01*
X113098333Y-111817405D01*
X113128572Y-111847643D01*
X113158810Y-111908119D01*
X113763572Y-113196262D02*
X113763572Y-112561262D01*
X113612381Y-112561262D01*
X113521667Y-112591500D01*
X113461191Y-112651976D01*
X113430952Y-112712452D01*
X113400714Y-112833405D01*
X113400714Y-112924119D01*
X113430952Y-113045071D01*
X113461191Y-113105548D01*
X113521667Y-113166024D01*
X113612381Y-113196262D01*
X113763572Y-113196262D01*
X112856429Y-112772929D02*
X112856429Y-113196262D01*
X113007619Y-112531024D02*
X113158810Y-112984595D01*
X112765714Y-112984595D01*
X113763572Y-114212262D02*
X113763572Y-113577262D01*
X113612381Y-113577262D01*
X113521667Y-113607500D01*
X113461191Y-113667976D01*
X113430952Y-113728452D01*
X113400714Y-113849405D01*
X113400714Y-113940119D01*
X113430952Y-114061071D01*
X113461191Y-114121548D01*
X113521667Y-114182024D01*
X113612381Y-114212262D01*
X113763572Y-114212262D01*
X113007619Y-113577262D02*
X112947143Y-113577262D01*
X112886667Y-113607500D01*
X112856429Y-113637738D01*
X112826191Y-113698214D01*
X112795952Y-113819167D01*
X112795952Y-113970357D01*
X112826191Y-114091310D01*
X112856429Y-114151786D01*
X112886667Y-114182024D01*
X112947143Y-114212262D01*
X113007619Y-114212262D01*
X113068095Y-114182024D01*
X113098333Y-114151786D01*
X113128572Y-114091310D01*
X113158810Y-113970357D01*
X113158810Y-113819167D01*
X113128572Y-113698214D01*
X113098333Y-113637738D01*
X113068095Y-113607500D01*
X113007619Y-113577262D01*
X113763572Y-115228262D02*
X113763572Y-114593262D01*
X113612381Y-114593262D01*
X113521667Y-114623500D01*
X113461191Y-114683976D01*
X113430952Y-114744452D01*
X113400714Y-114865405D01*
X113400714Y-114956119D01*
X113430952Y-115077071D01*
X113461191Y-115137548D01*
X113521667Y-115198024D01*
X113612381Y-115228262D01*
X113763572Y-115228262D01*
X113158810Y-114653738D02*
X113128572Y-114623500D01*
X113068095Y-114593262D01*
X112916905Y-114593262D01*
X112856429Y-114623500D01*
X112826191Y-114653738D01*
X112795952Y-114714214D01*
X112795952Y-114774690D01*
X112826191Y-114865405D01*
X113189048Y-115228262D01*
X112795952Y-115228262D01*
X113370477Y-115609262D02*
X113672858Y-115609262D01*
X113703096Y-115911643D01*
X113672858Y-115881405D01*
X113612381Y-115851167D01*
X113461191Y-115851167D01*
X113400715Y-115881405D01*
X113370477Y-115911643D01*
X113340238Y-115972119D01*
X113340238Y-116123310D01*
X113370477Y-116183786D01*
X113400715Y-116214024D01*
X113461191Y-116244262D01*
X113612381Y-116244262D01*
X113672858Y-116214024D01*
X113703096Y-116183786D01*
X113158810Y-115609262D02*
X112947143Y-116244262D01*
X112735476Y-115609262D01*
X107551310Y-105224024D02*
X107460595Y-105254262D01*
X107309405Y-105254262D01*
X107248929Y-105224024D01*
X107218691Y-105193786D01*
X107188452Y-105133310D01*
X107188452Y-105072833D01*
X107218691Y-105012357D01*
X107248929Y-104982119D01*
X107309405Y-104951881D01*
X107430357Y-104921643D01*
X107490833Y-104891405D01*
X107521072Y-104861167D01*
X107551310Y-104800690D01*
X107551310Y-104740214D01*
X107521072Y-104679738D01*
X107490833Y-104649500D01*
X107430357Y-104619262D01*
X107279167Y-104619262D01*
X107188452Y-104649500D01*
X106916310Y-105254262D02*
X106916310Y-104619262D01*
X106674405Y-104619262D01*
X106613929Y-104649500D01*
X106583690Y-104679738D01*
X106553452Y-104740214D01*
X106553452Y-104830929D01*
X106583690Y-104891405D01*
X106613929Y-104921643D01*
X106674405Y-104951881D01*
X106916310Y-104951881D01*
X106311548Y-104679738D02*
X106281310Y-104649500D01*
X106220833Y-104619262D01*
X106069643Y-104619262D01*
X106009167Y-104649500D01*
X105978929Y-104679738D01*
X105948690Y-104740214D01*
X105948690Y-104800690D01*
X105978929Y-104891405D01*
X106341786Y-105254262D01*
X105948690Y-105254262D01*
X107233809Y-105665500D02*
X107294286Y-105635262D01*
X107385000Y-105635262D01*
X107475714Y-105665500D01*
X107536190Y-105725976D01*
X107566429Y-105786452D01*
X107596667Y-105907405D01*
X107596667Y-105998119D01*
X107566429Y-106119071D01*
X107536190Y-106179548D01*
X107475714Y-106240024D01*
X107385000Y-106270262D01*
X107324524Y-106270262D01*
X107233809Y-106240024D01*
X107203571Y-106209786D01*
X107203571Y-105998119D01*
X107324524Y-105998119D01*
X106931429Y-106270262D02*
X106931429Y-105635262D01*
X106568571Y-106270262D01*
X106568571Y-105635262D01*
X106266191Y-106270262D02*
X106266191Y-105635262D01*
X106115000Y-105635262D01*
X106024286Y-105665500D01*
X105963810Y-105725976D01*
X105933571Y-105786452D01*
X105903333Y-105907405D01*
X105903333Y-105998119D01*
X105933571Y-106119071D01*
X105963810Y-106179548D01*
X106024286Y-106240024D01*
X106115000Y-106270262D01*
X106266191Y-106270262D01*
X109070952Y-105254262D02*
X109282619Y-104951881D01*
X109433810Y-105254262D02*
X109433810Y-104619262D01*
X109191905Y-104619262D01*
X109131429Y-104649500D01*
X109101190Y-104679738D01*
X109070952Y-104740214D01*
X109070952Y-104830929D01*
X109101190Y-104891405D01*
X109131429Y-104921643D01*
X109191905Y-104951881D01*
X109433810Y-104951881D01*
X108798810Y-105254262D02*
X108798810Y-104619262D01*
X108647619Y-104619262D01*
X108556905Y-104649500D01*
X108496429Y-104709976D01*
X108466190Y-104770452D01*
X108435952Y-104891405D01*
X108435952Y-104982119D01*
X108466190Y-105103071D01*
X108496429Y-105163548D01*
X108556905Y-105224024D01*
X108647619Y-105254262D01*
X108798810Y-105254262D01*
X109055833Y-106209786D02*
X109086071Y-106240024D01*
X109176786Y-106270262D01*
X109237262Y-106270262D01*
X109327976Y-106240024D01*
X109388452Y-106179548D01*
X109418691Y-106119071D01*
X109448929Y-105998119D01*
X109448929Y-105907405D01*
X109418691Y-105786452D01*
X109388452Y-105725976D01*
X109327976Y-105665500D01*
X109237262Y-105635262D01*
X109176786Y-105635262D01*
X109086071Y-105665500D01*
X109055833Y-105695738D01*
X108813929Y-106240024D02*
X108723214Y-106270262D01*
X108572024Y-106270262D01*
X108511548Y-106240024D01*
X108481310Y-106209786D01*
X108451071Y-106149310D01*
X108451071Y-106088833D01*
X108481310Y-106028357D01*
X108511548Y-105998119D01*
X108572024Y-105967881D01*
X108692976Y-105937643D01*
X108753452Y-105907405D01*
X108783691Y-105877167D01*
X108813929Y-105816690D01*
X108813929Y-105756214D01*
X108783691Y-105695738D01*
X108753452Y-105665500D01*
X108692976Y-105635262D01*
X108541786Y-105635262D01*
X108451071Y-105665500D01*
X111951310Y-105224024D02*
X111860595Y-105254262D01*
X111709405Y-105254262D01*
X111648929Y-105224024D01*
X111618691Y-105193786D01*
X111588452Y-105133310D01*
X111588452Y-105072833D01*
X111618691Y-105012357D01*
X111648929Y-104982119D01*
X111709405Y-104951881D01*
X111830357Y-104921643D01*
X111890833Y-104891405D01*
X111921072Y-104861167D01*
X111951310Y-104800690D01*
X111951310Y-104740214D01*
X111921072Y-104679738D01*
X111890833Y-104649500D01*
X111830357Y-104619262D01*
X111679167Y-104619262D01*
X111588452Y-104649500D01*
X111316310Y-105254262D02*
X111316310Y-104619262D01*
X111074405Y-104619262D01*
X111013929Y-104649500D01*
X110983690Y-104679738D01*
X110953452Y-104740214D01*
X110953452Y-104830929D01*
X110983690Y-104891405D01*
X111013929Y-104921643D01*
X111074405Y-104951881D01*
X111316310Y-104951881D01*
X110348690Y-105254262D02*
X110711548Y-105254262D01*
X110530119Y-105254262D02*
X110530119Y-104619262D01*
X110590595Y-104709976D01*
X110651071Y-104770452D01*
X110711548Y-104800690D01*
X111633809Y-105665500D02*
X111694286Y-105635262D01*
X111785000Y-105635262D01*
X111875714Y-105665500D01*
X111936190Y-105725976D01*
X111966429Y-105786452D01*
X111996667Y-105907405D01*
X111996667Y-105998119D01*
X111966429Y-106119071D01*
X111936190Y-106179548D01*
X111875714Y-106240024D01*
X111785000Y-106270262D01*
X111724524Y-106270262D01*
X111633809Y-106240024D01*
X111603571Y-106209786D01*
X111603571Y-105998119D01*
X111724524Y-105998119D01*
X111331429Y-106270262D02*
X111331429Y-105635262D01*
X110968571Y-106270262D01*
X110968571Y-105635262D01*
X110666191Y-106270262D02*
X110666191Y-105635262D01*
X110515000Y-105635262D01*
X110424286Y-105665500D01*
X110363810Y-105725976D01*
X110333571Y-105786452D01*
X110303333Y-105907405D01*
X110303333Y-105998119D01*
X110333571Y-106119071D01*
X110363810Y-106179548D01*
X110424286Y-106240024D01*
X110515000Y-106270262D01*
X110666191Y-106270262D01*
X116033809Y-104699500D02*
X116094286Y-104669262D01*
X116185000Y-104669262D01*
X116275714Y-104699500D01*
X116336190Y-104759976D01*
X116366429Y-104820452D01*
X116396667Y-104941405D01*
X116396667Y-105032119D01*
X116366429Y-105153071D01*
X116336190Y-105213548D01*
X116275714Y-105274024D01*
X116185000Y-105304262D01*
X116124524Y-105304262D01*
X116033809Y-105274024D01*
X116003571Y-105243786D01*
X116003571Y-105032119D01*
X116124524Y-105032119D01*
X115731429Y-105304262D02*
X115731429Y-104669262D01*
X115368571Y-105304262D01*
X115368571Y-104669262D01*
X115066191Y-105304262D02*
X115066191Y-104669262D01*
X114915000Y-104669262D01*
X114824286Y-104699500D01*
X114763810Y-104759976D01*
X114733571Y-104820452D01*
X114703333Y-104941405D01*
X114703333Y-105032119D01*
X114733571Y-105153071D01*
X114763810Y-105213548D01*
X114824286Y-105274024D01*
X114915000Y-105304262D01*
X115066191Y-105304262D01*
X116018691Y-106320262D02*
X116018691Y-105685262D01*
X115867500Y-105685262D01*
X115776786Y-105715500D01*
X115716310Y-105775976D01*
X115686071Y-105836452D01*
X115655833Y-105957405D01*
X115655833Y-106048119D01*
X115686071Y-106169071D01*
X115716310Y-106229548D01*
X115776786Y-106290024D01*
X115867500Y-106320262D01*
X116018691Y-106320262D01*
X115444167Y-105685262D02*
X115020833Y-105685262D01*
X115292976Y-106320262D01*
X113803572Y-105072833D02*
X113501191Y-105072833D01*
X113864048Y-105254262D02*
X113652381Y-104619262D01*
X113440714Y-105254262D01*
X113259286Y-104679738D02*
X113229048Y-104649500D01*
X113168571Y-104619262D01*
X113017381Y-104619262D01*
X112956905Y-104649500D01*
X112926667Y-104679738D01*
X112896428Y-104740214D01*
X112896428Y-104800690D01*
X112926667Y-104891405D01*
X113289524Y-105254262D01*
X112896428Y-105254262D01*
X113803572Y-106088833D02*
X113501191Y-106088833D01*
X113864048Y-106270262D02*
X113652381Y-105635262D01*
X113440714Y-106270262D01*
X113108095Y-105635262D02*
X113047619Y-105635262D01*
X112987143Y-105665500D01*
X112956905Y-105695738D01*
X112926667Y-105756214D01*
X112896428Y-105877167D01*
X112896428Y-106028357D01*
X112926667Y-106149310D01*
X112956905Y-106209786D01*
X112987143Y-106240024D01*
X113047619Y-106270262D01*
X113108095Y-106270262D01*
X113168571Y-106240024D01*
X113198809Y-106209786D01*
X113229048Y-106149310D01*
X113259286Y-106028357D01*
X113259286Y-105877167D01*
X113229048Y-105756214D01*
X113198809Y-105695738D01*
X113168571Y-105665500D01*
X113108095Y-105635262D01*
D13*
X93056763Y-103081781D02*
X93056763Y-102182581D01*
X92757029Y-102824867D01*
X92457296Y-102182581D01*
X92457296Y-103081781D01*
X92157563Y-102482314D02*
X91815011Y-102482314D01*
X92029106Y-103081781D02*
X92029106Y-102311038D01*
X91986287Y-102225400D01*
X91900649Y-102182581D01*
X91815011Y-102182581D01*
X91129905Y-102482314D02*
X91129905Y-103210238D01*
X91172724Y-103295876D01*
X91215543Y-103338695D01*
X91301182Y-103381514D01*
X91429639Y-103381514D01*
X91515277Y-103338695D01*
X91129905Y-103038962D02*
X91215543Y-103081781D01*
X91386820Y-103081781D01*
X91472458Y-103038962D01*
X91515277Y-102996143D01*
X91558096Y-102910505D01*
X91558096Y-102653590D01*
X91515277Y-102567952D01*
X91472458Y-102525133D01*
X91386820Y-102482314D01*
X91215543Y-102482314D01*
X91129905Y-102525133D01*
X90701715Y-102996143D02*
X90658896Y-103038962D01*
X90701715Y-103081781D01*
X90744534Y-103038962D01*
X90701715Y-102996143D01*
X90701715Y-103081781D01*
X89203048Y-103081781D02*
X89203048Y-102182581D01*
X89203048Y-103038962D02*
X89288686Y-103081781D01*
X89459963Y-103081781D01*
X89545601Y-103038962D01*
X89588420Y-102996143D01*
X89631239Y-102910505D01*
X89631239Y-102653590D01*
X89588420Y-102567952D01*
X89545601Y-102525133D01*
X89459963Y-102482314D01*
X89288686Y-102482314D01*
X89203048Y-102525133D01*
X88389486Y-103081781D02*
X88389486Y-102610771D01*
X88432305Y-102525133D01*
X88517943Y-102482314D01*
X88689220Y-102482314D01*
X88774858Y-102525133D01*
X88389486Y-103038962D02*
X88475124Y-103081781D01*
X88689220Y-103081781D01*
X88774858Y-103038962D01*
X88817677Y-102953324D01*
X88817677Y-102867686D01*
X88774858Y-102782048D01*
X88689220Y-102739229D01*
X88475124Y-102739229D01*
X88389486Y-102696410D01*
X88089753Y-102482314D02*
X87747201Y-102482314D01*
X87961296Y-102182581D02*
X87961296Y-102953324D01*
X87918477Y-103038962D01*
X87832839Y-103081781D01*
X87747201Y-103081781D01*
X87104914Y-103038962D02*
X87190552Y-103081781D01*
X87361829Y-103081781D01*
X87447467Y-103038962D01*
X87490286Y-102953324D01*
X87490286Y-102610771D01*
X87447467Y-102525133D01*
X87361829Y-102482314D01*
X87190552Y-102482314D01*
X87104914Y-102525133D01*
X87062095Y-102610771D01*
X87062095Y-102696410D01*
X87490286Y-102782048D01*
X85991619Y-102996143D02*
X85948800Y-103038962D01*
X85991619Y-103081781D01*
X86034438Y-103038962D01*
X85991619Y-102996143D01*
X85991619Y-103081781D01*
X85991619Y-102525133D02*
X85948800Y-102567952D01*
X85991619Y-102610771D01*
X86034438Y-102567952D01*
X85991619Y-102525133D01*
X85991619Y-102610771D01*
X84921143Y-102268219D02*
X84878324Y-102225400D01*
X84792686Y-102182581D01*
X84578590Y-102182581D01*
X84492952Y-102225400D01*
X84450133Y-102268219D01*
X84407314Y-102353857D01*
X84407314Y-102439495D01*
X84450133Y-102567952D01*
X84963962Y-103081781D01*
X84407314Y-103081781D01*
X83850667Y-102182581D02*
X83765028Y-102182581D01*
X83679390Y-102225400D01*
X83636571Y-102268219D01*
X83593752Y-102353857D01*
X83550933Y-102525133D01*
X83550933Y-102739229D01*
X83593752Y-102910505D01*
X83636571Y-102996143D01*
X83679390Y-103038962D01*
X83765028Y-103081781D01*
X83850667Y-103081781D01*
X83936305Y-103038962D01*
X83979124Y-102996143D01*
X84021943Y-102910505D01*
X84064762Y-102739229D01*
X84064762Y-102525133D01*
X84021943Y-102353857D01*
X83979124Y-102268219D01*
X83936305Y-102225400D01*
X83850667Y-102182581D01*
X82694552Y-103081781D02*
X83208381Y-103081781D01*
X82951467Y-103081781D02*
X82951467Y-102182581D01*
X83037105Y-102311038D01*
X83122743Y-102396676D01*
X83208381Y-102439495D01*
X81923809Y-102182581D02*
X82095086Y-102182581D01*
X82180724Y-102225400D01*
X82223543Y-102268219D01*
X82309181Y-102396676D01*
X82352000Y-102567952D01*
X82352000Y-102910505D01*
X82309181Y-102996143D01*
X82266362Y-103038962D01*
X82180724Y-103081781D01*
X82009447Y-103081781D01*
X81923809Y-103038962D01*
X81880990Y-102996143D01*
X81838171Y-102910505D01*
X81838171Y-102696410D01*
X81880990Y-102610771D01*
X81923809Y-102567952D01*
X82009447Y-102525133D01*
X82180724Y-102525133D01*
X82266362Y-102567952D01*
X82309181Y-102610771D01*
X82352000Y-102696410D01*
X80510780Y-102182581D02*
X80510780Y-102824867D01*
X80553600Y-102953324D01*
X80639238Y-103038962D01*
X80767695Y-103081781D01*
X80853333Y-103081781D01*
X79697218Y-102482314D02*
X79697218Y-103081781D01*
X80082590Y-102482314D02*
X80082590Y-102953324D01*
X80039771Y-103038962D01*
X79954133Y-103081781D01*
X79825675Y-103081781D01*
X79740037Y-103038962D01*
X79697218Y-102996143D01*
X79140571Y-103081781D02*
X79226209Y-103038962D01*
X79269028Y-102953324D01*
X79269028Y-102182581D01*
X78883656Y-102482314D02*
X78669561Y-103081781D01*
X78455465Y-102482314D02*
X78669561Y-103081781D01*
X78755199Y-103295876D01*
X78798018Y-103338695D01*
X78883656Y-103381514D01*
X76956798Y-103081781D02*
X77470627Y-103081781D01*
X77213713Y-103081781D02*
X77213713Y-102182581D01*
X77299351Y-102311038D01*
X77384989Y-102396676D01*
X77470627Y-102439495D01*
X76186055Y-102482314D02*
X76186055Y-103081781D01*
X76400151Y-102139762D02*
X76614246Y-102782048D01*
X76057598Y-102782048D01*
D12*
X76600000Y-100925000D02*
X76600000Y-89925000D01*
X103625000Y-100925000D02*
X76600000Y-100925000D01*
X103625000Y-89950000D02*
X103625000Y-100925000D01*
X76625000Y-89950000D02*
X103625000Y-89950000D01*
D13*
X94317676Y-91133864D02*
X94146400Y-91733331D01*
X93975123Y-91305140D01*
X93803847Y-91733331D01*
X93632571Y-91133864D01*
X92904647Y-91733331D02*
X92904647Y-91262321D01*
X92947466Y-91176683D01*
X93033104Y-91133864D01*
X93204381Y-91133864D01*
X93290019Y-91176683D01*
X92904647Y-91690512D02*
X92990285Y-91733331D01*
X93204381Y-91733331D01*
X93290019Y-91690512D01*
X93332838Y-91604874D01*
X93332838Y-91519236D01*
X93290019Y-91433598D01*
X93204381Y-91390779D01*
X92990285Y-91390779D01*
X92904647Y-91347960D01*
X92519276Y-91690512D02*
X92433638Y-91733331D01*
X92262362Y-91733331D01*
X92176723Y-91690512D01*
X92133904Y-91604874D01*
X92133904Y-91562055D01*
X92176723Y-91476417D01*
X92262362Y-91433598D01*
X92390819Y-91433598D01*
X92476457Y-91390779D01*
X92519276Y-91305140D01*
X92519276Y-91262321D01*
X92476457Y-91176683D01*
X92390819Y-91133864D01*
X92262362Y-91133864D01*
X92176723Y-91176683D01*
X91363161Y-91690512D02*
X91448799Y-91733331D01*
X91620076Y-91733331D01*
X91705714Y-91690512D01*
X91748533Y-91647693D01*
X91791352Y-91562055D01*
X91791352Y-91305140D01*
X91748533Y-91219502D01*
X91705714Y-91176683D01*
X91620076Y-91133864D01*
X91448799Y-91133864D01*
X91363161Y-91176683D01*
X90592418Y-91733331D02*
X90592418Y-91262321D01*
X90635237Y-91176683D01*
X90720875Y-91133864D01*
X90892152Y-91133864D01*
X90977790Y-91176683D01*
X90592418Y-91690512D02*
X90678056Y-91733331D01*
X90892152Y-91733331D01*
X90977790Y-91690512D01*
X91020609Y-91604874D01*
X91020609Y-91519236D01*
X90977790Y-91433598D01*
X90892152Y-91390779D01*
X90678056Y-91390779D01*
X90592418Y-91347960D01*
X89564761Y-91133864D02*
X89350666Y-91733331D01*
X89136570Y-91133864D01*
X88794018Y-91647693D02*
X88751199Y-91690512D01*
X88794018Y-91733331D01*
X88836837Y-91690512D01*
X88794018Y-91647693D01*
X88794018Y-91733331D01*
X87209713Y-91733331D02*
X87723542Y-91733331D01*
X87466628Y-91733331D02*
X87466628Y-90834131D01*
X87552266Y-90962588D01*
X87637904Y-91048226D01*
X87723542Y-91091045D01*
X86824342Y-91647693D02*
X86781523Y-91690512D01*
X86824342Y-91733331D01*
X86867161Y-91690512D01*
X86824342Y-91647693D01*
X86824342Y-91733331D01*
X86438971Y-90919769D02*
X86396152Y-90876950D01*
X86310514Y-90834131D01*
X86096418Y-90834131D01*
X86010780Y-90876950D01*
X85967961Y-90919769D01*
X85925142Y-91005407D01*
X85925142Y-91091045D01*
X85967961Y-91219502D01*
X86481790Y-91733331D01*
X85925142Y-91733331D01*
X99627238Y-92711701D02*
X99498781Y-92754520D01*
X99455962Y-92797340D01*
X99413143Y-92882978D01*
X99413143Y-93011435D01*
X99455962Y-93097073D01*
X99498781Y-93139892D01*
X99584419Y-93182711D01*
X99926972Y-93182711D01*
X99926972Y-92283511D01*
X99627238Y-92283511D01*
X99541600Y-92326330D01*
X99498781Y-92369149D01*
X99455962Y-92454787D01*
X99455962Y-92540425D01*
X99498781Y-92626063D01*
X99541600Y-92668882D01*
X99627238Y-92711701D01*
X99926972Y-92711701D01*
X99113410Y-92583244D02*
X98899315Y-93182711D01*
X98685219Y-92583244D02*
X98899315Y-93182711D01*
X98984953Y-93396806D01*
X99027772Y-93439625D01*
X99113410Y-93482444D01*
X97657562Y-93182711D02*
X97657562Y-92283511D01*
X97272190Y-93182711D02*
X97272190Y-92711701D01*
X97315009Y-92626063D01*
X97400647Y-92583244D01*
X97529105Y-92583244D01*
X97614743Y-92626063D01*
X97657562Y-92668882D01*
X96844000Y-93182711D02*
X96844000Y-92583244D01*
X96844000Y-92283511D02*
X96886819Y-92326330D01*
X96844000Y-92369149D01*
X96801181Y-92326330D01*
X96844000Y-92283511D01*
X96844000Y-92369149D01*
X96544267Y-92583244D02*
X96201715Y-92583244D01*
X96415810Y-92283511D02*
X96415810Y-93054254D01*
X96372991Y-93139892D01*
X96287353Y-93182711D01*
X96201715Y-93182711D01*
X95773524Y-93182711D02*
X95859162Y-93139892D01*
X95901981Y-93097073D01*
X95944800Y-93011435D01*
X95944800Y-92754520D01*
X95901981Y-92668882D01*
X95859162Y-92626063D01*
X95773524Y-92583244D01*
X95645066Y-92583244D01*
X95559428Y-92626063D01*
X95516609Y-92668882D01*
X95473790Y-92754520D01*
X95473790Y-93011435D01*
X95516609Y-93097073D01*
X95559428Y-93139892D01*
X95645066Y-93182711D01*
X95773524Y-93182711D01*
X95088419Y-93182711D02*
X95088419Y-92583244D01*
X95088419Y-92668882D02*
X95045600Y-92626063D01*
X94959962Y-92583244D01*
X94831504Y-92583244D01*
X94745866Y-92626063D01*
X94703047Y-92711701D01*
X94703047Y-93182711D01*
X94703047Y-92711701D02*
X94660228Y-92626063D01*
X94574590Y-92583244D01*
X94446133Y-92583244D01*
X94360495Y-92626063D01*
X94317676Y-92711701D01*
X94317676Y-93182711D01*
X93889486Y-93182711D02*
X93889486Y-92583244D01*
X93889486Y-92283511D02*
X93932305Y-92326330D01*
X93889486Y-92369149D01*
X93846667Y-92326330D01*
X93889486Y-92283511D01*
X93889486Y-92369149D01*
X93504115Y-92369149D02*
X93461296Y-92326330D01*
X93375658Y-92283511D01*
X93161562Y-92283511D01*
X93075924Y-92326330D01*
X93033105Y-92369149D01*
X92990286Y-92454787D01*
X92990286Y-92540425D01*
X93033105Y-92668882D01*
X93546934Y-93182711D01*
X92990286Y-93182711D01*
X92176724Y-92283511D02*
X92604915Y-92283511D01*
X92647734Y-92711701D01*
X92604915Y-92668882D01*
X92519277Y-92626063D01*
X92305181Y-92626063D01*
X92219543Y-92668882D01*
X92176724Y-92711701D01*
X92133905Y-92797340D01*
X92133905Y-93011435D01*
X92176724Y-93097073D01*
X92219543Y-93139892D01*
X92305181Y-93182711D01*
X92519277Y-93182711D01*
X92604915Y-93139892D01*
X92647734Y-93097073D01*
X91577258Y-92283511D02*
X91491619Y-92283511D01*
X91405981Y-92326330D01*
X91363162Y-92369149D01*
X91320343Y-92454787D01*
X91277524Y-92626063D01*
X91277524Y-92840159D01*
X91320343Y-93011435D01*
X91363162Y-93097073D01*
X91405981Y-93139892D01*
X91491619Y-93182711D01*
X91577258Y-93182711D01*
X91662896Y-93139892D01*
X91705715Y-93097073D01*
X91748534Y-93011435D01*
X91791353Y-92840159D01*
X91791353Y-92626063D01*
X91748534Y-92454787D01*
X91705715Y-92369149D01*
X91662896Y-92326330D01*
X91577258Y-92283511D01*
X90720877Y-92283511D02*
X90635238Y-92283511D01*
X90549600Y-92326330D01*
X90506781Y-92369149D01*
X90463962Y-92454787D01*
X90421143Y-92626063D01*
X90421143Y-92840159D01*
X90463962Y-93011435D01*
X90506781Y-93097073D01*
X90549600Y-93139892D01*
X90635238Y-93182711D01*
X90720877Y-93182711D01*
X90806515Y-93139892D01*
X90849334Y-93097073D01*
X90892153Y-93011435D01*
X90934972Y-92840159D01*
X90934972Y-92626063D01*
X90892153Y-92454787D01*
X90849334Y-92369149D01*
X90806515Y-92326330D01*
X90720877Y-92283511D01*
X88622743Y-93182711D02*
X88665562Y-93182711D01*
X88751200Y-93139892D01*
X88879657Y-93011435D01*
X89093752Y-92754520D01*
X89179391Y-92626063D01*
X89222210Y-92497606D01*
X89222210Y-92411968D01*
X89179391Y-92326330D01*
X89093752Y-92283511D01*
X89050933Y-92283511D01*
X88965295Y-92326330D01*
X88922476Y-92411968D01*
X88922476Y-92454787D01*
X88965295Y-92540425D01*
X89008114Y-92583244D01*
X89265029Y-92754520D01*
X89307848Y-92797340D01*
X89350667Y-92882978D01*
X89350667Y-93011435D01*
X89307848Y-93097073D01*
X89265029Y-93139892D01*
X89179391Y-93182711D01*
X89050933Y-93182711D01*
X88965295Y-93139892D01*
X88922476Y-93097073D01*
X88794019Y-92925797D01*
X88751200Y-92797340D01*
X88751200Y-92711701D01*
X87166895Y-93139892D02*
X87252533Y-93182711D01*
X87423810Y-93182711D01*
X87509448Y-93139892D01*
X87552267Y-93097073D01*
X87595086Y-93011435D01*
X87595086Y-92754520D01*
X87552267Y-92668882D01*
X87509448Y-92626063D01*
X87423810Y-92583244D01*
X87252533Y-92583244D01*
X87166895Y-92626063D01*
X86396152Y-93182711D02*
X86396152Y-92711701D01*
X86438971Y-92626063D01*
X86524609Y-92583244D01*
X86695886Y-92583244D01*
X86781524Y-92626063D01*
X86396152Y-93139892D02*
X86481790Y-93182711D01*
X86695886Y-93182711D01*
X86781524Y-93139892D01*
X86824343Y-93054254D01*
X86824343Y-92968616D01*
X86781524Y-92882978D01*
X86695886Y-92840159D01*
X86481790Y-92840159D01*
X86396152Y-92797340D01*
X86096419Y-92583244D02*
X85753867Y-92583244D01*
X85967962Y-93182711D02*
X85967962Y-92411968D01*
X85925143Y-92326330D01*
X85839505Y-92283511D01*
X85753867Y-92283511D01*
X85111580Y-93139892D02*
X85197218Y-93182711D01*
X85368495Y-93182711D01*
X85454133Y-93139892D01*
X85496952Y-93054254D01*
X85496952Y-92711701D01*
X85454133Y-92626063D01*
X85368495Y-92583244D01*
X85197218Y-92583244D01*
X85111580Y-92626063D01*
X85068761Y-92711701D01*
X85068761Y-92797340D01*
X85496952Y-92882978D01*
X84683390Y-92840159D02*
X83998285Y-92840159D01*
X83184723Y-93182711D02*
X83184723Y-92711701D01*
X83227542Y-92626063D01*
X83313180Y-92583244D01*
X83484457Y-92583244D01*
X83570095Y-92626063D01*
X83184723Y-93139892D02*
X83270361Y-93182711D01*
X83484457Y-93182711D01*
X83570095Y-93139892D01*
X83612914Y-93054254D01*
X83612914Y-92968616D01*
X83570095Y-92882978D01*
X83484457Y-92840159D01*
X83270361Y-92840159D01*
X83184723Y-92797340D01*
X82628076Y-93182711D02*
X82713714Y-93139892D01*
X82756533Y-93054254D01*
X82756533Y-92283511D01*
X82285523Y-92583244D02*
X82285523Y-93482444D01*
X82285523Y-92626063D02*
X82199885Y-92583244D01*
X82028608Y-92583244D01*
X81942970Y-92626063D01*
X81900151Y-92668882D01*
X81857332Y-92754520D01*
X81857332Y-93011435D01*
X81900151Y-93097073D01*
X81942970Y-93139892D01*
X82028608Y-93182711D01*
X82199885Y-93182711D01*
X82285523Y-93139892D01*
X81471961Y-93182711D02*
X81471961Y-92283511D01*
X81086589Y-93182711D02*
X81086589Y-92711701D01*
X81129408Y-92626063D01*
X81215046Y-92583244D01*
X81343504Y-92583244D01*
X81429142Y-92626063D01*
X81471961Y-92668882D01*
X80273027Y-93182711D02*
X80273027Y-92711701D01*
X80315846Y-92626063D01*
X80401484Y-92583244D01*
X80572761Y-92583244D01*
X80658399Y-92626063D01*
X80273027Y-93139892D02*
X80358665Y-93182711D01*
X80572761Y-93182711D01*
X80658399Y-93139892D01*
X80701218Y-93054254D01*
X80701218Y-92968616D01*
X80658399Y-92882978D01*
X80572761Y-92840159D01*
X80358665Y-92840159D01*
X80273027Y-92797340D01*
X100847583Y-97530851D02*
X100847583Y-96631651D01*
X100462211Y-97530851D02*
X100462211Y-97059841D01*
X100505030Y-96974203D01*
X100590668Y-96931384D01*
X100719126Y-96931384D01*
X100804764Y-96974203D01*
X100847583Y-97017022D01*
X100162478Y-96931384D02*
X99819926Y-96931384D01*
X100034021Y-96631651D02*
X100034021Y-97402394D01*
X99991202Y-97488032D01*
X99905564Y-97530851D01*
X99819926Y-97530851D01*
X99648649Y-96931384D02*
X99306097Y-96931384D01*
X99520192Y-96631651D02*
X99520192Y-97402394D01*
X99477373Y-97488032D01*
X99391735Y-97530851D01*
X99306097Y-97530851D01*
X99006363Y-96931384D02*
X99006363Y-97830584D01*
X99006363Y-96974203D02*
X98920725Y-96931384D01*
X98749448Y-96931384D01*
X98663810Y-96974203D01*
X98620991Y-97017022D01*
X98578172Y-97102660D01*
X98578172Y-97359575D01*
X98620991Y-97445213D01*
X98663810Y-97488032D01*
X98749448Y-97530851D01*
X98920725Y-97530851D01*
X99006363Y-97488032D01*
X98192801Y-97445213D02*
X98149982Y-97488032D01*
X98192801Y-97530851D01*
X98235620Y-97488032D01*
X98192801Y-97445213D01*
X98192801Y-97530851D01*
X98192801Y-96974203D02*
X98149982Y-97017022D01*
X98192801Y-97059841D01*
X98235620Y-97017022D01*
X98192801Y-96974203D01*
X98192801Y-97059841D01*
X97122325Y-96588832D02*
X97893068Y-97744946D01*
X96180306Y-96588832D02*
X96951049Y-97744946D01*
X95880573Y-96931384D02*
X95880573Y-97830584D01*
X95880573Y-96974203D02*
X95794935Y-96931384D01*
X95623658Y-96931384D01*
X95538020Y-96974203D01*
X95495201Y-97017022D01*
X95452382Y-97102660D01*
X95452382Y-97359575D01*
X95495201Y-97445213D01*
X95538020Y-97488032D01*
X95623658Y-97530851D01*
X95794935Y-97530851D01*
X95880573Y-97488032D01*
X95067011Y-96931384D02*
X95067011Y-97830584D01*
X95067011Y-96974203D02*
X94981373Y-96931384D01*
X94810096Y-96931384D01*
X94724458Y-96974203D01*
X94681639Y-97017022D01*
X94638820Y-97102660D01*
X94638820Y-97359575D01*
X94681639Y-97445213D01*
X94724458Y-97488032D01*
X94810096Y-97530851D01*
X94981373Y-97530851D01*
X95067011Y-97488032D01*
X93868077Y-97488032D02*
X93953715Y-97530851D01*
X94124992Y-97530851D01*
X94210630Y-97488032D01*
X94253449Y-97445213D01*
X94296268Y-97359575D01*
X94296268Y-97102660D01*
X94253449Y-97017022D01*
X94210630Y-96974203D01*
X94124992Y-96931384D01*
X93953715Y-96931384D01*
X93868077Y-96974203D01*
X93140153Y-97488032D02*
X93225791Y-97530851D01*
X93397068Y-97530851D01*
X93482706Y-97488032D01*
X93525525Y-97402394D01*
X93525525Y-97059841D01*
X93482706Y-96974203D01*
X93397068Y-96931384D01*
X93225791Y-96931384D01*
X93140153Y-96974203D01*
X93097334Y-97059841D01*
X93097334Y-97145480D01*
X93525525Y-97231118D01*
X92711963Y-96931384D02*
X92711963Y-97530851D01*
X92711963Y-97017022D02*
X92669144Y-96974203D01*
X92583506Y-96931384D01*
X92455048Y-96931384D01*
X92369410Y-96974203D01*
X92326591Y-97059841D01*
X92326591Y-97530851D01*
X92026858Y-96931384D02*
X91684306Y-96931384D01*
X91898401Y-96631651D02*
X91898401Y-97402394D01*
X91855582Y-97488032D01*
X91769944Y-97530851D01*
X91684306Y-97530851D01*
X91042019Y-97488032D02*
X91127657Y-97530851D01*
X91298934Y-97530851D01*
X91384572Y-97488032D01*
X91427391Y-97402394D01*
X91427391Y-97059841D01*
X91384572Y-96974203D01*
X91298934Y-96931384D01*
X91127657Y-96931384D01*
X91042019Y-96974203D01*
X90999200Y-97059841D01*
X90999200Y-97145480D01*
X91427391Y-97231118D01*
X90613829Y-97530851D02*
X90613829Y-96931384D01*
X90613829Y-97102660D02*
X90571010Y-97017022D01*
X90528191Y-96974203D01*
X90442553Y-96931384D01*
X90356914Y-96931384D01*
X90057181Y-97445213D02*
X90014362Y-97488032D01*
X90057181Y-97530851D01*
X90100000Y-97488032D01*
X90057181Y-97445213D01*
X90057181Y-97530851D01*
X89757448Y-96931384D02*
X89414896Y-96931384D01*
X89628991Y-97530851D02*
X89628991Y-96760108D01*
X89586172Y-96674470D01*
X89500534Y-96631651D01*
X89414896Y-96631651D01*
X89115162Y-97530851D02*
X89115162Y-96931384D01*
X89115162Y-97102660D02*
X89072343Y-97017022D01*
X89029524Y-96974203D01*
X88943886Y-96931384D01*
X88858247Y-96931384D01*
X88215961Y-97488032D02*
X88301599Y-97530851D01*
X88472876Y-97530851D01*
X88558514Y-97488032D01*
X88601333Y-97402394D01*
X88601333Y-97059841D01*
X88558514Y-96974203D01*
X88472876Y-96931384D01*
X88301599Y-96931384D01*
X88215961Y-96974203D01*
X88173142Y-97059841D01*
X88173142Y-97145480D01*
X88601333Y-97231118D01*
X87445218Y-97488032D02*
X87530856Y-97530851D01*
X87702133Y-97530851D01*
X87787771Y-97488032D01*
X87830590Y-97402394D01*
X87830590Y-97059841D01*
X87787771Y-96974203D01*
X87702133Y-96931384D01*
X87530856Y-96931384D01*
X87445218Y-96974203D01*
X87402399Y-97059841D01*
X87402399Y-97145480D01*
X87830590Y-97231118D01*
X87017028Y-97445213D02*
X86974209Y-97488032D01*
X87017028Y-97530851D01*
X87059847Y-97488032D01*
X87017028Y-97445213D01*
X87017028Y-97530851D01*
X86717295Y-96931384D02*
X86374743Y-96931384D01*
X86588838Y-97530851D02*
X86588838Y-96760108D01*
X86546019Y-96674470D01*
X86460381Y-96631651D01*
X86374743Y-96631651D01*
X86075009Y-97530851D02*
X86075009Y-96931384D01*
X86075009Y-97102660D02*
X86032190Y-97017022D01*
X85989371Y-96974203D01*
X85903733Y-96931384D01*
X85818094Y-96931384D01*
X84876075Y-96588832D02*
X85646818Y-97744946D01*
X84619161Y-97488032D02*
X84533523Y-97530851D01*
X84362247Y-97530851D01*
X84276608Y-97488032D01*
X84233789Y-97402394D01*
X84233789Y-97359575D01*
X84276608Y-97273937D01*
X84362247Y-97231118D01*
X84490704Y-97231118D01*
X84576342Y-97188299D01*
X84619161Y-97102660D01*
X84619161Y-97059841D01*
X84576342Y-96974203D01*
X84490704Y-96931384D01*
X84362247Y-96931384D01*
X84276608Y-96974203D01*
X83463046Y-97530851D02*
X83463046Y-97059841D01*
X83505865Y-96974203D01*
X83591503Y-96931384D01*
X83762780Y-96931384D01*
X83848418Y-96974203D01*
X83463046Y-97488032D02*
X83548684Y-97530851D01*
X83762780Y-97530851D01*
X83848418Y-97488032D01*
X83891237Y-97402394D01*
X83891237Y-97316756D01*
X83848418Y-97231118D01*
X83762780Y-97188299D01*
X83548684Y-97188299D01*
X83463046Y-97145480D01*
X83163313Y-96931384D02*
X82820761Y-96931384D01*
X83034856Y-96631651D02*
X83034856Y-97402394D01*
X82992037Y-97488032D01*
X82906399Y-97530851D01*
X82820761Y-97530851D01*
X82135655Y-97488032D02*
X82221293Y-97530851D01*
X82392570Y-97530851D01*
X82478208Y-97488032D01*
X82521027Y-97445213D01*
X82563846Y-97359575D01*
X82563846Y-97102660D01*
X82521027Y-97017022D01*
X82478208Y-96974203D01*
X82392570Y-96931384D01*
X82221293Y-96931384D01*
X82135655Y-96974203D01*
X81364912Y-97530851D02*
X81364912Y-97059841D01*
X81407731Y-96974203D01*
X81493369Y-96931384D01*
X81664646Y-96931384D01*
X81750284Y-96974203D01*
X81364912Y-97488032D02*
X81450550Y-97530851D01*
X81664646Y-97530851D01*
X81750284Y-97488032D01*
X81793103Y-97402394D01*
X81793103Y-97316756D01*
X81750284Y-97231118D01*
X81664646Y-97188299D01*
X81450550Y-97188299D01*
X81364912Y-97145480D01*
X80936722Y-97530851D02*
X80936722Y-96931384D01*
X80936722Y-97102660D02*
X80893903Y-97017022D01*
X80851084Y-96974203D01*
X80765446Y-96931384D01*
X80679807Y-96931384D01*
X80508531Y-96931384D02*
X80165979Y-96931384D01*
X80380074Y-96631651D02*
X80380074Y-97402394D01*
X80337255Y-97488032D01*
X80251617Y-97530851D01*
X80165979Y-97530851D01*
X79223959Y-96588832D02*
X79994702Y-97744946D01*
X96372991Y-98980231D02*
X96372991Y-98081031D01*
X95987619Y-98980231D02*
X95987619Y-98509221D01*
X96030438Y-98423583D01*
X96116076Y-98380764D01*
X96244534Y-98380764D01*
X96330172Y-98423583D01*
X96372991Y-98466402D01*
X95687886Y-98380764D02*
X95345334Y-98380764D01*
X95559429Y-98081031D02*
X95559429Y-98851774D01*
X95516610Y-98937412D01*
X95430972Y-98980231D01*
X95345334Y-98980231D01*
X95174057Y-98380764D02*
X94831505Y-98380764D01*
X95045600Y-98081031D02*
X95045600Y-98851774D01*
X95002781Y-98937412D01*
X94917143Y-98980231D01*
X94831505Y-98980231D01*
X94531771Y-98380764D02*
X94531771Y-99279964D01*
X94531771Y-98423583D02*
X94446133Y-98380764D01*
X94274856Y-98380764D01*
X94189218Y-98423583D01*
X94146399Y-98466402D01*
X94103580Y-98552040D01*
X94103580Y-98808955D01*
X94146399Y-98894593D01*
X94189218Y-98937412D01*
X94274856Y-98980231D01*
X94446133Y-98980231D01*
X94531771Y-98937412D01*
X93718209Y-98894593D02*
X93675390Y-98937412D01*
X93718209Y-98980231D01*
X93761028Y-98937412D01*
X93718209Y-98894593D01*
X93718209Y-98980231D01*
X93718209Y-98423583D02*
X93675390Y-98466402D01*
X93718209Y-98509221D01*
X93761028Y-98466402D01*
X93718209Y-98423583D01*
X93718209Y-98509221D01*
X92647733Y-98038212D02*
X93418476Y-99194326D01*
X91705714Y-98038212D02*
X92476457Y-99194326D01*
X91491619Y-98380764D02*
X91320343Y-98980231D01*
X91149066Y-98552040D01*
X90977790Y-98980231D01*
X90806514Y-98380764D01*
X90078590Y-98980231D02*
X90078590Y-98509221D01*
X90121409Y-98423583D01*
X90207047Y-98380764D01*
X90378324Y-98380764D01*
X90463962Y-98423583D01*
X90078590Y-98937412D02*
X90164228Y-98980231D01*
X90378324Y-98980231D01*
X90463962Y-98937412D01*
X90506781Y-98851774D01*
X90506781Y-98766136D01*
X90463962Y-98680498D01*
X90378324Y-98637679D01*
X90164228Y-98637679D01*
X90078590Y-98594860D01*
X89693219Y-98937412D02*
X89607581Y-98980231D01*
X89436305Y-98980231D01*
X89350666Y-98937412D01*
X89307847Y-98851774D01*
X89307847Y-98808955D01*
X89350666Y-98723317D01*
X89436305Y-98680498D01*
X89564762Y-98680498D01*
X89650400Y-98637679D01*
X89693219Y-98552040D01*
X89693219Y-98509221D01*
X89650400Y-98423583D01*
X89564762Y-98380764D01*
X89436305Y-98380764D01*
X89350666Y-98423583D01*
X88537104Y-98937412D02*
X88622742Y-98980231D01*
X88794019Y-98980231D01*
X88879657Y-98937412D01*
X88922476Y-98894593D01*
X88965295Y-98808955D01*
X88965295Y-98552040D01*
X88922476Y-98466402D01*
X88879657Y-98423583D01*
X88794019Y-98380764D01*
X88622742Y-98380764D01*
X88537104Y-98423583D01*
X87766361Y-98980231D02*
X87766361Y-98509221D01*
X87809180Y-98423583D01*
X87894818Y-98380764D01*
X88066095Y-98380764D01*
X88151733Y-98423583D01*
X87766361Y-98937412D02*
X87851999Y-98980231D01*
X88066095Y-98980231D01*
X88151733Y-98937412D01*
X88194552Y-98851774D01*
X88194552Y-98766136D01*
X88151733Y-98680498D01*
X88066095Y-98637679D01*
X87851999Y-98637679D01*
X87766361Y-98594860D01*
X87338171Y-98894593D02*
X87295352Y-98937412D01*
X87338171Y-98980231D01*
X87380990Y-98937412D01*
X87338171Y-98894593D01*
X87338171Y-98980231D01*
X86909981Y-98980231D02*
X86909981Y-98380764D01*
X86909981Y-98081031D02*
X86952800Y-98123850D01*
X86909981Y-98166669D01*
X86867162Y-98123850D01*
X86909981Y-98081031D01*
X86909981Y-98166669D01*
X86481791Y-98380764D02*
X86481791Y-98980231D01*
X86481791Y-98466402D02*
X86438972Y-98423583D01*
X86353334Y-98380764D01*
X86224876Y-98380764D01*
X86139238Y-98423583D01*
X86096419Y-98509221D01*
X86096419Y-98980231D01*
X85796686Y-98380764D02*
X85454134Y-98380764D01*
X85668229Y-98980231D02*
X85668229Y-98209488D01*
X85625410Y-98123850D01*
X85539772Y-98081031D01*
X85454134Y-98081031D01*
X85025943Y-98980231D02*
X85111581Y-98937412D01*
X85154400Y-98894593D01*
X85197219Y-98808955D01*
X85197219Y-98552040D01*
X85154400Y-98466402D01*
X85111581Y-98423583D01*
X85025943Y-98380764D01*
X84897485Y-98380764D01*
X84811847Y-98423583D01*
X84769028Y-98466402D01*
X84726209Y-98552040D01*
X84726209Y-98808955D01*
X84769028Y-98894593D01*
X84811847Y-98937412D01*
X84897485Y-98980231D01*
X85025943Y-98980231D01*
X83698552Y-98038212D02*
X84469295Y-99194326D01*
D14*
G36*
X126105180Y-88218000D02*
X125764820Y-88218000D01*
X125764820Y-88472000D01*
X125764820Y-91944180D01*
X117553000Y-91944180D01*
X117553000Y-88472000D01*
X125764820Y-88472000D01*
X125764820Y-88218000D01*
X117215180Y-88218000D01*
X117215180Y-88472000D01*
X117215180Y-91944180D01*
X105615000Y-91944180D01*
X105615000Y-88472000D01*
X117215180Y-88472000D01*
X117215180Y-88218000D01*
X105277180Y-88218000D01*
X105277180Y-92198180D01*
X126105180Y-92198180D01*
X126105180Y-88218000D01*
X126105180Y-88218000D01*
X126105180Y-88218000D01*
G37*
X126105180Y-88218000D02*
X125764820Y-88218000D01*
X125764820Y-88472000D01*
X125764820Y-91944180D01*
X117553000Y-91944180D01*
X117553000Y-88472000D01*
X125764820Y-88472000D01*
X125764820Y-88218000D01*
X117215180Y-88218000D01*
X117215180Y-88472000D01*
X117215180Y-91944180D01*
X105615000Y-91944180D01*
X105615000Y-88472000D01*
X117215180Y-88472000D01*
X117215180Y-88218000D01*
X105277180Y-88218000D01*
X105277180Y-92198180D01*
X126105180Y-92198180D01*
X126105180Y-88218000D01*
X126105180Y-88218000D01*
D15*
X51350000Y-140550000D02*
X51350000Y-141250000D01*
X52550000Y-141250000D02*
X52550000Y-140550000D01*
X47700000Y-143750000D02*
X48400000Y-143750000D01*
X48400000Y-142550000D02*
X47700000Y-142550000D01*
X76650000Y-131325000D02*
X75650000Y-131325000D01*
X75650000Y-132675000D02*
X76650000Y-132675000D01*
X46900000Y-102650000D02*
X46200000Y-102650000D01*
X46200000Y-103850000D02*
X46900000Y-103850000D01*
X52825000Y-131150000D02*
X52825000Y-131850000D01*
X54025000Y-131850000D02*
X54025000Y-131150000D01*
X90125000Y-139075000D02*
X90125000Y-139775000D01*
X91325000Y-139775000D02*
X91325000Y-139075000D01*
X114475000Y-145200000D02*
X115175000Y-145200000D01*
X115175000Y-144000000D02*
X114475000Y-144000000D01*
X107300000Y-133500000D02*
X107300000Y-132800000D01*
X106100000Y-132800000D02*
X106100000Y-133500000D01*
X94350000Y-123400000D02*
X95050000Y-123400000D01*
X95050000Y-122200000D02*
X94350000Y-122200000D01*
X88200000Y-141025000D02*
X88200000Y-141725000D01*
X89400000Y-141725000D02*
X89400000Y-141025000D01*
X100940000Y-122930000D02*
X100940000Y-123630000D01*
X102140000Y-123630000D02*
X102140000Y-122930000D01*
X65600000Y-133700000D02*
X66300000Y-133700000D01*
X66300000Y-132500000D02*
X65600000Y-132500000D01*
X64900000Y-110850000D02*
X64900000Y-111550000D01*
X66100000Y-111550000D02*
X66100000Y-110850000D01*
X60350000Y-114125000D02*
X60350000Y-114825000D01*
X61550000Y-114825000D02*
X61550000Y-114125000D01*
X50800000Y-111900000D02*
X51500000Y-111900000D01*
X51500000Y-110700000D02*
X50800000Y-110700000D01*
X50800000Y-113950000D02*
X51500000Y-113950000D01*
X51500000Y-112750000D02*
X50800000Y-112750000D01*
X52900000Y-103850000D02*
X53600000Y-103850000D01*
X53600000Y-102650000D02*
X52900000Y-102650000D01*
X58875000Y-128950000D02*
X59875000Y-128950000D01*
X59875000Y-127600000D02*
X58875000Y-127600000D01*
X92850000Y-105475000D02*
X91850000Y-105475000D01*
X91850000Y-106825000D02*
X92850000Y-106825000D01*
X96050000Y-103425000D02*
X95050000Y-103425000D01*
X95050000Y-104775000D02*
X96050000Y-104775000D01*
X31650000Y-87175000D02*
X32650000Y-87175000D01*
X32650000Y-85825000D02*
X31650000Y-85825000D01*
X31650000Y-90675000D02*
X32650000Y-90675000D01*
X32650000Y-89325000D02*
X31650000Y-89325000D01*
X32500000Y-108200000D02*
X31500000Y-108200000D01*
X31500000Y-109550000D02*
X32500000Y-109550000D01*
D14*
G36*
X126105180Y-91868000D02*
X125764820Y-91868000D01*
X125764820Y-92122000D01*
X125764820Y-95594180D01*
X117553000Y-95594180D01*
X117553000Y-92122000D01*
X125764820Y-92122000D01*
X125764820Y-91868000D01*
X117215180Y-91868000D01*
X117215180Y-92122000D01*
X117215180Y-95594180D01*
X105615000Y-95594180D01*
X105615000Y-92122000D01*
X117215180Y-92122000D01*
X117215180Y-91868000D01*
X105277180Y-91868000D01*
X105277180Y-95848180D01*
X126105180Y-95848180D01*
X126105180Y-91868000D01*
X126105180Y-91868000D01*
X126105180Y-91868000D01*
G37*
X126105180Y-91868000D02*
X125764820Y-91868000D01*
X125764820Y-92122000D01*
X125764820Y-95594180D01*
X117553000Y-95594180D01*
X117553000Y-92122000D01*
X125764820Y-92122000D01*
X125764820Y-91868000D01*
X117215180Y-91868000D01*
X117215180Y-92122000D01*
X117215180Y-95594180D01*
X105615000Y-95594180D01*
X105615000Y-92122000D01*
X117215180Y-92122000D01*
X117215180Y-91868000D01*
X105277180Y-91868000D01*
X105277180Y-95848180D01*
X126105180Y-95848180D01*
X126105180Y-91868000D01*
X126105180Y-91868000D01*
D15*
X104580789Y-138600000D02*
G75*
G03X104580789Y-138600000I-380789J0D01*
G01*
X104975000Y-139475000D02*
X104717500Y-139475000D01*
X104975000Y-133125000D02*
X104717500Y-133125000D01*
X92225000Y-133125000D02*
X92482500Y-133125000D01*
X92225000Y-139475000D02*
X92482500Y-139475000D01*
X104975000Y-139475000D02*
X104975000Y-133125000D01*
X92225000Y-139475000D02*
X92225000Y-133125000D01*
X104717500Y-139475000D02*
X104717500Y-140550000D01*
D11*
X52358214Y-138426786D02*
X52388452Y-138457024D01*
X52479167Y-138487262D01*
X52539643Y-138487262D01*
X52630357Y-138457024D01*
X52690833Y-138396548D01*
X52721072Y-138336071D01*
X52751310Y-138215119D01*
X52751310Y-138124405D01*
X52721072Y-138003452D01*
X52690833Y-137942976D01*
X52630357Y-137882500D01*
X52539643Y-137852262D01*
X52479167Y-137852262D01*
X52388452Y-137882500D01*
X52358214Y-137912738D01*
X51783691Y-137852262D02*
X52086072Y-137852262D01*
X52116310Y-138154643D01*
X52086072Y-138124405D01*
X52025595Y-138094167D01*
X51874405Y-138094167D01*
X51813929Y-138124405D01*
X51783691Y-138154643D01*
X51753452Y-138215119D01*
X51753452Y-138366310D01*
X51783691Y-138426786D01*
X51813929Y-138457024D01*
X51874405Y-138487262D01*
X52025595Y-138487262D01*
X52086072Y-138457024D01*
X52116310Y-138426786D01*
X51148690Y-138487262D02*
X51511548Y-138487262D01*
X51330119Y-138487262D02*
X51330119Y-137852262D01*
X51390595Y-137942976D01*
X51451071Y-138003452D01*
X51511548Y-138033690D01*
X48333214Y-144926786D02*
X48363452Y-144957024D01*
X48454167Y-144987262D01*
X48514643Y-144987262D01*
X48605357Y-144957024D01*
X48665833Y-144896548D01*
X48696072Y-144836071D01*
X48726310Y-144715119D01*
X48726310Y-144624405D01*
X48696072Y-144503452D01*
X48665833Y-144442976D01*
X48605357Y-144382500D01*
X48514643Y-144352262D01*
X48454167Y-144352262D01*
X48363452Y-144382500D01*
X48333214Y-144412738D01*
X47758691Y-144352262D02*
X48061072Y-144352262D01*
X48091310Y-144654643D01*
X48061072Y-144624405D01*
X48000595Y-144594167D01*
X47849405Y-144594167D01*
X47788929Y-144624405D01*
X47758691Y-144654643D01*
X47728452Y-144715119D01*
X47728452Y-144866310D01*
X47758691Y-144926786D01*
X47788929Y-144957024D01*
X47849405Y-144987262D01*
X48000595Y-144987262D01*
X48061072Y-144957024D01*
X48091310Y-144926786D01*
X47335357Y-144352262D02*
X47274881Y-144352262D01*
X47214405Y-144382500D01*
X47184167Y-144412738D01*
X47153929Y-144473214D01*
X47123690Y-144594167D01*
X47123690Y-144745357D01*
X47153929Y-144866310D01*
X47184167Y-144926786D01*
X47214405Y-144957024D01*
X47274881Y-144987262D01*
X47335357Y-144987262D01*
X47395833Y-144957024D01*
X47426071Y-144926786D01*
X47456310Y-144866310D01*
X47486548Y-144745357D01*
X47486548Y-144594167D01*
X47456310Y-144473214D01*
X47426071Y-144412738D01*
X47395833Y-144382500D01*
X47335357Y-144352262D01*
X77758214Y-133762262D02*
X77969881Y-133459881D01*
X78121072Y-133762262D02*
X78121072Y-133127262D01*
X77879167Y-133127262D01*
X77818691Y-133157500D01*
X77788452Y-133187738D01*
X77758214Y-133248214D01*
X77758214Y-133338929D01*
X77788452Y-133399405D01*
X77818691Y-133429643D01*
X77879167Y-133459881D01*
X78121072Y-133459881D01*
X77153452Y-133762262D02*
X77516310Y-133762262D01*
X77334881Y-133762262D02*
X77334881Y-133127262D01*
X77395357Y-133217976D01*
X77455833Y-133278452D01*
X77516310Y-133308690D01*
X76911548Y-133187738D02*
X76881310Y-133157500D01*
X76820833Y-133127262D01*
X76669643Y-133127262D01*
X76609167Y-133157500D01*
X76578929Y-133187738D01*
X76548690Y-133248214D01*
X76548690Y-133308690D01*
X76578929Y-133399405D01*
X76941786Y-133762262D01*
X76548690Y-133762262D01*
X77813452Y-134737262D02*
X78176310Y-134737262D01*
X77994881Y-134737262D02*
X77994881Y-134102262D01*
X78055357Y-134192976D01*
X78115833Y-134253452D01*
X78176310Y-134283690D01*
X77420357Y-134102262D02*
X77359881Y-134102262D01*
X77299405Y-134132500D01*
X77269167Y-134162738D01*
X77238929Y-134223214D01*
X77208690Y-134344167D01*
X77208690Y-134495357D01*
X77238929Y-134616310D01*
X77269167Y-134676786D01*
X77299405Y-134707024D01*
X77359881Y-134737262D01*
X77420357Y-134737262D01*
X77480833Y-134707024D01*
X77511071Y-134676786D01*
X77541310Y-134616310D01*
X77571548Y-134495357D01*
X77571548Y-134344167D01*
X77541310Y-134223214D01*
X77511071Y-134162738D01*
X77480833Y-134132500D01*
X77420357Y-134102262D01*
X76936548Y-134737262D02*
X76936548Y-134102262D01*
X76573690Y-134737262D02*
X76845833Y-134374405D01*
X76573690Y-134102262D02*
X76936548Y-134465119D01*
X44008214Y-103476786D02*
X44038452Y-103507024D01*
X44129167Y-103537262D01*
X44189643Y-103537262D01*
X44280357Y-103507024D01*
X44340833Y-103446548D01*
X44371072Y-103386071D01*
X44401310Y-103265119D01*
X44401310Y-103174405D01*
X44371072Y-103053452D01*
X44340833Y-102992976D01*
X44280357Y-102932500D01*
X44189643Y-102902262D01*
X44129167Y-102902262D01*
X44038452Y-102932500D01*
X44008214Y-102962738D01*
X43463929Y-103113929D02*
X43463929Y-103537262D01*
X43615119Y-102872024D02*
X43766310Y-103325595D01*
X43373214Y-103325595D01*
X43101071Y-103537262D02*
X42980119Y-103537262D01*
X42919643Y-103507024D01*
X42889405Y-103476786D01*
X42828929Y-103386071D01*
X42798690Y-103265119D01*
X42798690Y-103023214D01*
X42828929Y-102962738D01*
X42859167Y-102932500D01*
X42919643Y-102902262D01*
X43040595Y-102902262D01*
X43101071Y-102932500D01*
X43131310Y-102962738D01*
X43161548Y-103023214D01*
X43161548Y-103174405D01*
X43131310Y-103234881D01*
X43101071Y-103265119D01*
X43040595Y-103295357D01*
X42919643Y-103295357D01*
X42859167Y-103265119D01*
X42828929Y-103234881D01*
X42798690Y-103174405D01*
X51983214Y-132451786D02*
X52013452Y-132482024D01*
X52104167Y-132512262D01*
X52164643Y-132512262D01*
X52255357Y-132482024D01*
X52315833Y-132421548D01*
X52346072Y-132361071D01*
X52376310Y-132240119D01*
X52376310Y-132149405D01*
X52346072Y-132028452D01*
X52315833Y-131967976D01*
X52255357Y-131907500D01*
X52164643Y-131877262D01*
X52104167Y-131877262D01*
X52013452Y-131907500D01*
X51983214Y-131937738D01*
X51741310Y-131937738D02*
X51711072Y-131907500D01*
X51650595Y-131877262D01*
X51499405Y-131877262D01*
X51438929Y-131907500D01*
X51408691Y-131937738D01*
X51378452Y-131998214D01*
X51378452Y-132058690D01*
X51408691Y-132149405D01*
X51771548Y-132512262D01*
X51378452Y-132512262D01*
X51076071Y-132512262D02*
X50955119Y-132512262D01*
X50894643Y-132482024D01*
X50864405Y-132451786D01*
X50803929Y-132361071D01*
X50773690Y-132240119D01*
X50773690Y-131998214D01*
X50803929Y-131937738D01*
X50834167Y-131907500D01*
X50894643Y-131877262D01*
X51015595Y-131877262D01*
X51076071Y-131907500D01*
X51106310Y-131937738D01*
X51136548Y-131998214D01*
X51136548Y-132149405D01*
X51106310Y-132209881D01*
X51076071Y-132240119D01*
X51015595Y-132270357D01*
X50894643Y-132270357D01*
X50834167Y-132240119D01*
X50803929Y-132209881D01*
X50773690Y-132149405D01*
X90830833Y-142201786D02*
X90861071Y-142232024D01*
X90951786Y-142262262D01*
X91012262Y-142262262D01*
X91102976Y-142232024D01*
X91163452Y-142171548D01*
X91193691Y-142111071D01*
X91223929Y-141990119D01*
X91223929Y-141899405D01*
X91193691Y-141778452D01*
X91163452Y-141717976D01*
X91102976Y-141657500D01*
X91012262Y-141627262D01*
X90951786Y-141627262D01*
X90861071Y-141657500D01*
X90830833Y-141687738D01*
X90588929Y-141687738D02*
X90558691Y-141657500D01*
X90498214Y-141627262D01*
X90347024Y-141627262D01*
X90286548Y-141657500D01*
X90256310Y-141687738D01*
X90226071Y-141748214D01*
X90226071Y-141808690D01*
X90256310Y-141899405D01*
X90619167Y-142262262D01*
X90226071Y-142262262D01*
X112330833Y-144401786D02*
X112361071Y-144432024D01*
X112451786Y-144462262D01*
X112512262Y-144462262D01*
X112602976Y-144432024D01*
X112663452Y-144371548D01*
X112693691Y-144311071D01*
X112723929Y-144190119D01*
X112723929Y-144099405D01*
X112693691Y-143978452D01*
X112663452Y-143917976D01*
X112602976Y-143857500D01*
X112512262Y-143827262D01*
X112451786Y-143827262D01*
X112361071Y-143857500D01*
X112330833Y-143887738D01*
X111786548Y-144038929D02*
X111786548Y-144462262D01*
X111937738Y-143797024D02*
X112088929Y-144250595D01*
X111695833Y-144250595D01*
X112417024Y-144988929D02*
X112417024Y-145412262D01*
X112568214Y-144747024D02*
X112719405Y-145200595D01*
X112326309Y-145200595D01*
X112084405Y-145351786D02*
X112054166Y-145382024D01*
X112084405Y-145412262D01*
X112114643Y-145382024D01*
X112084405Y-145351786D01*
X112084405Y-145412262D01*
X111842500Y-144777262D02*
X111419166Y-144777262D01*
X111691309Y-145412262D01*
X110905119Y-144988929D02*
X110905119Y-145412262D01*
X111177262Y-144988929D02*
X111177262Y-145321548D01*
X111147023Y-145382024D01*
X111086547Y-145412262D01*
X110995833Y-145412262D01*
X110935357Y-145382024D01*
X110905119Y-145351786D01*
X110391071Y-145079643D02*
X110602738Y-145079643D01*
X110602738Y-145412262D02*
X110602738Y-144777262D01*
X110300357Y-144777262D01*
X106780833Y-130926786D02*
X106811071Y-130957024D01*
X106901786Y-130987262D01*
X106962262Y-130987262D01*
X107052976Y-130957024D01*
X107113452Y-130896548D01*
X107143691Y-130836071D01*
X107173929Y-130715119D01*
X107173929Y-130624405D01*
X107143691Y-130503452D01*
X107113452Y-130442976D01*
X107052976Y-130382500D01*
X106962262Y-130352262D01*
X106901786Y-130352262D01*
X106811071Y-130382500D01*
X106780833Y-130412738D01*
X106206310Y-130352262D02*
X106508691Y-130352262D01*
X106538929Y-130654643D01*
X106508691Y-130624405D01*
X106448214Y-130594167D01*
X106297024Y-130594167D01*
X106236548Y-130624405D01*
X106206310Y-130654643D01*
X106176071Y-130715119D01*
X106176071Y-130866310D01*
X106206310Y-130926786D01*
X106236548Y-130957024D01*
X106297024Y-130987262D01*
X106448214Y-130987262D01*
X106508691Y-130957024D01*
X106538929Y-130926786D01*
X92055833Y-123026786D02*
X92086071Y-123057024D01*
X92176786Y-123087262D01*
X92237262Y-123087262D01*
X92327976Y-123057024D01*
X92388452Y-122996548D01*
X92418691Y-122936071D01*
X92448929Y-122815119D01*
X92448929Y-122724405D01*
X92418691Y-122603452D01*
X92388452Y-122542976D01*
X92327976Y-122482500D01*
X92237262Y-122452262D01*
X92176786Y-122452262D01*
X92086071Y-122482500D01*
X92055833Y-122512738D01*
X91844167Y-122452262D02*
X91420833Y-122452262D01*
X91692976Y-123087262D01*
X88905833Y-144126786D02*
X88936071Y-144157024D01*
X89026786Y-144187262D01*
X89087262Y-144187262D01*
X89177976Y-144157024D01*
X89238452Y-144096548D01*
X89268691Y-144036071D01*
X89298929Y-143915119D01*
X89298929Y-143824405D01*
X89268691Y-143703452D01*
X89238452Y-143642976D01*
X89177976Y-143582500D01*
X89087262Y-143552262D01*
X89026786Y-143552262D01*
X88936071Y-143582500D01*
X88905833Y-143612738D01*
X88542976Y-143824405D02*
X88603452Y-143794167D01*
X88633691Y-143763929D01*
X88663929Y-143703452D01*
X88663929Y-143673214D01*
X88633691Y-143612738D01*
X88603452Y-143582500D01*
X88542976Y-143552262D01*
X88422024Y-143552262D01*
X88361548Y-143582500D01*
X88331310Y-143612738D01*
X88301071Y-143673214D01*
X88301071Y-143703452D01*
X88331310Y-143763929D01*
X88361548Y-143794167D01*
X88422024Y-143824405D01*
X88542976Y-143824405D01*
X88603452Y-143854643D01*
X88633691Y-143884881D01*
X88663929Y-143945357D01*
X88663929Y-144066310D01*
X88633691Y-144126786D01*
X88603452Y-144157024D01*
X88542976Y-144187262D01*
X88422024Y-144187262D01*
X88361548Y-144157024D01*
X88331310Y-144126786D01*
X88301071Y-144066310D01*
X88301071Y-143945357D01*
X88331310Y-143884881D01*
X88361548Y-143854643D01*
X88422024Y-143824405D01*
X101983214Y-126376786D02*
X102013452Y-126407024D01*
X102104167Y-126437262D01*
X102164643Y-126437262D01*
X102255357Y-126407024D01*
X102315833Y-126346548D01*
X102346072Y-126286071D01*
X102376310Y-126165119D01*
X102376310Y-126074405D01*
X102346072Y-125953452D01*
X102315833Y-125892976D01*
X102255357Y-125832500D01*
X102164643Y-125802262D01*
X102104167Y-125802262D01*
X102013452Y-125832500D01*
X101983214Y-125862738D01*
X101378452Y-126437262D02*
X101741310Y-126437262D01*
X101559881Y-126437262D02*
X101559881Y-125802262D01*
X101620357Y-125892976D01*
X101680833Y-125953452D01*
X101741310Y-125983690D01*
X101136548Y-125862738D02*
X101106310Y-125832500D01*
X101045833Y-125802262D01*
X100894643Y-125802262D01*
X100834167Y-125832500D01*
X100803929Y-125862738D01*
X100773690Y-125923214D01*
X100773690Y-125983690D01*
X100803929Y-126074405D01*
X101166786Y-126437262D01*
X100773690Y-126437262D01*
X66358214Y-135076786D02*
X66388452Y-135107024D01*
X66479167Y-135137262D01*
X66539643Y-135137262D01*
X66630357Y-135107024D01*
X66690833Y-135046548D01*
X66721072Y-134986071D01*
X66751310Y-134865119D01*
X66751310Y-134774405D01*
X66721072Y-134653452D01*
X66690833Y-134592976D01*
X66630357Y-134532500D01*
X66539643Y-134502262D01*
X66479167Y-134502262D01*
X66388452Y-134532500D01*
X66358214Y-134562738D01*
X66146548Y-134502262D02*
X65753452Y-134502262D01*
X65965119Y-134744167D01*
X65874405Y-134744167D01*
X65813929Y-134774405D01*
X65783691Y-134804643D01*
X65753452Y-134865119D01*
X65753452Y-135016310D01*
X65783691Y-135076786D01*
X65813929Y-135107024D01*
X65874405Y-135137262D01*
X66055833Y-135137262D01*
X66116310Y-135107024D01*
X66146548Y-135076786D01*
X65148690Y-135137262D02*
X65511548Y-135137262D01*
X65330119Y-135137262D02*
X65330119Y-134502262D01*
X65390595Y-134592976D01*
X65451071Y-134653452D01*
X65511548Y-134683690D01*
X67908214Y-112401786D02*
X67938452Y-112432024D01*
X68029167Y-112462262D01*
X68089643Y-112462262D01*
X68180357Y-112432024D01*
X68240833Y-112371548D01*
X68271072Y-112311071D01*
X68301310Y-112190119D01*
X68301310Y-112099405D01*
X68271072Y-111978452D01*
X68240833Y-111917976D01*
X68180357Y-111857500D01*
X68089643Y-111827262D01*
X68029167Y-111827262D01*
X67938452Y-111857500D01*
X67908214Y-111887738D01*
X67696548Y-111827262D02*
X67303452Y-111827262D01*
X67515119Y-112069167D01*
X67424405Y-112069167D01*
X67363929Y-112099405D01*
X67333691Y-112129643D01*
X67303452Y-112190119D01*
X67303452Y-112341310D01*
X67333691Y-112401786D01*
X67363929Y-112432024D01*
X67424405Y-112462262D01*
X67605833Y-112462262D01*
X67666310Y-112432024D01*
X67696548Y-112401786D01*
X67061548Y-111887738D02*
X67031310Y-111857500D01*
X66970833Y-111827262D01*
X66819643Y-111827262D01*
X66759167Y-111857500D01*
X66728929Y-111887738D01*
X66698690Y-111948214D01*
X66698690Y-112008690D01*
X66728929Y-112099405D01*
X67091786Y-112462262D01*
X66698690Y-112462262D01*
X59358214Y-115676786D02*
X59388452Y-115707024D01*
X59479167Y-115737262D01*
X59539643Y-115737262D01*
X59630357Y-115707024D01*
X59690833Y-115646548D01*
X59721072Y-115586071D01*
X59751310Y-115465119D01*
X59751310Y-115374405D01*
X59721072Y-115253452D01*
X59690833Y-115192976D01*
X59630357Y-115132500D01*
X59539643Y-115102262D01*
X59479167Y-115102262D01*
X59388452Y-115132500D01*
X59358214Y-115162738D01*
X59146548Y-115102262D02*
X58753452Y-115102262D01*
X58965119Y-115344167D01*
X58874405Y-115344167D01*
X58813929Y-115374405D01*
X58783691Y-115404643D01*
X58753452Y-115465119D01*
X58753452Y-115616310D01*
X58783691Y-115676786D01*
X58813929Y-115707024D01*
X58874405Y-115737262D01*
X59055833Y-115737262D01*
X59116310Y-115707024D01*
X59146548Y-115676786D01*
X58541786Y-115102262D02*
X58118452Y-115102262D01*
X58390595Y-115737262D01*
X50733214Y-110101786D02*
X50763452Y-110132024D01*
X50854167Y-110162262D01*
X50914643Y-110162262D01*
X51005357Y-110132024D01*
X51065833Y-110071548D01*
X51096072Y-110011071D01*
X51126310Y-109890119D01*
X51126310Y-109799405D01*
X51096072Y-109678452D01*
X51065833Y-109617976D01*
X51005357Y-109557500D01*
X50914643Y-109527262D01*
X50854167Y-109527262D01*
X50763452Y-109557500D01*
X50733214Y-109587738D01*
X50188929Y-109738929D02*
X50188929Y-110162262D01*
X50340119Y-109497024D02*
X50491310Y-109950595D01*
X50098214Y-109950595D01*
X49886548Y-109587738D02*
X49856310Y-109557500D01*
X49795833Y-109527262D01*
X49644643Y-109527262D01*
X49584167Y-109557500D01*
X49553929Y-109587738D01*
X49523690Y-109648214D01*
X49523690Y-109708690D01*
X49553929Y-109799405D01*
X49916786Y-110162262D01*
X49523690Y-110162262D01*
X50733214Y-115076786D02*
X50763452Y-115107024D01*
X50854167Y-115137262D01*
X50914643Y-115137262D01*
X51005357Y-115107024D01*
X51065833Y-115046548D01*
X51096072Y-114986071D01*
X51126310Y-114865119D01*
X51126310Y-114774405D01*
X51096072Y-114653452D01*
X51065833Y-114592976D01*
X51005357Y-114532500D01*
X50914643Y-114502262D01*
X50854167Y-114502262D01*
X50763452Y-114532500D01*
X50733214Y-114562738D01*
X50188929Y-114713929D02*
X50188929Y-115137262D01*
X50340119Y-114472024D02*
X50491310Y-114925595D01*
X50098214Y-114925595D01*
X49584167Y-114713929D02*
X49584167Y-115137262D01*
X49735357Y-114472024D02*
X49886548Y-114925595D01*
X49493452Y-114925595D01*
X56708214Y-103476786D02*
X56738452Y-103507024D01*
X56829167Y-103537262D01*
X56889643Y-103537262D01*
X56980357Y-103507024D01*
X57040833Y-103446548D01*
X57071072Y-103386071D01*
X57101310Y-103265119D01*
X57101310Y-103174405D01*
X57071072Y-103053452D01*
X57040833Y-102992976D01*
X56980357Y-102932500D01*
X56889643Y-102902262D01*
X56829167Y-102902262D01*
X56738452Y-102932500D01*
X56708214Y-102962738D01*
X56163929Y-103113929D02*
X56163929Y-103537262D01*
X56315119Y-102872024D02*
X56466310Y-103325595D01*
X56073214Y-103325595D01*
X55740595Y-103174405D02*
X55801071Y-103144167D01*
X55831310Y-103113929D01*
X55861548Y-103053452D01*
X55861548Y-103023214D01*
X55831310Y-102962738D01*
X55801071Y-102932500D01*
X55740595Y-102902262D01*
X55619643Y-102902262D01*
X55559167Y-102932500D01*
X55528929Y-102962738D01*
X55498690Y-103023214D01*
X55498690Y-103053452D01*
X55528929Y-103113929D01*
X55559167Y-103144167D01*
X55619643Y-103174405D01*
X55740595Y-103174405D01*
X55801071Y-103204643D01*
X55831310Y-103234881D01*
X55861548Y-103295357D01*
X55861548Y-103416310D01*
X55831310Y-103476786D01*
X55801071Y-103507024D01*
X55740595Y-103537262D01*
X55619643Y-103537262D01*
X55559167Y-103507024D01*
X55528929Y-103476786D01*
X55498690Y-103416310D01*
X55498690Y-103295357D01*
X55528929Y-103234881D01*
X55559167Y-103204643D01*
X55619643Y-103174405D01*
X60958214Y-127162262D02*
X61169881Y-126859881D01*
X61321072Y-127162262D02*
X61321072Y-126527262D01*
X61079167Y-126527262D01*
X61018691Y-126557500D01*
X60988452Y-126587738D01*
X60958214Y-126648214D01*
X60958214Y-126738929D01*
X60988452Y-126799405D01*
X61018691Y-126829643D01*
X61079167Y-126859881D01*
X61321072Y-126859881D01*
X60353452Y-127162262D02*
X60716310Y-127162262D01*
X60534881Y-127162262D02*
X60534881Y-126527262D01*
X60595357Y-126617976D01*
X60655833Y-126678452D01*
X60716310Y-126708690D01*
X59809167Y-126738929D02*
X59809167Y-127162262D01*
X59960357Y-126497024D02*
X60111548Y-126950595D01*
X59718452Y-126950595D01*
X58663452Y-127162262D02*
X59026310Y-127162262D01*
X58844881Y-127162262D02*
X58844881Y-126527262D01*
X58905357Y-126617976D01*
X58965833Y-126678452D01*
X59026310Y-126708690D01*
X58270357Y-126527262D02*
X58209881Y-126527262D01*
X58149405Y-126557500D01*
X58119167Y-126587738D01*
X58088929Y-126648214D01*
X58058690Y-126769167D01*
X58058690Y-126920357D01*
X58088929Y-127041310D01*
X58119167Y-127101786D01*
X58149405Y-127132024D01*
X58209881Y-127162262D01*
X58270357Y-127162262D01*
X58330833Y-127132024D01*
X58361071Y-127101786D01*
X58391310Y-127041310D01*
X58421548Y-126920357D01*
X58421548Y-126769167D01*
X58391310Y-126648214D01*
X58361071Y-126587738D01*
X58330833Y-126557500D01*
X58270357Y-126527262D01*
X57786548Y-127162262D02*
X57786548Y-126527262D01*
X57423690Y-127162262D02*
X57695833Y-126799405D01*
X57423690Y-126527262D02*
X57786548Y-126890119D01*
X89558214Y-105387262D02*
X89769881Y-105084881D01*
X89921072Y-105387262D02*
X89921072Y-104752262D01*
X89679167Y-104752262D01*
X89618691Y-104782500D01*
X89588452Y-104812738D01*
X89558214Y-104873214D01*
X89558214Y-104963929D01*
X89588452Y-105024405D01*
X89618691Y-105054643D01*
X89679167Y-105084881D01*
X89921072Y-105084881D01*
X89255833Y-105387262D02*
X89134881Y-105387262D01*
X89074405Y-105357024D01*
X89044167Y-105326786D01*
X88983691Y-105236071D01*
X88953452Y-105115119D01*
X88953452Y-104873214D01*
X88983691Y-104812738D01*
X89013929Y-104782500D01*
X89074405Y-104752262D01*
X89195357Y-104752262D01*
X89255833Y-104782500D01*
X89286072Y-104812738D01*
X89316310Y-104873214D01*
X89316310Y-105024405D01*
X89286072Y-105084881D01*
X89255833Y-105115119D01*
X89195357Y-105145357D01*
X89074405Y-105145357D01*
X89013929Y-105115119D01*
X88983691Y-105084881D01*
X88953452Y-105024405D01*
X88711548Y-104812738D02*
X88681310Y-104782500D01*
X88620833Y-104752262D01*
X88469643Y-104752262D01*
X88409167Y-104782500D01*
X88378929Y-104812738D01*
X88348690Y-104873214D01*
X88348690Y-104933690D01*
X88378929Y-105024405D01*
X88741786Y-105387262D01*
X88348690Y-105387262D01*
X89618691Y-105827262D02*
X89921072Y-105827262D01*
X89951310Y-106129643D01*
X89921072Y-106099405D01*
X89860595Y-106069167D01*
X89709405Y-106069167D01*
X89648929Y-106099405D01*
X89618691Y-106129643D01*
X89588452Y-106190119D01*
X89588452Y-106341310D01*
X89618691Y-106401786D01*
X89648929Y-106432024D01*
X89709405Y-106462262D01*
X89860595Y-106462262D01*
X89921072Y-106432024D01*
X89951310Y-106401786D01*
X88983690Y-106462262D02*
X89346548Y-106462262D01*
X89165119Y-106462262D02*
X89165119Y-105827262D01*
X89225595Y-105917976D01*
X89286071Y-105978452D01*
X89346548Y-106008690D01*
X88711548Y-106462262D02*
X88711548Y-105827262D01*
X88348690Y-106462262D02*
X88620833Y-106099405D01*
X88348690Y-105827262D02*
X88711548Y-106190119D01*
X99208214Y-103662262D02*
X99419881Y-103359881D01*
X99571072Y-103662262D02*
X99571072Y-103027262D01*
X99329167Y-103027262D01*
X99268691Y-103057500D01*
X99238452Y-103087738D01*
X99208214Y-103148214D01*
X99208214Y-103238929D01*
X99238452Y-103299405D01*
X99268691Y-103329643D01*
X99329167Y-103359881D01*
X99571072Y-103359881D01*
X98905833Y-103662262D02*
X98784881Y-103662262D01*
X98724405Y-103632024D01*
X98694167Y-103601786D01*
X98633691Y-103511071D01*
X98603452Y-103390119D01*
X98603452Y-103148214D01*
X98633691Y-103087738D01*
X98663929Y-103057500D01*
X98724405Y-103027262D01*
X98845357Y-103027262D01*
X98905833Y-103057500D01*
X98936072Y-103087738D01*
X98966310Y-103148214D01*
X98966310Y-103299405D01*
X98936072Y-103359881D01*
X98905833Y-103390119D01*
X98845357Y-103420357D01*
X98724405Y-103420357D01*
X98663929Y-103390119D01*
X98633691Y-103359881D01*
X98603452Y-103299405D01*
X97998690Y-103662262D02*
X98361548Y-103662262D01*
X98180119Y-103662262D02*
X98180119Y-103027262D01*
X98240595Y-103117976D01*
X98301071Y-103178452D01*
X98361548Y-103208690D01*
X99268691Y-104252262D02*
X99571072Y-104252262D01*
X99601310Y-104554643D01*
X99571072Y-104524405D01*
X99510595Y-104494167D01*
X99359405Y-104494167D01*
X99298929Y-104524405D01*
X99268691Y-104554643D01*
X99238452Y-104615119D01*
X99238452Y-104766310D01*
X99268691Y-104826786D01*
X99298929Y-104857024D01*
X99359405Y-104887262D01*
X99510595Y-104887262D01*
X99571072Y-104857024D01*
X99601310Y-104826786D01*
X98633690Y-104887262D02*
X98996548Y-104887262D01*
X98815119Y-104887262D02*
X98815119Y-104252262D01*
X98875595Y-104342976D01*
X98936071Y-104403452D01*
X98996548Y-104433690D01*
X98361548Y-104887262D02*
X98361548Y-104252262D01*
X97998690Y-104887262D02*
X98270833Y-104524405D01*
X97998690Y-104252262D02*
X98361548Y-104615119D01*
X29410595Y-86062262D02*
X29622262Y-85759881D01*
X29773453Y-86062262D02*
X29773453Y-85427262D01*
X29531548Y-85427262D01*
X29471072Y-85457500D01*
X29440833Y-85487738D01*
X29410595Y-85548214D01*
X29410595Y-85638929D01*
X29440833Y-85699405D01*
X29471072Y-85729643D01*
X29531548Y-85759881D01*
X29773453Y-85759881D01*
X28866310Y-85638929D02*
X28866310Y-86062262D01*
X29017500Y-85397024D02*
X29168691Y-85850595D01*
X28775595Y-85850595D01*
X28563929Y-85487738D02*
X28533691Y-85457500D01*
X28473214Y-85427262D01*
X28322024Y-85427262D01*
X28261548Y-85457500D01*
X28231310Y-85487738D01*
X28201071Y-85548214D01*
X28201071Y-85608690D01*
X28231310Y-85699405D01*
X28594167Y-86062262D01*
X28201071Y-86062262D01*
X27596309Y-86062262D02*
X27959167Y-86062262D01*
X27777738Y-86062262D02*
X27777738Y-85427262D01*
X27838214Y-85517976D01*
X27898690Y-85578452D01*
X27959167Y-85608690D01*
X29483810Y-86738929D02*
X29483810Y-87162262D01*
X29635000Y-86497024D02*
X29786191Y-86950595D01*
X29393095Y-86950595D01*
X29211667Y-86527262D02*
X28788333Y-86527262D01*
X29060476Y-87162262D01*
X28425476Y-86527262D02*
X28365000Y-86527262D01*
X28304524Y-86557500D01*
X28274286Y-86587738D01*
X28244048Y-86648214D01*
X28213809Y-86769167D01*
X28213809Y-86920357D01*
X28244048Y-87041310D01*
X28274286Y-87101786D01*
X28304524Y-87132024D01*
X28365000Y-87162262D01*
X28425476Y-87162262D01*
X28485952Y-87132024D01*
X28516190Y-87101786D01*
X28546429Y-87041310D01*
X28576667Y-86920357D01*
X28576667Y-86769167D01*
X28546429Y-86648214D01*
X28516190Y-86587738D01*
X28485952Y-86557500D01*
X28425476Y-86527262D01*
X29410595Y-89562262D02*
X29622262Y-89259881D01*
X29773453Y-89562262D02*
X29773453Y-88927262D01*
X29531548Y-88927262D01*
X29471072Y-88957500D01*
X29440833Y-88987738D01*
X29410595Y-89048214D01*
X29410595Y-89138929D01*
X29440833Y-89199405D01*
X29471072Y-89229643D01*
X29531548Y-89259881D01*
X29773453Y-89259881D01*
X28866310Y-89138929D02*
X28866310Y-89562262D01*
X29017500Y-88897024D02*
X29168691Y-89350595D01*
X28775595Y-89350595D01*
X28563929Y-88987738D02*
X28533691Y-88957500D01*
X28473214Y-88927262D01*
X28322024Y-88927262D01*
X28261548Y-88957500D01*
X28231310Y-88987738D01*
X28201071Y-89048214D01*
X28201071Y-89108690D01*
X28231310Y-89199405D01*
X28594167Y-89562262D01*
X28201071Y-89562262D01*
X27959167Y-88987738D02*
X27928929Y-88957500D01*
X27868452Y-88927262D01*
X27717262Y-88927262D01*
X27656786Y-88957500D01*
X27626548Y-88987738D01*
X27596309Y-89048214D01*
X27596309Y-89108690D01*
X27626548Y-89199405D01*
X27989405Y-89562262D01*
X27596309Y-89562262D01*
X29483810Y-90238929D02*
X29483810Y-90662262D01*
X29635000Y-89997024D02*
X29786191Y-90450595D01*
X29393095Y-90450595D01*
X29211667Y-90027262D02*
X28788333Y-90027262D01*
X29060476Y-90662262D01*
X28425476Y-90027262D02*
X28365000Y-90027262D01*
X28304524Y-90057500D01*
X28274286Y-90087738D01*
X28244048Y-90148214D01*
X28213809Y-90269167D01*
X28213809Y-90420357D01*
X28244048Y-90541310D01*
X28274286Y-90601786D01*
X28304524Y-90632024D01*
X28365000Y-90662262D01*
X28425476Y-90662262D01*
X28485952Y-90632024D01*
X28516190Y-90601786D01*
X28546429Y-90541310D01*
X28576667Y-90420357D01*
X28576667Y-90269167D01*
X28546429Y-90148214D01*
X28516190Y-90087738D01*
X28485952Y-90057500D01*
X28425476Y-90027262D01*
X29335595Y-107912262D02*
X29547262Y-107609881D01*
X29698453Y-107912262D02*
X29698453Y-107277262D01*
X29456548Y-107277262D01*
X29396072Y-107307500D01*
X29365833Y-107337738D01*
X29335595Y-107398214D01*
X29335595Y-107488929D01*
X29365833Y-107549405D01*
X29396072Y-107579643D01*
X29456548Y-107609881D01*
X29698453Y-107609881D01*
X28791310Y-107488929D02*
X28791310Y-107912262D01*
X28942500Y-107247024D02*
X29093691Y-107700595D01*
X28700595Y-107700595D01*
X28488929Y-107337738D02*
X28458691Y-107307500D01*
X28398214Y-107277262D01*
X28247024Y-107277262D01*
X28186548Y-107307500D01*
X28156310Y-107337738D01*
X28126071Y-107398214D01*
X28126071Y-107458690D01*
X28156310Y-107549405D01*
X28519167Y-107912262D01*
X28126071Y-107912262D01*
X27914405Y-107277262D02*
X27521309Y-107277262D01*
X27732976Y-107519167D01*
X27642262Y-107519167D01*
X27581786Y-107549405D01*
X27551548Y-107579643D01*
X27521309Y-107640119D01*
X27521309Y-107791310D01*
X27551548Y-107851786D01*
X27581786Y-107882024D01*
X27642262Y-107912262D01*
X27823690Y-107912262D01*
X27884167Y-107882024D01*
X27914405Y-107851786D01*
X29283810Y-108563929D02*
X29283810Y-108987262D01*
X29435000Y-108322024D02*
X29586191Y-108775595D01*
X29193095Y-108775595D01*
X29011667Y-108352262D02*
X28588333Y-108352262D01*
X28860476Y-108987262D01*
X28225476Y-108352262D02*
X28165000Y-108352262D01*
X28104524Y-108382500D01*
X28074286Y-108412738D01*
X28044048Y-108473214D01*
X28013809Y-108594167D01*
X28013809Y-108745357D01*
X28044048Y-108866310D01*
X28074286Y-108926786D01*
X28104524Y-108957024D01*
X28165000Y-108987262D01*
X28225476Y-108987262D01*
X28285952Y-108957024D01*
X28316190Y-108926786D01*
X28346429Y-108866310D01*
X28376667Y-108745357D01*
X28376667Y-108594167D01*
X28346429Y-108473214D01*
X28316190Y-108412738D01*
X28285952Y-108382500D01*
X28225476Y-108352262D01*
X104808810Y-129527262D02*
X104808810Y-130041310D01*
X104778571Y-130101786D01*
X104748333Y-130132024D01*
X104687857Y-130162262D01*
X104566905Y-130162262D01*
X104506429Y-130132024D01*
X104476190Y-130101786D01*
X104445952Y-130041310D01*
X104445952Y-129527262D01*
X103810952Y-130162262D02*
X104173810Y-130162262D01*
X103992381Y-130162262D02*
X103992381Y-129527262D01*
X104052857Y-129617976D01*
X104113333Y-129678452D01*
X104173810Y-129708690D01*
X104772144Y-130752262D02*
X104348810Y-130752262D01*
X104620953Y-131387262D01*
X103834763Y-130963929D02*
X103834763Y-131387262D01*
X103985953Y-130722024D02*
X104137144Y-131175595D01*
X103744048Y-131175595D01*
X103532382Y-131205833D02*
X103230001Y-131205833D01*
X103592858Y-131387262D02*
X103381191Y-130752262D01*
X103169524Y-131387262D01*
X102655477Y-131387262D02*
X102957858Y-131387262D01*
X102957858Y-130752262D01*
X102534524Y-130752262D02*
X102322857Y-131387262D01*
X102111190Y-130752262D01*
X101536666Y-131326786D02*
X101566904Y-131357024D01*
X101657619Y-131387262D01*
X101718095Y-131387262D01*
X101808809Y-131357024D01*
X101869285Y-131296548D01*
X101899524Y-131236071D01*
X101929762Y-131115119D01*
X101929762Y-131024405D01*
X101899524Y-130903452D01*
X101869285Y-130842976D01*
X101808809Y-130782500D01*
X101718095Y-130752262D01*
X101657619Y-130752262D01*
X101566904Y-130782500D01*
X101536666Y-130812738D01*
X100931904Y-131387262D02*
X101294762Y-131387262D01*
X101113333Y-131387262D02*
X101113333Y-130752262D01*
X101173809Y-130842976D01*
X101234285Y-130903452D01*
X101294762Y-130933690D01*
X100387619Y-130752262D02*
X100508571Y-130752262D01*
X100569047Y-130782500D01*
X100599285Y-130812738D01*
X100659762Y-130903452D01*
X100690000Y-131024405D01*
X100690000Y-131266310D01*
X100659762Y-131326786D01*
X100629523Y-131357024D01*
X100569047Y-131387262D01*
X100448095Y-131387262D01*
X100387619Y-131357024D01*
X100357381Y-131326786D01*
X100327142Y-131266310D01*
X100327142Y-131115119D01*
X100357381Y-131054643D01*
X100387619Y-131024405D01*
X100448095Y-130994167D01*
X100569047Y-130994167D01*
X100629523Y-131024405D01*
X100659762Y-131054643D01*
X100690000Y-131115119D01*
X99782857Y-130963929D02*
X99782857Y-131387262D01*
X99934047Y-130722024D02*
X100085238Y-131175595D01*
X99692142Y-131175595D01*
X99480476Y-130812738D02*
X99450238Y-130782500D01*
X99389761Y-130752262D01*
X99238571Y-130752262D01*
X99178095Y-130782500D01*
X99147857Y-130812738D01*
X99117618Y-130873214D01*
X99117618Y-130933690D01*
X99147857Y-131024405D01*
X99510714Y-131387262D01*
X99117618Y-131387262D01*
X98573333Y-130963929D02*
X98573333Y-131387262D01*
X98724523Y-130722024D02*
X98875714Y-131175595D01*
X98482618Y-131175595D01*
X97938333Y-130752262D02*
X98240714Y-130752262D01*
X98270952Y-131054643D01*
X98240714Y-131024405D01*
X98180237Y-130994167D01*
X98029047Y-130994167D01*
X97968571Y-131024405D01*
X97938333Y-131054643D01*
X97908094Y-131115119D01*
X97908094Y-131266310D01*
X97938333Y-131326786D01*
X97968571Y-131357024D01*
X98029047Y-131387262D01*
X98180237Y-131387262D01*
X98240714Y-131357024D01*
X98270952Y-131326786D01*
M02*
