M48
;DRILL file {KiCad 4.0.2-stable} date 14/07/2016 12:53:26
;FORMAT={-:-/ absolute / inch / decimal}
FMAT,2
INCH,TZ
T1C0.012
T2C0.039
T3C0.040
T4C0.075
T5C0.157
%
G90
G05
M72
T1
X1.2175Y-4.378
X1.2795Y-4.2096
X1.3307Y-4.2096
X1.3563Y-5.5305
X1.3563Y-5.6289
X1.3819Y-4.1388
X1.3819Y-4.2096
X1.3819Y-4.2805
X1.3819Y-4.3435
X1.3976Y-3.6969
X1.3976Y-3.7559
X1.3976Y-3.815
X1.3976Y-3.874
X1.3976Y-3.9921
X1.4134Y-3.5039
X1.4429Y-5.0335
X1.4429Y-5.1358
X1.4429Y-5.2382
X1.4429Y-5.3406
X1.4547Y-5.5305
X1.4547Y-5.6289
X1.4685Y-3.815
X1.4685Y-3.874
X1.4685Y-3.9331
X1.4685Y-3.9921
X1.4754Y-4.8071
X1.4803Y-3.5039
X1.4941Y-5.0846
X1.4941Y-5.187
X1.4941Y-5.2894
X1.4951Y-5.3917
X1.5226Y-4.8543
X1.5335Y-5.4636
X1.5335Y-5.5305
X1.5335Y-5.5974
X1.5394Y-3.874
X1.5394Y-3.9331
X1.5472Y-3.5039
X1.5561Y-5.0709
X1.5738Y-4.8543
X1.5738Y-4.8937
X1.5748Y-3.9921
X1.6083Y-5.8681
X1.6102Y-3.9321
X1.6142Y-3.5039
X1.622Y-4.376
X1.622Y-4.4862
X1.6339Y-4.8967
X1.6437Y-5.2185
X1.6614Y-4.2539
X1.6673Y-5.7559
X1.6713Y-5.4902
X1.6713Y-5.5374
X1.6713Y-5.6378
X1.6772Y-4.3209
X1.6772Y-4.4311
X1.6772Y-4.5413
X1.6791Y-5.2598
X1.6811Y-3.9921
X1.6821Y-3.5039
X1.6909Y-5.2185
X1.7205Y-4.1949
X1.7205Y-4.2539
X1.7264Y-5.8681
X1.7303Y-5.2343
X1.7303Y-5.2854
X1.7441Y-3.9921
X1.7461Y-5.4902
X1.7461Y-5.5374
X1.7461Y-5.6378
X1.7461Y-5.7972
X1.749Y-3.5039
X1.7657Y-4.8543
X1.7756Y-4.6043
X1.7874Y-4.1358
X1.7874Y-4.1949
X1.8012Y-5.0728
X1.8012Y-5.1594
X1.8071Y-3.9921
X1.813Y-5.8169
X1.8159Y-3.5039
X1.8386Y-5.8406
X1.8415Y-5.5098
X1.8484Y-5.7579
X1.8543Y-5.5925
X1.8563Y-3.5492
X1.8701Y-3.7362
X1.8701Y-4.128
X1.877Y-4.3809
X1.878Y-4.4193
X1.8858Y-5.5531
X1.8878Y-5.4646
X1.8947Y-5.2185
X1.9035Y-3.5492
X1.9055Y-4.2392
X1.9252Y-3.9921
X1.9252Y-5.7913
X1.9311Y-5.2854
X1.9311Y-5.8681
X1.935Y-5.4646
X1.939Y-5.5531
X1.9498Y-5.1417
X1.9646Y-3.6821
X1.9646Y-3.9921
X1.9646Y-4.188
X1.9724Y-5.5098
X1.9852Y-5.1063
X1.998Y-5.6437
X2.0059Y-5.8091
X2.0059Y-5.8681
X2.0207Y-5.0709
X2.0246Y-4.5443
X2.0246Y-4.6427
X2.0246Y-4.7411
X2.0246Y-4.8396
X2.0246Y-4.938
X2.0276Y-3.9921
X2.0384Y-3.3465
X2.0384Y-3.4252
X2.0512Y-4.5138
X2.0522Y-5.1398
X2.0591Y-4.128
X2.0591Y-4.311
X2.0679Y-3.6801
X2.0738Y-5.0167
X2.0738Y-5.0728
X2.0807Y-5.8681
X2.0906Y-3.9921
X2.0945Y-5.6398
X2.0984Y-5.7579
X2.1033Y-5.3268
X2.1083Y-5.4941
X2.1083Y-5.5453
X2.1171Y-3.3465
X2.1171Y-3.4252
X2.1171Y-3.5039
X2.1181Y-4.2067
X2.123Y-4.5443
X2.123Y-4.6427
X2.123Y-4.7411
X2.123Y-4.8396
X2.123Y-4.938
X2.124Y-5.7835
X2.1289Y-5.0728
X2.1339Y-5.4646
X2.1437Y-4.4626
X2.1457Y-5.6398
X2.1535Y-3.5482
X2.1535Y-3.9931
X2.1555Y-5.1398
X2.1575Y-5.7953
X2.1594Y-5.4941
X2.1594Y-5.5453
X2.1791Y-5.8681
X2.189Y-5.8091
X2.1909Y-4.9508
X2.1909Y-5.0217
X2.1959Y-3.3465
X2.1959Y-3.4252
X2.2028Y-5.1043
X2.2028Y-5.1752
X2.2106Y-5.4429
X2.2106Y-5.4941
X2.2106Y-5.5453
X2.2165Y-3.9921
X2.2165Y-5.6398
X2.2165Y-5.6909
X2.2185Y-4.4626
X2.2215Y-4.5443
X2.2215Y-4.6427
X2.2264Y-4.9862
X2.2264Y-5.0571
X2.2402Y-5.8406
X2.2421Y-5.1437
X2.2618Y-5.4941
X2.2776Y-5.8681
X2.2894Y-5.1801
X2.2933Y-4.4626
X2.3041Y-5.1486
X2.3169Y-5.3199
X2.3199Y-4.5443
X2.3199Y-4.6427
X2.3228Y-5.8406
X2.3366Y-5.6398
X2.3366Y-5.6909
X2.3386Y-5.1063
X2.3445Y-5.3484
X2.3484Y-4.4695
X2.3602Y-5.3199
X2.3681Y-5.8681
X2.376Y-5.1437
X2.3878Y-5.3484
X2.3878Y-5.6398
X2.3996Y-4.6063
X2.3996Y-4.6575
X2.4094Y-5.1319
X2.4134Y-5.8406
X2.4291Y-5.1033
X2.4469Y-5.6398
X2.4508Y-4.4695
X2.4537Y-5.0787
X2.4744Y-3.5945
X2.4744Y-3.6457
X2.4744Y-3.6969
X2.4744Y-5.8681
X2.4793Y-4.5443
X2.4793Y-4.6427
X2.4793Y-4.7411
X2.4793Y-4.8396
X2.4793Y-4.938
X2.4951Y-5.1742
X2.5Y-5.4705
X2.5197Y-5.7638
X2.5374Y-4.4744
X2.563Y-5.0709
X2.565Y-5.6398
X2.5709Y-5.1398
X2.5778Y-4.5443
X2.5778Y-4.6427
X2.5778Y-4.8396
X2.5778Y-4.938
X2.5787Y-4.2697
X2.5787Y-4.7411
X2.5807Y-5.5295
X2.5965Y-4.4744
X2.6024Y-3.9341
X2.6024Y-4.0522
X2.6024Y-4.0965
X2.6063Y-5.0512
X2.624Y-3.6398
X2.624Y-5.6398
X2.626Y-5.1811
X2.6319Y-5.8681
X2.6398Y-5.5295
X2.6437Y-3.7461
X2.6496Y-5.0709
X2.6604Y-4.938
X2.6614Y-3.9931
X2.6673Y-4.3189
X2.6831Y-5.6398
X2.6949Y-3.6496
X2.6988Y-4.1988
X2.6988Y-5.5295
X2.7106Y-5.8681
X2.7224Y-5.4705
X2.7244Y-4.1752
X2.7313Y-5.248
X2.75Y-4.2008
X2.7579Y-5.5374
X2.7697Y-5.6398
X2.7756Y-3.8159
X2.7756Y-4.1752
X2.7795Y-4.2717
X2.7795Y-4.3051
X2.7943Y-5.7844
X2.8209Y-5.7589
X2.8238Y-5.002
X2.8238Y-5.1506
X2.8248Y-4.7264
X2.8327Y-4.4144
X2.8327Y-4.4774
X2.8366Y-5.6398
X2.8543Y-3.5295
X2.8907Y-5.7156
X2.8957Y-4.4144
X2.8957Y-4.4774
X2.9134Y-3.4272
X2.9134Y-3.5295
X2.9213Y-5.2795
X2.9252Y-5.3976
X2.9272Y-5.75
X2.9272Y-5.8091
X2.937Y-5.4783
X2.9537Y-4.9469
X2.9537Y-5.1043
X2.9547Y-5.2372
X2.9587Y-4.6211
X2.9646Y-3.376
X2.9646Y-3.4783
X2.9646Y-3.5807
X2.9646Y-5.4134
X2.9685Y-5.2795
X2.9705Y-3.6516
X2.9705Y-3.748
X2.9843Y-4.4104
X2.9843Y-4.5157
X2.9862Y-5.75
X2.9862Y-5.8091
X2.9862Y-5.8681
X3.0059Y-5.372
X3.0059Y-5.5344
X3.0069Y-5.5984
X3.0207Y-5.7156
X3.0256Y-5.6319
X3.0394Y-5.5295
X3.0433Y-4.3514
X3.0433Y-4.4104
X3.0482Y-4.7441
X3.0492Y-5.1368
X3.0551Y-5.4291
X3.0571Y-4.9843
X3.0571Y-5.5935
X3.0669Y-4.5157
X3.0778Y-4.7047
X3.0797Y-5.7156
X3.0807Y-5.1053
X3.0886Y-5.5797
X3.1024Y-4.3514
X3.1024Y-4.4104
X3.1063Y-5.1594
X3.1063Y-5.4291
X3.1073Y-4.7441
X3.1083Y-4.9528
X3.1368Y-4.7047
X3.1388Y-5.7156
X3.1437Y-5.1053
X3.1476Y-4.9843
X3.1496Y-4.5157
X3.1575Y-5.3386
X3.1614Y-4.4104
X3.1663Y-4.7441
X3.1693Y-5.5236
X3.1811Y-4.9528
X3.1959Y-4.7047
X3.1978Y-5.7234
X3.2047Y-5.2953
X3.2047Y-5.3386
X3.2047Y-5.3819
X3.2047Y-5.6634
X3.2205Y-4.4104
X3.2205Y-5.5236
X3.2254Y-4.7441
X3.2323Y-4.5157
X3.2549Y-4.7047
X3.2569Y-5.7156
X3.2579Y-4.9232
X3.2579Y-4.9587
X3.2579Y-4.9941
X3.2677Y-5.19
X3.2795Y-4.4104
X3.2795Y-5.0217
X3.2844Y-4.7441
X3.2913Y-5.0531
X3.2953Y-4.9252
X3.3031Y-5.0866
X3.313Y-5.3839
X3.313Y-5.6004
X3.315Y-4.5157
X3.3169Y-5.1181
X3.3189Y-5.7343
X3.3189Y-5.7854
X3.3268Y-5.19
X3.3386Y-4.4104
X3.3661Y-5.2136
X3.376Y-4.9035
X3.3976Y-4.4104
X3.3976Y-4.5157
X3.4045Y-4.7441
X3.4331Y-4.2303
X3.4331Y-4.375
X3.436Y-4.7126
X3.439Y-5.6594
X3.4557Y-5.3051
X3.4587Y-5.813
X3.4665Y-4.9301
X3.4665Y-4.9813
X3.4675Y-4.7441
X3.4803Y-4.5157
X3.4882Y-4.2303
X3.5177Y-4.6634
X3.5177Y-4.748
X3.5177Y-4.9813
X3.5177Y-5.0325
X3.5187Y-4.9301
X3.5364Y-5.4006
X3.563Y-4.5157
X3.565Y-4.2431
X3.5689Y-5.0325
X3.5689Y-5.0915
X3.6063Y-4.4724
X3.6102Y-5.622
X3.6268Y-5.452
X3.6555Y-5.8209
X3.6555Y-5.8681
X3.6791Y-4.2431
X3.6909Y-4.8957
X3.6988Y-5.7776
X3.6988Y-5.8209
X3.7362Y-5.0512
X3.7441Y-4.2303
X3.7559Y-5.2854
X3.7805Y-4.7766
X3.7982Y-5.4518
X3.8051Y-4.2431
X3.815Y-5.6142
X3.8159Y-4.7411
X3.8228Y-5.3524
X3.8268Y-5.7795
X3.8278Y-4.7963
X3.8307Y-5.8297
X3.8327Y-5.4606
X3.8543Y-5.0177
X3.8563Y-5.6969
X3.8563Y-5.8051
X3.8612Y-5.438
X3.8632Y-4.7608
X3.872Y-5.7402
X3.8799Y-5.3819
X3.9075Y-4.7146
X3.9193Y-4.2303
X3.9262Y-4.4429
X3.9311Y-5.2874
X3.9331Y-4.8947
X3.9537Y-4.5217
X3.9557Y-4.4724
X3.9665Y-4.7264
X3.9705Y-5.6634
X3.9705Y-5.7894
X3.9705Y-5.8287
X3.9705Y-5.8681
X3.9872Y-4.497
X3.9911Y-5.2904
X4.Y-5.0709
X4.0177Y-4.7264
X4.0177Y-5.5965
X4.0571Y-4.6004
X4.064Y-5.0246
X4.064Y-5.1073
X4.0659Y-4.8996
X4.0709Y-4.6634
X4.0974Y-5.4606
X4.1319Y-5.7933
X4.1319Y-5.8327
X4.1417Y-5.2795
X4.1565Y-4.8927
X4.1565Y-5.0177
X4.1565Y-5.1437
X4.1585Y-5.2047
X4.1634Y-4.6083
X4.1634Y-4.687
X4.1654Y-5.5659
X4.1673Y-5.8189
X4.1673Y-5.8681
X4.1713Y-5.75
X4.1752Y-4.5463
X4.1791Y-4.4232
X4.1791Y-4.4744
X4.1841Y-4.75
X4.2008Y-5.3307
X4.2008Y-5.6014
X4.2028Y-4.6476
X4.2185Y-4.3839
X4.2195Y-4.9547
X4.2195Y-5.0807
X4.2234Y-4.7451
X4.2234Y-4.7795
X4.2244Y-5.4469
X4.2362Y-5.6368
X4.2382Y-4.5335
X4.252Y-4.8199
X4.2559Y-5.6929
X4.2598Y-4.7776
X4.2776Y-4.5728
X4.2854Y-4.8248
X4.2874Y-5.4606
X4.3307Y-5.4134
X4.3307Y-5.4606
X4.3701Y-5.748
X4.3701Y-5.8071
X4.374Y-5.4606
X4.374Y-5.5394
X4.374Y-5.6181
X4.376Y-4.9232
X4.376Y-5.0256
X4.376Y-5.128
X4.3839Y-5.8622
X4.4193Y-5.8268
X4.4232Y-5.2382
X4.4252Y-5.5
X4.4252Y-5.5787
X4.4252Y-5.6378
X4.4252Y-5.7717
X4.4272Y-4.9744
X4.4272Y-5.0768
X4.4587Y-4.9154
X4.4823Y-5.3209
X4.4823Y-5.8622
X4.5049Y-4.7953
X4.5315Y-5.6368
X4.5423Y-4.9931
X4.5423Y-5.0522
X4.5423Y-5.1112
X4.564Y-4.0571
X4.5719Y-4.7293
X4.5719Y-4.7953
X4.5856Y-5.0285
X4.5856Y-5.0955
X4.6289Y-5.6929
X4.6801Y-5.6929
X4.7313Y-5.6929
X4.8061Y-4.9892
X4.8061Y-5.0482
X4.8307Y-5.2697
X4.8307Y-5.3209
X4.8819Y-5.2697
X4.8819Y-5.3209
X4.9331Y-4.7539
X4.9331Y-4.8366
X4.9331Y-4.9193
X4.9331Y-5.002
X4.9331Y-5.0856
X4.9331Y-5.1673
X4.9331Y-5.2185
X4.9331Y-5.2697
X4.9331Y-5.3209
T2
X1.1657Y-3.7992
X1.1657Y-4.0374
X1.2657Y-3.7992
X1.2657Y-4.0374
T3
X1.2175Y-5.0535
X1.2175Y-5.1535
X1.2746Y-4.5919
X1.2746Y-4.6919
X1.3175Y-5.0535
X1.3175Y-5.1535
X2.3728Y-3.3437
X2.3728Y-3.4437
X2.4728Y-3.3437
X2.4728Y-3.4437
X2.5728Y-3.3437
X2.5728Y-3.4437
X2.6728Y-3.3437
X2.6728Y-3.4437
X2.7728Y-3.3437
X2.7728Y-3.4437
X2.8819Y-3.8496
X2.8819Y-3.9496
X2.8819Y-4.0496
X2.8819Y-4.1496
X4.4026Y-3.8587
X4.4026Y-3.9587
X4.5026Y-3.8587
X4.5026Y-3.9587
X4.6026Y-3.8587
X4.6026Y-3.9587
X4.7022Y-4.1591
X4.7022Y-4.2591
X4.7022Y-4.3591
X4.7022Y-4.4591
X4.7022Y-4.5591
X4.7022Y-4.7593
X4.7022Y-4.8593
X4.7026Y-3.8587
X4.7026Y-3.9587
X4.8022Y-4.1591
X4.8022Y-4.2591
X4.8022Y-4.3591
X4.8022Y-4.4591
X4.8022Y-4.5591
X4.8022Y-4.7593
X4.8022Y-4.8593
X4.8026Y-3.8587
X4.8026Y-3.9587
T4
X3.0944Y-3.4292
X3.996Y-3.4292
T5
X2.311Y-4.815
T0
M30
