G04 #@! TF.FileFunction,Soldermask,Bot*
%FSLAX46Y46*%
G04 Gerber Fmt 4.6, Leading zero omitted, Abs format (unit mm)*
G04 Created by KiCad (PCBNEW 4.0.2-stable) date 14/07/2016 12:53:21*
%MOMM*%
G01*
G04 APERTURE LIST*
%ADD10C,0.152400*%
%ADD11R,1.258000X1.708000*%
%ADD12R,1.708000X1.258000*%
%ADD13R,1.708000X1.408000*%
%ADD14C,2.159000*%
%ADD15C,2.407920*%
%ADD16R,2.540000X2.235200*%
%ADD17O,2.540000X2.235200*%
%ADD18R,2.508000X2.508000*%
%ADD19C,2.508000*%
%ADD20R,2.235200X2.235200*%
%ADD21O,2.235200X2.235200*%
%ADD22R,2.540000X2.540000*%
%ADD23O,2.540000X2.540000*%
%ADD24R,0.793000X1.508000*%
%ADD25R,5.508000X5.508000*%
%ADD26C,0.254000*%
G04 APERTURE END LIST*
D10*
D11*
X51950000Y-139950000D03*
X51950000Y-141850000D03*
D12*
X47100000Y-143150000D03*
X49000000Y-143150000D03*
D13*
X75050000Y-132000000D03*
X77250000Y-132000000D03*
D12*
X47500000Y-103250000D03*
X45600000Y-103250000D03*
D11*
X53425000Y-130550000D03*
X53425000Y-132450000D03*
X90725000Y-138475000D03*
X90725000Y-140375000D03*
D12*
X113875000Y-144600000D03*
X115775000Y-144600000D03*
D11*
X106700000Y-134100000D03*
X106700000Y-132200000D03*
D12*
X93750000Y-122800000D03*
X95650000Y-122800000D03*
D11*
X88800000Y-140425000D03*
X88800000Y-142325000D03*
X101540000Y-122330000D03*
X101540000Y-124230000D03*
D12*
X65000000Y-133100000D03*
X66900000Y-133100000D03*
D11*
X65500000Y-110250000D03*
X65500000Y-112150000D03*
X60950000Y-113525000D03*
X60950000Y-115425000D03*
D12*
X50200000Y-111300000D03*
X52100000Y-111300000D03*
X50200000Y-113350000D03*
X52100000Y-113350000D03*
X52300000Y-103250000D03*
X54200000Y-103250000D03*
D13*
X60475000Y-128275000D03*
X58275000Y-128275000D03*
D14*
X60270000Y-87470000D03*
X60270000Y-84930000D03*
X62810000Y-87470000D03*
X62810000Y-84930000D03*
X65350000Y-87470000D03*
X65350000Y-84930000D03*
X67890000Y-87470000D03*
X67890000Y-84930000D03*
X70430000Y-87470000D03*
X70430000Y-84930000D03*
D15*
X78598880Y-87100980D03*
X101499520Y-87100980D03*
D13*
X91250000Y-106150000D03*
X93450000Y-106150000D03*
X94450000Y-104100000D03*
X96650000Y-104100000D03*
D16*
X73200000Y-105400000D03*
D17*
X73200000Y-102860000D03*
X73200000Y-100320000D03*
X73200000Y-97780000D03*
D18*
X32150000Y-96500000D03*
D19*
X29610000Y-96500000D03*
D13*
X33250000Y-86500000D03*
X31050000Y-86500000D03*
D18*
X32150000Y-102550000D03*
D19*
X29610000Y-102550000D03*
D13*
X33250000Y-90000000D03*
X31050000Y-90000000D03*
D20*
X121975000Y-123425000D03*
D21*
X119435000Y-123425000D03*
X121975000Y-120885000D03*
X119435000Y-120885000D03*
D20*
X121975000Y-115800000D03*
D21*
X119435000Y-115800000D03*
X121975000Y-113260000D03*
X119435000Y-113260000D03*
X121975000Y-110720000D03*
X119435000Y-110720000D03*
X121975000Y-108180000D03*
X119435000Y-108180000D03*
X121975000Y-105640000D03*
X119435000Y-105640000D03*
D20*
X111825000Y-100550000D03*
D21*
X111825000Y-98010000D03*
X114365000Y-100550000D03*
X114365000Y-98010000D03*
X116905000Y-100550000D03*
X116905000Y-98010000D03*
X119445000Y-100550000D03*
X119445000Y-98010000D03*
X121985000Y-100550000D03*
X121985000Y-98010000D03*
D22*
X32375000Y-119175000D03*
D23*
X32375000Y-116635000D03*
D13*
X30900000Y-108875000D03*
X33100000Y-108875000D03*
D20*
X30925000Y-130900000D03*
D21*
X30925000Y-128360000D03*
X33465000Y-130900000D03*
X33465000Y-128360000D03*
D24*
X104350000Y-140050000D03*
X103850000Y-140050000D03*
X103350000Y-140050000D03*
X102850000Y-140050000D03*
X102350000Y-140050000D03*
X101850000Y-140050000D03*
X101350000Y-140050000D03*
X100850000Y-140050000D03*
X100350000Y-140050000D03*
X99850000Y-140050000D03*
X99350000Y-140050000D03*
X98850000Y-140050000D03*
X98350000Y-140050000D03*
X97850000Y-140050000D03*
X97350000Y-140050000D03*
X96850000Y-140050000D03*
X96350000Y-140050000D03*
X95850000Y-140050000D03*
X95350000Y-140050000D03*
X94850000Y-140050000D03*
X94350000Y-140050000D03*
X93850000Y-140050000D03*
X93350000Y-140050000D03*
X92850000Y-140050000D03*
X92850000Y-132550000D03*
X93350000Y-132550000D03*
X93850000Y-132550000D03*
X94350000Y-132550000D03*
X94850000Y-132550000D03*
X95350000Y-132550000D03*
X95850000Y-132550000D03*
X96350000Y-132550000D03*
X96850000Y-132550000D03*
X97350000Y-132550000D03*
X97850000Y-132550000D03*
X98350000Y-132550000D03*
X98850000Y-132550000D03*
X99350000Y-132550000D03*
X99850000Y-132550000D03*
X100350000Y-132550000D03*
X100850000Y-132550000D03*
X101350000Y-132550000D03*
X101850000Y-132550000D03*
X102350000Y-132550000D03*
X102850000Y-132550000D03*
X103350000Y-132550000D03*
X103850000Y-132550000D03*
X104350000Y-132550000D03*
D25*
X58700000Y-122300000D03*
D26*
G36*
X114731800Y-158153100D02*
X82984340Y-158153100D01*
X82984340Y-150157180D01*
X114731800Y-150157180D01*
X114731800Y-158153100D01*
X114731800Y-158153100D01*
G37*
X114731800Y-158153100D02*
X82984340Y-158153100D01*
X82984340Y-150157180D01*
X114731800Y-150157180D01*
X114731800Y-158153100D01*
G36*
X76730860Y-158153100D02*
X39984680Y-158153100D01*
X39984680Y-150157180D01*
X76730860Y-150157180D01*
X76730860Y-158153100D01*
X76730860Y-158153100D01*
G37*
X76730860Y-158153100D02*
X39984680Y-158153100D01*
X39984680Y-150157180D01*
X76730860Y-150157180D01*
X76730860Y-158153100D01*
M02*
