G04 #@! TF.FileFunction,Soldermask,Top*
%FSLAX46Y46*%
G04 Gerber Fmt 4.6, Leading zero omitted, Abs format (unit mm)*
G04 Created by KiCad (PCBNEW 4.0.0-rc1-stable) date 08.10.2015 0:04:06*
%MOMM*%
G01*
G04 APERTURE LIST*
%ADD10C,0.152400*%
%ADD11R,0.793000X1.508000*%
%ADD12R,1.708000X1.408000*%
%ADD13R,1.408000X1.708000*%
%ADD14R,1.258000X1.708000*%
%ADD15R,1.708000X1.258000*%
%ADD16C,2.008000*%
%ADD17R,1.308100X2.308860*%
%ADD18R,1.508000X0.793000*%
%ADD19R,0.863600X1.778000*%
%ADD20R,0.828040X1.676400*%
%ADD21R,1.209040X7.508240*%
%ADD22R,1.209040X6.507480*%
%ADD23R,2.508000X2.108000*%
%ADD24R,2.108000X2.508000*%
%ADD25R,4.165600X2.540000*%
%ADD26R,1.524000X2.540000*%
%ADD27R,2.235200X2.235200*%
%ADD28O,2.235200X2.235200*%
%ADD29R,1.808000X0.758000*%
%ADD30R,0.758000X1.808000*%
%ADD31R,1.981200X0.762000*%
%ADD32R,0.762000X1.981200*%
%ADD33R,5.508000X5.508000*%
%ADD34R,6.059480X6.059480*%
%ADD35O,0.357180X0.656900*%
%ADD36O,0.656900X0.357180*%
%ADD37R,2.608580X2.608580*%
%ADD38R,1.608000X0.958000*%
%ADD39C,1.708000*%
%ADD40C,2.308000*%
%ADD41R,1.778000X3.708400*%
%ADD42R,3.708400X1.778000*%
%ADD43C,0.254000*%
G04 APERTURE END LIST*
D10*
D11*
X42350000Y-143950000D03*
X42850000Y-143950000D03*
X43350000Y-143950000D03*
X43850000Y-143950000D03*
X44350000Y-143950000D03*
X44850000Y-143950000D03*
X45350000Y-143950000D03*
X45850000Y-143950000D03*
X46350000Y-143950000D03*
X46850000Y-143950000D03*
X47350000Y-143950000D03*
X47850000Y-143950000D03*
X48350000Y-143950000D03*
X48850000Y-143950000D03*
X49350000Y-143950000D03*
X49850000Y-143950000D03*
X50350000Y-143950000D03*
X50850000Y-143950000D03*
X51350000Y-143950000D03*
X51850000Y-143950000D03*
X52350000Y-143950000D03*
X52850000Y-143950000D03*
X53350000Y-143950000D03*
X53850000Y-143950000D03*
X53850000Y-136450000D03*
X53350000Y-136450000D03*
X52850000Y-136450000D03*
X52350000Y-136450000D03*
X51850000Y-136450000D03*
X51350000Y-136450000D03*
X50850000Y-136450000D03*
X50350000Y-136450000D03*
X49850000Y-136450000D03*
X49350000Y-136450000D03*
X48850000Y-136450000D03*
X48350000Y-136450000D03*
X47850000Y-136450000D03*
X47350000Y-136450000D03*
X46850000Y-136450000D03*
X46350000Y-136450000D03*
X45850000Y-136450000D03*
X45350000Y-136450000D03*
X44850000Y-136450000D03*
X44350000Y-136450000D03*
X43850000Y-136450000D03*
X43350000Y-136450000D03*
X42850000Y-136450000D03*
X42350000Y-136450000D03*
D12*
X69250000Y-99050000D03*
X71450000Y-99050000D03*
D13*
X63550000Y-93600000D03*
X63550000Y-91400000D03*
D14*
X92970000Y-98380000D03*
X92970000Y-96480000D03*
D15*
X102940000Y-102930000D03*
X101040000Y-102930000D03*
X77620000Y-129580000D03*
X79520000Y-129580000D03*
X40250000Y-143800000D03*
X38350000Y-143800000D03*
X40250000Y-142200000D03*
X38350000Y-142200000D03*
D14*
X100920000Y-130960000D03*
X100920000Y-129060000D03*
X119150000Y-100250000D03*
X119150000Y-102150000D03*
D15*
X117650000Y-93200000D03*
X115750000Y-93200000D03*
X117650000Y-98300000D03*
X115750000Y-98300000D03*
D14*
X82890000Y-136630000D03*
X82890000Y-134730000D03*
X110200000Y-134800000D03*
X110200000Y-132900000D03*
D15*
X75400000Y-135600000D03*
X73500000Y-135600000D03*
D14*
X72050000Y-105500000D03*
X72050000Y-103600000D03*
X77100000Y-110030000D03*
X77100000Y-108130000D03*
X53700000Y-99900000D03*
X53700000Y-98000000D03*
X78750000Y-110020000D03*
X78750000Y-108120000D03*
D15*
X55010000Y-134150000D03*
X53110000Y-134150000D03*
D16*
X110300000Y-96400000D03*
X86100000Y-96400000D03*
D17*
X111250000Y-144851140D03*
X113150000Y-144851140D03*
X112200000Y-141848860D03*
D12*
X115600000Y-94900000D03*
X117800000Y-94900000D03*
X115600000Y-96600000D03*
X117800000Y-96600000D03*
X90100000Y-93700000D03*
X92300000Y-93700000D03*
D11*
X55950000Y-143950000D03*
X56450000Y-143950000D03*
X56950000Y-143950000D03*
X57450000Y-143950000D03*
X57950000Y-143950000D03*
X58450000Y-143950000D03*
X58950000Y-143950000D03*
X59450000Y-143950000D03*
X59950000Y-143950000D03*
X60450000Y-143950000D03*
X60950000Y-143950000D03*
X61450000Y-143950000D03*
X61950000Y-143950000D03*
X62450000Y-143950000D03*
X62950000Y-143950000D03*
X63450000Y-143950000D03*
X63950000Y-143950000D03*
X64450000Y-143950000D03*
X64950000Y-143950000D03*
X65450000Y-143950000D03*
X65950000Y-143950000D03*
X66450000Y-143950000D03*
X66950000Y-143950000D03*
X67450000Y-143950000D03*
X67450000Y-136450000D03*
X66950000Y-136450000D03*
X66450000Y-136450000D03*
X65950000Y-136450000D03*
X65450000Y-136450000D03*
X64950000Y-136450000D03*
X64450000Y-136450000D03*
X63950000Y-136450000D03*
X63450000Y-136450000D03*
X62950000Y-136450000D03*
X62450000Y-136450000D03*
X61950000Y-136450000D03*
X61450000Y-136450000D03*
X60950000Y-136450000D03*
X60450000Y-136450000D03*
X59950000Y-136450000D03*
X59450000Y-136450000D03*
X58950000Y-136450000D03*
X58450000Y-136450000D03*
X57950000Y-136450000D03*
X57450000Y-136450000D03*
X56950000Y-136450000D03*
X56450000Y-136450000D03*
X55950000Y-136450000D03*
D18*
X93650000Y-145250000D03*
X93650000Y-144750000D03*
X93650000Y-144250000D03*
X93650000Y-143750000D03*
X93650000Y-143250000D03*
X93650000Y-142750000D03*
X93650000Y-142250000D03*
X93650000Y-141750000D03*
X93650000Y-141250000D03*
X93650000Y-140750000D03*
X93650000Y-140250000D03*
X93650000Y-139750000D03*
X93650000Y-139250000D03*
X93650000Y-138750000D03*
X93650000Y-138250000D03*
X93650000Y-137750000D03*
X93650000Y-137250000D03*
X93650000Y-136750000D03*
X93650000Y-136250000D03*
X93650000Y-135750000D03*
X93650000Y-135250000D03*
X93650000Y-134750000D03*
X93650000Y-134250000D03*
X93650000Y-133750000D03*
X86150000Y-133750000D03*
X86150000Y-134250000D03*
X86150000Y-134750000D03*
X86150000Y-135250000D03*
X86150000Y-135750000D03*
X86150000Y-136250000D03*
X86150000Y-136750000D03*
X86150000Y-137250000D03*
X86150000Y-137750000D03*
X86150000Y-138250000D03*
X86150000Y-138750000D03*
X86150000Y-139250000D03*
X86150000Y-139750000D03*
X86150000Y-140250000D03*
X86150000Y-140750000D03*
X86150000Y-141250000D03*
X86150000Y-141750000D03*
X86150000Y-142250000D03*
X86150000Y-142750000D03*
X86150000Y-143250000D03*
X86150000Y-143750000D03*
X86150000Y-144250000D03*
X86150000Y-144750000D03*
X86150000Y-145250000D03*
D11*
X90750000Y-126650000D03*
X91250000Y-126650000D03*
X91750000Y-126650000D03*
X92250000Y-126650000D03*
X92750000Y-126650000D03*
X93250000Y-126650000D03*
X93750000Y-126650000D03*
X94250000Y-126650000D03*
X94750000Y-126650000D03*
X95250000Y-126650000D03*
X95750000Y-126650000D03*
X96250000Y-126650000D03*
X96750000Y-126650000D03*
X97250000Y-126650000D03*
X97750000Y-126650000D03*
X98250000Y-126650000D03*
X98750000Y-126650000D03*
X99250000Y-126650000D03*
X99750000Y-126650000D03*
X100250000Y-126650000D03*
X100750000Y-126650000D03*
X101250000Y-126650000D03*
X101750000Y-126650000D03*
X102250000Y-126650000D03*
X102250000Y-119150000D03*
X101750000Y-119150000D03*
X101250000Y-119150000D03*
X100750000Y-119150000D03*
X100250000Y-119150000D03*
X99750000Y-119150000D03*
X99250000Y-119150000D03*
X98750000Y-119150000D03*
X98250000Y-119150000D03*
X97750000Y-119150000D03*
X97250000Y-119150000D03*
X96750000Y-119150000D03*
X96250000Y-119150000D03*
X95750000Y-119150000D03*
X95250000Y-119150000D03*
X94750000Y-119150000D03*
X94250000Y-119150000D03*
X93750000Y-119150000D03*
X93250000Y-119150000D03*
X92750000Y-119150000D03*
X92250000Y-119150000D03*
X91750000Y-119150000D03*
X91250000Y-119150000D03*
X90750000Y-119150000D03*
D19*
X51801300Y-96720560D03*
X51801300Y-108079440D03*
X51001200Y-96720560D03*
X51001200Y-108079440D03*
X50201100Y-96720560D03*
X50201100Y-108079440D03*
X49401000Y-96720560D03*
X49401000Y-108079440D03*
X48600900Y-96720560D03*
X48600900Y-108079440D03*
X47800800Y-96720560D03*
X47800800Y-108079440D03*
X47000700Y-96720560D03*
X47000700Y-108079440D03*
X46200600Y-96720560D03*
X46200600Y-108079440D03*
X45400500Y-96720560D03*
X45400500Y-108079440D03*
X44600400Y-96720560D03*
X44600400Y-108079440D03*
X43800300Y-96720560D03*
X43800300Y-108079440D03*
X43000200Y-96720560D03*
X43000200Y-108079440D03*
X42200100Y-96720560D03*
X42200100Y-108079440D03*
X41400000Y-96720560D03*
X41400000Y-108079440D03*
X40599900Y-96720560D03*
X40599900Y-108079440D03*
X39799800Y-96720560D03*
X39799800Y-108079440D03*
X38999700Y-96720560D03*
X38999700Y-108079440D03*
X38199600Y-96720560D03*
X38199600Y-108079440D03*
X37399500Y-96720560D03*
X37399500Y-108079440D03*
X36599400Y-96720560D03*
X36599400Y-108079440D03*
X35799300Y-96720560D03*
X35799300Y-108079440D03*
X34999200Y-96720560D03*
X34999200Y-108079440D03*
X34199100Y-96720560D03*
X34199100Y-108079440D03*
X33399000Y-96720560D03*
X33399000Y-108079440D03*
X32598900Y-96720560D03*
X32598900Y-108079440D03*
X31798800Y-96720560D03*
X31798800Y-108079440D03*
X30998700Y-96720560D03*
X30998700Y-108079440D03*
D20*
X51803840Y-100083400D03*
X51803840Y-111716600D03*
X51153600Y-100083400D03*
X51153600Y-111716600D03*
X50503360Y-100083400D03*
X50503360Y-111716600D03*
X49853120Y-100083400D03*
X49853120Y-111716600D03*
X49202880Y-100083400D03*
X49202880Y-111716600D03*
X48552640Y-100083400D03*
X48552640Y-111716600D03*
X47902400Y-100083400D03*
X47902400Y-111716600D03*
X47252160Y-100083400D03*
X47252160Y-111716600D03*
X46601920Y-100083400D03*
X46601920Y-111716600D03*
X45951680Y-100083400D03*
X45951680Y-111716600D03*
X45301440Y-100083400D03*
X45301440Y-111716600D03*
X44651200Y-100083400D03*
X44651200Y-111716600D03*
X44000960Y-100083400D03*
X44000960Y-111716600D03*
X43350720Y-100083400D03*
X43350720Y-111716600D03*
X42700480Y-100083400D03*
X42700480Y-111716600D03*
X42050240Y-100083400D03*
X42050240Y-111716600D03*
X41400000Y-100083400D03*
X41400000Y-111716600D03*
X40749760Y-100083400D03*
X40749760Y-111716600D03*
X40099520Y-100083400D03*
X40099520Y-111716600D03*
X39449280Y-100083400D03*
X39449280Y-111716600D03*
X38799040Y-100083400D03*
X38799040Y-111716600D03*
X38148800Y-100083400D03*
X38148800Y-111716600D03*
X37498560Y-100083400D03*
X37498560Y-111716600D03*
X36848320Y-100083400D03*
X36848320Y-111716600D03*
X36198080Y-100083400D03*
X36198080Y-111716600D03*
X35547840Y-100083400D03*
X35547840Y-111716600D03*
X34897600Y-100083400D03*
X34897600Y-111716600D03*
X34247360Y-100083400D03*
X34247360Y-111716600D03*
X33597120Y-100083400D03*
X33597120Y-111716600D03*
X32946880Y-100083400D03*
X32946880Y-111716600D03*
X32296640Y-100083400D03*
X32296640Y-111716600D03*
X31646400Y-100083400D03*
X31646400Y-111716600D03*
X30996160Y-100083400D03*
X30996160Y-111716600D03*
D21*
X40855900Y-153779220D03*
X41854120Y-153779220D03*
D22*
X42855140Y-153280100D03*
X43855640Y-153279220D03*
X44856400Y-153279220D03*
X45854620Y-153279220D03*
D21*
X46855140Y-153780100D03*
X47856140Y-153779220D03*
D22*
X48854360Y-153279220D03*
X49855120Y-153279220D03*
X50855880Y-153279220D03*
X51854100Y-153279220D03*
D21*
X52854860Y-153779220D03*
D22*
X53855620Y-153279220D03*
X54856380Y-153279220D03*
X55854600Y-153279220D03*
X56855360Y-153279220D03*
D21*
X57856120Y-153779220D03*
D22*
X58854340Y-153279220D03*
X59855100Y-153279220D03*
X60855860Y-153279220D03*
X61854080Y-153279220D03*
D21*
X62854840Y-153779220D03*
D22*
X63855600Y-153279220D03*
X64856360Y-153279220D03*
X65854580Y-153279220D03*
D21*
X66855340Y-153779220D03*
D22*
X67856100Y-153279220D03*
D21*
X68854320Y-153779220D03*
D22*
X69855080Y-153279220D03*
X70855840Y-153279220D03*
X71854060Y-153279220D03*
X72854820Y-153279220D03*
X73855580Y-153279220D03*
X74856340Y-153279220D03*
D21*
X75854560Y-153779220D03*
X40855900Y-153779220D03*
X41854120Y-153779220D03*
D22*
X42855140Y-153280100D03*
X43855140Y-153280100D03*
X44856400Y-153279220D03*
X45854620Y-153279220D03*
X46855380Y-153279220D03*
D21*
X47856140Y-153779220D03*
D22*
X48854360Y-153279220D03*
X49855120Y-153279220D03*
X50855880Y-153279220D03*
X51854100Y-153279220D03*
D21*
X52854860Y-153779220D03*
D22*
X53855620Y-153279220D03*
X54856380Y-153279220D03*
X55854600Y-153279220D03*
X56855360Y-153279220D03*
D21*
X57856120Y-153779220D03*
D22*
X58854340Y-153279220D03*
X59855100Y-153279220D03*
X60855860Y-153279220D03*
X61854080Y-153279220D03*
D21*
X62854840Y-153779220D03*
D22*
X63855600Y-153279220D03*
X64856360Y-153279220D03*
X65854580Y-153279220D03*
D21*
X66855340Y-153779220D03*
D22*
X67856100Y-153279220D03*
D21*
X68854320Y-153779220D03*
D22*
X69855080Y-153279220D03*
X70855840Y-153279220D03*
X71854060Y-153279220D03*
X72854820Y-153279220D03*
X73855580Y-153279220D03*
X74856340Y-153279220D03*
D21*
X75854560Y-153779220D03*
D22*
X83855560Y-153279220D03*
X84856320Y-153279220D03*
X85854540Y-153279220D03*
X86855300Y-153279220D03*
D21*
X87856060Y-153779220D03*
D22*
X88854280Y-153279220D03*
X89855040Y-153279220D03*
X90855800Y-153279220D03*
X91854020Y-153279220D03*
D21*
X92854780Y-153779220D03*
D22*
X93855540Y-153279220D03*
X94856300Y-153279220D03*
X95854520Y-153279220D03*
X96855280Y-153279220D03*
X97856040Y-153279220D03*
X98854260Y-153279220D03*
X99855020Y-153279220D03*
D21*
X100855780Y-153779220D03*
D22*
X101854000Y-153279220D03*
X102854760Y-153279220D03*
X103855520Y-153279220D03*
X104856280Y-153279220D03*
D21*
X105854500Y-153779220D03*
D22*
X106855260Y-153279220D03*
X107856020Y-153279220D03*
X108854240Y-153279220D03*
X109855000Y-153279220D03*
D21*
X110855760Y-153779220D03*
X111853980Y-153779220D03*
D22*
X112854740Y-153279220D03*
D21*
X113855500Y-153779220D03*
D22*
X83855560Y-153279220D03*
X84856320Y-153279220D03*
X85854540Y-153279220D03*
X86855300Y-153279220D03*
D21*
X87856060Y-153779220D03*
D22*
X88854280Y-153279220D03*
X89855040Y-153279220D03*
X90855800Y-153279220D03*
X91854020Y-153279220D03*
D21*
X92854780Y-153779220D03*
D22*
X93855540Y-153279220D03*
X94856300Y-153279220D03*
X95854520Y-153279220D03*
X96855280Y-153279220D03*
X97856040Y-153279220D03*
X98854260Y-153279220D03*
X99855020Y-153279220D03*
D21*
X100855780Y-153779220D03*
D22*
X101854000Y-153279220D03*
X102854760Y-153279220D03*
X103855520Y-153279220D03*
X104856280Y-153279220D03*
D21*
X105854500Y-153779220D03*
D22*
X106855260Y-153279220D03*
X107856020Y-153279220D03*
X108854240Y-153279220D03*
X109855000Y-153279220D03*
D21*
X110855760Y-153779220D03*
X111853980Y-153779220D03*
D22*
X112854740Y-153279220D03*
D21*
X113855500Y-153779220D03*
D23*
X115040000Y-133790000D03*
X119040000Y-133790000D03*
D24*
X112250000Y-137350000D03*
X112250000Y-133350000D03*
D25*
X117200000Y-143052000D03*
D26*
X117200000Y-136448000D03*
X114914000Y-136448000D03*
X119486000Y-136448000D03*
D27*
X80550000Y-90050000D03*
D28*
X83090000Y-90050000D03*
D29*
X95350000Y-92850000D03*
X95350000Y-93350000D03*
X95350000Y-93850000D03*
X95350000Y-94350000D03*
X95350000Y-94850000D03*
X95350000Y-95350000D03*
X95350000Y-95850000D03*
X95350000Y-96350000D03*
X95350000Y-96850000D03*
X95350000Y-97350000D03*
X95350000Y-97850000D03*
X95350000Y-98350000D03*
D30*
X96950000Y-99950000D03*
X97450000Y-99950000D03*
X97950000Y-99950000D03*
X98450000Y-99950000D03*
X98950000Y-99950000D03*
X99450000Y-99950000D03*
X99950000Y-99950000D03*
X100450000Y-99950000D03*
X100950000Y-99950000D03*
X101450000Y-99950000D03*
X101950000Y-99950000D03*
X102450000Y-99950000D03*
D29*
X104050000Y-98350000D03*
X104050000Y-97850000D03*
X104050000Y-97350000D03*
X104050000Y-96850000D03*
X104050000Y-96350000D03*
X104050000Y-95850000D03*
X104050000Y-95350000D03*
X104050000Y-94850000D03*
X104050000Y-94350000D03*
X104050000Y-93850000D03*
X104050000Y-93350000D03*
X104050000Y-92850000D03*
D30*
X102450000Y-91250000D03*
X101950000Y-91250000D03*
X101450000Y-91250000D03*
X100950000Y-91250000D03*
X100450000Y-91250000D03*
X99950000Y-91250000D03*
X99450000Y-91250000D03*
X98950000Y-91250000D03*
X98450000Y-91250000D03*
X97950000Y-91250000D03*
X97450000Y-91250000D03*
X96950000Y-91250000D03*
D13*
X106850000Y-130200000D03*
X106850000Y-128000000D03*
D31*
X75418520Y-129357920D03*
D32*
X73157920Y-109581480D03*
D31*
X53384020Y-111842080D03*
D32*
X55642080Y-131618520D03*
D31*
X75418520Y-128857540D03*
D32*
X72657540Y-109581480D03*
D31*
X53384020Y-112342460D03*
D32*
X56142460Y-131618520D03*
D31*
X75418520Y-128357160D03*
D32*
X72157160Y-109581480D03*
D31*
X53384020Y-112842840D03*
D32*
X56642840Y-131618520D03*
D31*
X75418520Y-127856780D03*
D32*
X71656780Y-109581480D03*
D31*
X53384020Y-113343220D03*
D32*
X57143220Y-131618520D03*
D31*
X75418520Y-127356400D03*
D32*
X71156400Y-109581480D03*
D31*
X53384020Y-113843600D03*
D32*
X57643600Y-131618520D03*
D31*
X75418520Y-126856020D03*
D32*
X70656020Y-109581480D03*
D31*
X53384020Y-114343980D03*
D32*
X58143980Y-131618520D03*
D31*
X75418520Y-126355640D03*
D32*
X70155640Y-109581480D03*
D31*
X53384020Y-114844360D03*
D32*
X58644360Y-131618520D03*
D31*
X75418520Y-125855260D03*
D32*
X69655260Y-109581480D03*
D31*
X53384020Y-115344740D03*
D32*
X59144740Y-131618520D03*
D31*
X75418520Y-125354880D03*
D32*
X69154880Y-109581480D03*
D31*
X53384020Y-115845120D03*
D32*
X59645120Y-131618520D03*
D31*
X75418520Y-124854500D03*
D32*
X68654500Y-109581480D03*
D31*
X53384020Y-116345500D03*
D32*
X60145500Y-131618520D03*
D31*
X75418520Y-124354120D03*
D32*
X68154120Y-109581480D03*
D31*
X53384020Y-116845880D03*
D32*
X60645880Y-131618520D03*
D31*
X75418520Y-123853740D03*
D32*
X67653740Y-109581480D03*
D31*
X53384020Y-117346260D03*
D32*
X61146260Y-131618520D03*
D31*
X75418520Y-123353360D03*
D32*
X67153360Y-109581480D03*
D31*
X53384020Y-117846640D03*
D32*
X61646640Y-131618520D03*
D31*
X75418520Y-122852980D03*
D32*
X66652980Y-109581480D03*
D31*
X53384020Y-118347020D03*
D32*
X62147020Y-131618520D03*
D31*
X75418520Y-122352600D03*
D32*
X66152600Y-109581480D03*
D31*
X53384020Y-118847400D03*
D32*
X62647400Y-131618520D03*
D31*
X75418520Y-121852220D03*
D32*
X65652220Y-109581480D03*
D31*
X53384020Y-119347780D03*
D32*
X63147780Y-131618520D03*
D31*
X75418520Y-121351840D03*
D32*
X65151840Y-109581480D03*
D31*
X53384020Y-119848160D03*
D32*
X63648160Y-131618520D03*
D31*
X75418520Y-120851460D03*
D32*
X64651460Y-109581480D03*
D31*
X53384020Y-120348540D03*
D32*
X64148540Y-131618520D03*
D31*
X75418520Y-120351080D03*
D32*
X64151080Y-109581480D03*
D31*
X53384020Y-120848920D03*
D32*
X64648920Y-131618520D03*
D31*
X75418520Y-119850700D03*
D32*
X63650700Y-109581480D03*
D31*
X53384020Y-121349300D03*
D32*
X65149300Y-131618520D03*
D31*
X75418520Y-119350320D03*
D32*
X63150320Y-109581480D03*
D31*
X53384020Y-121849680D03*
D32*
X65649680Y-131618520D03*
D31*
X75418520Y-118849940D03*
D32*
X62649940Y-109581480D03*
D31*
X53384020Y-122350060D03*
D32*
X66150060Y-131618520D03*
D31*
X75418520Y-118349560D03*
D32*
X62149560Y-109581480D03*
D31*
X53384020Y-122850440D03*
D32*
X66650440Y-131618520D03*
D31*
X75418520Y-117849180D03*
D32*
X61649180Y-109581480D03*
D31*
X53384020Y-123350820D03*
D32*
X67150820Y-131618520D03*
D31*
X75418520Y-117348800D03*
D32*
X61148800Y-109581480D03*
D31*
X53384020Y-123851200D03*
D32*
X67651200Y-131618520D03*
D31*
X75418520Y-116848420D03*
D32*
X60648420Y-109581480D03*
D31*
X53384020Y-124351580D03*
D32*
X68151580Y-131618520D03*
D31*
X75418520Y-116348040D03*
D32*
X60148040Y-109581480D03*
D31*
X53384020Y-124851960D03*
D32*
X68651960Y-131618520D03*
D31*
X75418520Y-115847660D03*
D32*
X59647660Y-109581480D03*
D31*
X53384020Y-125352340D03*
D32*
X69152340Y-131618520D03*
D31*
X75418520Y-115347280D03*
D32*
X59147280Y-109581480D03*
D31*
X53384020Y-125852720D03*
D32*
X69652720Y-131618520D03*
D31*
X75418520Y-114846900D03*
D32*
X58646900Y-109581480D03*
D31*
X53384020Y-126353100D03*
D32*
X70153100Y-131618520D03*
D31*
X75418520Y-114346520D03*
D32*
X58146520Y-109581480D03*
D31*
X53384020Y-126853480D03*
D32*
X70653480Y-131618520D03*
D31*
X75418520Y-113846140D03*
D32*
X57646140Y-109581480D03*
D31*
X53384020Y-127353860D03*
D32*
X71153860Y-131618520D03*
D31*
X75418520Y-113345760D03*
D32*
X57145760Y-109581480D03*
D31*
X53384020Y-127854240D03*
D32*
X71654240Y-131618520D03*
D31*
X75418520Y-112845380D03*
D32*
X56645380Y-109581480D03*
D31*
X53384020Y-128354620D03*
D32*
X72154620Y-131618520D03*
D31*
X75418520Y-112345000D03*
D32*
X56145000Y-109581480D03*
D31*
X53384020Y-128855000D03*
D32*
X72655000Y-131618520D03*
D31*
X75418520Y-111844620D03*
D32*
X55644620Y-109581480D03*
D31*
X53384020Y-129355380D03*
D32*
X73155380Y-131618520D03*
D33*
X64400000Y-120600000D03*
D34*
X112700000Y-118402540D03*
D35*
X112453620Y-114602700D03*
X111953240Y-114602700D03*
X111450320Y-114602700D03*
X110949940Y-114602700D03*
X110452100Y-114602700D03*
X109951720Y-114602700D03*
X109451340Y-114602700D03*
X115948660Y-114602700D03*
X115448280Y-114602700D03*
X114947900Y-114602700D03*
X114450060Y-114602700D03*
X113949680Y-114602700D03*
X113446760Y-114602700D03*
X112946380Y-114602700D03*
D36*
X108902700Y-115151340D03*
X108902700Y-115651720D03*
X108902700Y-116152100D03*
X108902700Y-116655020D03*
X108902700Y-117150320D03*
X108902700Y-117653240D03*
X108902700Y-118153620D03*
X108902700Y-118651460D03*
X108902700Y-119146760D03*
X108902700Y-119649680D03*
X108902700Y-120150060D03*
X108902700Y-120647900D03*
X108902700Y-121148280D03*
X108902700Y-121648660D03*
D35*
X109451340Y-122197300D03*
X109951720Y-122197300D03*
X110452100Y-122197300D03*
X110949940Y-122197300D03*
X111450320Y-122197300D03*
X111950700Y-122197300D03*
X112448540Y-122197300D03*
X112946380Y-122197300D03*
X113446760Y-122197300D03*
X113949680Y-122197300D03*
X114450060Y-122197300D03*
X114947900Y-122197300D03*
X115448280Y-122197300D03*
X115948660Y-122197300D03*
D36*
X116497300Y-121648660D03*
X116497300Y-121148280D03*
X116497300Y-120647900D03*
X116497300Y-120150060D03*
X116497300Y-119649680D03*
X116497300Y-119149300D03*
X116497300Y-118651460D03*
X116497300Y-118153620D03*
X116497300Y-117653240D03*
X116497300Y-117150320D03*
X116497300Y-116649940D03*
X116497300Y-116152100D03*
X116497300Y-115651720D03*
X116497300Y-115151340D03*
D37*
X115900000Y-111255000D03*
X115900000Y-107445000D03*
D38*
X120400000Y-96750000D03*
X120400000Y-96100000D03*
X120400000Y-95450000D03*
X120400000Y-94800000D03*
X120400000Y-94150000D03*
D39*
X120950000Y-93200000D03*
X120950000Y-97700000D03*
D40*
X124950000Y-91250000D03*
X124950000Y-99650000D03*
D41*
X66000000Y-95900000D03*
X68540000Y-95900000D03*
X71080000Y-95900000D03*
X73620000Y-95900000D03*
X76160000Y-95900000D03*
X66000000Y-90898740D03*
X68540000Y-90898740D03*
X71080000Y-90898740D03*
X73620000Y-90898740D03*
X76160000Y-90898740D03*
D42*
X100556600Y-105266000D03*
X100556600Y-107806000D03*
X100556600Y-110346000D03*
X105557860Y-105266000D03*
X105557860Y-107806000D03*
X105557860Y-110346000D03*
X109956600Y-125916000D03*
X109956600Y-128456000D03*
X109956600Y-130996000D03*
X114957860Y-125916000D03*
X114957860Y-128456000D03*
X114957860Y-130996000D03*
D43*
G36*
X76730860Y-158153100D02*
X39984680Y-158153100D01*
X39984680Y-150157180D01*
X76730860Y-150157180D01*
X76730860Y-158153100D01*
X76730860Y-158153100D01*
G37*
X76730860Y-158153100D02*
X39984680Y-158153100D01*
X39984680Y-150157180D01*
X76730860Y-150157180D01*
X76730860Y-158153100D01*
G36*
X114731800Y-158153100D02*
X82984340Y-158153100D01*
X82984340Y-150157180D01*
X114731800Y-150157180D01*
X114731800Y-158153100D01*
X114731800Y-158153100D01*
G37*
X114731800Y-158153100D02*
X82984340Y-158153100D01*
X82984340Y-150157180D01*
X114731800Y-150157180D01*
X114731800Y-158153100D01*
M02*
