G04 #@! TF.FileFunction,Soldermask,Bot*
%FSLAX46Y46*%
G04 Gerber Fmt 4.6, Leading zero omitted, Abs format (unit mm)*
G04 Created by KiCad (PCBNEW 4.0.0-rc1-stable) date 08.10.2015 0:04:06*
%MOMM*%
G01*
G04 APERTURE LIST*
%ADD10C,0.152400*%
%ADD11R,1.258000X1.708000*%
%ADD12R,1.708000X1.258000*%
%ADD13R,1.708000X1.408000*%
%ADD14R,1.508000X2.008000*%
%ADD15R,1.708000X2.708000*%
%ADD16C,2.008000*%
%ADD17R,1.408000X1.708000*%
%ADD18R,0.793000X1.508000*%
%ADD19R,2.108000X2.508000*%
%ADD20R,2.540000X4.165600*%
%ADD21R,2.540000X1.524000*%
%ADD22R,2.235200X2.235200*%
%ADD23O,2.235200X2.235200*%
%ADD24R,5.508000X5.508000*%
%ADD25R,6.059480X6.059480*%
%ADD26R,2.608580X2.608580*%
%ADD27C,1.708000*%
%ADD28C,2.308000*%
%ADD29C,0.254000*%
G04 APERTURE END LIST*
D10*
D11*
X48350000Y-138775000D03*
X48350000Y-140675000D03*
D12*
X45825000Y-141750000D03*
X43925000Y-141750000D03*
D13*
X98950000Y-123050000D03*
X96750000Y-123050000D03*
X37140000Y-111540000D03*
X39340000Y-111540000D03*
X42100000Y-114600000D03*
X44300000Y-114600000D03*
X73550000Y-99050000D03*
X75750000Y-99050000D03*
X98950000Y-124500000D03*
X96750000Y-124500000D03*
D11*
X113850000Y-112400000D03*
X113850000Y-110500000D03*
X82260000Y-111960000D03*
X82260000Y-110060000D03*
D12*
X31950000Y-98500000D03*
X33850000Y-98500000D03*
X58380000Y-127770000D03*
X60280000Y-127770000D03*
D11*
X104930000Y-125160000D03*
X104930000Y-127060000D03*
X91070000Y-138480000D03*
X91070000Y-140380000D03*
X63675000Y-141250000D03*
X63675000Y-139350000D03*
D12*
X58570000Y-139510000D03*
X60470000Y-139510000D03*
D11*
X88925000Y-125450000D03*
X88925000Y-123550000D03*
X89320000Y-140320000D03*
X89320000Y-142220000D03*
X101540000Y-123030000D03*
X101540000Y-124930000D03*
X111300000Y-125700000D03*
X111300000Y-127600000D03*
X114650000Y-94130000D03*
X114650000Y-96030000D03*
X82260000Y-102370000D03*
X82260000Y-100470000D03*
X116300000Y-111550000D03*
X116300000Y-109650000D03*
X113700000Y-108850000D03*
X113700000Y-106950000D03*
X69250000Y-129500000D03*
X69250000Y-127600000D03*
X68100000Y-112125000D03*
X68100000Y-114025000D03*
X55600000Y-125000000D03*
X55600000Y-123100000D03*
D12*
X58375000Y-129225000D03*
X60275000Y-129225000D03*
X73080000Y-129160000D03*
X74980000Y-129160000D03*
D11*
X31525000Y-102750000D03*
X31525000Y-104650000D03*
X70790000Y-129500000D03*
X70790000Y-127600000D03*
X54720000Y-110960000D03*
X54720000Y-109060000D03*
X66050000Y-112150000D03*
X66050000Y-114050000D03*
X46925000Y-111075000D03*
X46925000Y-109175000D03*
X40200000Y-104725000D03*
X40200000Y-106625000D03*
D14*
X105075000Y-120700000D03*
X102575000Y-120700000D03*
X99275000Y-120700000D03*
X97575000Y-120700000D03*
X95075000Y-120700000D03*
X92575000Y-120700000D03*
X90150000Y-120700000D03*
X88450000Y-120700000D03*
X107575000Y-120700000D03*
X100925000Y-120700000D03*
X85100000Y-120700000D03*
D15*
X112600000Y-99700000D03*
X84600000Y-98500000D03*
D16*
X110300000Y-96400000D03*
X86100000Y-96400000D03*
D17*
X106860000Y-127410000D03*
X106860000Y-125210000D03*
X115400000Y-99670000D03*
X115400000Y-101870000D03*
X39450000Y-96725000D03*
X39450000Y-98925000D03*
D13*
X104500000Y-123380000D03*
X106700000Y-123380000D03*
D17*
X82240000Y-113930000D03*
X82240000Y-116130000D03*
X82240000Y-118110000D03*
X82240000Y-120310000D03*
D18*
X104350000Y-140050000D03*
X103850000Y-140050000D03*
X103350000Y-140050000D03*
X102850000Y-140050000D03*
X102350000Y-140050000D03*
X101850000Y-140050000D03*
X101350000Y-140050000D03*
X100850000Y-140050000D03*
X100350000Y-140050000D03*
X99850000Y-140050000D03*
X99350000Y-140050000D03*
X98850000Y-140050000D03*
X98350000Y-140050000D03*
X97850000Y-140050000D03*
X97350000Y-140050000D03*
X96850000Y-140050000D03*
X96350000Y-140050000D03*
X95850000Y-140050000D03*
X95350000Y-140050000D03*
X94850000Y-140050000D03*
X94350000Y-140050000D03*
X93850000Y-140050000D03*
X93350000Y-140050000D03*
X92850000Y-140050000D03*
X92850000Y-132550000D03*
X93350000Y-132550000D03*
X93850000Y-132550000D03*
X94350000Y-132550000D03*
X94850000Y-132550000D03*
X95350000Y-132550000D03*
X95850000Y-132550000D03*
X96350000Y-132550000D03*
X96850000Y-132550000D03*
X97350000Y-132550000D03*
X97850000Y-132550000D03*
X98350000Y-132550000D03*
X98850000Y-132550000D03*
X99350000Y-132550000D03*
X99850000Y-132550000D03*
X100350000Y-132550000D03*
X100850000Y-132550000D03*
X101350000Y-132550000D03*
X101850000Y-132550000D03*
X102350000Y-132550000D03*
X102850000Y-132550000D03*
X103350000Y-132550000D03*
X103850000Y-132550000D03*
X104350000Y-132550000D03*
D13*
X68500000Y-131000000D03*
X66300000Y-131000000D03*
D11*
X40075000Y-94875000D03*
X40075000Y-92975000D03*
D19*
X41800000Y-96725000D03*
X41800000Y-92725000D03*
D12*
X55950000Y-114425000D03*
X57850000Y-114425000D03*
D20*
X30698000Y-93800000D03*
D21*
X37302000Y-93800000D03*
X37302000Y-96086000D03*
X37302000Y-91514000D03*
D22*
X80550000Y-90050000D03*
D23*
X83090000Y-90050000D03*
D12*
X111700000Y-123100000D03*
X113600000Y-123100000D03*
D11*
X115900000Y-124250000D03*
X115900000Y-126150000D03*
D24*
X64400000Y-120600000D03*
D25*
X112700000Y-118402540D03*
D11*
X115100000Y-112400000D03*
X115100000Y-110500000D03*
X113700000Y-125750000D03*
X113700000Y-127650000D03*
D26*
X117600000Y-122605000D03*
X117600000Y-118795000D03*
D27*
X120950000Y-93200000D03*
X120950000Y-97700000D03*
D28*
X124950000Y-91250000D03*
X124950000Y-99650000D03*
D29*
G36*
X114731800Y-158153100D02*
X82984340Y-158153100D01*
X82984340Y-150157180D01*
X114731800Y-150157180D01*
X114731800Y-158153100D01*
X114731800Y-158153100D01*
G37*
X114731800Y-158153100D02*
X82984340Y-158153100D01*
X82984340Y-150157180D01*
X114731800Y-150157180D01*
X114731800Y-158153100D01*
G36*
X76730860Y-158153100D02*
X39984680Y-158153100D01*
X39984680Y-150157180D01*
X76730860Y-150157180D01*
X76730860Y-158153100D01*
X76730860Y-158153100D01*
G37*
X76730860Y-158153100D02*
X39984680Y-158153100D01*
X39984680Y-150157180D01*
X76730860Y-150157180D01*
X76730860Y-158153100D01*
M02*
