%TF.GenerationSoftware,KiCad,Pcbnew,(5.1.8)-1*%
%TF.CreationDate,2020-12-19T21:55:55+03:00*%
%TF.ProjectId,wasca,77617363-612e-46b6-9963-61645f706362,1.3*%
%TF.SameCoordinates,Original*%
%TF.FileFunction,Profile,NP*%
%FSLAX46Y46*%
G04 Gerber Fmt 4.6, Leading zero omitted, Abs format (unit mm)*
G04 Created by KiCad (PCBNEW (5.1.8)-1) date 2020-12-19 21:55:55*
%MOMM*%
%LPD*%
G01*
G04 APERTURE LIST*
%TA.AperFunction,Profile*%
%ADD10C,0.381000*%
%TD*%
G04 APERTURE END LIST*
D10*
X126900000Y-80950000D02*
X126900000Y-109800000D01*
X26850000Y-80950000D02*
X26850000Y-109800000D01*
X105400000Y-87300000D02*
X117900000Y-87300000D01*
X105400000Y-80950000D02*
X48850000Y-80950000D01*
X48850000Y-87300000D02*
X35900000Y-87300000D01*
X126900000Y-136300000D02*
X126900000Y-117800000D01*
X117900000Y-80950000D02*
X126900000Y-80950000D01*
X117900000Y-87300000D02*
X117900000Y-80950000D01*
X105400000Y-80950000D02*
X105400000Y-87300000D01*
X48850000Y-87300000D02*
X48850000Y-80950000D01*
X35900000Y-80950000D02*
X35900000Y-87300000D01*
X26850000Y-80950000D02*
X35900000Y-80950000D01*
X125350000Y-109800000D02*
X126900000Y-109800000D01*
X125350000Y-117800000D02*
X125350000Y-109800000D01*
X126900000Y-117800000D02*
X125350000Y-117800000D01*
X122350000Y-136300000D02*
X126900000Y-136300000D01*
X122350000Y-146300000D02*
X122350000Y-136300000D01*
X114850000Y-146300000D02*
X122350000Y-146300000D01*
X114850000Y-158300000D02*
X114850000Y-146300000D01*
X82850000Y-158300000D02*
X114850000Y-158300000D01*
X82850000Y-146300000D02*
X82850000Y-158300000D01*
X76850000Y-146300000D02*
X82850000Y-146300000D01*
X76850000Y-158300000D02*
X76850000Y-146300000D01*
X39850000Y-158300000D02*
X76850000Y-158300000D01*
X39850000Y-146300000D02*
X39850000Y-158300000D01*
X32350000Y-146300000D02*
X39850000Y-146300000D01*
X32350000Y-136300000D02*
X32350000Y-146300000D01*
X26850000Y-136300000D02*
X32350000Y-136300000D01*
X26850000Y-117800000D02*
X26850000Y-136300000D01*
X28350000Y-117800000D02*
X26850000Y-117800000D01*
X28350000Y-109800000D02*
X28350000Y-117800000D01*
X26850000Y-109800000D02*
X28350000Y-109800000D01*
M02*
