M48
;DRILL file {KiCad 4.0.0-rc1-stable} date 08.10.2015 0:04:10
;FORMAT={-:-/ absolute / metric / decimal}
FMAT,2
METRIC,TZ
T1C0.300
T2C0.700
T3C1.016
T4C1.200
T5C4.000
T6C5.000
%
G90
G05
M71
T1
X30.35Y-98.5
X30.5Y-109.9
X32.35Y-102.55
X32.95Y-92.45
X40.9Y-112.9
X41.3Y-105.025
X41.4Y-98.25
X41.4Y-106.8
X41.4Y-148.5
X41.7Y-109.55
X42.15Y-145.2
X42.35Y-140.9
X43.1Y-137.8
X43.8Y-149.1
X44.65Y-101.4
X44.9Y-148.3
X45.4Y-142.725
X45.55Y-109.3
X45.8Y-149.
X46.8Y-145.3
X46.85Y-134.3
X46.85Y-148.25
X47.475Y-138.825
X48.2Y-109.7
X48.55Y-101.25
X48.8Y-148.5
X50.45Y-110.45
X50.85Y-135.15
X52.55Y-100.
X52.62Y-108.46
X52.9Y-148.7
X53.6Y-111.05
X54.75Y-143.95
X54.8Y-123.25
X54.85Y-117.05
X54.925Y-98.6
X55.05Y-127.6
X55.55Y-126.1
X55.6Y-135.05
X55.95Y-111.
X56.025Y-113.5
X56.2Y-142.5
X56.7Y-145.5
X57.Y-137.8
X57.35Y-111.05
X57.6Y-146.3
X57.85Y-148.8
X58.65Y-130.225
X58.8Y-146.3
X58.95Y-137.6
X59.25Y-133.05
X60.15Y-111.1
X60.5Y-137.75
X60.65Y-145.45
X61.6Y-148.
X62.1Y-146.35
X62.4Y-147.2
X63.55Y-149.55
X63.65Y-129.9
X64.2Y-142.7
X64.6Y-135.3
X64.651Y-90.899
X65.05Y-111.1
X66.15Y-110.9
X66.35Y-129.95
X66.85Y-149.65
X67.2Y-111.85
X67.35Y-146.95
X67.4Y-130.05
X67.5Y-93.05
X68.05Y-98.65
X68.1Y-125.25
X68.2Y-143.95
X68.35Y-129.25
X68.4Y-127.85
X68.85Y-149.6
X69.05Y-100.1
X70.95Y-112.85
X71.5Y-111.7
X71.65Y-130.35
X71.75Y-134.35
X71.95Y-124.3
X72.35Y-107.05
X72.4Y-146.65
X72.45Y-100.
X72.45Y-108.05
X72.9Y-130.25
X73.1Y-122.8
X73.4Y-123.9
X73.45Y-124.8
X73.45Y-128.2
X74.2Y-132.05
X74.5Y-134.45
X74.8Y-100.2
X75.65Y-149.05
X76.2Y-111.
X76.8Y-128.2
X77.65Y-103.65
X78.1Y-114.
X78.3Y-116.09
X78.3Y-124.3
X78.3Y-125.9
X78.3Y-127.5
X78.86Y-91.06
X79.2Y-123.5
X79.2Y-125.1
X79.2Y-126.7
X79.3Y-128.4
X80.15Y-122.4
X80.45Y-108.91
X83.85Y-136.75
X83.9Y-141.8
X84.25Y-124.25
X84.45Y-134.25
X84.6Y-145.45
X86.4Y-131.95
X87.Y-147.75
X87.05Y-122.05
X88.15Y-126.6
X88.9Y-119.15
X89.125Y-126.775
X89.85Y-127.5
X89.9Y-116.
X90.1Y-94.9
X91.6Y-115.4
X91.9Y-142.7
X92.25Y-89.5
X92.25Y-122.75
X92.55Y-137.
X92.85Y-149.15
X94.Y-113.95
X94.75Y-137.85
X95.25Y-125.75
X95.55Y-123.1
X95.85Y-138.85
X96.1Y-136.35
X96.15Y-90.2
X96.7Y-145.8
X96.7Y-147.4
X96.75Y-107.45
X96.75Y-138.05
X97.05Y-92.98
X97.05Y-136.35
X97.9Y-106.4
X97.95Y-143.65
X98.Y-148.3
X98.1Y-122.05
X99.5Y-112.5
X99.6Y-103.3
X99.6Y-121.8
X99.6Y-137.75
X99.85Y-134.3
X100.55Y-138.7
X100.7Y-125.45
X100.85Y-149.1
X101.55Y-98.45
X101.85Y-133.7
X102.4Y-124.4
X102.65Y-94.3
X103.25Y-91.8
X103.3Y-123.8
X103.3Y-135.2
X103.6Y-113.3
X103.74Y-128.8
X104.Y-103.95
X104.2Y-112.
X104.55Y-128.19
X105.35Y-132.35
X105.45Y-91.9
X105.45Y-92.95
X105.85Y-149.15
X106.15Y-142.
X106.15Y-146.6
X106.3Y-122.15
X108.7Y-114.45
X110.3Y-123.
X110.35Y-110.1
X111.Y-132.95
X111.35Y-148.9
X111.65Y-113.3
X113.15Y-148.25
X113.75Y-124.75
X113.85Y-142.1
X114.05Y-99.1
X114.6Y-113.5
X114.75Y-108.8
X114.8Y-103.95
X116.Y-123.1
X116.35Y-112.65
X116.55Y-114.5
X117.2Y-105.8
X117.25Y-113.5
X117.4Y-120.25
X117.4Y-121.15
T2
X120.95Y-93.2
X120.95Y-97.7
T3
X80.55Y-90.05
X83.09Y-90.05
T4
X124.95Y-91.25
X124.95Y-99.65
T5
X64.4Y-120.6
T6
X112.7Y-118.403
T0
M30
