M48
; DRILL file {KiCad (5.1.8)-1} date 12/19/20 21:56:26
; FORMAT={-:-/ absolute / metric / decimal}
; #@! TF.CreationDate,2020-12-19T21:56:26+03:00
; #@! TF.GenerationSoftware,Kicad,Pcbnew,(5.1.8)-1
; #@! TF.FileFunction,Plated,1,2,PTH
FMAT,2
METRIC
T1C0.300
T2C0.600
T3C0.800
T4C0.900
T5C1.000
T6C1.016
T7C1.040
T8C4.000
%
G90
G05
T1
X33.6Y-104.7
X34.78Y-141.91
X35.85Y-94.71
X37.0Y-138.4
X38.1Y-90.0
X39.41Y-144.42
X41.002Y-139.3
X41.7Y-96.98
X41.98Y-144.67
X42.0Y-138.4
X42.5Y-112.9
X43.5Y-138.5
X43.8Y-142.3
X44.0Y-113.5
X44.895Y-139.636
X44.9Y-135.0
X45.0Y-95.1
X45.0Y-100.2
X45.0Y-141.3
X45.5Y-113.9
X45.52Y-120.65
X45.66Y-126.03
X45.9Y-105.4
X46.3Y-142.3
X46.7Y-114.2
X46.863Y-106.68
X47.0Y-90.2
X47.0Y-130.8
X47.5Y-133.2
X47.548Y-148.97
X47.815Y-139.842
X48.1Y-114.3
X48.4Y-132.7
X49.3Y-141.2
X49.6Y-114.7
X49.9Y-100.5
X50.1Y-119.35
X50.292Y-110.109
X50.5Y-134.2
X50.5Y-135.1
X50.5Y-142.4
X51.25Y-103.85
X51.606Y-99.179
X51.7Y-144.1
X51.9Y-105.4
X52.1Y-106.8
X52.2Y-134.1
X52.3Y-126.9
X52.307Y-132.207
X52.4Y-114.4
X52.6Y-103.1
X52.7Y-137.9
X52.855Y-148.845
X53.26Y-122.66
X53.8Y-121.2
X53.975Y-139.51
X54.2Y-119.2
X54.2Y-141.3
X54.356Y-101.981
X54.6Y-125.2
X54.8Y-87.2
X55.0Y-135.0
X55.1Y-133.9
X55.3Y-132.2
X55.54Y-126.42
X55.6Y-109.2
X55.9Y-111.8
X56.2Y-95.1
X56.75Y-113.2
X56.9Y-138.7
X57.3Y-139.51
X57.35Y-133.97
X57.4Y-95.8
X57.785Y-105.283
X57.9Y-148.7
X58.5Y-96.5
X58.7Y-93.8
X59.055Y-124.333
X59.4Y-139.0
X59.55Y-97.15
X60.0Y-93.1
X60.7Y-97.75
X60.8Y-141.1
X60.85Y-103.95
X61.084Y-119.281
X61.087Y-113.284
X61.087Y-123.317
X61.2Y-92.4
X61.4Y-121.0
X61.468Y-121.92
X61.595Y-107.95
X61.7Y-98.5
X61.8Y-130.6
X62.2Y-102.0
X62.5Y-91.7
X62.5Y-133.0
X62.75Y-99.2
X62.9Y-148.7
X63.3Y-137.4
X63.52Y-128.65
X63.7Y-91.0
X63.7Y-100.0
X63.7Y-140.4
X63.9Y-101.25
X63.949Y-131.85
X64.135Y-106.045
X64.135Y-121.539
X64.135Y-125.349
X64.137Y-124.383
X64.145Y-122.687
X64.3Y-120.2
X64.77Y-126.746
X64.8Y-90.3
X64.8Y-113.2
X64.8Y-129.9
X65.0Y-103.4
X65.0Y-148.96
X65.25Y-145.2
X65.7Y-119.7
X65.791Y-126.628
X65.8Y-117.021
X66.1Y-136.652
X66.465Y-126.106
X66.5Y-108.402
X67.0Y-123.2
X67.0Y-145.55
X67.3Y-144.15
X67.316Y-126.295
X67.46Y-142.6
X67.5Y-132.4
X67.564Y-107.696
X68.001Y-126.802
X68.1Y-137.4
X68.6Y-142.04
X68.697Y-125.678
X68.81Y-145.67
X68.9Y-148.9
X69.4Y-108.1
X69.5Y-133.4
X69.54Y-143.3
X69.636Y-127.0
X70.0Y-90.1
X70.25Y-142.33
X70.7Y-110.7
X70.739Y-126.873
X71.78Y-146.21
X71.8Y-133.5
X71.8Y-136.9
X72.1Y-126.9
X73.4Y-144.15
X73.6Y-145.45
X73.7Y-112.0
X73.905Y-89.479
X74.8Y-138.5
X74.9Y-88.2
X74.9Y-144.0
X75.057Y-126.619
X75.4Y-148.8
X75.6Y-145.05
X75.7Y-122.3
X76.073Y-108.077
X77.0Y-133.7
X77.1Y-126.7
X77.42Y-130.24
X77.5Y-115.8
X77.575Y-137.45
X77.6Y-102.9
X77.6Y-113.2
X78.22Y-133.409
X78.613Y-90.043
X78.8Y-103.1
X78.87Y-126.362
X78.964Y-104.127
X78.97Y-94.394
X79.094Y-108.394
X79.4Y-111.7
X79.425Y-136.65
X79.878Y-133.35
X80.279Y-104.321
X80.4Y-122.3
X80.4Y-126.7
X80.7Y-131.0
X80.71Y-116.51
X80.827Y-107.511
X81.0Y-134.7
X81.049Y-104.964
X81.28Y-90.17
X81.5Y-129.5
X81.8Y-121.8
X81.9Y-117.51
X82.4Y-103.5
X82.755Y-129.9
X83.058Y-90.17
X83.1Y-119.8
X83.185Y-121.92
X83.383Y-112.8
X83.4Y-111.5
X83.566Y-114.935
X83.6Y-133.8
X83.8Y-132.0
X85.0Y-144.5
X85.1Y-103.5
X85.1Y-149.2
X85.35Y-145.85
X85.798Y-101.727
X85.979Y-111.046
X86.3Y-125.1
X86.36Y-124.206
X86.36Y-125.984
X86.5Y-147.9
X86.609Y-112.309
X86.614Y-108.966
X86.74Y-106.355
X86.8Y-86.3
X87.0Y-116.9
X87.27Y-105.13
X87.6Y-118.3
X87.757Y-107.061
X87.85Y-146.85
X87.9Y-92.8
X87.9Y-148.9
X88.1Y-124.8
X88.1Y-145.2
X88.3Y-115.1
X88.846Y-106.147
X89.041Y-135.1
X89.1Y-102.7
X89.1Y-107.8
X89.1Y-145.95
X89.3Y-125.0
X89.8Y-114.7
X89.9Y-116.8
X90.1Y-119.8
X90.299Y-104.002
X90.3Y-148.5
X90.4Y-146.5
X90.5Y-135.1
X90.6Y-125.1
X90.8Y-109.5
X90.869Y-106.002
X90.9Y-110.6
X91.45Y-149.2
X91.5Y-100.6
X91.6Y-88.7
X91.8Y-125.2
X91.9Y-102.4
X92.0Y-121.7
X92.125Y-138.225
X92.4Y-107.6
X92.5Y-147.5
X92.51Y-106.47
X92.7Y-149.1
X92.8Y-146.0
X92.9Y-144.4
X93.0Y-125.5
X93.675Y-113.4
X93.8Y-102.7
X94.0Y-100.9
X94.107Y-99.931
X94.2Y-125.7
X94.45Y-147.65
X94.513Y-114.021
X94.9Y-143.45
X95.4Y-114.3
X95.4Y-125.8
X95.6Y-108.0
X95.6Y-108.966
X96.0Y-111.5
X96.0Y-138.7
X96.266Y-141.859
X96.311Y-104.429
X96.4Y-101.4
X96.6Y-107.2
X96.67Y-115.033
X96.7Y-125.8
X96.8Y-133.7
X96.8Y-148.6
X96.977Y-141.097
X97.1Y-136.5
X97.409Y-111.16
X97.5Y-138.5
X97.7Y-105.5
X97.754Y-141.986
X97.86Y-108.21
X97.927Y-99.131
X98.0Y-109.5
X98.0Y-147.4
X98.477Y-141.224
X98.9Y-144.7
X98.9Y-146.3
X98.933Y-99.568
X98.933Y-119.253
X99.04Y-111.3
X99.314Y-142.113
X99.4Y-94.2
X99.6Y-103.7
X99.7Y-149.3
X99.92Y-111.16
X99.991Y-141.208
X99.993Y-112.918
X100.5Y-138.5
X100.7Y-143.7
X100.75Y-107.24
X100.838Y-142.113
X101.28Y-97.8
X101.5Y-111.5
X101.521Y-106.172
X101.535Y-141.228
X101.7Y-133.7
X102.121Y-98.532
X102.2Y-145.3
X102.616Y-112.494
X102.71Y-103.69
X103.0Y-138.5
X103.2Y-143.0
X103.7Y-98.7
X103.886Y-112.494
X104.1Y-102.0
X104.2Y-141.8
X104.282Y-107.663
X104.648Y-93.726
X105.4Y-114.2
X105.5Y-145.3
X105.5Y-149.0
X105.8Y-147.1
X105.9Y-138.5
X106.0Y-143.9
X106.1Y-130.1
X106.7Y-133.7
X106.8Y-106.6
X106.8Y-107.9
X107.0Y-113.2
X107.1Y-129.3
X107.4Y-138.8
X107.5Y-143.8
X107.6Y-114.0
X107.696Y-109.474
X107.95Y-103.251
X108.458Y-97.663
X108.5Y-144.9
X108.6Y-94.3
X109.4Y-110.0
X109.5Y-146.1
X109.7Y-107.1
X109.9Y-139.8
X110.1Y-136.8
X111.1Y-116.0
X111.2Y-148.6
X111.252Y-135.128
X111.9Y-114.5
X113.5Y-89.8
X113.7Y-96.5
X113.855Y-148.5
X113.9Y-121.2
X114.3Y-109.4
X114.808Y-135.128
X115.316Y-99.33
X117.1Y-92.5
X117.95Y-141.44
X118.69Y-94.34
X118.91Y-93.13
X121.1Y-112.9
X122.07Y-93.97
X122.52Y-118.74
X123.51Y-132.96
T3
X101.66Y-119.04
X106.54Y-119.04
T4
X78.63Y-85.2
X79.9Y-85.2
X81.17Y-85.2
X82.44Y-85.2
X52.13Y-83.25
X52.13Y-85.79
X122.682Y-83.185
X122.682Y-85.725
T5
X115.697Y-118.173
X115.697Y-120.713
X118.237Y-118.173
X118.237Y-120.713
X119.8Y-102.3
X119.8Y-104.84
X122.34Y-102.3
X122.34Y-104.84
X107.03Y-89.54
X107.03Y-92.08
X109.57Y-89.54
X109.57Y-92.08
X112.11Y-89.54
X112.11Y-92.08
X60.3Y-84.96
X60.3Y-87.5
X62.84Y-84.96
X62.84Y-87.5
X65.38Y-84.96
X65.38Y-87.5
X67.92Y-84.96
X67.92Y-87.5
X70.46Y-84.96
X70.46Y-87.5
T6
X110.41Y-123.77
X110.41Y-126.62
X110.41Y-129.62
T7
X29.4Y-83.96
X29.4Y-86.5
X29.4Y-89.04
X29.4Y-91.58
X29.4Y-94.12
X29.4Y-96.66
X29.4Y-99.2
X29.4Y-101.74
T8
X73.787Y-117.221
T2
G00X120.55Y-89.67
M15
G01X121.65Y-89.67
M16
G05
G00X120.55Y-98.31
M15
G01X121.65Y-98.31
M16
G05
G00X124.98Y-89.67
M15
G01X125.58Y-89.67
M16
G05
G00X124.98Y-98.31
M15
G01X125.58Y-98.31
M16
G05
T0
M30
