G04 #@! TF.FileFunction,Legend,Bot*
%FSLAX46Y46*%
G04 Gerber Fmt 4.6, Leading zero omitted, Abs format (unit mm)*
G04 Created by KiCad (PCBNEW (after 2015-mar-04 BZR unknown)-product) date 06.06.2015 1:17:50*
%MOMM*%
G01*
G04 APERTURE LIST*
%ADD10C,0.150000*%
G04 APERTURE END LIST*
D10*
X40812200Y-143570400D02*
X40112200Y-143570400D01*
X40112200Y-144770400D02*
X40812200Y-144770400D01*
X80019600Y-139883400D02*
X80019600Y-140583400D01*
X81219600Y-140583400D02*
X81219600Y-139883400D01*
X69550800Y-139614200D02*
X70250800Y-139614200D01*
X70250800Y-138414200D02*
X69550800Y-138414200D01*
X84536800Y-128235000D02*
X85236800Y-128235000D01*
X85236800Y-127035000D02*
X84536800Y-127035000D01*
X70373800Y-133395200D02*
X70373800Y-132695200D01*
X69173800Y-132695200D02*
X69173800Y-133395200D01*
X70983400Y-100680000D02*
X70983400Y-99980000D01*
X69783400Y-99980000D02*
X69783400Y-100680000D01*
X71897800Y-108960400D02*
X71897800Y-108260400D01*
X70697800Y-108260400D02*
X70697800Y-108960400D01*
X74666400Y-114777000D02*
X74666400Y-114077000D01*
X73466400Y-114077000D02*
X73466400Y-114777000D01*
X70500800Y-114243600D02*
X70500800Y-113543600D01*
X69300800Y-113543600D02*
X69300800Y-114243600D01*
X68259400Y-117277400D02*
X68259400Y-117977400D01*
X69459400Y-117977400D02*
X69459400Y-117277400D01*
X72177200Y-116834400D02*
X72177200Y-116134400D01*
X70977200Y-116134400D02*
X70977200Y-116834400D01*
X36509400Y-92537800D02*
X36509400Y-93237800D01*
X37709400Y-93237800D02*
X37709400Y-92537800D01*
X73984600Y-98053600D02*
X73284600Y-98053600D01*
X73284600Y-99253600D02*
X73984600Y-99253600D01*
X75076800Y-110296400D02*
X74376800Y-110296400D01*
X74376800Y-111496400D02*
X75076800Y-111496400D01*
X100045000Y-105495800D02*
X99345000Y-105495800D01*
X99345000Y-106695800D02*
X100045000Y-106695800D01*
X70211200Y-94376800D02*
X70911200Y-94376800D01*
X70911200Y-93176800D02*
X70211200Y-93176800D01*
X98923600Y-102581600D02*
X100923600Y-102581600D01*
X100923600Y-104631600D02*
X98923600Y-104631600D01*
X35702800Y-104896400D02*
X35702800Y-104196400D01*
X34502800Y-104196400D02*
X34502800Y-104896400D01*
X37582400Y-117012200D02*
X37582400Y-116312200D01*
X36382400Y-116312200D02*
X36382400Y-117012200D01*
X69681800Y-103942400D02*
X69681800Y-104642400D01*
X70881800Y-104642400D02*
X70881800Y-103942400D01*
X70287400Y-92624200D02*
X70987400Y-92624200D01*
X70987400Y-91424200D02*
X70287400Y-91424200D01*
X72003400Y-94980200D02*
X71303400Y-94980200D01*
X71303400Y-96180200D02*
X72003400Y-96180200D01*
X36458600Y-108108000D02*
X36458600Y-108808000D01*
X37658600Y-108808000D02*
X37658600Y-108108000D01*
X47818600Y-139719800D02*
X47818600Y-139019800D01*
X46618600Y-139019800D02*
X46618600Y-139719800D01*
X37684000Y-97174800D02*
X37684000Y-96474800D01*
X36484000Y-96474800D02*
X36484000Y-97174800D01*
X45888200Y-139719800D02*
X45888200Y-139019800D01*
X44688200Y-139019800D02*
X44688200Y-139719800D01*
X36458600Y-100386400D02*
X36458600Y-101086400D01*
X37658600Y-101086400D02*
X37658600Y-100386400D01*
X37658600Y-104896400D02*
X37658600Y-104196400D01*
X36458600Y-104196400D02*
X36458600Y-104896400D01*
X60706600Y-135585200D02*
X61206600Y-135585200D01*
X58206600Y-135585200D02*
X58706600Y-135585200D01*
X50706600Y-135585200D02*
X51206600Y-135585200D01*
X48206600Y-135585200D02*
X48706600Y-135585200D01*
X45806600Y-135585200D02*
X46206600Y-135585200D01*
X40706600Y-135585200D02*
X42106600Y-135585200D01*
X38806600Y-114985200D02*
X38806600Y-135585200D01*
X67706600Y-116185200D02*
X67706600Y-135585200D01*
X67706600Y-135585200D02*
X63206600Y-135585200D01*
X67706600Y-105785200D02*
X38806600Y-105785200D01*
X38806600Y-105785200D02*
X38806600Y-111785200D01*
X67706600Y-105785200D02*
X67706600Y-112985200D01*
X81297400Y-97572200D02*
X80297400Y-97572200D01*
X80297400Y-98922200D02*
X81297400Y-98922200D01*
X42327200Y-138742800D02*
X42327200Y-139742800D01*
X43677200Y-139742800D02*
X43677200Y-138742800D01*
X60190000Y-138110600D02*
X59190000Y-138110600D01*
X59190000Y-139460600D02*
X60190000Y-139460600D01*
X102895000Y-123825000D02*
X102637500Y-123825000D01*
X102895000Y-117475000D02*
X102637500Y-117475000D01*
X90145000Y-117475000D02*
X90402500Y-117475000D01*
X90145000Y-123825000D02*
X90402500Y-123825000D01*
X102895000Y-123825000D02*
X102895000Y-117475000D01*
X90145000Y-123825000D02*
X90145000Y-117475000D01*
X102637500Y-123825000D02*
X102637500Y-124900000D01*
X104901600Y-140639800D02*
X104644100Y-140639800D01*
X104901600Y-134289800D02*
X104644100Y-134289800D01*
X92151600Y-134289800D02*
X92409100Y-134289800D01*
X92151600Y-140639800D02*
X92409100Y-140639800D01*
X104901600Y-140639800D02*
X104901600Y-134289800D01*
X92151600Y-140639800D02*
X92151600Y-134289800D01*
X104644100Y-140639800D02*
X104644100Y-141714800D01*
X40628866Y-142627543D02*
X40676485Y-142675162D01*
X40819342Y-142722781D01*
X40914580Y-142722781D01*
X41057438Y-142675162D01*
X41152676Y-142579924D01*
X41200295Y-142484686D01*
X41247914Y-142294210D01*
X41247914Y-142151352D01*
X41200295Y-141960876D01*
X41152676Y-141865638D01*
X41057438Y-141770400D01*
X40914580Y-141722781D01*
X40819342Y-141722781D01*
X40676485Y-141770400D01*
X40628866Y-141818019D01*
X40295533Y-141722781D02*
X39676485Y-141722781D01*
X40009819Y-142103733D01*
X39866961Y-142103733D01*
X39771723Y-142151352D01*
X39724104Y-142198971D01*
X39676485Y-142294210D01*
X39676485Y-142532305D01*
X39724104Y-142627543D01*
X39771723Y-142675162D01*
X39866961Y-142722781D01*
X40152676Y-142722781D01*
X40247914Y-142675162D01*
X40295533Y-142627543D01*
X79351143Y-139126934D02*
X79398762Y-139079315D01*
X79446381Y-138936458D01*
X79446381Y-138841220D01*
X79398762Y-138698362D01*
X79303524Y-138603124D01*
X79208286Y-138555505D01*
X79017810Y-138507886D01*
X78874952Y-138507886D01*
X78684476Y-138555505D01*
X78589238Y-138603124D01*
X78494000Y-138698362D01*
X78446381Y-138841220D01*
X78446381Y-138936458D01*
X78494000Y-139079315D01*
X78541619Y-139126934D01*
X78446381Y-140031696D02*
X78446381Y-139555505D01*
X78922571Y-139507886D01*
X78874952Y-139555505D01*
X78827333Y-139650743D01*
X78827333Y-139888839D01*
X78874952Y-139984077D01*
X78922571Y-140031696D01*
X79017810Y-140079315D01*
X79255905Y-140079315D01*
X79351143Y-140031696D01*
X79398762Y-139984077D01*
X79446381Y-139888839D01*
X79446381Y-139650743D01*
X79398762Y-139555505D01*
X79351143Y-139507886D01*
X70067466Y-141271343D02*
X70115085Y-141318962D01*
X70257942Y-141366581D01*
X70353180Y-141366581D01*
X70496038Y-141318962D01*
X70591276Y-141223724D01*
X70638895Y-141128486D01*
X70686514Y-140938010D01*
X70686514Y-140795152D01*
X70638895Y-140604676D01*
X70591276Y-140509438D01*
X70496038Y-140414200D01*
X70353180Y-140366581D01*
X70257942Y-140366581D01*
X70115085Y-140414200D01*
X70067466Y-140461819D01*
X69734133Y-140366581D02*
X69067466Y-140366581D01*
X69496038Y-141366581D01*
X85129666Y-126277643D02*
X85177285Y-126325262D01*
X85320142Y-126372881D01*
X85415380Y-126372881D01*
X85558238Y-126325262D01*
X85653476Y-126230024D01*
X85701095Y-126134786D01*
X85748714Y-125944310D01*
X85748714Y-125801452D01*
X85701095Y-125610976D01*
X85653476Y-125515738D01*
X85558238Y-125420500D01*
X85415380Y-125372881D01*
X85320142Y-125372881D01*
X85177285Y-125420500D01*
X85129666Y-125468119D01*
X84558238Y-125801452D02*
X84653476Y-125753833D01*
X84701095Y-125706214D01*
X84748714Y-125610976D01*
X84748714Y-125563357D01*
X84701095Y-125468119D01*
X84653476Y-125420500D01*
X84558238Y-125372881D01*
X84367761Y-125372881D01*
X84272523Y-125420500D01*
X84224904Y-125468119D01*
X84177285Y-125563357D01*
X84177285Y-125610976D01*
X84224904Y-125706214D01*
X84272523Y-125753833D01*
X84367761Y-125801452D01*
X84558238Y-125801452D01*
X84653476Y-125849071D01*
X84701095Y-125896690D01*
X84748714Y-125991929D01*
X84748714Y-126182405D01*
X84701095Y-126277643D01*
X84653476Y-126325262D01*
X84558238Y-126372881D01*
X84367761Y-126372881D01*
X84272523Y-126325262D01*
X84224904Y-126277643D01*
X84177285Y-126182405D01*
X84177285Y-125991929D01*
X84224904Y-125896690D01*
X84272523Y-125849071D01*
X84367761Y-125801452D01*
X70207143Y-135907543D02*
X70254762Y-135859924D01*
X70302381Y-135717067D01*
X70302381Y-135621829D01*
X70254762Y-135478971D01*
X70159524Y-135383733D01*
X70064286Y-135336114D01*
X69873810Y-135288495D01*
X69730952Y-135288495D01*
X69540476Y-135336114D01*
X69445238Y-135383733D01*
X69350000Y-135478971D01*
X69302381Y-135621829D01*
X69302381Y-135717067D01*
X69350000Y-135859924D01*
X69397619Y-135907543D01*
X70302381Y-136859924D02*
X70302381Y-136288495D01*
X70302381Y-136574209D02*
X69302381Y-136574209D01*
X69445238Y-136478971D01*
X69540476Y-136383733D01*
X69588095Y-136288495D01*
X69302381Y-137478971D02*
X69302381Y-137574210D01*
X69350000Y-137669448D01*
X69397619Y-137717067D01*
X69492857Y-137764686D01*
X69683333Y-137812305D01*
X69921429Y-137812305D01*
X70111905Y-137764686D01*
X70207143Y-137717067D01*
X70254762Y-137669448D01*
X70302381Y-137574210D01*
X70302381Y-137478971D01*
X70254762Y-137383733D01*
X70207143Y-137336114D01*
X70111905Y-137288495D01*
X69921429Y-137240876D01*
X69683333Y-137240876D01*
X69492857Y-137288495D01*
X69397619Y-137336114D01*
X69350000Y-137383733D01*
X69302381Y-137478971D01*
X72035943Y-99941143D02*
X72083562Y-99893524D01*
X72131181Y-99750667D01*
X72131181Y-99655429D01*
X72083562Y-99512571D01*
X71988324Y-99417333D01*
X71893086Y-99369714D01*
X71702610Y-99322095D01*
X71559752Y-99322095D01*
X71369276Y-99369714D01*
X71274038Y-99417333D01*
X71178800Y-99512571D01*
X71131181Y-99655429D01*
X71131181Y-99750667D01*
X71178800Y-99893524D01*
X71226419Y-99941143D01*
X72131181Y-100893524D02*
X72131181Y-100322095D01*
X72131181Y-100607809D02*
X71131181Y-100607809D01*
X71274038Y-100512571D01*
X71369276Y-100417333D01*
X71416895Y-100322095D01*
X72131181Y-101845905D02*
X72131181Y-101274476D01*
X72131181Y-101560190D02*
X71131181Y-101560190D01*
X71274038Y-101464952D01*
X71369276Y-101369714D01*
X71416895Y-101274476D01*
X74271143Y-107180143D02*
X74318762Y-107132524D01*
X74366381Y-106989667D01*
X74366381Y-106894429D01*
X74318762Y-106751571D01*
X74223524Y-106656333D01*
X74128286Y-106608714D01*
X73937810Y-106561095D01*
X73794952Y-106561095D01*
X73604476Y-106608714D01*
X73509238Y-106656333D01*
X73414000Y-106751571D01*
X73366381Y-106894429D01*
X73366381Y-106989667D01*
X73414000Y-107132524D01*
X73461619Y-107180143D01*
X74366381Y-108132524D02*
X74366381Y-107561095D01*
X74366381Y-107846809D02*
X73366381Y-107846809D01*
X73509238Y-107751571D01*
X73604476Y-107656333D01*
X73652095Y-107561095D01*
X73461619Y-108513476D02*
X73414000Y-108561095D01*
X73366381Y-108656333D01*
X73366381Y-108894429D01*
X73414000Y-108989667D01*
X73461619Y-109037286D01*
X73556857Y-109084905D01*
X73652095Y-109084905D01*
X73794952Y-109037286D01*
X74366381Y-108465857D01*
X74366381Y-109084905D01*
X76099943Y-113860343D02*
X76147562Y-113812724D01*
X76195181Y-113669867D01*
X76195181Y-113574629D01*
X76147562Y-113431771D01*
X76052324Y-113336533D01*
X75957086Y-113288914D01*
X75766610Y-113241295D01*
X75623752Y-113241295D01*
X75433276Y-113288914D01*
X75338038Y-113336533D01*
X75242800Y-113431771D01*
X75195181Y-113574629D01*
X75195181Y-113669867D01*
X75242800Y-113812724D01*
X75290419Y-113860343D01*
X76195181Y-114812724D02*
X76195181Y-114241295D01*
X76195181Y-114527009D02*
X75195181Y-114527009D01*
X75338038Y-114431771D01*
X75433276Y-114336533D01*
X75480895Y-114241295D01*
X75528514Y-115669867D02*
X76195181Y-115669867D01*
X75147562Y-115431771D02*
X75861848Y-115193676D01*
X75861848Y-115812724D01*
X69470543Y-109720143D02*
X69518162Y-109672524D01*
X69565781Y-109529667D01*
X69565781Y-109434429D01*
X69518162Y-109291571D01*
X69422924Y-109196333D01*
X69327686Y-109148714D01*
X69137210Y-109101095D01*
X68994352Y-109101095D01*
X68803876Y-109148714D01*
X68708638Y-109196333D01*
X68613400Y-109291571D01*
X68565781Y-109434429D01*
X68565781Y-109529667D01*
X68613400Y-109672524D01*
X68661019Y-109720143D01*
X69565781Y-110672524D02*
X69565781Y-110101095D01*
X69565781Y-110386809D02*
X68565781Y-110386809D01*
X68708638Y-110291571D01*
X68803876Y-110196333D01*
X68851495Y-110101095D01*
X68565781Y-111577286D02*
X68565781Y-111101095D01*
X69041971Y-111053476D01*
X68994352Y-111101095D01*
X68946733Y-111196333D01*
X68946733Y-111434429D01*
X68994352Y-111529667D01*
X69041971Y-111577286D01*
X69137210Y-111624905D01*
X69375305Y-111624905D01*
X69470543Y-111577286D01*
X69518162Y-111529667D01*
X69565781Y-111434429D01*
X69565781Y-111196333D01*
X69518162Y-111101095D01*
X69470543Y-111053476D01*
X69546743Y-120464343D02*
X69594362Y-120416724D01*
X69641981Y-120273867D01*
X69641981Y-120178629D01*
X69594362Y-120035771D01*
X69499124Y-119940533D01*
X69403886Y-119892914D01*
X69213410Y-119845295D01*
X69070552Y-119845295D01*
X68880076Y-119892914D01*
X68784838Y-119940533D01*
X68689600Y-120035771D01*
X68641981Y-120178629D01*
X68641981Y-120273867D01*
X68689600Y-120416724D01*
X68737219Y-120464343D01*
X69641981Y-121416724D02*
X69641981Y-120845295D01*
X69641981Y-121131009D02*
X68641981Y-121131009D01*
X68784838Y-121035771D01*
X68880076Y-120940533D01*
X68927695Y-120845295D01*
X68641981Y-122273867D02*
X68641981Y-122083390D01*
X68689600Y-121988152D01*
X68737219Y-121940533D01*
X68880076Y-121845295D01*
X69070552Y-121797676D01*
X69451505Y-121797676D01*
X69546743Y-121845295D01*
X69594362Y-121892914D01*
X69641981Y-121988152D01*
X69641981Y-122178629D01*
X69594362Y-122273867D01*
X69546743Y-122321486D01*
X69451505Y-122369105D01*
X69213410Y-122369105D01*
X69118171Y-122321486D01*
X69070552Y-122273867D01*
X69022933Y-122178629D01*
X69022933Y-121988152D01*
X69070552Y-121892914D01*
X69118171Y-121845295D01*
X69213410Y-121797676D01*
X73661543Y-117873543D02*
X73709162Y-117825924D01*
X73756781Y-117683067D01*
X73756781Y-117587829D01*
X73709162Y-117444971D01*
X73613924Y-117349733D01*
X73518686Y-117302114D01*
X73328210Y-117254495D01*
X73185352Y-117254495D01*
X72994876Y-117302114D01*
X72899638Y-117349733D01*
X72804400Y-117444971D01*
X72756781Y-117587829D01*
X72756781Y-117683067D01*
X72804400Y-117825924D01*
X72852019Y-117873543D01*
X72852019Y-118254495D02*
X72804400Y-118302114D01*
X72756781Y-118397352D01*
X72756781Y-118635448D01*
X72804400Y-118730686D01*
X72852019Y-118778305D01*
X72947257Y-118825924D01*
X73042495Y-118825924D01*
X73185352Y-118778305D01*
X73756781Y-118206876D01*
X73756781Y-118825924D01*
X72756781Y-119159257D02*
X72756781Y-119778305D01*
X73137733Y-119444971D01*
X73137733Y-119587829D01*
X73185352Y-119683067D01*
X73232971Y-119730686D01*
X73328210Y-119778305D01*
X73566305Y-119778305D01*
X73661543Y-119730686D01*
X73709162Y-119683067D01*
X73756781Y-119587829D01*
X73756781Y-119302114D01*
X73709162Y-119206876D01*
X73661543Y-119159257D01*
X35713943Y-92168743D02*
X35761562Y-92121124D01*
X35809181Y-91978267D01*
X35809181Y-91883029D01*
X35761562Y-91740171D01*
X35666324Y-91644933D01*
X35571086Y-91597314D01*
X35380610Y-91549695D01*
X35237752Y-91549695D01*
X35047276Y-91597314D01*
X34952038Y-91644933D01*
X34856800Y-91740171D01*
X34809181Y-91883029D01*
X34809181Y-91978267D01*
X34856800Y-92121124D01*
X34904419Y-92168743D01*
X34904419Y-92549695D02*
X34856800Y-92597314D01*
X34809181Y-92692552D01*
X34809181Y-92930648D01*
X34856800Y-93025886D01*
X34904419Y-93073505D01*
X34999657Y-93121124D01*
X35094895Y-93121124D01*
X35237752Y-93073505D01*
X35809181Y-92502076D01*
X35809181Y-93121124D01*
X35142514Y-93978267D02*
X35809181Y-93978267D01*
X34761562Y-93740171D02*
X35475848Y-93502076D01*
X35475848Y-94121124D01*
X75903057Y-100763343D02*
X75950676Y-100810962D01*
X76093533Y-100858581D01*
X76188771Y-100858581D01*
X76331629Y-100810962D01*
X76426867Y-100715724D01*
X76474486Y-100620486D01*
X76522105Y-100430010D01*
X76522105Y-100287152D01*
X76474486Y-100096676D01*
X76426867Y-100001438D01*
X76331629Y-99906200D01*
X76188771Y-99858581D01*
X76093533Y-99858581D01*
X75950676Y-99906200D01*
X75903057Y-99953819D01*
X75522105Y-99953819D02*
X75474486Y-99906200D01*
X75379248Y-99858581D01*
X75141152Y-99858581D01*
X75045914Y-99906200D01*
X74998295Y-99953819D01*
X74950676Y-100049057D01*
X74950676Y-100144295D01*
X74998295Y-100287152D01*
X75569724Y-100858581D01*
X74950676Y-100858581D01*
X74093533Y-99858581D02*
X74284010Y-99858581D01*
X74379248Y-99906200D01*
X74426867Y-99953819D01*
X74522105Y-100096676D01*
X74569724Y-100287152D01*
X74569724Y-100668105D01*
X74522105Y-100763343D01*
X74474486Y-100810962D01*
X74379248Y-100858581D01*
X74188771Y-100858581D01*
X74093533Y-100810962D01*
X74045914Y-100763343D01*
X73998295Y-100668105D01*
X73998295Y-100430010D01*
X74045914Y-100334771D01*
X74093533Y-100287152D01*
X74188771Y-100239533D01*
X74379248Y-100239533D01*
X74474486Y-100287152D01*
X74522105Y-100334771D01*
X74569724Y-100430010D01*
X79027257Y-111304343D02*
X79074876Y-111351962D01*
X79217733Y-111399581D01*
X79312971Y-111399581D01*
X79455829Y-111351962D01*
X79551067Y-111256724D01*
X79598686Y-111161486D01*
X79646305Y-110971010D01*
X79646305Y-110828152D01*
X79598686Y-110637676D01*
X79551067Y-110542438D01*
X79455829Y-110447200D01*
X79312971Y-110399581D01*
X79217733Y-110399581D01*
X79074876Y-110447200D01*
X79027257Y-110494819D01*
X78646305Y-110494819D02*
X78598686Y-110447200D01*
X78503448Y-110399581D01*
X78265352Y-110399581D01*
X78170114Y-110447200D01*
X78122495Y-110494819D01*
X78074876Y-110590057D01*
X78074876Y-110685295D01*
X78122495Y-110828152D01*
X78693924Y-111399581D01*
X78074876Y-111399581D01*
X77503448Y-110828152D02*
X77598686Y-110780533D01*
X77646305Y-110732914D01*
X77693924Y-110637676D01*
X77693924Y-110590057D01*
X77646305Y-110494819D01*
X77598686Y-110447200D01*
X77503448Y-110399581D01*
X77312971Y-110399581D01*
X77217733Y-110447200D01*
X77170114Y-110494819D01*
X77122495Y-110590057D01*
X77122495Y-110637676D01*
X77170114Y-110732914D01*
X77217733Y-110780533D01*
X77312971Y-110828152D01*
X77503448Y-110828152D01*
X77598686Y-110875771D01*
X77646305Y-110923390D01*
X77693924Y-111018629D01*
X77693924Y-111209105D01*
X77646305Y-111304343D01*
X77598686Y-111351962D01*
X77503448Y-111399581D01*
X77312971Y-111399581D01*
X77217733Y-111351962D01*
X77170114Y-111304343D01*
X77122495Y-111209105D01*
X77122495Y-111018629D01*
X77170114Y-110923390D01*
X77217733Y-110875771D01*
X77312971Y-110828152D01*
X104300257Y-106503743D02*
X104347876Y-106551362D01*
X104490733Y-106598981D01*
X104585971Y-106598981D01*
X104728829Y-106551362D01*
X104824067Y-106456124D01*
X104871686Y-106360886D01*
X104919305Y-106170410D01*
X104919305Y-106027552D01*
X104871686Y-105837076D01*
X104824067Y-105741838D01*
X104728829Y-105646600D01*
X104585971Y-105598981D01*
X104490733Y-105598981D01*
X104347876Y-105646600D01*
X104300257Y-105694219D01*
X103966924Y-105598981D02*
X103347876Y-105598981D01*
X103681210Y-105979933D01*
X103538352Y-105979933D01*
X103443114Y-106027552D01*
X103395495Y-106075171D01*
X103347876Y-106170410D01*
X103347876Y-106408505D01*
X103395495Y-106503743D01*
X103443114Y-106551362D01*
X103538352Y-106598981D01*
X103824067Y-106598981D01*
X103919305Y-106551362D01*
X103966924Y-106503743D01*
X102395495Y-106598981D02*
X102966924Y-106598981D01*
X102681210Y-106598981D02*
X102681210Y-105598981D01*
X102776448Y-105741838D01*
X102871686Y-105837076D01*
X102966924Y-105884695D01*
X74760057Y-94311743D02*
X74807676Y-94359362D01*
X74950533Y-94406981D01*
X75045771Y-94406981D01*
X75188629Y-94359362D01*
X75283867Y-94264124D01*
X75331486Y-94168886D01*
X75379105Y-93978410D01*
X75379105Y-93835552D01*
X75331486Y-93645076D01*
X75283867Y-93549838D01*
X75188629Y-93454600D01*
X75045771Y-93406981D01*
X74950533Y-93406981D01*
X74807676Y-93454600D01*
X74760057Y-93502219D01*
X74426724Y-93406981D02*
X73807676Y-93406981D01*
X74141010Y-93787933D01*
X73998152Y-93787933D01*
X73902914Y-93835552D01*
X73855295Y-93883171D01*
X73807676Y-93978410D01*
X73807676Y-94216505D01*
X73855295Y-94311743D01*
X73902914Y-94359362D01*
X73998152Y-94406981D01*
X74283867Y-94406981D01*
X74379105Y-94359362D01*
X74426724Y-94311743D01*
X73426724Y-93502219D02*
X73379105Y-93454600D01*
X73283867Y-93406981D01*
X73045771Y-93406981D01*
X72950533Y-93454600D01*
X72902914Y-93502219D01*
X72855295Y-93597457D01*
X72855295Y-93692695D01*
X72902914Y-93835552D01*
X73474343Y-94406981D01*
X72855295Y-94406981D01*
X100566457Y-101663743D02*
X100614076Y-101711362D01*
X100756933Y-101758981D01*
X100852171Y-101758981D01*
X100995029Y-101711362D01*
X101090267Y-101616124D01*
X101137886Y-101520886D01*
X101185505Y-101330410D01*
X101185505Y-101187552D01*
X101137886Y-100997076D01*
X101090267Y-100901838D01*
X100995029Y-100806600D01*
X100852171Y-100758981D01*
X100756933Y-100758981D01*
X100614076Y-100806600D01*
X100566457Y-100854219D01*
X100233124Y-100758981D02*
X99614076Y-100758981D01*
X99947410Y-101139933D01*
X99804552Y-101139933D01*
X99709314Y-101187552D01*
X99661695Y-101235171D01*
X99614076Y-101330410D01*
X99614076Y-101568505D01*
X99661695Y-101663743D01*
X99709314Y-101711362D01*
X99804552Y-101758981D01*
X100090267Y-101758981D01*
X100185505Y-101711362D01*
X100233124Y-101663743D01*
X99280743Y-100758981D02*
X98661695Y-100758981D01*
X98995029Y-101139933D01*
X98852171Y-101139933D01*
X98756933Y-101187552D01*
X98709314Y-101235171D01*
X98661695Y-101330410D01*
X98661695Y-101568505D01*
X98709314Y-101663743D01*
X98756933Y-101711362D01*
X98852171Y-101758981D01*
X99137886Y-101758981D01*
X99233124Y-101711362D01*
X99280743Y-101663743D01*
X33580343Y-103979743D02*
X33627962Y-103932124D01*
X33675581Y-103789267D01*
X33675581Y-103694029D01*
X33627962Y-103551171D01*
X33532724Y-103455933D01*
X33437486Y-103408314D01*
X33247010Y-103360695D01*
X33104152Y-103360695D01*
X32913676Y-103408314D01*
X32818438Y-103455933D01*
X32723200Y-103551171D01*
X32675581Y-103694029D01*
X32675581Y-103789267D01*
X32723200Y-103932124D01*
X32770819Y-103979743D01*
X32675581Y-104313076D02*
X32675581Y-104932124D01*
X33056533Y-104598790D01*
X33056533Y-104741648D01*
X33104152Y-104836886D01*
X33151771Y-104884505D01*
X33247010Y-104932124D01*
X33485105Y-104932124D01*
X33580343Y-104884505D01*
X33627962Y-104836886D01*
X33675581Y-104741648D01*
X33675581Y-104455933D01*
X33627962Y-104360695D01*
X33580343Y-104313076D01*
X33008914Y-105789267D02*
X33675581Y-105789267D01*
X32627962Y-105551171D02*
X33342248Y-105313076D01*
X33342248Y-105932124D01*
X35485343Y-116070143D02*
X35532962Y-116022524D01*
X35580581Y-115879667D01*
X35580581Y-115784429D01*
X35532962Y-115641571D01*
X35437724Y-115546333D01*
X35342486Y-115498714D01*
X35152010Y-115451095D01*
X35009152Y-115451095D01*
X34818676Y-115498714D01*
X34723438Y-115546333D01*
X34628200Y-115641571D01*
X34580581Y-115784429D01*
X34580581Y-115879667D01*
X34628200Y-116022524D01*
X34675819Y-116070143D01*
X34580581Y-116403476D02*
X34580581Y-117022524D01*
X34961533Y-116689190D01*
X34961533Y-116832048D01*
X35009152Y-116927286D01*
X35056771Y-116974905D01*
X35152010Y-117022524D01*
X35390105Y-117022524D01*
X35485343Y-116974905D01*
X35532962Y-116927286D01*
X35580581Y-116832048D01*
X35580581Y-116546333D01*
X35532962Y-116451095D01*
X35485343Y-116403476D01*
X34580581Y-117927286D02*
X34580581Y-117451095D01*
X35056771Y-117403476D01*
X35009152Y-117451095D01*
X34961533Y-117546333D01*
X34961533Y-117784429D01*
X35009152Y-117879667D01*
X35056771Y-117927286D01*
X35152010Y-117974905D01*
X35390105Y-117974905D01*
X35485343Y-117927286D01*
X35532962Y-117879667D01*
X35580581Y-117784429D01*
X35580581Y-117546333D01*
X35532962Y-117451095D01*
X35485343Y-117403476D01*
X72035943Y-103776543D02*
X72083562Y-103728924D01*
X72131181Y-103586067D01*
X72131181Y-103490829D01*
X72083562Y-103347971D01*
X71988324Y-103252733D01*
X71893086Y-103205114D01*
X71702610Y-103157495D01*
X71559752Y-103157495D01*
X71369276Y-103205114D01*
X71274038Y-103252733D01*
X71178800Y-103347971D01*
X71131181Y-103490829D01*
X71131181Y-103586067D01*
X71178800Y-103728924D01*
X71226419Y-103776543D01*
X71131181Y-104109876D02*
X71131181Y-104728924D01*
X71512133Y-104395590D01*
X71512133Y-104538448D01*
X71559752Y-104633686D01*
X71607371Y-104681305D01*
X71702610Y-104728924D01*
X71940705Y-104728924D01*
X72035943Y-104681305D01*
X72083562Y-104633686D01*
X72131181Y-104538448D01*
X72131181Y-104252733D01*
X72083562Y-104157495D01*
X72035943Y-104109876D01*
X71131181Y-105586067D02*
X71131181Y-105395590D01*
X71178800Y-105300352D01*
X71226419Y-105252733D01*
X71369276Y-105157495D01*
X71559752Y-105109876D01*
X71940705Y-105109876D01*
X72035943Y-105157495D01*
X72083562Y-105205114D01*
X72131181Y-105300352D01*
X72131181Y-105490829D01*
X72083562Y-105586067D01*
X72035943Y-105633686D01*
X71940705Y-105681305D01*
X71702610Y-105681305D01*
X71607371Y-105633686D01*
X71559752Y-105586067D01*
X71512133Y-105490829D01*
X71512133Y-105300352D01*
X71559752Y-105205114D01*
X71607371Y-105157495D01*
X71702610Y-105109876D01*
X74836257Y-92482943D02*
X74883876Y-92530562D01*
X75026733Y-92578181D01*
X75121971Y-92578181D01*
X75264829Y-92530562D01*
X75360067Y-92435324D01*
X75407686Y-92340086D01*
X75455305Y-92149610D01*
X75455305Y-92006752D01*
X75407686Y-91816276D01*
X75360067Y-91721038D01*
X75264829Y-91625800D01*
X75121971Y-91578181D01*
X75026733Y-91578181D01*
X74883876Y-91625800D01*
X74836257Y-91673419D01*
X74502924Y-91578181D02*
X73883876Y-91578181D01*
X74217210Y-91959133D01*
X74074352Y-91959133D01*
X73979114Y-92006752D01*
X73931495Y-92054371D01*
X73883876Y-92149610D01*
X73883876Y-92387705D01*
X73931495Y-92482943D01*
X73979114Y-92530562D01*
X74074352Y-92578181D01*
X74360067Y-92578181D01*
X74455305Y-92530562D01*
X74502924Y-92482943D01*
X73550543Y-91578181D02*
X72883876Y-91578181D01*
X73312448Y-92578181D01*
X70823057Y-97512143D02*
X70870676Y-97559762D01*
X71013533Y-97607381D01*
X71108771Y-97607381D01*
X71251629Y-97559762D01*
X71346867Y-97464524D01*
X71394486Y-97369286D01*
X71442105Y-97178810D01*
X71442105Y-97035952D01*
X71394486Y-96845476D01*
X71346867Y-96750238D01*
X71251629Y-96655000D01*
X71108771Y-96607381D01*
X71013533Y-96607381D01*
X70870676Y-96655000D01*
X70823057Y-96702619D01*
X70489724Y-96607381D02*
X69870676Y-96607381D01*
X70204010Y-96988333D01*
X70061152Y-96988333D01*
X69965914Y-97035952D01*
X69918295Y-97083571D01*
X69870676Y-97178810D01*
X69870676Y-97416905D01*
X69918295Y-97512143D01*
X69965914Y-97559762D01*
X70061152Y-97607381D01*
X70346867Y-97607381D01*
X70442105Y-97559762D01*
X70489724Y-97512143D01*
X69299248Y-97035952D02*
X69394486Y-96988333D01*
X69442105Y-96940714D01*
X69489724Y-96845476D01*
X69489724Y-96797857D01*
X69442105Y-96702619D01*
X69394486Y-96655000D01*
X69299248Y-96607381D01*
X69108771Y-96607381D01*
X69013533Y-96655000D01*
X68965914Y-96702619D01*
X68918295Y-96797857D01*
X68918295Y-96845476D01*
X68965914Y-96940714D01*
X69013533Y-96988333D01*
X69108771Y-97035952D01*
X69299248Y-97035952D01*
X69394486Y-97083571D01*
X69442105Y-97131190D01*
X69489724Y-97226429D01*
X69489724Y-97416905D01*
X69442105Y-97512143D01*
X69394486Y-97559762D01*
X69299248Y-97607381D01*
X69108771Y-97607381D01*
X69013533Y-97559762D01*
X68965914Y-97512143D01*
X68918295Y-97416905D01*
X68918295Y-97226429D01*
X68965914Y-97131190D01*
X69013533Y-97083571D01*
X69108771Y-97035952D01*
X35515743Y-107815143D02*
X35563362Y-107767524D01*
X35610981Y-107624667D01*
X35610981Y-107529429D01*
X35563362Y-107386571D01*
X35468124Y-107291333D01*
X35372886Y-107243714D01*
X35182410Y-107196095D01*
X35039552Y-107196095D01*
X34849076Y-107243714D01*
X34753838Y-107291333D01*
X34658600Y-107386571D01*
X34610981Y-107529429D01*
X34610981Y-107624667D01*
X34658600Y-107767524D01*
X34706219Y-107815143D01*
X34610981Y-108148476D02*
X34610981Y-108767524D01*
X34991933Y-108434190D01*
X34991933Y-108577048D01*
X35039552Y-108672286D01*
X35087171Y-108719905D01*
X35182410Y-108767524D01*
X35420505Y-108767524D01*
X35515743Y-108719905D01*
X35563362Y-108672286D01*
X35610981Y-108577048D01*
X35610981Y-108291333D01*
X35563362Y-108196095D01*
X35515743Y-108148476D01*
X35610981Y-109243714D02*
X35610981Y-109434190D01*
X35563362Y-109529429D01*
X35515743Y-109577048D01*
X35372886Y-109672286D01*
X35182410Y-109719905D01*
X34801457Y-109719905D01*
X34706219Y-109672286D01*
X34658600Y-109624667D01*
X34610981Y-109529429D01*
X34610981Y-109338952D01*
X34658600Y-109243714D01*
X34706219Y-109196095D01*
X34801457Y-109148476D01*
X35039552Y-109148476D01*
X35134790Y-109196095D01*
X35182410Y-109243714D01*
X35230029Y-109338952D01*
X35230029Y-109529429D01*
X35182410Y-109624667D01*
X35134790Y-109672286D01*
X35039552Y-109719905D01*
X49633143Y-138803143D02*
X49680762Y-138755524D01*
X49728381Y-138612667D01*
X49728381Y-138517429D01*
X49680762Y-138374571D01*
X49585524Y-138279333D01*
X49490286Y-138231714D01*
X49299810Y-138184095D01*
X49156952Y-138184095D01*
X48966476Y-138231714D01*
X48871238Y-138279333D01*
X48776000Y-138374571D01*
X48728381Y-138517429D01*
X48728381Y-138612667D01*
X48776000Y-138755524D01*
X48823619Y-138803143D01*
X49061714Y-139660286D02*
X49728381Y-139660286D01*
X48680762Y-139422190D02*
X49395048Y-139184095D01*
X49395048Y-139803143D01*
X49728381Y-140707905D02*
X49728381Y-140136476D01*
X49728381Y-140422190D02*
X48728381Y-140422190D01*
X48871238Y-140326952D01*
X48966476Y-140231714D01*
X49014095Y-140136476D01*
X35713943Y-96258143D02*
X35761562Y-96210524D01*
X35809181Y-96067667D01*
X35809181Y-95972429D01*
X35761562Y-95829571D01*
X35666324Y-95734333D01*
X35571086Y-95686714D01*
X35380610Y-95639095D01*
X35237752Y-95639095D01*
X35047276Y-95686714D01*
X34952038Y-95734333D01*
X34856800Y-95829571D01*
X34809181Y-95972429D01*
X34809181Y-96067667D01*
X34856800Y-96210524D01*
X34904419Y-96258143D01*
X35142514Y-97115286D02*
X35809181Y-97115286D01*
X34761562Y-96877190D02*
X35475848Y-96639095D01*
X35475848Y-97258143D01*
X34904419Y-97591476D02*
X34856800Y-97639095D01*
X34809181Y-97734333D01*
X34809181Y-97972429D01*
X34856800Y-98067667D01*
X34904419Y-98115286D01*
X34999657Y-98162905D01*
X35094895Y-98162905D01*
X35237752Y-98115286D01*
X35809181Y-97543857D01*
X35809181Y-98162905D01*
X45759643Y-142168643D02*
X45807262Y-142121024D01*
X45854881Y-141978167D01*
X45854881Y-141882929D01*
X45807262Y-141740071D01*
X45712024Y-141644833D01*
X45616786Y-141597214D01*
X45426310Y-141549595D01*
X45283452Y-141549595D01*
X45092976Y-141597214D01*
X44997738Y-141644833D01*
X44902500Y-141740071D01*
X44854881Y-141882929D01*
X44854881Y-141978167D01*
X44902500Y-142121024D01*
X44950119Y-142168643D01*
X45188214Y-143025786D02*
X45854881Y-143025786D01*
X44807262Y-142787690D02*
X45521548Y-142549595D01*
X45521548Y-143168643D01*
X44854881Y-143454357D02*
X44854881Y-144073405D01*
X45235833Y-143740071D01*
X45235833Y-143882929D01*
X45283452Y-143978167D01*
X45331071Y-144025786D01*
X45426310Y-144073405D01*
X45664405Y-144073405D01*
X45759643Y-144025786D01*
X45807262Y-143978167D01*
X45854881Y-143882929D01*
X45854881Y-143597214D01*
X45807262Y-143501976D01*
X45759643Y-143454357D01*
X35515743Y-100093543D02*
X35563362Y-100045924D01*
X35610981Y-99903067D01*
X35610981Y-99807829D01*
X35563362Y-99664971D01*
X35468124Y-99569733D01*
X35372886Y-99522114D01*
X35182410Y-99474495D01*
X35039552Y-99474495D01*
X34849076Y-99522114D01*
X34753838Y-99569733D01*
X34658600Y-99664971D01*
X34610981Y-99807829D01*
X34610981Y-99903067D01*
X34658600Y-100045924D01*
X34706219Y-100093543D01*
X34944314Y-100950686D02*
X35610981Y-100950686D01*
X34563362Y-100712590D02*
X35277648Y-100474495D01*
X35277648Y-101093543D01*
X34610981Y-101379257D02*
X34610981Y-102045924D01*
X35610981Y-101617352D01*
X39315743Y-103903543D02*
X39363362Y-103855924D01*
X39410981Y-103713067D01*
X39410981Y-103617829D01*
X39363362Y-103474971D01*
X39268124Y-103379733D01*
X39172886Y-103332114D01*
X38982410Y-103284495D01*
X38839552Y-103284495D01*
X38649076Y-103332114D01*
X38553838Y-103379733D01*
X38458600Y-103474971D01*
X38410981Y-103617829D01*
X38410981Y-103713067D01*
X38458600Y-103855924D01*
X38506219Y-103903543D01*
X38410981Y-104808305D02*
X38410981Y-104332114D01*
X38887171Y-104284495D01*
X38839552Y-104332114D01*
X38791933Y-104427352D01*
X38791933Y-104665448D01*
X38839552Y-104760686D01*
X38887171Y-104808305D01*
X38982410Y-104855924D01*
X39220505Y-104855924D01*
X39315743Y-104808305D01*
X39363362Y-104760686D01*
X39410981Y-104665448D01*
X39410981Y-104427352D01*
X39363362Y-104332114D01*
X39315743Y-104284495D01*
X38410981Y-105474971D02*
X38410981Y-105570210D01*
X38458600Y-105665448D01*
X38506219Y-105713067D01*
X38601457Y-105760686D01*
X38791933Y-105808305D01*
X39030029Y-105808305D01*
X39220505Y-105760686D01*
X39315743Y-105713067D01*
X39363362Y-105665448D01*
X39410981Y-105570210D01*
X39410981Y-105474971D01*
X39363362Y-105379733D01*
X39315743Y-105332114D01*
X39220505Y-105284495D01*
X39030029Y-105236876D01*
X38791933Y-105236876D01*
X38601457Y-105284495D01*
X38506219Y-105332114D01*
X38458600Y-105379733D01*
X38410981Y-105474971D01*
X36317085Y-131116343D02*
X36364704Y-131163962D01*
X36507561Y-131211581D01*
X36602799Y-131211581D01*
X36745657Y-131163962D01*
X36840895Y-131068724D01*
X36888514Y-130973486D01*
X36936133Y-130783010D01*
X36936133Y-130640152D01*
X36888514Y-130449676D01*
X36840895Y-130354438D01*
X36745657Y-130259200D01*
X36602799Y-130211581D01*
X36507561Y-130211581D01*
X36364704Y-130259200D01*
X36317085Y-130306819D01*
X35698038Y-130211581D02*
X35507561Y-130211581D01*
X35412323Y-130259200D01*
X35317085Y-130354438D01*
X35269466Y-130544914D01*
X35269466Y-130878248D01*
X35317085Y-131068724D01*
X35412323Y-131163962D01*
X35507561Y-131211581D01*
X35698038Y-131211581D01*
X35793276Y-131163962D01*
X35888514Y-131068724D01*
X35936133Y-130878248D01*
X35936133Y-130544914D01*
X35888514Y-130354438D01*
X35793276Y-130259200D01*
X35698038Y-130211581D01*
X34840895Y-131211581D02*
X34840895Y-130211581D01*
X34269466Y-131211581D01*
X34269466Y-130211581D01*
X33269466Y-131211581D02*
X33840895Y-131211581D01*
X33555181Y-131211581D02*
X33555181Y-130211581D01*
X33650419Y-130354438D01*
X33745657Y-130449676D01*
X33840895Y-130497295D01*
X80964066Y-100599581D02*
X81440257Y-100599581D01*
X81440257Y-99599581D01*
X80106923Y-100599581D02*
X80678352Y-100599581D01*
X80392638Y-100599581D02*
X80392638Y-99599581D01*
X80487876Y-99742438D01*
X80583114Y-99837676D01*
X80678352Y-99885295D01*
X43759381Y-142263834D02*
X43283190Y-141930500D01*
X43759381Y-141692405D02*
X42759381Y-141692405D01*
X42759381Y-142073358D01*
X42807000Y-142168596D01*
X42854619Y-142216215D01*
X42949857Y-142263834D01*
X43092714Y-142263834D01*
X43187952Y-142216215D01*
X43235571Y-142168596D01*
X43283190Y-142073358D01*
X43283190Y-141692405D01*
X43759381Y-143216215D02*
X43759381Y-142644786D01*
X43759381Y-142930500D02*
X42759381Y-142930500D01*
X42902238Y-142835262D01*
X42997476Y-142740024D01*
X43045095Y-142644786D01*
X59856666Y-141137981D02*
X60190000Y-140661790D01*
X60428095Y-141137981D02*
X60428095Y-140137981D01*
X60047142Y-140137981D01*
X59951904Y-140185600D01*
X59904285Y-140233219D01*
X59856666Y-140328457D01*
X59856666Y-140471314D01*
X59904285Y-140566552D01*
X59951904Y-140614171D01*
X60047142Y-140661790D01*
X60428095Y-140661790D01*
X58951904Y-140137981D02*
X59428095Y-140137981D01*
X59475714Y-140614171D01*
X59428095Y-140566552D01*
X59332857Y-140518933D01*
X59094761Y-140518933D01*
X58999523Y-140566552D01*
X58951904Y-140614171D01*
X58904285Y-140709410D01*
X58904285Y-140947505D01*
X58951904Y-141042743D01*
X58999523Y-141090362D01*
X59094761Y-141137981D01*
X59332857Y-141137981D01*
X59428095Y-141090362D01*
X59475714Y-141042743D01*
X104825705Y-119391181D02*
X104825705Y-120200705D01*
X104778086Y-120295943D01*
X104730467Y-120343562D01*
X104635229Y-120391181D01*
X104444752Y-120391181D01*
X104349514Y-120343562D01*
X104301895Y-120295943D01*
X104254276Y-120200705D01*
X104254276Y-119391181D01*
X103254276Y-120391181D02*
X103825705Y-120391181D01*
X103539991Y-120391181D02*
X103539991Y-119391181D01*
X103635229Y-119534038D01*
X103730467Y-119629276D01*
X103825705Y-119676895D01*
X107289505Y-137577581D02*
X107289505Y-138387105D01*
X107241886Y-138482343D01*
X107194267Y-138529962D01*
X107099029Y-138577581D01*
X106908552Y-138577581D01*
X106813314Y-138529962D01*
X106765695Y-138482343D01*
X106718076Y-138387105D01*
X106718076Y-137577581D01*
X106289505Y-137672819D02*
X106241886Y-137625200D01*
X106146648Y-137577581D01*
X105908552Y-137577581D01*
X105813314Y-137625200D01*
X105765695Y-137672819D01*
X105718076Y-137768057D01*
X105718076Y-137863295D01*
X105765695Y-138006152D01*
X106337124Y-138577581D01*
X105718076Y-138577581D01*
M02*
