%TF.GenerationSoftware,KiCad,Pcbnew,7.0.7*%
%TF.CreationDate,2023-09-18T11:19:49+03:00*%
%TF.ProjectId,wasca,77617363-612e-46b6-9963-61645f706362,1.6*%
%TF.SameCoordinates,Original*%
%TF.FileFunction,Soldermask,Top*%
%TF.FilePolarity,Negative*%
%FSLAX46Y46*%
G04 Gerber Fmt 4.6, Leading zero omitted, Abs format (unit mm)*
G04 Created by KiCad (PCBNEW 7.0.7) date 2023-09-18 11:19:49*
%MOMM*%
%LPD*%
G01*
G04 APERTURE LIST*
G04 Aperture macros list*
%AMRoundRect*
0 Rectangle with rounded corners*
0 $1 Rounding radius*
0 $2 $3 $4 $5 $6 $7 $8 $9 X,Y pos of 4 corners*
0 Add a 4 corners polygon primitive as box body*
4,1,4,$2,$3,$4,$5,$6,$7,$8,$9,$2,$3,0*
0 Add four circle primitives for the rounded corners*
1,1,$1+$1,$2,$3*
1,1,$1+$1,$4,$5*
1,1,$1+$1,$6,$7*
1,1,$1+$1,$8,$9*
0 Add four rect primitives between the rounded corners*
20,1,$1+$1,$2,$3,$4,$5,0*
20,1,$1+$1,$4,$5,$6,$7,0*
20,1,$1+$1,$6,$7,$8,$9,0*
20,1,$1+$1,$8,$9,$2,$3,0*%
G04 Aperture macros list end*
%ADD10C,0.002540*%
%ADD11R,0.701040X7.000240*%
%ADD12R,0.701040X5.999480*%
%ADD13RoundRect,0.250000X-0.412500X-0.650000X0.412500X-0.650000X0.412500X0.650000X-0.412500X0.650000X0*%
%ADD14R,1.500000X2.000000*%
%ADD15R,3.800000X2.000000*%
%ADD16RoundRect,0.075000X0.075000X-0.662500X0.075000X0.662500X-0.075000X0.662500X-0.075000X-0.662500X0*%
%ADD17RoundRect,0.237500X0.237500X-0.300000X0.237500X0.300000X-0.237500X0.300000X-0.237500X-0.300000X0*%
%ADD18RoundRect,0.237500X-0.300000X-0.237500X0.300000X-0.237500X0.300000X0.237500X-0.300000X0.237500X0*%
%ADD19RoundRect,0.237500X0.300000X0.237500X-0.300000X0.237500X-0.300000X-0.237500X0.300000X-0.237500X0*%
%ADD20RoundRect,0.237500X-0.237500X0.300000X-0.237500X-0.300000X0.237500X-0.300000X0.237500X0.300000X0*%
%ADD21RoundRect,0.150000X-0.150000X0.512500X-0.150000X-0.512500X0.150000X-0.512500X0.150000X0.512500X0*%
%ADD22RoundRect,0.237500X0.237500X-0.250000X0.237500X0.250000X-0.237500X0.250000X-0.237500X-0.250000X0*%
%ADD23C,0.500000*%
%ADD24RoundRect,0.175000X-0.175000X-0.625000X0.175000X-0.625000X0.175000X0.625000X-0.175000X0.625000X0*%
%ADD25RoundRect,0.300000X-0.300000X-0.400000X0.300000X-0.400000X0.300000X0.400000X-0.300000X0.400000X0*%
%ADD26RoundRect,0.300000X-0.300000X-0.800000X0.300000X-0.800000X0.300000X0.800000X-0.300000X0.800000X0*%
%ADD27RoundRect,0.350000X-0.450000X0.350000X-0.450000X-0.350000X0.450000X-0.350000X0.450000X0.350000X0*%
%ADD28RoundRect,0.150000X0.587500X0.150000X-0.587500X0.150000X-0.587500X-0.150000X0.587500X-0.150000X0*%
%ADD29R,1.700000X1.700000*%
%ADD30O,1.700000X1.700000*%
%ADD31R,1.070000X1.800000*%
%ADD32O,1.070000X1.800000*%
%ADD33R,1.100000X2.000000*%
%ADD34R,1.560000X1.560000*%
%ADD35C,1.560000*%
%ADD36RoundRect,0.237500X-0.237500X0.250000X-0.237500X-0.250000X0.237500X-0.250000X0.237500X0.250000X0*%
%ADD37R,0.458000X1.510000*%
%ADD38C,1.100000*%
%ADD39C,1.600000*%
%ADD40R,1.000000X1.500000*%
%ADD41R,0.700000X1.500000*%
%ADD42R,1.500000X2.800000*%
G04 APERTURE END LIST*
%TO.C,VACHE1*%
D10*
X34133600Y-120872060D02*
X34319020Y-120925400D01*
X34397760Y-120999060D01*
X34440940Y-121176860D01*
X34334260Y-121308940D01*
X34085340Y-121390220D01*
X33818640Y-121408000D01*
X33478280Y-121380060D01*
X33282700Y-121293700D01*
X33262380Y-121273380D01*
X33183640Y-121098120D01*
X33262380Y-120966040D01*
X33485900Y-120884760D01*
X33818640Y-120856820D01*
X34133600Y-120872060D01*
G36*
X34133600Y-120872060D02*
G01*
X34319020Y-120925400D01*
X34397760Y-120999060D01*
X34440940Y-121176860D01*
X34334260Y-121308940D01*
X34085340Y-121390220D01*
X33818640Y-121408000D01*
X33478280Y-121380060D01*
X33282700Y-121293700D01*
X33262380Y-121273380D01*
X33183640Y-121098120D01*
X33262380Y-120966040D01*
X33485900Y-120884760D01*
X33818640Y-120856820D01*
X34133600Y-120872060D01*
G37*
X33572260Y-119972900D02*
X33828800Y-119985600D01*
X33983740Y-120018620D01*
X34070100Y-120071960D01*
X34113280Y-120130380D01*
X34181860Y-120313260D01*
X34151380Y-120435180D01*
X34006600Y-120511380D01*
X33727200Y-120552020D01*
X33318260Y-120562180D01*
X32891540Y-120549480D01*
X32591820Y-120516460D01*
X32441960Y-120460580D01*
X32439420Y-120460580D01*
X32358140Y-120298020D01*
X32337820Y-120163400D01*
X32345440Y-120074500D01*
X32386080Y-120018620D01*
X32495300Y-119985600D01*
X32701040Y-119972900D01*
X33033780Y-119967820D01*
X33181100Y-119967820D01*
X33572260Y-119972900D01*
G36*
X33572260Y-119972900D02*
G01*
X33828800Y-119985600D01*
X33983740Y-120018620D01*
X34070100Y-120071960D01*
X34113280Y-120130380D01*
X34181860Y-120313260D01*
X34151380Y-120435180D01*
X34006600Y-120511380D01*
X33727200Y-120552020D01*
X33318260Y-120562180D01*
X32891540Y-120549480D01*
X32591820Y-120516460D01*
X32441960Y-120460580D01*
X32439420Y-120460580D01*
X32358140Y-120298020D01*
X32337820Y-120163400D01*
X32345440Y-120074500D01*
X32386080Y-120018620D01*
X32495300Y-119985600D01*
X32701040Y-119972900D01*
X33033780Y-119967820D01*
X33181100Y-119967820D01*
X33572260Y-119972900D01*
G37*
X30542040Y-120077040D02*
X30559820Y-120097360D01*
X30732540Y-120183720D01*
X30834140Y-120173560D01*
X30986540Y-120181180D01*
X31182120Y-120308180D01*
X31329440Y-120442800D01*
X31530100Y-120661240D01*
X31629160Y-120846660D01*
X31659640Y-121067640D01*
X31659640Y-121123520D01*
X31636780Y-121377520D01*
X31547880Y-121542620D01*
X31413260Y-121656920D01*
X31187200Y-121794080D01*
X31037340Y-121814400D01*
X30925580Y-121710260D01*
X30892560Y-121654380D01*
X30798580Y-121476580D01*
X30610620Y-121654380D01*
X30427740Y-121789000D01*
X30260100Y-121809320D01*
X30067060Y-121705180D01*
X29861320Y-121529920D01*
X29663200Y-121324180D01*
X29569220Y-121141300D01*
X29543820Y-120907620D01*
X29543820Y-120872060D01*
X29569220Y-120605360D01*
X29670820Y-120402160D01*
X29823220Y-120239600D01*
X30102620Y-120031320D01*
X30346460Y-119975440D01*
X30542040Y-120077040D01*
G36*
X30542040Y-120077040D02*
G01*
X30559820Y-120097360D01*
X30732540Y-120183720D01*
X30834140Y-120173560D01*
X30986540Y-120181180D01*
X31182120Y-120308180D01*
X31329440Y-120442800D01*
X31530100Y-120661240D01*
X31629160Y-120846660D01*
X31659640Y-121067640D01*
X31659640Y-121123520D01*
X31636780Y-121377520D01*
X31547880Y-121542620D01*
X31413260Y-121656920D01*
X31187200Y-121794080D01*
X31037340Y-121814400D01*
X30925580Y-121710260D01*
X30892560Y-121654380D01*
X30798580Y-121476580D01*
X30610620Y-121654380D01*
X30427740Y-121789000D01*
X30260100Y-121809320D01*
X30067060Y-121705180D01*
X29861320Y-121529920D01*
X29663200Y-121324180D01*
X29569220Y-121141300D01*
X29543820Y-120907620D01*
X29543820Y-120872060D01*
X29569220Y-120605360D01*
X29670820Y-120402160D01*
X29823220Y-120239600D01*
X30102620Y-120031320D01*
X30346460Y-119975440D01*
X30542040Y-120077040D01*
G37*
%TD*%
D11*
%TO.C,CN1*%
X40855900Y-153779220D03*
X41854120Y-153779220D03*
D12*
X42855140Y-153280100D03*
X43855640Y-153279220D03*
X44856400Y-153279220D03*
X45854620Y-153279220D03*
D11*
X46855140Y-153780100D03*
X47856140Y-153779220D03*
D12*
X48854360Y-153279220D03*
X49855120Y-153279220D03*
X50855880Y-153279220D03*
X51854100Y-153279220D03*
D11*
X52854860Y-153779220D03*
D12*
X53855620Y-153279220D03*
X54856380Y-153279220D03*
X55854600Y-153279220D03*
X56855360Y-153279220D03*
D11*
X57856120Y-153779220D03*
D12*
X58854340Y-153279220D03*
X59855100Y-153279220D03*
X60855860Y-153279220D03*
X61854080Y-153279220D03*
D11*
X62854840Y-153779220D03*
D12*
X63855600Y-153279220D03*
X64856360Y-153279220D03*
X65854580Y-153279220D03*
D11*
X66855340Y-153779220D03*
D12*
X67856100Y-153279220D03*
D11*
X68854320Y-153779220D03*
D12*
X69855080Y-153279220D03*
X70855840Y-153279220D03*
X71854060Y-153279220D03*
X72854820Y-153279220D03*
X73855580Y-153279220D03*
X74856340Y-153279220D03*
D11*
X75854560Y-153779220D03*
D12*
X83855560Y-153279220D03*
X84856320Y-153279220D03*
X85854540Y-153279220D03*
X86855300Y-153279220D03*
D11*
X87856060Y-153779220D03*
D12*
X88854280Y-153279220D03*
X89855040Y-153279220D03*
X90855800Y-153279220D03*
X91854020Y-153279220D03*
D11*
X92854780Y-153779220D03*
D12*
X93855540Y-153279220D03*
X94856300Y-153279220D03*
X95854520Y-153279220D03*
X96855280Y-153279220D03*
X97856040Y-153279220D03*
X98854260Y-153279220D03*
X99855020Y-153279220D03*
D11*
X100855780Y-153779220D03*
D12*
X101854000Y-153279220D03*
X102854760Y-153279220D03*
X103855520Y-153279220D03*
X104856280Y-153279220D03*
D11*
X105854500Y-153779220D03*
D12*
X106855260Y-153279220D03*
X107856020Y-153279220D03*
X108854240Y-153279220D03*
X109855000Y-153279220D03*
D11*
X110855760Y-153779220D03*
X111853980Y-153779220D03*
D12*
X112854740Y-153279220D03*
D11*
X113855500Y-153779220D03*
%TD*%
D13*
%TO.C,C24*%
X119119500Y-124460000D03*
X122244500Y-124460000D03*
%TD*%
D14*
%TO.C,U4*%
X120918000Y-128828000D03*
X118618000Y-128828000D03*
D15*
X118618000Y-135128000D03*
D14*
X116318000Y-128828000D03*
%TD*%
D16*
%TO.C,U5*%
X95977000Y-139983500D03*
X96477000Y-139983500D03*
X96977000Y-139983500D03*
X97477000Y-139983500D03*
X97977000Y-139983500D03*
X98477000Y-139983500D03*
X98977000Y-139983500D03*
X99477000Y-139983500D03*
X99977000Y-139983500D03*
X100477000Y-139983500D03*
X100977000Y-139983500D03*
X101477000Y-139983500D03*
X101977000Y-139983500D03*
X102477000Y-139983500D03*
X102977000Y-139983500D03*
X103477000Y-139983500D03*
X103977000Y-139983500D03*
X104477000Y-139983500D03*
X104977000Y-139983500D03*
X105477000Y-139983500D03*
X105977000Y-139983500D03*
X106477000Y-139983500D03*
X106977000Y-139983500D03*
X107477000Y-139983500D03*
X107477000Y-132558500D03*
X106977000Y-132558500D03*
X106477000Y-132558500D03*
X105977000Y-132558500D03*
X105477000Y-132558500D03*
X104977000Y-132558500D03*
X104477000Y-132558500D03*
X103977000Y-132558500D03*
X103477000Y-132558500D03*
X102977000Y-132558500D03*
X102477000Y-132558500D03*
X101977000Y-132558500D03*
X101477000Y-132558500D03*
X100977000Y-132558500D03*
X100477000Y-132558500D03*
X99977000Y-132558500D03*
X99477000Y-132558500D03*
X98977000Y-132558500D03*
X98477000Y-132558500D03*
X97977000Y-132558500D03*
X97477000Y-132558500D03*
X96977000Y-132558500D03*
X96477000Y-132558500D03*
X95977000Y-132558500D03*
%TD*%
D17*
%TO.C,C23*%
X113919000Y-125576500D03*
X113919000Y-123851500D03*
%TD*%
D18*
%TO.C,C54*%
X119646499Y-109474000D03*
X121371499Y-109474000D03*
%TD*%
D17*
%TO.C,C52*%
X111650000Y-107125000D03*
X111650000Y-105400000D03*
%TD*%
D18*
%TO.C,C53*%
X119709999Y-111379000D03*
X121434999Y-111379000D03*
%TD*%
D17*
%TO.C,C25*%
X109855000Y-134339500D03*
X109855000Y-132614500D03*
%TD*%
D19*
%TO.C,C3*%
X40119500Y-138430000D03*
X38394500Y-138430000D03*
%TD*%
%TO.C,C17*%
X113017500Y-139700000D03*
X111292500Y-139700000D03*
%TD*%
D20*
%TO.C,C26*%
X93472000Y-137680500D03*
X93472000Y-139405500D03*
%TD*%
D18*
%TO.C,C42*%
X90837500Y-130775000D03*
X92562500Y-130775000D03*
%TD*%
D21*
%TO.C,U8*%
X88650000Y-129862500D03*
X87700000Y-129862500D03*
X86750000Y-129862500D03*
X86750000Y-132137500D03*
X87700000Y-132137500D03*
X88650000Y-132137500D03*
%TD*%
%TO.C,U11*%
X46604000Y-136106500D03*
X45654000Y-136106500D03*
X44704000Y-136106500D03*
X44704000Y-138381500D03*
X45654000Y-138381500D03*
X46604000Y-138381500D03*
%TD*%
D18*
%TO.C,C48*%
X46621500Y-134112000D03*
X48346500Y-134112000D03*
%TD*%
D19*
%TO.C,C39*%
X91225000Y-102500000D03*
X89500000Y-102500000D03*
%TD*%
D20*
%TO.C,C55*%
X31150000Y-108962500D03*
X31150000Y-110687500D03*
%TD*%
D18*
%TO.C,C38*%
X119775000Y-113450000D03*
X121500000Y-113450000D03*
%TD*%
D22*
%TO.C,R8*%
X100300000Y-104025000D03*
X100300000Y-102200000D03*
%TD*%
%TO.C,R9*%
X98600000Y-104100000D03*
X98600000Y-102275000D03*
%TD*%
%TO.C,R15*%
X87850000Y-106100000D03*
X87850000Y-104275000D03*
%TD*%
%TO.C,R17*%
X83825000Y-106000000D03*
X83825000Y-104175000D03*
%TD*%
D23*
%TO.C,CN2*%
X95980000Y-85500000D03*
X88000000Y-85500000D03*
D24*
X88850000Y-96000000D03*
X89950000Y-96000000D03*
X91050000Y-96000000D03*
X92150000Y-96000000D03*
X93250000Y-96000000D03*
X94350000Y-96000000D03*
X95450000Y-96000000D03*
X96550000Y-96000000D03*
X97650000Y-96000000D03*
D25*
X98800000Y-95500000D03*
D26*
X98800000Y-85900000D03*
X83300000Y-85900000D03*
D27*
X84200000Y-95500000D03*
%TD*%
D28*
%TO.C,D4*%
X116380500Y-111376500D03*
X116380500Y-109476500D03*
X114505500Y-110426500D03*
%TD*%
D29*
%TO.C,CN3*%
X118237000Y-118173500D03*
D30*
X118237000Y-120713500D03*
X115697000Y-118173500D03*
X115697000Y-120713500D03*
%TD*%
D31*
%TO.C,D1*%
X64800000Y-85150000D03*
D32*
X66070000Y-85150000D03*
X67340000Y-85150000D03*
X68610000Y-85150000D03*
%TD*%
D33*
%TO.C,D2*%
X68500000Y-82800000D03*
X66800000Y-82800000D03*
X65100000Y-82800000D03*
X65100000Y-87600000D03*
X66800000Y-87600000D03*
X68500000Y-87600000D03*
%TD*%
D17*
%TO.C,C49*%
X48641000Y-138516500D03*
X48641000Y-136791500D03*
%TD*%
D18*
%TO.C,C43*%
X91312499Y-132800000D03*
X93037499Y-132800000D03*
%TD*%
D22*
%TO.C,R16*%
X85675000Y-106025000D03*
X85675000Y-104200000D03*
%TD*%
D34*
%TO.C,U13*%
X29400000Y-101740000D03*
D35*
X29400000Y-99200000D03*
X29400000Y-96660000D03*
X29400000Y-94120000D03*
X29400000Y-91580000D03*
X29400000Y-89040000D03*
X29400000Y-86500000D03*
X29400000Y-83960000D03*
%TD*%
D36*
%TO.C,R21*%
X44890000Y-131014999D03*
X44890000Y-132839999D03*
%TD*%
D16*
%TO.C,U2*%
X60950000Y-134312500D03*
X61450000Y-134312500D03*
X61950000Y-134312500D03*
X62450000Y-134312500D03*
X62950000Y-134312500D03*
X63450000Y-134312500D03*
X63950000Y-134312500D03*
X64450000Y-134312500D03*
X64950000Y-134312500D03*
X65450000Y-134312500D03*
X65950000Y-134312500D03*
X66450000Y-134312500D03*
X66950000Y-134312500D03*
X67450000Y-134312500D03*
X67950000Y-134312500D03*
X68450000Y-134312500D03*
X68950000Y-134312500D03*
X69450000Y-134312500D03*
X69950000Y-134312500D03*
X70450000Y-134312500D03*
X70950000Y-134312500D03*
X71450000Y-134312500D03*
X71950000Y-134312500D03*
X72450000Y-134312500D03*
X72450000Y-126887500D03*
X71950000Y-126887500D03*
X71450000Y-126887500D03*
X70950000Y-126887500D03*
X70450000Y-126887500D03*
X69950000Y-126887500D03*
X69450000Y-126887500D03*
X68950000Y-126887500D03*
X68450000Y-126887500D03*
X67950000Y-126887500D03*
X67450000Y-126887500D03*
X66950000Y-126887500D03*
X66450000Y-126887500D03*
X65950000Y-126887500D03*
X65450000Y-126887500D03*
X64950000Y-126887500D03*
X64450000Y-126887500D03*
X63950000Y-126887500D03*
X63450000Y-126887500D03*
X62950000Y-126887500D03*
X62450000Y-126887500D03*
X61950000Y-126887500D03*
X61450000Y-126887500D03*
X60950000Y-126887500D03*
%TD*%
D22*
%TO.C,R5*%
X112625000Y-112212500D03*
X112625000Y-110387500D03*
%TD*%
D19*
%TO.C,C5*%
X49875000Y-103425000D03*
X48150000Y-103425000D03*
%TD*%
D18*
%TO.C,C4*%
X73687500Y-106700000D03*
X75412500Y-106700000D03*
%TD*%
D37*
%TO.C,U3*%
X69500000Y-107000000D03*
X68700000Y-107000000D03*
X67900000Y-107000000D03*
X67100000Y-107000000D03*
X66300000Y-107000000D03*
X65500000Y-107000000D03*
X64700000Y-107000000D03*
X63900000Y-107000000D03*
X63100000Y-107000000D03*
X62300000Y-107000000D03*
X61500000Y-107000000D03*
X60700000Y-107000000D03*
X59900000Y-107000000D03*
X59100000Y-107000000D03*
X58300000Y-107000000D03*
X57500000Y-107000000D03*
X56700000Y-107000000D03*
X55900000Y-107000000D03*
X55100000Y-107000000D03*
X54300000Y-107000000D03*
X53500000Y-107000000D03*
X52700000Y-107000000D03*
X51900000Y-107000000D03*
X51100000Y-107000000D03*
X50300000Y-107000000D03*
X49500000Y-107000000D03*
X48700000Y-107000000D03*
X48700000Y-118500000D03*
X49500000Y-118500000D03*
X50300000Y-118500000D03*
X51100000Y-118500000D03*
X51900000Y-118500000D03*
X52700000Y-118500000D03*
X53500000Y-118500000D03*
X54300000Y-118500000D03*
X55100000Y-118500000D03*
X55900000Y-118500000D03*
X56700000Y-118500000D03*
X57500000Y-118500000D03*
X58300000Y-118500000D03*
X59100000Y-118500000D03*
X59900000Y-118500000D03*
X60700000Y-118500000D03*
X61500000Y-118500000D03*
X62300000Y-118500000D03*
X63100000Y-118500000D03*
X63900000Y-118500000D03*
X64700000Y-118500000D03*
X65500000Y-118500000D03*
X66300000Y-118500000D03*
X67100000Y-118500000D03*
X67900000Y-118500000D03*
X68700000Y-118500000D03*
X69500000Y-118500000D03*
%TD*%
D29*
%TO.C,CN6*%
X30275000Y-131440000D03*
D30*
X30275000Y-128900000D03*
%TD*%
D38*
%TO.C,CN5*%
X102050000Y-96600000D03*
D39*
X81050000Y-96600000D03*
D40*
X83675000Y-99400000D03*
X86175000Y-99400000D03*
X88675000Y-99400000D03*
X91175000Y-99400000D03*
X93675000Y-99400000D03*
X96175000Y-99400000D03*
X98600000Y-99400000D03*
X100300000Y-99400000D03*
X81175000Y-99400000D03*
D41*
X101600000Y-99400000D03*
D42*
X104200000Y-97600000D03*
X79100000Y-97600000D03*
X76900000Y-83100000D03*
X104200000Y-83100000D03*
D41*
X102800000Y-99400000D03*
%TD*%
D22*
%TO.C,R4*%
X112525000Y-115712500D03*
X112525000Y-113887500D03*
%TD*%
G36*
X114792121Y-150050182D02*
G01*
X114838614Y-150103838D01*
X114850000Y-150156180D01*
X114850000Y-158154100D01*
X114829998Y-158222221D01*
X114776342Y-158268714D01*
X114724000Y-158280100D01*
X82983340Y-158280100D01*
X82915219Y-158260098D01*
X82868726Y-158206442D01*
X82857340Y-158154100D01*
X82857340Y-150156180D01*
X82877342Y-150088059D01*
X82930998Y-150041566D01*
X82983340Y-150030180D01*
X114724000Y-150030180D01*
X114792121Y-150050182D01*
G37*
G36*
X76792121Y-150050182D02*
G01*
X76838614Y-150103838D01*
X76850000Y-150156180D01*
X76850000Y-158154100D01*
X76829998Y-158222221D01*
X76776342Y-158268714D01*
X76724000Y-158280100D01*
X39983680Y-158280100D01*
X39915559Y-158260098D01*
X39869066Y-158206442D01*
X39857680Y-158154100D01*
X39857680Y-150156180D01*
X39877682Y-150088059D01*
X39931338Y-150041566D01*
X39983680Y-150030180D01*
X76724000Y-150030180D01*
X76792121Y-150050182D01*
G37*
M02*
