G04 #@! TF.FileFunction,*
%FSLAX46Y46*%
G04 Gerber Fmt 4.6, Leading zero omitted, Abs format (unit mm)*
G04 Created by KiCad (PCBNEW (after 2015-mar-04 BZR unknown)-product) date 06.06.2015 1:17:50*
%MOMM*%
G01*
G04 APERTURE LIST*
%ADD10C,0.150000*%
%ADD11C,0.381000*%
G04 APERTURE END LIST*
D10*
D11*
X126857760Y-109781340D02*
X125356620Y-109781340D01*
X126857760Y-88280240D02*
X126857760Y-109781340D01*
X26857960Y-88280240D02*
X126857760Y-88280240D01*
X126857760Y-136281160D02*
X122356880Y-136281160D01*
X125356620Y-117779800D02*
X126857760Y-117779800D01*
X126857760Y-136281160D02*
X126857760Y-117779800D01*
X26857960Y-109781340D02*
X28356560Y-109781340D01*
X26857960Y-109781340D02*
X26857960Y-88280240D01*
X26857960Y-117779800D02*
X28356560Y-117779800D01*
X26857960Y-136281160D02*
X32357060Y-136281160D01*
X26857960Y-136281160D02*
X26857960Y-117779800D01*
X39855140Y-146281140D02*
X39855140Y-158280100D01*
X32354520Y-146281140D02*
X39855140Y-146281140D01*
X32354520Y-136281160D02*
X32354520Y-146281140D01*
X28354020Y-109781340D02*
X28354020Y-117779800D01*
X125354080Y-117779800D02*
X125354080Y-109781340D01*
X122354340Y-146281140D02*
X122354340Y-136281160D01*
X114853720Y-146281140D02*
X122354340Y-146281140D01*
X114853720Y-158280100D02*
X114853720Y-146281140D01*
X82854800Y-158280100D02*
X114853720Y-158280100D01*
X82854800Y-146281140D02*
X82854800Y-158280100D01*
X76855320Y-146281140D02*
X82854800Y-146281140D01*
X76855320Y-158280100D02*
X76855320Y-146281140D01*
X39855140Y-158280100D02*
X76855320Y-158280100D01*
M02*
