%TF.GenerationSoftware,KiCad,Pcbnew,7.0.7*%
%TF.CreationDate,2023-09-18T11:19:49+03:00*%
%TF.ProjectId,wasca,77617363-612e-46b6-9963-61645f706362,1.6*%
%TF.SameCoordinates,Original*%
%TF.FileFunction,Soldermask,Bot*%
%TF.FilePolarity,Negative*%
%FSLAX46Y46*%
G04 Gerber Fmt 4.6, Leading zero omitted, Abs format (unit mm)*
G04 Created by KiCad (PCBNEW 7.0.7) date 2023-09-18 11:19:49*
%MOMM*%
%LPD*%
G01*
G04 APERTURE LIST*
G04 Aperture macros list*
%AMRoundRect*
0 Rectangle with rounded corners*
0 $1 Rounding radius*
0 $2 $3 $4 $5 $6 $7 $8 $9 X,Y pos of 4 corners*
0 Add a 4 corners polygon primitive as box body*
4,1,4,$2,$3,$4,$5,$6,$7,$8,$9,$2,$3,0*
0 Add four circle primitives for the rounded corners*
1,1,$1+$1,$2,$3*
1,1,$1+$1,$4,$5*
1,1,$1+$1,$6,$7*
1,1,$1+$1,$8,$9*
0 Add four rect primitives between the rounded corners*
20,1,$1+$1,$2,$3,$4,$5,0*
20,1,$1+$1,$4,$5,$6,$7,0*
20,1,$1+$1,$6,$7,$8,$9,0*
20,1,$1+$1,$8,$9,$2,$3,0*%
G04 Aperture macros list end*
%ADD10R,0.701040X7.000240*%
%ADD11R,0.701040X5.999480*%
%ADD12C,0.500000*%
%ADD13R,1.700000X1.700000*%
%ADD14O,1.700000X1.700000*%
%ADD15R,1.070000X1.800000*%
%ADD16O,1.070000X1.800000*%
%ADD17R,1.560000X1.560000*%
%ADD18C,1.560000*%
%ADD19C,1.100000*%
%ADD20C,1.600000*%
%ADD21RoundRect,0.237500X0.300000X0.237500X-0.300000X0.237500X-0.300000X-0.237500X0.300000X-0.237500X0*%
%ADD22RoundRect,0.237500X0.237500X-0.250000X0.237500X0.250000X-0.237500X0.250000X-0.237500X-0.250000X0*%
%ADD23RoundRect,0.237500X0.237500X-0.300000X0.237500X0.300000X-0.237500X0.300000X-0.237500X-0.300000X0*%
%ADD24RoundRect,0.150000X-0.150000X0.512500X-0.150000X-0.512500X0.150000X-0.512500X0.150000X0.512500X0*%
%ADD25RoundRect,0.237500X-0.300000X-0.237500X0.300000X-0.237500X0.300000X0.237500X-0.300000X0.237500X0*%
%ADD26RoundRect,0.075000X0.075000X-0.662500X0.075000X0.662500X-0.075000X0.662500X-0.075000X-0.662500X0*%
%ADD27R,4.500000X4.600000*%
%ADD28R,0.350000X2.000000*%
%ADD29C,0.614000*%
G04 APERTURE END LIST*
D10*
%TO.C,CN1*%
X40855900Y-153779220D03*
X41854120Y-153779220D03*
D11*
X42855140Y-153280100D03*
X43855140Y-153280100D03*
X44856400Y-153279220D03*
X45854620Y-153279220D03*
X46855380Y-153279220D03*
D10*
X47856140Y-153779220D03*
D11*
X48854360Y-153279220D03*
X49855120Y-153279220D03*
X50855880Y-153279220D03*
X51854100Y-153279220D03*
D10*
X52854860Y-153779220D03*
D11*
X53855620Y-153279220D03*
X54856380Y-153279220D03*
X55854600Y-153279220D03*
X56855360Y-153279220D03*
D10*
X57856120Y-153779220D03*
D11*
X58854340Y-153279220D03*
X59855100Y-153279220D03*
X60855860Y-153279220D03*
X61854080Y-153279220D03*
D10*
X62854840Y-153779220D03*
D11*
X63855600Y-153279220D03*
X64856360Y-153279220D03*
X65854580Y-153279220D03*
D10*
X66855340Y-153779220D03*
D11*
X67856100Y-153279220D03*
D10*
X68854320Y-153779220D03*
D11*
X69855080Y-153279220D03*
X70855840Y-153279220D03*
X71854060Y-153279220D03*
X72854820Y-153279220D03*
X73855580Y-153279220D03*
X74856340Y-153279220D03*
D10*
X75854560Y-153779220D03*
D11*
X83855560Y-153279220D03*
X84856320Y-153279220D03*
X85854540Y-153279220D03*
X86855300Y-153279220D03*
D10*
X87856060Y-153779220D03*
D11*
X88854280Y-153279220D03*
X89855040Y-153279220D03*
X90855800Y-153279220D03*
X91854020Y-153279220D03*
D10*
X92854780Y-153779220D03*
D11*
X93855540Y-153279220D03*
X94856300Y-153279220D03*
X95854520Y-153279220D03*
X96855280Y-153279220D03*
X97856040Y-153279220D03*
X98854260Y-153279220D03*
X99855020Y-153279220D03*
D10*
X100855780Y-153779220D03*
D11*
X101854000Y-153279220D03*
X102854760Y-153279220D03*
X103855520Y-153279220D03*
X104856280Y-153279220D03*
D10*
X105854500Y-153779220D03*
D11*
X106855260Y-153279220D03*
X107856020Y-153279220D03*
X108854240Y-153279220D03*
X109855000Y-153279220D03*
D10*
X110855760Y-153779220D03*
X111853980Y-153779220D03*
D11*
X112854740Y-153279220D03*
D10*
X113855500Y-153779220D03*
%TD*%
D12*
%TO.C,CN2*%
X95980000Y-85500000D03*
X88000000Y-85500000D03*
%TD*%
D13*
%TO.C,CN3*%
X118237000Y-118173500D03*
D14*
X118237000Y-120713500D03*
X115697000Y-118173500D03*
X115697000Y-120713500D03*
%TD*%
D15*
%TO.C,D1*%
X64800000Y-85150000D03*
D16*
X66070000Y-85150000D03*
X67340000Y-85150000D03*
X68610000Y-85150000D03*
%TD*%
D17*
%TO.C,U13*%
X29400000Y-101740000D03*
D18*
X29400000Y-99200000D03*
X29400000Y-96660000D03*
X29400000Y-94120000D03*
X29400000Y-91580000D03*
X29400000Y-89040000D03*
X29400000Y-86500000D03*
X29400000Y-83960000D03*
%TD*%
D13*
%TO.C,CN6*%
X30275000Y-131440000D03*
D14*
X30275000Y-128900000D03*
%TD*%
D19*
%TO.C,CN5*%
X102050000Y-96600000D03*
D20*
X81050000Y-96600000D03*
%TD*%
D21*
%TO.C,C22*%
X63937500Y-131250000D03*
X62212500Y-131250000D03*
%TD*%
D22*
%TO.C,R11*%
X66900000Y-90600000D03*
X66900000Y-88775000D03*
%TD*%
D21*
%TO.C,C2*%
X75712500Y-137100000D03*
X73987500Y-137100000D03*
%TD*%
D23*
%TO.C,C1*%
X92600000Y-135337500D03*
X92600000Y-133612500D03*
%TD*%
D24*
%TO.C,U9*%
X44899500Y-135938500D03*
X45849500Y-135938500D03*
X46799500Y-135938500D03*
X46799500Y-138213500D03*
X45849500Y-138213500D03*
X44899500Y-138213500D03*
%TD*%
%TO.C,U12*%
X54041000Y-135959000D03*
X54991000Y-135959000D03*
X55941000Y-135959000D03*
X55941000Y-138234000D03*
X54991000Y-138234000D03*
X54041000Y-138234000D03*
%TD*%
D23*
%TO.C,C50*%
X54038500Y-133944500D03*
X54038500Y-132219500D03*
%TD*%
%TO.C,C46*%
X49466500Y-134198500D03*
X49466500Y-132473500D03*
%TD*%
%TO.C,C44*%
X44831000Y-134008000D03*
X44831000Y-132283000D03*
%TD*%
D21*
%TO.C,C51*%
X48184001Y-140525500D03*
X46459001Y-140525500D03*
%TD*%
%TO.C,C47*%
X53073500Y-140398500D03*
X51348500Y-140398500D03*
%TD*%
%TO.C,C45*%
X43739000Y-140398500D03*
X42014000Y-140398500D03*
%TD*%
D24*
%TO.C,U10*%
X49469000Y-135959000D03*
X50419000Y-135959000D03*
X51369000Y-135959000D03*
X51369000Y-138234000D03*
X50419000Y-138234000D03*
X49469000Y-138234000D03*
%TD*%
D25*
%TO.C,C21*%
X68462500Y-131125000D03*
X70187500Y-131125000D03*
%TD*%
D22*
%TO.C,R10*%
X68850000Y-90500000D03*
X68850000Y-88675000D03*
%TD*%
D26*
%TO.C,U1*%
X90500000Y-138412500D03*
X90000000Y-138412500D03*
X89500000Y-138412500D03*
X89000000Y-138412500D03*
X88500000Y-138412500D03*
X88000000Y-138412500D03*
X87500000Y-138412500D03*
X87000000Y-138412500D03*
X86500000Y-138412500D03*
X86000000Y-138412500D03*
X85500000Y-138412500D03*
X85000000Y-138412500D03*
X84500000Y-138412500D03*
X84000000Y-138412500D03*
X83500000Y-138412500D03*
X83000000Y-138412500D03*
X82500000Y-138412500D03*
X82000000Y-138412500D03*
X81500000Y-138412500D03*
X81000000Y-138412500D03*
X80500000Y-138412500D03*
X80000000Y-138412500D03*
X79500000Y-138412500D03*
X79000000Y-138412500D03*
X79000000Y-130987500D03*
X79500000Y-130987500D03*
X80000000Y-130987500D03*
X80500000Y-130987500D03*
X81000000Y-130987500D03*
X81500000Y-130987500D03*
X82000000Y-130987500D03*
X82500000Y-130987500D03*
X83000000Y-130987500D03*
X83500000Y-130987500D03*
X84000000Y-130987500D03*
X84500000Y-130987500D03*
X85000000Y-130987500D03*
X85500000Y-130987500D03*
X86000000Y-130987500D03*
X86500000Y-130987500D03*
X87000000Y-130987500D03*
X87500000Y-130987500D03*
X88000000Y-130987500D03*
X88500000Y-130987500D03*
X89000000Y-130987500D03*
X89500000Y-130987500D03*
X90000000Y-130987500D03*
X90500000Y-130987500D03*
%TD*%
D27*
%TO.C,CN4*%
X39459000Y-110682000D03*
X104559000Y-110682000D03*
D28*
X103659000Y-126782000D03*
X103359000Y-118582001D03*
X103059000Y-126782000D03*
X102759000Y-118582001D03*
X102459000Y-126782000D03*
X102159000Y-118582001D03*
X101859000Y-126782000D03*
X101559000Y-118582001D03*
X101259000Y-126782000D03*
X100959000Y-118582001D03*
X100659000Y-126782000D03*
X100359000Y-118582001D03*
X100059000Y-126782000D03*
X99759000Y-118582001D03*
X99459000Y-126782000D03*
X99159000Y-118582001D03*
X98859000Y-126782000D03*
X98559000Y-118582001D03*
X98259000Y-126782000D03*
X97959000Y-118582001D03*
X97659000Y-126782000D03*
X97359000Y-118582001D03*
X97059000Y-126782000D03*
X96759000Y-118582001D03*
X96459000Y-126782000D03*
X96159000Y-118582001D03*
X95859000Y-126782000D03*
X95559000Y-118582001D03*
X95259000Y-126782000D03*
X94959000Y-118582001D03*
X94659000Y-126782000D03*
X94359000Y-118582001D03*
X94059000Y-126782000D03*
X93759000Y-118582001D03*
X93459000Y-126782000D03*
X93159000Y-118582001D03*
X92859000Y-126782000D03*
X92559000Y-118582001D03*
X92259000Y-126782000D03*
X91959000Y-118582001D03*
X88059000Y-126782000D03*
X87759000Y-118582001D03*
X87459000Y-126782000D03*
X87159000Y-118582001D03*
X86859000Y-126782000D03*
X86559000Y-118582001D03*
X86259000Y-126782000D03*
X85959000Y-118582001D03*
X85659000Y-126782000D03*
X85359000Y-118582001D03*
X85059000Y-126782000D03*
X84759000Y-118582001D03*
X84459000Y-126782000D03*
X84159000Y-118582001D03*
X83859000Y-126782000D03*
X83559000Y-118582001D03*
X83259000Y-126782000D03*
X82959000Y-118582001D03*
X82659000Y-126782000D03*
X82359000Y-118582001D03*
X82059000Y-126782000D03*
X81759000Y-118582001D03*
X81459000Y-126782000D03*
X81159000Y-118582001D03*
X80859000Y-126782000D03*
X80559000Y-118582001D03*
X80259000Y-126782000D03*
X79959000Y-118582001D03*
X79659000Y-126782000D03*
X79359000Y-118582001D03*
X79059000Y-126782000D03*
X78759000Y-118582001D03*
X78459000Y-126782000D03*
X78159000Y-118582001D03*
X77859000Y-126782000D03*
X77559000Y-118582001D03*
X77259000Y-126782000D03*
X76959000Y-118582001D03*
X76659000Y-126782000D03*
X76359000Y-118582001D03*
X76059000Y-126782000D03*
X75759000Y-118582001D03*
X75459000Y-126782000D03*
X75159000Y-118582001D03*
X74859000Y-126782000D03*
X74559000Y-118582001D03*
X74259000Y-126782000D03*
X73959000Y-118582001D03*
X73659000Y-126782000D03*
X73359000Y-118582001D03*
X73059000Y-126782000D03*
X72759000Y-118582001D03*
X72459000Y-126782000D03*
X72159000Y-118582001D03*
X71859000Y-126782000D03*
X71559000Y-118582001D03*
X71259000Y-126782000D03*
X70959000Y-118582001D03*
X70659000Y-126782000D03*
X70359000Y-118582001D03*
X70059000Y-126782000D03*
X69759000Y-118582001D03*
X69459000Y-126782000D03*
X69159000Y-118582001D03*
X68859000Y-126782000D03*
X68559000Y-118582001D03*
X68259000Y-126782000D03*
X67959000Y-118582001D03*
X67659000Y-126782000D03*
X67359000Y-118582001D03*
X67059000Y-126782000D03*
X66759000Y-118582001D03*
X66459000Y-126782000D03*
X66159000Y-118582001D03*
X65859000Y-126782000D03*
X65559000Y-118582001D03*
X65259000Y-126782000D03*
X64959000Y-118582001D03*
X64659000Y-126782000D03*
X64359000Y-118582001D03*
X64059000Y-126782000D03*
X63759000Y-118582001D03*
X63459000Y-126782000D03*
X63159000Y-118582001D03*
X62859000Y-126782000D03*
X62559000Y-118582001D03*
X62259000Y-126782000D03*
X61959000Y-118582001D03*
X61659000Y-126782000D03*
X61359000Y-118582001D03*
X61059000Y-126782000D03*
X60759000Y-118582001D03*
X60459000Y-126782000D03*
X60159000Y-118582001D03*
X59859000Y-126782000D03*
X59559000Y-118582001D03*
X59259000Y-126782000D03*
X58959000Y-118582001D03*
X58659000Y-126782000D03*
X58359000Y-118582001D03*
X58059000Y-126782000D03*
X57759000Y-118582001D03*
X57459000Y-126782000D03*
X57159000Y-118582001D03*
X56859000Y-126782000D03*
X56559000Y-118582001D03*
X56259000Y-126782000D03*
X55959000Y-118582001D03*
X55659000Y-126782000D03*
X55359000Y-118582001D03*
X55059000Y-126782000D03*
X54759000Y-118582001D03*
X54459000Y-126782000D03*
X54159000Y-118582001D03*
X53859000Y-126782000D03*
X53559000Y-118582001D03*
X53259000Y-126782000D03*
X52959000Y-118582001D03*
X52659000Y-126782000D03*
X52359000Y-118582001D03*
X52059000Y-126782000D03*
X51759000Y-118582001D03*
X51459000Y-126782000D03*
X51159000Y-118582001D03*
X50859000Y-126782000D03*
X50559000Y-118582001D03*
X50259000Y-126782000D03*
X49959000Y-118582001D03*
X49659000Y-126782000D03*
X49359000Y-118582001D03*
X49059000Y-126782000D03*
X48759000Y-118582001D03*
X48459000Y-126782000D03*
X48159000Y-118582001D03*
X47859000Y-126782000D03*
X47559000Y-118582001D03*
X47259000Y-126782000D03*
X46959000Y-118582001D03*
X46659000Y-126782000D03*
X46359000Y-118582001D03*
X46059000Y-126782000D03*
X45759000Y-118582001D03*
X45459000Y-126782000D03*
X45159000Y-118582001D03*
X44859000Y-126782000D03*
X44559000Y-118582001D03*
X44259000Y-126782000D03*
X43959000Y-118582001D03*
X43659000Y-126782000D03*
X43359000Y-118582001D03*
X43059000Y-126782000D03*
X42759000Y-118582001D03*
X42459000Y-126782000D03*
X42159000Y-118582001D03*
X41859000Y-126782000D03*
X41559000Y-118582001D03*
X41259000Y-126782000D03*
X40959000Y-118582001D03*
X40659000Y-126782000D03*
X40359000Y-118582001D03*
%TD*%
D22*
%TO.C,R19*%
X64875000Y-90525000D03*
X64875000Y-88700000D03*
%TD*%
D29*
%TO.C,U6*%
X56810000Y-106410000D03*
X56810000Y-105410000D03*
X56810000Y-104410000D03*
X56810000Y-103410000D03*
X55810000Y-107410000D03*
X55810000Y-106410000D03*
X55810000Y-105410000D03*
X55810000Y-104410000D03*
X55810000Y-103410000D03*
X54810000Y-107410000D03*
X54810000Y-106410000D03*
X54810000Y-105410000D03*
X54810000Y-104410000D03*
X54810000Y-103410000D03*
X53810000Y-107410000D03*
X53810000Y-106410000D03*
X53810000Y-105410000D03*
X53810000Y-104410000D03*
X53810000Y-103410000D03*
X52810000Y-107410000D03*
X52810000Y-106410000D03*
X52810000Y-105410000D03*
X52810000Y-104410000D03*
X52810000Y-103410000D03*
%TD*%
G36*
X76792121Y-150050182D02*
G01*
X76838614Y-150103838D01*
X76850000Y-150156180D01*
X76850000Y-158154100D01*
X76829998Y-158222221D01*
X76776342Y-158268714D01*
X76724000Y-158280100D01*
X39983680Y-158280100D01*
X39915559Y-158260098D01*
X39869066Y-158206442D01*
X39857680Y-158154100D01*
X39857680Y-150156180D01*
X39877682Y-150088059D01*
X39931338Y-150041566D01*
X39983680Y-150030180D01*
X76724000Y-150030180D01*
X76792121Y-150050182D01*
G37*
G36*
X114792121Y-150050182D02*
G01*
X114838614Y-150103838D01*
X114850000Y-150156180D01*
X114850000Y-158154100D01*
X114829998Y-158222221D01*
X114776342Y-158268714D01*
X114724000Y-158280100D01*
X82983340Y-158280100D01*
X82915219Y-158260098D01*
X82868726Y-158206442D01*
X82857340Y-158154100D01*
X82857340Y-150156180D01*
X82877342Y-150088059D01*
X82930998Y-150041566D01*
X82983340Y-150030180D01*
X114724000Y-150030180D01*
X114792121Y-150050182D01*
G37*
M02*
