M48
;DRILL file {kicad (after 2015-mar-04 BZR unknown)-product} date 06.06.2015 1:17:56
;FORMAT={-:-/ absolute / metric / decimal}
FMAT,2
METRIC,TZ
T1C0.381
T2C0.500
T3C0.550
T4C0.762
%
G90
G05
M71
T1
X29.997Y-91.465
X30.429Y-117.475
X38.633Y-101.93
X38.684Y-99.543
X38.684Y-106.756
X38.786Y-108.382
X39.675Y-122.834
X41.326Y-149.327
X42.85Y-148.692
X44.856Y-133.858
X45.466Y-109.271
X45.593Y-106.705
X45.606Y-101.917
X45.72Y-104.318
X45.898Y-99.593
X47.346Y-149.276
X49.174Y-127.584
X49.276Y-109.271
X49.809Y-133.731
X50.927Y-130.15
X51.816Y-133.833
X51.968Y-147.371
X52.857Y-149.301
X54.686Y-111.938
X54.737Y-104.775
X54.737Y-115.113
X54.915Y-102.083
X55.169Y-98.882
X55.397Y-137.77
X56.109Y-116.586
X56.312Y-98.755
X56.464Y-119.736
X56.693Y-128.88
X57.252Y-133.375
X57.861Y-149.352
X58.141Y-99.441
X59.792Y-133.782
X61.316Y-99.009
X62.509Y-130.454
X62.662Y-143.789
X62.84Y-149.327
X63.436Y-99.784
X63.983Y-143.662
X64.186Y-140.564
X64.338Y-142.265
X65.862Y-116.154
X66.853Y-149.276
X67.335Y-137.82
X67.361Y-98.857
X67.386Y-132.842
X67.767Y-94.869
X68.275Y-99.67
X68.91Y-149.149
X69.85Y-116.256
X69.85Y-143.027
X70.129Y-130.251
X71.298Y-144.831
X71.349Y-133.02
X71.349Y-140.614
X71.704Y-102.159
X71.73Y-127.813
X71.882Y-119.456
X72.085Y-145.644
X72.288Y-109.423
X72.644Y-100.203
X72.669Y-113.665
X72.695Y-103.226
X72.695Y-132.893
X72.746Y-108.153
X72.771Y-116.611
X72.873Y-137.643
X73.05Y-144.958
X73.406Y-96.52
X73.838Y-145.771
X73.914Y-135.153
X74.168Y-123.749
X75.514Y-148.844
X75.692Y-136.042
X75.921Y-128.88
X76.022Y-98.527
X76.124Y-125.273
X76.175Y-97.079
X77.394Y-130.886
X77.419Y-132.461
X77.521Y-134.95
X79.172Y-141.021
X80.366Y-137.846
X80.797Y-120.244
X80.975Y-124.714
X81.229Y-128.676
X82.245Y-90.856
X82.296Y-124.384
X82.956Y-133.172
X83.236Y-122.631
X85.217Y-124.358
X86.309Y-128.346
X87.147Y-113.132
X87.249Y-137.82
X87.554Y-126.314
X87.566Y-127.419
X87.605Y-129.692
X87.833Y-149.352
X89.078Y-115.164
X89.713Y-127.508
X89.941Y-146.888
X90.068Y-140.818
X90.78Y-115.316
X91.186Y-137.846
X91.389Y-110.007
X91.44Y-134.264
X91.465Y-114.427
X92.253Y-113.64
X92.253Y-137.389
X92.278Y-148.793
X92.989Y-112.801
X93.243Y-149.377
X93.472Y-119.659
X93.523Y-139.217
X93.929Y-147.599
X94.336Y-138.455
X94.463Y-129.388
X94.615Y-112.014
X94.717Y-148.412
X95.123Y-139.268
X95.275Y-128.626
X95.352Y-111.15
X95.606Y-132.283
X95.682Y-105.613
X95.86Y-148.26
X95.91Y-134.976
X95.936Y-138.481
X96.037Y-127.838
X96.139Y-110.312
X96.291Y-147.218
X96.774Y-115.24
X96.901Y-127.076
X96.926Y-109.474
X96.977Y-139.268
X97.587Y-114.427
X97.79Y-128.88
X98.196Y-129.921
X98.222Y-131.039
X98.425Y-113.665
X99.238Y-112.827
X99.27Y-118.091
X99.746Y-128.93
X99.797Y-131.191
X99.847Y-132.334
X100.025Y-111.963
X100.406Y-148.031
X100.559Y-149.2
X100.736Y-121.234
X100.787Y-111.125
X101.295Y-134.925
X101.321Y-139.217
X101.397Y-131.216
X101.448Y-130.023
X101.575Y-110.312
X101.676Y-149.403
X102.083Y-95.402
X102.387Y-109.525
X102.514Y-131.14
X102.514Y-132.258
X102.692Y-107.34
X102.946Y-135.357
X103.556Y-146.609
X103.607Y-116.662
X103.632Y-132.182
X105.105Y-133.655
X105.893Y-134.442
X105.943Y-149.403
X106.096Y-104.47
X107.188Y-135.814
X108.077Y-100.305
X108.255Y-101.752
X108.458Y-146.888
X109.652Y-127.203
X109.779Y-118.847
X110.973Y-96.19
X111.379Y-116.357
X111.455Y-149.327
X111.557Y-91.542
X113.792Y-141.63
X113.868Y-148.92
X115.595Y-118.77
X116.738Y-108.585
X118.897Y-141.707
X122.707Y-121.793
X122.86Y-106.248
T4
X63.627Y-107.442
T2
X124.475Y-91.98G85X123.825Y-91.98
G05
X124.475Y-98.98G85X123.825Y-98.98
G05
T3
X121.45Y-93.129G85X121.45Y-92.829
G05
X121.45Y-98.129G85X121.45Y-97.829
G05
T0
M30
