G04 #@! TF.FileFunction,Legend,Top*
%FSLAX46Y46*%
G04 Gerber Fmt 4.6, Leading zero omitted, Abs format (unit mm)*
G04 Created by KiCad (PCBNEW 4.0.2-stable) date 14/07/2016 12:53:21*
%MOMM*%
G01*
G04 APERTURE LIST*
%ADD10C,0.152400*%
%ADD11C,0.127000*%
%ADD12C,0.381000*%
%ADD13C,0.150000*%
%ADD14C,0.177800*%
%ADD15C,0.203200*%
%ADD16C,0.398780*%
%ADD17C,0.002540*%
%ADD18C,0.304800*%
G04 APERTURE END LIST*
D10*
D11*
X28318571Y-127850024D02*
X28409286Y-127880262D01*
X28560476Y-127880262D01*
X28620952Y-127850024D01*
X28651190Y-127819786D01*
X28681429Y-127759310D01*
X28681429Y-127698833D01*
X28651190Y-127638357D01*
X28620952Y-127608119D01*
X28560476Y-127577881D01*
X28439524Y-127547643D01*
X28379048Y-127517405D01*
X28348809Y-127487167D01*
X28318571Y-127426690D01*
X28318571Y-127366214D01*
X28348809Y-127305738D01*
X28379048Y-127275500D01*
X28439524Y-127245262D01*
X28590714Y-127245262D01*
X28681429Y-127275500D01*
X28333690Y-128896262D02*
X28333690Y-128261262D01*
X28575595Y-128261262D01*
X28636071Y-128291500D01*
X28666310Y-128321738D01*
X28696548Y-128382214D01*
X28696548Y-128472929D01*
X28666310Y-128533405D01*
X28636071Y-128563643D01*
X28575595Y-128593881D01*
X28333690Y-128593881D01*
X28348809Y-129730833D02*
X28651190Y-129730833D01*
X28288333Y-129912262D02*
X28500000Y-129277262D01*
X28711667Y-129912262D01*
X28696548Y-130928262D02*
X28484881Y-130625881D01*
X28333690Y-130928262D02*
X28333690Y-130293262D01*
X28575595Y-130293262D01*
X28636071Y-130323500D01*
X28666310Y-130353738D01*
X28696548Y-130414214D01*
X28696548Y-130504929D01*
X28666310Y-130565405D01*
X28636071Y-130595643D01*
X28575595Y-130625881D01*
X28333690Y-130625881D01*
X28363928Y-131611643D02*
X28575595Y-131611643D01*
X28666309Y-131944262D02*
X28363928Y-131944262D01*
X28363928Y-131309262D01*
X28666309Y-131309262D01*
D12*
X64050000Y-82675000D02*
X64050000Y-83575000D01*
X66650000Y-82700000D02*
X66650000Y-83575000D01*
X64050000Y-82700000D02*
X66650000Y-82700000D01*
D13*
X71350000Y-92075000D02*
X72350000Y-92075000D01*
X72350000Y-93425000D02*
X71350000Y-93425000D01*
X71350000Y-94475000D02*
X72350000Y-94475000D01*
X72350000Y-95825000D02*
X71350000Y-95825000D01*
X65050000Y-93075000D02*
X66050000Y-93075000D01*
X66050000Y-94425000D02*
X65050000Y-94425000D01*
X78850000Y-133950000D02*
X77850000Y-133950000D01*
X77850000Y-132600000D02*
X78850000Y-132600000D01*
X74200000Y-119450000D02*
X74900000Y-119450000D01*
X74900000Y-120650000D02*
X74200000Y-120650000D01*
X40250000Y-145300000D02*
X39550000Y-145300000D01*
X39550000Y-144100000D02*
X40250000Y-144100000D01*
X58425000Y-142650000D02*
X58425000Y-143350000D01*
X57225000Y-143350000D02*
X57225000Y-142650000D01*
X76400000Y-138550000D02*
X77100000Y-138550000D01*
X77100000Y-139750000D02*
X76400000Y-139750000D01*
X82300000Y-136150000D02*
X82300000Y-135450000D01*
X83500000Y-135450000D02*
X83500000Y-136150000D01*
X112750000Y-135750000D02*
X112750000Y-136450000D01*
X111550000Y-136450000D02*
X111550000Y-135750000D01*
X42800000Y-123900000D02*
X42100000Y-123900000D01*
X42100000Y-122700000D02*
X42800000Y-122700000D01*
X74200000Y-130225000D02*
X74900000Y-130225000D01*
X74900000Y-131425000D02*
X74200000Y-131425000D01*
X43950000Y-131650000D02*
X43250000Y-131650000D01*
X43250000Y-130450000D02*
X43950000Y-130450000D01*
X71250000Y-109450000D02*
X71250000Y-108750000D01*
X72450000Y-108750000D02*
X72450000Y-109450000D01*
X74200000Y-126425000D02*
X74900000Y-126425000D01*
X74900000Y-127625000D02*
X74200000Y-127625000D01*
X59500000Y-91250000D02*
X60200000Y-91250000D01*
X60200000Y-92450000D02*
X59500000Y-92450000D01*
X71600000Y-132700000D02*
X72300000Y-132700000D01*
X72300000Y-133900000D02*
X71600000Y-133900000D01*
X50500000Y-88400000D02*
X51200000Y-88400000D01*
X51200000Y-89600000D02*
X50500000Y-89600000D01*
X34025000Y-90925000D02*
X34025000Y-91625000D01*
X32825000Y-91625000D02*
X32825000Y-90925000D01*
X73200000Y-109450000D02*
X73200000Y-108750000D01*
X74400000Y-108750000D02*
X74400000Y-109450000D01*
X46850000Y-134850000D02*
X46150000Y-134850000D01*
X46150000Y-133650000D02*
X46850000Y-133650000D01*
D14*
X34800200Y-102850980D02*
X35300580Y-102850980D01*
X34800200Y-92249020D02*
X35300580Y-92249020D01*
X57002340Y-92249020D02*
X56501960Y-92249020D01*
X57002340Y-102850980D02*
X56501960Y-102850980D01*
X35552040Y-100648800D02*
X34851000Y-100648800D01*
X34851000Y-100498940D02*
X35651100Y-100498940D01*
X35701900Y-100349080D02*
X34851000Y-100349080D01*
X34802740Y-100199220D02*
X35752700Y-100199220D01*
X35752700Y-99950300D02*
X34851000Y-99950300D01*
X34851000Y-99851240D02*
X35701900Y-99851240D01*
X35701900Y-99749640D02*
X34851000Y-99749640D01*
X34802740Y-99599780D02*
X35651100Y-99599780D01*
X35602840Y-99449920D02*
X34851000Y-99449920D01*
X35501240Y-99300060D02*
X34802740Y-99300060D01*
X35552040Y-100750400D02*
X34802740Y-100750400D01*
X56951540Y-100699600D02*
X56301300Y-100699600D01*
X56151440Y-100600540D02*
X56999800Y-100600540D01*
X56951540Y-100450680D02*
X56151440Y-100450680D01*
X56049840Y-100349080D02*
X56951540Y-100349080D01*
X56999800Y-100199220D02*
X56049840Y-100199220D01*
X56999800Y-99899500D02*
X56049840Y-99899500D01*
X56999800Y-99800440D02*
X56049840Y-99800440D01*
X56999800Y-99650580D02*
X56100640Y-99650580D01*
X56999800Y-99500720D02*
X56151440Y-99500720D01*
X56250500Y-99350860D02*
X56999800Y-99350860D01*
X56301300Y-100801200D02*
X56999800Y-100801200D01*
X56247960Y-99350860D02*
G75*
G03X56301300Y-100801200I751840J-698500D01*
G01*
X35552040Y-100747860D02*
G75*
G03X35501240Y-99300060I-749300J698500D01*
G01*
X34802740Y-100049360D02*
X35800960Y-100049360D01*
X56999800Y-100049360D02*
X56001580Y-100049360D01*
X56608720Y-93478380D02*
G75*
G03X56608720Y-93478380I-563960J0D01*
G01*
X57002340Y-102850980D02*
X57002340Y-92249020D01*
X34800200Y-102850980D02*
X34800200Y-92249020D01*
D13*
X43200000Y-117550000D02*
X42500000Y-117550000D01*
X42500000Y-116350000D02*
X43200000Y-116350000D01*
X121606000Y-136926000D02*
X121606000Y-133878000D01*
X121606000Y-133878000D02*
X114494000Y-133878000D01*
X114494000Y-133878000D02*
X114494000Y-136926000D01*
X121606000Y-139974000D02*
X121606000Y-140736000D01*
X121606000Y-140736000D02*
X120082000Y-143022000D01*
X120082000Y-143022000D02*
X116018000Y-143022000D01*
X116018000Y-143022000D02*
X114494000Y-140736000D01*
X114494000Y-140736000D02*
X114494000Y-139974000D01*
D15*
X59000000Y-88740000D02*
X71700000Y-88740000D01*
X71700000Y-88740000D02*
X71700000Y-83660000D01*
X71700000Y-83660000D02*
X59000000Y-83660000D01*
X59000000Y-83660000D02*
X59000000Y-88740000D01*
X76599900Y-106100180D02*
X103600100Y-106100180D01*
X76599900Y-97100960D02*
X103650900Y-97100960D01*
D16*
X100049180Y-83301140D02*
X103600100Y-83301140D01*
X80199080Y-83301140D02*
X76599900Y-83301140D01*
X76599900Y-109501240D02*
X78901140Y-109501240D01*
X78901140Y-109501240D02*
X78850340Y-109450440D01*
X102098960Y-109501240D02*
X103600100Y-109501240D01*
X78901140Y-109450440D02*
X78901140Y-107349860D01*
X78901140Y-107349860D02*
X102098960Y-107349860D01*
X102098960Y-107349860D02*
X102098960Y-109501240D01*
X103600100Y-109501240D02*
X103600100Y-81500280D01*
X103600100Y-81500280D02*
X76599900Y-81500280D01*
X76599900Y-81500280D02*
X76599900Y-109501240D01*
D12*
X80214320Y-83293520D02*
G75*
G03X90115240Y-93194440I9900920J0D01*
G01*
X90115240Y-93194440D02*
G75*
G03X100016160Y-83293520I0J9900920D01*
G01*
D13*
X74470000Y-104130000D02*
X74470000Y-96510000D01*
X71930000Y-104130000D02*
X71930000Y-96510000D01*
X71650000Y-106950000D02*
X71650000Y-105400000D01*
X74470000Y-96510000D02*
X71930000Y-96510000D01*
X71930000Y-104130000D02*
X74470000Y-104130000D01*
X74750000Y-105400000D02*
X74750000Y-106950000D01*
X74750000Y-106950000D02*
X71650000Y-106950000D01*
X32349000Y-95186000D02*
X32349000Y-95386000D01*
X32349000Y-97780000D02*
X32349000Y-97600000D01*
X29121256Y-97469643D02*
G75*
G03X32349000Y-97786000I1727744J1003643D01*
G01*
X29796994Y-97599068D02*
G75*
G03X31900000Y-97600000I1052006J1133068D01*
G01*
X32336220Y-95159274D02*
G75*
G03X29099000Y-95506000I-1497220J-1306726D01*
G01*
X31862889Y-95386747D02*
G75*
G03X29815000Y-95406000I-1013889J-1079253D01*
G01*
X32349000Y-101236000D02*
X32349000Y-101436000D01*
X32349000Y-103830000D02*
X32349000Y-103650000D01*
X29121256Y-103519643D02*
G75*
G03X32349000Y-103836000I1727744J1003643D01*
G01*
X29796994Y-103649068D02*
G75*
G03X31900000Y-103650000I1052006J1133068D01*
G01*
X32336220Y-101209274D02*
G75*
G03X29099000Y-101556000I-1497220J-1306726D01*
G01*
X31862889Y-101436747D02*
G75*
G03X29815000Y-101456000I-1013889J-1079253D01*
G01*
X89950000Y-112625000D02*
X89250000Y-112625000D01*
X89250000Y-111425000D02*
X89950000Y-111425000D01*
X123525000Y-123425000D02*
X123525000Y-124975000D01*
X121975000Y-124975000D02*
X123525000Y-124975000D01*
X123245000Y-122155000D02*
X120705000Y-122155000D01*
X120705000Y-122155000D02*
X120705000Y-124695000D01*
X120705000Y-124695000D02*
X118165000Y-124695000D01*
X118165000Y-124695000D02*
X118165000Y-119615000D01*
X118165000Y-119615000D02*
X123245000Y-119615000D01*
X123245000Y-119615000D02*
X123245000Y-122155000D01*
X121050000Y-130525000D02*
X119050000Y-130525000D01*
X119050000Y-132575000D02*
X121050000Y-132575000D01*
X118165000Y-117070000D02*
X118165000Y-104370000D01*
X118165000Y-104370000D02*
X123245000Y-104370000D01*
X123245000Y-104370000D02*
X123245000Y-114530000D01*
X118165000Y-117070000D02*
X120705000Y-117070000D01*
X121975000Y-117350000D02*
X123525000Y-117350000D01*
X120705000Y-117070000D02*
X120705000Y-114530000D01*
X120705000Y-114530000D02*
X123245000Y-114530000D01*
X123525000Y-117350000D02*
X123525000Y-115800000D01*
X110555000Y-96740000D02*
X123255000Y-96740000D01*
X123255000Y-96740000D02*
X123255000Y-101820000D01*
X123255000Y-101820000D02*
X113095000Y-101820000D01*
X110555000Y-96740000D02*
X110555000Y-99280000D01*
X110275000Y-100550000D02*
X110275000Y-102100000D01*
X110555000Y-99280000D02*
X113095000Y-99280000D01*
X113095000Y-99280000D02*
X113095000Y-101820000D01*
X110275000Y-102100000D02*
X111825000Y-102100000D01*
X30375000Y-113400000D02*
X33075000Y-113400000D01*
X30375000Y-111900000D02*
X33075000Y-111900000D01*
X31875000Y-112800000D02*
X31875000Y-112550000D01*
X31875000Y-112550000D02*
X31725000Y-112700000D01*
X31625000Y-112300000D02*
X31625000Y-113000000D01*
X31975000Y-112650000D02*
X32325000Y-112650000D01*
X31625000Y-112650000D02*
X31975000Y-112300000D01*
X31975000Y-112300000D02*
X31975000Y-113000000D01*
X31975000Y-113000000D02*
X31625000Y-112650000D01*
X31105000Y-117905000D02*
X31105000Y-115365000D01*
X30825000Y-120725000D02*
X30825000Y-119175000D01*
X31105000Y-117905000D02*
X33645000Y-117905000D01*
X33925000Y-119175000D02*
X33925000Y-120725000D01*
X33925000Y-120725000D02*
X30825000Y-120725000D01*
X33645000Y-117905000D02*
X33645000Y-115365000D01*
X33645000Y-115365000D02*
X31105000Y-115365000D01*
D17*
G36*
X33381180Y-86090820D02*
X33348160Y-86154320D01*
X33233860Y-86194960D01*
X33002720Y-86212740D01*
X32703000Y-86217820D01*
X32619180Y-86217820D01*
X32619180Y-85963820D01*
X32619180Y-84399180D01*
X32616640Y-83848000D01*
X32614100Y-83441600D01*
X32601400Y-83152040D01*
X32583620Y-82956460D01*
X32550600Y-82826920D01*
X32504880Y-82740560D01*
X32441380Y-82671980D01*
X32433760Y-82664360D01*
X32118800Y-82473860D01*
X31699700Y-82357020D01*
X31224720Y-82318920D01*
X30737040Y-82351940D01*
X30284920Y-82458620D01*
X29914080Y-82636420D01*
X29807400Y-82720240D01*
X29751520Y-82783740D01*
X29713420Y-82882800D01*
X29685480Y-83037740D01*
X29667700Y-83276500D01*
X29660080Y-83624480D01*
X29655000Y-84102000D01*
X29655000Y-84409340D01*
X29655000Y-85963820D01*
X29868360Y-85963820D01*
X30079180Y-85963820D01*
X30079180Y-84483000D01*
X30079180Y-83921660D01*
X30086800Y-83512720D01*
X30109660Y-83235860D01*
X30150300Y-83070760D01*
X30221420Y-83002180D01*
X30325560Y-83007260D01*
X30472880Y-83068220D01*
X30589720Y-83129180D01*
X30825940Y-83296820D01*
X30965640Y-83484780D01*
X30991040Y-83657500D01*
X30891980Y-83781960D01*
X30841180Y-83804820D01*
X30770060Y-83837840D01*
X30721800Y-83906420D01*
X30693860Y-84038500D01*
X30678620Y-84262020D01*
X30671000Y-84607460D01*
X30671000Y-84909720D01*
X30671000Y-85963820D01*
X31054540Y-85963820D01*
X31438080Y-85963820D01*
X31265360Y-85628540D01*
X31166300Y-85377080D01*
X31112960Y-85074820D01*
X31095180Y-84665880D01*
X31095180Y-84612540D01*
X31102800Y-84297580D01*
X31125660Y-84058820D01*
X31156140Y-83939440D01*
X31166300Y-83931820D01*
X31247580Y-83863240D01*
X31339020Y-83705760D01*
X31382200Y-83494940D01*
X31288220Y-83365400D01*
X31171380Y-83340000D01*
X31077400Y-83289200D01*
X30925000Y-83169820D01*
X30729420Y-82999640D01*
X31420300Y-82999640D01*
X32111180Y-82999640D01*
X32111180Y-84483000D01*
X32111180Y-85963820D01*
X32365180Y-85963820D01*
X32619180Y-85963820D01*
X32619180Y-86217820D01*
X32027360Y-86217820D01*
X32027360Y-88503820D01*
X32027360Y-90789820D01*
X31814000Y-90789820D01*
X31603180Y-90789820D01*
X31603180Y-88503820D01*
X31603180Y-86217820D01*
X31095180Y-86217820D01*
X30587180Y-86217820D01*
X30587180Y-89349640D01*
X30587180Y-92484000D01*
X30376360Y-92484000D01*
X30163000Y-92484000D01*
X30163000Y-89349640D01*
X30163000Y-86217820D01*
X29401000Y-86217820D01*
X29030160Y-86212740D01*
X28799020Y-86194960D01*
X28677100Y-86159400D01*
X28639000Y-86098440D01*
X28639000Y-86090820D01*
X28684720Y-86009540D01*
X28842200Y-85971440D01*
X29063180Y-85963820D01*
X29487360Y-85963820D01*
X29487360Y-84411880D01*
X29487360Y-83863240D01*
X29492440Y-83454300D01*
X29502600Y-83164740D01*
X29525460Y-82969160D01*
X29555940Y-82837080D01*
X29604200Y-82743100D01*
X29667700Y-82666900D01*
X30018220Y-82405280D01*
X30470340Y-82232560D01*
X30978340Y-82151280D01*
X31501580Y-82161440D01*
X31999420Y-82263040D01*
X32423600Y-82461160D01*
X32596320Y-82595780D01*
X32662360Y-82664360D01*
X32713160Y-82745640D01*
X32746180Y-82862480D01*
X32769040Y-83042820D01*
X32781740Y-83306980D01*
X32786820Y-83685440D01*
X32786820Y-84201060D01*
X32789360Y-84368700D01*
X32789360Y-85963820D01*
X33084000Y-85963820D01*
X33302440Y-85991760D01*
X33381180Y-86078120D01*
X33381180Y-86090820D01*
X33381180Y-86090820D01*
X33381180Y-86090820D01*
G37*
X33381180Y-86090820D02*
X33348160Y-86154320D01*
X33233860Y-86194960D01*
X33002720Y-86212740D01*
X32703000Y-86217820D01*
X32619180Y-86217820D01*
X32619180Y-85963820D01*
X32619180Y-84399180D01*
X32616640Y-83848000D01*
X32614100Y-83441600D01*
X32601400Y-83152040D01*
X32583620Y-82956460D01*
X32550600Y-82826920D01*
X32504880Y-82740560D01*
X32441380Y-82671980D01*
X32433760Y-82664360D01*
X32118800Y-82473860D01*
X31699700Y-82357020D01*
X31224720Y-82318920D01*
X30737040Y-82351940D01*
X30284920Y-82458620D01*
X29914080Y-82636420D01*
X29807400Y-82720240D01*
X29751520Y-82783740D01*
X29713420Y-82882800D01*
X29685480Y-83037740D01*
X29667700Y-83276500D01*
X29660080Y-83624480D01*
X29655000Y-84102000D01*
X29655000Y-84409340D01*
X29655000Y-85963820D01*
X29868360Y-85963820D01*
X30079180Y-85963820D01*
X30079180Y-84483000D01*
X30079180Y-83921660D01*
X30086800Y-83512720D01*
X30109660Y-83235860D01*
X30150300Y-83070760D01*
X30221420Y-83002180D01*
X30325560Y-83007260D01*
X30472880Y-83068220D01*
X30589720Y-83129180D01*
X30825940Y-83296820D01*
X30965640Y-83484780D01*
X30991040Y-83657500D01*
X30891980Y-83781960D01*
X30841180Y-83804820D01*
X30770060Y-83837840D01*
X30721800Y-83906420D01*
X30693860Y-84038500D01*
X30678620Y-84262020D01*
X30671000Y-84607460D01*
X30671000Y-84909720D01*
X30671000Y-85963820D01*
X31054540Y-85963820D01*
X31438080Y-85963820D01*
X31265360Y-85628540D01*
X31166300Y-85377080D01*
X31112960Y-85074820D01*
X31095180Y-84665880D01*
X31095180Y-84612540D01*
X31102800Y-84297580D01*
X31125660Y-84058820D01*
X31156140Y-83939440D01*
X31166300Y-83931820D01*
X31247580Y-83863240D01*
X31339020Y-83705760D01*
X31382200Y-83494940D01*
X31288220Y-83365400D01*
X31171380Y-83340000D01*
X31077400Y-83289200D01*
X30925000Y-83169820D01*
X30729420Y-82999640D01*
X31420300Y-82999640D01*
X32111180Y-82999640D01*
X32111180Y-84483000D01*
X32111180Y-85963820D01*
X32365180Y-85963820D01*
X32619180Y-85963820D01*
X32619180Y-86217820D01*
X32027360Y-86217820D01*
X32027360Y-88503820D01*
X32027360Y-90789820D01*
X31814000Y-90789820D01*
X31603180Y-90789820D01*
X31603180Y-88503820D01*
X31603180Y-86217820D01*
X31095180Y-86217820D01*
X30587180Y-86217820D01*
X30587180Y-89349640D01*
X30587180Y-92484000D01*
X30376360Y-92484000D01*
X30163000Y-92484000D01*
X30163000Y-89349640D01*
X30163000Y-86217820D01*
X29401000Y-86217820D01*
X29030160Y-86212740D01*
X28799020Y-86194960D01*
X28677100Y-86159400D01*
X28639000Y-86098440D01*
X28639000Y-86090820D01*
X28684720Y-86009540D01*
X28842200Y-85971440D01*
X29063180Y-85963820D01*
X29487360Y-85963820D01*
X29487360Y-84411880D01*
X29487360Y-83863240D01*
X29492440Y-83454300D01*
X29502600Y-83164740D01*
X29525460Y-82969160D01*
X29555940Y-82837080D01*
X29604200Y-82743100D01*
X29667700Y-82666900D01*
X30018220Y-82405280D01*
X30470340Y-82232560D01*
X30978340Y-82151280D01*
X31501580Y-82161440D01*
X31999420Y-82263040D01*
X32423600Y-82461160D01*
X32596320Y-82595780D01*
X32662360Y-82664360D01*
X32713160Y-82745640D01*
X32746180Y-82862480D01*
X32769040Y-83042820D01*
X32781740Y-83306980D01*
X32786820Y-83685440D01*
X32786820Y-84201060D01*
X32789360Y-84368700D01*
X32789360Y-85963820D01*
X33084000Y-85963820D01*
X33302440Y-85991760D01*
X33381180Y-86078120D01*
X33381180Y-86090820D01*
X33381180Y-86090820D01*
G36*
X29571180Y-87360820D02*
X29507680Y-87454800D01*
X29301940Y-87487820D01*
X29274000Y-87487820D01*
X29075880Y-87500520D01*
X28994600Y-87574180D01*
X28979360Y-87762140D01*
X28979360Y-87785000D01*
X28951420Y-88003440D01*
X28862520Y-88079640D01*
X28852360Y-88079640D01*
X28758380Y-88016140D01*
X28725360Y-87810400D01*
X28725360Y-87785000D01*
X28710120Y-87584340D01*
X28636460Y-87503060D01*
X28451040Y-87487820D01*
X28428180Y-87487820D01*
X28209740Y-87459880D01*
X28131000Y-87370980D01*
X28131000Y-87360820D01*
X28194500Y-87266840D01*
X28400240Y-87233820D01*
X28428180Y-87233820D01*
X28626300Y-87218580D01*
X28707580Y-87147460D01*
X28725360Y-86979820D01*
X28760920Y-86776620D01*
X28852360Y-86725820D01*
X28951420Y-86802020D01*
X28979360Y-86979820D01*
X28994600Y-87150000D01*
X29078420Y-87221120D01*
X29274000Y-87233820D01*
X29492440Y-87261760D01*
X29571180Y-87348120D01*
X29571180Y-87360820D01*
X29571180Y-87360820D01*
X29571180Y-87360820D01*
G37*
X29571180Y-87360820D02*
X29507680Y-87454800D01*
X29301940Y-87487820D01*
X29274000Y-87487820D01*
X29075880Y-87500520D01*
X28994600Y-87574180D01*
X28979360Y-87762140D01*
X28979360Y-87785000D01*
X28951420Y-88003440D01*
X28862520Y-88079640D01*
X28852360Y-88079640D01*
X28758380Y-88016140D01*
X28725360Y-87810400D01*
X28725360Y-87785000D01*
X28710120Y-87584340D01*
X28636460Y-87503060D01*
X28451040Y-87487820D01*
X28428180Y-87487820D01*
X28209740Y-87459880D01*
X28131000Y-87370980D01*
X28131000Y-87360820D01*
X28194500Y-87266840D01*
X28400240Y-87233820D01*
X28428180Y-87233820D01*
X28626300Y-87218580D01*
X28707580Y-87147460D01*
X28725360Y-86979820D01*
X28760920Y-86776620D01*
X28852360Y-86725820D01*
X28951420Y-86802020D01*
X28979360Y-86979820D01*
X28994600Y-87150000D01*
X29078420Y-87221120D01*
X29274000Y-87233820D01*
X29492440Y-87261760D01*
X29571180Y-87348120D01*
X29571180Y-87360820D01*
X29571180Y-87360820D01*
G36*
X34397180Y-87360820D02*
X34366700Y-87424320D01*
X34254940Y-87462420D01*
X34031420Y-87482740D01*
X33678360Y-87487820D01*
X33317680Y-87482740D01*
X33096700Y-87462420D01*
X32987480Y-87421780D01*
X32957000Y-87360820D01*
X32987480Y-87297320D01*
X33099240Y-87259220D01*
X33322760Y-87238900D01*
X33678360Y-87233820D01*
X34036500Y-87238900D01*
X34257480Y-87259220D01*
X34366700Y-87297320D01*
X34397180Y-87360820D01*
X34397180Y-87360820D01*
X34397180Y-87360820D01*
G37*
X34397180Y-87360820D02*
X34366700Y-87424320D01*
X34254940Y-87462420D01*
X34031420Y-87482740D01*
X33678360Y-87487820D01*
X33317680Y-87482740D01*
X33096700Y-87462420D01*
X32987480Y-87421780D01*
X32957000Y-87360820D01*
X32987480Y-87297320D01*
X33099240Y-87259220D01*
X33322760Y-87238900D01*
X33678360Y-87233820D01*
X34036500Y-87238900D01*
X34257480Y-87259220D01*
X34366700Y-87297320D01*
X34397180Y-87360820D01*
X34397180Y-87360820D01*
D13*
X32525000Y-134875000D02*
X31525000Y-134875000D01*
X31525000Y-133525000D02*
X32525000Y-133525000D01*
X32525000Y-125775000D02*
X31525000Y-125775000D01*
X31525000Y-124425000D02*
X32525000Y-124425000D01*
X30925000Y-132450000D02*
X29375000Y-132450000D01*
X29375000Y-130900000D02*
X29375000Y-132450000D01*
X32195000Y-132170000D02*
X32195000Y-129630000D01*
X32195000Y-129630000D02*
X29655000Y-129630000D01*
X29655000Y-129630000D02*
X29655000Y-127090000D01*
X29655000Y-127090000D02*
X34735000Y-127090000D01*
X34735000Y-127090000D02*
X34735000Y-132170000D01*
X34735000Y-132170000D02*
X32195000Y-132170000D01*
X43980789Y-143350000D02*
G75*
G03X43980789Y-143350000I-380789J0D01*
G01*
X42825000Y-144225000D02*
X43082500Y-144225000D01*
X42825000Y-137875000D02*
X43082500Y-137875000D01*
X55575000Y-137875000D02*
X55317500Y-137875000D01*
X55575000Y-144225000D02*
X55317500Y-144225000D01*
X42825000Y-144225000D02*
X42825000Y-137875000D01*
X55575000Y-144225000D02*
X55575000Y-137875000D01*
X43082500Y-144225000D02*
X43082500Y-145300000D01*
X61180789Y-143350000D02*
G75*
G03X61180789Y-143350000I-380789J0D01*
G01*
X60025000Y-144225000D02*
X60282500Y-144225000D01*
X60025000Y-137875000D02*
X60282500Y-137875000D01*
X72775000Y-137875000D02*
X72517500Y-137875000D01*
X72775000Y-144225000D02*
X72517500Y-144225000D01*
X60025000Y-144225000D02*
X60025000Y-137875000D01*
X72775000Y-144225000D02*
X72775000Y-137875000D01*
X60282500Y-144225000D02*
X60282500Y-145300000D01*
X92580789Y-145100000D02*
G75*
G03X92580789Y-145100000I-380789J0D01*
G01*
X93075000Y-145875000D02*
X93075000Y-145617500D01*
X86725000Y-145875000D02*
X86725000Y-145617500D01*
X86725000Y-133125000D02*
X86725000Y-133382500D01*
X93075000Y-133125000D02*
X93075000Y-133382500D01*
X93075000Y-145875000D02*
X86725000Y-145875000D01*
X93075000Y-133125000D02*
X86725000Y-133125000D01*
X93075000Y-145617500D02*
X94150000Y-145617500D01*
X91280789Y-124500000D02*
G75*
G03X91280789Y-124500000I-380789J0D01*
G01*
X90125000Y-125375000D02*
X90382500Y-125375000D01*
X90125000Y-119025000D02*
X90382500Y-119025000D01*
X102875000Y-119025000D02*
X102617500Y-119025000D01*
X102875000Y-125375000D02*
X102617500Y-125375000D01*
X90125000Y-125375000D02*
X90125000Y-119025000D01*
X102875000Y-125375000D02*
X102875000Y-119025000D01*
X90382500Y-125375000D02*
X90382500Y-126450000D01*
X54100000Y-130950000D02*
X53600000Y-128950000D01*
X54600000Y-128950000D02*
X54100000Y-130950000D01*
X54400000Y-129750000D02*
X53850000Y-129750000D01*
X56300000Y-129950000D02*
X55100000Y-128950000D01*
X56500000Y-130950000D02*
X55000000Y-130950000D01*
X55000000Y-130950000D02*
X55000000Y-129950000D01*
X55000000Y-129950000D02*
X56500000Y-129950000D01*
X56500000Y-130950000D02*
X56500000Y-128950000D01*
X58400000Y-129950000D02*
X57400000Y-129950000D01*
X58400000Y-130950000D02*
X56900000Y-130950000D01*
X58400000Y-130950000D02*
X58400000Y-128950000D01*
X58400000Y-128950000D02*
X56900000Y-128950000D01*
X59500000Y-130950000D02*
X59500000Y-128950000D01*
X60200000Y-130950000D02*
X58800000Y-130950000D01*
X61800000Y-130950000D02*
X61800000Y-128950000D01*
X61800000Y-128950000D02*
X60800000Y-128950000D01*
X63200000Y-129750000D02*
X62650000Y-129750000D01*
X63400000Y-128950000D02*
X62900000Y-130950000D01*
X62900000Y-130950000D02*
X62400000Y-128950000D01*
D15*
X67699220Y-132299980D02*
X49700780Y-132299980D01*
X68699980Y-113300780D02*
X68699980Y-131299220D01*
X49700780Y-112300020D02*
X67699220Y-112300020D01*
X48700020Y-131299220D02*
X48700020Y-113300780D01*
X69508911Y-132548900D02*
G75*
G03X69508911Y-132548900I-560011J0D01*
G01*
X67699220Y-132299980D02*
X68699980Y-131299220D01*
X68699980Y-112300020D02*
X67699220Y-112300020D01*
X68699980Y-112300020D02*
X68699980Y-113300780D01*
X48700020Y-112300020D02*
X49700780Y-112300020D01*
X48700020Y-112300020D02*
X48700020Y-113300780D01*
X48700020Y-132299980D02*
X49700780Y-132299980D01*
X48700020Y-132299980D02*
X48700020Y-131299220D01*
D11*
X70266786Y-91762262D02*
X70055119Y-91459881D01*
X69903928Y-91762262D02*
X69903928Y-91127262D01*
X70145833Y-91127262D01*
X70206309Y-91157500D01*
X70236548Y-91187738D01*
X70266786Y-91248214D01*
X70266786Y-91338929D01*
X70236548Y-91399405D01*
X70206309Y-91429643D01*
X70145833Y-91459881D01*
X69903928Y-91459881D01*
X70871548Y-91762262D02*
X70508690Y-91762262D01*
X70690119Y-91762262D02*
X70690119Y-91127262D01*
X70629643Y-91217976D01*
X70569167Y-91278452D01*
X70508690Y-91308690D01*
X71083214Y-91127262D02*
X71506548Y-91127262D01*
X71234405Y-91762262D01*
X72436548Y-91762262D02*
X72073690Y-91762262D01*
X72255119Y-91762262D02*
X72255119Y-91127262D01*
X72194643Y-91217976D01*
X72134167Y-91278452D01*
X72073690Y-91308690D01*
X72829643Y-91127262D02*
X72890119Y-91127262D01*
X72950595Y-91157500D01*
X72980833Y-91187738D01*
X73011071Y-91248214D01*
X73041310Y-91369167D01*
X73041310Y-91520357D01*
X73011071Y-91641310D01*
X72980833Y-91701786D01*
X72950595Y-91732024D01*
X72890119Y-91762262D01*
X72829643Y-91762262D01*
X72769167Y-91732024D01*
X72738929Y-91701786D01*
X72708690Y-91641310D01*
X72678452Y-91520357D01*
X72678452Y-91369167D01*
X72708690Y-91248214D01*
X72738929Y-91187738D01*
X72769167Y-91157500D01*
X72829643Y-91127262D01*
X73313452Y-91762262D02*
X73313452Y-91127262D01*
X73676310Y-91762262D02*
X73404167Y-91399405D01*
X73676310Y-91127262D02*
X73313452Y-91490119D01*
X68391786Y-94962262D02*
X68180119Y-94659881D01*
X68028928Y-94962262D02*
X68028928Y-94327262D01*
X68270833Y-94327262D01*
X68331309Y-94357500D01*
X68361548Y-94387738D01*
X68391786Y-94448214D01*
X68391786Y-94538929D01*
X68361548Y-94599405D01*
X68331309Y-94629643D01*
X68270833Y-94659881D01*
X68028928Y-94659881D01*
X68996548Y-94962262D02*
X68633690Y-94962262D01*
X68815119Y-94962262D02*
X68815119Y-94327262D01*
X68754643Y-94417976D01*
X68694167Y-94478452D01*
X68633690Y-94508690D01*
X69540833Y-94327262D02*
X69419881Y-94327262D01*
X69359405Y-94357500D01*
X69329167Y-94387738D01*
X69268690Y-94478452D01*
X69238452Y-94599405D01*
X69238452Y-94841310D01*
X69268690Y-94901786D01*
X69298929Y-94932024D01*
X69359405Y-94962262D01*
X69480357Y-94962262D01*
X69540833Y-94932024D01*
X69571071Y-94901786D01*
X69601310Y-94841310D01*
X69601310Y-94690119D01*
X69571071Y-94629643D01*
X69540833Y-94599405D01*
X69480357Y-94569167D01*
X69359405Y-94569167D01*
X69298929Y-94599405D01*
X69268690Y-94629643D01*
X69238452Y-94690119D01*
X68336548Y-95887262D02*
X67973690Y-95887262D01*
X68155119Y-95887262D02*
X68155119Y-95252262D01*
X68094643Y-95342976D01*
X68034167Y-95403452D01*
X67973690Y-95433690D01*
X68729643Y-95252262D02*
X68790119Y-95252262D01*
X68850595Y-95282500D01*
X68880833Y-95312738D01*
X68911071Y-95373214D01*
X68941310Y-95494167D01*
X68941310Y-95645357D01*
X68911071Y-95766310D01*
X68880833Y-95826786D01*
X68850595Y-95857024D01*
X68790119Y-95887262D01*
X68729643Y-95887262D01*
X68669167Y-95857024D01*
X68638929Y-95826786D01*
X68608690Y-95766310D01*
X68578452Y-95645357D01*
X68578452Y-95494167D01*
X68608690Y-95373214D01*
X68638929Y-95312738D01*
X68669167Y-95282500D01*
X68729643Y-95252262D01*
X69213452Y-95887262D02*
X69213452Y-95252262D01*
X69576310Y-95887262D02*
X69304167Y-95524405D01*
X69576310Y-95252262D02*
X69213452Y-95615119D01*
X65141786Y-95437262D02*
X64930119Y-95134881D01*
X64778928Y-95437262D02*
X64778928Y-94802262D01*
X65020833Y-94802262D01*
X65081309Y-94832500D01*
X65111548Y-94862738D01*
X65141786Y-94923214D01*
X65141786Y-95013929D01*
X65111548Y-95074405D01*
X65081309Y-95104643D01*
X65020833Y-95134881D01*
X64778928Y-95134881D01*
X65746548Y-95437262D02*
X65383690Y-95437262D01*
X65565119Y-95437262D02*
X65565119Y-94802262D01*
X65504643Y-94892976D01*
X65444167Y-94953452D01*
X65383690Y-94983690D01*
X66321071Y-94802262D02*
X66018690Y-94802262D01*
X65988452Y-95104643D01*
X66018690Y-95074405D01*
X66079167Y-95044167D01*
X66230357Y-95044167D01*
X66290833Y-95074405D01*
X66321071Y-95104643D01*
X66351310Y-95165119D01*
X66351310Y-95316310D01*
X66321071Y-95376786D01*
X66290833Y-95407024D01*
X66230357Y-95437262D01*
X66079167Y-95437262D01*
X66018690Y-95407024D01*
X65988452Y-95376786D01*
X65413929Y-96437262D02*
X65051071Y-96437262D01*
X65232500Y-96437262D02*
X65232500Y-95802262D01*
X65172024Y-95892976D01*
X65111548Y-95953452D01*
X65051071Y-95983690D01*
X65686071Y-96437262D02*
X65686071Y-95802262D01*
X66048929Y-96437262D02*
X65776786Y-96074405D01*
X66048929Y-95802262D02*
X65686071Y-96165119D01*
X76741786Y-134987262D02*
X76530119Y-134684881D01*
X76378928Y-134987262D02*
X76378928Y-134352262D01*
X76620833Y-134352262D01*
X76681309Y-134382500D01*
X76711548Y-134412738D01*
X76741786Y-134473214D01*
X76741786Y-134563929D01*
X76711548Y-134624405D01*
X76681309Y-134654643D01*
X76620833Y-134684881D01*
X76378928Y-134684881D01*
X77346548Y-134987262D02*
X76983690Y-134987262D01*
X77165119Y-134987262D02*
X77165119Y-134352262D01*
X77104643Y-134442976D01*
X77044167Y-134503452D01*
X76983690Y-134533690D01*
X77558214Y-134352262D02*
X77951310Y-134352262D01*
X77739643Y-134594167D01*
X77830357Y-134594167D01*
X77890833Y-134624405D01*
X77921071Y-134654643D01*
X77951310Y-134715119D01*
X77951310Y-134866310D01*
X77921071Y-134926786D01*
X77890833Y-134957024D01*
X77830357Y-134987262D01*
X77648929Y-134987262D01*
X77588452Y-134957024D01*
X77558214Y-134926786D01*
X78986548Y-135012262D02*
X78623690Y-135012262D01*
X78805119Y-135012262D02*
X78805119Y-134377262D01*
X78744643Y-134467976D01*
X78684167Y-134528452D01*
X78623690Y-134558690D01*
X79379643Y-134377262D02*
X79440119Y-134377262D01*
X79500595Y-134407500D01*
X79530833Y-134437738D01*
X79561071Y-134498214D01*
X79591310Y-134619167D01*
X79591310Y-134770357D01*
X79561071Y-134891310D01*
X79530833Y-134951786D01*
X79500595Y-134982024D01*
X79440119Y-135012262D01*
X79379643Y-135012262D01*
X79319167Y-134982024D01*
X79288929Y-134951786D01*
X79258690Y-134891310D01*
X79228452Y-134770357D01*
X79228452Y-134619167D01*
X79258690Y-134498214D01*
X79288929Y-134437738D01*
X79319167Y-134407500D01*
X79379643Y-134377262D01*
X79863452Y-135012262D02*
X79863452Y-134377262D01*
X80226310Y-135012262D02*
X79954167Y-134649405D01*
X80226310Y-134377262D02*
X79863452Y-134740119D01*
X74141786Y-121551786D02*
X74111548Y-121582024D01*
X74020833Y-121612262D01*
X73960357Y-121612262D01*
X73869643Y-121582024D01*
X73809167Y-121521548D01*
X73778928Y-121461071D01*
X73748690Y-121340119D01*
X73748690Y-121249405D01*
X73778928Y-121128452D01*
X73809167Y-121067976D01*
X73869643Y-121007500D01*
X73960357Y-120977262D01*
X74020833Y-120977262D01*
X74111548Y-121007500D01*
X74141786Y-121037738D01*
X74353452Y-120977262D02*
X74746548Y-120977262D01*
X74534881Y-121219167D01*
X74625595Y-121219167D01*
X74686071Y-121249405D01*
X74716309Y-121279643D01*
X74746548Y-121340119D01*
X74746548Y-121491310D01*
X74716309Y-121551786D01*
X74686071Y-121582024D01*
X74625595Y-121612262D01*
X74444167Y-121612262D01*
X74383690Y-121582024D01*
X74353452Y-121551786D01*
X75139643Y-120977262D02*
X75200119Y-120977262D01*
X75260595Y-121007500D01*
X75290833Y-121037738D01*
X75321071Y-121098214D01*
X75351310Y-121219167D01*
X75351310Y-121370357D01*
X75321071Y-121491310D01*
X75290833Y-121551786D01*
X75260595Y-121582024D01*
X75200119Y-121612262D01*
X75139643Y-121612262D01*
X75079167Y-121582024D01*
X75048929Y-121551786D01*
X75018690Y-121491310D01*
X74988452Y-121370357D01*
X74988452Y-121219167D01*
X75018690Y-121098214D01*
X75048929Y-121037738D01*
X75079167Y-121007500D01*
X75139643Y-120977262D01*
X39794167Y-142501786D02*
X39763929Y-142532024D01*
X39673214Y-142562262D01*
X39612738Y-142562262D01*
X39522024Y-142532024D01*
X39461548Y-142471548D01*
X39431309Y-142411071D01*
X39401071Y-142290119D01*
X39401071Y-142199405D01*
X39431309Y-142078452D01*
X39461548Y-142017976D01*
X39522024Y-141957500D01*
X39612738Y-141927262D01*
X39673214Y-141927262D01*
X39763929Y-141957500D01*
X39794167Y-141987738D01*
X40398929Y-142562262D02*
X40036071Y-142562262D01*
X40217500Y-142562262D02*
X40217500Y-141927262D01*
X40157024Y-142017976D01*
X40096548Y-142078452D01*
X40036071Y-142108690D01*
X39007976Y-143263929D02*
X39007976Y-143687262D01*
X38856786Y-143022024D02*
X38705595Y-143475595D01*
X39098691Y-143475595D01*
X39340595Y-143626786D02*
X39370834Y-143657024D01*
X39340595Y-143687262D01*
X39310357Y-143657024D01*
X39340595Y-143626786D01*
X39340595Y-143687262D01*
X39582500Y-143052262D02*
X40005834Y-143052262D01*
X39733691Y-143687262D01*
X40519881Y-143263929D02*
X40519881Y-143687262D01*
X40247738Y-143263929D02*
X40247738Y-143596548D01*
X40277977Y-143657024D01*
X40338453Y-143687262D01*
X40429167Y-143687262D01*
X40489643Y-143657024D01*
X40519881Y-143626786D01*
X41033929Y-143354643D02*
X40822262Y-143354643D01*
X40822262Y-143687262D02*
X40822262Y-143052262D01*
X41124643Y-143052262D01*
X57719167Y-145701786D02*
X57688929Y-145732024D01*
X57598214Y-145762262D01*
X57537738Y-145762262D01*
X57447024Y-145732024D01*
X57386548Y-145671548D01*
X57356309Y-145611071D01*
X57326071Y-145490119D01*
X57326071Y-145399405D01*
X57356309Y-145278452D01*
X57386548Y-145217976D01*
X57447024Y-145157500D01*
X57537738Y-145127262D01*
X57598214Y-145127262D01*
X57688929Y-145157500D01*
X57719167Y-145187738D01*
X57930833Y-145127262D02*
X58323929Y-145127262D01*
X58112262Y-145369167D01*
X58202976Y-145369167D01*
X58263452Y-145399405D01*
X58293690Y-145429643D01*
X58323929Y-145490119D01*
X58323929Y-145641310D01*
X58293690Y-145701786D01*
X58263452Y-145732024D01*
X58202976Y-145762262D01*
X58021548Y-145762262D01*
X57961071Y-145732024D01*
X57930833Y-145701786D01*
X79294167Y-139376786D02*
X79263929Y-139407024D01*
X79173214Y-139437262D01*
X79112738Y-139437262D01*
X79022024Y-139407024D01*
X78961548Y-139346548D01*
X78931309Y-139286071D01*
X78901071Y-139165119D01*
X78901071Y-139074405D01*
X78931309Y-138953452D01*
X78961548Y-138892976D01*
X79022024Y-138832500D01*
X79112738Y-138802262D01*
X79173214Y-138802262D01*
X79263929Y-138832500D01*
X79294167Y-138862738D01*
X79838452Y-138802262D02*
X79717500Y-138802262D01*
X79657024Y-138832500D01*
X79626786Y-138862738D01*
X79566309Y-138953452D01*
X79536071Y-139074405D01*
X79536071Y-139316310D01*
X79566309Y-139376786D01*
X79596548Y-139407024D01*
X79657024Y-139437262D01*
X79777976Y-139437262D01*
X79838452Y-139407024D01*
X79868690Y-139376786D01*
X79898929Y-139316310D01*
X79898929Y-139165119D01*
X79868690Y-139104643D01*
X79838452Y-139074405D01*
X79777976Y-139044167D01*
X79657024Y-139044167D01*
X79596548Y-139074405D01*
X79566309Y-139104643D01*
X79536071Y-139165119D01*
X82466786Y-133601786D02*
X82436548Y-133632024D01*
X82345833Y-133662262D01*
X82285357Y-133662262D01*
X82194643Y-133632024D01*
X82134167Y-133571548D01*
X82103928Y-133511071D01*
X82073690Y-133390119D01*
X82073690Y-133299405D01*
X82103928Y-133178452D01*
X82134167Y-133117976D01*
X82194643Y-133057500D01*
X82285357Y-133027262D01*
X82345833Y-133027262D01*
X82436548Y-133057500D01*
X82466786Y-133087738D01*
X83071548Y-133662262D02*
X82708690Y-133662262D01*
X82890119Y-133662262D02*
X82890119Y-133027262D01*
X82829643Y-133117976D01*
X82769167Y-133178452D01*
X82708690Y-133208690D01*
X83283214Y-133027262D02*
X83676310Y-133027262D01*
X83464643Y-133269167D01*
X83555357Y-133269167D01*
X83615833Y-133299405D01*
X83646071Y-133329643D01*
X83676310Y-133390119D01*
X83676310Y-133541310D01*
X83646071Y-133601786D01*
X83615833Y-133632024D01*
X83555357Y-133662262D01*
X83373929Y-133662262D01*
X83313452Y-133632024D01*
X83283214Y-133601786D01*
X109741786Y-136351786D02*
X109711548Y-136382024D01*
X109620833Y-136412262D01*
X109560357Y-136412262D01*
X109469643Y-136382024D01*
X109409167Y-136321548D01*
X109378928Y-136261071D01*
X109348690Y-136140119D01*
X109348690Y-136049405D01*
X109378928Y-135928452D01*
X109409167Y-135867976D01*
X109469643Y-135807500D01*
X109560357Y-135777262D01*
X109620833Y-135777262D01*
X109711548Y-135807500D01*
X109741786Y-135837738D01*
X110346548Y-136412262D02*
X109983690Y-136412262D01*
X110165119Y-136412262D02*
X110165119Y-135777262D01*
X110104643Y-135867976D01*
X110044167Y-135928452D01*
X109983690Y-135958690D01*
X110921071Y-135777262D02*
X110618690Y-135777262D01*
X110588452Y-136079643D01*
X110618690Y-136049405D01*
X110679167Y-136019167D01*
X110830357Y-136019167D01*
X110890833Y-136049405D01*
X110921071Y-136079643D01*
X110951310Y-136140119D01*
X110951310Y-136291310D01*
X110921071Y-136351786D01*
X110890833Y-136382024D01*
X110830357Y-136412262D01*
X110679167Y-136412262D01*
X110618690Y-136382024D01*
X110588452Y-136351786D01*
X41991786Y-122076786D02*
X41961548Y-122107024D01*
X41870833Y-122137262D01*
X41810357Y-122137262D01*
X41719643Y-122107024D01*
X41659167Y-122046548D01*
X41628928Y-121986071D01*
X41598690Y-121865119D01*
X41598690Y-121774405D01*
X41628928Y-121653452D01*
X41659167Y-121592976D01*
X41719643Y-121532500D01*
X41810357Y-121502262D01*
X41870833Y-121502262D01*
X41961548Y-121532500D01*
X41991786Y-121562738D01*
X42203452Y-121502262D02*
X42596548Y-121502262D01*
X42384881Y-121744167D01*
X42475595Y-121744167D01*
X42536071Y-121774405D01*
X42566309Y-121804643D01*
X42596548Y-121865119D01*
X42596548Y-122016310D01*
X42566309Y-122076786D01*
X42536071Y-122107024D01*
X42475595Y-122137262D01*
X42294167Y-122137262D01*
X42233690Y-122107024D01*
X42203452Y-122076786D01*
X43140833Y-121713929D02*
X43140833Y-122137262D01*
X42989643Y-121472024D02*
X42838452Y-121925595D01*
X43231548Y-121925595D01*
X74116786Y-132251786D02*
X74086548Y-132282024D01*
X73995833Y-132312262D01*
X73935357Y-132312262D01*
X73844643Y-132282024D01*
X73784167Y-132221548D01*
X73753928Y-132161071D01*
X73723690Y-132040119D01*
X73723690Y-131949405D01*
X73753928Y-131828452D01*
X73784167Y-131767976D01*
X73844643Y-131707500D01*
X73935357Y-131677262D01*
X73995833Y-131677262D01*
X74086548Y-131707500D01*
X74116786Y-131737738D01*
X74328452Y-131677262D02*
X74721548Y-131677262D01*
X74509881Y-131919167D01*
X74600595Y-131919167D01*
X74661071Y-131949405D01*
X74691309Y-131979643D01*
X74721548Y-132040119D01*
X74721548Y-132191310D01*
X74691309Y-132251786D01*
X74661071Y-132282024D01*
X74600595Y-132312262D01*
X74419167Y-132312262D01*
X74358690Y-132282024D01*
X74328452Y-132251786D01*
X75296071Y-131677262D02*
X74993690Y-131677262D01*
X74963452Y-131979643D01*
X74993690Y-131949405D01*
X75054167Y-131919167D01*
X75205357Y-131919167D01*
X75265833Y-131949405D01*
X75296071Y-131979643D01*
X75326310Y-132040119D01*
X75326310Y-132191310D01*
X75296071Y-132251786D01*
X75265833Y-132282024D01*
X75205357Y-132312262D01*
X75054167Y-132312262D01*
X74993690Y-132282024D01*
X74963452Y-132251786D01*
X43166786Y-129826786D02*
X43136548Y-129857024D01*
X43045833Y-129887262D01*
X42985357Y-129887262D01*
X42894643Y-129857024D01*
X42834167Y-129796548D01*
X42803928Y-129736071D01*
X42773690Y-129615119D01*
X42773690Y-129524405D01*
X42803928Y-129403452D01*
X42834167Y-129342976D01*
X42894643Y-129282500D01*
X42985357Y-129252262D01*
X43045833Y-129252262D01*
X43136548Y-129282500D01*
X43166786Y-129312738D01*
X43378452Y-129252262D02*
X43771548Y-129252262D01*
X43559881Y-129494167D01*
X43650595Y-129494167D01*
X43711071Y-129524405D01*
X43741309Y-129554643D01*
X43771548Y-129615119D01*
X43771548Y-129766310D01*
X43741309Y-129826786D01*
X43711071Y-129857024D01*
X43650595Y-129887262D01*
X43469167Y-129887262D01*
X43408690Y-129857024D01*
X43378452Y-129826786D01*
X44315833Y-129252262D02*
X44194881Y-129252262D01*
X44134405Y-129282500D01*
X44104167Y-129312738D01*
X44043690Y-129403452D01*
X44013452Y-129524405D01*
X44013452Y-129766310D01*
X44043690Y-129826786D01*
X44073929Y-129857024D01*
X44134405Y-129887262D01*
X44255357Y-129887262D01*
X44315833Y-129857024D01*
X44346071Y-129826786D01*
X44376310Y-129766310D01*
X44376310Y-129615119D01*
X44346071Y-129554643D01*
X44315833Y-129524405D01*
X44255357Y-129494167D01*
X44134405Y-129494167D01*
X44073929Y-129524405D01*
X44043690Y-129554643D01*
X44013452Y-129615119D01*
X69566786Y-110751786D02*
X69536548Y-110782024D01*
X69445833Y-110812262D01*
X69385357Y-110812262D01*
X69294643Y-110782024D01*
X69234167Y-110721548D01*
X69203928Y-110661071D01*
X69173690Y-110540119D01*
X69173690Y-110449405D01*
X69203928Y-110328452D01*
X69234167Y-110267976D01*
X69294643Y-110207500D01*
X69385357Y-110177262D01*
X69445833Y-110177262D01*
X69536548Y-110207500D01*
X69566786Y-110237738D01*
X69778452Y-110177262D02*
X70171548Y-110177262D01*
X69959881Y-110419167D01*
X70050595Y-110419167D01*
X70111071Y-110449405D01*
X70141309Y-110479643D01*
X70171548Y-110540119D01*
X70171548Y-110691310D01*
X70141309Y-110751786D01*
X70111071Y-110782024D01*
X70050595Y-110812262D01*
X69869167Y-110812262D01*
X69808690Y-110782024D01*
X69778452Y-110751786D01*
X70534405Y-110449405D02*
X70473929Y-110419167D01*
X70443690Y-110388929D01*
X70413452Y-110328452D01*
X70413452Y-110298214D01*
X70443690Y-110237738D01*
X70473929Y-110207500D01*
X70534405Y-110177262D01*
X70655357Y-110177262D01*
X70715833Y-110207500D01*
X70746071Y-110237738D01*
X70776310Y-110298214D01*
X70776310Y-110328452D01*
X70746071Y-110388929D01*
X70715833Y-110419167D01*
X70655357Y-110449405D01*
X70534405Y-110449405D01*
X70473929Y-110479643D01*
X70443690Y-110509881D01*
X70413452Y-110570357D01*
X70413452Y-110691310D01*
X70443690Y-110751786D01*
X70473929Y-110782024D01*
X70534405Y-110812262D01*
X70655357Y-110812262D01*
X70715833Y-110782024D01*
X70746071Y-110751786D01*
X70776310Y-110691310D01*
X70776310Y-110570357D01*
X70746071Y-110509881D01*
X70715833Y-110479643D01*
X70655357Y-110449405D01*
X74141786Y-128426786D02*
X74111548Y-128457024D01*
X74020833Y-128487262D01*
X73960357Y-128487262D01*
X73869643Y-128457024D01*
X73809167Y-128396548D01*
X73778928Y-128336071D01*
X73748690Y-128215119D01*
X73748690Y-128124405D01*
X73778928Y-128003452D01*
X73809167Y-127942976D01*
X73869643Y-127882500D01*
X73960357Y-127852262D01*
X74020833Y-127852262D01*
X74111548Y-127882500D01*
X74141786Y-127912738D01*
X74353452Y-127852262D02*
X74746548Y-127852262D01*
X74534881Y-128094167D01*
X74625595Y-128094167D01*
X74686071Y-128124405D01*
X74716309Y-128154643D01*
X74746548Y-128215119D01*
X74746548Y-128366310D01*
X74716309Y-128426786D01*
X74686071Y-128457024D01*
X74625595Y-128487262D01*
X74444167Y-128487262D01*
X74383690Y-128457024D01*
X74353452Y-128426786D01*
X75048929Y-128487262D02*
X75169881Y-128487262D01*
X75230357Y-128457024D01*
X75260595Y-128426786D01*
X75321071Y-128336071D01*
X75351310Y-128215119D01*
X75351310Y-127973214D01*
X75321071Y-127912738D01*
X75290833Y-127882500D01*
X75230357Y-127852262D01*
X75109405Y-127852262D01*
X75048929Y-127882500D01*
X75018690Y-127912738D01*
X74988452Y-127973214D01*
X74988452Y-128124405D01*
X75018690Y-128184881D01*
X75048929Y-128215119D01*
X75109405Y-128245357D01*
X75230357Y-128245357D01*
X75290833Y-128215119D01*
X75321071Y-128184881D01*
X75351310Y-128124405D01*
X59421786Y-93516786D02*
X59391548Y-93547024D01*
X59300833Y-93577262D01*
X59240357Y-93577262D01*
X59149643Y-93547024D01*
X59089167Y-93486548D01*
X59058928Y-93426071D01*
X59028690Y-93305119D01*
X59028690Y-93214405D01*
X59058928Y-93093452D01*
X59089167Y-93032976D01*
X59149643Y-92972500D01*
X59240357Y-92942262D01*
X59300833Y-92942262D01*
X59391548Y-92972500D01*
X59421786Y-93002738D01*
X59966071Y-93153929D02*
X59966071Y-93577262D01*
X59814881Y-92912024D02*
X59663690Y-93365595D01*
X60056786Y-93365595D01*
X60419643Y-92942262D02*
X60480119Y-92942262D01*
X60540595Y-92972500D01*
X60570833Y-93002738D01*
X60601071Y-93063214D01*
X60631310Y-93184167D01*
X60631310Y-93335357D01*
X60601071Y-93456310D01*
X60570833Y-93516786D01*
X60540595Y-93547024D01*
X60480119Y-93577262D01*
X60419643Y-93577262D01*
X60359167Y-93547024D01*
X60328929Y-93516786D01*
X60298690Y-93456310D01*
X60268452Y-93335357D01*
X60268452Y-93184167D01*
X60298690Y-93063214D01*
X60328929Y-93002738D01*
X60359167Y-92972500D01*
X60419643Y-92942262D01*
X71541786Y-132326786D02*
X71511548Y-132357024D01*
X71420833Y-132387262D01*
X71360357Y-132387262D01*
X71269643Y-132357024D01*
X71209167Y-132296548D01*
X71178928Y-132236071D01*
X71148690Y-132115119D01*
X71148690Y-132024405D01*
X71178928Y-131903452D01*
X71209167Y-131842976D01*
X71269643Y-131782500D01*
X71360357Y-131752262D01*
X71420833Y-131752262D01*
X71511548Y-131782500D01*
X71541786Y-131812738D01*
X72086071Y-131963929D02*
X72086071Y-132387262D01*
X71934881Y-131722024D02*
X71783690Y-132175595D01*
X72176786Y-132175595D01*
X72751310Y-132387262D02*
X72388452Y-132387262D01*
X72569881Y-132387262D02*
X72569881Y-131752262D01*
X72509405Y-131842976D01*
X72448929Y-131903452D01*
X72388452Y-131933690D01*
X50441786Y-90616786D02*
X50411548Y-90647024D01*
X50320833Y-90677262D01*
X50260357Y-90677262D01*
X50169643Y-90647024D01*
X50109167Y-90586548D01*
X50078928Y-90526071D01*
X50048690Y-90405119D01*
X50048690Y-90314405D01*
X50078928Y-90193452D01*
X50109167Y-90132976D01*
X50169643Y-90072500D01*
X50260357Y-90042262D01*
X50320833Y-90042262D01*
X50411548Y-90072500D01*
X50441786Y-90102738D01*
X50986071Y-90253929D02*
X50986071Y-90677262D01*
X50834881Y-90012024D02*
X50683690Y-90465595D01*
X51076786Y-90465595D01*
X51258214Y-90042262D02*
X51651310Y-90042262D01*
X51439643Y-90284167D01*
X51530357Y-90284167D01*
X51590833Y-90314405D01*
X51621071Y-90344643D01*
X51651310Y-90405119D01*
X51651310Y-90556310D01*
X51621071Y-90616786D01*
X51590833Y-90647024D01*
X51530357Y-90677262D01*
X51348929Y-90677262D01*
X51288452Y-90647024D01*
X51258214Y-90616786D01*
X35066786Y-90376786D02*
X35036548Y-90407024D01*
X34945833Y-90437262D01*
X34885357Y-90437262D01*
X34794643Y-90407024D01*
X34734167Y-90346548D01*
X34703928Y-90286071D01*
X34673690Y-90165119D01*
X34673690Y-90074405D01*
X34703928Y-89953452D01*
X34734167Y-89892976D01*
X34794643Y-89832500D01*
X34885357Y-89802262D01*
X34945833Y-89802262D01*
X35036548Y-89832500D01*
X35066786Y-89862738D01*
X35611071Y-90013929D02*
X35611071Y-90437262D01*
X35459881Y-89772024D02*
X35308690Y-90225595D01*
X35701786Y-90225595D01*
X36246071Y-89802262D02*
X35943690Y-89802262D01*
X35913452Y-90104643D01*
X35943690Y-90074405D01*
X36004167Y-90044167D01*
X36155357Y-90044167D01*
X36215833Y-90074405D01*
X36246071Y-90104643D01*
X36276310Y-90165119D01*
X36276310Y-90316310D01*
X36246071Y-90376786D01*
X36215833Y-90407024D01*
X36155357Y-90437262D01*
X36004167Y-90437262D01*
X35943690Y-90407024D01*
X35913452Y-90376786D01*
X75166786Y-110751786D02*
X75136548Y-110782024D01*
X75045833Y-110812262D01*
X74985357Y-110812262D01*
X74894643Y-110782024D01*
X74834167Y-110721548D01*
X74803928Y-110661071D01*
X74773690Y-110540119D01*
X74773690Y-110449405D01*
X74803928Y-110328452D01*
X74834167Y-110267976D01*
X74894643Y-110207500D01*
X74985357Y-110177262D01*
X75045833Y-110177262D01*
X75136548Y-110207500D01*
X75166786Y-110237738D01*
X75711071Y-110388929D02*
X75711071Y-110812262D01*
X75559881Y-110147024D02*
X75408690Y-110600595D01*
X75801786Y-110600595D01*
X76315833Y-110177262D02*
X76194881Y-110177262D01*
X76134405Y-110207500D01*
X76104167Y-110237738D01*
X76043690Y-110328452D01*
X76013452Y-110449405D01*
X76013452Y-110691310D01*
X76043690Y-110751786D01*
X76073929Y-110782024D01*
X76134405Y-110812262D01*
X76255357Y-110812262D01*
X76315833Y-110782024D01*
X76346071Y-110751786D01*
X76376310Y-110691310D01*
X76376310Y-110540119D01*
X76346071Y-110479643D01*
X76315833Y-110449405D01*
X76255357Y-110419167D01*
X76134405Y-110419167D01*
X76073929Y-110449405D01*
X76043690Y-110479643D01*
X76013452Y-110540119D01*
X46091786Y-135926786D02*
X46061548Y-135957024D01*
X45970833Y-135987262D01*
X45910357Y-135987262D01*
X45819643Y-135957024D01*
X45759167Y-135896548D01*
X45728928Y-135836071D01*
X45698690Y-135715119D01*
X45698690Y-135624405D01*
X45728928Y-135503452D01*
X45759167Y-135442976D01*
X45819643Y-135382500D01*
X45910357Y-135352262D01*
X45970833Y-135352262D01*
X46061548Y-135382500D01*
X46091786Y-135412738D01*
X46636071Y-135563929D02*
X46636071Y-135987262D01*
X46484881Y-135322024D02*
X46333690Y-135775595D01*
X46726786Y-135775595D01*
X46908214Y-135352262D02*
X47331548Y-135352262D01*
X47059405Y-135987262D01*
X36241190Y-104452262D02*
X36241190Y-104966310D01*
X36271429Y-105026786D01*
X36301667Y-105057024D01*
X36362143Y-105087262D01*
X36483095Y-105087262D01*
X36543571Y-105057024D01*
X36573810Y-105026786D01*
X36604048Y-104966310D01*
X36604048Y-104452262D01*
X36936667Y-105087262D02*
X37057619Y-105087262D01*
X37118095Y-105057024D01*
X37148333Y-105026786D01*
X37208809Y-104936071D01*
X37239048Y-104815119D01*
X37239048Y-104573214D01*
X37208809Y-104512738D01*
X37178571Y-104482500D01*
X37118095Y-104452262D01*
X36997143Y-104452262D01*
X36936667Y-104482500D01*
X36906428Y-104512738D01*
X36876190Y-104573214D01*
X36876190Y-104724405D01*
X36906428Y-104784881D01*
X36936667Y-104815119D01*
X36997143Y-104845357D01*
X37118095Y-104845357D01*
X37178571Y-104815119D01*
X37208809Y-104784881D01*
X37239048Y-104724405D01*
X36243451Y-105957024D02*
X36334166Y-105987262D01*
X36485356Y-105987262D01*
X36545832Y-105957024D01*
X36576070Y-105926786D01*
X36606309Y-105866310D01*
X36606309Y-105805833D01*
X36576070Y-105745357D01*
X36545832Y-105715119D01*
X36485356Y-105684881D01*
X36364404Y-105654643D01*
X36303928Y-105624405D01*
X36273689Y-105594167D01*
X36243451Y-105533690D01*
X36243451Y-105473214D01*
X36273689Y-105412738D01*
X36303928Y-105382500D01*
X36364404Y-105352262D01*
X36515594Y-105352262D01*
X36606309Y-105382500D01*
X36878451Y-105987262D02*
X36878451Y-105352262D01*
X37029642Y-105352262D01*
X37120356Y-105382500D01*
X37180832Y-105442976D01*
X37211071Y-105503452D01*
X37241309Y-105624405D01*
X37241309Y-105715119D01*
X37211071Y-105836071D01*
X37180832Y-105896548D01*
X37120356Y-105957024D01*
X37029642Y-105987262D01*
X36878451Y-105987262D01*
X37876309Y-105987262D02*
X37664642Y-105684881D01*
X37513451Y-105987262D02*
X37513451Y-105352262D01*
X37755356Y-105352262D01*
X37815832Y-105382500D01*
X37846071Y-105412738D01*
X37876309Y-105473214D01*
X37876309Y-105563929D01*
X37846071Y-105624405D01*
X37815832Y-105654643D01*
X37755356Y-105684881D01*
X37513451Y-105684881D01*
X38118213Y-105805833D02*
X38420594Y-105805833D01*
X38057737Y-105987262D02*
X38269404Y-105352262D01*
X38481071Y-105987262D01*
X38692737Y-105987262D02*
X38692737Y-105352262D01*
X38904404Y-105805833D01*
X39116071Y-105352262D01*
X39116071Y-105987262D01*
X39267261Y-106047738D02*
X39751071Y-106047738D01*
X39902261Y-105987262D02*
X39902261Y-105352262D01*
X40113928Y-105805833D01*
X40325595Y-105352262D01*
X40325595Y-105987262D01*
X40537261Y-105352262D02*
X40900118Y-105352262D01*
X40718690Y-105987262D02*
X40718690Y-105352262D01*
X41383928Y-105563929D02*
X41383928Y-105987262D01*
X41232738Y-105322024D02*
X41081547Y-105775595D01*
X41474643Y-105775595D01*
X41807262Y-105624405D02*
X41746786Y-105594167D01*
X41716547Y-105563929D01*
X41686309Y-105503452D01*
X41686309Y-105473214D01*
X41716547Y-105412738D01*
X41746786Y-105382500D01*
X41807262Y-105352262D01*
X41928214Y-105352262D01*
X41988690Y-105382500D01*
X42018928Y-105412738D01*
X42049167Y-105473214D01*
X42049167Y-105503452D01*
X42018928Y-105563929D01*
X41988690Y-105594167D01*
X41928214Y-105624405D01*
X41807262Y-105624405D01*
X41746786Y-105654643D01*
X41716547Y-105684881D01*
X41686309Y-105745357D01*
X41686309Y-105866310D01*
X41716547Y-105926786D01*
X41746786Y-105957024D01*
X41807262Y-105987262D01*
X41928214Y-105987262D01*
X41988690Y-105957024D01*
X42018928Y-105926786D01*
X42049167Y-105866310D01*
X42049167Y-105745357D01*
X42018928Y-105684881D01*
X41988690Y-105654643D01*
X41928214Y-105624405D01*
X42170119Y-106047738D02*
X42653929Y-106047738D01*
X42744643Y-105987262D02*
X43077262Y-105563929D01*
X42744643Y-105563929D02*
X43077262Y-105987262D01*
X43651787Y-105987262D02*
X43288929Y-105987262D01*
X43470358Y-105987262D02*
X43470358Y-105352262D01*
X43409882Y-105442976D01*
X43349406Y-105503452D01*
X43288929Y-105533690D01*
X44196072Y-105352262D02*
X44075120Y-105352262D01*
X44014644Y-105382500D01*
X43984406Y-105412738D01*
X43923929Y-105503452D01*
X43893691Y-105624405D01*
X43893691Y-105866310D01*
X43923929Y-105926786D01*
X43954168Y-105957024D01*
X44014644Y-105987262D01*
X44135596Y-105987262D01*
X44196072Y-105957024D01*
X44226310Y-105926786D01*
X44256549Y-105866310D01*
X44256549Y-105715119D01*
X44226310Y-105654643D01*
X44196072Y-105624405D01*
X44135596Y-105594167D01*
X44014644Y-105594167D01*
X43954168Y-105624405D01*
X43923929Y-105654643D01*
X43893691Y-105715119D01*
X42441786Y-118576786D02*
X42411548Y-118607024D01*
X42320833Y-118637262D01*
X42260357Y-118637262D01*
X42169643Y-118607024D01*
X42109167Y-118546548D01*
X42078928Y-118486071D01*
X42048690Y-118365119D01*
X42048690Y-118274405D01*
X42078928Y-118153452D01*
X42109167Y-118092976D01*
X42169643Y-118032500D01*
X42260357Y-118002262D01*
X42320833Y-118002262D01*
X42411548Y-118032500D01*
X42441786Y-118062738D01*
X42653452Y-118002262D02*
X43046548Y-118002262D01*
X42834881Y-118244167D01*
X42925595Y-118244167D01*
X42986071Y-118274405D01*
X43016309Y-118304643D01*
X43046548Y-118365119D01*
X43046548Y-118516310D01*
X43016309Y-118576786D01*
X42986071Y-118607024D01*
X42925595Y-118637262D01*
X42744167Y-118637262D01*
X42683690Y-118607024D01*
X42653452Y-118576786D01*
X43258214Y-118002262D02*
X43651310Y-118002262D01*
X43439643Y-118244167D01*
X43530357Y-118244167D01*
X43590833Y-118274405D01*
X43621071Y-118304643D01*
X43651310Y-118365119D01*
X43651310Y-118516310D01*
X43621071Y-118576786D01*
X43590833Y-118607024D01*
X43530357Y-118637262D01*
X43348929Y-118637262D01*
X43288452Y-118607024D01*
X43258214Y-118576786D01*
X114591190Y-132027262D02*
X114591190Y-132541310D01*
X114621429Y-132601786D01*
X114651667Y-132632024D01*
X114712143Y-132662262D01*
X114833095Y-132662262D01*
X114893571Y-132632024D01*
X114923810Y-132601786D01*
X114954048Y-132541310D01*
X114954048Y-132027262D01*
X115558809Y-132027262D02*
X115256428Y-132027262D01*
X115226190Y-132329643D01*
X115256428Y-132299405D01*
X115316905Y-132269167D01*
X115468095Y-132269167D01*
X115528571Y-132299405D01*
X115558809Y-132329643D01*
X115589048Y-132390119D01*
X115589048Y-132541310D01*
X115558809Y-132601786D01*
X115528571Y-132632024D01*
X115468095Y-132662262D01*
X115316905Y-132662262D01*
X115256428Y-132632024D01*
X115226190Y-132601786D01*
X114935475Y-133637262D02*
X114633094Y-133637262D01*
X114633094Y-133002262D01*
X115147142Y-133637262D02*
X115147142Y-133002262D01*
X115298333Y-133002262D01*
X115389047Y-133032500D01*
X115449523Y-133092976D01*
X115479762Y-133153452D01*
X115510000Y-133274405D01*
X115510000Y-133365119D01*
X115479762Y-133486071D01*
X115449523Y-133546548D01*
X115389047Y-133607024D01*
X115298333Y-133637262D01*
X115147142Y-133637262D01*
X116114762Y-133637262D02*
X115751904Y-133637262D01*
X115933333Y-133637262D02*
X115933333Y-133002262D01*
X115872857Y-133092976D01*
X115812381Y-133153452D01*
X115751904Y-133183690D01*
X116719524Y-133637262D02*
X116356666Y-133637262D01*
X116538095Y-133637262D02*
X116538095Y-133002262D01*
X116477619Y-133092976D01*
X116417143Y-133153452D01*
X116356666Y-133183690D01*
X117324286Y-133637262D02*
X116961428Y-133637262D01*
X117142857Y-133637262D02*
X117142857Y-133002262D01*
X117082381Y-133092976D01*
X117021905Y-133153452D01*
X116961428Y-133183690D01*
X117535952Y-133002262D02*
X117959286Y-133002262D01*
X117687143Y-133637262D01*
X118170952Y-133607024D02*
X118261667Y-133637262D01*
X118412857Y-133637262D01*
X118473333Y-133607024D01*
X118503571Y-133576786D01*
X118533810Y-133516310D01*
X118533810Y-133455833D01*
X118503571Y-133395357D01*
X118473333Y-133365119D01*
X118412857Y-133334881D01*
X118291905Y-133304643D01*
X118231429Y-133274405D01*
X118201190Y-133244167D01*
X118170952Y-133183690D01*
X118170952Y-133123214D01*
X118201190Y-133062738D01*
X118231429Y-133032500D01*
X118291905Y-133002262D01*
X118443095Y-133002262D01*
X118533810Y-133032500D01*
X118745476Y-133002262D02*
X119138572Y-133002262D01*
X118926905Y-133244167D01*
X119017619Y-133244167D01*
X119078095Y-133274405D01*
X119108333Y-133304643D01*
X119138572Y-133365119D01*
X119138572Y-133516310D01*
X119108333Y-133576786D01*
X119078095Y-133607024D01*
X119017619Y-133637262D01*
X118836191Y-133637262D01*
X118775714Y-133607024D01*
X118745476Y-133576786D01*
X119350238Y-133002262D02*
X119743334Y-133002262D01*
X119531667Y-133244167D01*
X119622381Y-133244167D01*
X119682857Y-133274405D01*
X119713095Y-133304643D01*
X119743334Y-133365119D01*
X119743334Y-133516310D01*
X119713095Y-133576786D01*
X119682857Y-133607024D01*
X119622381Y-133637262D01*
X119440953Y-133637262D01*
X119380476Y-133607024D01*
X119350238Y-133576786D01*
X120378334Y-133576786D02*
X120348096Y-133607024D01*
X120257381Y-133637262D01*
X120196905Y-133637262D01*
X120106191Y-133607024D01*
X120045715Y-133546548D01*
X120015476Y-133486071D01*
X119985238Y-133365119D01*
X119985238Y-133274405D01*
X120015476Y-133153452D01*
X120045715Y-133092976D01*
X120106191Y-133032500D01*
X120196905Y-133002262D01*
X120257381Y-133002262D01*
X120348096Y-133032500D01*
X120378334Y-133062738D01*
X120559762Y-133002262D02*
X120922619Y-133002262D01*
X120741191Y-133637262D02*
X120741191Y-133002262D01*
X121497144Y-133637262D02*
X121285477Y-133334881D01*
X121134286Y-133637262D02*
X121134286Y-133002262D01*
X121376191Y-133002262D01*
X121436667Y-133032500D01*
X121466906Y-133062738D01*
X121497144Y-133123214D01*
X121497144Y-133213929D01*
X121466906Y-133274405D01*
X121436667Y-133304643D01*
X121376191Y-133334881D01*
X121134286Y-133334881D01*
X56356785Y-82627262D02*
X56356785Y-83080833D01*
X56326547Y-83171548D01*
X56266071Y-83232024D01*
X56175356Y-83262262D01*
X56114880Y-83262262D01*
X56568452Y-82627262D02*
X56931309Y-82627262D01*
X56749881Y-83262262D02*
X56749881Y-82627262D01*
X57112738Y-83080833D02*
X57415119Y-83080833D01*
X57052262Y-83262262D02*
X57263929Y-82627262D01*
X57475596Y-83262262D01*
X58019882Y-82657500D02*
X57959405Y-82627262D01*
X57868691Y-82627262D01*
X57777977Y-82657500D01*
X57717501Y-82717976D01*
X57687262Y-82778452D01*
X57657024Y-82899405D01*
X57657024Y-82990119D01*
X57687262Y-83111071D01*
X57717501Y-83171548D01*
X57777977Y-83232024D01*
X57868691Y-83262262D01*
X57929167Y-83262262D01*
X58019882Y-83232024D01*
X58050120Y-83201786D01*
X58050120Y-82990119D01*
X57929167Y-82990119D01*
X58654882Y-83262262D02*
X58292024Y-83262262D01*
X58473453Y-83262262D02*
X58473453Y-82627262D01*
X58412977Y-82717976D01*
X58352501Y-82778452D01*
X58292024Y-82808690D01*
X59624881Y-82352262D02*
X59987738Y-82352262D01*
X59806310Y-82987262D02*
X59806310Y-82352262D01*
X60199405Y-82987262D02*
X60199405Y-82352262D01*
X60350596Y-82352262D01*
X60441310Y-82382500D01*
X60501786Y-82442976D01*
X60532025Y-82503452D01*
X60562263Y-82624405D01*
X60562263Y-82715119D01*
X60532025Y-82836071D01*
X60501786Y-82896548D01*
X60441310Y-82957024D01*
X60350596Y-82987262D01*
X60199405Y-82987262D01*
X60834405Y-82987262D02*
X60834405Y-82352262D01*
X69608571Y-82352262D02*
X69971428Y-82352262D01*
X69790000Y-82987262D02*
X69790000Y-82352262D01*
X70545953Y-82926786D02*
X70515715Y-82957024D01*
X70425000Y-82987262D01*
X70364524Y-82987262D01*
X70273810Y-82957024D01*
X70213334Y-82896548D01*
X70183095Y-82836071D01*
X70152857Y-82715119D01*
X70152857Y-82624405D01*
X70183095Y-82503452D01*
X70213334Y-82442976D01*
X70273810Y-82382500D01*
X70364524Y-82352262D01*
X70425000Y-82352262D01*
X70515715Y-82382500D01*
X70545953Y-82412738D01*
X70818095Y-82987262D02*
X70818095Y-82352262D01*
X71180953Y-82987262D02*
X70908810Y-82624405D01*
X71180953Y-82352262D02*
X70818095Y-82715119D01*
X67093452Y-82352262D02*
X67456309Y-82352262D01*
X67274881Y-82987262D02*
X67274881Y-82352262D01*
X67667976Y-82987262D02*
X67667976Y-82352262D01*
X67819167Y-82352262D01*
X67909881Y-82382500D01*
X67970357Y-82442976D01*
X68000596Y-82503452D01*
X68030834Y-82624405D01*
X68030834Y-82715119D01*
X68000596Y-82836071D01*
X67970357Y-82896548D01*
X67909881Y-82957024D01*
X67819167Y-82987262D01*
X67667976Y-82987262D01*
X68423929Y-82352262D02*
X68544881Y-82352262D01*
X68605357Y-82382500D01*
X68665834Y-82442976D01*
X68696072Y-82563929D01*
X68696072Y-82775595D01*
X68665834Y-82896548D01*
X68605357Y-82957024D01*
X68544881Y-82987262D01*
X68423929Y-82987262D01*
X68363453Y-82957024D01*
X68302976Y-82896548D01*
X68272738Y-82775595D01*
X68272738Y-82563929D01*
X68302976Y-82442976D01*
X68363453Y-82382500D01*
X68423929Y-82352262D01*
X64503333Y-81677262D02*
X64866190Y-81677262D01*
X64684762Y-82312262D02*
X64684762Y-81677262D01*
X65077857Y-82312262D02*
X65077857Y-81677262D01*
X65289524Y-82130833D01*
X65501191Y-81677262D01*
X65501191Y-82312262D01*
X65773333Y-82282024D02*
X65864048Y-82312262D01*
X66015238Y-82312262D01*
X66075714Y-82282024D01*
X66105952Y-82251786D01*
X66136191Y-82191310D01*
X66136191Y-82130833D01*
X66105952Y-82070357D01*
X66075714Y-82040119D01*
X66015238Y-82009881D01*
X65894286Y-81979643D01*
X65833810Y-81949405D01*
X65803571Y-81919167D01*
X65773333Y-81858690D01*
X65773333Y-81798214D01*
X65803571Y-81737738D01*
X65833810Y-81707500D01*
X65894286Y-81677262D01*
X66045476Y-81677262D01*
X66136191Y-81707500D01*
X66811428Y-89152262D02*
X67023095Y-89787262D01*
X67234762Y-89152262D01*
X67809286Y-89787262D02*
X67597619Y-89484881D01*
X67446428Y-89787262D02*
X67446428Y-89152262D01*
X67688333Y-89152262D01*
X67748809Y-89182500D01*
X67779048Y-89212738D01*
X67809286Y-89273214D01*
X67809286Y-89363929D01*
X67779048Y-89424405D01*
X67748809Y-89454643D01*
X67688333Y-89484881D01*
X67446428Y-89484881D01*
X68081428Y-89454643D02*
X68293095Y-89454643D01*
X68383809Y-89787262D02*
X68081428Y-89787262D01*
X68081428Y-89152262D01*
X68383809Y-89152262D01*
X68867619Y-89454643D02*
X68655952Y-89454643D01*
X68655952Y-89787262D02*
X68655952Y-89152262D01*
X68958333Y-89152262D01*
X69941191Y-89182500D02*
X69880714Y-89152262D01*
X69790000Y-89152262D01*
X69699286Y-89182500D01*
X69638810Y-89242976D01*
X69608571Y-89303452D01*
X69578333Y-89424405D01*
X69578333Y-89515119D01*
X69608571Y-89636071D01*
X69638810Y-89696548D01*
X69699286Y-89757024D01*
X69790000Y-89787262D01*
X69850476Y-89787262D01*
X69941191Y-89757024D01*
X69971429Y-89726786D01*
X69971429Y-89515119D01*
X69850476Y-89515119D01*
X70243571Y-89787262D02*
X70243571Y-89152262D01*
X70606429Y-89787262D01*
X70606429Y-89152262D01*
X70908809Y-89787262D02*
X70908809Y-89152262D01*
X71060000Y-89152262D01*
X71150714Y-89182500D01*
X71211190Y-89242976D01*
X71241429Y-89303452D01*
X71271667Y-89424405D01*
X71271667Y-89515119D01*
X71241429Y-89636071D01*
X71211190Y-89696548D01*
X71150714Y-89757024D01*
X71060000Y-89787262D01*
X70908809Y-89787262D01*
X59791191Y-89182500D02*
X59730714Y-89152262D01*
X59640000Y-89152262D01*
X59549286Y-89182500D01*
X59488810Y-89242976D01*
X59458571Y-89303452D01*
X59428333Y-89424405D01*
X59428333Y-89515119D01*
X59458571Y-89636071D01*
X59488810Y-89696548D01*
X59549286Y-89757024D01*
X59640000Y-89787262D01*
X59700476Y-89787262D01*
X59791191Y-89757024D01*
X59821429Y-89726786D01*
X59821429Y-89515119D01*
X59700476Y-89515119D01*
X60093571Y-89787262D02*
X60093571Y-89152262D01*
X60456429Y-89787262D01*
X60456429Y-89152262D01*
X60758809Y-89787262D02*
X60758809Y-89152262D01*
X60910000Y-89152262D01*
X61000714Y-89182500D01*
X61061190Y-89242976D01*
X61091429Y-89303452D01*
X61121667Y-89424405D01*
X61121667Y-89515119D01*
X61091429Y-89636071D01*
X61061190Y-89696548D01*
X61000714Y-89757024D01*
X60910000Y-89787262D01*
X60758809Y-89787262D01*
D18*
X104651857Y-105041857D02*
X104869571Y-105114429D01*
X105232428Y-105114429D01*
X105377571Y-105041857D01*
X105450142Y-104969286D01*
X105522714Y-104824143D01*
X105522714Y-104679000D01*
X105450142Y-104533857D01*
X105377571Y-104461286D01*
X105232428Y-104388714D01*
X104942142Y-104316143D01*
X104797000Y-104243571D01*
X104724428Y-104171000D01*
X104651857Y-104025857D01*
X104651857Y-103880714D01*
X104724428Y-103735571D01*
X104797000Y-103663000D01*
X104942142Y-103590429D01*
X105305000Y-103590429D01*
X105522714Y-103663000D01*
X106175857Y-105114429D02*
X106175857Y-103590429D01*
X106538714Y-103590429D01*
X106756429Y-103663000D01*
X106901571Y-103808143D01*
X106974143Y-103953286D01*
X107046714Y-104243571D01*
X107046714Y-104461286D01*
X106974143Y-104751571D01*
X106901571Y-104896714D01*
X106756429Y-105041857D01*
X106538714Y-105114429D01*
X106175857Y-105114429D01*
X108498143Y-105114429D02*
X107627286Y-105114429D01*
X108062714Y-105114429D02*
X108062714Y-103590429D01*
X107917571Y-103808143D01*
X107772429Y-103953286D01*
X107627286Y-104025857D01*
X83169428Y-95691857D02*
X83387142Y-95764429D01*
X83749999Y-95764429D01*
X83895142Y-95691857D01*
X83967713Y-95619286D01*
X84040285Y-95474143D01*
X84040285Y-95329000D01*
X83967713Y-95183857D01*
X83895142Y-95111286D01*
X83749999Y-95038714D01*
X83459713Y-94966143D01*
X83314571Y-94893571D01*
X83241999Y-94821000D01*
X83169428Y-94675857D01*
X83169428Y-94530714D01*
X83241999Y-94385571D01*
X83314571Y-94313000D01*
X83459713Y-94240429D01*
X83822571Y-94240429D01*
X84040285Y-94313000D01*
X85564285Y-95619286D02*
X85491714Y-95691857D01*
X85274000Y-95764429D01*
X85128857Y-95764429D01*
X84911142Y-95691857D01*
X84766000Y-95546714D01*
X84693428Y-95401571D01*
X84620857Y-95111286D01*
X84620857Y-94893571D01*
X84693428Y-94603286D01*
X84766000Y-94458143D01*
X84911142Y-94313000D01*
X85128857Y-94240429D01*
X85274000Y-94240429D01*
X85491714Y-94313000D01*
X85564285Y-94385571D01*
X86217428Y-95764429D02*
X86217428Y-94240429D01*
X86580285Y-94240429D01*
X86798000Y-94313000D01*
X86943142Y-94458143D01*
X87015714Y-94603286D01*
X87088285Y-94893571D01*
X87088285Y-95111286D01*
X87015714Y-95401571D01*
X86943142Y-95546714D01*
X86798000Y-95691857D01*
X86580285Y-95764429D01*
X86217428Y-95764429D01*
X87668857Y-95329000D02*
X88394571Y-95329000D01*
X87523714Y-95764429D02*
X88031714Y-94240429D01*
X88539714Y-95764429D01*
X89555714Y-94966143D02*
X89773428Y-95038714D01*
X89846000Y-95111286D01*
X89918571Y-95256429D01*
X89918571Y-95474143D01*
X89846000Y-95619286D01*
X89773428Y-95691857D01*
X89628286Y-95764429D01*
X89047714Y-95764429D01*
X89047714Y-94240429D01*
X89555714Y-94240429D01*
X89700857Y-94313000D01*
X89773428Y-94385571D01*
X89846000Y-94530714D01*
X89846000Y-94675857D01*
X89773428Y-94821000D01*
X89700857Y-94893571D01*
X89555714Y-94966143D01*
X89047714Y-94966143D01*
X90499143Y-95329000D02*
X91224857Y-95329000D01*
X90354000Y-95764429D02*
X90862000Y-94240429D01*
X91370000Y-95764429D01*
X92168286Y-94240429D02*
X92313429Y-94240429D01*
X92458572Y-94313000D01*
X92531143Y-94385571D01*
X92603714Y-94530714D01*
X92676286Y-94821000D01*
X92676286Y-95183857D01*
X92603714Y-95474143D01*
X92531143Y-95619286D01*
X92458572Y-95691857D01*
X92313429Y-95764429D01*
X92168286Y-95764429D01*
X92023143Y-95691857D01*
X91950572Y-95619286D01*
X91878000Y-95474143D01*
X91805429Y-95183857D01*
X91805429Y-94821000D01*
X91878000Y-94530714D01*
X91950572Y-94385571D01*
X92023143Y-94313000D01*
X92168286Y-94240429D01*
X94055143Y-94240429D02*
X93329429Y-94240429D01*
X93256858Y-94966143D01*
X93329429Y-94893571D01*
X93474572Y-94821000D01*
X93837429Y-94821000D01*
X93982572Y-94893571D01*
X94055143Y-94966143D01*
X94127715Y-95111286D01*
X94127715Y-95474143D01*
X94055143Y-95619286D01*
X93982572Y-95691857D01*
X93837429Y-95764429D01*
X93474572Y-95764429D01*
X93329429Y-95691857D01*
X93256858Y-95619286D01*
X95071144Y-94240429D02*
X95216287Y-94240429D01*
X95361430Y-94313000D01*
X95434001Y-94385571D01*
X95506572Y-94530714D01*
X95579144Y-94821000D01*
X95579144Y-95183857D01*
X95506572Y-95474143D01*
X95434001Y-95619286D01*
X95361430Y-95691857D01*
X95216287Y-95764429D01*
X95071144Y-95764429D01*
X94926001Y-95691857D01*
X94853430Y-95619286D01*
X94780858Y-95474143D01*
X94708287Y-95183857D01*
X94708287Y-94821000D01*
X94780858Y-94530714D01*
X94853430Y-94385571D01*
X94926001Y-94313000D01*
X95071144Y-94240429D01*
X96522573Y-94240429D02*
X96667716Y-94240429D01*
X96812859Y-94313000D01*
X96885430Y-94385571D01*
X96958001Y-94530714D01*
X97030573Y-94821000D01*
X97030573Y-95183857D01*
X96958001Y-95474143D01*
X96885430Y-95619286D01*
X96812859Y-95691857D01*
X96667716Y-95764429D01*
X96522573Y-95764429D01*
X96377430Y-95691857D01*
X96304859Y-95619286D01*
X96232287Y-95474143D01*
X96159716Y-95183857D01*
X96159716Y-94821000D01*
X96232287Y-94530714D01*
X96304859Y-94385571D01*
X96377430Y-94313000D01*
X96522573Y-94240429D01*
D11*
X70085952Y-103577262D02*
X70509286Y-104212262D01*
X70509286Y-103577262D02*
X70085952Y-104212262D01*
X71023333Y-103788929D02*
X71023333Y-104212262D01*
X70872143Y-103547024D02*
X70720952Y-104000595D01*
X71114048Y-104000595D01*
X29921904Y-93912262D02*
X29619523Y-93912262D01*
X29619523Y-93277262D01*
X30133571Y-93579643D02*
X30345238Y-93579643D01*
X30435952Y-93912262D02*
X30133571Y-93912262D01*
X30133571Y-93277262D01*
X30435952Y-93277262D01*
X30708095Y-93912262D02*
X30708095Y-93277262D01*
X30859286Y-93277262D01*
X30950000Y-93307500D01*
X31010476Y-93367976D01*
X31040715Y-93428452D01*
X31070953Y-93549405D01*
X31070953Y-93640119D01*
X31040715Y-93761071D01*
X31010476Y-93821548D01*
X30950000Y-93882024D01*
X30859286Y-93912262D01*
X30708095Y-93912262D01*
X31705953Y-93912262D02*
X31494286Y-93609881D01*
X31343095Y-93912262D02*
X31343095Y-93277262D01*
X31585000Y-93277262D01*
X31645476Y-93307500D01*
X31675715Y-93337738D01*
X31705953Y-93398214D01*
X31705953Y-93488929D01*
X31675715Y-93549405D01*
X31645476Y-93579643D01*
X31585000Y-93609881D01*
X31343095Y-93609881D01*
X32310715Y-93912262D02*
X31947857Y-93912262D01*
X32129286Y-93912262D02*
X32129286Y-93277262D01*
X32068810Y-93367976D01*
X32008334Y-93428452D01*
X31947857Y-93458690D01*
D13*
X33578095Y-95212381D02*
X33578095Y-94212381D01*
X34149524Y-95212381D02*
X33720952Y-94640952D01*
X34149524Y-94212381D02*
X33578095Y-94783810D01*
D11*
X29921904Y-105712262D02*
X29619523Y-105712262D01*
X29619523Y-105077262D01*
X30133571Y-105379643D02*
X30345238Y-105379643D01*
X30435952Y-105712262D02*
X30133571Y-105712262D01*
X30133571Y-105077262D01*
X30435952Y-105077262D01*
X30708095Y-105712262D02*
X30708095Y-105077262D01*
X30859286Y-105077262D01*
X30950000Y-105107500D01*
X31010476Y-105167976D01*
X31040715Y-105228452D01*
X31070953Y-105349405D01*
X31070953Y-105440119D01*
X31040715Y-105561071D01*
X31010476Y-105621548D01*
X30950000Y-105682024D01*
X30859286Y-105712262D01*
X30708095Y-105712262D01*
X31675715Y-105107500D02*
X31615238Y-105077262D01*
X31524524Y-105077262D01*
X31433810Y-105107500D01*
X31373334Y-105167976D01*
X31343095Y-105228452D01*
X31312857Y-105349405D01*
X31312857Y-105440119D01*
X31343095Y-105561071D01*
X31373334Y-105621548D01*
X31433810Y-105682024D01*
X31524524Y-105712262D01*
X31585000Y-105712262D01*
X31675715Y-105682024D01*
X31705953Y-105651786D01*
X31705953Y-105440119D01*
X31585000Y-105440119D01*
X32310715Y-105712262D02*
X31947857Y-105712262D01*
X32129286Y-105712262D02*
X32129286Y-105077262D01*
X32068810Y-105167976D01*
X32008334Y-105228452D01*
X31947857Y-105258690D01*
D13*
X33578095Y-101262381D02*
X33578095Y-100262381D01*
X34149524Y-101262381D02*
X33720952Y-100690952D01*
X34149524Y-100262381D02*
X33578095Y-100833810D01*
D11*
X92216786Y-111651786D02*
X92186548Y-111682024D01*
X92095833Y-111712262D01*
X92035357Y-111712262D01*
X91944643Y-111682024D01*
X91884167Y-111621548D01*
X91853928Y-111561071D01*
X91823690Y-111440119D01*
X91823690Y-111349405D01*
X91853928Y-111228452D01*
X91884167Y-111167976D01*
X91944643Y-111107500D01*
X92035357Y-111077262D01*
X92095833Y-111077262D01*
X92186548Y-111107500D01*
X92216786Y-111137738D01*
X92519167Y-111712262D02*
X92640119Y-111712262D01*
X92700595Y-111682024D01*
X92730833Y-111651786D01*
X92791309Y-111561071D01*
X92821548Y-111440119D01*
X92821548Y-111198214D01*
X92791309Y-111137738D01*
X92761071Y-111107500D01*
X92700595Y-111077262D01*
X92579643Y-111077262D01*
X92519167Y-111107500D01*
X92488928Y-111137738D01*
X92458690Y-111198214D01*
X92458690Y-111349405D01*
X92488928Y-111409881D01*
X92519167Y-111440119D01*
X92579643Y-111470357D01*
X92700595Y-111470357D01*
X92761071Y-111440119D01*
X92791309Y-111409881D01*
X92821548Y-111349405D01*
X93426310Y-111712262D02*
X93063452Y-111712262D01*
X93244881Y-111712262D02*
X93244881Y-111077262D01*
X93184405Y-111167976D01*
X93123929Y-111228452D01*
X93063452Y-111258690D01*
X92107976Y-112338929D02*
X92107976Y-112762262D01*
X91956786Y-112097024D02*
X91805595Y-112550595D01*
X92198691Y-112550595D01*
X92440595Y-112701786D02*
X92470834Y-112732024D01*
X92440595Y-112762262D01*
X92410357Y-112732024D01*
X92440595Y-112701786D01*
X92440595Y-112762262D01*
X92682500Y-112127262D02*
X93105834Y-112127262D01*
X92833691Y-112762262D01*
X93619881Y-112338929D02*
X93619881Y-112762262D01*
X93347738Y-112338929D02*
X93347738Y-112671548D01*
X93377977Y-112732024D01*
X93438453Y-112762262D01*
X93529167Y-112762262D01*
X93589643Y-112732024D01*
X93619881Y-112701786D01*
X94133929Y-112429643D02*
X93922262Y-112429643D01*
X93922262Y-112762262D02*
X93922262Y-112127262D01*
X94224643Y-112127262D01*
X120135952Y-126327262D02*
X120559286Y-126962262D01*
X120559286Y-126327262D02*
X120135952Y-126962262D01*
X121133810Y-126962262D02*
X120770952Y-126962262D01*
X120952381Y-126962262D02*
X120952381Y-126327262D01*
X120891905Y-126417976D01*
X120831429Y-126478452D01*
X120770952Y-126508690D01*
X118341786Y-129701786D02*
X118311548Y-129732024D01*
X118220833Y-129762262D01*
X118160357Y-129762262D01*
X118069643Y-129732024D01*
X118009167Y-129671548D01*
X117978928Y-129611071D01*
X117948690Y-129490119D01*
X117948690Y-129399405D01*
X117978928Y-129278452D01*
X118009167Y-129217976D01*
X118069643Y-129157500D01*
X118160357Y-129127262D01*
X118220833Y-129127262D01*
X118311548Y-129157500D01*
X118341786Y-129187738D01*
X118946548Y-129762262D02*
X118583690Y-129762262D01*
X118765119Y-129762262D02*
X118765119Y-129127262D01*
X118704643Y-129217976D01*
X118644167Y-129278452D01*
X118583690Y-129308690D01*
X119490833Y-129127262D02*
X119369881Y-129127262D01*
X119309405Y-129157500D01*
X119279167Y-129187738D01*
X119218690Y-129278452D01*
X119188452Y-129399405D01*
X119188452Y-129641310D01*
X119218690Y-129701786D01*
X119248929Y-129732024D01*
X119309405Y-129762262D01*
X119430357Y-129762262D01*
X119490833Y-129732024D01*
X119521071Y-129701786D01*
X119551310Y-129641310D01*
X119551310Y-129490119D01*
X119521071Y-129429643D01*
X119490833Y-129399405D01*
X119430357Y-129369167D01*
X119309405Y-129369167D01*
X119248929Y-129399405D01*
X119218690Y-129429643D01*
X119188452Y-129490119D01*
X120819643Y-129762262D02*
X120456785Y-129762262D01*
X120638214Y-129762262D02*
X120638214Y-129127262D01*
X120577738Y-129217976D01*
X120517262Y-129278452D01*
X120456785Y-129308690D01*
X121212738Y-129127262D02*
X121273214Y-129127262D01*
X121333690Y-129157500D01*
X121363928Y-129187738D01*
X121394166Y-129248214D01*
X121424405Y-129369167D01*
X121424405Y-129520357D01*
X121394166Y-129641310D01*
X121363928Y-129701786D01*
X121333690Y-129732024D01*
X121273214Y-129762262D01*
X121212738Y-129762262D01*
X121152262Y-129732024D01*
X121122024Y-129701786D01*
X121091785Y-129641310D01*
X121061547Y-129520357D01*
X121061547Y-129369167D01*
X121091785Y-129248214D01*
X121122024Y-129187738D01*
X121152262Y-129157500D01*
X121212738Y-129127262D01*
X121968690Y-129338929D02*
X121968690Y-129762262D01*
X121696547Y-129338929D02*
X121696547Y-129671548D01*
X121726786Y-129732024D01*
X121787262Y-129762262D01*
X121877976Y-129762262D01*
X121938452Y-129732024D01*
X121968690Y-129701786D01*
X122482738Y-129429643D02*
X122271071Y-129429643D01*
X122271071Y-129762262D02*
X122271071Y-129127262D01*
X122573452Y-129127262D01*
X120185952Y-117802262D02*
X120609286Y-118437262D01*
X120609286Y-117802262D02*
X120185952Y-118437262D01*
X120820952Y-117862738D02*
X120851190Y-117832500D01*
X120911667Y-117802262D01*
X121062857Y-117802262D01*
X121123333Y-117832500D01*
X121153571Y-117862738D01*
X121183810Y-117923214D01*
X121183810Y-117983690D01*
X121153571Y-118074405D01*
X120790714Y-118437262D01*
X121183810Y-118437262D01*
X108160952Y-98952262D02*
X108584286Y-99587262D01*
X108584286Y-98952262D02*
X108160952Y-99587262D01*
X108765714Y-98952262D02*
X109158810Y-98952262D01*
X108947143Y-99194167D01*
X109037857Y-99194167D01*
X109098333Y-99224405D01*
X109128571Y-99254643D01*
X109158810Y-99315119D01*
X109158810Y-99466310D01*
X109128571Y-99526786D01*
X109098333Y-99557024D01*
X109037857Y-99587262D01*
X108856429Y-99587262D01*
X108795952Y-99557024D01*
X108765714Y-99526786D01*
X34496904Y-112937262D02*
X34194523Y-112937262D01*
X34194523Y-112302262D01*
X34708571Y-112604643D02*
X34920238Y-112604643D01*
X35010952Y-112937262D02*
X34708571Y-112937262D01*
X34708571Y-112302262D01*
X35010952Y-112302262D01*
X35283095Y-112937262D02*
X35283095Y-112302262D01*
X35434286Y-112302262D01*
X35525000Y-112332500D01*
X35585476Y-112392976D01*
X35615715Y-112453452D01*
X35645953Y-112574405D01*
X35645953Y-112665119D01*
X35615715Y-112786071D01*
X35585476Y-112846548D01*
X35525000Y-112907024D01*
X35434286Y-112937262D01*
X35283095Y-112937262D01*
X36280953Y-112937262D02*
X36069286Y-112634881D01*
X35918095Y-112937262D02*
X35918095Y-112302262D01*
X36160000Y-112302262D01*
X36220476Y-112332500D01*
X36250715Y-112362738D01*
X36280953Y-112423214D01*
X36280953Y-112513929D01*
X36250715Y-112574405D01*
X36220476Y-112604643D01*
X36160000Y-112634881D01*
X35918095Y-112634881D01*
X36522857Y-112362738D02*
X36553095Y-112332500D01*
X36613572Y-112302262D01*
X36764762Y-112302262D01*
X36825238Y-112332500D01*
X36855476Y-112362738D01*
X36885715Y-112423214D01*
X36885715Y-112483690D01*
X36855476Y-112574405D01*
X36492619Y-112937262D01*
X36885715Y-112937262D01*
X28728928Y-119462262D02*
X28728928Y-118827262D01*
X28970833Y-118827262D01*
X29031309Y-118857500D01*
X29061548Y-118887738D01*
X29091786Y-118948214D01*
X29091786Y-119038929D01*
X29061548Y-119099405D01*
X29031309Y-119129643D01*
X28970833Y-119159881D01*
X28728928Y-119159881D01*
X29454643Y-119099405D02*
X29394167Y-119069167D01*
X29363928Y-119038929D01*
X29333690Y-118978452D01*
X29333690Y-118948214D01*
X29363928Y-118887738D01*
X29394167Y-118857500D01*
X29454643Y-118827262D01*
X29575595Y-118827262D01*
X29636071Y-118857500D01*
X29666309Y-118887738D01*
X29696548Y-118948214D01*
X29696548Y-118978452D01*
X29666309Y-119038929D01*
X29636071Y-119069167D01*
X29575595Y-119099405D01*
X29454643Y-119099405D01*
X29394167Y-119129643D01*
X29363928Y-119159881D01*
X29333690Y-119220357D01*
X29333690Y-119341310D01*
X29363928Y-119401786D01*
X29394167Y-119432024D01*
X29454643Y-119462262D01*
X29575595Y-119462262D01*
X29636071Y-119432024D01*
X29666309Y-119401786D01*
X29696548Y-119341310D01*
X29696548Y-119220357D01*
X29666309Y-119159881D01*
X29636071Y-119129643D01*
X29575595Y-119099405D01*
X30240833Y-119038929D02*
X30240833Y-119462262D01*
X30089643Y-118797024D02*
X29938452Y-119250595D01*
X30331548Y-119250595D01*
X28316786Y-134512262D02*
X28105119Y-134209881D01*
X27953928Y-134512262D02*
X27953928Y-133877262D01*
X28195833Y-133877262D01*
X28256309Y-133907500D01*
X28286548Y-133937738D01*
X28316786Y-133998214D01*
X28316786Y-134088929D01*
X28286548Y-134149405D01*
X28256309Y-134179643D01*
X28195833Y-134209881D01*
X27953928Y-134209881D01*
X28861071Y-133877262D02*
X28740119Y-133877262D01*
X28679643Y-133907500D01*
X28649405Y-133937738D01*
X28588928Y-134028452D01*
X28558690Y-134149405D01*
X28558690Y-134391310D01*
X28588928Y-134451786D01*
X28619167Y-134482024D01*
X28679643Y-134512262D01*
X28800595Y-134512262D01*
X28861071Y-134482024D01*
X28891309Y-134451786D01*
X28921548Y-134391310D01*
X28921548Y-134240119D01*
X28891309Y-134179643D01*
X28861071Y-134149405D01*
X28800595Y-134119167D01*
X28679643Y-134119167D01*
X28619167Y-134149405D01*
X28588928Y-134179643D01*
X28558690Y-134240119D01*
X29526310Y-134512262D02*
X29163452Y-134512262D01*
X29344881Y-134512262D02*
X29344881Y-133877262D01*
X29284405Y-133967976D01*
X29223929Y-134028452D01*
X29163452Y-134058690D01*
X28316786Y-125412262D02*
X28105119Y-125109881D01*
X27953928Y-125412262D02*
X27953928Y-124777262D01*
X28195833Y-124777262D01*
X28256309Y-124807500D01*
X28286548Y-124837738D01*
X28316786Y-124898214D01*
X28316786Y-124988929D01*
X28286548Y-125049405D01*
X28256309Y-125079643D01*
X28195833Y-125109881D01*
X27953928Y-125109881D01*
X28861071Y-124777262D02*
X28740119Y-124777262D01*
X28679643Y-124807500D01*
X28649405Y-124837738D01*
X28588928Y-124928452D01*
X28558690Y-125049405D01*
X28558690Y-125291310D01*
X28588928Y-125351786D01*
X28619167Y-125382024D01*
X28679643Y-125412262D01*
X28800595Y-125412262D01*
X28861071Y-125382024D01*
X28891309Y-125351786D01*
X28921548Y-125291310D01*
X28921548Y-125140119D01*
X28891309Y-125079643D01*
X28861071Y-125049405D01*
X28800595Y-125019167D01*
X28679643Y-125019167D01*
X28619167Y-125049405D01*
X28588928Y-125079643D01*
X28558690Y-125140119D01*
X29163452Y-124837738D02*
X29193690Y-124807500D01*
X29254167Y-124777262D01*
X29405357Y-124777262D01*
X29465833Y-124807500D01*
X29496071Y-124837738D01*
X29526310Y-124898214D01*
X29526310Y-124958690D01*
X29496071Y-125049405D01*
X29133214Y-125412262D01*
X29526310Y-125412262D01*
X34383571Y-125827262D02*
X34806905Y-126462262D01*
X34806905Y-125827262D02*
X34383571Y-126462262D01*
X35320952Y-125827262D02*
X35200000Y-125827262D01*
X35139524Y-125857500D01*
X35109286Y-125887738D01*
X35048809Y-125978452D01*
X35018571Y-126099405D01*
X35018571Y-126341310D01*
X35048809Y-126401786D01*
X35079048Y-126432024D01*
X35139524Y-126462262D01*
X35260476Y-126462262D01*
X35320952Y-126432024D01*
X35351190Y-126401786D01*
X35381429Y-126341310D01*
X35381429Y-126190119D01*
X35351190Y-126129643D01*
X35320952Y-126099405D01*
X35260476Y-126069167D01*
X35139524Y-126069167D01*
X35079048Y-126099405D01*
X35048809Y-126129643D01*
X35018571Y-126190119D01*
X35986191Y-126462262D02*
X35623333Y-126462262D01*
X35804762Y-126462262D02*
X35804762Y-125827262D01*
X35744286Y-125917976D01*
X35683810Y-125978452D01*
X35623333Y-126008690D01*
X40838809Y-136677262D02*
X40838809Y-137191310D01*
X40869048Y-137251786D01*
X40899286Y-137282024D01*
X40959762Y-137312262D01*
X41080714Y-137312262D01*
X41141190Y-137282024D01*
X41171429Y-137251786D01*
X41201667Y-137191310D01*
X41201667Y-136677262D01*
X41836667Y-137312262D02*
X41473809Y-137312262D01*
X41655238Y-137312262D02*
X41655238Y-136677262D01*
X41594762Y-136767976D01*
X41534286Y-136828452D01*
X41473809Y-136858690D01*
X42441429Y-137312262D02*
X42078571Y-137312262D01*
X42260000Y-137312262D02*
X42260000Y-136677262D01*
X42199524Y-136767976D01*
X42139048Y-136828452D01*
X42078571Y-136858690D01*
X35552856Y-137652262D02*
X35976190Y-137652262D01*
X35704047Y-138287262D01*
X36490237Y-137863929D02*
X36490237Y-138287262D01*
X36339047Y-137622024D02*
X36187856Y-138075595D01*
X36580952Y-138075595D01*
X36792618Y-138105833D02*
X37094999Y-138105833D01*
X36732142Y-138287262D02*
X36943809Y-137652262D01*
X37155476Y-138287262D01*
X37669523Y-138287262D02*
X37367142Y-138287262D01*
X37367142Y-137652262D01*
X37790476Y-137652262D02*
X38002143Y-138287262D01*
X38213810Y-137652262D01*
X38788334Y-138226786D02*
X38758096Y-138257024D01*
X38667381Y-138287262D01*
X38606905Y-138287262D01*
X38516191Y-138257024D01*
X38455715Y-138196548D01*
X38425476Y-138136071D01*
X38395238Y-138015119D01*
X38395238Y-137924405D01*
X38425476Y-137803452D01*
X38455715Y-137742976D01*
X38516191Y-137682500D01*
X38606905Y-137652262D01*
X38667381Y-137652262D01*
X38758096Y-137682500D01*
X38788334Y-137712738D01*
X39393096Y-138287262D02*
X39030238Y-138287262D01*
X39211667Y-138287262D02*
X39211667Y-137652262D01*
X39151191Y-137742976D01*
X39090715Y-137803452D01*
X39030238Y-137833690D01*
X39937381Y-137652262D02*
X39816429Y-137652262D01*
X39755953Y-137682500D01*
X39725715Y-137712738D01*
X39665238Y-137803452D01*
X39635000Y-137924405D01*
X39635000Y-138166310D01*
X39665238Y-138226786D01*
X39695477Y-138257024D01*
X39755953Y-138287262D01*
X39876905Y-138287262D01*
X39937381Y-138257024D01*
X39967619Y-138226786D01*
X39997858Y-138166310D01*
X39997858Y-138015119D01*
X39967619Y-137954643D01*
X39937381Y-137924405D01*
X39876905Y-137894167D01*
X39755953Y-137894167D01*
X39695477Y-137924405D01*
X39665238Y-137954643D01*
X39635000Y-138015119D01*
X40542143Y-137863929D02*
X40542143Y-138287262D01*
X40390953Y-137622024D02*
X40239762Y-138075595D01*
X40632858Y-138075595D01*
X40844524Y-137712738D02*
X40874762Y-137682500D01*
X40935239Y-137652262D01*
X41086429Y-137652262D01*
X41146905Y-137682500D01*
X41177143Y-137712738D01*
X41207382Y-137773214D01*
X41207382Y-137833690D01*
X41177143Y-137924405D01*
X40814286Y-138287262D01*
X41207382Y-138287262D01*
X41751667Y-137863929D02*
X41751667Y-138287262D01*
X41600477Y-137622024D02*
X41449286Y-138075595D01*
X41842382Y-138075595D01*
X42386667Y-137652262D02*
X42084286Y-137652262D01*
X42054048Y-137954643D01*
X42084286Y-137924405D01*
X42144763Y-137894167D01*
X42295953Y-137894167D01*
X42356429Y-137924405D01*
X42386667Y-137954643D01*
X42416906Y-138015119D01*
X42416906Y-138166310D01*
X42386667Y-138226786D01*
X42356429Y-138257024D01*
X42295953Y-138287262D01*
X42144763Y-138287262D01*
X42084286Y-138257024D01*
X42054048Y-138226786D01*
X73616190Y-142652262D02*
X73616190Y-143166310D01*
X73646429Y-143226786D01*
X73676667Y-143257024D01*
X73737143Y-143287262D01*
X73858095Y-143287262D01*
X73918571Y-143257024D01*
X73948810Y-143226786D01*
X73979048Y-143166310D01*
X73979048Y-142652262D01*
X74251190Y-142712738D02*
X74281428Y-142682500D01*
X74341905Y-142652262D01*
X74493095Y-142652262D01*
X74553571Y-142682500D01*
X74583809Y-142712738D01*
X74614048Y-142773214D01*
X74614048Y-142833690D01*
X74583809Y-142924405D01*
X74220952Y-143287262D01*
X74614048Y-143287262D01*
X73577856Y-143752262D02*
X74001190Y-143752262D01*
X73729047Y-144387262D01*
X74515237Y-143963929D02*
X74515237Y-144387262D01*
X74364047Y-143722024D02*
X74212856Y-144175595D01*
X74605952Y-144175595D01*
X74817618Y-144205833D02*
X75119999Y-144205833D01*
X74757142Y-144387262D02*
X74968809Y-143752262D01*
X75180476Y-144387262D01*
X75694523Y-144387262D02*
X75392142Y-144387262D01*
X75392142Y-143752262D01*
X75815476Y-143752262D02*
X76027143Y-144387262D01*
X76238810Y-143752262D01*
X76813334Y-144326786D02*
X76783096Y-144357024D01*
X76692381Y-144387262D01*
X76631905Y-144387262D01*
X76541191Y-144357024D01*
X76480715Y-144296548D01*
X76450476Y-144236071D01*
X76420238Y-144115119D01*
X76420238Y-144024405D01*
X76450476Y-143903452D01*
X76480715Y-143842976D01*
X76541191Y-143782500D01*
X76631905Y-143752262D01*
X76692381Y-143752262D01*
X76783096Y-143782500D01*
X76813334Y-143812738D01*
X77418096Y-144387262D02*
X77055238Y-144387262D01*
X77236667Y-144387262D02*
X77236667Y-143752262D01*
X77176191Y-143842976D01*
X77115715Y-143903452D01*
X77055238Y-143933690D01*
X77962381Y-143752262D02*
X77841429Y-143752262D01*
X77780953Y-143782500D01*
X77750715Y-143812738D01*
X77690238Y-143903452D01*
X77660000Y-144024405D01*
X77660000Y-144266310D01*
X77690238Y-144326786D01*
X77720477Y-144357024D01*
X77780953Y-144387262D01*
X77901905Y-144387262D01*
X77962381Y-144357024D01*
X77992619Y-144326786D01*
X78022858Y-144266310D01*
X78022858Y-144115119D01*
X77992619Y-144054643D01*
X77962381Y-144024405D01*
X77901905Y-143994167D01*
X77780953Y-143994167D01*
X77720477Y-144024405D01*
X77690238Y-144054643D01*
X77660000Y-144115119D01*
X78567143Y-143963929D02*
X78567143Y-144387262D01*
X78415953Y-143722024D02*
X78264762Y-144175595D01*
X78657858Y-144175595D01*
X78869524Y-143812738D02*
X78899762Y-143782500D01*
X78960239Y-143752262D01*
X79111429Y-143752262D01*
X79171905Y-143782500D01*
X79202143Y-143812738D01*
X79232382Y-143873214D01*
X79232382Y-143933690D01*
X79202143Y-144024405D01*
X78839286Y-144387262D01*
X79232382Y-144387262D01*
X79776667Y-143963929D02*
X79776667Y-144387262D01*
X79625477Y-143722024D02*
X79474286Y-144175595D01*
X79867382Y-144175595D01*
X80411667Y-143752262D02*
X80109286Y-143752262D01*
X80079048Y-144054643D01*
X80109286Y-144024405D01*
X80169763Y-143994167D01*
X80320953Y-143994167D01*
X80381429Y-144024405D01*
X80411667Y-144054643D01*
X80441906Y-144115119D01*
X80441906Y-144266310D01*
X80411667Y-144326786D01*
X80381429Y-144357024D01*
X80320953Y-144387262D01*
X80169763Y-144387262D01*
X80109286Y-144357024D01*
X80079048Y-144326786D01*
X86316190Y-130602262D02*
X86316190Y-131116310D01*
X86346429Y-131176786D01*
X86376667Y-131207024D01*
X86437143Y-131237262D01*
X86558095Y-131237262D01*
X86618571Y-131207024D01*
X86648810Y-131176786D01*
X86679048Y-131116310D01*
X86679048Y-130602262D01*
X86920952Y-130602262D02*
X87314048Y-130602262D01*
X87102381Y-130844167D01*
X87193095Y-130844167D01*
X87253571Y-130874405D01*
X87283809Y-130904643D01*
X87314048Y-130965119D01*
X87314048Y-131116310D01*
X87283809Y-131176786D01*
X87253571Y-131207024D01*
X87193095Y-131237262D01*
X87011667Y-131237262D01*
X86951190Y-131207024D01*
X86920952Y-131176786D01*
X86302856Y-131802262D02*
X86726190Y-131802262D01*
X86454047Y-132437262D01*
X87240237Y-132013929D02*
X87240237Y-132437262D01*
X87089047Y-131772024D02*
X86937856Y-132225595D01*
X87330952Y-132225595D01*
X87542618Y-132255833D02*
X87844999Y-132255833D01*
X87482142Y-132437262D02*
X87693809Y-131802262D01*
X87905476Y-132437262D01*
X88419523Y-132437262D02*
X88117142Y-132437262D01*
X88117142Y-131802262D01*
X88540476Y-131802262D02*
X88752143Y-132437262D01*
X88963810Y-131802262D01*
X89538334Y-132376786D02*
X89508096Y-132407024D01*
X89417381Y-132437262D01*
X89356905Y-132437262D01*
X89266191Y-132407024D01*
X89205715Y-132346548D01*
X89175476Y-132286071D01*
X89145238Y-132165119D01*
X89145238Y-132074405D01*
X89175476Y-131953452D01*
X89205715Y-131892976D01*
X89266191Y-131832500D01*
X89356905Y-131802262D01*
X89417381Y-131802262D01*
X89508096Y-131832500D01*
X89538334Y-131862738D01*
X90143096Y-132437262D02*
X89780238Y-132437262D01*
X89961667Y-132437262D02*
X89961667Y-131802262D01*
X89901191Y-131892976D01*
X89840715Y-131953452D01*
X89780238Y-131983690D01*
X90687381Y-131802262D02*
X90566429Y-131802262D01*
X90505953Y-131832500D01*
X90475715Y-131862738D01*
X90415238Y-131953452D01*
X90385000Y-132074405D01*
X90385000Y-132316310D01*
X90415238Y-132376786D01*
X90445477Y-132407024D01*
X90505953Y-132437262D01*
X90626905Y-132437262D01*
X90687381Y-132407024D01*
X90717619Y-132376786D01*
X90747858Y-132316310D01*
X90747858Y-132165119D01*
X90717619Y-132104643D01*
X90687381Y-132074405D01*
X90626905Y-132044167D01*
X90505953Y-132044167D01*
X90445477Y-132074405D01*
X90415238Y-132104643D01*
X90385000Y-132165119D01*
X91292143Y-132013929D02*
X91292143Y-132437262D01*
X91140953Y-131772024D02*
X90989762Y-132225595D01*
X91382858Y-132225595D01*
X91594524Y-131862738D02*
X91624762Y-131832500D01*
X91685239Y-131802262D01*
X91836429Y-131802262D01*
X91896905Y-131832500D01*
X91927143Y-131862738D01*
X91957382Y-131923214D01*
X91957382Y-131983690D01*
X91927143Y-132074405D01*
X91564286Y-132437262D01*
X91957382Y-132437262D01*
X92501667Y-132013929D02*
X92501667Y-132437262D01*
X92350477Y-131772024D02*
X92199286Y-132225595D01*
X92592382Y-132225595D01*
X93136667Y-131802262D02*
X92834286Y-131802262D01*
X92804048Y-132104643D01*
X92834286Y-132074405D01*
X92894763Y-132044167D01*
X93045953Y-132044167D01*
X93106429Y-132074405D01*
X93136667Y-132104643D01*
X93166906Y-132165119D01*
X93166906Y-132316310D01*
X93136667Y-132376786D01*
X93106429Y-132407024D01*
X93045953Y-132437262D01*
X92894763Y-132437262D01*
X92834286Y-132407024D01*
X92804048Y-132376786D01*
X90591190Y-115552262D02*
X90591190Y-116066310D01*
X90621429Y-116126786D01*
X90651667Y-116157024D01*
X90712143Y-116187262D01*
X90833095Y-116187262D01*
X90893571Y-116157024D01*
X90923810Y-116126786D01*
X90954048Y-116066310D01*
X90954048Y-115552262D01*
X91528571Y-115763929D02*
X91528571Y-116187262D01*
X91377381Y-115522024D02*
X91226190Y-115975595D01*
X91619286Y-115975595D01*
X90577856Y-116552262D02*
X91001190Y-116552262D01*
X90729047Y-117187262D01*
X91515237Y-116763929D02*
X91515237Y-117187262D01*
X91364047Y-116522024D02*
X91212856Y-116975595D01*
X91605952Y-116975595D01*
X91817618Y-117005833D02*
X92119999Y-117005833D01*
X91757142Y-117187262D02*
X91968809Y-116552262D01*
X92180476Y-117187262D01*
X92694523Y-117187262D02*
X92392142Y-117187262D01*
X92392142Y-116552262D01*
X92815476Y-116552262D02*
X93027143Y-117187262D01*
X93238810Y-116552262D01*
X93813334Y-117126786D02*
X93783096Y-117157024D01*
X93692381Y-117187262D01*
X93631905Y-117187262D01*
X93541191Y-117157024D01*
X93480715Y-117096548D01*
X93450476Y-117036071D01*
X93420238Y-116915119D01*
X93420238Y-116824405D01*
X93450476Y-116703452D01*
X93480715Y-116642976D01*
X93541191Y-116582500D01*
X93631905Y-116552262D01*
X93692381Y-116552262D01*
X93783096Y-116582500D01*
X93813334Y-116612738D01*
X94418096Y-117187262D02*
X94055238Y-117187262D01*
X94236667Y-117187262D02*
X94236667Y-116552262D01*
X94176191Y-116642976D01*
X94115715Y-116703452D01*
X94055238Y-116733690D01*
X94962381Y-116552262D02*
X94841429Y-116552262D01*
X94780953Y-116582500D01*
X94750715Y-116612738D01*
X94690238Y-116703452D01*
X94660000Y-116824405D01*
X94660000Y-117066310D01*
X94690238Y-117126786D01*
X94720477Y-117157024D01*
X94780953Y-117187262D01*
X94901905Y-117187262D01*
X94962381Y-117157024D01*
X94992619Y-117126786D01*
X95022858Y-117066310D01*
X95022858Y-116915119D01*
X94992619Y-116854643D01*
X94962381Y-116824405D01*
X94901905Y-116794167D01*
X94780953Y-116794167D01*
X94720477Y-116824405D01*
X94690238Y-116854643D01*
X94660000Y-116915119D01*
X95567143Y-116763929D02*
X95567143Y-117187262D01*
X95415953Y-116522024D02*
X95264762Y-116975595D01*
X95657858Y-116975595D01*
X95869524Y-116612738D02*
X95899762Y-116582500D01*
X95960239Y-116552262D01*
X96111429Y-116552262D01*
X96171905Y-116582500D01*
X96202143Y-116612738D01*
X96232382Y-116673214D01*
X96232382Y-116733690D01*
X96202143Y-116824405D01*
X95839286Y-117187262D01*
X96232382Y-117187262D01*
X96776667Y-116763929D02*
X96776667Y-117187262D01*
X96625477Y-116522024D02*
X96474286Y-116975595D01*
X96867382Y-116975595D01*
X97411667Y-116552262D02*
X97109286Y-116552262D01*
X97079048Y-116854643D01*
X97109286Y-116824405D01*
X97169763Y-116794167D01*
X97320953Y-116794167D01*
X97381429Y-116824405D01*
X97411667Y-116854643D01*
X97441906Y-116915119D01*
X97441906Y-117066310D01*
X97411667Y-117126786D01*
X97381429Y-117157024D01*
X97320953Y-117187262D01*
X97169763Y-117187262D01*
X97109286Y-117157024D01*
X97079048Y-117126786D01*
X53316190Y-107927262D02*
X53316190Y-108441310D01*
X53346429Y-108501786D01*
X53376667Y-108532024D01*
X53437143Y-108562262D01*
X53558095Y-108562262D01*
X53618571Y-108532024D01*
X53648810Y-108501786D01*
X53679048Y-108441310D01*
X53679048Y-107927262D01*
X54072143Y-108199405D02*
X54011667Y-108169167D01*
X53981428Y-108138929D01*
X53951190Y-108078452D01*
X53951190Y-108048214D01*
X53981428Y-107987738D01*
X54011667Y-107957500D01*
X54072143Y-107927262D01*
X54193095Y-107927262D01*
X54253571Y-107957500D01*
X54283809Y-107987738D01*
X54314048Y-108048214D01*
X54314048Y-108078452D01*
X54283809Y-108138929D01*
X54253571Y-108169167D01*
X54193095Y-108199405D01*
X54072143Y-108199405D01*
X54011667Y-108229643D01*
X53981428Y-108259881D01*
X53951190Y-108320357D01*
X53951190Y-108441310D01*
X53981428Y-108501786D01*
X54011667Y-108532024D01*
X54072143Y-108562262D01*
X54193095Y-108562262D01*
X54253571Y-108532024D01*
X54283809Y-108501786D01*
X54314048Y-108441310D01*
X54314048Y-108320357D01*
X54283809Y-108259881D01*
X54253571Y-108229643D01*
X54193095Y-108199405D01*
X53726072Y-109712262D02*
X53363214Y-109712262D01*
X53544643Y-109712262D02*
X53544643Y-109077262D01*
X53484167Y-109167976D01*
X53423691Y-109228452D01*
X53363214Y-109258690D01*
X54119167Y-109077262D02*
X54179643Y-109077262D01*
X54240119Y-109107500D01*
X54270357Y-109137738D01*
X54300595Y-109198214D01*
X54330834Y-109319167D01*
X54330834Y-109470357D01*
X54300595Y-109591310D01*
X54270357Y-109651786D01*
X54240119Y-109682024D01*
X54179643Y-109712262D01*
X54119167Y-109712262D01*
X54058691Y-109682024D01*
X54028453Y-109651786D01*
X53998214Y-109591310D01*
X53967976Y-109470357D01*
X53967976Y-109319167D01*
X53998214Y-109198214D01*
X54028453Y-109137738D01*
X54058691Y-109107500D01*
X54119167Y-109077262D01*
X54602976Y-109712262D02*
X54602976Y-109077262D01*
X54814643Y-109530833D01*
X55026310Y-109077262D01*
X55026310Y-109712262D01*
X55449643Y-109077262D02*
X55510119Y-109077262D01*
X55570595Y-109107500D01*
X55600833Y-109137738D01*
X55631071Y-109198214D01*
X55661310Y-109319167D01*
X55661310Y-109470357D01*
X55631071Y-109591310D01*
X55600833Y-109651786D01*
X55570595Y-109682024D01*
X55510119Y-109712262D01*
X55449643Y-109712262D01*
X55389167Y-109682024D01*
X55358929Y-109651786D01*
X55328690Y-109591310D01*
X55298452Y-109470357D01*
X55298452Y-109319167D01*
X55328690Y-109198214D01*
X55358929Y-109137738D01*
X55389167Y-109107500D01*
X55449643Y-109077262D01*
X56024167Y-109349405D02*
X55963691Y-109319167D01*
X55933452Y-109288929D01*
X55903214Y-109228452D01*
X55903214Y-109198214D01*
X55933452Y-109137738D01*
X55963691Y-109107500D01*
X56024167Y-109077262D01*
X56145119Y-109077262D01*
X56205595Y-109107500D01*
X56235833Y-109137738D01*
X56266072Y-109198214D01*
X56266072Y-109228452D01*
X56235833Y-109288929D01*
X56205595Y-109319167D01*
X56145119Y-109349405D01*
X56024167Y-109349405D01*
X55963691Y-109379643D01*
X55933452Y-109409881D01*
X55903214Y-109470357D01*
X55903214Y-109591310D01*
X55933452Y-109651786D01*
X55963691Y-109682024D01*
X56024167Y-109712262D01*
X56145119Y-109712262D01*
X56205595Y-109682024D01*
X56235833Y-109651786D01*
X56266072Y-109591310D01*
X56266072Y-109470357D01*
X56235833Y-109409881D01*
X56205595Y-109379643D01*
X56145119Y-109349405D01*
X56507976Y-109682024D02*
X56598691Y-109712262D01*
X56749881Y-109712262D01*
X56810357Y-109682024D01*
X56840595Y-109651786D01*
X56870834Y-109591310D01*
X56870834Y-109530833D01*
X56840595Y-109470357D01*
X56810357Y-109440119D01*
X56749881Y-109409881D01*
X56628929Y-109379643D01*
X56568453Y-109349405D01*
X56538214Y-109319167D01*
X56507976Y-109258690D01*
X56507976Y-109198214D01*
X56538214Y-109137738D01*
X56568453Y-109107500D01*
X56628929Y-109077262D01*
X56780119Y-109077262D01*
X56870834Y-109107500D01*
X57505834Y-109651786D02*
X57475596Y-109682024D01*
X57384881Y-109712262D01*
X57324405Y-109712262D01*
X57233691Y-109682024D01*
X57173215Y-109621548D01*
X57142976Y-109561071D01*
X57112738Y-109440119D01*
X57112738Y-109349405D01*
X57142976Y-109228452D01*
X57173215Y-109167976D01*
X57233691Y-109107500D01*
X57324405Y-109077262D01*
X57384881Y-109077262D01*
X57475596Y-109107500D01*
X57505834Y-109137738D01*
X57777976Y-109379643D02*
X57989643Y-109379643D01*
X58080357Y-109712262D02*
X57777976Y-109712262D01*
X57777976Y-109077262D01*
X58080357Y-109077262D01*
X58685120Y-109712262D02*
X58322262Y-109712262D01*
X58503691Y-109712262D02*
X58503691Y-109077262D01*
X58443215Y-109167976D01*
X58382739Y-109228452D01*
X58322262Y-109258690D01*
X59229405Y-109288929D02*
X59229405Y-109712262D01*
X59078215Y-109047024D02*
X58927024Y-109500595D01*
X59320120Y-109500595D01*
X59834167Y-109288929D02*
X59834167Y-109712262D01*
X59682977Y-109047024D02*
X59531786Y-109500595D01*
X59924882Y-109500595D01*
X60166786Y-109712262D02*
X60166786Y-109077262D01*
X60408691Y-109077262D02*
X60832025Y-109077262D01*
X60559882Y-109712262D01*
X61406549Y-109107500D02*
X61346072Y-109077262D01*
X61255358Y-109077262D01*
X61164644Y-109107500D01*
X61104168Y-109167976D01*
X61073929Y-109228452D01*
X61043691Y-109349405D01*
X61043691Y-109440119D01*
X61073929Y-109561071D01*
X61104168Y-109621548D01*
X61164644Y-109682024D01*
X61255358Y-109712262D01*
X61315834Y-109712262D01*
X61406549Y-109682024D01*
X61436787Y-109651786D01*
X61436787Y-109440119D01*
X61315834Y-109440119D01*
M02*
