G04 #@! TF.FileFunction,Legend,Top*
%FSLAX46Y46*%
G04 Gerber Fmt 4.6, Leading zero omitted, Abs format (unit mm)*
G04 Created by KiCad (PCBNEW (after 2015-mar-04 BZR unknown)-product) date 06.06.2015 1:17:50*
%MOMM*%
G01*
G04 APERTURE LIST*
%ADD10C,0.150000*%
%ADD11C,0.222250*%
%ADD12C,0.304800*%
G04 APERTURE END LIST*
D10*
X112694200Y-145583200D02*
X111994200Y-145583200D01*
X111994200Y-144383200D02*
X112694200Y-144383200D01*
X105009200Y-119694400D02*
X105709200Y-119694400D01*
X105709200Y-120894400D02*
X105009200Y-120894400D01*
X104505200Y-117418600D02*
X104505200Y-116718600D01*
X105705200Y-116718600D02*
X105705200Y-117418600D01*
X98786200Y-137626800D02*
X99486200Y-137626800D01*
X99486200Y-138826800D02*
X98786200Y-138826800D01*
X103840800Y-136585400D02*
X104540800Y-136585400D01*
X104540800Y-137785400D02*
X103840800Y-137785400D01*
X74768000Y-120985800D02*
X74768000Y-121685800D01*
X73568000Y-121685800D02*
X73568000Y-120985800D01*
X108499400Y-106384200D02*
X110499400Y-106384200D01*
X110499400Y-104334200D02*
X108499400Y-104334200D01*
X109671600Y-108651600D02*
X108971600Y-108651600D01*
X108971600Y-107451600D02*
X109671600Y-107451600D01*
X38512000Y-120100800D02*
X39212000Y-120100800D01*
X39212000Y-121300800D02*
X38512000Y-121300800D01*
X114661200Y-90154200D02*
X115361200Y-90154200D01*
X115361200Y-91354200D02*
X114661200Y-91354200D01*
X110840000Y-91074800D02*
X110140000Y-91074800D01*
X110140000Y-89874800D02*
X110840000Y-89874800D01*
X117840200Y-92450400D02*
X117840200Y-91750400D01*
X119040200Y-91750400D02*
X119040200Y-92450400D01*
X119091000Y-99700600D02*
X119091000Y-100400600D01*
X117891000Y-100400600D02*
X117891000Y-99700600D01*
X126829660Y-99829500D02*
X126829660Y-91129500D01*
X120424660Y-99829500D02*
X120424660Y-91129500D01*
X120424660Y-91129500D02*
X126829660Y-91129500D01*
X125599660Y-91129500D02*
X125599660Y-99829500D01*
X126829660Y-99829500D02*
X120424660Y-99829500D01*
X117120620Y-106400600D02*
X117120620Y-107101640D01*
X117120620Y-107101640D02*
X116871700Y-107101640D01*
X114321640Y-107101640D02*
X114120980Y-107101640D01*
X114120980Y-107101640D02*
X114120980Y-106400600D01*
X46482000Y-119380000D02*
X37973000Y-119380000D01*
X37973000Y-119380000D02*
X37973000Y-97155000D01*
X37973000Y-97155000D02*
X46482000Y-97155000D01*
X46482000Y-97155000D02*
X46482000Y-119380000D01*
X42714800Y-134228200D02*
X41714800Y-134228200D01*
X41714800Y-132878200D02*
X42714800Y-132878200D01*
X55008400Y-133720200D02*
X54008400Y-133720200D01*
X54008400Y-132370200D02*
X55008400Y-132370200D01*
X58158000Y-135803000D02*
X57158000Y-135803000D01*
X57158000Y-134453000D02*
X58158000Y-134453000D01*
X116848000Y-96073600D02*
X117848000Y-96073600D01*
X117848000Y-97423600D02*
X116848000Y-97423600D01*
X116848000Y-94346400D02*
X117848000Y-94346400D01*
X117848000Y-95696400D02*
X116848000Y-95696400D01*
X115790600Y-101868600D02*
X114790600Y-101868600D01*
X114790600Y-100518600D02*
X115790600Y-100518600D01*
X111523400Y-101843200D02*
X110523400Y-101843200D01*
X110523400Y-100493200D02*
X111523400Y-100493200D01*
X80569200Y-138404600D02*
X80826700Y-138404600D01*
X80569200Y-132054600D02*
X80826700Y-132054600D01*
X93319200Y-132054600D02*
X93061700Y-132054600D01*
X93319200Y-138404600D02*
X93061700Y-138404600D01*
X80569200Y-138404600D02*
X80569200Y-132054600D01*
X93319200Y-138404600D02*
X93319200Y-132054600D01*
X80826700Y-138404600D02*
X80826700Y-139479600D01*
X63729000Y-138430000D02*
X63986500Y-138430000D01*
X63729000Y-132080000D02*
X63986500Y-132080000D01*
X76479000Y-132080000D02*
X76221500Y-132080000D01*
X76479000Y-138430000D02*
X76221500Y-138430000D01*
X63729000Y-138430000D02*
X63729000Y-132080000D01*
X76479000Y-138430000D02*
X76479000Y-132080000D01*
X63986500Y-138430000D02*
X63986500Y-139505000D01*
X102438200Y-105714800D02*
X105486200Y-105714800D01*
X105486200Y-105714800D02*
X105486200Y-98602800D01*
X105486200Y-98602800D02*
X102438200Y-98602800D01*
X99390200Y-105714800D02*
X98628200Y-105714800D01*
X98628200Y-105714800D02*
X96342200Y-104190800D01*
X96342200Y-104190800D02*
X96342200Y-100126800D01*
X96342200Y-100126800D02*
X98628200Y-98602800D01*
X98628200Y-98602800D02*
X99390200Y-98602800D01*
X53452000Y-117617000D02*
X54527000Y-117617000D01*
X53452000Y-97267000D02*
X54527000Y-97267000D01*
X73802000Y-97267000D02*
X72727000Y-97267000D01*
X73802000Y-117617000D02*
X72727000Y-117617000D01*
X53452000Y-117617000D02*
X53452000Y-116542000D01*
X73802000Y-117617000D02*
X73802000Y-116542000D01*
X73802000Y-97267000D02*
X73802000Y-98342000D01*
X53452000Y-97267000D02*
X53452000Y-98342000D01*
X54527000Y-117617000D02*
X54527000Y-118717000D01*
X113442300Y-98062800D02*
X113442300Y-94062800D01*
X108147300Y-99337800D02*
X108147300Y-94062800D01*
X112177534Y-147240343D02*
X112129915Y-147287962D01*
X111987058Y-147335581D01*
X111891820Y-147335581D01*
X111748962Y-147287962D01*
X111653724Y-147192724D01*
X111606105Y-147097486D01*
X111558486Y-146907010D01*
X111558486Y-146764152D01*
X111606105Y-146573676D01*
X111653724Y-146478438D01*
X111748962Y-146383200D01*
X111891820Y-146335581D01*
X111987058Y-146335581D01*
X112129915Y-146383200D01*
X112177534Y-146430819D01*
X113129915Y-147335581D02*
X112558486Y-147335581D01*
X112844200Y-147335581D02*
X112844200Y-146335581D01*
X112748962Y-146478438D01*
X112653724Y-146573676D01*
X112558486Y-146621295D01*
X105560834Y-122404143D02*
X105513215Y-122451762D01*
X105370358Y-122499381D01*
X105275120Y-122499381D01*
X105132262Y-122451762D01*
X105037024Y-122356524D01*
X104989405Y-122261286D01*
X104941786Y-122070810D01*
X104941786Y-121927952D01*
X104989405Y-121737476D01*
X105037024Y-121642238D01*
X105132262Y-121547000D01*
X105275120Y-121499381D01*
X105370358Y-121499381D01*
X105513215Y-121547000D01*
X105560834Y-121594619D01*
X105941786Y-121594619D02*
X105989405Y-121547000D01*
X106084643Y-121499381D01*
X106322739Y-121499381D01*
X106417977Y-121547000D01*
X106465596Y-121594619D01*
X106513215Y-121689857D01*
X106513215Y-121785095D01*
X106465596Y-121927952D01*
X105894167Y-122499381D01*
X106513215Y-122499381D01*
X107227643Y-117133666D02*
X107275262Y-117181285D01*
X107322881Y-117324142D01*
X107322881Y-117419380D01*
X107275262Y-117562238D01*
X107180024Y-117657476D01*
X107084786Y-117705095D01*
X106894310Y-117752714D01*
X106751452Y-117752714D01*
X106560976Y-117705095D01*
X106465738Y-117657476D01*
X106370500Y-117562238D01*
X106322881Y-117419380D01*
X106322881Y-117324142D01*
X106370500Y-117181285D01*
X106418119Y-117133666D01*
X106656214Y-116276523D02*
X107322881Y-116276523D01*
X106275262Y-116514619D02*
X106989548Y-116752714D01*
X106989548Y-116133666D01*
X98969534Y-136683943D02*
X98921915Y-136731562D01*
X98779058Y-136779181D01*
X98683820Y-136779181D01*
X98540962Y-136731562D01*
X98445724Y-136636324D01*
X98398105Y-136541086D01*
X98350486Y-136350610D01*
X98350486Y-136207752D01*
X98398105Y-136017276D01*
X98445724Y-135922038D01*
X98540962Y-135826800D01*
X98683820Y-135779181D01*
X98779058Y-135779181D01*
X98921915Y-135826800D01*
X98969534Y-135874419D01*
X99826677Y-135779181D02*
X99636200Y-135779181D01*
X99540962Y-135826800D01*
X99493343Y-135874419D01*
X99398105Y-136017276D01*
X99350486Y-136207752D01*
X99350486Y-136588705D01*
X99398105Y-136683943D01*
X99445724Y-136731562D01*
X99540962Y-136779181D01*
X99731439Y-136779181D01*
X99826677Y-136731562D01*
X99874296Y-136683943D01*
X99921915Y-136588705D01*
X99921915Y-136350610D01*
X99874296Y-136255371D01*
X99826677Y-136207752D01*
X99731439Y-136160133D01*
X99540962Y-136160133D01*
X99445724Y-136207752D01*
X99398105Y-136255371D01*
X99350486Y-136350610D01*
X104024134Y-135642543D02*
X103976515Y-135690162D01*
X103833658Y-135737781D01*
X103738420Y-135737781D01*
X103595562Y-135690162D01*
X103500324Y-135594924D01*
X103452705Y-135499686D01*
X103405086Y-135309210D01*
X103405086Y-135166352D01*
X103452705Y-134975876D01*
X103500324Y-134880638D01*
X103595562Y-134785400D01*
X103738420Y-134737781D01*
X103833658Y-134737781D01*
X103976515Y-134785400D01*
X104024134Y-134833019D01*
X104500324Y-135737781D02*
X104690800Y-135737781D01*
X104786039Y-135690162D01*
X104833658Y-135642543D01*
X104928896Y-135499686D01*
X104976515Y-135309210D01*
X104976515Y-134928257D01*
X104928896Y-134833019D01*
X104881277Y-134785400D01*
X104786039Y-134737781D01*
X104595562Y-134737781D01*
X104500324Y-134785400D01*
X104452705Y-134833019D01*
X104405086Y-134928257D01*
X104405086Y-135166352D01*
X104452705Y-135261590D01*
X104500324Y-135309210D01*
X104595562Y-135356829D01*
X104786039Y-135356829D01*
X104881277Y-135309210D01*
X104928896Y-135261590D01*
X104976515Y-135166352D01*
X76425143Y-121978657D02*
X76472762Y-122026276D01*
X76520381Y-122169133D01*
X76520381Y-122264371D01*
X76472762Y-122407229D01*
X76377524Y-122502467D01*
X76282286Y-122550086D01*
X76091810Y-122597705D01*
X75948952Y-122597705D01*
X75758476Y-122550086D01*
X75663238Y-122502467D01*
X75568000Y-122407229D01*
X75520381Y-122264371D01*
X75520381Y-122169133D01*
X75568000Y-122026276D01*
X75615619Y-121978657D01*
X76520381Y-121026276D02*
X76520381Y-121597705D01*
X76520381Y-121311991D02*
X75520381Y-121311991D01*
X75663238Y-121407229D01*
X75758476Y-121502467D01*
X75806095Y-121597705D01*
X75520381Y-120692943D02*
X75520381Y-120073895D01*
X75901333Y-120407229D01*
X75901333Y-120264371D01*
X75948952Y-120169133D01*
X75996571Y-120121514D01*
X76091810Y-120073895D01*
X76329905Y-120073895D01*
X76425143Y-120121514D01*
X76472762Y-120169133D01*
X76520381Y-120264371D01*
X76520381Y-120550086D01*
X76472762Y-120645324D01*
X76425143Y-120692943D01*
X105084643Y-107672143D02*
X105037024Y-107719762D01*
X104894167Y-107767381D01*
X104798929Y-107767381D01*
X104656071Y-107719762D01*
X104560833Y-107624524D01*
X104513214Y-107529286D01*
X104465595Y-107338810D01*
X104465595Y-107195952D01*
X104513214Y-107005476D01*
X104560833Y-106910238D01*
X104656071Y-106815000D01*
X104798929Y-106767381D01*
X104894167Y-106767381D01*
X105037024Y-106815000D01*
X105084643Y-106862619D01*
X105465595Y-106862619D02*
X105513214Y-106815000D01*
X105608452Y-106767381D01*
X105846548Y-106767381D01*
X105941786Y-106815000D01*
X105989405Y-106862619D01*
X106037024Y-106957857D01*
X106037024Y-107053095D01*
X105989405Y-107195952D01*
X105417976Y-107767381D01*
X106037024Y-107767381D01*
X106941786Y-106767381D02*
X106465595Y-106767381D01*
X106417976Y-107243571D01*
X106465595Y-107195952D01*
X106560833Y-107148333D01*
X106798929Y-107148333D01*
X106894167Y-107195952D01*
X106941786Y-107243571D01*
X106989405Y-107338810D01*
X106989405Y-107576905D01*
X106941786Y-107672143D01*
X106894167Y-107719762D01*
X106798929Y-107767381D01*
X106560833Y-107767381D01*
X106465595Y-107719762D01*
X106417976Y-107672143D01*
X108323143Y-110593143D02*
X108275524Y-110640762D01*
X108132667Y-110688381D01*
X108037429Y-110688381D01*
X107894571Y-110640762D01*
X107799333Y-110545524D01*
X107751714Y-110450286D01*
X107704095Y-110259810D01*
X107704095Y-110116952D01*
X107751714Y-109926476D01*
X107799333Y-109831238D01*
X107894571Y-109736000D01*
X108037429Y-109688381D01*
X108132667Y-109688381D01*
X108275524Y-109736000D01*
X108323143Y-109783619D01*
X108704095Y-109783619D02*
X108751714Y-109736000D01*
X108846952Y-109688381D01*
X109085048Y-109688381D01*
X109180286Y-109736000D01*
X109227905Y-109783619D01*
X109275524Y-109878857D01*
X109275524Y-109974095D01*
X109227905Y-110116952D01*
X108656476Y-110688381D01*
X109275524Y-110688381D01*
X109608857Y-109688381D02*
X110275524Y-109688381D01*
X109846952Y-110688381D01*
X34599643Y-121261143D02*
X34552024Y-121308762D01*
X34409167Y-121356381D01*
X34313929Y-121356381D01*
X34171071Y-121308762D01*
X34075833Y-121213524D01*
X34028214Y-121118286D01*
X33980595Y-120927810D01*
X33980595Y-120784952D01*
X34028214Y-120594476D01*
X34075833Y-120499238D01*
X34171071Y-120404000D01*
X34313929Y-120356381D01*
X34409167Y-120356381D01*
X34552024Y-120404000D01*
X34599643Y-120451619D01*
X35456786Y-120689714D02*
X35456786Y-121356381D01*
X35218690Y-120308762D02*
X34980595Y-121023048D01*
X35599643Y-121023048D01*
X36171071Y-120356381D02*
X36266310Y-120356381D01*
X36361548Y-120404000D01*
X36409167Y-120451619D01*
X36456786Y-120546857D01*
X36504405Y-120737333D01*
X36504405Y-120975429D01*
X36456786Y-121165905D01*
X36409167Y-121261143D01*
X36361548Y-121308762D01*
X36266310Y-121356381D01*
X36171071Y-121356381D01*
X36075833Y-121308762D01*
X36028214Y-121261143D01*
X35980595Y-121165905D01*
X35932976Y-120975429D01*
X35932976Y-120737333D01*
X35980595Y-120546857D01*
X36028214Y-120451619D01*
X36075833Y-120404000D01*
X36171071Y-120356381D01*
X114609643Y-92686143D02*
X114562024Y-92733762D01*
X114419167Y-92781381D01*
X114323929Y-92781381D01*
X114181071Y-92733762D01*
X114085833Y-92638524D01*
X114038214Y-92543286D01*
X113990595Y-92352810D01*
X113990595Y-92209952D01*
X114038214Y-92019476D01*
X114085833Y-91924238D01*
X114181071Y-91829000D01*
X114323929Y-91781381D01*
X114419167Y-91781381D01*
X114562024Y-91829000D01*
X114609643Y-91876619D01*
X115466786Y-92114714D02*
X115466786Y-92781381D01*
X115228690Y-91733762D02*
X114990595Y-92448048D01*
X115609643Y-92448048D01*
X116419167Y-92114714D02*
X116419167Y-92781381D01*
X116181071Y-91733762D02*
X115942976Y-92448048D01*
X116562024Y-92448048D01*
X105973643Y-90781143D02*
X105926024Y-90828762D01*
X105783167Y-90876381D01*
X105687929Y-90876381D01*
X105545071Y-90828762D01*
X105449833Y-90733524D01*
X105402214Y-90638286D01*
X105354595Y-90447810D01*
X105354595Y-90304952D01*
X105402214Y-90114476D01*
X105449833Y-90019238D01*
X105545071Y-89924000D01*
X105687929Y-89876381D01*
X105783167Y-89876381D01*
X105926024Y-89924000D01*
X105973643Y-89971619D01*
X106830786Y-90209714D02*
X106830786Y-90876381D01*
X106592690Y-89828762D02*
X106354595Y-90543048D01*
X106973643Y-90543048D01*
X107830786Y-89876381D02*
X107354595Y-89876381D01*
X107306976Y-90352571D01*
X107354595Y-90304952D01*
X107449833Y-90257333D01*
X107687929Y-90257333D01*
X107783167Y-90304952D01*
X107830786Y-90352571D01*
X107878405Y-90447810D01*
X107878405Y-90685905D01*
X107830786Y-90781143D01*
X107783167Y-90828762D01*
X107687929Y-90876381D01*
X107449833Y-90876381D01*
X107354595Y-90828762D01*
X107306976Y-90781143D01*
X120245143Y-91193857D02*
X120292762Y-91241476D01*
X120340381Y-91384333D01*
X120340381Y-91479571D01*
X120292762Y-91622429D01*
X120197524Y-91717667D01*
X120102286Y-91765286D01*
X119911810Y-91812905D01*
X119768952Y-91812905D01*
X119578476Y-91765286D01*
X119483238Y-91717667D01*
X119388000Y-91622429D01*
X119340381Y-91479571D01*
X119340381Y-91384333D01*
X119388000Y-91241476D01*
X119435619Y-91193857D01*
X119673714Y-90336714D02*
X120340381Y-90336714D01*
X119292762Y-90574810D02*
X120007048Y-90812905D01*
X120007048Y-90193857D01*
X119340381Y-89384333D02*
X119340381Y-89574810D01*
X119388000Y-89670048D01*
X119435619Y-89717667D01*
X119578476Y-89812905D01*
X119768952Y-89860524D01*
X120149905Y-89860524D01*
X120245143Y-89812905D01*
X120292762Y-89765286D01*
X120340381Y-89670048D01*
X120340381Y-89479571D01*
X120292762Y-89384333D01*
X120245143Y-89336714D01*
X120149905Y-89289095D01*
X119911810Y-89289095D01*
X119816571Y-89336714D01*
X119768952Y-89384333D01*
X119721333Y-89479571D01*
X119721333Y-89670048D01*
X119768952Y-89765286D01*
X119816571Y-89812905D01*
X119911810Y-89860524D01*
X120435643Y-103576357D02*
X120483262Y-103623976D01*
X120530881Y-103766833D01*
X120530881Y-103862071D01*
X120483262Y-104004929D01*
X120388024Y-104100167D01*
X120292786Y-104147786D01*
X120102310Y-104195405D01*
X119959452Y-104195405D01*
X119768976Y-104147786D01*
X119673738Y-104100167D01*
X119578500Y-104004929D01*
X119530881Y-103862071D01*
X119530881Y-103766833D01*
X119578500Y-103623976D01*
X119626119Y-103576357D01*
X119864214Y-102719214D02*
X120530881Y-102719214D01*
X119483262Y-102957310D02*
X120197548Y-103195405D01*
X120197548Y-102576357D01*
X119959452Y-102052548D02*
X119911833Y-102147786D01*
X119864214Y-102195405D01*
X119768976Y-102243024D01*
X119721357Y-102243024D01*
X119626119Y-102195405D01*
X119578500Y-102147786D01*
X119530881Y-102052548D01*
X119530881Y-101862071D01*
X119578500Y-101766833D01*
X119626119Y-101719214D01*
X119721357Y-101671595D01*
X119768976Y-101671595D01*
X119864214Y-101719214D01*
X119911833Y-101766833D01*
X119959452Y-101862071D01*
X119959452Y-102052548D01*
X120007071Y-102147786D01*
X120054690Y-102195405D01*
X120149929Y-102243024D01*
X120340405Y-102243024D01*
X120435643Y-102195405D01*
X120483262Y-102147786D01*
X120530881Y-102052548D01*
X120530881Y-101862071D01*
X120483262Y-101766833D01*
X120435643Y-101719214D01*
X120340405Y-101671595D01*
X120149929Y-101671595D01*
X120054690Y-101719214D01*
X120007071Y-101766833D01*
X119959452Y-101862071D01*
X122674215Y-101893643D02*
X122626596Y-101941262D01*
X122483739Y-101988881D01*
X122388501Y-101988881D01*
X122245643Y-101941262D01*
X122150405Y-101846024D01*
X122102786Y-101750786D01*
X122055167Y-101560310D01*
X122055167Y-101417452D01*
X122102786Y-101226976D01*
X122150405Y-101131738D01*
X122245643Y-101036500D01*
X122388501Y-100988881D01*
X122483739Y-100988881D01*
X122626596Y-101036500D01*
X122674215Y-101084119D01*
X123293262Y-100988881D02*
X123483739Y-100988881D01*
X123578977Y-101036500D01*
X123674215Y-101131738D01*
X123721834Y-101322214D01*
X123721834Y-101655548D01*
X123674215Y-101846024D01*
X123578977Y-101941262D01*
X123483739Y-101988881D01*
X123293262Y-101988881D01*
X123198024Y-101941262D01*
X123102786Y-101846024D01*
X123055167Y-101655548D01*
X123055167Y-101322214D01*
X123102786Y-101131738D01*
X123198024Y-101036500D01*
X123293262Y-100988881D01*
X124150405Y-101988881D02*
X124150405Y-100988881D01*
X124721834Y-101988881D01*
X124721834Y-100988881D01*
X125150405Y-101084119D02*
X125198024Y-101036500D01*
X125293262Y-100988881D01*
X125531358Y-100988881D01*
X125626596Y-101036500D01*
X125674215Y-101084119D01*
X125721834Y-101179357D01*
X125721834Y-101274595D01*
X125674215Y-101417452D01*
X125102786Y-101988881D01*
X125721834Y-101988881D01*
X114882705Y-110713781D02*
X114882705Y-109713781D01*
X115120800Y-109713781D01*
X115263658Y-109761400D01*
X115358896Y-109856638D01*
X115406515Y-109951876D01*
X115454134Y-110142352D01*
X115454134Y-110285210D01*
X115406515Y-110475686D01*
X115358896Y-110570924D01*
X115263658Y-110666162D01*
X115120800Y-110713781D01*
X114882705Y-110713781D01*
X116406515Y-110713781D02*
X115835086Y-110713781D01*
X116120800Y-110713781D02*
X116120800Y-109713781D01*
X116025562Y-109856638D01*
X115930324Y-109951876D01*
X115835086Y-109999495D01*
D11*
X45195067Y-120163167D02*
X45195067Y-120882833D01*
X45237400Y-120967500D01*
X45279733Y-121009833D01*
X45364400Y-121052167D01*
X45533733Y-121052167D01*
X45618400Y-121009833D01*
X45660733Y-120967500D01*
X45703067Y-120882833D01*
X45703067Y-120163167D01*
X46253400Y-120544167D02*
X46168733Y-120501833D01*
X46126400Y-120459500D01*
X46084066Y-120374833D01*
X46084066Y-120332500D01*
X46126400Y-120247833D01*
X46168733Y-120205500D01*
X46253400Y-120163167D01*
X46422733Y-120163167D01*
X46507400Y-120205500D01*
X46549733Y-120247833D01*
X46592066Y-120332500D01*
X46592066Y-120374833D01*
X46549733Y-120459500D01*
X46507400Y-120501833D01*
X46422733Y-120544167D01*
X46253400Y-120544167D01*
X46168733Y-120586500D01*
X46126400Y-120628833D01*
X46084066Y-120713500D01*
X46084066Y-120882833D01*
X46126400Y-120967500D01*
X46168733Y-121009833D01*
X46253400Y-121052167D01*
X46422733Y-121052167D01*
X46507400Y-121009833D01*
X46549733Y-120967500D01*
X46592066Y-120882833D01*
X46592066Y-120713500D01*
X46549733Y-120628833D01*
X46507400Y-120586500D01*
X46422733Y-120544167D01*
D10*
X42048134Y-132105581D02*
X41714800Y-131629390D01*
X41476705Y-132105581D02*
X41476705Y-131105581D01*
X41857658Y-131105581D01*
X41952896Y-131153200D01*
X42000515Y-131200819D01*
X42048134Y-131296057D01*
X42048134Y-131438914D01*
X42000515Y-131534152D01*
X41952896Y-131581771D01*
X41857658Y-131629390D01*
X41476705Y-131629390D01*
X42429086Y-131200819D02*
X42476705Y-131153200D01*
X42571943Y-131105581D01*
X42810039Y-131105581D01*
X42905277Y-131153200D01*
X42952896Y-131200819D01*
X43000515Y-131296057D01*
X43000515Y-131391295D01*
X42952896Y-131534152D01*
X42381467Y-132105581D01*
X43000515Y-132105581D01*
X54341734Y-131597581D02*
X54008400Y-131121390D01*
X53770305Y-131597581D02*
X53770305Y-130597581D01*
X54151258Y-130597581D01*
X54246496Y-130645200D01*
X54294115Y-130692819D01*
X54341734Y-130788057D01*
X54341734Y-130930914D01*
X54294115Y-131026152D01*
X54246496Y-131073771D01*
X54151258Y-131121390D01*
X53770305Y-131121390D01*
X54675067Y-130597581D02*
X55294115Y-130597581D01*
X54960781Y-130978533D01*
X55103639Y-130978533D01*
X55198877Y-131026152D01*
X55246496Y-131073771D01*
X55294115Y-131169010D01*
X55294115Y-131407105D01*
X55246496Y-131502343D01*
X55198877Y-131549962D01*
X55103639Y-131597581D01*
X54817924Y-131597581D01*
X54722686Y-131549962D01*
X54675067Y-131502343D01*
X57681834Y-137358381D02*
X57348500Y-136882190D01*
X57110405Y-137358381D02*
X57110405Y-136358381D01*
X57491358Y-136358381D01*
X57586596Y-136406000D01*
X57634215Y-136453619D01*
X57681834Y-136548857D01*
X57681834Y-136691714D01*
X57634215Y-136786952D01*
X57586596Y-136834571D01*
X57491358Y-136882190D01*
X57110405Y-136882190D01*
X58538977Y-136691714D02*
X58538977Y-137358381D01*
X58300881Y-136310762D02*
X58062786Y-137025048D01*
X58681834Y-137025048D01*
X114260334Y-97353381D02*
X113927000Y-96877190D01*
X113688905Y-97353381D02*
X113688905Y-96353381D01*
X114069858Y-96353381D01*
X114165096Y-96401000D01*
X114212715Y-96448619D01*
X114260334Y-96543857D01*
X114260334Y-96686714D01*
X114212715Y-96781952D01*
X114165096Y-96829571D01*
X114069858Y-96877190D01*
X113688905Y-96877190D01*
X115117477Y-96353381D02*
X114927000Y-96353381D01*
X114831762Y-96401000D01*
X114784143Y-96448619D01*
X114688905Y-96591476D01*
X114641286Y-96781952D01*
X114641286Y-97162905D01*
X114688905Y-97258143D01*
X114736524Y-97305762D01*
X114831762Y-97353381D01*
X115022239Y-97353381D01*
X115117477Y-97305762D01*
X115165096Y-97258143D01*
X115212715Y-97162905D01*
X115212715Y-96924810D01*
X115165096Y-96829571D01*
X115117477Y-96781952D01*
X115022239Y-96734333D01*
X114831762Y-96734333D01*
X114736524Y-96781952D01*
X114688905Y-96829571D01*
X114641286Y-96924810D01*
X114323834Y-95448381D02*
X113990500Y-94972190D01*
X113752405Y-95448381D02*
X113752405Y-94448381D01*
X114133358Y-94448381D01*
X114228596Y-94496000D01*
X114276215Y-94543619D01*
X114323834Y-94638857D01*
X114323834Y-94781714D01*
X114276215Y-94876952D01*
X114228596Y-94924571D01*
X114133358Y-94972190D01*
X113752405Y-94972190D01*
X114657167Y-94448381D02*
X115323834Y-94448381D01*
X114895262Y-95448381D01*
X115123934Y-99745981D02*
X114790600Y-99269790D01*
X114552505Y-99745981D02*
X114552505Y-98745981D01*
X114933458Y-98745981D01*
X115028696Y-98793600D01*
X115076315Y-98841219D01*
X115123934Y-98936457D01*
X115123934Y-99079314D01*
X115076315Y-99174552D01*
X115028696Y-99222171D01*
X114933458Y-99269790D01*
X114552505Y-99269790D01*
X115695362Y-99174552D02*
X115600124Y-99126933D01*
X115552505Y-99079314D01*
X115504886Y-98984076D01*
X115504886Y-98936457D01*
X115552505Y-98841219D01*
X115600124Y-98793600D01*
X115695362Y-98745981D01*
X115885839Y-98745981D01*
X115981077Y-98793600D01*
X116028696Y-98841219D01*
X116076315Y-98936457D01*
X116076315Y-98984076D01*
X116028696Y-99079314D01*
X115981077Y-99126933D01*
X115885839Y-99174552D01*
X115695362Y-99174552D01*
X115600124Y-99222171D01*
X115552505Y-99269790D01*
X115504886Y-99365029D01*
X115504886Y-99555505D01*
X115552505Y-99650743D01*
X115600124Y-99698362D01*
X115695362Y-99745981D01*
X115885839Y-99745981D01*
X115981077Y-99698362D01*
X116028696Y-99650743D01*
X116076315Y-99555505D01*
X116076315Y-99365029D01*
X116028696Y-99269790D01*
X115981077Y-99222171D01*
X115885839Y-99174552D01*
X107656334Y-101417381D02*
X107323000Y-100941190D01*
X107084905Y-101417381D02*
X107084905Y-100417381D01*
X107465858Y-100417381D01*
X107561096Y-100465000D01*
X107608715Y-100512619D01*
X107656334Y-100607857D01*
X107656334Y-100750714D01*
X107608715Y-100845952D01*
X107561096Y-100893571D01*
X107465858Y-100941190D01*
X107084905Y-100941190D01*
X108132524Y-101417381D02*
X108323000Y-101417381D01*
X108418239Y-101369762D01*
X108465858Y-101322143D01*
X108561096Y-101179286D01*
X108608715Y-100988810D01*
X108608715Y-100607857D01*
X108561096Y-100512619D01*
X108513477Y-100465000D01*
X108418239Y-100417381D01*
X108227762Y-100417381D01*
X108132524Y-100465000D01*
X108084905Y-100512619D01*
X108037286Y-100607857D01*
X108037286Y-100845952D01*
X108084905Y-100941190D01*
X108132524Y-100988810D01*
X108227762Y-101036429D01*
X108418239Y-101036429D01*
X108513477Y-100988810D01*
X108561096Y-100941190D01*
X108608715Y-100845952D01*
X88709595Y-129055881D02*
X88709595Y-129865405D01*
X88757214Y-129960643D01*
X88804833Y-130008262D01*
X88900071Y-130055881D01*
X89090548Y-130055881D01*
X89185786Y-130008262D01*
X89233405Y-129960643D01*
X89281024Y-129865405D01*
X89281024Y-129055881D01*
X89661976Y-129055881D02*
X90281024Y-129055881D01*
X89947690Y-129436833D01*
X90090548Y-129436833D01*
X90185786Y-129484452D01*
X90233405Y-129532071D01*
X90281024Y-129627310D01*
X90281024Y-129865405D01*
X90233405Y-129960643D01*
X90185786Y-130008262D01*
X90090548Y-130055881D01*
X89804833Y-130055881D01*
X89709595Y-130008262D01*
X89661976Y-129960643D01*
X67691095Y-128992381D02*
X67691095Y-129801905D01*
X67738714Y-129897143D01*
X67786333Y-129944762D01*
X67881571Y-129992381D01*
X68072048Y-129992381D01*
X68167286Y-129944762D01*
X68214905Y-129897143D01*
X68262524Y-129801905D01*
X68262524Y-128992381D01*
X69167286Y-129325714D02*
X69167286Y-129992381D01*
X68929190Y-128944762D02*
X68691095Y-129659048D01*
X69310143Y-129659048D01*
X98361595Y-97051881D02*
X98361595Y-97861405D01*
X98409214Y-97956643D01*
X98456833Y-98004262D01*
X98552071Y-98051881D01*
X98742548Y-98051881D01*
X98837786Y-98004262D01*
X98885405Y-97956643D01*
X98933024Y-97861405D01*
X98933024Y-97051881D01*
X99885405Y-97051881D02*
X99409214Y-97051881D01*
X99361595Y-97528071D01*
X99409214Y-97480452D01*
X99504452Y-97432833D01*
X99742548Y-97432833D01*
X99837786Y-97480452D01*
X99885405Y-97528071D01*
X99933024Y-97623310D01*
X99933024Y-97861405D01*
X99885405Y-97956643D01*
X99837786Y-98004262D01*
X99742548Y-98051881D01*
X99504452Y-98051881D01*
X99409214Y-98004262D01*
X99361595Y-97956643D01*
X62585695Y-93610181D02*
X62585695Y-94419705D01*
X62633314Y-94514943D01*
X62680933Y-94562562D01*
X62776171Y-94610181D01*
X62966648Y-94610181D01*
X63061886Y-94562562D01*
X63109505Y-94514943D01*
X63157124Y-94419705D01*
X63157124Y-93610181D01*
X64061886Y-93610181D02*
X63871409Y-93610181D01*
X63776171Y-93657800D01*
X63728552Y-93705419D01*
X63633314Y-93848276D01*
X63585695Y-94038752D01*
X63585695Y-94419705D01*
X63633314Y-94514943D01*
X63680933Y-94562562D01*
X63776171Y-94610181D01*
X63966648Y-94610181D01*
X64061886Y-94562562D01*
X64109505Y-94514943D01*
X64157124Y-94419705D01*
X64157124Y-94181610D01*
X64109505Y-94086371D01*
X64061886Y-94038752D01*
X63966648Y-93991133D01*
X63776171Y-93991133D01*
X63680933Y-94038752D01*
X63633314Y-94086371D01*
X63585695Y-94181610D01*
X105664095Y-95337381D02*
X105664095Y-96146905D01*
X105711714Y-96242143D01*
X105759333Y-96289762D01*
X105854571Y-96337381D01*
X106045048Y-96337381D01*
X106140286Y-96289762D01*
X106187905Y-96242143D01*
X106235524Y-96146905D01*
X106235524Y-95337381D01*
X106616476Y-95337381D02*
X107283143Y-95337381D01*
X106854571Y-96337381D01*
D12*
X61406314Y-147229286D02*
X61333743Y-147301857D01*
X61116029Y-147374429D01*
X60970886Y-147374429D01*
X60753171Y-147301857D01*
X60608029Y-147156714D01*
X60535457Y-147011571D01*
X60462886Y-146721286D01*
X60462886Y-146503571D01*
X60535457Y-146213286D01*
X60608029Y-146068143D01*
X60753171Y-145923000D01*
X60970886Y-145850429D01*
X61116029Y-145850429D01*
X61333743Y-145923000D01*
X61406314Y-145995571D01*
X62059457Y-147374429D02*
X62059457Y-145850429D01*
X62930314Y-147374429D01*
X62930314Y-145850429D01*
X64454314Y-147374429D02*
X63583457Y-147374429D01*
X64018885Y-147374429D02*
X64018885Y-145850429D01*
X63873742Y-146068143D01*
X63728600Y-146213286D01*
X63583457Y-146285857D01*
M02*
