G04 #@! TF.FileFunction,Legend,Bot*
%FSLAX46Y46*%
G04 Gerber Fmt 4.6, Leading zero omitted, Abs format (unit mm)*
G04 Created by KiCad (PCBNEW 4.0.0-rc1-stable) date 08.10.2015 0:04:06*
%MOMM*%
G01*
G04 APERTURE LIST*
%ADD10C,0.152400*%
%ADD11C,0.150000*%
%ADD12C,0.203200*%
%ADD13C,0.010000*%
G04 APERTURE END LIST*
D10*
D11*
X47750000Y-139375000D02*
X47750000Y-140075000D01*
X48950000Y-140075000D02*
X48950000Y-139375000D01*
X45225000Y-141150000D02*
X44525000Y-141150000D01*
X44525000Y-142350000D02*
X45225000Y-142350000D01*
X97350000Y-123725000D02*
X98350000Y-123725000D01*
X98350000Y-122375000D02*
X97350000Y-122375000D01*
X38740000Y-110865000D02*
X37740000Y-110865000D01*
X37740000Y-112215000D02*
X38740000Y-112215000D01*
X43700000Y-113925000D02*
X42700000Y-113925000D01*
X42700000Y-115275000D02*
X43700000Y-115275000D01*
X75150000Y-98375000D02*
X74150000Y-98375000D01*
X74150000Y-99725000D02*
X75150000Y-99725000D01*
X97350000Y-125175000D02*
X98350000Y-125175000D01*
X98350000Y-123825000D02*
X97350000Y-123825000D01*
X114450000Y-111800000D02*
X114450000Y-111100000D01*
X113250000Y-111100000D02*
X113250000Y-111800000D01*
X82860000Y-111360000D02*
X82860000Y-110660000D01*
X81660000Y-110660000D02*
X81660000Y-111360000D01*
X32550000Y-99100000D02*
X33250000Y-99100000D01*
X33250000Y-97900000D02*
X32550000Y-97900000D01*
X58980000Y-128370000D02*
X59680000Y-128370000D01*
X59680000Y-127170000D02*
X58980000Y-127170000D01*
X104330000Y-125760000D02*
X104330000Y-126460000D01*
X105530000Y-126460000D02*
X105530000Y-125760000D01*
X90470000Y-139080000D02*
X90470000Y-139780000D01*
X91670000Y-139780000D02*
X91670000Y-139080000D01*
X64275000Y-140650000D02*
X64275000Y-139950000D01*
X63075000Y-139950000D02*
X63075000Y-140650000D01*
X59170000Y-140110000D02*
X59870000Y-140110000D01*
X59870000Y-138910000D02*
X59170000Y-138910000D01*
X89525000Y-124850000D02*
X89525000Y-124150000D01*
X88325000Y-124150000D02*
X88325000Y-124850000D01*
X88720000Y-140920000D02*
X88720000Y-141620000D01*
X89920000Y-141620000D02*
X89920000Y-140920000D01*
X100940000Y-123630000D02*
X100940000Y-124330000D01*
X102140000Y-124330000D02*
X102140000Y-123630000D01*
X110700000Y-126300000D02*
X110700000Y-127000000D01*
X111900000Y-127000000D02*
X111900000Y-126300000D01*
X114050000Y-94730000D02*
X114050000Y-95430000D01*
X115250000Y-95430000D02*
X115250000Y-94730000D01*
X82860000Y-101770000D02*
X82860000Y-101070000D01*
X81660000Y-101070000D02*
X81660000Y-101770000D01*
X116900000Y-110950000D02*
X116900000Y-110250000D01*
X115700000Y-110250000D02*
X115700000Y-110950000D01*
X114300000Y-108250000D02*
X114300000Y-107550000D01*
X113100000Y-107550000D02*
X113100000Y-108250000D01*
X69850000Y-128900000D02*
X69850000Y-128200000D01*
X68650000Y-128200000D02*
X68650000Y-128900000D01*
X67500000Y-112725000D02*
X67500000Y-113425000D01*
X68700000Y-113425000D02*
X68700000Y-112725000D01*
X56200000Y-124400000D02*
X56200000Y-123700000D01*
X55000000Y-123700000D02*
X55000000Y-124400000D01*
X58975000Y-129825000D02*
X59675000Y-129825000D01*
X59675000Y-128625000D02*
X58975000Y-128625000D01*
X73680000Y-129760000D02*
X74380000Y-129760000D01*
X74380000Y-128560000D02*
X73680000Y-128560000D01*
X30925000Y-103350000D02*
X30925000Y-104050000D01*
X32125000Y-104050000D02*
X32125000Y-103350000D01*
X71390000Y-128900000D02*
X71390000Y-128200000D01*
X70190000Y-128200000D02*
X70190000Y-128900000D01*
X55320000Y-110360000D02*
X55320000Y-109660000D01*
X54120000Y-109660000D02*
X54120000Y-110360000D01*
X65450000Y-112750000D02*
X65450000Y-113450000D01*
X66650000Y-113450000D02*
X66650000Y-112750000D01*
X47525000Y-110475000D02*
X47525000Y-109775000D01*
X46325000Y-109775000D02*
X46325000Y-110475000D01*
X39600000Y-105325000D02*
X39600000Y-106025000D01*
X40800000Y-106025000D02*
X40800000Y-105325000D01*
X106100000Y-120700000D02*
X106600000Y-120700000D01*
X103600000Y-120700000D02*
X104100000Y-120700000D01*
X96100000Y-120700000D02*
X96600000Y-120700000D01*
X93600000Y-120700000D02*
X94100000Y-120700000D01*
X91200000Y-120700000D02*
X91600000Y-120700000D01*
X86100000Y-120700000D02*
X87500000Y-120700000D01*
X84200000Y-100100000D02*
X84200000Y-120700000D01*
X113100000Y-101300000D02*
X113100000Y-120700000D01*
X113100000Y-120700000D02*
X108600000Y-120700000D01*
X113100000Y-90900000D02*
X84200000Y-90900000D01*
X84200000Y-90900000D02*
X84200000Y-96900000D01*
X113100000Y-90900000D02*
X113100000Y-98100000D01*
X106185000Y-125810000D02*
X106185000Y-126810000D01*
X107535000Y-126810000D02*
X107535000Y-125810000D01*
X116075000Y-101270000D02*
X116075000Y-100270000D01*
X114725000Y-100270000D02*
X114725000Y-101270000D01*
X40125000Y-98325000D02*
X40125000Y-97325000D01*
X38775000Y-97325000D02*
X38775000Y-98325000D01*
X106100000Y-122705000D02*
X105100000Y-122705000D01*
X105100000Y-124055000D02*
X106100000Y-124055000D01*
X82915000Y-115530000D02*
X82915000Y-114530000D01*
X81565000Y-114530000D02*
X81565000Y-115530000D01*
X82915000Y-119710000D02*
X82915000Y-118710000D01*
X81565000Y-118710000D02*
X81565000Y-119710000D01*
X104975000Y-139475000D02*
X104717500Y-139475000D01*
X104975000Y-133125000D02*
X104717500Y-133125000D01*
X92225000Y-133125000D02*
X92482500Y-133125000D01*
X92225000Y-139475000D02*
X92482500Y-139475000D01*
X104975000Y-139475000D02*
X104975000Y-133125000D01*
X92225000Y-139475000D02*
X92225000Y-133125000D01*
X104717500Y-139475000D02*
X104717500Y-140550000D01*
X66900000Y-131675000D02*
X67900000Y-131675000D01*
X67900000Y-130325000D02*
X66900000Y-130325000D01*
X40675000Y-94275000D02*
X40675000Y-93575000D01*
X39475000Y-93575000D02*
X39475000Y-94275000D01*
X42825000Y-93725000D02*
X42825000Y-95725000D01*
X40775000Y-95725000D02*
X40775000Y-93725000D01*
X56550000Y-115025000D02*
X57250000Y-115025000D01*
X57250000Y-113825000D02*
X56550000Y-113825000D01*
X35524000Y-90244000D02*
X38572000Y-90244000D01*
X38572000Y-90244000D02*
X38572000Y-97356000D01*
X38572000Y-97356000D02*
X35524000Y-97356000D01*
X32476000Y-90244000D02*
X31714000Y-90244000D01*
X31714000Y-90244000D02*
X29428000Y-91768000D01*
X29428000Y-91768000D02*
X29428000Y-95832000D01*
X29428000Y-95832000D02*
X31714000Y-97356000D01*
X31714000Y-97356000D02*
X32476000Y-97356000D01*
X112300000Y-123700000D02*
X113000000Y-123700000D01*
X113000000Y-122500000D02*
X112300000Y-122500000D01*
X115300000Y-124850000D02*
X115300000Y-125550000D01*
X116500000Y-125550000D02*
X116500000Y-124850000D01*
X115700000Y-111800000D02*
X115700000Y-111100000D01*
X114500000Y-111100000D02*
X114500000Y-111800000D01*
X113100000Y-126350000D02*
X113100000Y-127050000D01*
X114300000Y-127050000D02*
X114300000Y-126350000D01*
D12*
X117600000Y-120954000D02*
X117600000Y-121970000D01*
X117600000Y-120446000D02*
X117600000Y-119430000D01*
X118616000Y-120954000D02*
X116584000Y-120954000D01*
X118616000Y-120446000D02*
X116584000Y-120446000D01*
X119251000Y-123240000D02*
X118933500Y-123240000D01*
X119251000Y-118160000D02*
X118933500Y-118160000D01*
X115949000Y-118160000D02*
X116266500Y-118160000D01*
X115949000Y-123240000D02*
X116266500Y-123240000D01*
X115949000Y-123240000D02*
X115949000Y-118160000D01*
X119251000Y-123240000D02*
X119251000Y-118160000D01*
D13*
G36*
X37229630Y-114458513D02*
X36925651Y-114542085D01*
X36605151Y-114670951D01*
X36411022Y-114768554D01*
X36146210Y-114912035D01*
X35627855Y-114891951D01*
X35322313Y-114886499D01*
X35056446Y-114898379D01*
X34786515Y-114930430D01*
X34623428Y-114957167D01*
X34433212Y-114989909D01*
X34277761Y-115015455D01*
X34173444Y-115031199D01*
X34136594Y-115034649D01*
X34118855Y-114995919D01*
X34074996Y-114907344D01*
X34051167Y-114860189D01*
X33917361Y-114682979D01*
X33733075Y-114566497D01*
X33508438Y-114512353D01*
X33253580Y-114522160D01*
X32978631Y-114597526D01*
X32826534Y-114665460D01*
X32677819Y-114732126D01*
X32558504Y-114769105D01*
X32495785Y-114771177D01*
X32421320Y-114764044D01*
X32290614Y-114770340D01*
X32130783Y-114788669D01*
X32116772Y-114790729D01*
X31719195Y-114892070D01*
X31333948Y-115071569D01*
X30966645Y-115322983D01*
X30622902Y-115640070D01*
X30308335Y-116016588D01*
X30028557Y-116446294D01*
X29789185Y-116922946D01*
X29595834Y-117440301D01*
X29530262Y-117666118D01*
X29485571Y-117837389D01*
X29452306Y-117980503D01*
X29428756Y-118112974D01*
X29413206Y-118252314D01*
X29403942Y-118416036D01*
X29399252Y-118621656D01*
X29397422Y-118886685D01*
X29397080Y-119027333D01*
X29397692Y-119341391D01*
X29401734Y-119588891D01*
X29410514Y-119787912D01*
X29425344Y-119956536D01*
X29447534Y-120112843D01*
X29478396Y-120274915D01*
X29492210Y-120339666D01*
X29571638Y-120660510D01*
X29676505Y-121020175D01*
X29797227Y-121389643D01*
X29924218Y-121739897D01*
X30047893Y-122041920D01*
X30072546Y-122096500D01*
X30229496Y-122430240D01*
X30402006Y-122785400D01*
X30585036Y-123152546D01*
X30773546Y-123522242D01*
X30962496Y-123885054D01*
X31146847Y-124231547D01*
X31321558Y-124552287D01*
X31481590Y-124837838D01*
X31621903Y-125078767D01*
X31737457Y-125265639D01*
X31823212Y-125389018D01*
X31845812Y-125416067D01*
X31934699Y-125478205D01*
X32035221Y-125502851D01*
X32116532Y-125486356D01*
X32144609Y-125451416D01*
X32154635Y-125388316D01*
X32167710Y-125262036D01*
X32181773Y-125093909D01*
X32189551Y-124985923D01*
X32202979Y-124797956D01*
X32214896Y-124682503D01*
X32229204Y-124627580D01*
X32249805Y-124621208D01*
X32280601Y-124651406D01*
X32293403Y-124667029D01*
X32369890Y-124731179D01*
X32478182Y-124753895D01*
X32547862Y-124753590D01*
X32658594Y-124752858D01*
X32703982Y-124769991D01*
X32703078Y-124816071D01*
X32695824Y-124839650D01*
X32678778Y-124936111D01*
X32665130Y-125100670D01*
X32654975Y-125316822D01*
X32648410Y-125568063D01*
X32645534Y-125837888D01*
X32646444Y-126109792D01*
X32651235Y-126367272D01*
X32660007Y-126593823D01*
X32672855Y-126772940D01*
X32683931Y-126859000D01*
X32714174Y-127021267D01*
X32742301Y-127119578D01*
X32778599Y-127173731D01*
X32833357Y-127203523D01*
X32868874Y-127214881D01*
X32998913Y-127253263D01*
X32997797Y-127574715D01*
X33020240Y-127902224D01*
X33094061Y-128174697D01*
X33225245Y-128408564D01*
X33356748Y-128560445D01*
X33471266Y-128669941D01*
X33557308Y-128731044D01*
X33643661Y-128757726D01*
X33759112Y-128763962D01*
X33776087Y-128764000D01*
X34015142Y-128734143D01*
X34206893Y-128640219D01*
X34333192Y-128518222D01*
X34445051Y-128424161D01*
X34590458Y-128353108D01*
X34612089Y-128346349D01*
X34750948Y-128284908D01*
X34898605Y-128187402D01*
X34961339Y-128133853D01*
X35053804Y-128046819D01*
X35115307Y-127990699D01*
X35130667Y-127978437D01*
X35113415Y-128015737D01*
X35070038Y-128102820D01*
X35048525Y-128145215D01*
X35005385Y-128257683D01*
X34957597Y-128426154D01*
X34912590Y-128622831D01*
X34892227Y-128730018D01*
X34852349Y-128937653D01*
X34815809Y-129076374D01*
X34777447Y-129161508D01*
X34732104Y-129208381D01*
X34730953Y-129209121D01*
X34664195Y-129230887D01*
X34534136Y-129249529D01*
X34335411Y-129265483D01*
X34062655Y-129279180D01*
X33718387Y-129290831D01*
X33390860Y-129300894D01*
X33134250Y-129312251D01*
X32934825Y-129327973D01*
X32778853Y-129351135D01*
X32652604Y-129384811D01*
X32542346Y-129432074D01*
X32434348Y-129495998D01*
X32314878Y-129579657D01*
X32265154Y-129616127D01*
X31760387Y-129994142D01*
X31281630Y-130364634D01*
X30835350Y-130722109D01*
X30428014Y-131061070D01*
X30066090Y-131376023D01*
X29756044Y-131661472D01*
X29504345Y-131911923D01*
X29320417Y-132118240D01*
X29161667Y-132313209D01*
X29161667Y-132953273D01*
X29168854Y-133413623D01*
X29189886Y-133820543D01*
X29223970Y-134168154D01*
X29270312Y-134450577D01*
X29328118Y-134661936D01*
X29396597Y-134796352D01*
X29412950Y-134814949D01*
X29465106Y-134847314D01*
X29555563Y-134874647D01*
X29690336Y-134897339D01*
X29875441Y-134915783D01*
X30116893Y-134930368D01*
X30420708Y-134941487D01*
X30792901Y-134949530D01*
X31239489Y-134954888D01*
X31601607Y-134957260D01*
X31974450Y-134958125D01*
X32270334Y-134956521D01*
X32496941Y-134952154D01*
X32661950Y-134944728D01*
X32773042Y-134933948D01*
X32837898Y-134919521D01*
X32857772Y-134909024D01*
X32914612Y-134896458D01*
X33046321Y-134885562D01*
X33243117Y-134876341D01*
X33495219Y-134868802D01*
X33792845Y-134862950D01*
X34126215Y-134858790D01*
X34485546Y-134856327D01*
X34861057Y-134855569D01*
X35242967Y-134856519D01*
X35621494Y-134859183D01*
X35986856Y-134863568D01*
X36329273Y-134869679D01*
X36638963Y-134877520D01*
X36906144Y-134887099D01*
X37121034Y-134898419D01*
X37226167Y-134906541D01*
X37390943Y-134917979D01*
X37621463Y-134928583D01*
X37905243Y-134938208D01*
X38229803Y-134946713D01*
X38582658Y-134953954D01*
X38951327Y-134959790D01*
X39323326Y-134964077D01*
X39686174Y-134966673D01*
X40027387Y-134967436D01*
X40334483Y-134966222D01*
X40594979Y-134962889D01*
X40796394Y-134957295D01*
X40926243Y-134949297D01*
X40930334Y-134948864D01*
X41067854Y-134929225D01*
X41149025Y-134897739D01*
X41202057Y-134838324D01*
X41236026Y-134774609D01*
X41287040Y-134641401D01*
X41329007Y-134464549D01*
X41362938Y-134235678D01*
X41389842Y-133946414D01*
X41410729Y-133588384D01*
X41425029Y-133206620D01*
X41438691Y-132756433D01*
X41276995Y-132756433D01*
X41274060Y-132948653D01*
X41261253Y-133372529D01*
X41239188Y-133754983D01*
X41208833Y-134088165D01*
X41171158Y-134364228D01*
X41127131Y-134575323D01*
X41077720Y-134713600D01*
X41051403Y-134752866D01*
X40992694Y-134771502D01*
X40861009Y-134787808D01*
X40668006Y-134801723D01*
X40425347Y-134813183D01*
X40144690Y-134822125D01*
X39837696Y-134828485D01*
X39516025Y-134832202D01*
X39191336Y-134833211D01*
X38875288Y-134831449D01*
X38579543Y-134826855D01*
X38315759Y-134819363D01*
X38095596Y-134808912D01*
X37930715Y-134795439D01*
X37832774Y-134778879D01*
X37813619Y-134770381D01*
X37752638Y-134754469D01*
X37616310Y-134739785D01*
X37413947Y-134726399D01*
X37154859Y-134714382D01*
X36848358Y-134703804D01*
X36503756Y-134694737D01*
X36130364Y-134687250D01*
X35737494Y-134681416D01*
X35334457Y-134677303D01*
X34930565Y-134674984D01*
X34535129Y-134674528D01*
X34157460Y-134676007D01*
X33806871Y-134679491D01*
X33492672Y-134685051D01*
X33224175Y-134692757D01*
X33010692Y-134702681D01*
X32861534Y-134714892D01*
X32786012Y-134729462D01*
X32781167Y-134732178D01*
X32714544Y-134750314D01*
X32575263Y-134764901D01*
X32375258Y-134776029D01*
X32126459Y-134783789D01*
X31840798Y-134788268D01*
X31530208Y-134789556D01*
X31206619Y-134787742D01*
X30881963Y-134782917D01*
X30568173Y-134775168D01*
X30277180Y-134764586D01*
X30020915Y-134751260D01*
X29811310Y-134735279D01*
X29660297Y-134716732D01*
X29618516Y-134708507D01*
X29513679Y-134648413D01*
X29460194Y-134548485D01*
X29427703Y-134408391D01*
X29397030Y-134198970D01*
X29369542Y-133935561D01*
X29346606Y-133633505D01*
X29329590Y-133308141D01*
X29319859Y-132974806D01*
X29319839Y-132973628D01*
X29309834Y-132380275D01*
X29551538Y-132106721D01*
X29684744Y-131964659D01*
X29858128Y-131791976D01*
X30047142Y-131612631D01*
X30193204Y-131480379D01*
X30379522Y-131320088D01*
X30611071Y-131127194D01*
X30874705Y-130912084D01*
X31157277Y-130685141D01*
X31445642Y-130456752D01*
X31726652Y-130237301D01*
X31987163Y-130037175D01*
X32214027Y-129866757D01*
X32394097Y-129736434D01*
X32447055Y-129699898D01*
X32747943Y-129496475D01*
X33717055Y-129466395D01*
X34028949Y-129456360D01*
X34268182Y-129447174D01*
X34446729Y-129437412D01*
X34576564Y-129425652D01*
X34669663Y-129410472D01*
X34738000Y-129390448D01*
X34793551Y-129364157D01*
X34844917Y-129332390D01*
X34952583Y-129246644D01*
X34998286Y-129161547D01*
X35003667Y-129106742D01*
X35015835Y-128940987D01*
X35048205Y-128739531D01*
X35094574Y-128528708D01*
X35148742Y-128334852D01*
X35204506Y-128184296D01*
X35233930Y-128129000D01*
X35290568Y-128016346D01*
X35343443Y-127866563D01*
X35386381Y-127704997D01*
X35413207Y-127556993D01*
X35417747Y-127447899D01*
X35408280Y-127413291D01*
X35343893Y-127363837D01*
X35268453Y-127389786D01*
X35193039Y-127484817D01*
X35159157Y-127555402D01*
X35046303Y-127765853D01*
X34898021Y-127951481D01*
X34732650Y-128093184D01*
X34568528Y-128171860D01*
X34566918Y-128172273D01*
X34379943Y-128259205D01*
X34236465Y-128389509D01*
X34059939Y-128539830D01*
X33877108Y-128607627D01*
X33695345Y-128593928D01*
X33522024Y-128499765D01*
X33364519Y-128326165D01*
X33323393Y-128262015D01*
X33219351Y-128024666D01*
X33157750Y-127749758D01*
X33141599Y-127467189D01*
X33173908Y-127206856D01*
X33206524Y-127101112D01*
X33215648Y-127054626D01*
X33180918Y-127039718D01*
X33084014Y-127050022D01*
X33067156Y-127052679D01*
X32958151Y-127065218D01*
X32904068Y-127047293D01*
X32876905Y-126985540D01*
X32870347Y-126958734D01*
X32849946Y-126823865D01*
X32833702Y-126623963D01*
X32821902Y-126378574D01*
X32814831Y-126107245D01*
X32812774Y-125829519D01*
X32816017Y-125564944D01*
X32824846Y-125333065D01*
X32839546Y-125153426D01*
X32843527Y-125123333D01*
X32875805Y-124904445D01*
X32894265Y-124755603D01*
X32894274Y-124662684D01*
X32871201Y-124611567D01*
X32820414Y-124588131D01*
X32737280Y-124578255D01*
X32662797Y-124572336D01*
X32488725Y-124539045D01*
X32375695Y-124480309D01*
X32330531Y-124403839D01*
X32360055Y-124317343D01*
X32400726Y-124276202D01*
X32450965Y-124210432D01*
X32457549Y-124175769D01*
X32467118Y-124099492D01*
X32474040Y-124079536D01*
X32277681Y-124079536D01*
X32270026Y-124121421D01*
X32236056Y-124185288D01*
X32215709Y-124166019D01*
X32209667Y-124077700D01*
X32219925Y-124002191D01*
X32252022Y-124005779D01*
X32253388Y-124007121D01*
X32277681Y-124079536D01*
X32474040Y-124079536D01*
X32483387Y-124052590D01*
X32503747Y-123985150D01*
X32500647Y-123965215D01*
X32461686Y-123934650D01*
X32376825Y-123867119D01*
X32288685Y-123796651D01*
X32176491Y-123711612D01*
X32110926Y-123677718D01*
X32076381Y-123688712D01*
X32066435Y-123707572D01*
X32057664Y-123771201D01*
X32050068Y-123903771D01*
X32044191Y-124089561D01*
X32040577Y-124312849D01*
X32039686Y-124481212D01*
X32037313Y-124720396D01*
X32031161Y-124932149D01*
X32022000Y-125101001D01*
X32010598Y-125211483D01*
X32001700Y-125245796D01*
X31968048Y-125264044D01*
X31918018Y-125222055D01*
X31846025Y-125118796D01*
X31686407Y-124856385D01*
X31500961Y-124532221D01*
X31297492Y-124161564D01*
X31083803Y-123759671D01*
X30867699Y-123341803D01*
X30656985Y-122923218D01*
X30459465Y-122519175D01*
X30282945Y-122144934D01*
X30135228Y-121815752D01*
X30040582Y-121588925D01*
X29822014Y-120957776D01*
X29660965Y-120317013D01*
X29560013Y-119682291D01*
X29521737Y-119069265D01*
X29541810Y-118561666D01*
X29628652Y-117978419D01*
X29775248Y-117420416D01*
X29976951Y-116896521D01*
X30229111Y-116415597D01*
X30527078Y-115986507D01*
X30866205Y-115618115D01*
X31241841Y-115319284D01*
X31242897Y-115318581D01*
X31514154Y-115152937D01*
X31756802Y-115041476D01*
X31998100Y-114974764D01*
X32265307Y-114943368D01*
X32336667Y-114940028D01*
X32538378Y-114927654D01*
X32685547Y-114903339D01*
X32808133Y-114860447D01*
X32893895Y-114816638D01*
X33115559Y-114722249D01*
X33333763Y-114681613D01*
X33535973Y-114690648D01*
X33709650Y-114745274D01*
X33842260Y-114841410D01*
X33921263Y-114974973D01*
X33934126Y-115141884D01*
X33932235Y-115154653D01*
X33919770Y-115251703D01*
X33919919Y-115300599D01*
X33921506Y-115302000D01*
X33965725Y-115289252D01*
X34061137Y-115257230D01*
X34105380Y-115241776D01*
X34385268Y-115164337D01*
X34721952Y-115105335D01*
X35088958Y-115067888D01*
X35459815Y-115055117D01*
X35651901Y-115059557D01*
X36158541Y-115082899D01*
X36480687Y-114918462D01*
X36861855Y-114744123D01*
X37196775Y-114633245D01*
X37483656Y-114585854D01*
X37720706Y-114601974D01*
X37906134Y-114681629D01*
X38038146Y-114824843D01*
X38074320Y-114896859D01*
X38131004Y-114996693D01*
X38213296Y-115047991D01*
X38303514Y-115068802D01*
X38498697Y-115133598D01*
X38724792Y-115261940D01*
X38970547Y-115443951D01*
X39224711Y-115669756D01*
X39476032Y-115929480D01*
X39713259Y-116213246D01*
X39895543Y-116466166D01*
X40258626Y-117081139D01*
X40563177Y-117744223D01*
X40806450Y-118442801D01*
X40985696Y-119164255D01*
X41098169Y-119895969D01*
X41141120Y-120625327D01*
X41111803Y-121339710D01*
X41053667Y-121784277D01*
X40992029Y-122114360D01*
X40914556Y-122474439D01*
X40826502Y-122843914D01*
X40733125Y-123202182D01*
X40639679Y-123528643D01*
X40551420Y-123802695D01*
X40509637Y-123916833D01*
X40415894Y-124144622D01*
X40322747Y-124346463D01*
X40236955Y-124509723D01*
X40165280Y-124621770D01*
X40114480Y-124669969D01*
X40106275Y-124670659D01*
X40076350Y-124628705D01*
X40035033Y-124525631D01*
X39990668Y-124382647D01*
X39985516Y-124363742D01*
X39940891Y-124208393D01*
X39903945Y-124118381D01*
X39863995Y-124076393D01*
X39810360Y-124065114D01*
X39801208Y-124065000D01*
X39681186Y-124045941D01*
X39611592Y-124019236D01*
X39532083Y-123991030D01*
X39498690Y-124021659D01*
X39508377Y-124117697D01*
X39529693Y-124196541D01*
X39554295Y-124368099D01*
X39525490Y-124513779D01*
X39449198Y-124613579D01*
X39398747Y-124638907D01*
X39300021Y-124631472D01*
X39210184Y-124565665D01*
X39157090Y-124465630D01*
X39152334Y-124425327D01*
X39135734Y-124325325D01*
X39081791Y-124299342D01*
X39017695Y-124323088D01*
X38909594Y-124343959D01*
X38787591Y-124317379D01*
X38687300Y-124289012D01*
X38628441Y-124281284D01*
X38624135Y-124283030D01*
X38638813Y-124322739D01*
X38690168Y-124417265D01*
X38769022Y-124550251D01*
X38822447Y-124636500D01*
X38928717Y-124816746D01*
X39057131Y-125052055D01*
X39199626Y-125325891D01*
X39348139Y-125621718D01*
X39494608Y-125923000D01*
X39630969Y-126213202D01*
X39749160Y-126475787D01*
X39841117Y-126694219D01*
X39891031Y-126828013D01*
X39947498Y-127015518D01*
X39995262Y-127207723D01*
X40022929Y-127356416D01*
X40052241Y-127578666D01*
X39914347Y-127578666D01*
X39815697Y-127562204D01*
X39665127Y-127518031D01*
X39487570Y-127453966D01*
X39390310Y-127414306D01*
X39019635Y-127259506D01*
X38710983Y-127137991D01*
X38450588Y-127045301D01*
X38224687Y-126976976D01*
X38019515Y-126928556D01*
X37821306Y-126895580D01*
X37768996Y-126888960D01*
X37611881Y-126892741D01*
X37490292Y-126938112D01*
X37423625Y-127015889D01*
X37416667Y-127055791D01*
X37403954Y-127115777D01*
X37368705Y-127241605D01*
X37315256Y-127418829D01*
X37247945Y-127633002D01*
X37185476Y-127825974D01*
X37093175Y-128115025D01*
X37027698Y-128339987D01*
X36985481Y-128515792D01*
X36962960Y-128657377D01*
X36956573Y-128779676D01*
X36956610Y-128785166D01*
X36945945Y-128962429D01*
X36916116Y-129138647D01*
X36891755Y-129223590D01*
X36855689Y-129339881D01*
X36841671Y-129422098D01*
X36844558Y-129440348D01*
X36892153Y-129455144D01*
X37007306Y-129471847D01*
X37172999Y-129488458D01*
X37372215Y-129502975D01*
X37382585Y-129503600D01*
X37557980Y-129514077D01*
X37698505Y-129526100D01*
X37816768Y-129545836D01*
X37925376Y-129579451D01*
X38036937Y-129633112D01*
X38164056Y-129712985D01*
X38319342Y-129825237D01*
X38515403Y-129976035D01*
X38764844Y-130171545D01*
X38792500Y-130193237D01*
X39324347Y-130616581D01*
X39799898Y-131008193D01*
X40216335Y-131365567D01*
X40570839Y-131686199D01*
X40860592Y-131967580D01*
X41082776Y-132207206D01*
X41153436Y-132292486D01*
X41208588Y-132364519D01*
X41245013Y-132427854D01*
X41266218Y-132501569D01*
X41275710Y-132604736D01*
X41276995Y-132756433D01*
X41438691Y-132756433D01*
X41450153Y-132378740D01*
X41309487Y-132211787D01*
X41081986Y-131955983D01*
X40817563Y-131686015D01*
X40509818Y-131396130D01*
X40152349Y-131080578D01*
X39738755Y-130733606D01*
X39262634Y-130349465D01*
X39048475Y-130180367D01*
X38761324Y-129954857D01*
X38531036Y-129775581D01*
X38347487Y-129636994D01*
X38200553Y-129533549D01*
X38080111Y-129459701D01*
X37976037Y-129409903D01*
X37878207Y-129378609D01*
X37776496Y-129360274D01*
X37660782Y-129349352D01*
X37520940Y-129340296D01*
X37514176Y-129339860D01*
X37328349Y-129326979D01*
X37177213Y-129314859D01*
X37078569Y-129305033D01*
X37049415Y-129299858D01*
X37054678Y-129257105D01*
X37079694Y-129159029D01*
X37103039Y-129079524D01*
X37137756Y-128924535D01*
X37151341Y-128774748D01*
X37148734Y-128721666D01*
X37153079Y-128620807D01*
X37184805Y-128457646D01*
X37245115Y-128227236D01*
X37335213Y-127924629D01*
X37368665Y-127817654D01*
X37607167Y-127061808D01*
X37861167Y-127085095D01*
X38048172Y-127117770D01*
X38295103Y-127184576D01*
X38586815Y-127280491D01*
X38908165Y-127400492D01*
X39244010Y-127539558D01*
X39283263Y-127556716D01*
X39454431Y-127629289D01*
X39614708Y-127692683D01*
X39733828Y-127735011D01*
X39748930Y-127739581D01*
X39868118Y-127776327D01*
X39960363Y-127808720D01*
X39963977Y-127810182D01*
X40054285Y-127808088D01*
X40134591Y-127739365D01*
X40191224Y-127621973D01*
X40210667Y-127486116D01*
X40189343Y-127280998D01*
X40129269Y-127023369D01*
X40036290Y-126732690D01*
X39916254Y-126428419D01*
X39846765Y-126274837D01*
X39769227Y-126109503D01*
X39707463Y-125974746D01*
X39669129Y-125887456D01*
X39660334Y-125863542D01*
X39642115Y-125815500D01*
X39593379Y-125710227D01*
X39523009Y-125565435D01*
X39439883Y-125398835D01*
X39352886Y-125228137D01*
X39270897Y-125071052D01*
X39202798Y-124945293D01*
X39178578Y-124902832D01*
X39061672Y-124703498D01*
X39188610Y-124766823D01*
X39349109Y-124807234D01*
X39496456Y-124771209D01*
X39618748Y-124666971D01*
X39704083Y-124502742D01*
X39730538Y-124392448D01*
X39752024Y-124298114D01*
X39776686Y-124276359D01*
X39806985Y-124330341D01*
X39845385Y-124463221D01*
X39871283Y-124573000D01*
X39922716Y-124750312D01*
X39983936Y-124850350D01*
X40063104Y-124880491D01*
X40168383Y-124848113D01*
X40173034Y-124845735D01*
X40265181Y-124761614D01*
X40368726Y-124604268D01*
X40480325Y-124383848D01*
X40596634Y-124110503D01*
X40714308Y-123794381D01*
X40830003Y-123445633D01*
X40940373Y-123074408D01*
X41042075Y-122690854D01*
X41131763Y-122305122D01*
X41206093Y-121927359D01*
X41261720Y-121567717D01*
X41266998Y-121526110D01*
X41313296Y-120835832D01*
X41288116Y-120120168D01*
X41194833Y-119393305D01*
X41036822Y-118669428D01*
X40817456Y-117962721D01*
X40540108Y-117287371D01*
X40208153Y-116657562D01*
X40048399Y-116402666D01*
X39832310Y-116104410D01*
X39588438Y-115816806D01*
X39328746Y-115550607D01*
X39065202Y-115316568D01*
X38809768Y-115125444D01*
X38574410Y-114987989D01*
X38400917Y-114921855D01*
X38291454Y-114883077D01*
X38226849Y-114839906D01*
X38219592Y-114824118D01*
X38183132Y-114736556D01*
X38090208Y-114630490D01*
X37959609Y-114526213D01*
X37920573Y-114501149D01*
X37739278Y-114435886D01*
X37504902Y-114422394D01*
X37229630Y-114458513D01*
X37229630Y-114458513D01*
G37*
X37229630Y-114458513D02*
X36925651Y-114542085D01*
X36605151Y-114670951D01*
X36411022Y-114768554D01*
X36146210Y-114912035D01*
X35627855Y-114891951D01*
X35322313Y-114886499D01*
X35056446Y-114898379D01*
X34786515Y-114930430D01*
X34623428Y-114957167D01*
X34433212Y-114989909D01*
X34277761Y-115015455D01*
X34173444Y-115031199D01*
X34136594Y-115034649D01*
X34118855Y-114995919D01*
X34074996Y-114907344D01*
X34051167Y-114860189D01*
X33917361Y-114682979D01*
X33733075Y-114566497D01*
X33508438Y-114512353D01*
X33253580Y-114522160D01*
X32978631Y-114597526D01*
X32826534Y-114665460D01*
X32677819Y-114732126D01*
X32558504Y-114769105D01*
X32495785Y-114771177D01*
X32421320Y-114764044D01*
X32290614Y-114770340D01*
X32130783Y-114788669D01*
X32116772Y-114790729D01*
X31719195Y-114892070D01*
X31333948Y-115071569D01*
X30966645Y-115322983D01*
X30622902Y-115640070D01*
X30308335Y-116016588D01*
X30028557Y-116446294D01*
X29789185Y-116922946D01*
X29595834Y-117440301D01*
X29530262Y-117666118D01*
X29485571Y-117837389D01*
X29452306Y-117980503D01*
X29428756Y-118112974D01*
X29413206Y-118252314D01*
X29403942Y-118416036D01*
X29399252Y-118621656D01*
X29397422Y-118886685D01*
X29397080Y-119027333D01*
X29397692Y-119341391D01*
X29401734Y-119588891D01*
X29410514Y-119787912D01*
X29425344Y-119956536D01*
X29447534Y-120112843D01*
X29478396Y-120274915D01*
X29492210Y-120339666D01*
X29571638Y-120660510D01*
X29676505Y-121020175D01*
X29797227Y-121389643D01*
X29924218Y-121739897D01*
X30047893Y-122041920D01*
X30072546Y-122096500D01*
X30229496Y-122430240D01*
X30402006Y-122785400D01*
X30585036Y-123152546D01*
X30773546Y-123522242D01*
X30962496Y-123885054D01*
X31146847Y-124231547D01*
X31321558Y-124552287D01*
X31481590Y-124837838D01*
X31621903Y-125078767D01*
X31737457Y-125265639D01*
X31823212Y-125389018D01*
X31845812Y-125416067D01*
X31934699Y-125478205D01*
X32035221Y-125502851D01*
X32116532Y-125486356D01*
X32144609Y-125451416D01*
X32154635Y-125388316D01*
X32167710Y-125262036D01*
X32181773Y-125093909D01*
X32189551Y-124985923D01*
X32202979Y-124797956D01*
X32214896Y-124682503D01*
X32229204Y-124627580D01*
X32249805Y-124621208D01*
X32280601Y-124651406D01*
X32293403Y-124667029D01*
X32369890Y-124731179D01*
X32478182Y-124753895D01*
X32547862Y-124753590D01*
X32658594Y-124752858D01*
X32703982Y-124769991D01*
X32703078Y-124816071D01*
X32695824Y-124839650D01*
X32678778Y-124936111D01*
X32665130Y-125100670D01*
X32654975Y-125316822D01*
X32648410Y-125568063D01*
X32645534Y-125837888D01*
X32646444Y-126109792D01*
X32651235Y-126367272D01*
X32660007Y-126593823D01*
X32672855Y-126772940D01*
X32683931Y-126859000D01*
X32714174Y-127021267D01*
X32742301Y-127119578D01*
X32778599Y-127173731D01*
X32833357Y-127203523D01*
X32868874Y-127214881D01*
X32998913Y-127253263D01*
X32997797Y-127574715D01*
X33020240Y-127902224D01*
X33094061Y-128174697D01*
X33225245Y-128408564D01*
X33356748Y-128560445D01*
X33471266Y-128669941D01*
X33557308Y-128731044D01*
X33643661Y-128757726D01*
X33759112Y-128763962D01*
X33776087Y-128764000D01*
X34015142Y-128734143D01*
X34206893Y-128640219D01*
X34333192Y-128518222D01*
X34445051Y-128424161D01*
X34590458Y-128353108D01*
X34612089Y-128346349D01*
X34750948Y-128284908D01*
X34898605Y-128187402D01*
X34961339Y-128133853D01*
X35053804Y-128046819D01*
X35115307Y-127990699D01*
X35130667Y-127978437D01*
X35113415Y-128015737D01*
X35070038Y-128102820D01*
X35048525Y-128145215D01*
X35005385Y-128257683D01*
X34957597Y-128426154D01*
X34912590Y-128622831D01*
X34892227Y-128730018D01*
X34852349Y-128937653D01*
X34815809Y-129076374D01*
X34777447Y-129161508D01*
X34732104Y-129208381D01*
X34730953Y-129209121D01*
X34664195Y-129230887D01*
X34534136Y-129249529D01*
X34335411Y-129265483D01*
X34062655Y-129279180D01*
X33718387Y-129290831D01*
X33390860Y-129300894D01*
X33134250Y-129312251D01*
X32934825Y-129327973D01*
X32778853Y-129351135D01*
X32652604Y-129384811D01*
X32542346Y-129432074D01*
X32434348Y-129495998D01*
X32314878Y-129579657D01*
X32265154Y-129616127D01*
X31760387Y-129994142D01*
X31281630Y-130364634D01*
X30835350Y-130722109D01*
X30428014Y-131061070D01*
X30066090Y-131376023D01*
X29756044Y-131661472D01*
X29504345Y-131911923D01*
X29320417Y-132118240D01*
X29161667Y-132313209D01*
X29161667Y-132953273D01*
X29168854Y-133413623D01*
X29189886Y-133820543D01*
X29223970Y-134168154D01*
X29270312Y-134450577D01*
X29328118Y-134661936D01*
X29396597Y-134796352D01*
X29412950Y-134814949D01*
X29465106Y-134847314D01*
X29555563Y-134874647D01*
X29690336Y-134897339D01*
X29875441Y-134915783D01*
X30116893Y-134930368D01*
X30420708Y-134941487D01*
X30792901Y-134949530D01*
X31239489Y-134954888D01*
X31601607Y-134957260D01*
X31974450Y-134958125D01*
X32270334Y-134956521D01*
X32496941Y-134952154D01*
X32661950Y-134944728D01*
X32773042Y-134933948D01*
X32837898Y-134919521D01*
X32857772Y-134909024D01*
X32914612Y-134896458D01*
X33046321Y-134885562D01*
X33243117Y-134876341D01*
X33495219Y-134868802D01*
X33792845Y-134862950D01*
X34126215Y-134858790D01*
X34485546Y-134856327D01*
X34861057Y-134855569D01*
X35242967Y-134856519D01*
X35621494Y-134859183D01*
X35986856Y-134863568D01*
X36329273Y-134869679D01*
X36638963Y-134877520D01*
X36906144Y-134887099D01*
X37121034Y-134898419D01*
X37226167Y-134906541D01*
X37390943Y-134917979D01*
X37621463Y-134928583D01*
X37905243Y-134938208D01*
X38229803Y-134946713D01*
X38582658Y-134953954D01*
X38951327Y-134959790D01*
X39323326Y-134964077D01*
X39686174Y-134966673D01*
X40027387Y-134967436D01*
X40334483Y-134966222D01*
X40594979Y-134962889D01*
X40796394Y-134957295D01*
X40926243Y-134949297D01*
X40930334Y-134948864D01*
X41067854Y-134929225D01*
X41149025Y-134897739D01*
X41202057Y-134838324D01*
X41236026Y-134774609D01*
X41287040Y-134641401D01*
X41329007Y-134464549D01*
X41362938Y-134235678D01*
X41389842Y-133946414D01*
X41410729Y-133588384D01*
X41425029Y-133206620D01*
X41438691Y-132756433D01*
X41276995Y-132756433D01*
X41274060Y-132948653D01*
X41261253Y-133372529D01*
X41239188Y-133754983D01*
X41208833Y-134088165D01*
X41171158Y-134364228D01*
X41127131Y-134575323D01*
X41077720Y-134713600D01*
X41051403Y-134752866D01*
X40992694Y-134771502D01*
X40861009Y-134787808D01*
X40668006Y-134801723D01*
X40425347Y-134813183D01*
X40144690Y-134822125D01*
X39837696Y-134828485D01*
X39516025Y-134832202D01*
X39191336Y-134833211D01*
X38875288Y-134831449D01*
X38579543Y-134826855D01*
X38315759Y-134819363D01*
X38095596Y-134808912D01*
X37930715Y-134795439D01*
X37832774Y-134778879D01*
X37813619Y-134770381D01*
X37752638Y-134754469D01*
X37616310Y-134739785D01*
X37413947Y-134726399D01*
X37154859Y-134714382D01*
X36848358Y-134703804D01*
X36503756Y-134694737D01*
X36130364Y-134687250D01*
X35737494Y-134681416D01*
X35334457Y-134677303D01*
X34930565Y-134674984D01*
X34535129Y-134674528D01*
X34157460Y-134676007D01*
X33806871Y-134679491D01*
X33492672Y-134685051D01*
X33224175Y-134692757D01*
X33010692Y-134702681D01*
X32861534Y-134714892D01*
X32786012Y-134729462D01*
X32781167Y-134732178D01*
X32714544Y-134750314D01*
X32575263Y-134764901D01*
X32375258Y-134776029D01*
X32126459Y-134783789D01*
X31840798Y-134788268D01*
X31530208Y-134789556D01*
X31206619Y-134787742D01*
X30881963Y-134782917D01*
X30568173Y-134775168D01*
X30277180Y-134764586D01*
X30020915Y-134751260D01*
X29811310Y-134735279D01*
X29660297Y-134716732D01*
X29618516Y-134708507D01*
X29513679Y-134648413D01*
X29460194Y-134548485D01*
X29427703Y-134408391D01*
X29397030Y-134198970D01*
X29369542Y-133935561D01*
X29346606Y-133633505D01*
X29329590Y-133308141D01*
X29319859Y-132974806D01*
X29319839Y-132973628D01*
X29309834Y-132380275D01*
X29551538Y-132106721D01*
X29684744Y-131964659D01*
X29858128Y-131791976D01*
X30047142Y-131612631D01*
X30193204Y-131480379D01*
X30379522Y-131320088D01*
X30611071Y-131127194D01*
X30874705Y-130912084D01*
X31157277Y-130685141D01*
X31445642Y-130456752D01*
X31726652Y-130237301D01*
X31987163Y-130037175D01*
X32214027Y-129866757D01*
X32394097Y-129736434D01*
X32447055Y-129699898D01*
X32747943Y-129496475D01*
X33717055Y-129466395D01*
X34028949Y-129456360D01*
X34268182Y-129447174D01*
X34446729Y-129437412D01*
X34576564Y-129425652D01*
X34669663Y-129410472D01*
X34738000Y-129390448D01*
X34793551Y-129364157D01*
X34844917Y-129332390D01*
X34952583Y-129246644D01*
X34998286Y-129161547D01*
X35003667Y-129106742D01*
X35015835Y-128940987D01*
X35048205Y-128739531D01*
X35094574Y-128528708D01*
X35148742Y-128334852D01*
X35204506Y-128184296D01*
X35233930Y-128129000D01*
X35290568Y-128016346D01*
X35343443Y-127866563D01*
X35386381Y-127704997D01*
X35413207Y-127556993D01*
X35417747Y-127447899D01*
X35408280Y-127413291D01*
X35343893Y-127363837D01*
X35268453Y-127389786D01*
X35193039Y-127484817D01*
X35159157Y-127555402D01*
X35046303Y-127765853D01*
X34898021Y-127951481D01*
X34732650Y-128093184D01*
X34568528Y-128171860D01*
X34566918Y-128172273D01*
X34379943Y-128259205D01*
X34236465Y-128389509D01*
X34059939Y-128539830D01*
X33877108Y-128607627D01*
X33695345Y-128593928D01*
X33522024Y-128499765D01*
X33364519Y-128326165D01*
X33323393Y-128262015D01*
X33219351Y-128024666D01*
X33157750Y-127749758D01*
X33141599Y-127467189D01*
X33173908Y-127206856D01*
X33206524Y-127101112D01*
X33215648Y-127054626D01*
X33180918Y-127039718D01*
X33084014Y-127050022D01*
X33067156Y-127052679D01*
X32958151Y-127065218D01*
X32904068Y-127047293D01*
X32876905Y-126985540D01*
X32870347Y-126958734D01*
X32849946Y-126823865D01*
X32833702Y-126623963D01*
X32821902Y-126378574D01*
X32814831Y-126107245D01*
X32812774Y-125829519D01*
X32816017Y-125564944D01*
X32824846Y-125333065D01*
X32839546Y-125153426D01*
X32843527Y-125123333D01*
X32875805Y-124904445D01*
X32894265Y-124755603D01*
X32894274Y-124662684D01*
X32871201Y-124611567D01*
X32820414Y-124588131D01*
X32737280Y-124578255D01*
X32662797Y-124572336D01*
X32488725Y-124539045D01*
X32375695Y-124480309D01*
X32330531Y-124403839D01*
X32360055Y-124317343D01*
X32400726Y-124276202D01*
X32450965Y-124210432D01*
X32457549Y-124175769D01*
X32467118Y-124099492D01*
X32474040Y-124079536D01*
X32277681Y-124079536D01*
X32270026Y-124121421D01*
X32236056Y-124185288D01*
X32215709Y-124166019D01*
X32209667Y-124077700D01*
X32219925Y-124002191D01*
X32252022Y-124005779D01*
X32253388Y-124007121D01*
X32277681Y-124079536D01*
X32474040Y-124079536D01*
X32483387Y-124052590D01*
X32503747Y-123985150D01*
X32500647Y-123965215D01*
X32461686Y-123934650D01*
X32376825Y-123867119D01*
X32288685Y-123796651D01*
X32176491Y-123711612D01*
X32110926Y-123677718D01*
X32076381Y-123688712D01*
X32066435Y-123707572D01*
X32057664Y-123771201D01*
X32050068Y-123903771D01*
X32044191Y-124089561D01*
X32040577Y-124312849D01*
X32039686Y-124481212D01*
X32037313Y-124720396D01*
X32031161Y-124932149D01*
X32022000Y-125101001D01*
X32010598Y-125211483D01*
X32001700Y-125245796D01*
X31968048Y-125264044D01*
X31918018Y-125222055D01*
X31846025Y-125118796D01*
X31686407Y-124856385D01*
X31500961Y-124532221D01*
X31297492Y-124161564D01*
X31083803Y-123759671D01*
X30867699Y-123341803D01*
X30656985Y-122923218D01*
X30459465Y-122519175D01*
X30282945Y-122144934D01*
X30135228Y-121815752D01*
X30040582Y-121588925D01*
X29822014Y-120957776D01*
X29660965Y-120317013D01*
X29560013Y-119682291D01*
X29521737Y-119069265D01*
X29541810Y-118561666D01*
X29628652Y-117978419D01*
X29775248Y-117420416D01*
X29976951Y-116896521D01*
X30229111Y-116415597D01*
X30527078Y-115986507D01*
X30866205Y-115618115D01*
X31241841Y-115319284D01*
X31242897Y-115318581D01*
X31514154Y-115152937D01*
X31756802Y-115041476D01*
X31998100Y-114974764D01*
X32265307Y-114943368D01*
X32336667Y-114940028D01*
X32538378Y-114927654D01*
X32685547Y-114903339D01*
X32808133Y-114860447D01*
X32893895Y-114816638D01*
X33115559Y-114722249D01*
X33333763Y-114681613D01*
X33535973Y-114690648D01*
X33709650Y-114745274D01*
X33842260Y-114841410D01*
X33921263Y-114974973D01*
X33934126Y-115141884D01*
X33932235Y-115154653D01*
X33919770Y-115251703D01*
X33919919Y-115300599D01*
X33921506Y-115302000D01*
X33965725Y-115289252D01*
X34061137Y-115257230D01*
X34105380Y-115241776D01*
X34385268Y-115164337D01*
X34721952Y-115105335D01*
X35088958Y-115067888D01*
X35459815Y-115055117D01*
X35651901Y-115059557D01*
X36158541Y-115082899D01*
X36480687Y-114918462D01*
X36861855Y-114744123D01*
X37196775Y-114633245D01*
X37483656Y-114585854D01*
X37720706Y-114601974D01*
X37906134Y-114681629D01*
X38038146Y-114824843D01*
X38074320Y-114896859D01*
X38131004Y-114996693D01*
X38213296Y-115047991D01*
X38303514Y-115068802D01*
X38498697Y-115133598D01*
X38724792Y-115261940D01*
X38970547Y-115443951D01*
X39224711Y-115669756D01*
X39476032Y-115929480D01*
X39713259Y-116213246D01*
X39895543Y-116466166D01*
X40258626Y-117081139D01*
X40563177Y-117744223D01*
X40806450Y-118442801D01*
X40985696Y-119164255D01*
X41098169Y-119895969D01*
X41141120Y-120625327D01*
X41111803Y-121339710D01*
X41053667Y-121784277D01*
X40992029Y-122114360D01*
X40914556Y-122474439D01*
X40826502Y-122843914D01*
X40733125Y-123202182D01*
X40639679Y-123528643D01*
X40551420Y-123802695D01*
X40509637Y-123916833D01*
X40415894Y-124144622D01*
X40322747Y-124346463D01*
X40236955Y-124509723D01*
X40165280Y-124621770D01*
X40114480Y-124669969D01*
X40106275Y-124670659D01*
X40076350Y-124628705D01*
X40035033Y-124525631D01*
X39990668Y-124382647D01*
X39985516Y-124363742D01*
X39940891Y-124208393D01*
X39903945Y-124118381D01*
X39863995Y-124076393D01*
X39810360Y-124065114D01*
X39801208Y-124065000D01*
X39681186Y-124045941D01*
X39611592Y-124019236D01*
X39532083Y-123991030D01*
X39498690Y-124021659D01*
X39508377Y-124117697D01*
X39529693Y-124196541D01*
X39554295Y-124368099D01*
X39525490Y-124513779D01*
X39449198Y-124613579D01*
X39398747Y-124638907D01*
X39300021Y-124631472D01*
X39210184Y-124565665D01*
X39157090Y-124465630D01*
X39152334Y-124425327D01*
X39135734Y-124325325D01*
X39081791Y-124299342D01*
X39017695Y-124323088D01*
X38909594Y-124343959D01*
X38787591Y-124317379D01*
X38687300Y-124289012D01*
X38628441Y-124281284D01*
X38624135Y-124283030D01*
X38638813Y-124322739D01*
X38690168Y-124417265D01*
X38769022Y-124550251D01*
X38822447Y-124636500D01*
X38928717Y-124816746D01*
X39057131Y-125052055D01*
X39199626Y-125325891D01*
X39348139Y-125621718D01*
X39494608Y-125923000D01*
X39630969Y-126213202D01*
X39749160Y-126475787D01*
X39841117Y-126694219D01*
X39891031Y-126828013D01*
X39947498Y-127015518D01*
X39995262Y-127207723D01*
X40022929Y-127356416D01*
X40052241Y-127578666D01*
X39914347Y-127578666D01*
X39815697Y-127562204D01*
X39665127Y-127518031D01*
X39487570Y-127453966D01*
X39390310Y-127414306D01*
X39019635Y-127259506D01*
X38710983Y-127137991D01*
X38450588Y-127045301D01*
X38224687Y-126976976D01*
X38019515Y-126928556D01*
X37821306Y-126895580D01*
X37768996Y-126888960D01*
X37611881Y-126892741D01*
X37490292Y-126938112D01*
X37423625Y-127015889D01*
X37416667Y-127055791D01*
X37403954Y-127115777D01*
X37368705Y-127241605D01*
X37315256Y-127418829D01*
X37247945Y-127633002D01*
X37185476Y-127825974D01*
X37093175Y-128115025D01*
X37027698Y-128339987D01*
X36985481Y-128515792D01*
X36962960Y-128657377D01*
X36956573Y-128779676D01*
X36956610Y-128785166D01*
X36945945Y-128962429D01*
X36916116Y-129138647D01*
X36891755Y-129223590D01*
X36855689Y-129339881D01*
X36841671Y-129422098D01*
X36844558Y-129440348D01*
X36892153Y-129455144D01*
X37007306Y-129471847D01*
X37172999Y-129488458D01*
X37372215Y-129502975D01*
X37382585Y-129503600D01*
X37557980Y-129514077D01*
X37698505Y-129526100D01*
X37816768Y-129545836D01*
X37925376Y-129579451D01*
X38036937Y-129633112D01*
X38164056Y-129712985D01*
X38319342Y-129825237D01*
X38515403Y-129976035D01*
X38764844Y-130171545D01*
X38792500Y-130193237D01*
X39324347Y-130616581D01*
X39799898Y-131008193D01*
X40216335Y-131365567D01*
X40570839Y-131686199D01*
X40860592Y-131967580D01*
X41082776Y-132207206D01*
X41153436Y-132292486D01*
X41208588Y-132364519D01*
X41245013Y-132427854D01*
X41266218Y-132501569D01*
X41275710Y-132604736D01*
X41276995Y-132756433D01*
X41438691Y-132756433D01*
X41450153Y-132378740D01*
X41309487Y-132211787D01*
X41081986Y-131955983D01*
X40817563Y-131686015D01*
X40509818Y-131396130D01*
X40152349Y-131080578D01*
X39738755Y-130733606D01*
X39262634Y-130349465D01*
X39048475Y-130180367D01*
X38761324Y-129954857D01*
X38531036Y-129775581D01*
X38347487Y-129636994D01*
X38200553Y-129533549D01*
X38080111Y-129459701D01*
X37976037Y-129409903D01*
X37878207Y-129378609D01*
X37776496Y-129360274D01*
X37660782Y-129349352D01*
X37520940Y-129340296D01*
X37514176Y-129339860D01*
X37328349Y-129326979D01*
X37177213Y-129314859D01*
X37078569Y-129305033D01*
X37049415Y-129299858D01*
X37054678Y-129257105D01*
X37079694Y-129159029D01*
X37103039Y-129079524D01*
X37137756Y-128924535D01*
X37151341Y-128774748D01*
X37148734Y-128721666D01*
X37153079Y-128620807D01*
X37184805Y-128457646D01*
X37245115Y-128227236D01*
X37335213Y-127924629D01*
X37368665Y-127817654D01*
X37607167Y-127061808D01*
X37861167Y-127085095D01*
X38048172Y-127117770D01*
X38295103Y-127184576D01*
X38586815Y-127280491D01*
X38908165Y-127400492D01*
X39244010Y-127539558D01*
X39283263Y-127556716D01*
X39454431Y-127629289D01*
X39614708Y-127692683D01*
X39733828Y-127735011D01*
X39748930Y-127739581D01*
X39868118Y-127776327D01*
X39960363Y-127808720D01*
X39963977Y-127810182D01*
X40054285Y-127808088D01*
X40134591Y-127739365D01*
X40191224Y-127621973D01*
X40210667Y-127486116D01*
X40189343Y-127280998D01*
X40129269Y-127023369D01*
X40036290Y-126732690D01*
X39916254Y-126428419D01*
X39846765Y-126274837D01*
X39769227Y-126109503D01*
X39707463Y-125974746D01*
X39669129Y-125887456D01*
X39660334Y-125863542D01*
X39642115Y-125815500D01*
X39593379Y-125710227D01*
X39523009Y-125565435D01*
X39439883Y-125398835D01*
X39352886Y-125228137D01*
X39270897Y-125071052D01*
X39202798Y-124945293D01*
X39178578Y-124902832D01*
X39061672Y-124703498D01*
X39188610Y-124766823D01*
X39349109Y-124807234D01*
X39496456Y-124771209D01*
X39618748Y-124666971D01*
X39704083Y-124502742D01*
X39730538Y-124392448D01*
X39752024Y-124298114D01*
X39776686Y-124276359D01*
X39806985Y-124330341D01*
X39845385Y-124463221D01*
X39871283Y-124573000D01*
X39922716Y-124750312D01*
X39983936Y-124850350D01*
X40063104Y-124880491D01*
X40168383Y-124848113D01*
X40173034Y-124845735D01*
X40265181Y-124761614D01*
X40368726Y-124604268D01*
X40480325Y-124383848D01*
X40596634Y-124110503D01*
X40714308Y-123794381D01*
X40830003Y-123445633D01*
X40940373Y-123074408D01*
X41042075Y-122690854D01*
X41131763Y-122305122D01*
X41206093Y-121927359D01*
X41261720Y-121567717D01*
X41266998Y-121526110D01*
X41313296Y-120835832D01*
X41288116Y-120120168D01*
X41194833Y-119393305D01*
X41036822Y-118669428D01*
X40817456Y-117962721D01*
X40540108Y-117287371D01*
X40208153Y-116657562D01*
X40048399Y-116402666D01*
X39832310Y-116104410D01*
X39588438Y-115816806D01*
X39328746Y-115550607D01*
X39065202Y-115316568D01*
X38809768Y-115125444D01*
X38574410Y-114987989D01*
X38400917Y-114921855D01*
X38291454Y-114883077D01*
X38226849Y-114839906D01*
X38219592Y-114824118D01*
X38183132Y-114736556D01*
X38090208Y-114630490D01*
X37959609Y-114526213D01*
X37920573Y-114501149D01*
X37739278Y-114435886D01*
X37504902Y-114422394D01*
X37229630Y-114458513D01*
G36*
X40953538Y-132760236D02*
X40776343Y-132807426D01*
X40549565Y-132879626D01*
X40286828Y-132971558D01*
X40001759Y-133077943D01*
X39707982Y-133193503D01*
X39419123Y-133312962D01*
X39148808Y-133431041D01*
X38910661Y-133542461D01*
X38718309Y-133641946D01*
X38658363Y-133676540D01*
X38464645Y-133786610D01*
X38318172Y-133852615D01*
X38199348Y-133882464D01*
X38138391Y-133886333D01*
X37967000Y-133886333D01*
X37967000Y-134648333D01*
X38549084Y-134639404D01*
X38781312Y-134635368D01*
X39072518Y-134629582D01*
X39397044Y-134622599D01*
X39729232Y-134614969D01*
X40027330Y-134607654D01*
X40293999Y-134599931D01*
X40531005Y-134591288D01*
X40725656Y-134582336D01*
X40865262Y-134573683D01*
X40937135Y-134565938D01*
X40943844Y-134563666D01*
X40953406Y-134516412D01*
X40966908Y-134399137D01*
X40982972Y-134226321D01*
X41000217Y-134012443D01*
X41012395Y-133844000D01*
X41030449Y-133592196D01*
X41048737Y-133354246D01*
X41065653Y-133149929D01*
X41079586Y-132999025D01*
X41085585Y-132944416D01*
X41093417Y-132814511D01*
X41078508Y-132748781D01*
X41067523Y-132743333D01*
X40953538Y-132760236D01*
X40953538Y-132760236D01*
G37*
X40953538Y-132760236D02*
X40776343Y-132807426D01*
X40549565Y-132879626D01*
X40286828Y-132971558D01*
X40001759Y-133077943D01*
X39707982Y-133193503D01*
X39419123Y-133312962D01*
X39148808Y-133431041D01*
X38910661Y-133542461D01*
X38718309Y-133641946D01*
X38658363Y-133676540D01*
X38464645Y-133786610D01*
X38318172Y-133852615D01*
X38199348Y-133882464D01*
X38138391Y-133886333D01*
X37967000Y-133886333D01*
X37967000Y-134648333D01*
X38549084Y-134639404D01*
X38781312Y-134635368D01*
X39072518Y-134629582D01*
X39397044Y-134622599D01*
X39729232Y-134614969D01*
X40027330Y-134607654D01*
X40293999Y-134599931D01*
X40531005Y-134591288D01*
X40725656Y-134582336D01*
X40865262Y-134573683D01*
X40937135Y-134565938D01*
X40943844Y-134563666D01*
X40953406Y-134516412D01*
X40966908Y-134399137D01*
X40982972Y-134226321D01*
X41000217Y-134012443D01*
X41012395Y-133844000D01*
X41030449Y-133592196D01*
X41048737Y-133354246D01*
X41065653Y-133149929D01*
X41079586Y-132999025D01*
X41085585Y-132944416D01*
X41093417Y-132814511D01*
X41078508Y-132748781D01*
X41067523Y-132743333D01*
X40953538Y-132760236D01*
G36*
X29518929Y-132988263D02*
X29532218Y-133158787D01*
X29548607Y-133384961D01*
X29566061Y-133637926D01*
X29582544Y-133888819D01*
X29583291Y-133900561D01*
X29597713Y-134113290D01*
X29611626Y-134293232D01*
X29623693Y-134424787D01*
X29632576Y-134492353D01*
X29634507Y-134497894D01*
X29680388Y-134503895D01*
X29798427Y-134512185D01*
X29976159Y-134522242D01*
X30201121Y-134533548D01*
X30460851Y-134545582D01*
X30742884Y-134557824D01*
X31034759Y-134569754D01*
X31324010Y-134580852D01*
X31598176Y-134590599D01*
X31844793Y-134598474D01*
X32051398Y-134603957D01*
X32205527Y-134606529D01*
X32241417Y-134606653D01*
X32633000Y-134606000D01*
X32633000Y-133893775D01*
X32453084Y-133865280D01*
X32338254Y-133831151D01*
X32177422Y-133762765D01*
X31995905Y-133671498D01*
X31892167Y-133613177D01*
X31692501Y-133506102D01*
X31432212Y-133381366D01*
X31131276Y-133247244D01*
X30809667Y-133112014D01*
X30487358Y-132983949D01*
X30184325Y-132871325D01*
X29920542Y-132782419D01*
X29802978Y-132747605D01*
X29491790Y-132661692D01*
X29518929Y-132988263D01*
X29518929Y-132988263D01*
G37*
X29518929Y-132988263D02*
X29532218Y-133158787D01*
X29548607Y-133384961D01*
X29566061Y-133637926D01*
X29582544Y-133888819D01*
X29583291Y-133900561D01*
X29597713Y-134113290D01*
X29611626Y-134293232D01*
X29623693Y-134424787D01*
X29632576Y-134492353D01*
X29634507Y-134497894D01*
X29680388Y-134503895D01*
X29798427Y-134512185D01*
X29976159Y-134522242D01*
X30201121Y-134533548D01*
X30460851Y-134545582D01*
X30742884Y-134557824D01*
X31034759Y-134569754D01*
X31324010Y-134580852D01*
X31598176Y-134590599D01*
X31844793Y-134598474D01*
X32051398Y-134603957D01*
X32205527Y-134606529D01*
X32241417Y-134606653D01*
X32633000Y-134606000D01*
X32633000Y-133893775D01*
X32453084Y-133865280D01*
X32338254Y-133831151D01*
X32177422Y-133762765D01*
X31995905Y-133671498D01*
X31892167Y-133613177D01*
X31692501Y-133506102D01*
X31432212Y-133381366D01*
X31131276Y-133247244D01*
X30809667Y-133112014D01*
X30487358Y-132983949D01*
X30184325Y-132871325D01*
X29920542Y-132782419D01*
X29802978Y-132747605D01*
X29491790Y-132661692D01*
X29518929Y-132988263D01*
G36*
X34849814Y-134437242D02*
X34447359Y-134438895D01*
X34079216Y-134441518D01*
X33753134Y-134445003D01*
X33476862Y-134449240D01*
X33258147Y-134454120D01*
X33104739Y-134459536D01*
X33024385Y-134465378D01*
X33014025Y-134468416D01*
X33055072Y-134474431D01*
X33173036Y-134480072D01*
X33360168Y-134485233D01*
X33608721Y-134489805D01*
X33910946Y-134493678D01*
X34259093Y-134496744D01*
X34645414Y-134498894D01*
X35062160Y-134500021D01*
X35278860Y-134500166D01*
X35707879Y-134499591D01*
X36110333Y-134497937D01*
X36478476Y-134495314D01*
X36804558Y-134491829D01*
X37080831Y-134487593D01*
X37299546Y-134482712D01*
X37452955Y-134477296D01*
X37533309Y-134471454D01*
X37543669Y-134468416D01*
X37502627Y-134462402D01*
X37384667Y-134456760D01*
X37197538Y-134451599D01*
X36948989Y-134447028D01*
X36646768Y-134443155D01*
X36298623Y-134440089D01*
X35912303Y-134437938D01*
X35495557Y-134436811D01*
X35278834Y-134436666D01*
X34849814Y-134437242D01*
X34849814Y-134437242D01*
G37*
X34849814Y-134437242D02*
X34447359Y-134438895D01*
X34079216Y-134441518D01*
X33753134Y-134445003D01*
X33476862Y-134449240D01*
X33258147Y-134454120D01*
X33104739Y-134459536D01*
X33024385Y-134465378D01*
X33014025Y-134468416D01*
X33055072Y-134474431D01*
X33173036Y-134480072D01*
X33360168Y-134485233D01*
X33608721Y-134489805D01*
X33910946Y-134493678D01*
X34259093Y-134496744D01*
X34645414Y-134498894D01*
X35062160Y-134500021D01*
X35278860Y-134500166D01*
X35707879Y-134499591D01*
X36110333Y-134497937D01*
X36478476Y-134495314D01*
X36804558Y-134491829D01*
X37080831Y-134487593D01*
X37299546Y-134482712D01*
X37452955Y-134477296D01*
X37533309Y-134471454D01*
X37543669Y-134468416D01*
X37502627Y-134462402D01*
X37384667Y-134456760D01*
X37197538Y-134451599D01*
X36948989Y-134447028D01*
X36646768Y-134443155D01*
X36298623Y-134440089D01*
X35912303Y-134437938D01*
X35495557Y-134436811D01*
X35278834Y-134436666D01*
X34849814Y-134437242D01*
G36*
X34303018Y-133752343D02*
X34019441Y-133753474D01*
X34019417Y-133753474D01*
X33014000Y-133759333D01*
X33014000Y-134267333D01*
X33447917Y-134262324D01*
X33614516Y-134257990D01*
X33726417Y-134250120D01*
X33773007Y-134239823D01*
X33754834Y-134230302D01*
X33650081Y-134174772D01*
X33610021Y-134080337D01*
X33640531Y-133968990D01*
X33673327Y-133925175D01*
X33722148Y-133885262D01*
X33793248Y-133860755D01*
X33905993Y-133848191D01*
X34079749Y-133844105D01*
X34127145Y-133844000D01*
X34340228Y-133849925D01*
X34482682Y-133872522D01*
X34568016Y-133919023D01*
X34609739Y-133996663D01*
X34621321Y-134108583D01*
X34622667Y-134225000D01*
X35302853Y-134225000D01*
X35556314Y-134224626D01*
X35736787Y-134222472D01*
X35855951Y-134216985D01*
X35925483Y-134206612D01*
X35957063Y-134189803D01*
X35962369Y-134165004D01*
X35955509Y-134138260D01*
X35958325Y-134031607D01*
X35995966Y-133947760D01*
X36037095Y-133895538D01*
X36089907Y-133864523D01*
X36175603Y-133849266D01*
X36315384Y-133844316D01*
X36399651Y-133844000D01*
X36654191Y-133856128D01*
X36832364Y-133893482D01*
X36939068Y-133957512D01*
X36972313Y-134013793D01*
X36981382Y-134123925D01*
X36921838Y-134194690D01*
X36788708Y-134230954D01*
X36746220Y-134234994D01*
X36708349Y-134241837D01*
X36746351Y-134250260D01*
X36851469Y-134259259D01*
X37014950Y-134267828D01*
X37041412Y-134268913D01*
X37533989Y-134288500D01*
X37560075Y-134038107D01*
X37572294Y-133903587D01*
X37577496Y-133808929D01*
X37575497Y-133778067D01*
X37531093Y-133774668D01*
X37411982Y-133771268D01*
X37228123Y-133767935D01*
X36989476Y-133764739D01*
X36705998Y-133761748D01*
X36387651Y-133759031D01*
X36044393Y-133756657D01*
X35686184Y-133754695D01*
X35322982Y-133753214D01*
X34964748Y-133752282D01*
X34621440Y-133751969D01*
X34303018Y-133752343D01*
X34303018Y-133752343D01*
G37*
X34303018Y-133752343D02*
X34019441Y-133753474D01*
X34019417Y-133753474D01*
X33014000Y-133759333D01*
X33014000Y-134267333D01*
X33447917Y-134262324D01*
X33614516Y-134257990D01*
X33726417Y-134250120D01*
X33773007Y-134239823D01*
X33754834Y-134230302D01*
X33650081Y-134174772D01*
X33610021Y-134080337D01*
X33640531Y-133968990D01*
X33673327Y-133925175D01*
X33722148Y-133885262D01*
X33793248Y-133860755D01*
X33905993Y-133848191D01*
X34079749Y-133844105D01*
X34127145Y-133844000D01*
X34340228Y-133849925D01*
X34482682Y-133872522D01*
X34568016Y-133919023D01*
X34609739Y-133996663D01*
X34621321Y-134108583D01*
X34622667Y-134225000D01*
X35302853Y-134225000D01*
X35556314Y-134224626D01*
X35736787Y-134222472D01*
X35855951Y-134216985D01*
X35925483Y-134206612D01*
X35957063Y-134189803D01*
X35962369Y-134165004D01*
X35955509Y-134138260D01*
X35958325Y-134031607D01*
X35995966Y-133947760D01*
X36037095Y-133895538D01*
X36089907Y-133864523D01*
X36175603Y-133849266D01*
X36315384Y-133844316D01*
X36399651Y-133844000D01*
X36654191Y-133856128D01*
X36832364Y-133893482D01*
X36939068Y-133957512D01*
X36972313Y-134013793D01*
X36981382Y-134123925D01*
X36921838Y-134194690D01*
X36788708Y-134230954D01*
X36746220Y-134234994D01*
X36708349Y-134241837D01*
X36746351Y-134250260D01*
X36851469Y-134259259D01*
X37014950Y-134267828D01*
X37041412Y-134268913D01*
X37533989Y-134288500D01*
X37560075Y-134038107D01*
X37572294Y-133903587D01*
X37577496Y-133808929D01*
X37575497Y-133778067D01*
X37531093Y-133774668D01*
X37411982Y-133771268D01*
X37228123Y-133767935D01*
X36989476Y-133764739D01*
X36705998Y-133761748D01*
X36387651Y-133759031D01*
X36044393Y-133756657D01*
X35686184Y-133754695D01*
X35322982Y-133753214D01*
X34964748Y-133752282D01*
X34621440Y-133751969D01*
X34303018Y-133752343D01*
G36*
X29720815Y-132205185D02*
X29626117Y-132306318D01*
X29561509Y-132384200D01*
X29542667Y-132416852D01*
X29579250Y-132438778D01*
X29659084Y-132447106D01*
X29791767Y-132462406D01*
X29982736Y-132504225D01*
X30212043Y-132566707D01*
X30459741Y-132643996D01*
X30705883Y-132730237D01*
X30930521Y-132819574D01*
X30936131Y-132821987D01*
X31125328Y-132908363D01*
X31359621Y-133022503D01*
X31610573Y-133150201D01*
X31849749Y-133277253D01*
X31873110Y-133290027D01*
X32419032Y-133589472D01*
X34903260Y-133589294D01*
X35365054Y-133589575D01*
X35810028Y-133590448D01*
X36229453Y-133591855D01*
X36614597Y-133593741D01*
X36956732Y-133596048D01*
X37247128Y-133598719D01*
X37477053Y-133601697D01*
X37637780Y-133604926D01*
X37708994Y-133607554D01*
X37880617Y-133614046D01*
X38031482Y-133613873D01*
X38131086Y-133607131D01*
X38136334Y-133606235D01*
X38223775Y-133584367D01*
X38321474Y-133546160D01*
X38446083Y-133483504D01*
X38614251Y-133388290D01*
X38755728Y-133304549D01*
X39336353Y-133002153D01*
X39980715Y-132750131D01*
X40682922Y-132550688D01*
X40901232Y-132502014D01*
X41062631Y-132468166D01*
X40906659Y-132286079D01*
X40750688Y-132103993D01*
X40173761Y-132120241D01*
X39894948Y-132131690D01*
X39672473Y-132150718D01*
X39478095Y-132181073D01*
X39283572Y-132226505D01*
X39200319Y-132249476D01*
X38963164Y-132311222D01*
X38713485Y-132363604D01*
X38440355Y-132407834D01*
X38132842Y-132445120D01*
X37780017Y-132476675D01*
X37370951Y-132503709D01*
X36894715Y-132527432D01*
X36572309Y-132540575D01*
X36099595Y-132554232D01*
X35596848Y-132560898D01*
X35077663Y-132560933D01*
X34555636Y-132554695D01*
X34044362Y-132542542D01*
X33557437Y-132524834D01*
X33108458Y-132501928D01*
X32711020Y-132474183D01*
X32378718Y-132441959D01*
X32259338Y-132426827D01*
X31932976Y-132374309D01*
X31612893Y-132309570D01*
X31319666Y-132237564D01*
X31073872Y-132163246D01*
X30925686Y-132105671D01*
X30808548Y-132064019D01*
X30666049Y-132038702D01*
X30475703Y-132026690D01*
X30324065Y-132024596D01*
X29898962Y-132023666D01*
X29720815Y-132205185D01*
X29720815Y-132205185D01*
G37*
X29720815Y-132205185D02*
X29626117Y-132306318D01*
X29561509Y-132384200D01*
X29542667Y-132416852D01*
X29579250Y-132438778D01*
X29659084Y-132447106D01*
X29791767Y-132462406D01*
X29982736Y-132504225D01*
X30212043Y-132566707D01*
X30459741Y-132643996D01*
X30705883Y-132730237D01*
X30930521Y-132819574D01*
X30936131Y-132821987D01*
X31125328Y-132908363D01*
X31359621Y-133022503D01*
X31610573Y-133150201D01*
X31849749Y-133277253D01*
X31873110Y-133290027D01*
X32419032Y-133589472D01*
X34903260Y-133589294D01*
X35365054Y-133589575D01*
X35810028Y-133590448D01*
X36229453Y-133591855D01*
X36614597Y-133593741D01*
X36956732Y-133596048D01*
X37247128Y-133598719D01*
X37477053Y-133601697D01*
X37637780Y-133604926D01*
X37708994Y-133607554D01*
X37880617Y-133614046D01*
X38031482Y-133613873D01*
X38131086Y-133607131D01*
X38136334Y-133606235D01*
X38223775Y-133584367D01*
X38321474Y-133546160D01*
X38446083Y-133483504D01*
X38614251Y-133388290D01*
X38755728Y-133304549D01*
X39336353Y-133002153D01*
X39980715Y-132750131D01*
X40682922Y-132550688D01*
X40901232Y-132502014D01*
X41062631Y-132468166D01*
X40906659Y-132286079D01*
X40750688Y-132103993D01*
X40173761Y-132120241D01*
X39894948Y-132131690D01*
X39672473Y-132150718D01*
X39478095Y-132181073D01*
X39283572Y-132226505D01*
X39200319Y-132249476D01*
X38963164Y-132311222D01*
X38713485Y-132363604D01*
X38440355Y-132407834D01*
X38132842Y-132445120D01*
X37780017Y-132476675D01*
X37370951Y-132503709D01*
X36894715Y-132527432D01*
X36572309Y-132540575D01*
X36099595Y-132554232D01*
X35596848Y-132560898D01*
X35077663Y-132560933D01*
X34555636Y-132554695D01*
X34044362Y-132542542D01*
X33557437Y-132524834D01*
X33108458Y-132501928D01*
X32711020Y-132474183D01*
X32378718Y-132441959D01*
X32259338Y-132426827D01*
X31932976Y-132374309D01*
X31612893Y-132309570D01*
X31319666Y-132237564D01*
X31073872Y-132163246D01*
X30925686Y-132105671D01*
X30808548Y-132064019D01*
X30666049Y-132038702D01*
X30475703Y-132026690D01*
X30324065Y-132024596D01*
X29898962Y-132023666D01*
X29720815Y-132205185D01*
G36*
X38538500Y-130715138D02*
X38727522Y-130871985D01*
X38827781Y-130956585D01*
X38974594Y-131082275D01*
X39150855Y-131234327D01*
X39339456Y-131398014D01*
X39409978Y-131459484D01*
X39903413Y-131890136D01*
X40273034Y-131903984D01*
X40642656Y-131917833D01*
X40458412Y-131754046D01*
X40357664Y-131666151D01*
X40209838Y-131539306D01*
X40032866Y-131388805D01*
X39844678Y-131229941D01*
X39794680Y-131187942D01*
X39579610Y-131011427D01*
X39409213Y-130884616D01*
X39266205Y-130799507D01*
X39133301Y-130748100D01*
X38993219Y-130722394D01*
X38828673Y-130714389D01*
X38771334Y-130714245D01*
X38538500Y-130715138D01*
X38538500Y-130715138D01*
G37*
X38538500Y-130715138D02*
X38727522Y-130871985D01*
X38827781Y-130956585D01*
X38974594Y-131082275D01*
X39150855Y-131234327D01*
X39339456Y-131398014D01*
X39409978Y-131459484D01*
X39903413Y-131890136D01*
X40273034Y-131903984D01*
X40642656Y-131917833D01*
X40458412Y-131754046D01*
X40357664Y-131666151D01*
X40209838Y-131539306D01*
X40032866Y-131388805D01*
X39844678Y-131229941D01*
X39794680Y-131187942D01*
X39579610Y-131011427D01*
X39409213Y-130884616D01*
X39266205Y-130799507D01*
X39133301Y-130748100D01*
X38993219Y-130722394D01*
X38828673Y-130714389D01*
X38771334Y-130714245D01*
X38538500Y-130715138D01*
G36*
X31640932Y-130715962D02*
X31491239Y-130732063D01*
X31360203Y-130769078D01*
X31228439Y-130835156D01*
X31076561Y-130938445D01*
X30885183Y-131087094D01*
X30827414Y-131133492D01*
X30639775Y-131286205D01*
X30457568Y-131437135D01*
X30300283Y-131569970D01*
X30187411Y-131668401D01*
X30177667Y-131677226D01*
X29987167Y-131850860D01*
X30352930Y-131852597D01*
X30718693Y-131854333D01*
X31199986Y-131441583D01*
X31387895Y-131280786D01*
X31570197Y-131125411D01*
X31729125Y-130990557D01*
X31846916Y-130891324D01*
X31871390Y-130870911D01*
X32061500Y-130712990D01*
X31828667Y-130712627D01*
X31640932Y-130715962D01*
X31640932Y-130715962D01*
G37*
X31640932Y-130715962D02*
X31491239Y-130732063D01*
X31360203Y-130769078D01*
X31228439Y-130835156D01*
X31076561Y-130938445D01*
X30885183Y-131087094D01*
X30827414Y-131133492D01*
X30639775Y-131286205D01*
X30457568Y-131437135D01*
X30300283Y-131569970D01*
X30187411Y-131668401D01*
X30177667Y-131677226D01*
X29987167Y-131850860D01*
X30352930Y-131852597D01*
X30718693Y-131854333D01*
X31199986Y-131441583D01*
X31387895Y-131280786D01*
X31570197Y-131125411D01*
X31729125Y-130990557D01*
X31846916Y-130891324D01*
X31871390Y-130870911D01*
X32061500Y-130712990D01*
X31828667Y-130712627D01*
X31640932Y-130715962D01*
G36*
X38777217Y-131621820D02*
X38802502Y-131640259D01*
X38883926Y-131663902D01*
X39012670Y-131688272D01*
X39088834Y-131698931D01*
X39207567Y-131710265D01*
X39249612Y-131703872D01*
X39226664Y-131682094D01*
X39143040Y-131653342D01*
X39011723Y-131628140D01*
X38930331Y-131618458D01*
X38816887Y-131613061D01*
X38777217Y-131621820D01*
X38777217Y-131621820D01*
G37*
X38777217Y-131621820D02*
X38802502Y-131640259D01*
X38883926Y-131663902D01*
X39012670Y-131688272D01*
X39088834Y-131698931D01*
X39207567Y-131710265D01*
X39249612Y-131703872D01*
X39226664Y-131682094D01*
X39143040Y-131653342D01*
X39011723Y-131628140D01*
X38930331Y-131618458D01*
X38816887Y-131613061D01*
X38777217Y-131621820D01*
G36*
X31633205Y-131567402D02*
X31579622Y-131577179D01*
X31598210Y-131593770D01*
X31617000Y-131600333D01*
X31716909Y-131622304D01*
X31836050Y-131635031D01*
X31952671Y-131638512D01*
X32045019Y-131632748D01*
X32091341Y-131617738D01*
X32082667Y-131600333D01*
X32007779Y-131578724D01*
X31879788Y-131565298D01*
X31765167Y-131562868D01*
X31633205Y-131567402D01*
X31633205Y-131567402D01*
G37*
X31633205Y-131567402D02*
X31579622Y-131577179D01*
X31598210Y-131593770D01*
X31617000Y-131600333D01*
X31716909Y-131622304D01*
X31836050Y-131635031D01*
X31952671Y-131638512D01*
X32045019Y-131632748D01*
X32091341Y-131617738D01*
X32082667Y-131600333D01*
X32007779Y-131578724D01*
X31879788Y-131565298D01*
X31765167Y-131562868D01*
X31633205Y-131567402D01*
G36*
X37056412Y-129694583D02*
X37005381Y-129758716D01*
X36975958Y-129807253D01*
X36883967Y-129970500D01*
X37175324Y-130171895D01*
X37454017Y-130371471D01*
X37665423Y-130539331D01*
X37817577Y-130682423D01*
X37918515Y-130807696D01*
X37928197Y-130822878D01*
X37982990Y-130920835D01*
X37992842Y-130985643D01*
X37960896Y-131053842D01*
X37949575Y-131071397D01*
X37860973Y-131167210D01*
X37758081Y-131239079D01*
X37625474Y-131287636D01*
X37423385Y-131335714D01*
X37166978Y-131380906D01*
X36871415Y-131420807D01*
X36551859Y-131453009D01*
X36294834Y-131471285D01*
X35744500Y-131502933D01*
X36189000Y-131502686D01*
X36388028Y-131500682D01*
X36645064Y-131495317D01*
X36933547Y-131487292D01*
X37226916Y-131477308D01*
X37380901Y-131471229D01*
X37708607Y-131454791D01*
X38019125Y-131434050D01*
X38300905Y-131410211D01*
X38542400Y-131384482D01*
X38732058Y-131358070D01*
X38858332Y-131332181D01*
X38906943Y-131311748D01*
X38888009Y-131275304D01*
X38814430Y-131197696D01*
X38697927Y-131090330D01*
X38550915Y-130965190D01*
X38292049Y-130750764D01*
X38037976Y-130537568D01*
X37797118Y-130332923D01*
X37577896Y-130144147D01*
X37388733Y-129978560D01*
X37238050Y-129843481D01*
X37134268Y-129746228D01*
X37085809Y-129694121D01*
X37083557Y-129689946D01*
X37056412Y-129694583D01*
X37056412Y-129694583D01*
G37*
X37056412Y-129694583D02*
X37005381Y-129758716D01*
X36975958Y-129807253D01*
X36883967Y-129970500D01*
X37175324Y-130171895D01*
X37454017Y-130371471D01*
X37665423Y-130539331D01*
X37817577Y-130682423D01*
X37918515Y-130807696D01*
X37928197Y-130822878D01*
X37982990Y-130920835D01*
X37992842Y-130985643D01*
X37960896Y-131053842D01*
X37949575Y-131071397D01*
X37860973Y-131167210D01*
X37758081Y-131239079D01*
X37625474Y-131287636D01*
X37423385Y-131335714D01*
X37166978Y-131380906D01*
X36871415Y-131420807D01*
X36551859Y-131453009D01*
X36294834Y-131471285D01*
X35744500Y-131502933D01*
X36189000Y-131502686D01*
X36388028Y-131500682D01*
X36645064Y-131495317D01*
X36933547Y-131487292D01*
X37226916Y-131477308D01*
X37380901Y-131471229D01*
X37708607Y-131454791D01*
X38019125Y-131434050D01*
X38300905Y-131410211D01*
X38542400Y-131384482D01*
X38732058Y-131358070D01*
X38858332Y-131332181D01*
X38906943Y-131311748D01*
X38888009Y-131275304D01*
X38814430Y-131197696D01*
X38697927Y-131090330D01*
X38550915Y-130965190D01*
X38292049Y-130750764D01*
X38037976Y-130537568D01*
X37797118Y-130332923D01*
X37577896Y-130144147D01*
X37388733Y-129978560D01*
X37238050Y-129843481D01*
X37134268Y-129746228D01*
X37085809Y-129694121D01*
X37083557Y-129689946D01*
X37056412Y-129694583D01*
G36*
X34336917Y-131484828D02*
X34299683Y-131492400D01*
X34338277Y-131498162D01*
X34443865Y-131501190D01*
X34495667Y-131501433D01*
X34622865Y-131499595D01*
X34686198Y-131494695D01*
X34676832Y-131487659D01*
X34654417Y-131484828D01*
X34495458Y-131477978D01*
X34336917Y-131484828D01*
X34336917Y-131484828D01*
G37*
X34336917Y-131484828D02*
X34299683Y-131492400D01*
X34338277Y-131498162D01*
X34443865Y-131501190D01*
X34495667Y-131501433D01*
X34622865Y-131499595D01*
X34686198Y-131494695D01*
X34676832Y-131487659D01*
X34654417Y-131484828D01*
X34495458Y-131477978D01*
X34336917Y-131484828D01*
G36*
X33722278Y-131445565D02*
X33720871Y-131459462D01*
X33787142Y-131465138D01*
X33797167Y-131465080D01*
X33862824Y-131458976D01*
X33856557Y-131446091D01*
X33849278Y-131443996D01*
X33757063Y-131437799D01*
X33722278Y-131445565D01*
X33722278Y-131445565D01*
G37*
X33722278Y-131445565D02*
X33720871Y-131459462D01*
X33787142Y-131465138D01*
X33797167Y-131465080D01*
X33862824Y-131458976D01*
X33856557Y-131446091D01*
X33849278Y-131443996D01*
X33757063Y-131437799D01*
X33722278Y-131445565D01*
G36*
X33501213Y-129694719D02*
X33458793Y-129739635D01*
X33362388Y-129829767D01*
X33222718Y-129955731D01*
X33050508Y-130108140D01*
X32856477Y-130277611D01*
X32651349Y-130454758D01*
X32445845Y-130630195D01*
X32250688Y-130794537D01*
X32136555Y-130889241D01*
X31965453Y-131033913D01*
X31857205Y-131135232D01*
X31806034Y-131199427D01*
X31806164Y-131232727D01*
X31813982Y-131237129D01*
X31908229Y-131261288D01*
X32067815Y-131289734D01*
X32273685Y-131319991D01*
X32506780Y-131349587D01*
X32748046Y-131376048D01*
X32978424Y-131396898D01*
X33119834Y-131406651D01*
X33543167Y-131430954D01*
X33178534Y-131351075D01*
X32908162Y-131279769D01*
X32717361Y-131199923D01*
X32601168Y-131107728D01*
X32554618Y-130999373D01*
X32568767Y-130882977D01*
X32619762Y-130803043D01*
X32724906Y-130690173D01*
X32869018Y-130556503D01*
X33036916Y-130414169D01*
X33213419Y-130275305D01*
X33383344Y-130152046D01*
X33531511Y-130056529D01*
X33642738Y-130000887D01*
X33683826Y-129991666D01*
X33725186Y-129973771D01*
X33723339Y-129959916D01*
X33696171Y-129902436D01*
X33652785Y-129803979D01*
X33647030Y-129790583D01*
X33590126Y-129683903D01*
X33541743Y-129656483D01*
X33501213Y-129694719D01*
X33501213Y-129694719D01*
G37*
X33501213Y-129694719D02*
X33458793Y-129739635D01*
X33362388Y-129829767D01*
X33222718Y-129955731D01*
X33050508Y-130108140D01*
X32856477Y-130277611D01*
X32651349Y-130454758D01*
X32445845Y-130630195D01*
X32250688Y-130794537D01*
X32136555Y-130889241D01*
X31965453Y-131033913D01*
X31857205Y-131135232D01*
X31806034Y-131199427D01*
X31806164Y-131232727D01*
X31813982Y-131237129D01*
X31908229Y-131261288D01*
X32067815Y-131289734D01*
X32273685Y-131319991D01*
X32506780Y-131349587D01*
X32748046Y-131376048D01*
X32978424Y-131396898D01*
X33119834Y-131406651D01*
X33543167Y-131430954D01*
X33178534Y-131351075D01*
X32908162Y-131279769D01*
X32717361Y-131199923D01*
X32601168Y-131107728D01*
X32554618Y-130999373D01*
X32568767Y-130882977D01*
X32619762Y-130803043D01*
X32724906Y-130690173D01*
X32869018Y-130556503D01*
X33036916Y-130414169D01*
X33213419Y-130275305D01*
X33383344Y-130152046D01*
X33531511Y-130056529D01*
X33642738Y-130000887D01*
X33683826Y-129991666D01*
X33725186Y-129973771D01*
X33723339Y-129959916D01*
X33696171Y-129902436D01*
X33652785Y-129803979D01*
X33647030Y-129790583D01*
X33590126Y-129683903D01*
X33541743Y-129656483D01*
X33501213Y-129694719D01*
G36*
X34440075Y-130015071D02*
X34297998Y-130031958D01*
X34095239Y-130062968D01*
X33902725Y-130102547D01*
X33750447Y-130144133D01*
X33701302Y-130162507D01*
X33561944Y-130234190D01*
X33390845Y-130337695D01*
X33208777Y-130458620D01*
X33036516Y-130582560D01*
X32894834Y-130695110D01*
X32804506Y-130781868D01*
X32799952Y-130787475D01*
X32731529Y-130898069D01*
X32721204Y-130989066D01*
X32774184Y-131064418D01*
X32895676Y-131128081D01*
X33090887Y-131184008D01*
X33365023Y-131236153D01*
X33397736Y-131241433D01*
X33585920Y-131263825D01*
X33843299Y-131283518D01*
X34154437Y-131300230D01*
X34503896Y-131313679D01*
X34876240Y-131323582D01*
X35256031Y-131329657D01*
X35627834Y-131331622D01*
X35976211Y-131329194D01*
X36285726Y-131322092D01*
X36540941Y-131310033D01*
X36654667Y-131300983D01*
X37038224Y-131255767D01*
X37350565Y-131201951D01*
X37392812Y-131191030D01*
X35625034Y-131191030D01*
X35623265Y-131251989D01*
X35619780Y-131257978D01*
X35560101Y-131300810D01*
X35463838Y-131279708D01*
X35424217Y-131260177D01*
X35356822Y-131237977D01*
X35342334Y-131260177D01*
X35309455Y-131295547D01*
X35238136Y-131301688D01*
X35169352Y-131278720D01*
X35150563Y-131259611D01*
X35102597Y-131241018D01*
X35062145Y-131265834D01*
X34981093Y-131288948D01*
X34885317Y-131265743D01*
X34811313Y-131210579D01*
X34792000Y-131159546D01*
X34807263Y-131129729D01*
X34862617Y-131112162D01*
X34972413Y-131104821D01*
X35151001Y-131105685D01*
X35171265Y-131106103D01*
X35402032Y-131119102D01*
X35552289Y-131147073D01*
X35625034Y-131191030D01*
X37392812Y-131191030D01*
X37588716Y-131140389D01*
X37749698Y-131071938D01*
X37830537Y-130997452D01*
X37840000Y-130960245D01*
X37806050Y-130889594D01*
X37713958Y-130786888D01*
X37578360Y-130663334D01*
X37413894Y-130530140D01*
X37235197Y-130398512D01*
X37056906Y-130279657D01*
X36893658Y-130184783D01*
X36760090Y-130125097D01*
X36741759Y-130119362D01*
X36644628Y-130102197D01*
X36589637Y-130131265D01*
X36566491Y-130167557D01*
X36536184Y-130237316D01*
X36534821Y-130261887D01*
X36579526Y-130283188D01*
X36667581Y-130321941D01*
X36668576Y-130322369D01*
X36755605Y-130378376D01*
X36761798Y-130431302D01*
X36690915Y-130474602D01*
X36566718Y-130499666D01*
X36410137Y-130532471D01*
X36260554Y-130586717D01*
X36234506Y-130599836D01*
X36081728Y-130649591D01*
X35881882Y-130669850D01*
X35664443Y-130662308D01*
X35458886Y-130628658D01*
X35294689Y-130570594D01*
X35250350Y-130543283D01*
X35193742Y-130504256D01*
X35137441Y-130478024D01*
X35065226Y-130462972D01*
X34960877Y-130457483D01*
X34808171Y-130459943D01*
X34590889Y-130468735D01*
X34529620Y-130471504D01*
X34292834Y-130481190D01*
X34127268Y-130484479D01*
X34019658Y-130480500D01*
X33956738Y-130468381D01*
X33925242Y-130447249D01*
X33916394Y-130431175D01*
X33923601Y-130354076D01*
X33949748Y-130325678D01*
X34044272Y-130283273D01*
X34195481Y-130235321D01*
X34376371Y-130189111D01*
X34559939Y-130151928D01*
X34638883Y-130139721D01*
X34758656Y-130120568D01*
X34808029Y-130100087D01*
X34800901Y-130069047D01*
X34779881Y-130046071D01*
X34739846Y-130016703D01*
X34681724Y-130002095D01*
X34587729Y-130001724D01*
X34440075Y-130015071D01*
X34440075Y-130015071D01*
G37*
X34440075Y-130015071D02*
X34297998Y-130031958D01*
X34095239Y-130062968D01*
X33902725Y-130102547D01*
X33750447Y-130144133D01*
X33701302Y-130162507D01*
X33561944Y-130234190D01*
X33390845Y-130337695D01*
X33208777Y-130458620D01*
X33036516Y-130582560D01*
X32894834Y-130695110D01*
X32804506Y-130781868D01*
X32799952Y-130787475D01*
X32731529Y-130898069D01*
X32721204Y-130989066D01*
X32774184Y-131064418D01*
X32895676Y-131128081D01*
X33090887Y-131184008D01*
X33365023Y-131236153D01*
X33397736Y-131241433D01*
X33585920Y-131263825D01*
X33843299Y-131283518D01*
X34154437Y-131300230D01*
X34503896Y-131313679D01*
X34876240Y-131323582D01*
X35256031Y-131329657D01*
X35627834Y-131331622D01*
X35976211Y-131329194D01*
X36285726Y-131322092D01*
X36540941Y-131310033D01*
X36654667Y-131300983D01*
X37038224Y-131255767D01*
X37350565Y-131201951D01*
X37392812Y-131191030D01*
X35625034Y-131191030D01*
X35623265Y-131251989D01*
X35619780Y-131257978D01*
X35560101Y-131300810D01*
X35463838Y-131279708D01*
X35424217Y-131260177D01*
X35356822Y-131237977D01*
X35342334Y-131260177D01*
X35309455Y-131295547D01*
X35238136Y-131301688D01*
X35169352Y-131278720D01*
X35150563Y-131259611D01*
X35102597Y-131241018D01*
X35062145Y-131265834D01*
X34981093Y-131288948D01*
X34885317Y-131265743D01*
X34811313Y-131210579D01*
X34792000Y-131159546D01*
X34807263Y-131129729D01*
X34862617Y-131112162D01*
X34972413Y-131104821D01*
X35151001Y-131105685D01*
X35171265Y-131106103D01*
X35402032Y-131119102D01*
X35552289Y-131147073D01*
X35625034Y-131191030D01*
X37392812Y-131191030D01*
X37588716Y-131140389D01*
X37749698Y-131071938D01*
X37830537Y-130997452D01*
X37840000Y-130960245D01*
X37806050Y-130889594D01*
X37713958Y-130786888D01*
X37578360Y-130663334D01*
X37413894Y-130530140D01*
X37235197Y-130398512D01*
X37056906Y-130279657D01*
X36893658Y-130184783D01*
X36760090Y-130125097D01*
X36741759Y-130119362D01*
X36644628Y-130102197D01*
X36589637Y-130131265D01*
X36566491Y-130167557D01*
X36536184Y-130237316D01*
X36534821Y-130261887D01*
X36579526Y-130283188D01*
X36667581Y-130321941D01*
X36668576Y-130322369D01*
X36755605Y-130378376D01*
X36761798Y-130431302D01*
X36690915Y-130474602D01*
X36566718Y-130499666D01*
X36410137Y-130532471D01*
X36260554Y-130586717D01*
X36234506Y-130599836D01*
X36081728Y-130649591D01*
X35881882Y-130669850D01*
X35664443Y-130662308D01*
X35458886Y-130628658D01*
X35294689Y-130570594D01*
X35250350Y-130543283D01*
X35193742Y-130504256D01*
X35137441Y-130478024D01*
X35065226Y-130462972D01*
X34960877Y-130457483D01*
X34808171Y-130459943D01*
X34590889Y-130468735D01*
X34529620Y-130471504D01*
X34292834Y-130481190D01*
X34127268Y-130484479D01*
X34019658Y-130480500D01*
X33956738Y-130468381D01*
X33925242Y-130447249D01*
X33916394Y-130431175D01*
X33923601Y-130354076D01*
X33949748Y-130325678D01*
X34044272Y-130283273D01*
X34195481Y-130235321D01*
X34376371Y-130189111D01*
X34559939Y-130151928D01*
X34638883Y-130139721D01*
X34758656Y-130120568D01*
X34808029Y-130100087D01*
X34800901Y-130069047D01*
X34779881Y-130046071D01*
X34739846Y-130016703D01*
X34681724Y-130002095D01*
X34587729Y-130001724D01*
X34440075Y-130015071D01*
G36*
X37356428Y-129663113D02*
X37358648Y-129679166D01*
X37391263Y-129717708D01*
X37460897Y-129785700D01*
X37574176Y-129890099D01*
X37737727Y-130037865D01*
X37935635Y-130215709D01*
X38255745Y-130503252D01*
X38629956Y-130528016D01*
X38824817Y-130536987D01*
X38936449Y-130532571D01*
X38965228Y-130514750D01*
X38961834Y-130510311D01*
X38914391Y-130471289D01*
X38811740Y-130391934D01*
X38666851Y-130282112D01*
X38492695Y-130151693D01*
X38398349Y-130081588D01*
X38192913Y-129931085D01*
X38040504Y-129825112D01*
X37927426Y-129756084D01*
X37839981Y-129716413D01*
X37764471Y-129698515D01*
X37699849Y-129694755D01*
X37558606Y-129688663D01*
X37435515Y-129674351D01*
X37416667Y-129670644D01*
X37377976Y-129662592D01*
X37356428Y-129663113D01*
X37356428Y-129663113D01*
G37*
X37356428Y-129663113D02*
X37358648Y-129679166D01*
X37391263Y-129717708D01*
X37460897Y-129785700D01*
X37574176Y-129890099D01*
X37737727Y-130037865D01*
X37935635Y-130215709D01*
X38255745Y-130503252D01*
X38629956Y-130528016D01*
X38824817Y-130536987D01*
X38936449Y-130532571D01*
X38965228Y-130514750D01*
X38961834Y-130510311D01*
X38914391Y-130471289D01*
X38811740Y-130391934D01*
X38666851Y-130282112D01*
X38492695Y-130151693D01*
X38398349Y-130081588D01*
X38192913Y-129931085D01*
X38040504Y-129825112D01*
X37927426Y-129756084D01*
X37839981Y-129716413D01*
X37764471Y-129698515D01*
X37699849Y-129694755D01*
X37558606Y-129688663D01*
X37435515Y-129674351D01*
X37416667Y-129670644D01*
X37377976Y-129662592D01*
X37356428Y-129663113D01*
G36*
X32950188Y-129657161D02*
X32850426Y-129674069D01*
X32747245Y-129710361D01*
X32627789Y-129772671D01*
X32479204Y-129867638D01*
X32288635Y-130001896D01*
X32063303Y-130167210D01*
X31557105Y-130542000D01*
X31809303Y-130537131D01*
X31978811Y-130529075D01*
X32140203Y-130513696D01*
X32217066Y-130501980D01*
X32286423Y-130483959D01*
X32357004Y-130452621D01*
X32439652Y-130399787D01*
X32545215Y-130317282D01*
X32684537Y-130196929D01*
X32868464Y-130030551D01*
X32987404Y-129921224D01*
X33278307Y-129653000D01*
X33059385Y-129653000D01*
X32950188Y-129657161D01*
X32950188Y-129657161D01*
G37*
X32950188Y-129657161D02*
X32850426Y-129674069D01*
X32747245Y-129710361D01*
X32627789Y-129772671D01*
X32479204Y-129867638D01*
X32288635Y-130001896D01*
X32063303Y-130167210D01*
X31557105Y-130542000D01*
X31809303Y-130537131D01*
X31978811Y-130529075D01*
X32140203Y-130513696D01*
X32217066Y-130501980D01*
X32286423Y-130483959D01*
X32357004Y-130452621D01*
X32439652Y-130399787D01*
X32545215Y-130317282D01*
X32684537Y-130196929D01*
X32868464Y-130030551D01*
X32987404Y-129921224D01*
X33278307Y-129653000D01*
X33059385Y-129653000D01*
X32950188Y-129657161D01*
G36*
X36835139Y-129660804D02*
X36770707Y-129709210D01*
X36746973Y-129769849D01*
X36751253Y-129847996D01*
X36786542Y-129856855D01*
X36837973Y-129798294D01*
X36860094Y-129755622D01*
X36888808Y-129679288D01*
X36871165Y-129656751D01*
X36835139Y-129660804D01*
X36835139Y-129660804D01*
G37*
X36835139Y-129660804D02*
X36770707Y-129709210D01*
X36746973Y-129769849D01*
X36751253Y-129847996D01*
X36786542Y-129856855D01*
X36837973Y-129798294D01*
X36860094Y-129755622D01*
X36888808Y-129679288D01*
X36871165Y-129656751D01*
X36835139Y-129660804D01*
G36*
X33805429Y-129640427D02*
X33752943Y-129682054D01*
X33751847Y-129723981D01*
X33773316Y-129789547D01*
X33776000Y-129804629D01*
X33811933Y-129819380D01*
X33896170Y-129822670D01*
X33993370Y-129816148D01*
X34068190Y-129801461D01*
X34087248Y-129790116D01*
X34081048Y-129734826D01*
X34050392Y-129680265D01*
X33982927Y-129635319D01*
X33891682Y-129623444D01*
X33805429Y-129640427D01*
X33805429Y-129640427D01*
G37*
X33805429Y-129640427D02*
X33752943Y-129682054D01*
X33751847Y-129723981D01*
X33773316Y-129789547D01*
X33776000Y-129804629D01*
X33811933Y-129819380D01*
X33896170Y-129822670D01*
X33993370Y-129816148D01*
X34068190Y-129801461D01*
X34087248Y-129790116D01*
X34081048Y-129734826D01*
X34050392Y-129680265D01*
X33982927Y-129635319D01*
X33891682Y-129623444D01*
X33805429Y-129640427D01*
G36*
X37256627Y-126809999D02*
X37251232Y-126813361D01*
X37161056Y-126826608D01*
X37093482Y-126806373D01*
X37008651Y-126786777D01*
X36881378Y-126791994D01*
X36693801Y-126822949D01*
X36666250Y-126828465D01*
X36392053Y-126880995D01*
X36187520Y-126911992D01*
X36040638Y-126922231D01*
X35939396Y-126912484D01*
X35871782Y-126883523D01*
X35866798Y-126879897D01*
X35752965Y-126822269D01*
X35670509Y-126838428D01*
X35624572Y-126921658D01*
X35620298Y-127065247D01*
X35639618Y-127176500D01*
X35668147Y-127304105D01*
X35674692Y-127371827D01*
X35655840Y-127402386D01*
X35608181Y-127418504D01*
X35603076Y-127419836D01*
X35543853Y-127468320D01*
X35498414Y-127585589D01*
X35482167Y-127657607D01*
X35460199Y-127798238D01*
X35467536Y-127862907D01*
X35507200Y-127856134D01*
X35572682Y-127793079D01*
X35688027Y-127702439D01*
X35849175Y-127618266D01*
X36018452Y-127557365D01*
X36148308Y-127536333D01*
X36348242Y-127577424D01*
X36535905Y-127695903D01*
X36702859Y-127884578D01*
X36833873Y-128120643D01*
X36932920Y-128345119D01*
X37131076Y-127734587D01*
X37232832Y-127413737D01*
X37305324Y-127165953D01*
X37349348Y-126985148D01*
X37365696Y-126865237D01*
X37355163Y-126800132D01*
X37318542Y-126783748D01*
X37256627Y-126809999D01*
X37256627Y-126809999D01*
G37*
X37256627Y-126809999D02*
X37251232Y-126813361D01*
X37161056Y-126826608D01*
X37093482Y-126806373D01*
X37008651Y-126786777D01*
X36881378Y-126791994D01*
X36693801Y-126822949D01*
X36666250Y-126828465D01*
X36392053Y-126880995D01*
X36187520Y-126911992D01*
X36040638Y-126922231D01*
X35939396Y-126912484D01*
X35871782Y-126883523D01*
X35866798Y-126879897D01*
X35752965Y-126822269D01*
X35670509Y-126838428D01*
X35624572Y-126921658D01*
X35620298Y-127065247D01*
X35639618Y-127176500D01*
X35668147Y-127304105D01*
X35674692Y-127371827D01*
X35655840Y-127402386D01*
X35608181Y-127418504D01*
X35603076Y-127419836D01*
X35543853Y-127468320D01*
X35498414Y-127585589D01*
X35482167Y-127657607D01*
X35460199Y-127798238D01*
X35467536Y-127862907D01*
X35507200Y-127856134D01*
X35572682Y-127793079D01*
X35688027Y-127702439D01*
X35849175Y-127618266D01*
X36018452Y-127557365D01*
X36148308Y-127536333D01*
X36348242Y-127577424D01*
X36535905Y-127695903D01*
X36702859Y-127884578D01*
X36833873Y-128120643D01*
X36932920Y-128345119D01*
X37131076Y-127734587D01*
X37232832Y-127413737D01*
X37305324Y-127165953D01*
X37349348Y-126985148D01*
X37365696Y-126865237D01*
X37355163Y-126800132D01*
X37318542Y-126783748D01*
X37256627Y-126809999D01*
G36*
X33572803Y-126796161D02*
X33565940Y-126801263D01*
X33546092Y-126867890D01*
X33542817Y-126993204D01*
X33553688Y-127153383D01*
X33576277Y-127324607D01*
X33608156Y-127483056D01*
X33646898Y-127604908D01*
X33648131Y-127607726D01*
X33741394Y-127791228D01*
X33840845Y-127916475D01*
X33969113Y-128008265D01*
X34051167Y-128049382D01*
X34231714Y-128112849D01*
X34393273Y-128117479D01*
X34572035Y-128063035D01*
X34611553Y-128045711D01*
X34779722Y-127928106D01*
X34936617Y-127738430D01*
X35072170Y-127489272D01*
X35090180Y-127447210D01*
X35114118Y-127388745D01*
X35122536Y-127344149D01*
X35105025Y-127305167D01*
X35051179Y-127263542D01*
X34950588Y-127211019D01*
X34792846Y-127139342D01*
X34589084Y-127049731D01*
X34386068Y-126968613D01*
X34173934Y-126897555D01*
X33969612Y-126840671D01*
X33790030Y-126802069D01*
X33652117Y-126785862D01*
X33572803Y-126796161D01*
X33572803Y-126796161D01*
G37*
X33572803Y-126796161D02*
X33565940Y-126801263D01*
X33546092Y-126867890D01*
X33542817Y-126993204D01*
X33553688Y-127153383D01*
X33576277Y-127324607D01*
X33608156Y-127483056D01*
X33646898Y-127604908D01*
X33648131Y-127607726D01*
X33741394Y-127791228D01*
X33840845Y-127916475D01*
X33969113Y-128008265D01*
X34051167Y-128049382D01*
X34231714Y-128112849D01*
X34393273Y-128117479D01*
X34572035Y-128063035D01*
X34611553Y-128045711D01*
X34779722Y-127928106D01*
X34936617Y-127738430D01*
X35072170Y-127489272D01*
X35090180Y-127447210D01*
X35114118Y-127388745D01*
X35122536Y-127344149D01*
X35105025Y-127305167D01*
X35051179Y-127263542D01*
X34950588Y-127211019D01*
X34792846Y-127139342D01*
X34589084Y-127049731D01*
X34386068Y-126968613D01*
X34173934Y-126897555D01*
X33969612Y-126840671D01*
X33790030Y-126802069D01*
X33652117Y-126785862D01*
X33572803Y-126796161D01*
G36*
X39632112Y-127423444D02*
X39637923Y-127448611D01*
X39660334Y-127451666D01*
X39695179Y-127436177D01*
X39688556Y-127423444D01*
X39638316Y-127418377D01*
X39632112Y-127423444D01*
X39632112Y-127423444D01*
G37*
X39632112Y-127423444D02*
X39637923Y-127448611D01*
X39660334Y-127451666D01*
X39695179Y-127436177D01*
X39688556Y-127423444D01*
X39638316Y-127418377D01*
X39632112Y-127423444D01*
G36*
X39533334Y-127388166D02*
X39554500Y-127409333D01*
X39575667Y-127388166D01*
X39554500Y-127367000D01*
X39533334Y-127388166D01*
X39533334Y-127388166D01*
G37*
X39533334Y-127388166D02*
X39554500Y-127409333D01*
X39575667Y-127388166D01*
X39554500Y-127367000D01*
X39533334Y-127388166D01*
G36*
X39448667Y-127345833D02*
X39469834Y-127367000D01*
X39491000Y-127345833D01*
X39469834Y-127324666D01*
X39448667Y-127345833D01*
X39448667Y-127345833D01*
G37*
X39448667Y-127345833D02*
X39469834Y-127367000D01*
X39491000Y-127345833D01*
X39469834Y-127324666D01*
X39448667Y-127345833D01*
G36*
X39872000Y-127303500D02*
X39893167Y-127324666D01*
X39914334Y-127303500D01*
X39893167Y-127282333D01*
X39872000Y-127303500D01*
X39872000Y-127303500D01*
G37*
X39872000Y-127303500D02*
X39893167Y-127324666D01*
X39914334Y-127303500D01*
X39893167Y-127282333D01*
X39872000Y-127303500D01*
G36*
X34498884Y-122201687D02*
X34510826Y-122293931D01*
X34535002Y-122437005D01*
X34565403Y-122634494D01*
X34600257Y-122873048D01*
X34637791Y-123139314D01*
X34676231Y-123419939D01*
X34713805Y-123701571D01*
X34748739Y-123970857D01*
X34779260Y-124214446D01*
X34803596Y-124418984D01*
X34819972Y-124571120D01*
X34826617Y-124657500D01*
X34826312Y-124669747D01*
X34786416Y-124743446D01*
X34681962Y-124791107D01*
X34657115Y-124797396D01*
X34559001Y-124832917D01*
X34516790Y-124874368D01*
X34517441Y-124883484D01*
X34537603Y-124953153D01*
X34568228Y-125067748D01*
X34579203Y-125110251D01*
X34614399Y-125222586D01*
X34661099Y-125276617D01*
X34745936Y-125297344D01*
X34782153Y-125300751D01*
X34939722Y-125313833D01*
X35011550Y-125652500D01*
X35044863Y-125824076D01*
X35084757Y-126051840D01*
X35126575Y-126308061D01*
X35165665Y-126565010D01*
X35171450Y-126605000D01*
X35211803Y-126869213D01*
X35248755Y-127060534D01*
X35287181Y-127190330D01*
X35331962Y-127269971D01*
X35387975Y-127310825D01*
X35460100Y-127324259D01*
X35480278Y-127324666D01*
X35537785Y-127304337D01*
X35534493Y-127245228D01*
X35516017Y-127167918D01*
X35489120Y-127032404D01*
X35458762Y-126864084D01*
X35449775Y-126811311D01*
X35411386Y-126598121D01*
X35362596Y-126348595D01*
X35312486Y-126108793D01*
X35300573Y-126054666D01*
X35252159Y-125830265D01*
X35198534Y-125569665D01*
X35143533Y-125292805D01*
X35090995Y-125019621D01*
X35044754Y-124770052D01*
X35008648Y-124564035D01*
X34986958Y-124424833D01*
X34974059Y-124329412D01*
X34952070Y-124166773D01*
X34923248Y-123953599D01*
X34889849Y-123706576D01*
X34855315Y-123451166D01*
X34818924Y-123181524D01*
X34784310Y-122924125D01*
X34753919Y-122697243D01*
X34730201Y-122519150D01*
X34716364Y-122414000D01*
X34694092Y-122277951D01*
X34665013Y-122204956D01*
X34617747Y-122173526D01*
X34585521Y-122166931D01*
X34519092Y-122165239D01*
X34498884Y-122201687D01*
X34498884Y-122201687D01*
G37*
X34498884Y-122201687D02*
X34510826Y-122293931D01*
X34535002Y-122437005D01*
X34565403Y-122634494D01*
X34600257Y-122873048D01*
X34637791Y-123139314D01*
X34676231Y-123419939D01*
X34713805Y-123701571D01*
X34748739Y-123970857D01*
X34779260Y-124214446D01*
X34803596Y-124418984D01*
X34819972Y-124571120D01*
X34826617Y-124657500D01*
X34826312Y-124669747D01*
X34786416Y-124743446D01*
X34681962Y-124791107D01*
X34657115Y-124797396D01*
X34559001Y-124832917D01*
X34516790Y-124874368D01*
X34517441Y-124883484D01*
X34537603Y-124953153D01*
X34568228Y-125067748D01*
X34579203Y-125110251D01*
X34614399Y-125222586D01*
X34661099Y-125276617D01*
X34745936Y-125297344D01*
X34782153Y-125300751D01*
X34939722Y-125313833D01*
X35011550Y-125652500D01*
X35044863Y-125824076D01*
X35084757Y-126051840D01*
X35126575Y-126308061D01*
X35165665Y-126565010D01*
X35171450Y-126605000D01*
X35211803Y-126869213D01*
X35248755Y-127060534D01*
X35287181Y-127190330D01*
X35331962Y-127269971D01*
X35387975Y-127310825D01*
X35460100Y-127324259D01*
X35480278Y-127324666D01*
X35537785Y-127304337D01*
X35534493Y-127245228D01*
X35516017Y-127167918D01*
X35489120Y-127032404D01*
X35458762Y-126864084D01*
X35449775Y-126811311D01*
X35411386Y-126598121D01*
X35362596Y-126348595D01*
X35312486Y-126108793D01*
X35300573Y-126054666D01*
X35252159Y-125830265D01*
X35198534Y-125569665D01*
X35143533Y-125292805D01*
X35090995Y-125019621D01*
X35044754Y-124770052D01*
X35008648Y-124564035D01*
X34986958Y-124424833D01*
X34974059Y-124329412D01*
X34952070Y-124166773D01*
X34923248Y-123953599D01*
X34889849Y-123706576D01*
X34855315Y-123451166D01*
X34818924Y-123181524D01*
X34784310Y-122924125D01*
X34753919Y-122697243D01*
X34730201Y-122519150D01*
X34716364Y-122414000D01*
X34694092Y-122277951D01*
X34665013Y-122204956D01*
X34617747Y-122173526D01*
X34585521Y-122166931D01*
X34519092Y-122165239D01*
X34498884Y-122201687D01*
G36*
X33607893Y-122882471D02*
X33563202Y-122960754D01*
X33535270Y-123078620D01*
X33529913Y-123203623D01*
X33565115Y-123292170D01*
X33619897Y-123354714D01*
X33737985Y-123513403D01*
X33793156Y-123697979D01*
X33787777Y-123922221D01*
X33749574Y-124108933D01*
X33678246Y-124324596D01*
X33586751Y-124469999D01*
X33460622Y-124559357D01*
X33285394Y-124606885D01*
X33236122Y-124613452D01*
X33104789Y-124637145D01*
X33028402Y-124680319D01*
X32978888Y-124756064D01*
X32950217Y-124856636D01*
X32925700Y-125020296D01*
X32905625Y-125232201D01*
X32890281Y-125477509D01*
X32879954Y-125741375D01*
X32874934Y-126008957D01*
X32875509Y-126265412D01*
X32881966Y-126495897D01*
X32894595Y-126685569D01*
X32913683Y-126819584D01*
X32937624Y-126881400D01*
X32981401Y-126873378D01*
X33076173Y-126834715D01*
X33160835Y-126794048D01*
X33367270Y-126715189D01*
X33589432Y-126684238D01*
X33838181Y-126702548D01*
X34124374Y-126771471D01*
X34458871Y-126892360D01*
X34668161Y-126981844D01*
X34847838Y-127060204D01*
X34997340Y-127121971D01*
X35101049Y-127160933D01*
X35143332Y-127170890D01*
X35145286Y-127122143D01*
X35133962Y-127002718D01*
X35111170Y-126825246D01*
X35078722Y-126602360D01*
X35038429Y-126346693D01*
X34992103Y-126070878D01*
X34957760Y-125876498D01*
X34868337Y-125380830D01*
X34715111Y-125389665D01*
X34561884Y-125398500D01*
X34478474Y-125112252D01*
X34434050Y-124940567D01*
X34426494Y-124830257D01*
X34462320Y-124763657D01*
X34548044Y-124723100D01*
X34629328Y-124703241D01*
X34682625Y-124692579D01*
X34721373Y-124678892D01*
X34745875Y-124651038D01*
X34756437Y-124597871D01*
X34753363Y-124508247D01*
X34736959Y-124371023D01*
X34707529Y-124175053D01*
X34665377Y-123909195D01*
X34653151Y-123832166D01*
X34613780Y-123588795D01*
X34583031Y-123417199D01*
X34557317Y-123305371D01*
X34533052Y-123241305D01*
X34506648Y-123212994D01*
X34474519Y-123208432D01*
X34467088Y-123209313D01*
X34371375Y-123190200D01*
X34327971Y-123156805D01*
X34241032Y-123111731D01*
X34180765Y-123115630D01*
X34076325Y-123106878D01*
X34032646Y-123073354D01*
X33972242Y-123029684D01*
X33940158Y-123031031D01*
X33858715Y-123039054D01*
X33765912Y-122998300D01*
X33701852Y-122927222D01*
X33698880Y-122920003D01*
X33656837Y-122865284D01*
X33607893Y-122882471D01*
X33607893Y-122882471D01*
G37*
X33607893Y-122882471D02*
X33563202Y-122960754D01*
X33535270Y-123078620D01*
X33529913Y-123203623D01*
X33565115Y-123292170D01*
X33619897Y-123354714D01*
X33737985Y-123513403D01*
X33793156Y-123697979D01*
X33787777Y-123922221D01*
X33749574Y-124108933D01*
X33678246Y-124324596D01*
X33586751Y-124469999D01*
X33460622Y-124559357D01*
X33285394Y-124606885D01*
X33236122Y-124613452D01*
X33104789Y-124637145D01*
X33028402Y-124680319D01*
X32978888Y-124756064D01*
X32950217Y-124856636D01*
X32925700Y-125020296D01*
X32905625Y-125232201D01*
X32890281Y-125477509D01*
X32879954Y-125741375D01*
X32874934Y-126008957D01*
X32875509Y-126265412D01*
X32881966Y-126495897D01*
X32894595Y-126685569D01*
X32913683Y-126819584D01*
X32937624Y-126881400D01*
X32981401Y-126873378D01*
X33076173Y-126834715D01*
X33160835Y-126794048D01*
X33367270Y-126715189D01*
X33589432Y-126684238D01*
X33838181Y-126702548D01*
X34124374Y-126771471D01*
X34458871Y-126892360D01*
X34668161Y-126981844D01*
X34847838Y-127060204D01*
X34997340Y-127121971D01*
X35101049Y-127160933D01*
X35143332Y-127170890D01*
X35145286Y-127122143D01*
X35133962Y-127002718D01*
X35111170Y-126825246D01*
X35078722Y-126602360D01*
X35038429Y-126346693D01*
X34992103Y-126070878D01*
X34957760Y-125876498D01*
X34868337Y-125380830D01*
X34715111Y-125389665D01*
X34561884Y-125398500D01*
X34478474Y-125112252D01*
X34434050Y-124940567D01*
X34426494Y-124830257D01*
X34462320Y-124763657D01*
X34548044Y-124723100D01*
X34629328Y-124703241D01*
X34682625Y-124692579D01*
X34721373Y-124678892D01*
X34745875Y-124651038D01*
X34756437Y-124597871D01*
X34753363Y-124508247D01*
X34736959Y-124371023D01*
X34707529Y-124175053D01*
X34665377Y-123909195D01*
X34653151Y-123832166D01*
X34613780Y-123588795D01*
X34583031Y-123417199D01*
X34557317Y-123305371D01*
X34533052Y-123241305D01*
X34506648Y-123212994D01*
X34474519Y-123208432D01*
X34467088Y-123209313D01*
X34371375Y-123190200D01*
X34327971Y-123156805D01*
X34241032Y-123111731D01*
X34180765Y-123115630D01*
X34076325Y-123106878D01*
X34032646Y-123073354D01*
X33972242Y-123029684D01*
X33940158Y-123031031D01*
X33858715Y-123039054D01*
X33765912Y-122998300D01*
X33701852Y-122927222D01*
X33698880Y-122920003D01*
X33656837Y-122865284D01*
X33607893Y-122882471D01*
G36*
X38192778Y-126830777D02*
X38198589Y-126855944D01*
X38221000Y-126859000D01*
X38255846Y-126843510D01*
X38249223Y-126830777D01*
X38198983Y-126825711D01*
X38192778Y-126830777D01*
X38192778Y-126830777D01*
G37*
X38192778Y-126830777D02*
X38198589Y-126855944D01*
X38221000Y-126859000D01*
X38255846Y-126843510D01*
X38249223Y-126830777D01*
X38198983Y-126825711D01*
X38192778Y-126830777D01*
G36*
X36118552Y-122161015D02*
X36162049Y-122248988D01*
X36254115Y-122380898D01*
X36388418Y-122549475D01*
X36558630Y-122747446D01*
X36758422Y-122967541D01*
X36981462Y-123202490D01*
X37221423Y-123445022D01*
X37471974Y-123687866D01*
X37577000Y-123786492D01*
X37810974Y-124007197D01*
X38045229Y-124233796D01*
X38265447Y-124452028D01*
X38457315Y-124647635D01*
X38606516Y-124806355D01*
X38651168Y-124856465D01*
X38792580Y-125018644D01*
X38925149Y-125170111D01*
X39032291Y-125291952D01*
X39089257Y-125356166D01*
X39203013Y-125483166D01*
X39098814Y-125292666D01*
X38944817Y-125011562D01*
X38825897Y-124796371D01*
X38736678Y-124638631D01*
X38671784Y-124529878D01*
X38625839Y-124461648D01*
X38593467Y-124425478D01*
X38569293Y-124412904D01*
X38547941Y-124415462D01*
X38542816Y-124417319D01*
X38503645Y-124392767D01*
X38412962Y-124316269D01*
X38279041Y-124195831D01*
X38110154Y-124039461D01*
X37914573Y-123855166D01*
X37700571Y-123650952D01*
X37476420Y-123434826D01*
X37250392Y-123214796D01*
X37030761Y-122998868D01*
X36825798Y-122795050D01*
X36643776Y-122611347D01*
X36492968Y-122455767D01*
X36381645Y-122336318D01*
X36326784Y-122272416D01*
X36233169Y-122173832D01*
X36153506Y-122125747D01*
X36129951Y-122124249D01*
X36118552Y-122161015D01*
X36118552Y-122161015D01*
G37*
X36118552Y-122161015D02*
X36162049Y-122248988D01*
X36254115Y-122380898D01*
X36388418Y-122549475D01*
X36558630Y-122747446D01*
X36758422Y-122967541D01*
X36981462Y-123202490D01*
X37221423Y-123445022D01*
X37471974Y-123687866D01*
X37577000Y-123786492D01*
X37810974Y-124007197D01*
X38045229Y-124233796D01*
X38265447Y-124452028D01*
X38457315Y-124647635D01*
X38606516Y-124806355D01*
X38651168Y-124856465D01*
X38792580Y-125018644D01*
X38925149Y-125170111D01*
X39032291Y-125291952D01*
X39089257Y-125356166D01*
X39203013Y-125483166D01*
X39098814Y-125292666D01*
X38944817Y-125011562D01*
X38825897Y-124796371D01*
X38736678Y-124638631D01*
X38671784Y-124529878D01*
X38625839Y-124461648D01*
X38593467Y-124425478D01*
X38569293Y-124412904D01*
X38547941Y-124415462D01*
X38542816Y-124417319D01*
X38503645Y-124392767D01*
X38412962Y-124316269D01*
X38279041Y-124195831D01*
X38110154Y-124039461D01*
X37914573Y-123855166D01*
X37700571Y-123650952D01*
X37476420Y-123434826D01*
X37250392Y-123214796D01*
X37030761Y-122998868D01*
X36825798Y-122795050D01*
X36643776Y-122611347D01*
X36492968Y-122455767D01*
X36381645Y-122336318D01*
X36326784Y-122272416D01*
X36233169Y-122173832D01*
X36153506Y-122125747D01*
X36129951Y-122124249D01*
X36118552Y-122161015D01*
G36*
X39290649Y-123424711D02*
X39278823Y-123514930D01*
X39278673Y-123525250D01*
X39268266Y-123642828D01*
X39242134Y-123801124D01*
X39217300Y-123916833D01*
X39183666Y-124093225D01*
X39182222Y-124225163D01*
X39202773Y-124319000D01*
X39237358Y-124432153D01*
X39261131Y-124513801D01*
X39262817Y-124520083D01*
X39309102Y-124567659D01*
X39386741Y-124559352D01*
X39440200Y-124522200D01*
X39486245Y-124422624D01*
X39473048Y-124271463D01*
X39438646Y-124159060D01*
X39409019Y-124057492D01*
X39421368Y-123995700D01*
X39477796Y-123940179D01*
X39586152Y-123889387D01*
X39763295Y-123851096D01*
X39878002Y-123837392D01*
X40122716Y-123799452D01*
X40286224Y-123738580D01*
X40368868Y-123654617D01*
X40380000Y-123601106D01*
X40374067Y-123563110D01*
X40345547Y-123541090D01*
X40278366Y-123532672D01*
X40156448Y-123535483D01*
X39999000Y-123544848D01*
X39789143Y-123553588D01*
X39662065Y-123547273D01*
X39618036Y-123525917D01*
X39618000Y-123525074D01*
X39582553Y-123486232D01*
X39498047Y-123440473D01*
X39397239Y-123402669D01*
X39315350Y-123387666D01*
X39290649Y-123424711D01*
X39290649Y-123424711D01*
G37*
X39290649Y-123424711D02*
X39278823Y-123514930D01*
X39278673Y-123525250D01*
X39268266Y-123642828D01*
X39242134Y-123801124D01*
X39217300Y-123916833D01*
X39183666Y-124093225D01*
X39182222Y-124225163D01*
X39202773Y-124319000D01*
X39237358Y-124432153D01*
X39261131Y-124513801D01*
X39262817Y-124520083D01*
X39309102Y-124567659D01*
X39386741Y-124559352D01*
X39440200Y-124522200D01*
X39486245Y-124422624D01*
X39473048Y-124271463D01*
X39438646Y-124159060D01*
X39409019Y-124057492D01*
X39421368Y-123995700D01*
X39477796Y-123940179D01*
X39586152Y-123889387D01*
X39763295Y-123851096D01*
X39878002Y-123837392D01*
X40122716Y-123799452D01*
X40286224Y-123738580D01*
X40368868Y-123654617D01*
X40380000Y-123601106D01*
X40374067Y-123563110D01*
X40345547Y-123541090D01*
X40278366Y-123532672D01*
X40156448Y-123535483D01*
X39999000Y-123544848D01*
X39789143Y-123553588D01*
X39662065Y-123547273D01*
X39618036Y-123525917D01*
X39618000Y-123525074D01*
X39582553Y-123486232D01*
X39498047Y-123440473D01*
X39397239Y-123402669D01*
X39315350Y-123387666D01*
X39290649Y-123424711D01*
G36*
X33422390Y-123424578D02*
X33426413Y-123448237D01*
X33424513Y-123546683D01*
X33398028Y-123685098D01*
X33373394Y-123769992D01*
X33333295Y-123898426D01*
X33322333Y-123977885D01*
X33341837Y-124039365D01*
X33387841Y-124106703D01*
X33442978Y-124195269D01*
X33444691Y-124257468D01*
X33419187Y-124300862D01*
X33374686Y-124351449D01*
X33348957Y-124328045D01*
X33334012Y-124284580D01*
X33274146Y-124212540D01*
X33179230Y-124191940D01*
X33084592Y-124227150D01*
X33060304Y-124250716D01*
X33042112Y-124301451D01*
X33080354Y-124362713D01*
X33143035Y-124420049D01*
X33237292Y-124495705D01*
X33302469Y-124522591D01*
X33374851Y-124505750D01*
X33461927Y-124464381D01*
X33552513Y-124400115D01*
X33618038Y-124297684D01*
X33663010Y-124175874D01*
X33720260Y-123948483D01*
X33726650Y-123768997D01*
X33678822Y-123615238D01*
X33573416Y-123465023D01*
X33551664Y-123440583D01*
X33468291Y-123362214D01*
X33425910Y-123356836D01*
X33422390Y-123424578D01*
X33422390Y-123424578D01*
G37*
X33422390Y-123424578D02*
X33426413Y-123448237D01*
X33424513Y-123546683D01*
X33398028Y-123685098D01*
X33373394Y-123769992D01*
X33333295Y-123898426D01*
X33322333Y-123977885D01*
X33341837Y-124039365D01*
X33387841Y-124106703D01*
X33442978Y-124195269D01*
X33444691Y-124257468D01*
X33419187Y-124300862D01*
X33374686Y-124351449D01*
X33348957Y-124328045D01*
X33334012Y-124284580D01*
X33274146Y-124212540D01*
X33179230Y-124191940D01*
X33084592Y-124227150D01*
X33060304Y-124250716D01*
X33042112Y-124301451D01*
X33080354Y-124362713D01*
X33143035Y-124420049D01*
X33237292Y-124495705D01*
X33302469Y-124522591D01*
X33374851Y-124505750D01*
X33461927Y-124464381D01*
X33552513Y-124400115D01*
X33618038Y-124297684D01*
X33663010Y-124175874D01*
X33720260Y-123948483D01*
X33726650Y-123768997D01*
X33678822Y-123615238D01*
X33573416Y-123465023D01*
X33551664Y-123440583D01*
X33468291Y-123362214D01*
X33425910Y-123356836D01*
X33422390Y-123424578D01*
G36*
X32761974Y-124302890D02*
X32738834Y-124356169D01*
X32775071Y-124426689D01*
X32859942Y-124482781D01*
X32957687Y-124503237D01*
X32981311Y-124499980D01*
X33028521Y-124481019D01*
X33024518Y-124441295D01*
X32985634Y-124377452D01*
X32913372Y-124310394D01*
X32829385Y-124284726D01*
X32761974Y-124302890D01*
X32761974Y-124302890D01*
G37*
X32761974Y-124302890D02*
X32738834Y-124356169D01*
X32775071Y-124426689D01*
X32859942Y-124482781D01*
X32957687Y-124503237D01*
X32981311Y-124499980D01*
X33028521Y-124481019D01*
X33024518Y-124441295D01*
X32985634Y-124377452D01*
X32913372Y-124310394D01*
X32829385Y-124284726D01*
X32761974Y-124302890D01*
G36*
X32460989Y-124343393D02*
X32427552Y-124403428D01*
X32462147Y-124445848D01*
X32466389Y-124448578D01*
X32569363Y-124490192D01*
X32632764Y-124468033D01*
X32644134Y-124386753D01*
X32643362Y-124382500D01*
X32601752Y-124295067D01*
X32533406Y-124285229D01*
X32460989Y-124343393D01*
X32460989Y-124343393D01*
G37*
X32460989Y-124343393D02*
X32427552Y-124403428D01*
X32462147Y-124445848D01*
X32466389Y-124448578D01*
X32569363Y-124490192D01*
X32632764Y-124468033D01*
X32644134Y-124386753D01*
X32643362Y-124382500D01*
X32601752Y-124295067D01*
X32533406Y-124285229D01*
X32460989Y-124343393D01*
G36*
X38557139Y-120686082D02*
X38452994Y-120841682D01*
X38339360Y-120997480D01*
X38276393Y-121076773D01*
X38211538Y-121157675D01*
X38171215Y-121227264D01*
X38150014Y-121308463D01*
X38142522Y-121424196D01*
X38143327Y-121597388D01*
X38143957Y-121637775D01*
X38143526Y-121813556D01*
X38137120Y-121956532D01*
X38125958Y-122046146D01*
X38118675Y-122064835D01*
X38066424Y-122076942D01*
X37946911Y-122086913D01*
X37777531Y-122093757D01*
X37575679Y-122096488D01*
X37561424Y-122096500D01*
X37361674Y-122098732D01*
X37196813Y-122104826D01*
X37082926Y-122113875D01*
X37036097Y-122124974D01*
X37035720Y-122126095D01*
X37073059Y-122185025D01*
X37176382Y-122266453D01*
X37332405Y-122363127D01*
X37527847Y-122467794D01*
X37749423Y-122573202D01*
X37983849Y-122672099D01*
X38148073Y-122733425D01*
X38296550Y-122788207D01*
X38405759Y-122833518D01*
X38458238Y-122861911D01*
X38459993Y-122866451D01*
X38415871Y-122859571D01*
X38309090Y-122827819D01*
X38156122Y-122776441D01*
X37990151Y-122716859D01*
X37795202Y-122645526D01*
X37665024Y-122601301D01*
X37584989Y-122581899D01*
X37540469Y-122585034D01*
X37516835Y-122608420D01*
X37502925Y-122640724D01*
X37495546Y-122729166D01*
X37546587Y-122834220D01*
X37571599Y-122869083D01*
X37643044Y-122967851D01*
X37663807Y-123005553D01*
X37637757Y-122985872D01*
X37568764Y-122912490D01*
X37460697Y-122789091D01*
X37349199Y-122657416D01*
X37167186Y-122442320D01*
X37025954Y-122283941D01*
X36913421Y-122172858D01*
X36817506Y-122099651D01*
X36726127Y-122054900D01*
X36627204Y-122029184D01*
X36525217Y-122014922D01*
X36269049Y-121985939D01*
X36339229Y-122125886D01*
X36381845Y-122182141D01*
X36474902Y-122286986D01*
X36610143Y-122432131D01*
X36779306Y-122609286D01*
X36974133Y-122810160D01*
X37186366Y-123026464D01*
X37407743Y-123249908D01*
X37630007Y-123472201D01*
X37844898Y-123685055D01*
X38044157Y-123880178D01*
X38219523Y-124049280D01*
X38362739Y-124184073D01*
X38465545Y-124276264D01*
X38519681Y-124317566D01*
X38524210Y-124319000D01*
X38558986Y-124286932D01*
X38559667Y-124279165D01*
X38528907Y-124221797D01*
X38517561Y-124213307D01*
X38465858Y-124158001D01*
X38426521Y-124095849D01*
X38403771Y-124045675D01*
X38422006Y-124046191D01*
X38491132Y-124100053D01*
X38514208Y-124119373D01*
X38612292Y-124191427D01*
X38690946Y-124231441D01*
X38706860Y-124234333D01*
X38754121Y-124194375D01*
X38797265Y-124083981D01*
X38833436Y-123917376D01*
X38859777Y-123708780D01*
X38873432Y-123472417D01*
X38874622Y-123399025D01*
X38876922Y-123216173D01*
X38882761Y-123112500D01*
X37755334Y-123112500D01*
X37734167Y-123133666D01*
X37713000Y-123112500D01*
X37734167Y-123091333D01*
X37755334Y-123112500D01*
X38882761Y-123112500D01*
X38883291Y-123103090D01*
X38897279Y-123044883D01*
X38922441Y-123026656D01*
X38961834Y-123033367D01*
X39050961Y-123070367D01*
X39094449Y-123107872D01*
X39078851Y-123131401D01*
X39054967Y-123133666D01*
X39015960Y-123146525D01*
X38993622Y-123196709D01*
X38983455Y-123301624D01*
X38981157Y-123419416D01*
X38966268Y-123709040D01*
X38920649Y-123987076D01*
X38877228Y-124163916D01*
X38861706Y-124247468D01*
X38889013Y-124273799D01*
X38944874Y-124269749D01*
X38998753Y-124251906D01*
X39039223Y-124204825D01*
X39075604Y-124110919D01*
X39117220Y-123952603D01*
X39120727Y-123938000D01*
X39157807Y-123741978D01*
X39180908Y-123538084D01*
X39185093Y-123377006D01*
X39185255Y-123227499D01*
X39201319Y-123147677D01*
X39230555Y-123142326D01*
X39270231Y-123216233D01*
X39272853Y-123223210D01*
X39321713Y-123278870D01*
X39413201Y-123339451D01*
X39518372Y-123390509D01*
X39608283Y-123417597D01*
X39650450Y-123411661D01*
X39642719Y-123365565D01*
X39607319Y-123239603D01*
X39544293Y-123033914D01*
X39534348Y-123002599D01*
X39356816Y-123002599D01*
X39335483Y-122994102D01*
X38795491Y-122994102D01*
X38742993Y-122986050D01*
X38729000Y-122982400D01*
X38621440Y-122945093D01*
X38559667Y-122914857D01*
X38535510Y-122892230D01*
X38588008Y-122900282D01*
X38602000Y-122903932D01*
X38709561Y-122941240D01*
X38771334Y-122971475D01*
X38795491Y-122994102D01*
X39335483Y-122994102D01*
X39138158Y-122915510D01*
X39016395Y-122868186D01*
X38837362Y-122800090D01*
X38623277Y-122719607D01*
X38396355Y-122635126D01*
X38349424Y-122617763D01*
X38135893Y-122537782D01*
X37943586Y-122463767D01*
X37790136Y-122402648D01*
X37693176Y-122361353D01*
X37677363Y-122353670D01*
X37629443Y-122324428D01*
X37630959Y-122305368D01*
X37693192Y-122291218D01*
X37827423Y-122276708D01*
X37845794Y-122274983D01*
X38029453Y-122255429D01*
X38156064Y-122227539D01*
X38236269Y-122177033D01*
X38280709Y-122089634D01*
X38300023Y-121951064D01*
X38304853Y-121747042D01*
X38305089Y-121658662D01*
X38307272Y-121482605D01*
X38318345Y-121363718D01*
X38346142Y-121274507D01*
X38398496Y-121187484D01*
X38464417Y-121099549D01*
X38551496Y-120991085D01*
X38618558Y-120915794D01*
X38647668Y-120891803D01*
X38668558Y-120930759D01*
X38712667Y-121045483D01*
X38778255Y-121230840D01*
X38863582Y-121481693D01*
X38966909Y-121792908D01*
X39086494Y-122159349D01*
X39220598Y-122575879D01*
X39259533Y-122697716D01*
X39356816Y-123002599D01*
X39534348Y-123002599D01*
X39453687Y-122748635D01*
X39335543Y-122383903D01*
X39189906Y-121939857D01*
X39016819Y-121416633D01*
X38963980Y-121257582D01*
X38699131Y-120460998D01*
X38557139Y-120686082D01*
X38557139Y-120686082D01*
G37*
X38557139Y-120686082D02*
X38452994Y-120841682D01*
X38339360Y-120997480D01*
X38276393Y-121076773D01*
X38211538Y-121157675D01*
X38171215Y-121227264D01*
X38150014Y-121308463D01*
X38142522Y-121424196D01*
X38143327Y-121597388D01*
X38143957Y-121637775D01*
X38143526Y-121813556D01*
X38137120Y-121956532D01*
X38125958Y-122046146D01*
X38118675Y-122064835D01*
X38066424Y-122076942D01*
X37946911Y-122086913D01*
X37777531Y-122093757D01*
X37575679Y-122096488D01*
X37561424Y-122096500D01*
X37361674Y-122098732D01*
X37196813Y-122104826D01*
X37082926Y-122113875D01*
X37036097Y-122124974D01*
X37035720Y-122126095D01*
X37073059Y-122185025D01*
X37176382Y-122266453D01*
X37332405Y-122363127D01*
X37527847Y-122467794D01*
X37749423Y-122573202D01*
X37983849Y-122672099D01*
X38148073Y-122733425D01*
X38296550Y-122788207D01*
X38405759Y-122833518D01*
X38458238Y-122861911D01*
X38459993Y-122866451D01*
X38415871Y-122859571D01*
X38309090Y-122827819D01*
X38156122Y-122776441D01*
X37990151Y-122716859D01*
X37795202Y-122645526D01*
X37665024Y-122601301D01*
X37584989Y-122581899D01*
X37540469Y-122585034D01*
X37516835Y-122608420D01*
X37502925Y-122640724D01*
X37495546Y-122729166D01*
X37546587Y-122834220D01*
X37571599Y-122869083D01*
X37643044Y-122967851D01*
X37663807Y-123005553D01*
X37637757Y-122985872D01*
X37568764Y-122912490D01*
X37460697Y-122789091D01*
X37349199Y-122657416D01*
X37167186Y-122442320D01*
X37025954Y-122283941D01*
X36913421Y-122172858D01*
X36817506Y-122099651D01*
X36726127Y-122054900D01*
X36627204Y-122029184D01*
X36525217Y-122014922D01*
X36269049Y-121985939D01*
X36339229Y-122125886D01*
X36381845Y-122182141D01*
X36474902Y-122286986D01*
X36610143Y-122432131D01*
X36779306Y-122609286D01*
X36974133Y-122810160D01*
X37186366Y-123026464D01*
X37407743Y-123249908D01*
X37630007Y-123472201D01*
X37844898Y-123685055D01*
X38044157Y-123880178D01*
X38219523Y-124049280D01*
X38362739Y-124184073D01*
X38465545Y-124276264D01*
X38519681Y-124317566D01*
X38524210Y-124319000D01*
X38558986Y-124286932D01*
X38559667Y-124279165D01*
X38528907Y-124221797D01*
X38517561Y-124213307D01*
X38465858Y-124158001D01*
X38426521Y-124095849D01*
X38403771Y-124045675D01*
X38422006Y-124046191D01*
X38491132Y-124100053D01*
X38514208Y-124119373D01*
X38612292Y-124191427D01*
X38690946Y-124231441D01*
X38706860Y-124234333D01*
X38754121Y-124194375D01*
X38797265Y-124083981D01*
X38833436Y-123917376D01*
X38859777Y-123708780D01*
X38873432Y-123472417D01*
X38874622Y-123399025D01*
X38876922Y-123216173D01*
X38882761Y-123112500D01*
X37755334Y-123112500D01*
X37734167Y-123133666D01*
X37713000Y-123112500D01*
X37734167Y-123091333D01*
X37755334Y-123112500D01*
X38882761Y-123112500D01*
X38883291Y-123103090D01*
X38897279Y-123044883D01*
X38922441Y-123026656D01*
X38961834Y-123033367D01*
X39050961Y-123070367D01*
X39094449Y-123107872D01*
X39078851Y-123131401D01*
X39054967Y-123133666D01*
X39015960Y-123146525D01*
X38993622Y-123196709D01*
X38983455Y-123301624D01*
X38981157Y-123419416D01*
X38966268Y-123709040D01*
X38920649Y-123987076D01*
X38877228Y-124163916D01*
X38861706Y-124247468D01*
X38889013Y-124273799D01*
X38944874Y-124269749D01*
X38998753Y-124251906D01*
X39039223Y-124204825D01*
X39075604Y-124110919D01*
X39117220Y-123952603D01*
X39120727Y-123938000D01*
X39157807Y-123741978D01*
X39180908Y-123538084D01*
X39185093Y-123377006D01*
X39185255Y-123227499D01*
X39201319Y-123147677D01*
X39230555Y-123142326D01*
X39270231Y-123216233D01*
X39272853Y-123223210D01*
X39321713Y-123278870D01*
X39413201Y-123339451D01*
X39518372Y-123390509D01*
X39608283Y-123417597D01*
X39650450Y-123411661D01*
X39642719Y-123365565D01*
X39607319Y-123239603D01*
X39544293Y-123033914D01*
X39534348Y-123002599D01*
X39356816Y-123002599D01*
X39335483Y-122994102D01*
X38795491Y-122994102D01*
X38742993Y-122986050D01*
X38729000Y-122982400D01*
X38621440Y-122945093D01*
X38559667Y-122914857D01*
X38535510Y-122892230D01*
X38588008Y-122900282D01*
X38602000Y-122903932D01*
X38709561Y-122941240D01*
X38771334Y-122971475D01*
X38795491Y-122994102D01*
X39335483Y-122994102D01*
X39138158Y-122915510D01*
X39016395Y-122868186D01*
X38837362Y-122800090D01*
X38623277Y-122719607D01*
X38396355Y-122635126D01*
X38349424Y-122617763D01*
X38135893Y-122537782D01*
X37943586Y-122463767D01*
X37790136Y-122402648D01*
X37693176Y-122361353D01*
X37677363Y-122353670D01*
X37629443Y-122324428D01*
X37630959Y-122305368D01*
X37693192Y-122291218D01*
X37827423Y-122276708D01*
X37845794Y-122274983D01*
X38029453Y-122255429D01*
X38156064Y-122227539D01*
X38236269Y-122177033D01*
X38280709Y-122089634D01*
X38300023Y-121951064D01*
X38304853Y-121747042D01*
X38305089Y-121658662D01*
X38307272Y-121482605D01*
X38318345Y-121363718D01*
X38346142Y-121274507D01*
X38398496Y-121187484D01*
X38464417Y-121099549D01*
X38551496Y-120991085D01*
X38618558Y-120915794D01*
X38647668Y-120891803D01*
X38668558Y-120930759D01*
X38712667Y-121045483D01*
X38778255Y-121230840D01*
X38863582Y-121481693D01*
X38966909Y-121792908D01*
X39086494Y-122159349D01*
X39220598Y-122575879D01*
X39259533Y-122697716D01*
X39356816Y-123002599D01*
X39534348Y-123002599D01*
X39453687Y-122748635D01*
X39335543Y-122383903D01*
X39189906Y-121939857D01*
X39016819Y-121416633D01*
X38963980Y-121257582D01*
X38699131Y-120460998D01*
X38557139Y-120686082D01*
G36*
X32555064Y-124118947D02*
X32548334Y-124152165D01*
X32585346Y-124179110D01*
X32675498Y-124191309D01*
X32685917Y-124191375D01*
X32823500Y-124190751D01*
X32717667Y-124134697D01*
X32610262Y-124095843D01*
X32555064Y-124118947D01*
X32555064Y-124118947D01*
G37*
X32555064Y-124118947D02*
X32548334Y-124152165D01*
X32585346Y-124179110D01*
X32675498Y-124191309D01*
X32685917Y-124191375D01*
X32823500Y-124190751D01*
X32717667Y-124134697D01*
X32610262Y-124095843D01*
X32555064Y-124118947D01*
G36*
X33183334Y-124043833D02*
X33204500Y-124065000D01*
X33225667Y-124043833D01*
X33204500Y-124022666D01*
X33183334Y-124043833D01*
X33183334Y-124043833D01*
G37*
X33183334Y-124043833D02*
X33204500Y-124065000D01*
X33225667Y-124043833D01*
X33204500Y-124022666D01*
X33183334Y-124043833D01*
G36*
X33240490Y-123239200D02*
X33225667Y-123307273D01*
X33197177Y-123455388D01*
X33122377Y-123612961D01*
X33017276Y-123759078D01*
X32897881Y-123872826D01*
X32780199Y-123933293D01*
X32742882Y-123938000D01*
X32683995Y-123959657D01*
X32675334Y-123980333D01*
X32712842Y-124007053D01*
X32806336Y-124021709D01*
X32841419Y-124022666D01*
X33017372Y-123989516D01*
X33136988Y-123913713D01*
X33259767Y-123761030D01*
X33333732Y-123566545D01*
X33345843Y-123368999D01*
X33319131Y-123275895D01*
X33277814Y-123229444D01*
X33240490Y-123239200D01*
X33240490Y-123239200D01*
G37*
X33240490Y-123239200D02*
X33225667Y-123307273D01*
X33197177Y-123455388D01*
X33122377Y-123612961D01*
X33017276Y-123759078D01*
X32897881Y-123872826D01*
X32780199Y-123933293D01*
X32742882Y-123938000D01*
X32683995Y-123959657D01*
X32675334Y-123980333D01*
X32712842Y-124007053D01*
X32806336Y-124021709D01*
X32841419Y-124022666D01*
X33017372Y-123989516D01*
X33136988Y-123913713D01*
X33259767Y-123761030D01*
X33333732Y-123566545D01*
X33345843Y-123368999D01*
X33319131Y-123275895D01*
X33277814Y-123229444D01*
X33240490Y-123239200D01*
G36*
X39716778Y-123952111D02*
X39722589Y-123977278D01*
X39745000Y-123980333D01*
X39779846Y-123964844D01*
X39773223Y-123952111D01*
X39722983Y-123947044D01*
X39716778Y-123952111D01*
X39716778Y-123952111D01*
G37*
X39716778Y-123952111D02*
X39722589Y-123977278D01*
X39745000Y-123980333D01*
X39779846Y-123964844D01*
X39773223Y-123952111D01*
X39722983Y-123947044D01*
X39716778Y-123952111D01*
G36*
X33015257Y-122090705D02*
X32883326Y-122131738D01*
X32714833Y-122190807D01*
X32530421Y-122260284D01*
X32350733Y-122332545D01*
X32196412Y-122399964D01*
X32146167Y-122423987D01*
X31910041Y-122557513D01*
X31753665Y-122687668D01*
X31672775Y-122821554D01*
X31663105Y-122966275D01*
X31720391Y-123128934D01*
X31721539Y-123131162D01*
X31783989Y-123219228D01*
X31890122Y-123336991D01*
X32024514Y-123470555D01*
X32171742Y-123606023D01*
X32316380Y-123729499D01*
X32443005Y-123827085D01*
X32536192Y-123884885D01*
X32569009Y-123894702D01*
X32664187Y-123875649D01*
X32782218Y-123830499D01*
X32793586Y-123825026D01*
X32907948Y-123738779D01*
X33012803Y-123608373D01*
X33098321Y-123455036D01*
X33154676Y-123299997D01*
X33172039Y-123164483D01*
X33142326Y-123071763D01*
X33119373Y-123030925D01*
X33163919Y-123031871D01*
X33180914Y-123036101D01*
X33252535Y-123035325D01*
X33265581Y-122986842D01*
X33222820Y-122901302D01*
X33198125Y-122872446D01*
X32852140Y-122872446D01*
X32808862Y-122872489D01*
X32698492Y-122830538D01*
X32619874Y-122783093D01*
X32590667Y-122744784D01*
X32622883Y-122737132D01*
X32701995Y-122766008D01*
X32717667Y-122773833D01*
X32822632Y-122836928D01*
X32852140Y-122872446D01*
X33198125Y-122872446D01*
X33127016Y-122789357D01*
X33113340Y-122775871D01*
X33018462Y-122677576D01*
X32987460Y-122632357D01*
X33016918Y-122641905D01*
X33103420Y-122707912D01*
X33157318Y-122754087D01*
X33262829Y-122831133D01*
X33325207Y-122836518D01*
X33346940Y-122768526D01*
X33332039Y-122633503D01*
X33297838Y-122498793D01*
X33247033Y-122353088D01*
X33189411Y-122218956D01*
X33134758Y-122118963D01*
X33092861Y-122075676D01*
X33089982Y-122075333D01*
X33015257Y-122090705D01*
X33015257Y-122090705D01*
G37*
X33015257Y-122090705D02*
X32883326Y-122131738D01*
X32714833Y-122190807D01*
X32530421Y-122260284D01*
X32350733Y-122332545D01*
X32196412Y-122399964D01*
X32146167Y-122423987D01*
X31910041Y-122557513D01*
X31753665Y-122687668D01*
X31672775Y-122821554D01*
X31663105Y-122966275D01*
X31720391Y-123128934D01*
X31721539Y-123131162D01*
X31783989Y-123219228D01*
X31890122Y-123336991D01*
X32024514Y-123470555D01*
X32171742Y-123606023D01*
X32316380Y-123729499D01*
X32443005Y-123827085D01*
X32536192Y-123884885D01*
X32569009Y-123894702D01*
X32664187Y-123875649D01*
X32782218Y-123830499D01*
X32793586Y-123825026D01*
X32907948Y-123738779D01*
X33012803Y-123608373D01*
X33098321Y-123455036D01*
X33154676Y-123299997D01*
X33172039Y-123164483D01*
X33142326Y-123071763D01*
X33119373Y-123030925D01*
X33163919Y-123031871D01*
X33180914Y-123036101D01*
X33252535Y-123035325D01*
X33265581Y-122986842D01*
X33222820Y-122901302D01*
X33198125Y-122872446D01*
X32852140Y-122872446D01*
X32808862Y-122872489D01*
X32698492Y-122830538D01*
X32619874Y-122783093D01*
X32590667Y-122744784D01*
X32622883Y-122737132D01*
X32701995Y-122766008D01*
X32717667Y-122773833D01*
X32822632Y-122836928D01*
X32852140Y-122872446D01*
X33198125Y-122872446D01*
X33127016Y-122789357D01*
X33113340Y-122775871D01*
X33018462Y-122677576D01*
X32987460Y-122632357D01*
X33016918Y-122641905D01*
X33103420Y-122707912D01*
X33157318Y-122754087D01*
X33262829Y-122831133D01*
X33325207Y-122836518D01*
X33346940Y-122768526D01*
X33332039Y-122633503D01*
X33297838Y-122498793D01*
X33247033Y-122353088D01*
X33189411Y-122218956D01*
X33134758Y-122118963D01*
X33092861Y-122075676D01*
X33089982Y-122075333D01*
X33015257Y-122090705D01*
G36*
X33393677Y-122913122D02*
X33355941Y-122979867D01*
X33330357Y-123063300D01*
X33330293Y-123130063D01*
X33333696Y-123137219D01*
X33382068Y-123175653D01*
X33423357Y-123135769D01*
X33446637Y-123047136D01*
X33449660Y-122950172D01*
X33430525Y-122896631D01*
X33430196Y-122896422D01*
X33393677Y-122913122D01*
X33393677Y-122913122D01*
G37*
X33393677Y-122913122D02*
X33355941Y-122979867D01*
X33330357Y-123063300D01*
X33330293Y-123130063D01*
X33333696Y-123137219D01*
X33382068Y-123175653D01*
X33423357Y-123135769D01*
X33446637Y-123047136D01*
X33449660Y-122950172D01*
X33430525Y-122896631D01*
X33430196Y-122896422D01*
X33393677Y-122913122D01*
G36*
X34246348Y-122834440D02*
X34220232Y-122876075D01*
X34255885Y-122912756D01*
X34330767Y-122931762D01*
X34406746Y-122924956D01*
X34508326Y-122899024D01*
X34402848Y-122850965D01*
X34307265Y-122825722D01*
X34246348Y-122834440D01*
X34246348Y-122834440D01*
G37*
X34246348Y-122834440D02*
X34220232Y-122876075D01*
X34255885Y-122912756D01*
X34330767Y-122931762D01*
X34406746Y-122924956D01*
X34508326Y-122899024D01*
X34402848Y-122850965D01*
X34307265Y-122825722D01*
X34246348Y-122834440D01*
G36*
X33532082Y-122037948D02*
X33490165Y-122064099D01*
X33499460Y-122128411D01*
X33555186Y-122247841D01*
X33564334Y-122265833D01*
X33619007Y-122408639D01*
X33647796Y-122553198D01*
X33649097Y-122581701D01*
X33656218Y-122682264D01*
X33692735Y-122724950D01*
X33781642Y-122736308D01*
X33783063Y-122736360D01*
X33893433Y-122760512D01*
X33967550Y-122810443D01*
X34018518Y-122869102D01*
X34066580Y-122866634D01*
X34113481Y-122838962D01*
X34149057Y-122804411D01*
X34108513Y-122778421D01*
X34092314Y-122773056D01*
X33968218Y-122724676D01*
X33908333Y-122665685D01*
X33893541Y-122570491D01*
X33896374Y-122510784D01*
X33887588Y-122354026D01*
X33849709Y-122199736D01*
X33844505Y-122186613D01*
X33792161Y-122085097D01*
X33728889Y-122041759D01*
X33629994Y-122033000D01*
X33532082Y-122037948D01*
X33532082Y-122037948D01*
G37*
X33532082Y-122037948D02*
X33490165Y-122064099D01*
X33499460Y-122128411D01*
X33555186Y-122247841D01*
X33564334Y-122265833D01*
X33619007Y-122408639D01*
X33647796Y-122553198D01*
X33649097Y-122581701D01*
X33656218Y-122682264D01*
X33692735Y-122724950D01*
X33781642Y-122736308D01*
X33783063Y-122736360D01*
X33893433Y-122760512D01*
X33967550Y-122810443D01*
X34018518Y-122869102D01*
X34066580Y-122866634D01*
X34113481Y-122838962D01*
X34149057Y-122804411D01*
X34108513Y-122778421D01*
X34092314Y-122773056D01*
X33968218Y-122724676D01*
X33908333Y-122665685D01*
X33893541Y-122570491D01*
X33896374Y-122510784D01*
X33887588Y-122354026D01*
X33849709Y-122199736D01*
X33844505Y-122186613D01*
X33792161Y-122085097D01*
X33728889Y-122041759D01*
X33629994Y-122033000D01*
X33532082Y-122037948D01*
G36*
X33232033Y-122047363D02*
X33235016Y-122099797D01*
X33276225Y-122204316D01*
X33313208Y-122282951D01*
X33375406Y-122437001D01*
X33422232Y-122596931D01*
X33430019Y-122635600D01*
X33452812Y-122739425D01*
X33477729Y-122770831D01*
X33509375Y-122746713D01*
X33531862Y-122665745D01*
X33520730Y-122539439D01*
X33483952Y-122391036D01*
X33429501Y-122243779D01*
X33365349Y-122120909D01*
X33299469Y-122045668D01*
X33264548Y-122033000D01*
X33232033Y-122047363D01*
X33232033Y-122047363D01*
G37*
X33232033Y-122047363D02*
X33235016Y-122099797D01*
X33276225Y-122204316D01*
X33313208Y-122282951D01*
X33375406Y-122437001D01*
X33422232Y-122596931D01*
X33430019Y-122635600D01*
X33452812Y-122739425D01*
X33477729Y-122770831D01*
X33509375Y-122746713D01*
X33531862Y-122665745D01*
X33520730Y-122539439D01*
X33483952Y-122391036D01*
X33429501Y-122243779D01*
X33365349Y-122120909D01*
X33299469Y-122045668D01*
X33264548Y-122033000D01*
X33232033Y-122047363D01*
G36*
X34139552Y-122017020D02*
X34015138Y-122034338D01*
X33931656Y-122048720D01*
X33912223Y-122054206D01*
X33915090Y-122096883D01*
X33935506Y-122195354D01*
X33954163Y-122270721D01*
X34016202Y-122444286D01*
X34096925Y-122544278D01*
X34205430Y-122581250D01*
X34222617Y-122581986D01*
X34314900Y-122602711D01*
X34352439Y-122626372D01*
X34407289Y-122648789D01*
X34424406Y-122640483D01*
X34447956Y-122570226D01*
X34451435Y-122446202D01*
X34436018Y-122296604D01*
X34404136Y-122153780D01*
X34354937Y-121989571D01*
X34139552Y-122017020D01*
X34139552Y-122017020D01*
G37*
X34139552Y-122017020D02*
X34015138Y-122034338D01*
X33931656Y-122048720D01*
X33912223Y-122054206D01*
X33915090Y-122096883D01*
X33935506Y-122195354D01*
X33954163Y-122270721D01*
X34016202Y-122444286D01*
X34096925Y-122544278D01*
X34205430Y-122581250D01*
X34222617Y-122581986D01*
X34314900Y-122602711D01*
X34352439Y-122626372D01*
X34407289Y-122648789D01*
X34424406Y-122640483D01*
X34447956Y-122570226D01*
X34451435Y-122446202D01*
X34436018Y-122296604D01*
X34404136Y-122153780D01*
X34354937Y-121989571D01*
X34139552Y-122017020D01*
G36*
X34800028Y-122143353D02*
X34815988Y-122238454D01*
X34858073Y-122298041D01*
X34948819Y-122346446D01*
X35010615Y-122370715D01*
X35158677Y-122435674D01*
X35295747Y-122510020D01*
X35334650Y-122535528D01*
X35473877Y-122610588D01*
X35591208Y-122611402D01*
X35707289Y-122536928D01*
X35729506Y-122515585D01*
X35843784Y-122431452D01*
X35969100Y-122379076D01*
X35974163Y-122377980D01*
X36108740Y-122350457D01*
X35970477Y-122170561D01*
X35832215Y-121990666D01*
X34786890Y-121990666D01*
X34800028Y-122143353D01*
X34800028Y-122143353D01*
G37*
X34800028Y-122143353D02*
X34815988Y-122238454D01*
X34858073Y-122298041D01*
X34948819Y-122346446D01*
X35010615Y-122370715D01*
X35158677Y-122435674D01*
X35295747Y-122510020D01*
X35334650Y-122535528D01*
X35473877Y-122610588D01*
X35591208Y-122611402D01*
X35707289Y-122536928D01*
X35729506Y-122515585D01*
X35843784Y-122431452D01*
X35969100Y-122379076D01*
X35974163Y-122377980D01*
X36108740Y-122350457D01*
X35970477Y-122170561D01*
X35832215Y-121990666D01*
X34786890Y-121990666D01*
X34800028Y-122143353D01*
G36*
X32460845Y-118331007D02*
X32245672Y-118370126D01*
X32075287Y-118480746D01*
X31952674Y-118660738D01*
X31933370Y-118706901D01*
X31890974Y-118842047D01*
X31887628Y-118948154D01*
X31912545Y-119046108D01*
X32024786Y-119265249D01*
X32202059Y-119433202D01*
X32364578Y-119521786D01*
X32551727Y-119603342D01*
X32669571Y-119655993D01*
X32726324Y-119684891D01*
X32730195Y-119695191D01*
X32689398Y-119692044D01*
X32619411Y-119681692D01*
X32497714Y-119659870D01*
X32406934Y-119637552D01*
X32397161Y-119634155D01*
X32349032Y-119643450D01*
X32336275Y-119710720D01*
X32333267Y-119788519D01*
X32325180Y-119936338D01*
X32312970Y-120139745D01*
X32297595Y-120384308D01*
X32280012Y-120655598D01*
X32261176Y-120939181D01*
X32242046Y-121220626D01*
X32223579Y-121485503D01*
X32206731Y-121719380D01*
X32192459Y-121907824D01*
X32182986Y-122022416D01*
X32171830Y-122170398D01*
X32167571Y-122278143D01*
X32170949Y-122325094D01*
X32172078Y-122325644D01*
X32216649Y-122308613D01*
X32316550Y-122267871D01*
X32434726Y-122218690D01*
X32599678Y-122155331D01*
X32804790Y-122084648D01*
X33008363Y-122020944D01*
X33027393Y-122015403D01*
X33373834Y-121915383D01*
X33373834Y-121439466D01*
X33374891Y-121228089D01*
X33381581Y-121084679D01*
X33399179Y-120992537D01*
X33432962Y-120934964D01*
X33488207Y-120895263D01*
X33555946Y-120863109D01*
X33539358Y-120828235D01*
X33506088Y-120774380D01*
X33247018Y-120774380D01*
X33241291Y-120846117D01*
X33224291Y-120893322D01*
X33200166Y-121003421D01*
X33188071Y-121176521D01*
X33189451Y-121391622D01*
X33189629Y-121396268D01*
X33204500Y-121779628D01*
X32823500Y-121901887D01*
X32654903Y-121955413D01*
X32517230Y-121998048D01*
X32430008Y-122023797D01*
X32410750Y-122028573D01*
X32395475Y-121992023D01*
X32384485Y-121891471D01*
X32379887Y-121747552D01*
X32379871Y-121726083D01*
X32383125Y-121598936D01*
X32391617Y-121419153D01*
X32404253Y-121201460D01*
X32419938Y-120960579D01*
X32437581Y-120711235D01*
X32456087Y-120468151D01*
X32474363Y-120246051D01*
X32491316Y-120059659D01*
X32505852Y-119923699D01*
X32516878Y-119852895D01*
X32519451Y-119846438D01*
X32567054Y-119843235D01*
X32661481Y-119856433D01*
X32667823Y-119857681D01*
X32750741Y-119886328D01*
X32815162Y-119946561D01*
X32879908Y-120058878D01*
X32908823Y-120120160D01*
X32995035Y-120295166D01*
X33094701Y-120478949D01*
X33145318Y-120564887D01*
X33217288Y-120690041D01*
X33247018Y-120774380D01*
X33506088Y-120774380D01*
X33484327Y-120739157D01*
X33400591Y-120611291D01*
X33342036Y-120524443D01*
X33072841Y-120061708D01*
X32863724Y-119549960D01*
X32758065Y-119186975D01*
X32691761Y-118963842D01*
X32618984Y-118813291D01*
X32530715Y-118723277D01*
X32417938Y-118681754D01*
X32376146Y-118676811D01*
X32308784Y-118655180D01*
X32294334Y-118632519D01*
X32329783Y-118612465D01*
X32417363Y-118616159D01*
X32528921Y-118640457D01*
X32603957Y-118667080D01*
X32650812Y-118678027D01*
X32670323Y-118645282D01*
X32669906Y-118551003D01*
X32667457Y-118514317D01*
X32654167Y-118328833D01*
X32460845Y-118331007D01*
X32460845Y-118331007D01*
G37*
X32460845Y-118331007D02*
X32245672Y-118370126D01*
X32075287Y-118480746D01*
X31952674Y-118660738D01*
X31933370Y-118706901D01*
X31890974Y-118842047D01*
X31887628Y-118948154D01*
X31912545Y-119046108D01*
X32024786Y-119265249D01*
X32202059Y-119433202D01*
X32364578Y-119521786D01*
X32551727Y-119603342D01*
X32669571Y-119655993D01*
X32726324Y-119684891D01*
X32730195Y-119695191D01*
X32689398Y-119692044D01*
X32619411Y-119681692D01*
X32497714Y-119659870D01*
X32406934Y-119637552D01*
X32397161Y-119634155D01*
X32349032Y-119643450D01*
X32336275Y-119710720D01*
X32333267Y-119788519D01*
X32325180Y-119936338D01*
X32312970Y-120139745D01*
X32297595Y-120384308D01*
X32280012Y-120655598D01*
X32261176Y-120939181D01*
X32242046Y-121220626D01*
X32223579Y-121485503D01*
X32206731Y-121719380D01*
X32192459Y-121907824D01*
X32182986Y-122022416D01*
X32171830Y-122170398D01*
X32167571Y-122278143D01*
X32170949Y-122325094D01*
X32172078Y-122325644D01*
X32216649Y-122308613D01*
X32316550Y-122267871D01*
X32434726Y-122218690D01*
X32599678Y-122155331D01*
X32804790Y-122084648D01*
X33008363Y-122020944D01*
X33027393Y-122015403D01*
X33373834Y-121915383D01*
X33373834Y-121439466D01*
X33374891Y-121228089D01*
X33381581Y-121084679D01*
X33399179Y-120992537D01*
X33432962Y-120934964D01*
X33488207Y-120895263D01*
X33555946Y-120863109D01*
X33539358Y-120828235D01*
X33506088Y-120774380D01*
X33247018Y-120774380D01*
X33241291Y-120846117D01*
X33224291Y-120893322D01*
X33200166Y-121003421D01*
X33188071Y-121176521D01*
X33189451Y-121391622D01*
X33189629Y-121396268D01*
X33204500Y-121779628D01*
X32823500Y-121901887D01*
X32654903Y-121955413D01*
X32517230Y-121998048D01*
X32430008Y-122023797D01*
X32410750Y-122028573D01*
X32395475Y-121992023D01*
X32384485Y-121891471D01*
X32379887Y-121747552D01*
X32379871Y-121726083D01*
X32383125Y-121598936D01*
X32391617Y-121419153D01*
X32404253Y-121201460D01*
X32419938Y-120960579D01*
X32437581Y-120711235D01*
X32456087Y-120468151D01*
X32474363Y-120246051D01*
X32491316Y-120059659D01*
X32505852Y-119923699D01*
X32516878Y-119852895D01*
X32519451Y-119846438D01*
X32567054Y-119843235D01*
X32661481Y-119856433D01*
X32667823Y-119857681D01*
X32750741Y-119886328D01*
X32815162Y-119946561D01*
X32879908Y-120058878D01*
X32908823Y-120120160D01*
X32995035Y-120295166D01*
X33094701Y-120478949D01*
X33145318Y-120564887D01*
X33217288Y-120690041D01*
X33247018Y-120774380D01*
X33506088Y-120774380D01*
X33484327Y-120739157D01*
X33400591Y-120611291D01*
X33342036Y-120524443D01*
X33072841Y-120061708D01*
X32863724Y-119549960D01*
X32758065Y-119186975D01*
X32691761Y-118963842D01*
X32618984Y-118813291D01*
X32530715Y-118723277D01*
X32417938Y-118681754D01*
X32376146Y-118676811D01*
X32308784Y-118655180D01*
X32294334Y-118632519D01*
X32329783Y-118612465D01*
X32417363Y-118616159D01*
X32528921Y-118640457D01*
X32603957Y-118667080D01*
X32650812Y-118678027D01*
X32670323Y-118645282D01*
X32669906Y-118551003D01*
X32667457Y-118514317D01*
X32654167Y-118328833D01*
X32460845Y-118331007D01*
G36*
X37760457Y-120698621D02*
X37625658Y-120754847D01*
X37616525Y-120759300D01*
X37491894Y-120826836D01*
X37442123Y-120871942D01*
X37457775Y-120897607D01*
X37590864Y-120929522D01*
X37712996Y-120914208D01*
X37792966Y-120856014D01*
X37796178Y-120850449D01*
X37841669Y-120744368D01*
X37831111Y-120694443D01*
X37760457Y-120698621D01*
X37760457Y-120698621D01*
G37*
X37760457Y-120698621D02*
X37625658Y-120754847D01*
X37616525Y-120759300D01*
X37491894Y-120826836D01*
X37442123Y-120871942D01*
X37457775Y-120897607D01*
X37590864Y-120929522D01*
X37712996Y-120914208D01*
X37792966Y-120856014D01*
X37796178Y-120850449D01*
X37841669Y-120744368D01*
X37831111Y-120694443D01*
X37760457Y-120698621D01*
G36*
X35369436Y-117800747D02*
X35356704Y-117813518D01*
X35359543Y-117861833D01*
X35396091Y-117915901D01*
X35485319Y-118055348D01*
X35531750Y-118212549D01*
X35528314Y-118331771D01*
X35493224Y-118417950D01*
X35455773Y-118421538D01*
X35421275Y-118344264D01*
X35415569Y-118318688D01*
X34991467Y-118318688D01*
X34969098Y-118488213D01*
X34964921Y-118503818D01*
X34936085Y-118653235D01*
X34920259Y-118823705D01*
X34919237Y-118868583D01*
X34903014Y-119030192D01*
X34849864Y-119137405D01*
X34834334Y-119154333D01*
X34737350Y-119225377D01*
X34648907Y-119222751D01*
X34551451Y-119144141D01*
X34524566Y-119113469D01*
X34413823Y-118922421D01*
X34384769Y-118713337D01*
X34438017Y-118492588D01*
X34459996Y-118444776D01*
X34556428Y-118297528D01*
X34673774Y-118185247D01*
X34793117Y-118122083D01*
X34892800Y-118121092D01*
X34965061Y-118191150D01*
X34991467Y-118318688D01*
X35415569Y-118318688D01*
X35409897Y-118293270D01*
X35338560Y-118128278D01*
X35204374Y-118005112D01*
X35072129Y-117951171D01*
X34937977Y-117955160D01*
X34768122Y-118012310D01*
X34583151Y-118112541D01*
X34403656Y-118245772D01*
X34328951Y-118315009D01*
X34217047Y-118416692D01*
X34146409Y-118459447D01*
X34122223Y-118442260D01*
X34149675Y-118364118D01*
X34157820Y-118348468D01*
X34183724Y-118271590D01*
X34153200Y-118205774D01*
X34113912Y-118164925D01*
X34019990Y-118074833D01*
X34049168Y-119048500D01*
X34061697Y-119444954D01*
X34074794Y-119766095D01*
X34091025Y-120021249D01*
X34112958Y-120219746D01*
X34143163Y-120370914D01*
X34184205Y-120484082D01*
X34238654Y-120568578D01*
X34309077Y-120633731D01*
X34398043Y-120688869D01*
X34508118Y-120743320D01*
X34516834Y-120747419D01*
X34580480Y-120776146D01*
X34642091Y-120798719D01*
X34712364Y-120815871D01*
X34801995Y-120828333D01*
X34921682Y-120836837D01*
X35082120Y-120842114D01*
X35294007Y-120844896D01*
X35568039Y-120845915D01*
X35914913Y-120845902D01*
X35956167Y-120845871D01*
X36319843Y-120845059D01*
X36609722Y-120842869D01*
X36836671Y-120838705D01*
X37011558Y-120831977D01*
X37145248Y-120822090D01*
X37248608Y-120808453D01*
X37332505Y-120790473D01*
X37407806Y-120767556D01*
X37410795Y-120766528D01*
X37627194Y-120666280D01*
X37777594Y-120542143D01*
X37847657Y-120419476D01*
X35978039Y-120419476D01*
X35968416Y-120430740D01*
X35853662Y-120463111D01*
X35704648Y-120454094D01*
X35559598Y-120406057D01*
X35558182Y-120405329D01*
X35466088Y-120341748D01*
X35360866Y-120246886D01*
X35263267Y-120142605D01*
X35194042Y-120050766D01*
X35173000Y-119999526D01*
X35192126Y-119958552D01*
X35236430Y-119979301D01*
X35286309Y-120051642D01*
X35290310Y-120060137D01*
X35399095Y-120208042D01*
X35561715Y-120323572D01*
X35748513Y-120388381D01*
X35833496Y-120396111D01*
X35940584Y-120402378D01*
X35978039Y-120419476D01*
X37847657Y-120419476D01*
X37857519Y-120402210D01*
X37862493Y-120254572D01*
X37788041Y-120107321D01*
X37780515Y-120098157D01*
X37671194Y-119968237D01*
X37672429Y-119965443D01*
X37522500Y-119965443D01*
X37514542Y-119983937D01*
X37448496Y-119984019D01*
X37348064Y-119969159D01*
X37236950Y-119942828D01*
X37141500Y-119909661D01*
X37121592Y-119891265D01*
X37182136Y-119889503D01*
X37268500Y-119897998D01*
X37399422Y-119920596D01*
X37495968Y-119949829D01*
X37522500Y-119965443D01*
X37672429Y-119965443D01*
X37755881Y-119776788D01*
X37814132Y-119609688D01*
X37855423Y-119428066D01*
X37861835Y-119380419D01*
X37883101Y-119175500D01*
X37815690Y-119355416D01*
X37767595Y-119463059D01*
X37723884Y-119527340D01*
X37709473Y-119535333D01*
X37683202Y-119524863D01*
X37673736Y-119483843D01*
X37681934Y-119397857D01*
X37708656Y-119252487D01*
X37733432Y-119133150D01*
X37772438Y-118938954D01*
X37789769Y-118806594D01*
X37785262Y-118743143D01*
X37306273Y-118743143D01*
X37293830Y-118893978D01*
X37257995Y-119074523D01*
X37204821Y-119261201D01*
X37140360Y-119430433D01*
X37070664Y-119558640D01*
X37047326Y-119588172D01*
X36942628Y-119655104D01*
X36833769Y-119639423D01*
X36770360Y-119588250D01*
X36749458Y-119549444D01*
X34269889Y-119549444D01*
X34264078Y-119574611D01*
X34241667Y-119577666D01*
X34206822Y-119562177D01*
X34213445Y-119549444D01*
X34263685Y-119544377D01*
X34269889Y-119549444D01*
X36749458Y-119549444D01*
X36691039Y-119440986D01*
X36690406Y-119434047D01*
X34507409Y-119434047D01*
X34438849Y-119432082D01*
X34389834Y-119424941D01*
X34265021Y-119397748D01*
X34170117Y-119365158D01*
X34157000Y-119358139D01*
X34145259Y-119337162D01*
X34213819Y-119339127D01*
X34262834Y-119346267D01*
X34387647Y-119373461D01*
X34482551Y-119406051D01*
X34495667Y-119413070D01*
X34507409Y-119434047D01*
X36690406Y-119434047D01*
X36674552Y-119260281D01*
X36716993Y-119064795D01*
X36814457Y-118873188D01*
X36953646Y-118712479D01*
X37086708Y-118606437D01*
X37182512Y-118567633D01*
X37252207Y-118593847D01*
X37289273Y-118645597D01*
X37306273Y-118743143D01*
X37785262Y-118743143D01*
X37783300Y-118715526D01*
X37750903Y-118645209D01*
X37690451Y-118575098D01*
X37673924Y-118558410D01*
X37527472Y-118457929D01*
X37365266Y-118437059D01*
X37182190Y-118495811D01*
X37073788Y-118560017D01*
X36968210Y-118622319D01*
X36894241Y-118649598D01*
X36872915Y-118643261D01*
X36888474Y-118570820D01*
X36966876Y-118490303D01*
X37088550Y-118413048D01*
X37233930Y-118350393D01*
X37383445Y-118313675D01*
X37450519Y-118308596D01*
X37592861Y-118328630D01*
X37715103Y-118372253D01*
X37807580Y-118408151D01*
X37839996Y-118390340D01*
X37840000Y-118389785D01*
X37828809Y-118309271D01*
X37800211Y-118188657D01*
X37761674Y-118052671D01*
X37720664Y-117926041D01*
X37684648Y-117833494D01*
X37661814Y-117799666D01*
X37628887Y-117831681D01*
X37628334Y-117838751D01*
X37595133Y-117915793D01*
X37508643Y-118016998D01*
X37388535Y-118123573D01*
X37254478Y-118216721D01*
X37202985Y-118245188D01*
X37044630Y-118312554D01*
X36879144Y-118363870D01*
X36816916Y-118376743D01*
X36667317Y-118418350D01*
X36529825Y-118484656D01*
X36506500Y-118500641D01*
X36372957Y-118583658D01*
X36201044Y-118667865D01*
X36018369Y-118742066D01*
X35852537Y-118795064D01*
X35731154Y-118815661D01*
X35729793Y-118815666D01*
X35617962Y-118801158D01*
X35560252Y-118749670D01*
X35552242Y-118649257D01*
X35589513Y-118487972D01*
X35598115Y-118459784D01*
X35675942Y-118209736D01*
X35544611Y-118015284D01*
X35460552Y-117891047D01*
X35411790Y-117822955D01*
X35385645Y-117797394D01*
X35369436Y-117800747D01*
X35369436Y-117800747D01*
G37*
X35369436Y-117800747D02*
X35356704Y-117813518D01*
X35359543Y-117861833D01*
X35396091Y-117915901D01*
X35485319Y-118055348D01*
X35531750Y-118212549D01*
X35528314Y-118331771D01*
X35493224Y-118417950D01*
X35455773Y-118421538D01*
X35421275Y-118344264D01*
X35415569Y-118318688D01*
X34991467Y-118318688D01*
X34969098Y-118488213D01*
X34964921Y-118503818D01*
X34936085Y-118653235D01*
X34920259Y-118823705D01*
X34919237Y-118868583D01*
X34903014Y-119030192D01*
X34849864Y-119137405D01*
X34834334Y-119154333D01*
X34737350Y-119225377D01*
X34648907Y-119222751D01*
X34551451Y-119144141D01*
X34524566Y-119113469D01*
X34413823Y-118922421D01*
X34384769Y-118713337D01*
X34438017Y-118492588D01*
X34459996Y-118444776D01*
X34556428Y-118297528D01*
X34673774Y-118185247D01*
X34793117Y-118122083D01*
X34892800Y-118121092D01*
X34965061Y-118191150D01*
X34991467Y-118318688D01*
X35415569Y-118318688D01*
X35409897Y-118293270D01*
X35338560Y-118128278D01*
X35204374Y-118005112D01*
X35072129Y-117951171D01*
X34937977Y-117955160D01*
X34768122Y-118012310D01*
X34583151Y-118112541D01*
X34403656Y-118245772D01*
X34328951Y-118315009D01*
X34217047Y-118416692D01*
X34146409Y-118459447D01*
X34122223Y-118442260D01*
X34149675Y-118364118D01*
X34157820Y-118348468D01*
X34183724Y-118271590D01*
X34153200Y-118205774D01*
X34113912Y-118164925D01*
X34019990Y-118074833D01*
X34049168Y-119048500D01*
X34061697Y-119444954D01*
X34074794Y-119766095D01*
X34091025Y-120021249D01*
X34112958Y-120219746D01*
X34143163Y-120370914D01*
X34184205Y-120484082D01*
X34238654Y-120568578D01*
X34309077Y-120633731D01*
X34398043Y-120688869D01*
X34508118Y-120743320D01*
X34516834Y-120747419D01*
X34580480Y-120776146D01*
X34642091Y-120798719D01*
X34712364Y-120815871D01*
X34801995Y-120828333D01*
X34921682Y-120836837D01*
X35082120Y-120842114D01*
X35294007Y-120844896D01*
X35568039Y-120845915D01*
X35914913Y-120845902D01*
X35956167Y-120845871D01*
X36319843Y-120845059D01*
X36609722Y-120842869D01*
X36836671Y-120838705D01*
X37011558Y-120831977D01*
X37145248Y-120822090D01*
X37248608Y-120808453D01*
X37332505Y-120790473D01*
X37407806Y-120767556D01*
X37410795Y-120766528D01*
X37627194Y-120666280D01*
X37777594Y-120542143D01*
X37847657Y-120419476D01*
X35978039Y-120419476D01*
X35968416Y-120430740D01*
X35853662Y-120463111D01*
X35704648Y-120454094D01*
X35559598Y-120406057D01*
X35558182Y-120405329D01*
X35466088Y-120341748D01*
X35360866Y-120246886D01*
X35263267Y-120142605D01*
X35194042Y-120050766D01*
X35173000Y-119999526D01*
X35192126Y-119958552D01*
X35236430Y-119979301D01*
X35286309Y-120051642D01*
X35290310Y-120060137D01*
X35399095Y-120208042D01*
X35561715Y-120323572D01*
X35748513Y-120388381D01*
X35833496Y-120396111D01*
X35940584Y-120402378D01*
X35978039Y-120419476D01*
X37847657Y-120419476D01*
X37857519Y-120402210D01*
X37862493Y-120254572D01*
X37788041Y-120107321D01*
X37780515Y-120098157D01*
X37671194Y-119968237D01*
X37672429Y-119965443D01*
X37522500Y-119965443D01*
X37514542Y-119983937D01*
X37448496Y-119984019D01*
X37348064Y-119969159D01*
X37236950Y-119942828D01*
X37141500Y-119909661D01*
X37121592Y-119891265D01*
X37182136Y-119889503D01*
X37268500Y-119897998D01*
X37399422Y-119920596D01*
X37495968Y-119949829D01*
X37522500Y-119965443D01*
X37672429Y-119965443D01*
X37755881Y-119776788D01*
X37814132Y-119609688D01*
X37855423Y-119428066D01*
X37861835Y-119380419D01*
X37883101Y-119175500D01*
X37815690Y-119355416D01*
X37767595Y-119463059D01*
X37723884Y-119527340D01*
X37709473Y-119535333D01*
X37683202Y-119524863D01*
X37673736Y-119483843D01*
X37681934Y-119397857D01*
X37708656Y-119252487D01*
X37733432Y-119133150D01*
X37772438Y-118938954D01*
X37789769Y-118806594D01*
X37785262Y-118743143D01*
X37306273Y-118743143D01*
X37293830Y-118893978D01*
X37257995Y-119074523D01*
X37204821Y-119261201D01*
X37140360Y-119430433D01*
X37070664Y-119558640D01*
X37047326Y-119588172D01*
X36942628Y-119655104D01*
X36833769Y-119639423D01*
X36770360Y-119588250D01*
X36749458Y-119549444D01*
X34269889Y-119549444D01*
X34264078Y-119574611D01*
X34241667Y-119577666D01*
X34206822Y-119562177D01*
X34213445Y-119549444D01*
X34263685Y-119544377D01*
X34269889Y-119549444D01*
X36749458Y-119549444D01*
X36691039Y-119440986D01*
X36690406Y-119434047D01*
X34507409Y-119434047D01*
X34438849Y-119432082D01*
X34389834Y-119424941D01*
X34265021Y-119397748D01*
X34170117Y-119365158D01*
X34157000Y-119358139D01*
X34145259Y-119337162D01*
X34213819Y-119339127D01*
X34262834Y-119346267D01*
X34387647Y-119373461D01*
X34482551Y-119406051D01*
X34495667Y-119413070D01*
X34507409Y-119434047D01*
X36690406Y-119434047D01*
X36674552Y-119260281D01*
X36716993Y-119064795D01*
X36814457Y-118873188D01*
X36953646Y-118712479D01*
X37086708Y-118606437D01*
X37182512Y-118567633D01*
X37252207Y-118593847D01*
X37289273Y-118645597D01*
X37306273Y-118743143D01*
X37785262Y-118743143D01*
X37783300Y-118715526D01*
X37750903Y-118645209D01*
X37690451Y-118575098D01*
X37673924Y-118558410D01*
X37527472Y-118457929D01*
X37365266Y-118437059D01*
X37182190Y-118495811D01*
X37073788Y-118560017D01*
X36968210Y-118622319D01*
X36894241Y-118649598D01*
X36872915Y-118643261D01*
X36888474Y-118570820D01*
X36966876Y-118490303D01*
X37088550Y-118413048D01*
X37233930Y-118350393D01*
X37383445Y-118313675D01*
X37450519Y-118308596D01*
X37592861Y-118328630D01*
X37715103Y-118372253D01*
X37807580Y-118408151D01*
X37839996Y-118390340D01*
X37840000Y-118389785D01*
X37828809Y-118309271D01*
X37800211Y-118188657D01*
X37761674Y-118052671D01*
X37720664Y-117926041D01*
X37684648Y-117833494D01*
X37661814Y-117799666D01*
X37628887Y-117831681D01*
X37628334Y-117838751D01*
X37595133Y-117915793D01*
X37508643Y-118016998D01*
X37388535Y-118123573D01*
X37254478Y-118216721D01*
X37202985Y-118245188D01*
X37044630Y-118312554D01*
X36879144Y-118363870D01*
X36816916Y-118376743D01*
X36667317Y-118418350D01*
X36529825Y-118484656D01*
X36506500Y-118500641D01*
X36372957Y-118583658D01*
X36201044Y-118667865D01*
X36018369Y-118742066D01*
X35852537Y-118795064D01*
X35731154Y-118815661D01*
X35729793Y-118815666D01*
X35617962Y-118801158D01*
X35560252Y-118749670D01*
X35552242Y-118649257D01*
X35589513Y-118487972D01*
X35598115Y-118459784D01*
X35675942Y-118209736D01*
X35544611Y-118015284D01*
X35460552Y-117891047D01*
X35411790Y-117822955D01*
X35385645Y-117797394D01*
X35369436Y-117800747D01*
G36*
X34157000Y-120674870D02*
X34187497Y-120787093D01*
X34279222Y-120840905D01*
X34341446Y-120846144D01*
X34474500Y-120844621D01*
X34347500Y-120740521D01*
X34235919Y-120658907D01*
X34174251Y-120639596D01*
X34157000Y-120674870D01*
X34157000Y-120674870D01*
G37*
X34157000Y-120674870D02*
X34187497Y-120787093D01*
X34279222Y-120840905D01*
X34341446Y-120846144D01*
X34474500Y-120844621D01*
X34347500Y-120740521D01*
X34235919Y-120658907D01*
X34174251Y-120639596D01*
X34157000Y-120674870D01*
G36*
X37896454Y-119776322D02*
X37855674Y-119846918D01*
X37816889Y-119953802D01*
X37830581Y-120008514D01*
X37875703Y-120014979D01*
X37897879Y-119979216D01*
X37919628Y-119878222D01*
X37922972Y-119817620D01*
X37917479Y-119763708D01*
X37896454Y-119776322D01*
X37896454Y-119776322D01*
G37*
X37896454Y-119776322D02*
X37855674Y-119846918D01*
X37816889Y-119953802D01*
X37830581Y-120008514D01*
X37875703Y-120014979D01*
X37897879Y-119979216D01*
X37919628Y-119878222D01*
X37922972Y-119817620D01*
X37917479Y-119763708D01*
X37896454Y-119776322D01*
G36*
X37501382Y-117492748D02*
X37425052Y-117576316D01*
X37331893Y-117694187D01*
X37324305Y-117704416D01*
X37202998Y-117861851D01*
X37071354Y-118022312D01*
X36978912Y-118127750D01*
X36892920Y-118223815D01*
X36839245Y-118289080D01*
X36829192Y-118307633D01*
X36872616Y-118290894D01*
X36970962Y-118247074D01*
X37100988Y-118186575D01*
X37340739Y-118046635D01*
X37498645Y-117891561D01*
X37576513Y-117719267D01*
X37586000Y-117627085D01*
X37576741Y-117522250D01*
X37553660Y-117464751D01*
X37545003Y-117461000D01*
X37501382Y-117492748D01*
X37501382Y-117492748D01*
G37*
X37501382Y-117492748D02*
X37425052Y-117576316D01*
X37331893Y-117694187D01*
X37324305Y-117704416D01*
X37202998Y-117861851D01*
X37071354Y-118022312D01*
X36978912Y-118127750D01*
X36892920Y-118223815D01*
X36839245Y-118289080D01*
X36829192Y-118307633D01*
X36872616Y-118290894D01*
X36970962Y-118247074D01*
X37100988Y-118186575D01*
X37340739Y-118046635D01*
X37498645Y-117891561D01*
X37576513Y-117719267D01*
X37586000Y-117627085D01*
X37576741Y-117522250D01*
X37553660Y-117464751D01*
X37545003Y-117461000D01*
X37501382Y-117492748D01*
G36*
X34206478Y-118075199D02*
X34199334Y-118093501D01*
X34227344Y-118148781D01*
X34281638Y-118162019D01*
X34299263Y-118151293D01*
X34325015Y-118089841D01*
X34279704Y-118054895D01*
X34262834Y-118053666D01*
X34206478Y-118075199D01*
X34206478Y-118075199D01*
G37*
X34206478Y-118075199D02*
X34199334Y-118093501D01*
X34227344Y-118148781D01*
X34281638Y-118162019D01*
X34299263Y-118151293D01*
X34325015Y-118089841D01*
X34279704Y-118054895D01*
X34262834Y-118053666D01*
X34206478Y-118075199D01*
G36*
X35984264Y-117541177D02*
X35899130Y-117572930D01*
X35774416Y-117629418D01*
X35765243Y-117633845D01*
X35505295Y-117759766D01*
X35582952Y-117892734D01*
X35645168Y-117984550D01*
X35696819Y-118036868D01*
X35702555Y-118039575D01*
X35742267Y-118012413D01*
X35804846Y-117927851D01*
X35871500Y-117813691D01*
X35939389Y-117684385D01*
X35990393Y-117585118D01*
X36011846Y-117540929D01*
X35984264Y-117541177D01*
X35984264Y-117541177D01*
G37*
X35984264Y-117541177D02*
X35899130Y-117572930D01*
X35774416Y-117629418D01*
X35765243Y-117633845D01*
X35505295Y-117759766D01*
X35582952Y-117892734D01*
X35645168Y-117984550D01*
X35696819Y-118036868D01*
X35702555Y-118039575D01*
X35742267Y-118012413D01*
X35804846Y-117927851D01*
X35871500Y-117813691D01*
X35939389Y-117684385D01*
X35990393Y-117585118D01*
X36011846Y-117540929D01*
X35984264Y-117541177D01*
G36*
X33135024Y-114813726D02*
X32985927Y-114878223D01*
X32693933Y-115065552D01*
X32444042Y-115308025D01*
X32246005Y-115590789D01*
X32109573Y-115898994D01*
X32044496Y-116217788D01*
X32040334Y-116318467D01*
X32061524Y-116484003D01*
X32117426Y-116630811D01*
X32196538Y-116743770D01*
X32287360Y-116807761D01*
X32378389Y-116807662D01*
X32402200Y-116794196D01*
X32446485Y-116742075D01*
X32514190Y-116640864D01*
X32568306Y-116550833D01*
X32865703Y-116117169D01*
X33229275Y-115730439D01*
X33648585Y-115401530D01*
X33705778Y-115364141D01*
X33832201Y-115247194D01*
X33876813Y-115112026D01*
X33838629Y-114961667D01*
X33837330Y-114959135D01*
X33727014Y-114830614D01*
X33566657Y-114762917D01*
X33366060Y-114756978D01*
X33135024Y-114813726D01*
X33135024Y-114813726D01*
G37*
X33135024Y-114813726D02*
X32985927Y-114878223D01*
X32693933Y-115065552D01*
X32444042Y-115308025D01*
X32246005Y-115590789D01*
X32109573Y-115898994D01*
X32044496Y-116217788D01*
X32040334Y-116318467D01*
X32061524Y-116484003D01*
X32117426Y-116630811D01*
X32196538Y-116743770D01*
X32287360Y-116807761D01*
X32378389Y-116807662D01*
X32402200Y-116794196D01*
X32446485Y-116742075D01*
X32514190Y-116640864D01*
X32568306Y-116550833D01*
X32865703Y-116117169D01*
X33229275Y-115730439D01*
X33648585Y-115401530D01*
X33705778Y-115364141D01*
X33832201Y-115247194D01*
X33876813Y-115112026D01*
X33838629Y-114961667D01*
X33837330Y-114959135D01*
X33727014Y-114830614D01*
X33566657Y-114762917D01*
X33366060Y-114756978D01*
X33135024Y-114813726D01*
G36*
X38175714Y-115447348D02*
X38172317Y-115487316D01*
X38166014Y-115583628D01*
X38161734Y-115632730D01*
X38185518Y-115679979D01*
X38251772Y-115769405D01*
X38337417Y-115871524D01*
X38436617Y-115978196D01*
X38493481Y-116022272D01*
X38516045Y-116009203D01*
X38517334Y-115993605D01*
X38496481Y-115902196D01*
X38443671Y-115769958D01*
X38373526Y-115626760D01*
X38300669Y-115502474D01*
X38240115Y-115427296D01*
X38194676Y-115403925D01*
X38175714Y-115447348D01*
X38175714Y-115447348D01*
G37*
X38175714Y-115447348D02*
X38172317Y-115487316D01*
X38166014Y-115583628D01*
X38161734Y-115632730D01*
X38185518Y-115679979D01*
X38251772Y-115769405D01*
X38337417Y-115871524D01*
X38436617Y-115978196D01*
X38493481Y-116022272D01*
X38516045Y-116009203D01*
X38517334Y-115993605D01*
X38496481Y-115902196D01*
X38443671Y-115769958D01*
X38373526Y-115626760D01*
X38300669Y-115502474D01*
X38240115Y-115427296D01*
X38194676Y-115403925D01*
X38175714Y-115447348D01*
G36*
X36940181Y-118980127D02*
X36891276Y-119073181D01*
X36866995Y-119192839D01*
X36866334Y-119215050D01*
X36884264Y-119299206D01*
X36925882Y-119325141D01*
X36965826Y-119291594D01*
X36995872Y-119212800D01*
X37015255Y-119108576D01*
X37020939Y-119010339D01*
X37009890Y-118949505D01*
X36999535Y-118942666D01*
X36940181Y-118980127D01*
X36940181Y-118980127D01*
G37*
X36940181Y-118980127D02*
X36891276Y-119073181D01*
X36866995Y-119192839D01*
X36866334Y-119215050D01*
X36884264Y-119299206D01*
X36925882Y-119325141D01*
X36965826Y-119291594D01*
X36995872Y-119212800D01*
X37015255Y-119108576D01*
X37020939Y-119010339D01*
X37009890Y-118949505D01*
X36999535Y-118942666D01*
X36940181Y-118980127D01*
G36*
X34658993Y-118505458D02*
X34625311Y-118593300D01*
X34610533Y-118708031D01*
X34622138Y-118804913D01*
X34664283Y-118851173D01*
X34720563Y-118830659D01*
X34743961Y-118765065D01*
X34748724Y-118661376D01*
X34736471Y-118559466D01*
X34708825Y-118499206D01*
X34707035Y-118497981D01*
X34658993Y-118505458D01*
X34658993Y-118505458D01*
G37*
X34658993Y-118505458D02*
X34625311Y-118593300D01*
X34610533Y-118708031D01*
X34622138Y-118804913D01*
X34664283Y-118851173D01*
X34720563Y-118830659D01*
X34743961Y-118765065D01*
X34748724Y-118661376D01*
X34736471Y-118559466D01*
X34708825Y-118499206D01*
X34707035Y-118497981D01*
X34658993Y-118505458D01*
D11*
X48910343Y-135462643D02*
X48957962Y-135415024D01*
X49005581Y-135272167D01*
X49005581Y-135176929D01*
X48957962Y-135034071D01*
X48862724Y-134938833D01*
X48767486Y-134891214D01*
X48577010Y-134843595D01*
X48434152Y-134843595D01*
X48243676Y-134891214D01*
X48148438Y-134938833D01*
X48053200Y-135034071D01*
X48005581Y-135176929D01*
X48005581Y-135272167D01*
X48053200Y-135415024D01*
X48100819Y-135462643D01*
X48005581Y-136367405D02*
X48005581Y-135891214D01*
X48481771Y-135843595D01*
X48434152Y-135891214D01*
X48386533Y-135986452D01*
X48386533Y-136224548D01*
X48434152Y-136319786D01*
X48481771Y-136367405D01*
X48577010Y-136415024D01*
X48815105Y-136415024D01*
X48910343Y-136367405D01*
X48957962Y-136319786D01*
X49005581Y-136224548D01*
X49005581Y-135986452D01*
X48957962Y-135891214D01*
X48910343Y-135843595D01*
X49005581Y-137367405D02*
X49005581Y-136795976D01*
X49005581Y-137081690D02*
X48005581Y-137081690D01*
X48148438Y-136986452D01*
X48243676Y-136891214D01*
X48291295Y-136795976D01*
X45642857Y-140557143D02*
X45690476Y-140604762D01*
X45833333Y-140652381D01*
X45928571Y-140652381D01*
X46071429Y-140604762D01*
X46166667Y-140509524D01*
X46214286Y-140414286D01*
X46261905Y-140223810D01*
X46261905Y-140080952D01*
X46214286Y-139890476D01*
X46166667Y-139795238D01*
X46071429Y-139700000D01*
X45928571Y-139652381D01*
X45833333Y-139652381D01*
X45690476Y-139700000D01*
X45642857Y-139747619D01*
X44738095Y-139652381D02*
X45214286Y-139652381D01*
X45261905Y-140128571D01*
X45214286Y-140080952D01*
X45119048Y-140033333D01*
X44880952Y-140033333D01*
X44785714Y-140080952D01*
X44738095Y-140128571D01*
X44690476Y-140223810D01*
X44690476Y-140461905D01*
X44738095Y-140557143D01*
X44785714Y-140604762D01*
X44880952Y-140652381D01*
X45119048Y-140652381D01*
X45214286Y-140604762D01*
X45261905Y-140557143D01*
X44071429Y-139652381D02*
X43976190Y-139652381D01*
X43880952Y-139700000D01*
X43833333Y-139747619D01*
X43785714Y-139842857D01*
X43738095Y-140033333D01*
X43738095Y-140271429D01*
X43785714Y-140461905D01*
X43833333Y-140557143D01*
X43880952Y-140604762D01*
X43976190Y-140652381D01*
X44071429Y-140652381D01*
X44166667Y-140604762D01*
X44214286Y-140557143D01*
X44261905Y-140461905D01*
X44309524Y-140271429D01*
X44309524Y-140033333D01*
X44261905Y-139842857D01*
X44214286Y-139747619D01*
X44166667Y-139700000D01*
X44071429Y-139652381D01*
X94542857Y-123502381D02*
X94876191Y-123026190D01*
X95114286Y-123502381D02*
X95114286Y-122502381D01*
X94733333Y-122502381D01*
X94638095Y-122550000D01*
X94590476Y-122597619D01*
X94542857Y-122692857D01*
X94542857Y-122835714D01*
X94590476Y-122930952D01*
X94638095Y-122978571D01*
X94733333Y-123026190D01*
X95114286Y-123026190D01*
X93590476Y-123502381D02*
X94161905Y-123502381D01*
X93876191Y-123502381D02*
X93876191Y-122502381D01*
X93971429Y-122645238D01*
X94066667Y-122740476D01*
X94161905Y-122788095D01*
X93209524Y-122597619D02*
X93161905Y-122550000D01*
X93066667Y-122502381D01*
X92828571Y-122502381D01*
X92733333Y-122550000D01*
X92685714Y-122597619D01*
X92638095Y-122692857D01*
X92638095Y-122788095D01*
X92685714Y-122930952D01*
X93257143Y-123502381D01*
X92638095Y-123502381D01*
X34817857Y-112277381D02*
X35151191Y-111801190D01*
X35389286Y-112277381D02*
X35389286Y-111277381D01*
X35008333Y-111277381D01*
X34913095Y-111325000D01*
X34865476Y-111372619D01*
X34817857Y-111467857D01*
X34817857Y-111610714D01*
X34865476Y-111705952D01*
X34913095Y-111753571D01*
X35008333Y-111801190D01*
X35389286Y-111801190D01*
X33865476Y-112277381D02*
X34436905Y-112277381D01*
X34151191Y-112277381D02*
X34151191Y-111277381D01*
X34246429Y-111420238D01*
X34341667Y-111515476D01*
X34436905Y-111563095D01*
X32913095Y-112277381D02*
X33484524Y-112277381D01*
X33198810Y-112277381D02*
X33198810Y-111277381D01*
X33294048Y-111420238D01*
X33389286Y-111515476D01*
X33484524Y-111563095D01*
X47502857Y-115042381D02*
X47836191Y-114566190D01*
X48074286Y-115042381D02*
X48074286Y-114042381D01*
X47693333Y-114042381D01*
X47598095Y-114090000D01*
X47550476Y-114137619D01*
X47502857Y-114232857D01*
X47502857Y-114375714D01*
X47550476Y-114470952D01*
X47598095Y-114518571D01*
X47693333Y-114566190D01*
X48074286Y-114566190D01*
X46550476Y-115042381D02*
X47121905Y-115042381D01*
X46836191Y-115042381D02*
X46836191Y-114042381D01*
X46931429Y-114185238D01*
X47026667Y-114280476D01*
X47121905Y-114328095D01*
X45931429Y-114042381D02*
X45836190Y-114042381D01*
X45740952Y-114090000D01*
X45693333Y-114137619D01*
X45645714Y-114232857D01*
X45598095Y-114423333D01*
X45598095Y-114661429D01*
X45645714Y-114851905D01*
X45693333Y-114947143D01*
X45740952Y-114994762D01*
X45836190Y-115042381D01*
X45931429Y-115042381D01*
X46026667Y-114994762D01*
X46074286Y-114947143D01*
X46121905Y-114851905D01*
X46169524Y-114661429D01*
X46169524Y-114423333D01*
X46121905Y-114232857D01*
X46074286Y-114137619D01*
X46026667Y-114090000D01*
X45931429Y-114042381D01*
X75292857Y-97877381D02*
X75626191Y-97401190D01*
X75864286Y-97877381D02*
X75864286Y-96877381D01*
X75483333Y-96877381D01*
X75388095Y-96925000D01*
X75340476Y-96972619D01*
X75292857Y-97067857D01*
X75292857Y-97210714D01*
X75340476Y-97305952D01*
X75388095Y-97353571D01*
X75483333Y-97401190D01*
X75864286Y-97401190D01*
X74340476Y-97877381D02*
X74911905Y-97877381D01*
X74626191Y-97877381D02*
X74626191Y-96877381D01*
X74721429Y-97020238D01*
X74816667Y-97115476D01*
X74911905Y-97163095D01*
X74007143Y-96877381D02*
X73340476Y-96877381D01*
X73769048Y-97877381D01*
X98492857Y-126377381D02*
X98826191Y-125901190D01*
X99064286Y-126377381D02*
X99064286Y-125377381D01*
X98683333Y-125377381D01*
X98588095Y-125425000D01*
X98540476Y-125472619D01*
X98492857Y-125567857D01*
X98492857Y-125710714D01*
X98540476Y-125805952D01*
X98588095Y-125853571D01*
X98683333Y-125901190D01*
X99064286Y-125901190D01*
X97540476Y-126377381D02*
X98111905Y-126377381D01*
X97826191Y-126377381D02*
X97826191Y-125377381D01*
X97921429Y-125520238D01*
X98016667Y-125615476D01*
X98111905Y-125663095D01*
X97207143Y-125377381D02*
X96588095Y-125377381D01*
X96921429Y-125758333D01*
X96778571Y-125758333D01*
X96683333Y-125805952D01*
X96635714Y-125853571D01*
X96588095Y-125948810D01*
X96588095Y-126186905D01*
X96635714Y-126282143D01*
X96683333Y-126329762D01*
X96778571Y-126377381D01*
X97064286Y-126377381D01*
X97159524Y-126329762D01*
X97207143Y-126282143D01*
X118107143Y-109957143D02*
X118154762Y-109909524D01*
X118202381Y-109766667D01*
X118202381Y-109671429D01*
X118154762Y-109528571D01*
X118059524Y-109433333D01*
X117964286Y-109385714D01*
X117773810Y-109338095D01*
X117630952Y-109338095D01*
X117440476Y-109385714D01*
X117345238Y-109433333D01*
X117250000Y-109528571D01*
X117202381Y-109671429D01*
X117202381Y-109766667D01*
X117250000Y-109909524D01*
X117297619Y-109957143D01*
X117297619Y-110338095D02*
X117250000Y-110385714D01*
X117202381Y-110480952D01*
X117202381Y-110719048D01*
X117250000Y-110814286D01*
X117297619Y-110861905D01*
X117392857Y-110909524D01*
X117488095Y-110909524D01*
X117630952Y-110861905D01*
X118202381Y-110290476D01*
X118202381Y-110909524D01*
X118202381Y-111861905D02*
X118202381Y-111290476D01*
X118202381Y-111576190D02*
X117202381Y-111576190D01*
X117345238Y-111480952D01*
X117440476Y-111385714D01*
X117488095Y-111290476D01*
X81182143Y-110357143D02*
X81229762Y-110309524D01*
X81277381Y-110166667D01*
X81277381Y-110071429D01*
X81229762Y-109928571D01*
X81134524Y-109833333D01*
X81039286Y-109785714D01*
X80848810Y-109738095D01*
X80705952Y-109738095D01*
X80515476Y-109785714D01*
X80420238Y-109833333D01*
X80325000Y-109928571D01*
X80277381Y-110071429D01*
X80277381Y-110166667D01*
X80325000Y-110309524D01*
X80372619Y-110357143D01*
X81277381Y-111309524D02*
X81277381Y-110738095D01*
X81277381Y-111023809D02*
X80277381Y-111023809D01*
X80420238Y-110928571D01*
X80515476Y-110833333D01*
X80563095Y-110738095D01*
X80705952Y-111880952D02*
X80658333Y-111785714D01*
X80610714Y-111738095D01*
X80515476Y-111690476D01*
X80467857Y-111690476D01*
X80372619Y-111738095D01*
X80325000Y-111785714D01*
X80277381Y-111880952D01*
X80277381Y-112071429D01*
X80325000Y-112166667D01*
X80372619Y-112214286D01*
X80467857Y-112261905D01*
X80515476Y-112261905D01*
X80610714Y-112214286D01*
X80658333Y-112166667D01*
X80705952Y-112071429D01*
X80705952Y-111880952D01*
X80753571Y-111785714D01*
X80801190Y-111738095D01*
X80896429Y-111690476D01*
X81086905Y-111690476D01*
X81182143Y-111738095D01*
X81229762Y-111785714D01*
X81277381Y-111880952D01*
X81277381Y-112071429D01*
X81229762Y-112166667D01*
X81182143Y-112214286D01*
X81086905Y-112261905D01*
X80896429Y-112261905D01*
X80801190Y-112214286D01*
X80753571Y-112166667D01*
X80705952Y-112071429D01*
X33867857Y-100432143D02*
X33915476Y-100479762D01*
X34058333Y-100527381D01*
X34153571Y-100527381D01*
X34296429Y-100479762D01*
X34391667Y-100384524D01*
X34439286Y-100289286D01*
X34486905Y-100098810D01*
X34486905Y-99955952D01*
X34439286Y-99765476D01*
X34391667Y-99670238D01*
X34296429Y-99575000D01*
X34153571Y-99527381D01*
X34058333Y-99527381D01*
X33915476Y-99575000D01*
X33867857Y-99622619D01*
X33010714Y-99860714D02*
X33010714Y-100527381D01*
X33248810Y-99479762D02*
X33486905Y-100194048D01*
X32867857Y-100194048D01*
X32439286Y-100527381D02*
X32248810Y-100527381D01*
X32153571Y-100479762D01*
X32105952Y-100432143D01*
X32010714Y-100289286D01*
X31963095Y-100098810D01*
X31963095Y-99717857D01*
X32010714Y-99622619D01*
X32058333Y-99575000D01*
X32153571Y-99527381D01*
X32344048Y-99527381D01*
X32439286Y-99575000D01*
X32486905Y-99622619D01*
X32534524Y-99717857D01*
X32534524Y-99955952D01*
X32486905Y-100051190D01*
X32439286Y-100098810D01*
X32344048Y-100146429D01*
X32153571Y-100146429D01*
X32058333Y-100098810D01*
X32010714Y-100051190D01*
X31963095Y-99955952D01*
X60067857Y-131657143D02*
X60115476Y-131704762D01*
X60258333Y-131752381D01*
X60353571Y-131752381D01*
X60496429Y-131704762D01*
X60591667Y-131609524D01*
X60639286Y-131514286D01*
X60686905Y-131323810D01*
X60686905Y-131180952D01*
X60639286Y-130990476D01*
X60591667Y-130895238D01*
X60496429Y-130800000D01*
X60353571Y-130752381D01*
X60258333Y-130752381D01*
X60115476Y-130800000D01*
X60067857Y-130847619D01*
X59686905Y-130847619D02*
X59639286Y-130800000D01*
X59544048Y-130752381D01*
X59305952Y-130752381D01*
X59210714Y-130800000D01*
X59163095Y-130847619D01*
X59115476Y-130942857D01*
X59115476Y-131038095D01*
X59163095Y-131180952D01*
X59734524Y-131752381D01*
X59115476Y-131752381D01*
X58639286Y-131752381D02*
X58448810Y-131752381D01*
X58353571Y-131704762D01*
X58305952Y-131657143D01*
X58210714Y-131514286D01*
X58163095Y-131323810D01*
X58163095Y-130942857D01*
X58210714Y-130847619D01*
X58258333Y-130800000D01*
X58353571Y-130752381D01*
X58544048Y-130752381D01*
X58639286Y-130800000D01*
X58686905Y-130847619D01*
X58734524Y-130942857D01*
X58734524Y-131180952D01*
X58686905Y-131276190D01*
X58639286Y-131323810D01*
X58544048Y-131371429D01*
X58353571Y-131371429D01*
X58258333Y-131323810D01*
X58210714Y-131276190D01*
X58163095Y-131180952D01*
X103882143Y-125532143D02*
X103929762Y-125484524D01*
X103977381Y-125341667D01*
X103977381Y-125246429D01*
X103929762Y-125103571D01*
X103834524Y-125008333D01*
X103739286Y-124960714D01*
X103548810Y-124913095D01*
X103405952Y-124913095D01*
X103215476Y-124960714D01*
X103120238Y-125008333D01*
X103025000Y-125103571D01*
X102977381Y-125246429D01*
X102977381Y-125341667D01*
X103025000Y-125484524D01*
X103072619Y-125532143D01*
X103977381Y-126484524D02*
X103977381Y-125913095D01*
X103977381Y-126198809D02*
X102977381Y-126198809D01*
X103120238Y-126103571D01*
X103215476Y-126008333D01*
X103263095Y-125913095D01*
X103977381Y-126960714D02*
X103977381Y-127151190D01*
X103929762Y-127246429D01*
X103882143Y-127294048D01*
X103739286Y-127389286D01*
X103548810Y-127436905D01*
X103167857Y-127436905D01*
X103072619Y-127389286D01*
X103025000Y-127341667D01*
X102977381Y-127246429D01*
X102977381Y-127055952D01*
X103025000Y-126960714D01*
X103072619Y-126913095D01*
X103167857Y-126865476D01*
X103405952Y-126865476D01*
X103501190Y-126913095D01*
X103548810Y-126960714D01*
X103596429Y-127055952D01*
X103596429Y-127246429D01*
X103548810Y-127341667D01*
X103501190Y-127389286D01*
X103405952Y-127436905D01*
X91432143Y-141858334D02*
X91479762Y-141810715D01*
X91527381Y-141667858D01*
X91527381Y-141572620D01*
X91479762Y-141429762D01*
X91384524Y-141334524D01*
X91289286Y-141286905D01*
X91098810Y-141239286D01*
X90955952Y-141239286D01*
X90765476Y-141286905D01*
X90670238Y-141334524D01*
X90575000Y-141429762D01*
X90527381Y-141572620D01*
X90527381Y-141667858D01*
X90575000Y-141810715D01*
X90622619Y-141858334D01*
X90622619Y-142239286D02*
X90575000Y-142286905D01*
X90527381Y-142382143D01*
X90527381Y-142620239D01*
X90575000Y-142715477D01*
X90622619Y-142763096D01*
X90717857Y-142810715D01*
X90813095Y-142810715D01*
X90955952Y-142763096D01*
X91527381Y-142191667D01*
X91527381Y-142810715D01*
X65932143Y-140133334D02*
X65979762Y-140085715D01*
X66027381Y-139942858D01*
X66027381Y-139847620D01*
X65979762Y-139704762D01*
X65884524Y-139609524D01*
X65789286Y-139561905D01*
X65598810Y-139514286D01*
X65455952Y-139514286D01*
X65265476Y-139561905D01*
X65170238Y-139609524D01*
X65075000Y-139704762D01*
X65027381Y-139847620D01*
X65027381Y-139942858D01*
X65075000Y-140085715D01*
X65122619Y-140133334D01*
X65027381Y-140466667D02*
X65027381Y-141085715D01*
X65408333Y-140752381D01*
X65408333Y-140895239D01*
X65455952Y-140990477D01*
X65503571Y-141038096D01*
X65598810Y-141085715D01*
X65836905Y-141085715D01*
X65932143Y-141038096D01*
X65979762Y-140990477D01*
X66027381Y-140895239D01*
X66027381Y-140609524D01*
X65979762Y-140514286D01*
X65932143Y-140466667D01*
X59686666Y-141767143D02*
X59734285Y-141814762D01*
X59877142Y-141862381D01*
X59972380Y-141862381D01*
X60115238Y-141814762D01*
X60210476Y-141719524D01*
X60258095Y-141624286D01*
X60305714Y-141433810D01*
X60305714Y-141290952D01*
X60258095Y-141100476D01*
X60210476Y-141005238D01*
X60115238Y-140910000D01*
X59972380Y-140862381D01*
X59877142Y-140862381D01*
X59734285Y-140910000D01*
X59686666Y-140957619D01*
X58829523Y-140862381D02*
X59020000Y-140862381D01*
X59115238Y-140910000D01*
X59162857Y-140957619D01*
X59258095Y-141100476D01*
X59305714Y-141290952D01*
X59305714Y-141671905D01*
X59258095Y-141767143D01*
X59210476Y-141814762D01*
X59115238Y-141862381D01*
X58924761Y-141862381D01*
X58829523Y-141814762D01*
X58781904Y-141767143D01*
X58734285Y-141671905D01*
X58734285Y-141433810D01*
X58781904Y-141338571D01*
X58829523Y-141290952D01*
X58924761Y-141243333D01*
X59115238Y-141243333D01*
X59210476Y-141290952D01*
X59258095Y-141338571D01*
X59305714Y-141433810D01*
X90807143Y-124308334D02*
X90854762Y-124260715D01*
X90902381Y-124117858D01*
X90902381Y-124022620D01*
X90854762Y-123879762D01*
X90759524Y-123784524D01*
X90664286Y-123736905D01*
X90473810Y-123689286D01*
X90330952Y-123689286D01*
X90140476Y-123736905D01*
X90045238Y-123784524D01*
X89950000Y-123879762D01*
X89902381Y-124022620D01*
X89902381Y-124117858D01*
X89950000Y-124260715D01*
X89997619Y-124308334D01*
X89902381Y-124641667D02*
X89902381Y-125308334D01*
X90902381Y-124879762D01*
X89657143Y-143833334D02*
X89704762Y-143785715D01*
X89752381Y-143642858D01*
X89752381Y-143547620D01*
X89704762Y-143404762D01*
X89609524Y-143309524D01*
X89514286Y-143261905D01*
X89323810Y-143214286D01*
X89180952Y-143214286D01*
X88990476Y-143261905D01*
X88895238Y-143309524D01*
X88800000Y-143404762D01*
X88752381Y-143547620D01*
X88752381Y-143642858D01*
X88800000Y-143785715D01*
X88847619Y-143833334D01*
X89180952Y-144404762D02*
X89133333Y-144309524D01*
X89085714Y-144261905D01*
X88990476Y-144214286D01*
X88942857Y-144214286D01*
X88847619Y-144261905D01*
X88800000Y-144309524D01*
X88752381Y-144404762D01*
X88752381Y-144595239D01*
X88800000Y-144690477D01*
X88847619Y-144738096D01*
X88942857Y-144785715D01*
X88990476Y-144785715D01*
X89085714Y-144738096D01*
X89133333Y-144690477D01*
X89180952Y-144595239D01*
X89180952Y-144404762D01*
X89228571Y-144309524D01*
X89276190Y-144261905D01*
X89371429Y-144214286D01*
X89561905Y-144214286D01*
X89657143Y-144261905D01*
X89704762Y-144309524D01*
X89752381Y-144404762D01*
X89752381Y-144595239D01*
X89704762Y-144690477D01*
X89657143Y-144738096D01*
X89561905Y-144785715D01*
X89371429Y-144785715D01*
X89276190Y-144738096D01*
X89228571Y-144690477D01*
X89180952Y-144595239D01*
X100632143Y-123232143D02*
X100679762Y-123184524D01*
X100727381Y-123041667D01*
X100727381Y-122946429D01*
X100679762Y-122803571D01*
X100584524Y-122708333D01*
X100489286Y-122660714D01*
X100298810Y-122613095D01*
X100155952Y-122613095D01*
X99965476Y-122660714D01*
X99870238Y-122708333D01*
X99775000Y-122803571D01*
X99727381Y-122946429D01*
X99727381Y-123041667D01*
X99775000Y-123184524D01*
X99822619Y-123232143D01*
X100727381Y-124184524D02*
X100727381Y-123613095D01*
X100727381Y-123898809D02*
X99727381Y-123898809D01*
X99870238Y-123803571D01*
X99965476Y-123708333D01*
X100013095Y-123613095D01*
X99822619Y-124565476D02*
X99775000Y-124613095D01*
X99727381Y-124708333D01*
X99727381Y-124946429D01*
X99775000Y-125041667D01*
X99822619Y-125089286D01*
X99917857Y-125136905D01*
X100013095Y-125136905D01*
X100155952Y-125089286D01*
X100727381Y-124517857D01*
X100727381Y-125136905D01*
X111657143Y-129307143D02*
X111704762Y-129259524D01*
X111752381Y-129116667D01*
X111752381Y-129021429D01*
X111704762Y-128878571D01*
X111609524Y-128783333D01*
X111514286Y-128735714D01*
X111323810Y-128688095D01*
X111180952Y-128688095D01*
X110990476Y-128735714D01*
X110895238Y-128783333D01*
X110800000Y-128878571D01*
X110752381Y-129021429D01*
X110752381Y-129116667D01*
X110800000Y-129259524D01*
X110847619Y-129307143D01*
X111752381Y-130259524D02*
X111752381Y-129688095D01*
X111752381Y-129973809D02*
X110752381Y-129973809D01*
X110895238Y-129878571D01*
X110990476Y-129783333D01*
X111038095Y-129688095D01*
X110752381Y-131116667D02*
X110752381Y-130926190D01*
X110800000Y-130830952D01*
X110847619Y-130783333D01*
X110990476Y-130688095D01*
X111180952Y-130640476D01*
X111561905Y-130640476D01*
X111657143Y-130688095D01*
X111704762Y-130735714D01*
X111752381Y-130830952D01*
X111752381Y-131021429D01*
X111704762Y-131116667D01*
X111657143Y-131164286D01*
X111561905Y-131211905D01*
X111323810Y-131211905D01*
X111228571Y-131164286D01*
X111180952Y-131116667D01*
X111133333Y-131021429D01*
X111133333Y-130830952D01*
X111180952Y-130735714D01*
X111228571Y-130688095D01*
X111323810Y-130640476D01*
X116807143Y-94232143D02*
X116854762Y-94184524D01*
X116902381Y-94041667D01*
X116902381Y-93946429D01*
X116854762Y-93803571D01*
X116759524Y-93708333D01*
X116664286Y-93660714D01*
X116473810Y-93613095D01*
X116330952Y-93613095D01*
X116140476Y-93660714D01*
X116045238Y-93708333D01*
X115950000Y-93803571D01*
X115902381Y-93946429D01*
X115902381Y-94041667D01*
X115950000Y-94184524D01*
X115997619Y-94232143D01*
X115997619Y-94613095D02*
X115950000Y-94660714D01*
X115902381Y-94755952D01*
X115902381Y-94994048D01*
X115950000Y-95089286D01*
X115997619Y-95136905D01*
X116092857Y-95184524D01*
X116188095Y-95184524D01*
X116330952Y-95136905D01*
X116902381Y-94565476D01*
X116902381Y-95184524D01*
X115902381Y-95517857D02*
X115902381Y-96136905D01*
X116283333Y-95803571D01*
X116283333Y-95946429D01*
X116330952Y-96041667D01*
X116378571Y-96089286D01*
X116473810Y-96136905D01*
X116711905Y-96136905D01*
X116807143Y-96089286D01*
X116854762Y-96041667D01*
X116902381Y-95946429D01*
X116902381Y-95660714D01*
X116854762Y-95565476D01*
X116807143Y-95517857D01*
X80907143Y-100707143D02*
X80954762Y-100659524D01*
X81002381Y-100516667D01*
X81002381Y-100421429D01*
X80954762Y-100278571D01*
X80859524Y-100183333D01*
X80764286Y-100135714D01*
X80573810Y-100088095D01*
X80430952Y-100088095D01*
X80240476Y-100135714D01*
X80145238Y-100183333D01*
X80050000Y-100278571D01*
X80002381Y-100421429D01*
X80002381Y-100516667D01*
X80050000Y-100659524D01*
X80097619Y-100707143D01*
X80097619Y-101088095D02*
X80050000Y-101135714D01*
X80002381Y-101230952D01*
X80002381Y-101469048D01*
X80050000Y-101564286D01*
X80097619Y-101611905D01*
X80192857Y-101659524D01*
X80288095Y-101659524D01*
X80430952Y-101611905D01*
X81002381Y-101040476D01*
X81002381Y-101659524D01*
X80335714Y-102516667D02*
X81002381Y-102516667D01*
X79954762Y-102278571D02*
X80669048Y-102040476D01*
X80669048Y-102659524D01*
X112532143Y-110807143D02*
X112579762Y-110759524D01*
X112627381Y-110616667D01*
X112627381Y-110521429D01*
X112579762Y-110378571D01*
X112484524Y-110283333D01*
X112389286Y-110235714D01*
X112198810Y-110188095D01*
X112055952Y-110188095D01*
X111865476Y-110235714D01*
X111770238Y-110283333D01*
X111675000Y-110378571D01*
X111627381Y-110521429D01*
X111627381Y-110616667D01*
X111675000Y-110759524D01*
X111722619Y-110807143D01*
X111722619Y-111188095D02*
X111675000Y-111235714D01*
X111627381Y-111330952D01*
X111627381Y-111569048D01*
X111675000Y-111664286D01*
X111722619Y-111711905D01*
X111817857Y-111759524D01*
X111913095Y-111759524D01*
X112055952Y-111711905D01*
X112627381Y-111140476D01*
X112627381Y-111759524D01*
X111627381Y-112616667D02*
X111627381Y-112426190D01*
X111675000Y-112330952D01*
X111722619Y-112283333D01*
X111865476Y-112188095D01*
X112055952Y-112140476D01*
X112436905Y-112140476D01*
X112532143Y-112188095D01*
X112579762Y-112235714D01*
X112627381Y-112330952D01*
X112627381Y-112521429D01*
X112579762Y-112616667D01*
X112532143Y-112664286D01*
X112436905Y-112711905D01*
X112198810Y-112711905D01*
X112103571Y-112664286D01*
X112055952Y-112616667D01*
X112008333Y-112521429D01*
X112008333Y-112330952D01*
X112055952Y-112235714D01*
X112103571Y-112188095D01*
X112198810Y-112140476D01*
X112557143Y-107232143D02*
X112604762Y-107184524D01*
X112652381Y-107041667D01*
X112652381Y-106946429D01*
X112604762Y-106803571D01*
X112509524Y-106708333D01*
X112414286Y-106660714D01*
X112223810Y-106613095D01*
X112080952Y-106613095D01*
X111890476Y-106660714D01*
X111795238Y-106708333D01*
X111700000Y-106803571D01*
X111652381Y-106946429D01*
X111652381Y-107041667D01*
X111700000Y-107184524D01*
X111747619Y-107232143D01*
X111747619Y-107613095D02*
X111700000Y-107660714D01*
X111652381Y-107755952D01*
X111652381Y-107994048D01*
X111700000Y-108089286D01*
X111747619Y-108136905D01*
X111842857Y-108184524D01*
X111938095Y-108184524D01*
X112080952Y-108136905D01*
X112652381Y-107565476D01*
X112652381Y-108184524D01*
X111652381Y-108517857D02*
X111652381Y-109184524D01*
X112652381Y-108755952D01*
X69732143Y-124557143D02*
X69779762Y-124509524D01*
X69827381Y-124366667D01*
X69827381Y-124271429D01*
X69779762Y-124128571D01*
X69684524Y-124033333D01*
X69589286Y-123985714D01*
X69398810Y-123938095D01*
X69255952Y-123938095D01*
X69065476Y-123985714D01*
X68970238Y-124033333D01*
X68875000Y-124128571D01*
X68827381Y-124271429D01*
X68827381Y-124366667D01*
X68875000Y-124509524D01*
X68922619Y-124557143D01*
X68827381Y-124890476D02*
X68827381Y-125509524D01*
X69208333Y-125176190D01*
X69208333Y-125319048D01*
X69255952Y-125414286D01*
X69303571Y-125461905D01*
X69398810Y-125509524D01*
X69636905Y-125509524D01*
X69732143Y-125461905D01*
X69779762Y-125414286D01*
X69827381Y-125319048D01*
X69827381Y-125033333D01*
X69779762Y-124938095D01*
X69732143Y-124890476D01*
X69827381Y-126461905D02*
X69827381Y-125890476D01*
X69827381Y-126176190D02*
X68827381Y-126176190D01*
X68970238Y-126080952D01*
X69065476Y-125985714D01*
X69113095Y-125890476D01*
X70132143Y-112407143D02*
X70179762Y-112359524D01*
X70227381Y-112216667D01*
X70227381Y-112121429D01*
X70179762Y-111978571D01*
X70084524Y-111883333D01*
X69989286Y-111835714D01*
X69798810Y-111788095D01*
X69655952Y-111788095D01*
X69465476Y-111835714D01*
X69370238Y-111883333D01*
X69275000Y-111978571D01*
X69227381Y-112121429D01*
X69227381Y-112216667D01*
X69275000Y-112359524D01*
X69322619Y-112407143D01*
X69227381Y-112740476D02*
X69227381Y-113359524D01*
X69608333Y-113026190D01*
X69608333Y-113169048D01*
X69655952Y-113264286D01*
X69703571Y-113311905D01*
X69798810Y-113359524D01*
X70036905Y-113359524D01*
X70132143Y-113311905D01*
X70179762Y-113264286D01*
X70227381Y-113169048D01*
X70227381Y-112883333D01*
X70179762Y-112788095D01*
X70132143Y-112740476D01*
X69322619Y-113740476D02*
X69275000Y-113788095D01*
X69227381Y-113883333D01*
X69227381Y-114121429D01*
X69275000Y-114216667D01*
X69322619Y-114264286D01*
X69417857Y-114311905D01*
X69513095Y-114311905D01*
X69655952Y-114264286D01*
X70227381Y-113692857D01*
X70227381Y-114311905D01*
X57632143Y-123457143D02*
X57679762Y-123409524D01*
X57727381Y-123266667D01*
X57727381Y-123171429D01*
X57679762Y-123028571D01*
X57584524Y-122933333D01*
X57489286Y-122885714D01*
X57298810Y-122838095D01*
X57155952Y-122838095D01*
X56965476Y-122885714D01*
X56870238Y-122933333D01*
X56775000Y-123028571D01*
X56727381Y-123171429D01*
X56727381Y-123266667D01*
X56775000Y-123409524D01*
X56822619Y-123457143D01*
X56727381Y-123790476D02*
X56727381Y-124409524D01*
X57108333Y-124076190D01*
X57108333Y-124219048D01*
X57155952Y-124314286D01*
X57203571Y-124361905D01*
X57298810Y-124409524D01*
X57536905Y-124409524D01*
X57632143Y-124361905D01*
X57679762Y-124314286D01*
X57727381Y-124219048D01*
X57727381Y-123933333D01*
X57679762Y-123838095D01*
X57632143Y-123790476D01*
X57060714Y-125266667D02*
X57727381Y-125266667D01*
X56679762Y-125028571D02*
X57394048Y-124790476D01*
X57394048Y-125409524D01*
X60117857Y-126582143D02*
X60165476Y-126629762D01*
X60308333Y-126677381D01*
X60403571Y-126677381D01*
X60546429Y-126629762D01*
X60641667Y-126534524D01*
X60689286Y-126439286D01*
X60736905Y-126248810D01*
X60736905Y-126105952D01*
X60689286Y-125915476D01*
X60641667Y-125820238D01*
X60546429Y-125725000D01*
X60403571Y-125677381D01*
X60308333Y-125677381D01*
X60165476Y-125725000D01*
X60117857Y-125772619D01*
X59784524Y-125677381D02*
X59165476Y-125677381D01*
X59498810Y-126058333D01*
X59355952Y-126058333D01*
X59260714Y-126105952D01*
X59213095Y-126153571D01*
X59165476Y-126248810D01*
X59165476Y-126486905D01*
X59213095Y-126582143D01*
X59260714Y-126629762D01*
X59355952Y-126677381D01*
X59641667Y-126677381D01*
X59736905Y-126629762D01*
X59784524Y-126582143D01*
X58308333Y-125677381D02*
X58498810Y-125677381D01*
X58594048Y-125725000D01*
X58641667Y-125772619D01*
X58736905Y-125915476D01*
X58784524Y-126105952D01*
X58784524Y-126486905D01*
X58736905Y-126582143D01*
X58689286Y-126629762D01*
X58594048Y-126677381D01*
X58403571Y-126677381D01*
X58308333Y-126629762D01*
X58260714Y-126582143D01*
X58213095Y-126486905D01*
X58213095Y-126248810D01*
X58260714Y-126153571D01*
X58308333Y-126105952D01*
X58403571Y-126058333D01*
X58594048Y-126058333D01*
X58689286Y-126105952D01*
X58736905Y-126153571D01*
X58784524Y-126248810D01*
X75617857Y-131132143D02*
X75665476Y-131179762D01*
X75808333Y-131227381D01*
X75903571Y-131227381D01*
X76046429Y-131179762D01*
X76141667Y-131084524D01*
X76189286Y-130989286D01*
X76236905Y-130798810D01*
X76236905Y-130655952D01*
X76189286Y-130465476D01*
X76141667Y-130370238D01*
X76046429Y-130275000D01*
X75903571Y-130227381D01*
X75808333Y-130227381D01*
X75665476Y-130275000D01*
X75617857Y-130322619D01*
X75284524Y-130227381D02*
X74665476Y-130227381D01*
X74998810Y-130608333D01*
X74855952Y-130608333D01*
X74760714Y-130655952D01*
X74713095Y-130703571D01*
X74665476Y-130798810D01*
X74665476Y-131036905D01*
X74713095Y-131132143D01*
X74760714Y-131179762D01*
X74855952Y-131227381D01*
X75141667Y-131227381D01*
X75236905Y-131179762D01*
X75284524Y-131132143D01*
X74189286Y-131227381D02*
X73998810Y-131227381D01*
X73903571Y-131179762D01*
X73855952Y-131132143D01*
X73760714Y-130989286D01*
X73713095Y-130798810D01*
X73713095Y-130417857D01*
X73760714Y-130322619D01*
X73808333Y-130275000D01*
X73903571Y-130227381D01*
X74094048Y-130227381D01*
X74189286Y-130275000D01*
X74236905Y-130322619D01*
X74284524Y-130417857D01*
X74284524Y-130655952D01*
X74236905Y-130751190D01*
X74189286Y-130798810D01*
X74094048Y-130846429D01*
X73903571Y-130846429D01*
X73808333Y-130798810D01*
X73760714Y-130751190D01*
X73713095Y-130655952D01*
X30257143Y-102957143D02*
X30304762Y-102909524D01*
X30352381Y-102766667D01*
X30352381Y-102671429D01*
X30304762Y-102528571D01*
X30209524Y-102433333D01*
X30114286Y-102385714D01*
X29923810Y-102338095D01*
X29780952Y-102338095D01*
X29590476Y-102385714D01*
X29495238Y-102433333D01*
X29400000Y-102528571D01*
X29352381Y-102671429D01*
X29352381Y-102766667D01*
X29400000Y-102909524D01*
X29447619Y-102957143D01*
X29685714Y-103814286D02*
X30352381Y-103814286D01*
X29304762Y-103576190D02*
X30019048Y-103338095D01*
X30019048Y-103957143D01*
X29352381Y-104528571D02*
X29352381Y-104623810D01*
X29400000Y-104719048D01*
X29447619Y-104766667D01*
X29542857Y-104814286D01*
X29733333Y-104861905D01*
X29971429Y-104861905D01*
X30161905Y-104814286D01*
X30257143Y-104766667D01*
X30304762Y-104719048D01*
X30352381Y-104623810D01*
X30352381Y-104528571D01*
X30304762Y-104433333D01*
X30257143Y-104385714D01*
X30161905Y-104338095D01*
X29971429Y-104290476D01*
X29733333Y-104290476D01*
X29542857Y-104338095D01*
X29447619Y-104385714D01*
X29400000Y-104433333D01*
X29352381Y-104528571D01*
X72832143Y-126057143D02*
X72879762Y-126009524D01*
X72927381Y-125866667D01*
X72927381Y-125771429D01*
X72879762Y-125628571D01*
X72784524Y-125533333D01*
X72689286Y-125485714D01*
X72498810Y-125438095D01*
X72355952Y-125438095D01*
X72165476Y-125485714D01*
X72070238Y-125533333D01*
X71975000Y-125628571D01*
X71927381Y-125771429D01*
X71927381Y-125866667D01*
X71975000Y-126009524D01*
X72022619Y-126057143D01*
X72260714Y-126914286D02*
X72927381Y-126914286D01*
X71879762Y-126676190D02*
X72594048Y-126438095D01*
X72594048Y-127057143D01*
X72927381Y-127961905D02*
X72927381Y-127390476D01*
X72927381Y-127676190D02*
X71927381Y-127676190D01*
X72070238Y-127580952D01*
X72165476Y-127485714D01*
X72213095Y-127390476D01*
X55257143Y-105657143D02*
X55304762Y-105609524D01*
X55352381Y-105466667D01*
X55352381Y-105371429D01*
X55304762Y-105228571D01*
X55209524Y-105133333D01*
X55114286Y-105085714D01*
X54923810Y-105038095D01*
X54780952Y-105038095D01*
X54590476Y-105085714D01*
X54495238Y-105133333D01*
X54400000Y-105228571D01*
X54352381Y-105371429D01*
X54352381Y-105466667D01*
X54400000Y-105609524D01*
X54447619Y-105657143D01*
X54685714Y-106514286D02*
X55352381Y-106514286D01*
X54304762Y-106276190D02*
X55019048Y-106038095D01*
X55019048Y-106657143D01*
X54447619Y-106990476D02*
X54400000Y-107038095D01*
X54352381Y-107133333D01*
X54352381Y-107371429D01*
X54400000Y-107466667D01*
X54447619Y-107514286D01*
X54542857Y-107561905D01*
X54638095Y-107561905D01*
X54780952Y-107514286D01*
X55352381Y-106942857D01*
X55352381Y-107561905D01*
X64782143Y-112457143D02*
X64829762Y-112409524D01*
X64877381Y-112266667D01*
X64877381Y-112171429D01*
X64829762Y-112028571D01*
X64734524Y-111933333D01*
X64639286Y-111885714D01*
X64448810Y-111838095D01*
X64305952Y-111838095D01*
X64115476Y-111885714D01*
X64020238Y-111933333D01*
X63925000Y-112028571D01*
X63877381Y-112171429D01*
X63877381Y-112266667D01*
X63925000Y-112409524D01*
X63972619Y-112457143D01*
X64210714Y-113314286D02*
X64877381Y-113314286D01*
X63829762Y-113076190D02*
X64544048Y-112838095D01*
X64544048Y-113457143D01*
X64210714Y-114266667D02*
X64877381Y-114266667D01*
X63829762Y-114028571D02*
X64544048Y-113790476D01*
X64544048Y-114409524D01*
X47231343Y-105608643D02*
X47278962Y-105561024D01*
X47326581Y-105418167D01*
X47326581Y-105322929D01*
X47278962Y-105180071D01*
X47183724Y-105084833D01*
X47088486Y-105037214D01*
X46898010Y-104989595D01*
X46755152Y-104989595D01*
X46564676Y-105037214D01*
X46469438Y-105084833D01*
X46374200Y-105180071D01*
X46326581Y-105322929D01*
X46326581Y-105418167D01*
X46374200Y-105561024D01*
X46421819Y-105608643D01*
X46659914Y-106465786D02*
X47326581Y-106465786D01*
X46278962Y-106227690D02*
X46993248Y-105989595D01*
X46993248Y-106608643D01*
X46326581Y-107465786D02*
X46326581Y-106989595D01*
X46802771Y-106941976D01*
X46755152Y-106989595D01*
X46707533Y-107084833D01*
X46707533Y-107322929D01*
X46755152Y-107418167D01*
X46802771Y-107465786D01*
X46898010Y-107513405D01*
X47136105Y-107513405D01*
X47231343Y-107465786D01*
X47278962Y-107418167D01*
X47326581Y-107322929D01*
X47326581Y-107084833D01*
X47278962Y-106989595D01*
X47231343Y-106941976D01*
X38832143Y-104582143D02*
X38879762Y-104534524D01*
X38927381Y-104391667D01*
X38927381Y-104296429D01*
X38879762Y-104153571D01*
X38784524Y-104058333D01*
X38689286Y-104010714D01*
X38498810Y-103963095D01*
X38355952Y-103963095D01*
X38165476Y-104010714D01*
X38070238Y-104058333D01*
X37975000Y-104153571D01*
X37927381Y-104296429D01*
X37927381Y-104391667D01*
X37975000Y-104534524D01*
X38022619Y-104582143D01*
X38260714Y-105439286D02*
X38927381Y-105439286D01*
X37879762Y-105201190D02*
X38594048Y-104963095D01*
X38594048Y-105582143D01*
X38355952Y-106105952D02*
X38308333Y-106010714D01*
X38260714Y-105963095D01*
X38165476Y-105915476D01*
X38117857Y-105915476D01*
X38022619Y-105963095D01*
X37975000Y-106010714D01*
X37927381Y-106105952D01*
X37927381Y-106296429D01*
X37975000Y-106391667D01*
X38022619Y-106439286D01*
X38117857Y-106486905D01*
X38165476Y-106486905D01*
X38260714Y-106439286D01*
X38308333Y-106391667D01*
X38355952Y-106296429D01*
X38355952Y-106105952D01*
X38403571Y-106010714D01*
X38451190Y-105963095D01*
X38546429Y-105915476D01*
X38736905Y-105915476D01*
X38832143Y-105963095D01*
X38879762Y-106010714D01*
X38927381Y-106105952D01*
X38927381Y-106296429D01*
X38879762Y-106391667D01*
X38832143Y-106439286D01*
X38736905Y-106486905D01*
X38546429Y-106486905D01*
X38451190Y-106439286D01*
X38403571Y-106391667D01*
X38355952Y-106296429D01*
X102389285Y-90157143D02*
X102436904Y-90204762D01*
X102579761Y-90252381D01*
X102674999Y-90252381D01*
X102817857Y-90204762D01*
X102913095Y-90109524D01*
X102960714Y-90014286D01*
X103008333Y-89823810D01*
X103008333Y-89680952D01*
X102960714Y-89490476D01*
X102913095Y-89395238D01*
X102817857Y-89300000D01*
X102674999Y-89252381D01*
X102579761Y-89252381D01*
X102436904Y-89300000D01*
X102389285Y-89347619D01*
X101770238Y-89252381D02*
X101579761Y-89252381D01*
X101484523Y-89300000D01*
X101389285Y-89395238D01*
X101341666Y-89585714D01*
X101341666Y-89919048D01*
X101389285Y-90109524D01*
X101484523Y-90204762D01*
X101579761Y-90252381D01*
X101770238Y-90252381D01*
X101865476Y-90204762D01*
X101960714Y-90109524D01*
X102008333Y-89919048D01*
X102008333Y-89585714D01*
X101960714Y-89395238D01*
X101865476Y-89300000D01*
X101770238Y-89252381D01*
X100913095Y-90252381D02*
X100913095Y-89252381D01*
X100341666Y-90252381D01*
X100341666Y-89252381D01*
X99913095Y-89347619D02*
X99865476Y-89300000D01*
X99770238Y-89252381D01*
X99532142Y-89252381D01*
X99436904Y-89300000D01*
X99389285Y-89347619D01*
X99341666Y-89442857D01*
X99341666Y-89538095D01*
X99389285Y-89680952D01*
X99960714Y-90252381D01*
X99341666Y-90252381D01*
X108927381Y-125983334D02*
X108451190Y-125650000D01*
X108927381Y-125411905D02*
X107927381Y-125411905D01*
X107927381Y-125792858D01*
X107975000Y-125888096D01*
X108022619Y-125935715D01*
X108117857Y-125983334D01*
X108260714Y-125983334D01*
X108355952Y-125935715D01*
X108403571Y-125888096D01*
X108451190Y-125792858D01*
X108451190Y-125411905D01*
X107927381Y-126316667D02*
X107927381Y-126935715D01*
X108308333Y-126602381D01*
X108308333Y-126745239D01*
X108355952Y-126840477D01*
X108403571Y-126888096D01*
X108498810Y-126935715D01*
X108736905Y-126935715D01*
X108832143Y-126888096D01*
X108879762Y-126840477D01*
X108927381Y-126745239D01*
X108927381Y-126459524D01*
X108879762Y-126364286D01*
X108832143Y-126316667D01*
X117677381Y-100533334D02*
X117201190Y-100200000D01*
X117677381Y-99961905D02*
X116677381Y-99961905D01*
X116677381Y-100342858D01*
X116725000Y-100438096D01*
X116772619Y-100485715D01*
X116867857Y-100533334D01*
X117010714Y-100533334D01*
X117105952Y-100485715D01*
X117153571Y-100438096D01*
X117201190Y-100342858D01*
X117201190Y-99961905D01*
X117010714Y-101390477D02*
X117677381Y-101390477D01*
X116629762Y-101152381D02*
X117344048Y-100914286D01*
X117344048Y-101533334D01*
X39877381Y-100783334D02*
X39401190Y-100450000D01*
X39877381Y-100211905D02*
X38877381Y-100211905D01*
X38877381Y-100592858D01*
X38925000Y-100688096D01*
X38972619Y-100735715D01*
X39067857Y-100783334D01*
X39210714Y-100783334D01*
X39305952Y-100735715D01*
X39353571Y-100688096D01*
X39401190Y-100592858D01*
X39401190Y-100211905D01*
X38877381Y-101688096D02*
X38877381Y-101211905D01*
X39353571Y-101164286D01*
X39305952Y-101211905D01*
X39258333Y-101307143D01*
X39258333Y-101545239D01*
X39305952Y-101640477D01*
X39353571Y-101688096D01*
X39448810Y-101735715D01*
X39686905Y-101735715D01*
X39782143Y-101688096D01*
X39829762Y-101640477D01*
X39877381Y-101545239D01*
X39877381Y-101307143D01*
X39829762Y-101211905D01*
X39782143Y-101164286D01*
X108791666Y-123902381D02*
X109125000Y-123426190D01*
X109363095Y-123902381D02*
X109363095Y-122902381D01*
X108982142Y-122902381D01*
X108886904Y-122950000D01*
X108839285Y-122997619D01*
X108791666Y-123092857D01*
X108791666Y-123235714D01*
X108839285Y-123330952D01*
X108886904Y-123378571D01*
X108982142Y-123426190D01*
X109363095Y-123426190D01*
X107934523Y-122902381D02*
X108125000Y-122902381D01*
X108220238Y-122950000D01*
X108267857Y-122997619D01*
X108363095Y-123140476D01*
X108410714Y-123330952D01*
X108410714Y-123711905D01*
X108363095Y-123807143D01*
X108315476Y-123854762D01*
X108220238Y-123902381D01*
X108029761Y-123902381D01*
X107934523Y-123854762D01*
X107886904Y-123807143D01*
X107839285Y-123711905D01*
X107839285Y-123473810D01*
X107886904Y-123378571D01*
X107934523Y-123330952D01*
X108029761Y-123283333D01*
X108220238Y-123283333D01*
X108315476Y-123330952D01*
X108363095Y-123378571D01*
X108410714Y-123473810D01*
X80777381Y-114883334D02*
X80301190Y-114550000D01*
X80777381Y-114311905D02*
X79777381Y-114311905D01*
X79777381Y-114692858D01*
X79825000Y-114788096D01*
X79872619Y-114835715D01*
X79967857Y-114883334D01*
X80110714Y-114883334D01*
X80205952Y-114835715D01*
X80253571Y-114788096D01*
X80301190Y-114692858D01*
X80301190Y-114311905D01*
X79777381Y-115216667D02*
X79777381Y-115883334D01*
X80777381Y-115454762D01*
X80792381Y-119043334D02*
X80316190Y-118710000D01*
X80792381Y-118471905D02*
X79792381Y-118471905D01*
X79792381Y-118852858D01*
X79840000Y-118948096D01*
X79887619Y-118995715D01*
X79982857Y-119043334D01*
X80125714Y-119043334D01*
X80220952Y-118995715D01*
X80268571Y-118948096D01*
X80316190Y-118852858D01*
X80316190Y-118471905D01*
X80220952Y-119614762D02*
X80173333Y-119519524D01*
X80125714Y-119471905D01*
X80030476Y-119424286D01*
X79982857Y-119424286D01*
X79887619Y-119471905D01*
X79840000Y-119519524D01*
X79792381Y-119614762D01*
X79792381Y-119805239D01*
X79840000Y-119900477D01*
X79887619Y-119948096D01*
X79982857Y-119995715D01*
X80030476Y-119995715D01*
X80125714Y-119948096D01*
X80173333Y-119900477D01*
X80220952Y-119805239D01*
X80220952Y-119614762D01*
X80268571Y-119519524D01*
X80316190Y-119471905D01*
X80411429Y-119424286D01*
X80601905Y-119424286D01*
X80697143Y-119471905D01*
X80744762Y-119519524D01*
X80792381Y-119614762D01*
X80792381Y-119805239D01*
X80744762Y-119900477D01*
X80697143Y-119948096D01*
X80601905Y-119995715D01*
X80411429Y-119995715D01*
X80316190Y-119948096D01*
X80268571Y-119900477D01*
X80220952Y-119805239D01*
X99806405Y-130164381D02*
X99806405Y-130973905D01*
X99758786Y-131069143D01*
X99711167Y-131116762D01*
X99615929Y-131164381D01*
X99425452Y-131164381D01*
X99330214Y-131116762D01*
X99282595Y-131069143D01*
X99234976Y-130973905D01*
X99234976Y-130164381D01*
X98234976Y-131164381D02*
X98806405Y-131164381D01*
X98520691Y-131164381D02*
X98520691Y-130164381D01*
X98615929Y-130307238D01*
X98711167Y-130402476D01*
X98806405Y-130450095D01*
X64717857Y-131652381D02*
X65051191Y-131176190D01*
X65289286Y-131652381D02*
X65289286Y-130652381D01*
X64908333Y-130652381D01*
X64813095Y-130700000D01*
X64765476Y-130747619D01*
X64717857Y-130842857D01*
X64717857Y-130985714D01*
X64765476Y-131080952D01*
X64813095Y-131128571D01*
X64908333Y-131176190D01*
X65289286Y-131176190D01*
X63765476Y-131652381D02*
X64336905Y-131652381D01*
X64051191Y-131652381D02*
X64051191Y-130652381D01*
X64146429Y-130795238D01*
X64241667Y-130890476D01*
X64336905Y-130938095D01*
X62908333Y-130985714D02*
X62908333Y-131652381D01*
X63146429Y-130604762D02*
X63384524Y-131319048D01*
X62765476Y-131319048D01*
X40357143Y-89707143D02*
X40404762Y-89659524D01*
X40452381Y-89516667D01*
X40452381Y-89421429D01*
X40404762Y-89278571D01*
X40309524Y-89183333D01*
X40214286Y-89135714D01*
X40023810Y-89088095D01*
X39880952Y-89088095D01*
X39690476Y-89135714D01*
X39595238Y-89183333D01*
X39500000Y-89278571D01*
X39452381Y-89421429D01*
X39452381Y-89516667D01*
X39500000Y-89659524D01*
X39547619Y-89707143D01*
X39547619Y-90088095D02*
X39500000Y-90135714D01*
X39452381Y-90230952D01*
X39452381Y-90469048D01*
X39500000Y-90564286D01*
X39547619Y-90611905D01*
X39642857Y-90659524D01*
X39738095Y-90659524D01*
X39880952Y-90611905D01*
X40452381Y-90040476D01*
X40452381Y-90659524D01*
X39452381Y-91564286D02*
X39452381Y-91088095D01*
X39928571Y-91040476D01*
X39880952Y-91088095D01*
X39833333Y-91183333D01*
X39833333Y-91421429D01*
X39880952Y-91516667D01*
X39928571Y-91564286D01*
X40023810Y-91611905D01*
X40261905Y-91611905D01*
X40357143Y-91564286D01*
X40404762Y-91516667D01*
X40452381Y-91421429D01*
X40452381Y-91183333D01*
X40404762Y-91088095D01*
X40357143Y-91040476D01*
X44232143Y-94007143D02*
X44279762Y-93959524D01*
X44327381Y-93816667D01*
X44327381Y-93721429D01*
X44279762Y-93578571D01*
X44184524Y-93483333D01*
X44089286Y-93435714D01*
X43898810Y-93388095D01*
X43755952Y-93388095D01*
X43565476Y-93435714D01*
X43470238Y-93483333D01*
X43375000Y-93578571D01*
X43327381Y-93721429D01*
X43327381Y-93816667D01*
X43375000Y-93959524D01*
X43422619Y-94007143D01*
X43422619Y-94388095D02*
X43375000Y-94435714D01*
X43327381Y-94530952D01*
X43327381Y-94769048D01*
X43375000Y-94864286D01*
X43422619Y-94911905D01*
X43517857Y-94959524D01*
X43613095Y-94959524D01*
X43755952Y-94911905D01*
X44327381Y-94340476D01*
X44327381Y-94959524D01*
X43755952Y-95530952D02*
X43708333Y-95435714D01*
X43660714Y-95388095D01*
X43565476Y-95340476D01*
X43517857Y-95340476D01*
X43422619Y-95388095D01*
X43375000Y-95435714D01*
X43327381Y-95530952D01*
X43327381Y-95721429D01*
X43375000Y-95816667D01*
X43422619Y-95864286D01*
X43517857Y-95911905D01*
X43565476Y-95911905D01*
X43660714Y-95864286D01*
X43708333Y-95816667D01*
X43755952Y-95721429D01*
X43755952Y-95530952D01*
X43803571Y-95435714D01*
X43851190Y-95388095D01*
X43946429Y-95340476D01*
X44136905Y-95340476D01*
X44232143Y-95388095D01*
X44279762Y-95435714D01*
X44327381Y-95530952D01*
X44327381Y-95721429D01*
X44279762Y-95816667D01*
X44232143Y-95864286D01*
X44136905Y-95911905D01*
X43946429Y-95911905D01*
X43851190Y-95864286D01*
X43803571Y-95816667D01*
X43755952Y-95721429D01*
X57542857Y-116682143D02*
X57590476Y-116729762D01*
X57733333Y-116777381D01*
X57828571Y-116777381D01*
X57971429Y-116729762D01*
X58066667Y-116634524D01*
X58114286Y-116539286D01*
X58161905Y-116348810D01*
X58161905Y-116205952D01*
X58114286Y-116015476D01*
X58066667Y-115920238D01*
X57971429Y-115825000D01*
X57828571Y-115777381D01*
X57733333Y-115777381D01*
X57590476Y-115825000D01*
X57542857Y-115872619D01*
X57209524Y-115777381D02*
X56590476Y-115777381D01*
X56923810Y-116158333D01*
X56780952Y-116158333D01*
X56685714Y-116205952D01*
X56638095Y-116253571D01*
X56590476Y-116348810D01*
X56590476Y-116586905D01*
X56638095Y-116682143D01*
X56685714Y-116729762D01*
X56780952Y-116777381D01*
X57066667Y-116777381D01*
X57161905Y-116729762D01*
X57209524Y-116682143D01*
X56257143Y-115777381D02*
X55638095Y-115777381D01*
X55971429Y-116158333D01*
X55828571Y-116158333D01*
X55733333Y-116205952D01*
X55685714Y-116253571D01*
X55638095Y-116348810D01*
X55638095Y-116586905D01*
X55685714Y-116682143D01*
X55733333Y-116729762D01*
X55828571Y-116777381D01*
X56114286Y-116777381D01*
X56209524Y-116729762D01*
X56257143Y-116682143D01*
X30111905Y-89727381D02*
X30111905Y-90536905D01*
X30064286Y-90632143D01*
X30016667Y-90679762D01*
X29921429Y-90727381D01*
X29730952Y-90727381D01*
X29635714Y-90679762D01*
X29588095Y-90632143D01*
X29540476Y-90536905D01*
X29540476Y-89727381D01*
X28635714Y-89727381D02*
X28826191Y-89727381D01*
X28921429Y-89775000D01*
X28969048Y-89822619D01*
X29064286Y-89965476D01*
X29111905Y-90155952D01*
X29111905Y-90536905D01*
X29064286Y-90632143D01*
X29016667Y-90679762D01*
X28921429Y-90727381D01*
X28730952Y-90727381D01*
X28635714Y-90679762D01*
X28588095Y-90632143D01*
X28540476Y-90536905D01*
X28540476Y-90298810D01*
X28588095Y-90203571D01*
X28635714Y-90155952D01*
X28730952Y-90108333D01*
X28921429Y-90108333D01*
X29016667Y-90155952D01*
X29064286Y-90203571D01*
X29111905Y-90298810D01*
X112717857Y-124807143D02*
X112765476Y-124854762D01*
X112908333Y-124902381D01*
X113003571Y-124902381D01*
X113146429Y-124854762D01*
X113241667Y-124759524D01*
X113289286Y-124664286D01*
X113336905Y-124473810D01*
X113336905Y-124330952D01*
X113289286Y-124140476D01*
X113241667Y-124045238D01*
X113146429Y-123950000D01*
X113003571Y-123902381D01*
X112908333Y-123902381D01*
X112765476Y-123950000D01*
X112717857Y-123997619D01*
X111813095Y-123902381D02*
X112289286Y-123902381D01*
X112336905Y-124378571D01*
X112289286Y-124330952D01*
X112194048Y-124283333D01*
X111955952Y-124283333D01*
X111860714Y-124330952D01*
X111813095Y-124378571D01*
X111765476Y-124473810D01*
X111765476Y-124711905D01*
X111813095Y-124807143D01*
X111860714Y-124854762D01*
X111955952Y-124902381D01*
X112194048Y-124902381D01*
X112289286Y-124854762D01*
X112336905Y-124807143D01*
X111384524Y-123997619D02*
X111336905Y-123950000D01*
X111241667Y-123902381D01*
X111003571Y-123902381D01*
X110908333Y-123950000D01*
X110860714Y-123997619D01*
X110813095Y-124092857D01*
X110813095Y-124188095D01*
X110860714Y-124330952D01*
X111432143Y-124902381D01*
X110813095Y-124902381D01*
X116432143Y-127582143D02*
X116479762Y-127534524D01*
X116527381Y-127391667D01*
X116527381Y-127296429D01*
X116479762Y-127153571D01*
X116384524Y-127058333D01*
X116289286Y-127010714D01*
X116098810Y-126963095D01*
X115955952Y-126963095D01*
X115765476Y-127010714D01*
X115670238Y-127058333D01*
X115575000Y-127153571D01*
X115527381Y-127296429D01*
X115527381Y-127391667D01*
X115575000Y-127534524D01*
X115622619Y-127582143D01*
X115527381Y-128486905D02*
X115527381Y-128010714D01*
X116003571Y-127963095D01*
X115955952Y-128010714D01*
X115908333Y-128105952D01*
X115908333Y-128344048D01*
X115955952Y-128439286D01*
X116003571Y-128486905D01*
X116098810Y-128534524D01*
X116336905Y-128534524D01*
X116432143Y-128486905D01*
X116479762Y-128439286D01*
X116527381Y-128344048D01*
X116527381Y-128105952D01*
X116479762Y-128010714D01*
X116432143Y-127963095D01*
X115527381Y-128867857D02*
X115527381Y-129486905D01*
X115908333Y-129153571D01*
X115908333Y-129296429D01*
X115955952Y-129391667D01*
X116003571Y-129439286D01*
X116098810Y-129486905D01*
X116336905Y-129486905D01*
X116432143Y-129439286D01*
X116479762Y-129391667D01*
X116527381Y-129296429D01*
X116527381Y-129010714D01*
X116479762Y-128915476D01*
X116432143Y-128867857D01*
X115657143Y-107657143D02*
X115704762Y-107609524D01*
X115752381Y-107466667D01*
X115752381Y-107371429D01*
X115704762Y-107228571D01*
X115609524Y-107133333D01*
X115514286Y-107085714D01*
X115323810Y-107038095D01*
X115180952Y-107038095D01*
X114990476Y-107085714D01*
X114895238Y-107133333D01*
X114800000Y-107228571D01*
X114752381Y-107371429D01*
X114752381Y-107466667D01*
X114800000Y-107609524D01*
X114847619Y-107657143D01*
X114752381Y-108561905D02*
X114752381Y-108085714D01*
X115228571Y-108038095D01*
X115180952Y-108085714D01*
X115133333Y-108180952D01*
X115133333Y-108419048D01*
X115180952Y-108514286D01*
X115228571Y-108561905D01*
X115323810Y-108609524D01*
X115561905Y-108609524D01*
X115657143Y-108561905D01*
X115704762Y-108514286D01*
X115752381Y-108419048D01*
X115752381Y-108180952D01*
X115704762Y-108085714D01*
X115657143Y-108038095D01*
X115085714Y-109466667D02*
X115752381Y-109466667D01*
X114704762Y-109228571D02*
X115419048Y-108990476D01*
X115419048Y-109609524D01*
X114082143Y-129332143D02*
X114129762Y-129284524D01*
X114177381Y-129141667D01*
X114177381Y-129046429D01*
X114129762Y-128903571D01*
X114034524Y-128808333D01*
X113939286Y-128760714D01*
X113748810Y-128713095D01*
X113605952Y-128713095D01*
X113415476Y-128760714D01*
X113320238Y-128808333D01*
X113225000Y-128903571D01*
X113177381Y-129046429D01*
X113177381Y-129141667D01*
X113225000Y-129284524D01*
X113272619Y-129332143D01*
X113177381Y-130236905D02*
X113177381Y-129760714D01*
X113653571Y-129713095D01*
X113605952Y-129760714D01*
X113558333Y-129855952D01*
X113558333Y-130094048D01*
X113605952Y-130189286D01*
X113653571Y-130236905D01*
X113748810Y-130284524D01*
X113986905Y-130284524D01*
X114082143Y-130236905D01*
X114129762Y-130189286D01*
X114177381Y-130094048D01*
X114177381Y-129855952D01*
X114129762Y-129760714D01*
X114082143Y-129713095D01*
X113177381Y-131189286D02*
X113177381Y-130713095D01*
X113653571Y-130665476D01*
X113605952Y-130713095D01*
X113558333Y-130808333D01*
X113558333Y-131046429D01*
X113605952Y-131141667D01*
X113653571Y-131189286D01*
X113748810Y-131236905D01*
X113986905Y-131236905D01*
X114082143Y-131189286D01*
X114129762Y-131141667D01*
X114177381Y-131046429D01*
X114177381Y-130808333D01*
X114129762Y-130713095D01*
X114082143Y-130665476D01*
D10*
X120231857Y-120384715D02*
X120594714Y-120384715D01*
X119832714Y-120181515D02*
X120231857Y-120384715D01*
X119832714Y-120587915D01*
X119905286Y-120762086D02*
X119869000Y-120791115D01*
X119832714Y-120849172D01*
X119832714Y-120994315D01*
X119869000Y-121052372D01*
X119905286Y-121081401D01*
X119977857Y-121110429D01*
X120050429Y-121110429D01*
X120159286Y-121081401D01*
X120594714Y-120733058D01*
X120594714Y-121110429D01*
M02*
