%TF.GenerationSoftware,KiCad,Pcbnew,(5.1.8)-1*%
%TF.CreationDate,2020-12-19T21:55:55+03:00*%
%TF.ProjectId,wasca,77617363-612e-46b6-9963-61645f706362,1.3*%
%TF.SameCoordinates,Original*%
%TF.FileFunction,Soldermask,Bot*%
%TF.FilePolarity,Negative*%
%FSLAX46Y46*%
G04 Gerber Fmt 4.6, Leading zero omitted, Abs format (unit mm)*
G04 Created by KiCad (PCBNEW (5.1.8)-1) date 2020-12-19 21:55:55*
%MOMM*%
%LPD*%
G01*
G04 APERTURE LIST*
%ADD10C,1.760000*%
%ADD11O,2.300000X1.200000*%
%ADD12C,0.850000*%
%ADD13O,1.800000X1.200000*%
%ADD14O,1.270000X2.000000*%
%ADD15O,1.900000X1.900000*%
%ADD16O,1.927200X1.927200*%
%ADD17C,1.927200*%
%ADD18C,1.900000*%
%ADD19C,2.000000*%
%ADD20C,1.200000*%
%ADD21C,1.700000*%
%ADD22C,0.254000*%
%ADD23C,0.152400*%
G04 APERTURE END LIST*
%TO.C,U13*%
G36*
G01*
X30280000Y-100960000D02*
X30280000Y-102520000D01*
G75*
G02*
X30180000Y-102620000I-100000J0D01*
G01*
X28620000Y-102620000D01*
G75*
G02*
X28520000Y-102520000I0J100000D01*
G01*
X28520000Y-100960000D01*
G75*
G02*
X28620000Y-100860000I100000J0D01*
G01*
X30180000Y-100860000D01*
G75*
G02*
X30280000Y-100960000I0J-100000D01*
G01*
G37*
D10*
X29400000Y-99200000D03*
X29400000Y-96660000D03*
X29400000Y-94120000D03*
X29400000Y-91580000D03*
X29400000Y-89040000D03*
X29400000Y-86500000D03*
X29400000Y-83960000D03*
%TD*%
D11*
%TO.C,CN6*%
X121100000Y-89670000D03*
X121100000Y-98310000D03*
D12*
X121630000Y-96880000D03*
D13*
X125280000Y-98310000D03*
D12*
X121630000Y-91100000D03*
D13*
X125280000Y-89670000D03*
%TD*%
D14*
%TO.C,D1*%
X82440000Y-85200000D03*
X81170000Y-85200000D03*
X79900000Y-85200000D03*
G36*
G01*
X77995000Y-86100000D02*
X77995000Y-84300000D01*
G75*
G02*
X78095000Y-84200000I100000J0D01*
G01*
X79165000Y-84200000D01*
G75*
G02*
X79265000Y-84300000I0J-100000D01*
G01*
X79265000Y-86100000D01*
G75*
G02*
X79165000Y-86200000I-100000J0D01*
G01*
X78095000Y-86200000D01*
G75*
G02*
X77995000Y-86100000I0J100000D01*
G01*
G37*
%TD*%
%TO.C,R19*%
G36*
G01*
X78987500Y-87875000D02*
X78412500Y-87875000D01*
G75*
G02*
X78125000Y-87587500I0J287500D01*
G01*
X78125000Y-86887500D01*
G75*
G02*
X78412500Y-86600000I287500J0D01*
G01*
X78987500Y-86600000D01*
G75*
G02*
X79275000Y-86887500I0J-287500D01*
G01*
X79275000Y-87587500D01*
G75*
G02*
X78987500Y-87875000I-287500J0D01*
G01*
G37*
G36*
G01*
X78987500Y-89600000D02*
X78412500Y-89600000D01*
G75*
G02*
X78125000Y-89312500I0J287500D01*
G01*
X78125000Y-88612500D01*
G75*
G02*
X78412500Y-88325000I287500J0D01*
G01*
X78987500Y-88325000D01*
G75*
G02*
X79275000Y-88612500I0J-287500D01*
G01*
X79275000Y-89312500D01*
G75*
G02*
X78987500Y-89600000I-287500J0D01*
G01*
G37*
%TD*%
D15*
%TO.C,CN5*%
X112110000Y-89540000D03*
X112110000Y-92080000D03*
X109570000Y-89540000D03*
X109570000Y-92080000D03*
X107030000Y-89540000D03*
G36*
G01*
X107880000Y-93030000D02*
X106180000Y-93030000D01*
G75*
G02*
X106080000Y-92930000I0J100000D01*
G01*
X106080000Y-91230000D01*
G75*
G02*
X106180000Y-91130000I100000J0D01*
G01*
X107880000Y-91130000D01*
G75*
G02*
X107980000Y-91230000I0J-100000D01*
G01*
X107980000Y-92930000D01*
G75*
G02*
X107880000Y-93030000I-100000J0D01*
G01*
G37*
%TD*%
D16*
%TO.C,SW1*%
X110410000Y-129620000D03*
X110410000Y-126620000D03*
D17*
X110410000Y-123770000D03*
%TD*%
D18*
%TO.C,CN7*%
X70460000Y-84960000D03*
X70460000Y-87500000D03*
X67920000Y-84960000D03*
X67920000Y-87500000D03*
X65380000Y-84960000D03*
X65380000Y-87500000D03*
X62840000Y-84960000D03*
X62840000Y-87500000D03*
X60300000Y-84960000D03*
G36*
G01*
X59350000Y-88350000D02*
X59350000Y-86650000D01*
G75*
G02*
X59450000Y-86550000I100000J0D01*
G01*
X61150000Y-86550000D01*
G75*
G02*
X61250000Y-86650000I0J-100000D01*
G01*
X61250000Y-88350000D01*
G75*
G02*
X61150000Y-88450000I-100000J0D01*
G01*
X59450000Y-88450000D01*
G75*
G02*
X59350000Y-88350000I0J100000D01*
G01*
G37*
%TD*%
D15*
%TO.C,CN4*%
X122340000Y-104840000D03*
X119800000Y-104840000D03*
X122340000Y-102300000D03*
G36*
G01*
X118850000Y-103150000D02*
X118850000Y-101450000D01*
G75*
G02*
X118950000Y-101350000I100000J0D01*
G01*
X120650000Y-101350000D01*
G75*
G02*
X120750000Y-101450000I0J-100000D01*
G01*
X120750000Y-103150000D01*
G75*
G02*
X120650000Y-103250000I-100000J0D01*
G01*
X118950000Y-103250000D01*
G75*
G02*
X118850000Y-103150000I0J100000D01*
G01*
G37*
%TD*%
%TO.C,CN3*%
X115697000Y-120713500D03*
X115697000Y-118173500D03*
X118237000Y-120713500D03*
G36*
G01*
X117387000Y-117223500D02*
X119087000Y-117223500D01*
G75*
G02*
X119187000Y-117323500I0J-100000D01*
G01*
X119187000Y-119023500D01*
G75*
G02*
X119087000Y-119123500I-100000J0D01*
G01*
X117387000Y-119123500D01*
G75*
G02*
X117287000Y-119023500I0J100000D01*
G01*
X117287000Y-117323500D01*
G75*
G02*
X117387000Y-117223500I100000J0D01*
G01*
G37*
%TD*%
%TO.C,U3*%
G36*
G01*
X76387000Y-114721000D02*
X76387000Y-119721000D01*
G75*
G02*
X76287000Y-119821000I-100000J0D01*
G01*
X71287000Y-119821000D01*
G75*
G02*
X71187000Y-119721000I0J100000D01*
G01*
X71187000Y-114721000D01*
G75*
G02*
X71287000Y-114621000I100000J0D01*
G01*
X76287000Y-114621000D01*
G75*
G02*
X76387000Y-114721000I0J-100000D01*
G01*
G37*
%TD*%
%TO.C,R18*%
G36*
G01*
X54292500Y-82895000D02*
X54867500Y-82895000D01*
G75*
G02*
X55155000Y-83182500I0J-287500D01*
G01*
X55155000Y-83857500D01*
G75*
G02*
X54867500Y-84145000I-287500J0D01*
G01*
X54292500Y-84145000D01*
G75*
G02*
X54005000Y-83857500I0J287500D01*
G01*
X54005000Y-83182500D01*
G75*
G02*
X54292500Y-82895000I287500J0D01*
G01*
G37*
G36*
G01*
X54292500Y-84645000D02*
X54867500Y-84645000D01*
G75*
G02*
X55155000Y-84932500I0J-287500D01*
G01*
X55155000Y-85607500D01*
G75*
G02*
X54867500Y-85895000I-287500J0D01*
G01*
X54292500Y-85895000D01*
G75*
G02*
X54005000Y-85607500I0J287500D01*
G01*
X54005000Y-84932500D01*
G75*
G02*
X54292500Y-84645000I287500J0D01*
G01*
G37*
%TD*%
%TO.C,D5*%
G36*
G01*
X51230000Y-82250000D02*
X53030000Y-82250000D01*
G75*
G02*
X53130000Y-82350000I0J-100000D01*
G01*
X53130000Y-84150000D01*
G75*
G02*
X53030000Y-84250000I-100000J0D01*
G01*
X51230000Y-84250000D01*
G75*
G02*
X51130000Y-84150000I0J100000D01*
G01*
X51130000Y-82350000D01*
G75*
G02*
X51230000Y-82250000I100000J0D01*
G01*
G37*
D19*
X52130000Y-85790000D03*
%TD*%
D20*
%TO.C,CN2*%
X93050000Y-85800000D03*
X101030000Y-85800000D03*
%TD*%
D19*
%TO.C,D3*%
X122682000Y-85725000D03*
G36*
G01*
X121782000Y-82185000D02*
X123582000Y-82185000D01*
G75*
G02*
X123682000Y-82285000I0J-100000D01*
G01*
X123682000Y-84085000D01*
G75*
G02*
X123582000Y-84185000I-100000J0D01*
G01*
X121782000Y-84185000D01*
G75*
G02*
X121682000Y-84085000I0J100000D01*
G01*
X121682000Y-82285000D01*
G75*
G02*
X121782000Y-82185000I100000J0D01*
G01*
G37*
%TD*%
D21*
%TO.C,Y1*%
X101660000Y-119040000D03*
X106540000Y-119040000D03*
%TD*%
%TO.C,C19*%
G36*
G01*
X58946000Y-112996500D02*
X58946000Y-113571500D01*
G75*
G02*
X58658500Y-113859000I-287500J0D01*
G01*
X57983500Y-113859000D01*
G75*
G02*
X57696000Y-113571500I0J287500D01*
G01*
X57696000Y-112996500D01*
G75*
G02*
X57983500Y-112709000I287500J0D01*
G01*
X58658500Y-112709000D01*
G75*
G02*
X58946000Y-112996500I0J-287500D01*
G01*
G37*
G36*
G01*
X60696000Y-112996500D02*
X60696000Y-113571500D01*
G75*
G02*
X60408500Y-113859000I-287500J0D01*
G01*
X59733500Y-113859000D01*
G75*
G02*
X59446000Y-113571500I0J287500D01*
G01*
X59446000Y-112996500D01*
G75*
G02*
X59733500Y-112709000I287500J0D01*
G01*
X60408500Y-112709000D01*
G75*
G02*
X60696000Y-112996500I0J-287500D01*
G01*
G37*
%TD*%
%TO.C,C37*%
G36*
G01*
X52574000Y-110396500D02*
X52574000Y-109821500D01*
G75*
G02*
X52861500Y-109534000I287500J0D01*
G01*
X53536500Y-109534000D01*
G75*
G02*
X53824000Y-109821500I0J-287500D01*
G01*
X53824000Y-110396500D01*
G75*
G02*
X53536500Y-110684000I-287500J0D01*
G01*
X52861500Y-110684000D01*
G75*
G02*
X52574000Y-110396500I0J287500D01*
G01*
G37*
G36*
G01*
X50824000Y-110396500D02*
X50824000Y-109821500D01*
G75*
G02*
X51111500Y-109534000I287500J0D01*
G01*
X51786500Y-109534000D01*
G75*
G02*
X52074000Y-109821500I0J-287500D01*
G01*
X52074000Y-110396500D01*
G75*
G02*
X51786500Y-110684000I-287500J0D01*
G01*
X51111500Y-110684000D01*
G75*
G02*
X50824000Y-110396500I0J287500D01*
G01*
G37*
%TD*%
%TO.C,C13*%
G36*
G01*
X59200001Y-107662500D02*
X59200001Y-108237500D01*
G75*
G02*
X58912501Y-108525000I-287500J0D01*
G01*
X58237501Y-108525000D01*
G75*
G02*
X57950001Y-108237500I0J287500D01*
G01*
X57950001Y-107662500D01*
G75*
G02*
X58237501Y-107375000I287500J0D01*
G01*
X58912501Y-107375000D01*
G75*
G02*
X59200001Y-107662500I0J-287500D01*
G01*
G37*
G36*
G01*
X60950001Y-107662500D02*
X60950001Y-108237500D01*
G75*
G02*
X60662501Y-108525000I-287500J0D01*
G01*
X59987501Y-108525000D01*
G75*
G02*
X59700001Y-108237500I0J287500D01*
G01*
X59700001Y-107662500D01*
G75*
G02*
X59987501Y-107375000I287500J0D01*
G01*
X60662501Y-107375000D01*
G75*
G02*
X60950001Y-107662500I0J-287500D01*
G01*
G37*
%TD*%
%TO.C,C9*%
G36*
G01*
X85961000Y-115222500D02*
X85961000Y-114647500D01*
G75*
G02*
X86248500Y-114360000I287500J0D01*
G01*
X86923500Y-114360000D01*
G75*
G02*
X87211000Y-114647500I0J-287500D01*
G01*
X87211000Y-115222500D01*
G75*
G02*
X86923500Y-115510000I-287500J0D01*
G01*
X86248500Y-115510000D01*
G75*
G02*
X85961000Y-115222500I0J287500D01*
G01*
G37*
G36*
G01*
X84211000Y-115222500D02*
X84211000Y-114647500D01*
G75*
G02*
X84498500Y-114360000I287500J0D01*
G01*
X85173500Y-114360000D01*
G75*
G02*
X85461000Y-114647500I0J-287500D01*
G01*
X85461000Y-115222500D01*
G75*
G02*
X85173500Y-115510000I-287500J0D01*
G01*
X84498500Y-115510000D01*
G75*
G02*
X84211000Y-115222500I0J287500D01*
G01*
G37*
%TD*%
%TO.C,C39*%
G36*
G01*
X97512500Y-101224999D02*
X98087500Y-101224999D01*
G75*
G02*
X98375000Y-101512499I0J-287500D01*
G01*
X98375000Y-102187499D01*
G75*
G02*
X98087500Y-102474999I-287500J0D01*
G01*
X97512500Y-102474999D01*
G75*
G02*
X97225000Y-102187499I0J287500D01*
G01*
X97225000Y-101512499D01*
G75*
G02*
X97512500Y-101224999I287500J0D01*
G01*
G37*
G36*
G01*
X97512500Y-99474999D02*
X98087500Y-99474999D01*
G75*
G02*
X98375000Y-99762499I0J-287500D01*
G01*
X98375000Y-100437499D01*
G75*
G02*
X98087500Y-100724999I-287500J0D01*
G01*
X97512500Y-100724999D01*
G75*
G02*
X97225000Y-100437499I0J287500D01*
G01*
X97225000Y-99762499D01*
G75*
G02*
X97512500Y-99474999I287500J0D01*
G01*
G37*
%TD*%
%TO.C,C27*%
G36*
G01*
X94150000Y-103812500D02*
X94150000Y-104387500D01*
G75*
G02*
X93862500Y-104675000I-287500J0D01*
G01*
X93187500Y-104675000D01*
G75*
G02*
X92900000Y-104387500I0J287500D01*
G01*
X92900000Y-103812500D01*
G75*
G02*
X93187500Y-103525000I287500J0D01*
G01*
X93862500Y-103525000D01*
G75*
G02*
X94150000Y-103812500I0J-287500D01*
G01*
G37*
G36*
G01*
X95900000Y-103812500D02*
X95900000Y-104387500D01*
G75*
G02*
X95612500Y-104675000I-287500J0D01*
G01*
X94937500Y-104675000D01*
G75*
G02*
X94650000Y-104387500I0J287500D01*
G01*
X94650000Y-103812500D01*
G75*
G02*
X94937500Y-103525000I287500J0D01*
G01*
X95612500Y-103525000D01*
G75*
G02*
X95900000Y-103812500I0J-287500D01*
G01*
G37*
%TD*%
%TO.C,C45*%
G36*
G01*
X42626500Y-140111000D02*
X42626500Y-140686000D01*
G75*
G02*
X42339000Y-140973500I-287500J0D01*
G01*
X41664000Y-140973500D01*
G75*
G02*
X41376500Y-140686000I0J287500D01*
G01*
X41376500Y-140111000D01*
G75*
G02*
X41664000Y-139823500I287500J0D01*
G01*
X42339000Y-139823500D01*
G75*
G02*
X42626500Y-140111000I0J-287500D01*
G01*
G37*
G36*
G01*
X44376500Y-140111000D02*
X44376500Y-140686000D01*
G75*
G02*
X44089000Y-140973500I-287500J0D01*
G01*
X43414000Y-140973500D01*
G75*
G02*
X43126500Y-140686000I0J287500D01*
G01*
X43126500Y-140111000D01*
G75*
G02*
X43414000Y-139823500I287500J0D01*
G01*
X44089000Y-139823500D01*
G75*
G02*
X44376500Y-140111000I0J-287500D01*
G01*
G37*
%TD*%
%TO.C,C47*%
G36*
G01*
X51961000Y-140111000D02*
X51961000Y-140686000D01*
G75*
G02*
X51673500Y-140973500I-287500J0D01*
G01*
X50998500Y-140973500D01*
G75*
G02*
X50711000Y-140686000I0J287500D01*
G01*
X50711000Y-140111000D01*
G75*
G02*
X50998500Y-139823500I287500J0D01*
G01*
X51673500Y-139823500D01*
G75*
G02*
X51961000Y-140111000I0J-287500D01*
G01*
G37*
G36*
G01*
X53711000Y-140111000D02*
X53711000Y-140686000D01*
G75*
G02*
X53423500Y-140973500I-287500J0D01*
G01*
X52748500Y-140973500D01*
G75*
G02*
X52461000Y-140686000I0J287500D01*
G01*
X52461000Y-140111000D01*
G75*
G02*
X52748500Y-139823500I287500J0D01*
G01*
X53423500Y-139823500D01*
G75*
G02*
X53711000Y-140111000I0J-287500D01*
G01*
G37*
%TD*%
%TO.C,C51*%
G36*
G01*
X47071501Y-140238000D02*
X47071501Y-140813000D01*
G75*
G02*
X46784001Y-141100500I-287500J0D01*
G01*
X46109001Y-141100500D01*
G75*
G02*
X45821501Y-140813000I0J287500D01*
G01*
X45821501Y-140238000D01*
G75*
G02*
X46109001Y-139950500I287500J0D01*
G01*
X46784001Y-139950500D01*
G75*
G02*
X47071501Y-140238000I0J-287500D01*
G01*
G37*
G36*
G01*
X48821501Y-140238000D02*
X48821501Y-140813000D01*
G75*
G02*
X48534001Y-141100500I-287500J0D01*
G01*
X47859001Y-141100500D01*
G75*
G02*
X47571501Y-140813000I0J287500D01*
G01*
X47571501Y-140238000D01*
G75*
G02*
X47859001Y-139950500I287500J0D01*
G01*
X48534001Y-139950500D01*
G75*
G02*
X48821501Y-140238000I0J-287500D01*
G01*
G37*
%TD*%
%TO.C,C44*%
G36*
G01*
X45118500Y-132895500D02*
X44543500Y-132895500D01*
G75*
G02*
X44256000Y-132608000I0J287500D01*
G01*
X44256000Y-131933000D01*
G75*
G02*
X44543500Y-131645500I287500J0D01*
G01*
X45118500Y-131645500D01*
G75*
G02*
X45406000Y-131933000I0J-287500D01*
G01*
X45406000Y-132608000D01*
G75*
G02*
X45118500Y-132895500I-287500J0D01*
G01*
G37*
G36*
G01*
X45118500Y-134645500D02*
X44543500Y-134645500D01*
G75*
G02*
X44256000Y-134358000I0J287500D01*
G01*
X44256000Y-133683000D01*
G75*
G02*
X44543500Y-133395500I287500J0D01*
G01*
X45118500Y-133395500D01*
G75*
G02*
X45406000Y-133683000I0J-287500D01*
G01*
X45406000Y-134358000D01*
G75*
G02*
X45118500Y-134645500I-287500J0D01*
G01*
G37*
%TD*%
%TO.C,C46*%
G36*
G01*
X49754000Y-133086000D02*
X49179000Y-133086000D01*
G75*
G02*
X48891500Y-132798500I0J287500D01*
G01*
X48891500Y-132123500D01*
G75*
G02*
X49179000Y-131836000I287500J0D01*
G01*
X49754000Y-131836000D01*
G75*
G02*
X50041500Y-132123500I0J-287500D01*
G01*
X50041500Y-132798500D01*
G75*
G02*
X49754000Y-133086000I-287500J0D01*
G01*
G37*
G36*
G01*
X49754000Y-134836000D02*
X49179000Y-134836000D01*
G75*
G02*
X48891500Y-134548500I0J287500D01*
G01*
X48891500Y-133873500D01*
G75*
G02*
X49179000Y-133586000I287500J0D01*
G01*
X49754000Y-133586000D01*
G75*
G02*
X50041500Y-133873500I0J-287500D01*
G01*
X50041500Y-134548500D01*
G75*
G02*
X49754000Y-134836000I-287500J0D01*
G01*
G37*
%TD*%
%TO.C,C50*%
G36*
G01*
X54326000Y-132832000D02*
X53751000Y-132832000D01*
G75*
G02*
X53463500Y-132544500I0J287500D01*
G01*
X53463500Y-131869500D01*
G75*
G02*
X53751000Y-131582000I287500J0D01*
G01*
X54326000Y-131582000D01*
G75*
G02*
X54613500Y-131869500I0J-287500D01*
G01*
X54613500Y-132544500D01*
G75*
G02*
X54326000Y-132832000I-287500J0D01*
G01*
G37*
G36*
G01*
X54326000Y-134582000D02*
X53751000Y-134582000D01*
G75*
G02*
X53463500Y-134294500I0J287500D01*
G01*
X53463500Y-133619500D01*
G75*
G02*
X53751000Y-133332000I287500J0D01*
G01*
X54326000Y-133332000D01*
G75*
G02*
X54613500Y-133619500I0J-287500D01*
G01*
X54613500Y-134294500D01*
G75*
G02*
X54326000Y-134582000I-287500J0D01*
G01*
G37*
%TD*%
%TO.C,U12*%
G36*
G01*
X54666000Y-137566500D02*
X55316000Y-137566500D01*
G75*
G02*
X55416000Y-137666500I0J-100000D01*
G01*
X55416000Y-138726500D01*
G75*
G02*
X55316000Y-138826500I-100000J0D01*
G01*
X54666000Y-138826500D01*
G75*
G02*
X54566000Y-138726500I0J100000D01*
G01*
X54566000Y-137666500D01*
G75*
G02*
X54666000Y-137566500I100000J0D01*
G01*
G37*
G36*
G01*
X53716000Y-137566500D02*
X54366000Y-137566500D01*
G75*
G02*
X54466000Y-137666500I0J-100000D01*
G01*
X54466000Y-138726500D01*
G75*
G02*
X54366000Y-138826500I-100000J0D01*
G01*
X53716000Y-138826500D01*
G75*
G02*
X53616000Y-138726500I0J100000D01*
G01*
X53616000Y-137666500D01*
G75*
G02*
X53716000Y-137566500I100000J0D01*
G01*
G37*
G36*
G01*
X55616000Y-137566500D02*
X56266000Y-137566500D01*
G75*
G02*
X56366000Y-137666500I0J-100000D01*
G01*
X56366000Y-138726500D01*
G75*
G02*
X56266000Y-138826500I-100000J0D01*
G01*
X55616000Y-138826500D01*
G75*
G02*
X55516000Y-138726500I0J100000D01*
G01*
X55516000Y-137666500D01*
G75*
G02*
X55616000Y-137566500I100000J0D01*
G01*
G37*
G36*
G01*
X55616000Y-135366500D02*
X56266000Y-135366500D01*
G75*
G02*
X56366000Y-135466500I0J-100000D01*
G01*
X56366000Y-136526500D01*
G75*
G02*
X56266000Y-136626500I-100000J0D01*
G01*
X55616000Y-136626500D01*
G75*
G02*
X55516000Y-136526500I0J100000D01*
G01*
X55516000Y-135466500D01*
G75*
G02*
X55616000Y-135366500I100000J0D01*
G01*
G37*
G36*
G01*
X54666000Y-135366500D02*
X55316000Y-135366500D01*
G75*
G02*
X55416000Y-135466500I0J-100000D01*
G01*
X55416000Y-136526500D01*
G75*
G02*
X55316000Y-136626500I-100000J0D01*
G01*
X54666000Y-136626500D01*
G75*
G02*
X54566000Y-136526500I0J100000D01*
G01*
X54566000Y-135466500D01*
G75*
G02*
X54666000Y-135366500I100000J0D01*
G01*
G37*
G36*
G01*
X53716000Y-135366500D02*
X54366000Y-135366500D01*
G75*
G02*
X54466000Y-135466500I0J-100000D01*
G01*
X54466000Y-136526500D01*
G75*
G02*
X54366000Y-136626500I-100000J0D01*
G01*
X53716000Y-136626500D01*
G75*
G02*
X53616000Y-136526500I0J100000D01*
G01*
X53616000Y-135466500D01*
G75*
G02*
X53716000Y-135366500I100000J0D01*
G01*
G37*
%TD*%
%TO.C,U10*%
G36*
G01*
X50094000Y-137566500D02*
X50744000Y-137566500D01*
G75*
G02*
X50844000Y-137666500I0J-100000D01*
G01*
X50844000Y-138726500D01*
G75*
G02*
X50744000Y-138826500I-100000J0D01*
G01*
X50094000Y-138826500D01*
G75*
G02*
X49994000Y-138726500I0J100000D01*
G01*
X49994000Y-137666500D01*
G75*
G02*
X50094000Y-137566500I100000J0D01*
G01*
G37*
G36*
G01*
X49144000Y-137566500D02*
X49794000Y-137566500D01*
G75*
G02*
X49894000Y-137666500I0J-100000D01*
G01*
X49894000Y-138726500D01*
G75*
G02*
X49794000Y-138826500I-100000J0D01*
G01*
X49144000Y-138826500D01*
G75*
G02*
X49044000Y-138726500I0J100000D01*
G01*
X49044000Y-137666500D01*
G75*
G02*
X49144000Y-137566500I100000J0D01*
G01*
G37*
G36*
G01*
X51044000Y-137566500D02*
X51694000Y-137566500D01*
G75*
G02*
X51794000Y-137666500I0J-100000D01*
G01*
X51794000Y-138726500D01*
G75*
G02*
X51694000Y-138826500I-100000J0D01*
G01*
X51044000Y-138826500D01*
G75*
G02*
X50944000Y-138726500I0J100000D01*
G01*
X50944000Y-137666500D01*
G75*
G02*
X51044000Y-137566500I100000J0D01*
G01*
G37*
G36*
G01*
X51044000Y-135366500D02*
X51694000Y-135366500D01*
G75*
G02*
X51794000Y-135466500I0J-100000D01*
G01*
X51794000Y-136526500D01*
G75*
G02*
X51694000Y-136626500I-100000J0D01*
G01*
X51044000Y-136626500D01*
G75*
G02*
X50944000Y-136526500I0J100000D01*
G01*
X50944000Y-135466500D01*
G75*
G02*
X51044000Y-135366500I100000J0D01*
G01*
G37*
G36*
G01*
X50094000Y-135366500D02*
X50744000Y-135366500D01*
G75*
G02*
X50844000Y-135466500I0J-100000D01*
G01*
X50844000Y-136526500D01*
G75*
G02*
X50744000Y-136626500I-100000J0D01*
G01*
X50094000Y-136626500D01*
G75*
G02*
X49994000Y-136526500I0J100000D01*
G01*
X49994000Y-135466500D01*
G75*
G02*
X50094000Y-135366500I100000J0D01*
G01*
G37*
G36*
G01*
X49144000Y-135366500D02*
X49794000Y-135366500D01*
G75*
G02*
X49894000Y-135466500I0J-100000D01*
G01*
X49894000Y-136526500D01*
G75*
G02*
X49794000Y-136626500I-100000J0D01*
G01*
X49144000Y-136626500D01*
G75*
G02*
X49044000Y-136526500I0J100000D01*
G01*
X49044000Y-135466500D01*
G75*
G02*
X49144000Y-135366500I100000J0D01*
G01*
G37*
%TD*%
%TO.C,U9*%
G36*
G01*
X45524500Y-137546000D02*
X46174500Y-137546000D01*
G75*
G02*
X46274500Y-137646000I0J-100000D01*
G01*
X46274500Y-138706000D01*
G75*
G02*
X46174500Y-138806000I-100000J0D01*
G01*
X45524500Y-138806000D01*
G75*
G02*
X45424500Y-138706000I0J100000D01*
G01*
X45424500Y-137646000D01*
G75*
G02*
X45524500Y-137546000I100000J0D01*
G01*
G37*
G36*
G01*
X44574500Y-137546000D02*
X45224500Y-137546000D01*
G75*
G02*
X45324500Y-137646000I0J-100000D01*
G01*
X45324500Y-138706000D01*
G75*
G02*
X45224500Y-138806000I-100000J0D01*
G01*
X44574500Y-138806000D01*
G75*
G02*
X44474500Y-138706000I0J100000D01*
G01*
X44474500Y-137646000D01*
G75*
G02*
X44574500Y-137546000I100000J0D01*
G01*
G37*
G36*
G01*
X46474500Y-137546000D02*
X47124500Y-137546000D01*
G75*
G02*
X47224500Y-137646000I0J-100000D01*
G01*
X47224500Y-138706000D01*
G75*
G02*
X47124500Y-138806000I-100000J0D01*
G01*
X46474500Y-138806000D01*
G75*
G02*
X46374500Y-138706000I0J100000D01*
G01*
X46374500Y-137646000D01*
G75*
G02*
X46474500Y-137546000I100000J0D01*
G01*
G37*
G36*
G01*
X46474500Y-135346000D02*
X47124500Y-135346000D01*
G75*
G02*
X47224500Y-135446000I0J-100000D01*
G01*
X47224500Y-136506000D01*
G75*
G02*
X47124500Y-136606000I-100000J0D01*
G01*
X46474500Y-136606000D01*
G75*
G02*
X46374500Y-136506000I0J100000D01*
G01*
X46374500Y-135446000D01*
G75*
G02*
X46474500Y-135346000I100000J0D01*
G01*
G37*
G36*
G01*
X45524500Y-135346000D02*
X46174500Y-135346000D01*
G75*
G02*
X46274500Y-135446000I0J-100000D01*
G01*
X46274500Y-136506000D01*
G75*
G02*
X46174500Y-136606000I-100000J0D01*
G01*
X45524500Y-136606000D01*
G75*
G02*
X45424500Y-136506000I0J100000D01*
G01*
X45424500Y-135446000D01*
G75*
G02*
X45524500Y-135346000I100000J0D01*
G01*
G37*
G36*
G01*
X44574500Y-135346000D02*
X45224500Y-135346000D01*
G75*
G02*
X45324500Y-135446000I0J-100000D01*
G01*
X45324500Y-136506000D01*
G75*
G02*
X45224500Y-136606000I-100000J0D01*
G01*
X44574500Y-136606000D01*
G75*
G02*
X44474500Y-136506000I0J100000D01*
G01*
X44474500Y-135446000D01*
G75*
G02*
X44574500Y-135346000I100000J0D01*
G01*
G37*
%TD*%
%TO.C,C33*%
G36*
G01*
X55517000Y-104995500D02*
X55517000Y-105570500D01*
G75*
G02*
X55229500Y-105858000I-287500J0D01*
G01*
X54554500Y-105858000D01*
G75*
G02*
X54267000Y-105570500I0J287500D01*
G01*
X54267000Y-104995500D01*
G75*
G02*
X54554500Y-104708000I287500J0D01*
G01*
X55229500Y-104708000D01*
G75*
G02*
X55517000Y-104995500I0J-287500D01*
G01*
G37*
G36*
G01*
X57267000Y-104995500D02*
X57267000Y-105570500D01*
G75*
G02*
X56979500Y-105858000I-287500J0D01*
G01*
X56304500Y-105858000D01*
G75*
G02*
X56017000Y-105570500I0J287500D01*
G01*
X56017000Y-104995500D01*
G75*
G02*
X56304500Y-104708000I287500J0D01*
G01*
X56979500Y-104708000D01*
G75*
G02*
X57267000Y-104995500I0J-287500D01*
G01*
G37*
%TD*%
%TO.C,C12*%
G36*
G01*
X64295500Y-103904001D02*
X63720500Y-103904001D01*
G75*
G02*
X63433000Y-103616501I0J287500D01*
G01*
X63433000Y-102941501D01*
G75*
G02*
X63720500Y-102654001I287500J0D01*
G01*
X64295500Y-102654001D01*
G75*
G02*
X64583000Y-102941501I0J-287500D01*
G01*
X64583000Y-103616501D01*
G75*
G02*
X64295500Y-103904001I-287500J0D01*
G01*
G37*
G36*
G01*
X64295500Y-105654001D02*
X63720500Y-105654001D01*
G75*
G02*
X63433000Y-105366501I0J287500D01*
G01*
X63433000Y-104691501D01*
G75*
G02*
X63720500Y-104404001I287500J0D01*
G01*
X64295500Y-104404001D01*
G75*
G02*
X64583000Y-104691501I0J-287500D01*
G01*
X64583000Y-105366501D01*
G75*
G02*
X64295500Y-105654001I-287500J0D01*
G01*
G37*
%TD*%
%TO.C,C34*%
G36*
G01*
X51834000Y-100296500D02*
X51834000Y-100871500D01*
G75*
G02*
X51546500Y-101159000I-287500J0D01*
G01*
X50871500Y-101159000D01*
G75*
G02*
X50584000Y-100871500I0J287500D01*
G01*
X50584000Y-100296500D01*
G75*
G02*
X50871500Y-100009000I287500J0D01*
G01*
X51546500Y-100009000D01*
G75*
G02*
X51834000Y-100296500I0J-287500D01*
G01*
G37*
G36*
G01*
X53584000Y-100296500D02*
X53584000Y-100871500D01*
G75*
G02*
X53296500Y-101159000I-287500J0D01*
G01*
X52621500Y-101159000D01*
G75*
G02*
X52334000Y-100871500I0J287500D01*
G01*
X52334000Y-100296500D01*
G75*
G02*
X52621500Y-100009000I287500J0D01*
G01*
X53296500Y-100009000D01*
G75*
G02*
X53584000Y-100296500I0J-287500D01*
G01*
G37*
%TD*%
%TO.C,C16*%
G36*
G01*
X77742000Y-125061500D02*
X77742000Y-125636500D01*
G75*
G02*
X77454500Y-125924000I-287500J0D01*
G01*
X76779500Y-125924000D01*
G75*
G02*
X76492000Y-125636500I0J287500D01*
G01*
X76492000Y-125061500D01*
G75*
G02*
X76779500Y-124774000I287500J0D01*
G01*
X77454500Y-124774000D01*
G75*
G02*
X77742000Y-125061500I0J-287500D01*
G01*
G37*
G36*
G01*
X79492000Y-125061500D02*
X79492000Y-125636500D01*
G75*
G02*
X79204500Y-125924000I-287500J0D01*
G01*
X78529500Y-125924000D01*
G75*
G02*
X78242000Y-125636500I0J287500D01*
G01*
X78242000Y-125061500D01*
G75*
G02*
X78529500Y-124774000I287500J0D01*
G01*
X79204500Y-124774000D01*
G75*
G02*
X79492000Y-125061500I0J-287500D01*
G01*
G37*
%TD*%
%TO.C,C1*%
G36*
G01*
X76360500Y-131590001D02*
X75785500Y-131590001D01*
G75*
G02*
X75498000Y-131302501I0J287500D01*
G01*
X75498000Y-130627501D01*
G75*
G02*
X75785500Y-130340001I287500J0D01*
G01*
X76360500Y-130340001D01*
G75*
G02*
X76648000Y-130627501I0J-287500D01*
G01*
X76648000Y-131302501D01*
G75*
G02*
X76360500Y-131590001I-287500J0D01*
G01*
G37*
G36*
G01*
X76360500Y-133340001D02*
X75785500Y-133340001D01*
G75*
G02*
X75498000Y-133052501I0J287500D01*
G01*
X75498000Y-132377501D01*
G75*
G02*
X75785500Y-132090001I287500J0D01*
G01*
X76360500Y-132090001D01*
G75*
G02*
X76648000Y-132377501I0J-287500D01*
G01*
X76648000Y-133052501D01*
G75*
G02*
X76360500Y-133340001I-287500J0D01*
G01*
G37*
%TD*%
%TO.C,C2*%
G36*
G01*
X60355000Y-137777000D02*
X60930000Y-137777000D01*
G75*
G02*
X61217500Y-138064500I0J-287500D01*
G01*
X61217500Y-138739500D01*
G75*
G02*
X60930000Y-139027000I-287500J0D01*
G01*
X60355000Y-139027000D01*
G75*
G02*
X60067500Y-138739500I0J287500D01*
G01*
X60067500Y-138064500D01*
G75*
G02*
X60355000Y-137777000I287500J0D01*
G01*
G37*
G36*
G01*
X60355000Y-136027000D02*
X60930000Y-136027000D01*
G75*
G02*
X61217500Y-136314500I0J-287500D01*
G01*
X61217500Y-136989500D01*
G75*
G02*
X60930000Y-137277000I-287500J0D01*
G01*
X60355000Y-137277000D01*
G75*
G02*
X60067500Y-136989500I0J287500D01*
G01*
X60067500Y-136314500D01*
G75*
G02*
X60355000Y-136027000I287500J0D01*
G01*
G37*
%TD*%
%TO.C,C11*%
G36*
G01*
X81694500Y-102507001D02*
X81119500Y-102507001D01*
G75*
G02*
X80832000Y-102219501I0J287500D01*
G01*
X80832000Y-101544501D01*
G75*
G02*
X81119500Y-101257001I287500J0D01*
G01*
X81694500Y-101257001D01*
G75*
G02*
X81982000Y-101544501I0J-287500D01*
G01*
X81982000Y-102219501D01*
G75*
G02*
X81694500Y-102507001I-287500J0D01*
G01*
G37*
G36*
G01*
X81694500Y-104257001D02*
X81119500Y-104257001D01*
G75*
G02*
X80832000Y-103969501I0J287500D01*
G01*
X80832000Y-103294501D01*
G75*
G02*
X81119500Y-103007001I287500J0D01*
G01*
X81694500Y-103007001D01*
G75*
G02*
X81982000Y-103294501I0J-287500D01*
G01*
X81982000Y-103969501D01*
G75*
G02*
X81694500Y-104257001I-287500J0D01*
G01*
G37*
%TD*%
%TO.C,C4*%
G36*
G01*
X85453000Y-122207500D02*
X85453000Y-121632500D01*
G75*
G02*
X85740500Y-121345000I287500J0D01*
G01*
X86415500Y-121345000D01*
G75*
G02*
X86703000Y-121632500I0J-287500D01*
G01*
X86703000Y-122207500D01*
G75*
G02*
X86415500Y-122495000I-287500J0D01*
G01*
X85740500Y-122495000D01*
G75*
G02*
X85453000Y-122207500I0J287500D01*
G01*
G37*
G36*
G01*
X83703000Y-122207500D02*
X83703000Y-121632500D01*
G75*
G02*
X83990500Y-121345000I287500J0D01*
G01*
X84665500Y-121345000D01*
G75*
G02*
X84953000Y-121632500I0J-287500D01*
G01*
X84953000Y-122207500D01*
G75*
G02*
X84665500Y-122495000I-287500J0D01*
G01*
X83990500Y-122495000D01*
G75*
G02*
X83703000Y-122207500I0J287500D01*
G01*
G37*
%TD*%
%TO.C,C5*%
G36*
G01*
X88148000Y-111285500D02*
X88148000Y-110710500D01*
G75*
G02*
X88435500Y-110423000I287500J0D01*
G01*
X89110500Y-110423000D01*
G75*
G02*
X89398000Y-110710500I0J-287500D01*
G01*
X89398000Y-111285500D01*
G75*
G02*
X89110500Y-111573000I-287500J0D01*
G01*
X88435500Y-111573000D01*
G75*
G02*
X88148000Y-111285500I0J287500D01*
G01*
G37*
G36*
G01*
X86398000Y-111285500D02*
X86398000Y-110710500D01*
G75*
G02*
X86685500Y-110423000I287500J0D01*
G01*
X87360500Y-110423000D01*
G75*
G02*
X87648000Y-110710500I0J-287500D01*
G01*
X87648000Y-111285500D01*
G75*
G02*
X87360500Y-111573000I-287500J0D01*
G01*
X86685500Y-111573000D01*
G75*
G02*
X86398000Y-111285500I0J287500D01*
G01*
G37*
%TD*%
%TO.C,C6*%
G36*
G01*
X68486500Y-123829000D02*
X67911500Y-123829000D01*
G75*
G02*
X67624000Y-123541500I0J287500D01*
G01*
X67624000Y-122866500D01*
G75*
G02*
X67911500Y-122579000I287500J0D01*
G01*
X68486500Y-122579000D01*
G75*
G02*
X68774000Y-122866500I0J-287500D01*
G01*
X68774000Y-123541500D01*
G75*
G02*
X68486500Y-123829000I-287500J0D01*
G01*
G37*
G36*
G01*
X68486500Y-125579000D02*
X67911500Y-125579000D01*
G75*
G02*
X67624000Y-125291500I0J287500D01*
G01*
X67624000Y-124616500D01*
G75*
G02*
X67911500Y-124329000I287500J0D01*
G01*
X68486500Y-124329000D01*
G75*
G02*
X68774000Y-124616500I0J-287500D01*
G01*
X68774000Y-125291500D01*
G75*
G02*
X68486500Y-125579000I-287500J0D01*
G01*
G37*
%TD*%
%TO.C,C18*%
G36*
G01*
X76360500Y-105555000D02*
X75785500Y-105555000D01*
G75*
G02*
X75498000Y-105267500I0J287500D01*
G01*
X75498000Y-104592500D01*
G75*
G02*
X75785500Y-104305000I287500J0D01*
G01*
X76360500Y-104305000D01*
G75*
G02*
X76648000Y-104592500I0J-287500D01*
G01*
X76648000Y-105267500D01*
G75*
G02*
X76360500Y-105555000I-287500J0D01*
G01*
G37*
G36*
G01*
X76360500Y-107305000D02*
X75785500Y-107305000D01*
G75*
G02*
X75498000Y-107017500I0J287500D01*
G01*
X75498000Y-106342500D01*
G75*
G02*
X75785500Y-106055000I287500J0D01*
G01*
X76360500Y-106055000D01*
G75*
G02*
X76648000Y-106342500I0J-287500D01*
G01*
X76648000Y-107017500D01*
G75*
G02*
X76360500Y-107305000I-287500J0D01*
G01*
G37*
%TD*%
%TO.C,C8*%
G36*
G01*
X88724999Y-123687500D02*
X88724999Y-123112500D01*
G75*
G02*
X89012499Y-122825000I287500J0D01*
G01*
X89687499Y-122825000D01*
G75*
G02*
X89974999Y-123112500I0J-287500D01*
G01*
X89974999Y-123687500D01*
G75*
G02*
X89687499Y-123975000I-287500J0D01*
G01*
X89012499Y-123975000D01*
G75*
G02*
X88724999Y-123687500I0J287500D01*
G01*
G37*
G36*
G01*
X86974999Y-123687500D02*
X86974999Y-123112500D01*
G75*
G02*
X87262499Y-122825000I287500J0D01*
G01*
X87937499Y-122825000D01*
G75*
G02*
X88224999Y-123112500I0J-287500D01*
G01*
X88224999Y-123687500D01*
G75*
G02*
X87937499Y-123975000I-287500J0D01*
G01*
X87262499Y-123975000D01*
G75*
G02*
X86974999Y-123687500I0J287500D01*
G01*
G37*
%TD*%
%TO.C,R12*%
G36*
G01*
X119473500Y-84084001D02*
X120048500Y-84084001D01*
G75*
G02*
X120336000Y-84371501I0J-287500D01*
G01*
X120336000Y-85046501D01*
G75*
G02*
X120048500Y-85334001I-287500J0D01*
G01*
X119473500Y-85334001D01*
G75*
G02*
X119186000Y-85046501I0J287500D01*
G01*
X119186000Y-84371501D01*
G75*
G02*
X119473500Y-84084001I287500J0D01*
G01*
G37*
G36*
G01*
X119473500Y-82334001D02*
X120048500Y-82334001D01*
G75*
G02*
X120336000Y-82621501I0J-287500D01*
G01*
X120336000Y-83296501D01*
G75*
G02*
X120048500Y-83584001I-287500J0D01*
G01*
X119473500Y-83584001D01*
G75*
G02*
X119186000Y-83296501I0J287500D01*
G01*
X119186000Y-82621501D01*
G75*
G02*
X119473500Y-82334001I287500J0D01*
G01*
G37*
%TD*%
%TO.C,R11*%
G36*
G01*
X81487500Y-87875001D02*
X80912500Y-87875001D01*
G75*
G02*
X80625000Y-87587501I0J287500D01*
G01*
X80625000Y-86912501D01*
G75*
G02*
X80912500Y-86625001I287500J0D01*
G01*
X81487500Y-86625001D01*
G75*
G02*
X81775000Y-86912501I0J-287500D01*
G01*
X81775000Y-87587501D01*
G75*
G02*
X81487500Y-87875001I-287500J0D01*
G01*
G37*
G36*
G01*
X81487500Y-89625001D02*
X80912500Y-89625001D01*
G75*
G02*
X80625000Y-89337501I0J287500D01*
G01*
X80625000Y-88662501D01*
G75*
G02*
X80912500Y-88375001I287500J0D01*
G01*
X81487500Y-88375001D01*
G75*
G02*
X81775000Y-88662501I0J-287500D01*
G01*
X81775000Y-89337501D01*
G75*
G02*
X81487500Y-89625001I-287500J0D01*
G01*
G37*
%TD*%
%TO.C,R10*%
G36*
G01*
X82987500Y-87875001D02*
X82412500Y-87875001D01*
G75*
G02*
X82125000Y-87587501I0J287500D01*
G01*
X82125000Y-86912501D01*
G75*
G02*
X82412500Y-86625001I287500J0D01*
G01*
X82987500Y-86625001D01*
G75*
G02*
X83275000Y-86912501I0J-287500D01*
G01*
X83275000Y-87587501D01*
G75*
G02*
X82987500Y-87875001I-287500J0D01*
G01*
G37*
G36*
G01*
X82987500Y-89625001D02*
X82412500Y-89625001D01*
G75*
G02*
X82125000Y-89337501I0J287500D01*
G01*
X82125000Y-88662501D01*
G75*
G02*
X82412500Y-88375001I287500J0D01*
G01*
X82987500Y-88375001D01*
G75*
G02*
X83275000Y-88662501I0J-287500D01*
G01*
X83275000Y-89337501D01*
G75*
G02*
X82987500Y-89625001I-287500J0D01*
G01*
G37*
%TD*%
%TO.C,C36*%
G36*
G01*
X49018000Y-106840500D02*
X49018000Y-106265500D01*
G75*
G02*
X49305500Y-105978000I287500J0D01*
G01*
X49980500Y-105978000D01*
G75*
G02*
X50268000Y-106265500I0J-287500D01*
G01*
X50268000Y-106840500D01*
G75*
G02*
X49980500Y-107128000I-287500J0D01*
G01*
X49305500Y-107128000D01*
G75*
G02*
X49018000Y-106840500I0J287500D01*
G01*
G37*
G36*
G01*
X47268000Y-106840500D02*
X47268000Y-106265500D01*
G75*
G02*
X47555500Y-105978000I287500J0D01*
G01*
X48230500Y-105978000D01*
G75*
G02*
X48518000Y-106265500I0J-287500D01*
G01*
X48518000Y-106840500D01*
G75*
G02*
X48230500Y-107128000I-287500J0D01*
G01*
X47555500Y-107128000D01*
G75*
G02*
X47268000Y-106840500I0J287500D01*
G01*
G37*
%TD*%
%TO.C,R5*%
G36*
G01*
X69816500Y-124710000D02*
X70391500Y-124710000D01*
G75*
G02*
X70679000Y-124997500I0J-287500D01*
G01*
X70679000Y-125672500D01*
G75*
G02*
X70391500Y-125960000I-287500J0D01*
G01*
X69816500Y-125960000D01*
G75*
G02*
X69529000Y-125672500I0J287500D01*
G01*
X69529000Y-124997500D01*
G75*
G02*
X69816500Y-124710000I287500J0D01*
G01*
G37*
G36*
G01*
X69816500Y-122960000D02*
X70391500Y-122960000D01*
G75*
G02*
X70679000Y-123247500I0J-287500D01*
G01*
X70679000Y-123922500D01*
G75*
G02*
X70391500Y-124210000I-287500J0D01*
G01*
X69816500Y-124210000D01*
G75*
G02*
X69529000Y-123922500I0J287500D01*
G01*
X69529000Y-123247500D01*
G75*
G02*
X69816500Y-122960000I287500J0D01*
G01*
G37*
%TD*%
%TO.C,R6*%
G36*
G01*
X77347000Y-92930500D02*
X77347000Y-93505500D01*
G75*
G02*
X77059500Y-93793000I-287500J0D01*
G01*
X76384500Y-93793000D01*
G75*
G02*
X76097000Y-93505500I0J287500D01*
G01*
X76097000Y-92930500D01*
G75*
G02*
X76384500Y-92643000I287500J0D01*
G01*
X77059500Y-92643000D01*
G75*
G02*
X77347000Y-92930500I0J-287500D01*
G01*
G37*
G36*
G01*
X79097000Y-92930500D02*
X79097000Y-93505500D01*
G75*
G02*
X78809500Y-93793000I-287500J0D01*
G01*
X78134500Y-93793000D01*
G75*
G02*
X77847000Y-93505500I0J287500D01*
G01*
X77847000Y-92930500D01*
G75*
G02*
X78134500Y-92643000I287500J0D01*
G01*
X78809500Y-92643000D01*
G75*
G02*
X79097000Y-92930500I0J-287500D01*
G01*
G37*
%TD*%
%TO.C,U1*%
G36*
G01*
X74091500Y-131597000D02*
X73806500Y-131597000D01*
G75*
G02*
X73706500Y-131497000I0J100000D01*
G01*
X73706500Y-130497000D01*
G75*
G02*
X73806500Y-130397000I100000J0D01*
G01*
X74091500Y-130397000D01*
G75*
G02*
X74191500Y-130497000I0J-100000D01*
G01*
X74191500Y-131497000D01*
G75*
G02*
X74091500Y-131597000I-100000J0D01*
G01*
G37*
G36*
G01*
X73591500Y-131597000D02*
X73306500Y-131597000D01*
G75*
G02*
X73206500Y-131497000I0J100000D01*
G01*
X73206500Y-130497000D01*
G75*
G02*
X73306500Y-130397000I100000J0D01*
G01*
X73591500Y-130397000D01*
G75*
G02*
X73691500Y-130497000I0J-100000D01*
G01*
X73691500Y-131497000D01*
G75*
G02*
X73591500Y-131597000I-100000J0D01*
G01*
G37*
G36*
G01*
X73091500Y-131597000D02*
X72806500Y-131597000D01*
G75*
G02*
X72706500Y-131497000I0J100000D01*
G01*
X72706500Y-130497000D01*
G75*
G02*
X72806500Y-130397000I100000J0D01*
G01*
X73091500Y-130397000D01*
G75*
G02*
X73191500Y-130497000I0J-100000D01*
G01*
X73191500Y-131497000D01*
G75*
G02*
X73091500Y-131597000I-100000J0D01*
G01*
G37*
G36*
G01*
X72591500Y-131597000D02*
X72306500Y-131597000D01*
G75*
G02*
X72206500Y-131497000I0J100000D01*
G01*
X72206500Y-130497000D01*
G75*
G02*
X72306500Y-130397000I100000J0D01*
G01*
X72591500Y-130397000D01*
G75*
G02*
X72691500Y-130497000I0J-100000D01*
G01*
X72691500Y-131497000D01*
G75*
G02*
X72591500Y-131597000I-100000J0D01*
G01*
G37*
G36*
G01*
X72091500Y-131597000D02*
X71806500Y-131597000D01*
G75*
G02*
X71706500Y-131497000I0J100000D01*
G01*
X71706500Y-130497000D01*
G75*
G02*
X71806500Y-130397000I100000J0D01*
G01*
X72091500Y-130397000D01*
G75*
G02*
X72191500Y-130497000I0J-100000D01*
G01*
X72191500Y-131497000D01*
G75*
G02*
X72091500Y-131597000I-100000J0D01*
G01*
G37*
G36*
G01*
X71591500Y-131597000D02*
X71306500Y-131597000D01*
G75*
G02*
X71206500Y-131497000I0J100000D01*
G01*
X71206500Y-130497000D01*
G75*
G02*
X71306500Y-130397000I100000J0D01*
G01*
X71591500Y-130397000D01*
G75*
G02*
X71691500Y-130497000I0J-100000D01*
G01*
X71691500Y-131497000D01*
G75*
G02*
X71591500Y-131597000I-100000J0D01*
G01*
G37*
G36*
G01*
X71091500Y-131597000D02*
X70806500Y-131597000D01*
G75*
G02*
X70706500Y-131497000I0J100000D01*
G01*
X70706500Y-130497000D01*
G75*
G02*
X70806500Y-130397000I100000J0D01*
G01*
X71091500Y-130397000D01*
G75*
G02*
X71191500Y-130497000I0J-100000D01*
G01*
X71191500Y-131497000D01*
G75*
G02*
X71091500Y-131597000I-100000J0D01*
G01*
G37*
G36*
G01*
X70591500Y-131597000D02*
X70306500Y-131597000D01*
G75*
G02*
X70206500Y-131497000I0J100000D01*
G01*
X70206500Y-130497000D01*
G75*
G02*
X70306500Y-130397000I100000J0D01*
G01*
X70591500Y-130397000D01*
G75*
G02*
X70691500Y-130497000I0J-100000D01*
G01*
X70691500Y-131497000D01*
G75*
G02*
X70591500Y-131597000I-100000J0D01*
G01*
G37*
G36*
G01*
X70091500Y-131597000D02*
X69806500Y-131597000D01*
G75*
G02*
X69706500Y-131497000I0J100000D01*
G01*
X69706500Y-130497000D01*
G75*
G02*
X69806500Y-130397000I100000J0D01*
G01*
X70091500Y-130397000D01*
G75*
G02*
X70191500Y-130497000I0J-100000D01*
G01*
X70191500Y-131497000D01*
G75*
G02*
X70091500Y-131597000I-100000J0D01*
G01*
G37*
G36*
G01*
X69591500Y-131597000D02*
X69306500Y-131597000D01*
G75*
G02*
X69206500Y-131497000I0J100000D01*
G01*
X69206500Y-130497000D01*
G75*
G02*
X69306500Y-130397000I100000J0D01*
G01*
X69591500Y-130397000D01*
G75*
G02*
X69691500Y-130497000I0J-100000D01*
G01*
X69691500Y-131497000D01*
G75*
G02*
X69591500Y-131597000I-100000J0D01*
G01*
G37*
G36*
G01*
X69091500Y-131597000D02*
X68806500Y-131597000D01*
G75*
G02*
X68706500Y-131497000I0J100000D01*
G01*
X68706500Y-130497000D01*
G75*
G02*
X68806500Y-130397000I100000J0D01*
G01*
X69091500Y-130397000D01*
G75*
G02*
X69191500Y-130497000I0J-100000D01*
G01*
X69191500Y-131497000D01*
G75*
G02*
X69091500Y-131597000I-100000J0D01*
G01*
G37*
G36*
G01*
X68591500Y-131597000D02*
X68306500Y-131597000D01*
G75*
G02*
X68206500Y-131497000I0J100000D01*
G01*
X68206500Y-130497000D01*
G75*
G02*
X68306500Y-130397000I100000J0D01*
G01*
X68591500Y-130397000D01*
G75*
G02*
X68691500Y-130497000I0J-100000D01*
G01*
X68691500Y-131497000D01*
G75*
G02*
X68591500Y-131597000I-100000J0D01*
G01*
G37*
G36*
G01*
X68091500Y-131597000D02*
X67806500Y-131597000D01*
G75*
G02*
X67706500Y-131497000I0J100000D01*
G01*
X67706500Y-130497000D01*
G75*
G02*
X67806500Y-130397000I100000J0D01*
G01*
X68091500Y-130397000D01*
G75*
G02*
X68191500Y-130497000I0J-100000D01*
G01*
X68191500Y-131497000D01*
G75*
G02*
X68091500Y-131597000I-100000J0D01*
G01*
G37*
G36*
G01*
X67591500Y-131597000D02*
X67306500Y-131597000D01*
G75*
G02*
X67206500Y-131497000I0J100000D01*
G01*
X67206500Y-130497000D01*
G75*
G02*
X67306500Y-130397000I100000J0D01*
G01*
X67591500Y-130397000D01*
G75*
G02*
X67691500Y-130497000I0J-100000D01*
G01*
X67691500Y-131497000D01*
G75*
G02*
X67591500Y-131597000I-100000J0D01*
G01*
G37*
G36*
G01*
X67091500Y-131597000D02*
X66806500Y-131597000D01*
G75*
G02*
X66706500Y-131497000I0J100000D01*
G01*
X66706500Y-130497000D01*
G75*
G02*
X66806500Y-130397000I100000J0D01*
G01*
X67091500Y-130397000D01*
G75*
G02*
X67191500Y-130497000I0J-100000D01*
G01*
X67191500Y-131497000D01*
G75*
G02*
X67091500Y-131597000I-100000J0D01*
G01*
G37*
G36*
G01*
X66591500Y-131597000D02*
X66306500Y-131597000D01*
G75*
G02*
X66206500Y-131497000I0J100000D01*
G01*
X66206500Y-130497000D01*
G75*
G02*
X66306500Y-130397000I100000J0D01*
G01*
X66591500Y-130397000D01*
G75*
G02*
X66691500Y-130497000I0J-100000D01*
G01*
X66691500Y-131497000D01*
G75*
G02*
X66591500Y-131597000I-100000J0D01*
G01*
G37*
G36*
G01*
X66091500Y-131597000D02*
X65806500Y-131597000D01*
G75*
G02*
X65706500Y-131497000I0J100000D01*
G01*
X65706500Y-130497000D01*
G75*
G02*
X65806500Y-130397000I100000J0D01*
G01*
X66091500Y-130397000D01*
G75*
G02*
X66191500Y-130497000I0J-100000D01*
G01*
X66191500Y-131497000D01*
G75*
G02*
X66091500Y-131597000I-100000J0D01*
G01*
G37*
G36*
G01*
X65591500Y-131597000D02*
X65306500Y-131597000D01*
G75*
G02*
X65206500Y-131497000I0J100000D01*
G01*
X65206500Y-130497000D01*
G75*
G02*
X65306500Y-130397000I100000J0D01*
G01*
X65591500Y-130397000D01*
G75*
G02*
X65691500Y-130497000I0J-100000D01*
G01*
X65691500Y-131497000D01*
G75*
G02*
X65591500Y-131597000I-100000J0D01*
G01*
G37*
G36*
G01*
X65091500Y-131597000D02*
X64806500Y-131597000D01*
G75*
G02*
X64706500Y-131497000I0J100000D01*
G01*
X64706500Y-130497000D01*
G75*
G02*
X64806500Y-130397000I100000J0D01*
G01*
X65091500Y-130397000D01*
G75*
G02*
X65191500Y-130497000I0J-100000D01*
G01*
X65191500Y-131497000D01*
G75*
G02*
X65091500Y-131597000I-100000J0D01*
G01*
G37*
G36*
G01*
X64591500Y-131597000D02*
X64306500Y-131597000D01*
G75*
G02*
X64206500Y-131497000I0J100000D01*
G01*
X64206500Y-130497000D01*
G75*
G02*
X64306500Y-130397000I100000J0D01*
G01*
X64591500Y-130397000D01*
G75*
G02*
X64691500Y-130497000I0J-100000D01*
G01*
X64691500Y-131497000D01*
G75*
G02*
X64591500Y-131597000I-100000J0D01*
G01*
G37*
G36*
G01*
X64091500Y-131597000D02*
X63806500Y-131597000D01*
G75*
G02*
X63706500Y-131497000I0J100000D01*
G01*
X63706500Y-130497000D01*
G75*
G02*
X63806500Y-130397000I100000J0D01*
G01*
X64091500Y-130397000D01*
G75*
G02*
X64191500Y-130497000I0J-100000D01*
G01*
X64191500Y-131497000D01*
G75*
G02*
X64091500Y-131597000I-100000J0D01*
G01*
G37*
G36*
G01*
X63591500Y-131597000D02*
X63306500Y-131597000D01*
G75*
G02*
X63206500Y-131497000I0J100000D01*
G01*
X63206500Y-130497000D01*
G75*
G02*
X63306500Y-130397000I100000J0D01*
G01*
X63591500Y-130397000D01*
G75*
G02*
X63691500Y-130497000I0J-100000D01*
G01*
X63691500Y-131497000D01*
G75*
G02*
X63591500Y-131597000I-100000J0D01*
G01*
G37*
G36*
G01*
X63091500Y-131597000D02*
X62806500Y-131597000D01*
G75*
G02*
X62706500Y-131497000I0J100000D01*
G01*
X62706500Y-130497000D01*
G75*
G02*
X62806500Y-130397000I100000J0D01*
G01*
X63091500Y-130397000D01*
G75*
G02*
X63191500Y-130497000I0J-100000D01*
G01*
X63191500Y-131497000D01*
G75*
G02*
X63091500Y-131597000I-100000J0D01*
G01*
G37*
G36*
G01*
X62591500Y-131597000D02*
X62306500Y-131597000D01*
G75*
G02*
X62206500Y-131497000I0J100000D01*
G01*
X62206500Y-130497000D01*
G75*
G02*
X62306500Y-130397000I100000J0D01*
G01*
X62591500Y-130397000D01*
G75*
G02*
X62691500Y-130497000I0J-100000D01*
G01*
X62691500Y-131497000D01*
G75*
G02*
X62591500Y-131597000I-100000J0D01*
G01*
G37*
G36*
G01*
X62591500Y-139097000D02*
X62306500Y-139097000D01*
G75*
G02*
X62206500Y-138997000I0J100000D01*
G01*
X62206500Y-137997000D01*
G75*
G02*
X62306500Y-137897000I100000J0D01*
G01*
X62591500Y-137897000D01*
G75*
G02*
X62691500Y-137997000I0J-100000D01*
G01*
X62691500Y-138997000D01*
G75*
G02*
X62591500Y-139097000I-100000J0D01*
G01*
G37*
G36*
G01*
X63091500Y-139097000D02*
X62806500Y-139097000D01*
G75*
G02*
X62706500Y-138997000I0J100000D01*
G01*
X62706500Y-137997000D01*
G75*
G02*
X62806500Y-137897000I100000J0D01*
G01*
X63091500Y-137897000D01*
G75*
G02*
X63191500Y-137997000I0J-100000D01*
G01*
X63191500Y-138997000D01*
G75*
G02*
X63091500Y-139097000I-100000J0D01*
G01*
G37*
G36*
G01*
X63591500Y-139097000D02*
X63306500Y-139097000D01*
G75*
G02*
X63206500Y-138997000I0J100000D01*
G01*
X63206500Y-137997000D01*
G75*
G02*
X63306500Y-137897000I100000J0D01*
G01*
X63591500Y-137897000D01*
G75*
G02*
X63691500Y-137997000I0J-100000D01*
G01*
X63691500Y-138997000D01*
G75*
G02*
X63591500Y-139097000I-100000J0D01*
G01*
G37*
G36*
G01*
X64091500Y-139097000D02*
X63806500Y-139097000D01*
G75*
G02*
X63706500Y-138997000I0J100000D01*
G01*
X63706500Y-137997000D01*
G75*
G02*
X63806500Y-137897000I100000J0D01*
G01*
X64091500Y-137897000D01*
G75*
G02*
X64191500Y-137997000I0J-100000D01*
G01*
X64191500Y-138997000D01*
G75*
G02*
X64091500Y-139097000I-100000J0D01*
G01*
G37*
G36*
G01*
X64591500Y-139097000D02*
X64306500Y-139097000D01*
G75*
G02*
X64206500Y-138997000I0J100000D01*
G01*
X64206500Y-137997000D01*
G75*
G02*
X64306500Y-137897000I100000J0D01*
G01*
X64591500Y-137897000D01*
G75*
G02*
X64691500Y-137997000I0J-100000D01*
G01*
X64691500Y-138997000D01*
G75*
G02*
X64591500Y-139097000I-100000J0D01*
G01*
G37*
G36*
G01*
X65091500Y-139097000D02*
X64806500Y-139097000D01*
G75*
G02*
X64706500Y-138997000I0J100000D01*
G01*
X64706500Y-137997000D01*
G75*
G02*
X64806500Y-137897000I100000J0D01*
G01*
X65091500Y-137897000D01*
G75*
G02*
X65191500Y-137997000I0J-100000D01*
G01*
X65191500Y-138997000D01*
G75*
G02*
X65091500Y-139097000I-100000J0D01*
G01*
G37*
G36*
G01*
X65591500Y-139097000D02*
X65306500Y-139097000D01*
G75*
G02*
X65206500Y-138997000I0J100000D01*
G01*
X65206500Y-137997000D01*
G75*
G02*
X65306500Y-137897000I100000J0D01*
G01*
X65591500Y-137897000D01*
G75*
G02*
X65691500Y-137997000I0J-100000D01*
G01*
X65691500Y-138997000D01*
G75*
G02*
X65591500Y-139097000I-100000J0D01*
G01*
G37*
G36*
G01*
X66091500Y-139097000D02*
X65806500Y-139097000D01*
G75*
G02*
X65706500Y-138997000I0J100000D01*
G01*
X65706500Y-137997000D01*
G75*
G02*
X65806500Y-137897000I100000J0D01*
G01*
X66091500Y-137897000D01*
G75*
G02*
X66191500Y-137997000I0J-100000D01*
G01*
X66191500Y-138997000D01*
G75*
G02*
X66091500Y-139097000I-100000J0D01*
G01*
G37*
G36*
G01*
X66591500Y-139097000D02*
X66306500Y-139097000D01*
G75*
G02*
X66206500Y-138997000I0J100000D01*
G01*
X66206500Y-137997000D01*
G75*
G02*
X66306500Y-137897000I100000J0D01*
G01*
X66591500Y-137897000D01*
G75*
G02*
X66691500Y-137997000I0J-100000D01*
G01*
X66691500Y-138997000D01*
G75*
G02*
X66591500Y-139097000I-100000J0D01*
G01*
G37*
G36*
G01*
X67091500Y-139097000D02*
X66806500Y-139097000D01*
G75*
G02*
X66706500Y-138997000I0J100000D01*
G01*
X66706500Y-137997000D01*
G75*
G02*
X66806500Y-137897000I100000J0D01*
G01*
X67091500Y-137897000D01*
G75*
G02*
X67191500Y-137997000I0J-100000D01*
G01*
X67191500Y-138997000D01*
G75*
G02*
X67091500Y-139097000I-100000J0D01*
G01*
G37*
G36*
G01*
X67591500Y-139097000D02*
X67306500Y-139097000D01*
G75*
G02*
X67206500Y-138997000I0J100000D01*
G01*
X67206500Y-137997000D01*
G75*
G02*
X67306500Y-137897000I100000J0D01*
G01*
X67591500Y-137897000D01*
G75*
G02*
X67691500Y-137997000I0J-100000D01*
G01*
X67691500Y-138997000D01*
G75*
G02*
X67591500Y-139097000I-100000J0D01*
G01*
G37*
G36*
G01*
X68091500Y-139097000D02*
X67806500Y-139097000D01*
G75*
G02*
X67706500Y-138997000I0J100000D01*
G01*
X67706500Y-137997000D01*
G75*
G02*
X67806500Y-137897000I100000J0D01*
G01*
X68091500Y-137897000D01*
G75*
G02*
X68191500Y-137997000I0J-100000D01*
G01*
X68191500Y-138997000D01*
G75*
G02*
X68091500Y-139097000I-100000J0D01*
G01*
G37*
G36*
G01*
X68591500Y-139097000D02*
X68306500Y-139097000D01*
G75*
G02*
X68206500Y-138997000I0J100000D01*
G01*
X68206500Y-137997000D01*
G75*
G02*
X68306500Y-137897000I100000J0D01*
G01*
X68591500Y-137897000D01*
G75*
G02*
X68691500Y-137997000I0J-100000D01*
G01*
X68691500Y-138997000D01*
G75*
G02*
X68591500Y-139097000I-100000J0D01*
G01*
G37*
G36*
G01*
X69091500Y-139097000D02*
X68806500Y-139097000D01*
G75*
G02*
X68706500Y-138997000I0J100000D01*
G01*
X68706500Y-137997000D01*
G75*
G02*
X68806500Y-137897000I100000J0D01*
G01*
X69091500Y-137897000D01*
G75*
G02*
X69191500Y-137997000I0J-100000D01*
G01*
X69191500Y-138997000D01*
G75*
G02*
X69091500Y-139097000I-100000J0D01*
G01*
G37*
G36*
G01*
X69591500Y-139097000D02*
X69306500Y-139097000D01*
G75*
G02*
X69206500Y-138997000I0J100000D01*
G01*
X69206500Y-137997000D01*
G75*
G02*
X69306500Y-137897000I100000J0D01*
G01*
X69591500Y-137897000D01*
G75*
G02*
X69691500Y-137997000I0J-100000D01*
G01*
X69691500Y-138997000D01*
G75*
G02*
X69591500Y-139097000I-100000J0D01*
G01*
G37*
G36*
G01*
X70091500Y-139097000D02*
X69806500Y-139097000D01*
G75*
G02*
X69706500Y-138997000I0J100000D01*
G01*
X69706500Y-137997000D01*
G75*
G02*
X69806500Y-137897000I100000J0D01*
G01*
X70091500Y-137897000D01*
G75*
G02*
X70191500Y-137997000I0J-100000D01*
G01*
X70191500Y-138997000D01*
G75*
G02*
X70091500Y-139097000I-100000J0D01*
G01*
G37*
G36*
G01*
X70591500Y-139097000D02*
X70306500Y-139097000D01*
G75*
G02*
X70206500Y-138997000I0J100000D01*
G01*
X70206500Y-137997000D01*
G75*
G02*
X70306500Y-137897000I100000J0D01*
G01*
X70591500Y-137897000D01*
G75*
G02*
X70691500Y-137997000I0J-100000D01*
G01*
X70691500Y-138997000D01*
G75*
G02*
X70591500Y-139097000I-100000J0D01*
G01*
G37*
G36*
G01*
X71091500Y-139097000D02*
X70806500Y-139097000D01*
G75*
G02*
X70706500Y-138997000I0J100000D01*
G01*
X70706500Y-137997000D01*
G75*
G02*
X70806500Y-137897000I100000J0D01*
G01*
X71091500Y-137897000D01*
G75*
G02*
X71191500Y-137997000I0J-100000D01*
G01*
X71191500Y-138997000D01*
G75*
G02*
X71091500Y-139097000I-100000J0D01*
G01*
G37*
G36*
G01*
X71591500Y-139097000D02*
X71306500Y-139097000D01*
G75*
G02*
X71206500Y-138997000I0J100000D01*
G01*
X71206500Y-137997000D01*
G75*
G02*
X71306500Y-137897000I100000J0D01*
G01*
X71591500Y-137897000D01*
G75*
G02*
X71691500Y-137997000I0J-100000D01*
G01*
X71691500Y-138997000D01*
G75*
G02*
X71591500Y-139097000I-100000J0D01*
G01*
G37*
G36*
G01*
X72091500Y-139097000D02*
X71806500Y-139097000D01*
G75*
G02*
X71706500Y-138997000I0J100000D01*
G01*
X71706500Y-137997000D01*
G75*
G02*
X71806500Y-137897000I100000J0D01*
G01*
X72091500Y-137897000D01*
G75*
G02*
X72191500Y-137997000I0J-100000D01*
G01*
X72191500Y-138997000D01*
G75*
G02*
X72091500Y-139097000I-100000J0D01*
G01*
G37*
G36*
G01*
X72591500Y-139097000D02*
X72306500Y-139097000D01*
G75*
G02*
X72206500Y-138997000I0J100000D01*
G01*
X72206500Y-137997000D01*
G75*
G02*
X72306500Y-137897000I100000J0D01*
G01*
X72591500Y-137897000D01*
G75*
G02*
X72691500Y-137997000I0J-100000D01*
G01*
X72691500Y-138997000D01*
G75*
G02*
X72591500Y-139097000I-100000J0D01*
G01*
G37*
G36*
G01*
X73091500Y-139097000D02*
X72806500Y-139097000D01*
G75*
G02*
X72706500Y-138997000I0J100000D01*
G01*
X72706500Y-137997000D01*
G75*
G02*
X72806500Y-137897000I100000J0D01*
G01*
X73091500Y-137897000D01*
G75*
G02*
X73191500Y-137997000I0J-100000D01*
G01*
X73191500Y-138997000D01*
G75*
G02*
X73091500Y-139097000I-100000J0D01*
G01*
G37*
G36*
G01*
X73591500Y-139097000D02*
X73306500Y-139097000D01*
G75*
G02*
X73206500Y-138997000I0J100000D01*
G01*
X73206500Y-137997000D01*
G75*
G02*
X73306500Y-137897000I100000J0D01*
G01*
X73591500Y-137897000D01*
G75*
G02*
X73691500Y-137997000I0J-100000D01*
G01*
X73691500Y-138997000D01*
G75*
G02*
X73591500Y-139097000I-100000J0D01*
G01*
G37*
G36*
G01*
X74091500Y-139097000D02*
X73806500Y-139097000D01*
G75*
G02*
X73706500Y-138997000I0J100000D01*
G01*
X73706500Y-137997000D01*
G75*
G02*
X73806500Y-137897000I100000J0D01*
G01*
X74091500Y-137897000D01*
G75*
G02*
X74191500Y-137997000I0J-100000D01*
G01*
X74191500Y-138997000D01*
G75*
G02*
X74091500Y-139097000I-100000J0D01*
G01*
G37*
%TD*%
D22*
X114731800Y-158153100D02*
X82984340Y-158153100D01*
X82984340Y-150157180D01*
X114731800Y-150157180D01*
X114731800Y-158153100D01*
D23*
G36*
X114731800Y-158153100D02*
G01*
X82984340Y-158153100D01*
X82984340Y-150157180D01*
X114731800Y-150157180D01*
X114731800Y-158153100D01*
G37*
D22*
X76730860Y-158153100D02*
X39984680Y-158153100D01*
X39984680Y-150157180D01*
X76730860Y-150157180D01*
X76730860Y-158153100D01*
D23*
G36*
X76730860Y-158153100D02*
G01*
X39984680Y-158153100D01*
X39984680Y-150157180D01*
X76730860Y-150157180D01*
X76730860Y-158153100D01*
G37*
G36*
X73708232Y-137896000D02*
G01*
X73708500Y-137897000D01*
X73708500Y-139097000D01*
X73707500Y-139098732D01*
X73706500Y-139099000D01*
X73691500Y-139099000D01*
X73689768Y-139098000D01*
X73689500Y-139097000D01*
X73689500Y-137899000D01*
X73208500Y-137899000D01*
X73208500Y-139097000D01*
X73207500Y-139098732D01*
X73206500Y-139099000D01*
X73191500Y-139099000D01*
X73189768Y-139098000D01*
X73189500Y-139097000D01*
X73189500Y-137899000D01*
X72708500Y-137899000D01*
X72708500Y-139097000D01*
X72707500Y-139098732D01*
X72706500Y-139099000D01*
X72691500Y-139099000D01*
X72689768Y-139098000D01*
X72689500Y-139097000D01*
X72689500Y-137899000D01*
X72208500Y-137899000D01*
X72208500Y-139097000D01*
X72207500Y-139098732D01*
X72206500Y-139099000D01*
X72191500Y-139099000D01*
X72189768Y-139098000D01*
X72189500Y-139097000D01*
X72189500Y-137899000D01*
X71708500Y-137899000D01*
X71708500Y-139097000D01*
X71707500Y-139098732D01*
X71706500Y-139099000D01*
X71691500Y-139099000D01*
X71689768Y-139098000D01*
X71689500Y-139097000D01*
X71689500Y-137899000D01*
X71208500Y-137899000D01*
X71208500Y-139097000D01*
X71207500Y-139098732D01*
X71206500Y-139099000D01*
X71191500Y-139099000D01*
X71189768Y-139098000D01*
X71189500Y-139097000D01*
X71189500Y-137899000D01*
X70708500Y-137899000D01*
X70708500Y-139097000D01*
X70707500Y-139098732D01*
X70706500Y-139099000D01*
X70691500Y-139099000D01*
X70689768Y-139098000D01*
X70689500Y-139097000D01*
X70689500Y-137899000D01*
X70208500Y-137899000D01*
X70208500Y-139097000D01*
X70207500Y-139098732D01*
X70206500Y-139099000D01*
X70191500Y-139099000D01*
X70189768Y-139098000D01*
X70189500Y-139097000D01*
X70189500Y-137899000D01*
X69708500Y-137899000D01*
X69708500Y-139097000D01*
X69707500Y-139098732D01*
X69706500Y-139099000D01*
X69691500Y-139099000D01*
X69689768Y-139098000D01*
X69689500Y-139097000D01*
X69689500Y-137899000D01*
X69208500Y-137899000D01*
X69208500Y-139097000D01*
X69207500Y-139098732D01*
X69206500Y-139099000D01*
X69191500Y-139099000D01*
X69189768Y-139098000D01*
X69189500Y-139097000D01*
X69189500Y-137899000D01*
X68708500Y-137899000D01*
X68708500Y-139097000D01*
X68707500Y-139098732D01*
X68706500Y-139099000D01*
X68691500Y-139099000D01*
X68689768Y-139098000D01*
X68689500Y-139097000D01*
X68689500Y-137899000D01*
X68208500Y-137899000D01*
X68208500Y-139097000D01*
X68207500Y-139098732D01*
X68206500Y-139099000D01*
X68191500Y-139099000D01*
X68189768Y-139098000D01*
X68189500Y-139097000D01*
X68189500Y-137899000D01*
X67708500Y-137899000D01*
X67708500Y-139097000D01*
X67707500Y-139098732D01*
X67706500Y-139099000D01*
X67691500Y-139099000D01*
X67689768Y-139098000D01*
X67689500Y-139097000D01*
X67689500Y-137899000D01*
X67208500Y-137899000D01*
X67208500Y-139097000D01*
X67207500Y-139098732D01*
X67206500Y-139099000D01*
X67191500Y-139099000D01*
X67189768Y-139098000D01*
X67189500Y-139097000D01*
X67189500Y-137899000D01*
X66708500Y-137899000D01*
X66708500Y-139097000D01*
X66707500Y-139098732D01*
X66706500Y-139099000D01*
X66691500Y-139099000D01*
X66689768Y-139098000D01*
X66689500Y-139097000D01*
X66689500Y-137899000D01*
X66208500Y-137899000D01*
X66208500Y-139097000D01*
X66207500Y-139098732D01*
X66206500Y-139099000D01*
X66191500Y-139099000D01*
X66189768Y-139098000D01*
X66189500Y-139097000D01*
X66189500Y-137899000D01*
X65708500Y-137899000D01*
X65708500Y-139097000D01*
X65707500Y-139098732D01*
X65706500Y-139099000D01*
X65691500Y-139099000D01*
X65689768Y-139098000D01*
X65689500Y-139097000D01*
X65689500Y-137899000D01*
X65208500Y-137899000D01*
X65208500Y-139097000D01*
X65207500Y-139098732D01*
X65206500Y-139099000D01*
X65191500Y-139099000D01*
X65189768Y-139098000D01*
X65189500Y-139097000D01*
X65189500Y-137899000D01*
X64708500Y-137899000D01*
X64708500Y-139097000D01*
X64707500Y-139098732D01*
X64706500Y-139099000D01*
X64691500Y-139099000D01*
X64689768Y-139098000D01*
X64689500Y-139097000D01*
X64689500Y-137899000D01*
X64208500Y-137899000D01*
X64208500Y-139097000D01*
X64207500Y-139098732D01*
X64206500Y-139099000D01*
X64191500Y-139099000D01*
X64189768Y-139098000D01*
X64189500Y-139097000D01*
X64189500Y-137899000D01*
X63708500Y-137899000D01*
X63708500Y-139097000D01*
X63707500Y-139098732D01*
X63706500Y-139099000D01*
X63691500Y-139099000D01*
X63689768Y-139098000D01*
X63689500Y-139097000D01*
X63689500Y-137899000D01*
X63208500Y-137899000D01*
X63208500Y-139097000D01*
X63207500Y-139098732D01*
X63206500Y-139099000D01*
X63191500Y-139099000D01*
X63189768Y-139098000D01*
X63189500Y-139097000D01*
X63189500Y-137899000D01*
X62708500Y-137899000D01*
X62708500Y-139097000D01*
X62707500Y-139098732D01*
X62706500Y-139099000D01*
X62691500Y-139099000D01*
X62689768Y-139098000D01*
X62689500Y-139097000D01*
X62689500Y-137897000D01*
X62690500Y-137895268D01*
X62691500Y-137895000D01*
X73706500Y-137895000D01*
X73708232Y-137896000D01*
G37*
G36*
X50945732Y-137565500D02*
G01*
X50946000Y-137566500D01*
X50946000Y-138826500D01*
X50945000Y-138828232D01*
X50944000Y-138828500D01*
X50844000Y-138828500D01*
X50842268Y-138827500D01*
X50842000Y-138826500D01*
X50842000Y-137568500D01*
X49996000Y-137568500D01*
X49996000Y-138826500D01*
X49995000Y-138828232D01*
X49994000Y-138828500D01*
X49894000Y-138828500D01*
X49892268Y-138827500D01*
X49892000Y-138826500D01*
X49892000Y-137566500D01*
X49893000Y-137564768D01*
X49894000Y-137564500D01*
X50944000Y-137564500D01*
X50945732Y-137565500D01*
G37*
G36*
X55517732Y-137565500D02*
G01*
X55518000Y-137566500D01*
X55518000Y-138826500D01*
X55517000Y-138828232D01*
X55516000Y-138828500D01*
X55416000Y-138828500D01*
X55414268Y-138827500D01*
X55414000Y-138826500D01*
X55414000Y-137568500D01*
X54568000Y-137568500D01*
X54568000Y-138826500D01*
X54567000Y-138828232D01*
X54566000Y-138828500D01*
X54466000Y-138828500D01*
X54464268Y-138827500D01*
X54464000Y-138826500D01*
X54464000Y-137566500D01*
X54465000Y-137564768D01*
X54466000Y-137564500D01*
X55516000Y-137564500D01*
X55517732Y-137565500D01*
G37*
G36*
X46376232Y-137545000D02*
G01*
X46376500Y-137546000D01*
X46376500Y-138806000D01*
X46375500Y-138807732D01*
X46374500Y-138808000D01*
X46274500Y-138808000D01*
X46272768Y-138807000D01*
X46272500Y-138806000D01*
X46272500Y-137548000D01*
X45426500Y-137548000D01*
X45426500Y-138806000D01*
X45425500Y-138807732D01*
X45424500Y-138808000D01*
X45324500Y-138808000D01*
X45322768Y-138807000D01*
X45322500Y-138806000D01*
X45322500Y-137546000D01*
X45323500Y-137544268D01*
X45324500Y-137544000D01*
X46374500Y-137544000D01*
X46376232Y-137545000D01*
G37*
G36*
X55517732Y-135365500D02*
G01*
X55518000Y-135366500D01*
X55518000Y-136626500D01*
X55517000Y-136628232D01*
X55516000Y-136628500D01*
X55416000Y-136628500D01*
X55414268Y-136627500D01*
X55414000Y-136626500D01*
X55414000Y-135368500D01*
X54568000Y-135368500D01*
X54568000Y-136626500D01*
X54567000Y-136628232D01*
X54566000Y-136628500D01*
X54466000Y-136628500D01*
X54464268Y-136627500D01*
X54464000Y-136626500D01*
X54464000Y-135366500D01*
X54465000Y-135364768D01*
X54466000Y-135364500D01*
X55516000Y-135364500D01*
X55517732Y-135365500D01*
G37*
G36*
X50945732Y-135365500D02*
G01*
X50946000Y-135366500D01*
X50946000Y-136626500D01*
X50945000Y-136628232D01*
X50944000Y-136628500D01*
X50844000Y-136628500D01*
X50842268Y-136627500D01*
X50842000Y-136626500D01*
X50842000Y-135368500D01*
X49996000Y-135368500D01*
X49996000Y-136626500D01*
X49995000Y-136628232D01*
X49994000Y-136628500D01*
X49894000Y-136628500D01*
X49892268Y-136627500D01*
X49892000Y-136626500D01*
X49892000Y-135366500D01*
X49893000Y-135364768D01*
X49894000Y-135364500D01*
X50944000Y-135364500D01*
X50945732Y-135365500D01*
G37*
G36*
X46376232Y-135345000D02*
G01*
X46376500Y-135346000D01*
X46376500Y-136606000D01*
X46375500Y-136607732D01*
X46374500Y-136608000D01*
X46274500Y-136608000D01*
X46272768Y-136607000D01*
X46272500Y-136606000D01*
X46272500Y-135348000D01*
X45426500Y-135348000D01*
X45426500Y-136606000D01*
X45425500Y-136607732D01*
X45424500Y-136608000D01*
X45324500Y-136608000D01*
X45322768Y-136607000D01*
X45322500Y-136606000D01*
X45322500Y-135346000D01*
X45323500Y-135344268D01*
X45324500Y-135344000D01*
X46374500Y-135344000D01*
X46376232Y-135345000D01*
G37*
G36*
X73708232Y-130396000D02*
G01*
X73708500Y-130397000D01*
X73708500Y-131597000D01*
X73707500Y-131598732D01*
X73706500Y-131599000D01*
X73691500Y-131599000D01*
X73689768Y-131598000D01*
X73689500Y-131597000D01*
X73689500Y-130399000D01*
X73208500Y-130399000D01*
X73208500Y-131597000D01*
X73207500Y-131598732D01*
X73206500Y-131599000D01*
X73191500Y-131599000D01*
X73189768Y-131598000D01*
X73189500Y-131597000D01*
X73189500Y-130399000D01*
X72708500Y-130399000D01*
X72708500Y-131597000D01*
X72707500Y-131598732D01*
X72706500Y-131599000D01*
X72691500Y-131599000D01*
X72689768Y-131598000D01*
X72689500Y-131597000D01*
X72689500Y-130399000D01*
X72208500Y-130399000D01*
X72208500Y-131597000D01*
X72207500Y-131598732D01*
X72206500Y-131599000D01*
X72191500Y-131599000D01*
X72189768Y-131598000D01*
X72189500Y-131597000D01*
X72189500Y-130399000D01*
X71708500Y-130399000D01*
X71708500Y-131597000D01*
X71707500Y-131598732D01*
X71706500Y-131599000D01*
X71691500Y-131599000D01*
X71689768Y-131598000D01*
X71689500Y-131597000D01*
X71689500Y-130399000D01*
X71208500Y-130399000D01*
X71208500Y-131597000D01*
X71207500Y-131598732D01*
X71206500Y-131599000D01*
X71191500Y-131599000D01*
X71189768Y-131598000D01*
X71189500Y-131597000D01*
X71189500Y-130399000D01*
X70708500Y-130399000D01*
X70708500Y-131597000D01*
X70707500Y-131598732D01*
X70706500Y-131599000D01*
X70691500Y-131599000D01*
X70689768Y-131598000D01*
X70689500Y-131597000D01*
X70689500Y-130399000D01*
X70208500Y-130399000D01*
X70208500Y-131597000D01*
X70207500Y-131598732D01*
X70206500Y-131599000D01*
X70191500Y-131599000D01*
X70189768Y-131598000D01*
X70189500Y-131597000D01*
X70189500Y-130399000D01*
X69708500Y-130399000D01*
X69708500Y-131597000D01*
X69707500Y-131598732D01*
X69706500Y-131599000D01*
X69691500Y-131599000D01*
X69689768Y-131598000D01*
X69689500Y-131597000D01*
X69689500Y-130399000D01*
X69208500Y-130399000D01*
X69208500Y-131597000D01*
X69207500Y-131598732D01*
X69206500Y-131599000D01*
X69191500Y-131599000D01*
X69189768Y-131598000D01*
X69189500Y-131597000D01*
X69189500Y-130399000D01*
X68708500Y-130399000D01*
X68708500Y-131597000D01*
X68707500Y-131598732D01*
X68706500Y-131599000D01*
X68691500Y-131599000D01*
X68689768Y-131598000D01*
X68689500Y-131597000D01*
X68689500Y-130399000D01*
X68208500Y-130399000D01*
X68208500Y-131597000D01*
X68207500Y-131598732D01*
X68206500Y-131599000D01*
X68191500Y-131599000D01*
X68189768Y-131598000D01*
X68189500Y-131597000D01*
X68189500Y-130399000D01*
X67708500Y-130399000D01*
X67708500Y-131597000D01*
X67707500Y-131598732D01*
X67706500Y-131599000D01*
X67691500Y-131599000D01*
X67689768Y-131598000D01*
X67689500Y-131597000D01*
X67689500Y-130399000D01*
X67208500Y-130399000D01*
X67208500Y-131597000D01*
X67207500Y-131598732D01*
X67206500Y-131599000D01*
X67191500Y-131599000D01*
X67189768Y-131598000D01*
X67189500Y-131597000D01*
X67189500Y-130399000D01*
X66708500Y-130399000D01*
X66708500Y-131597000D01*
X66707500Y-131598732D01*
X66706500Y-131599000D01*
X66691500Y-131599000D01*
X66689768Y-131598000D01*
X66689500Y-131597000D01*
X66689500Y-130399000D01*
X66208500Y-130399000D01*
X66208500Y-131597000D01*
X66207500Y-131598732D01*
X66206500Y-131599000D01*
X66191500Y-131599000D01*
X66189768Y-131598000D01*
X66189500Y-131597000D01*
X66189500Y-130399000D01*
X65708500Y-130399000D01*
X65708500Y-131597000D01*
X65707500Y-131598732D01*
X65706500Y-131599000D01*
X65691500Y-131599000D01*
X65689768Y-131598000D01*
X65689500Y-131597000D01*
X65689500Y-130399000D01*
X65208500Y-130399000D01*
X65208500Y-131597000D01*
X65207500Y-131598732D01*
X65206500Y-131599000D01*
X65191500Y-131599000D01*
X65189768Y-131598000D01*
X65189500Y-131597000D01*
X65189500Y-130399000D01*
X64708500Y-130399000D01*
X64708500Y-131597000D01*
X64707500Y-131598732D01*
X64706500Y-131599000D01*
X64691500Y-131599000D01*
X64689768Y-131598000D01*
X64689500Y-131597000D01*
X64689500Y-130399000D01*
X64208500Y-130399000D01*
X64208500Y-131597000D01*
X64207500Y-131598732D01*
X64206500Y-131599000D01*
X64191500Y-131599000D01*
X64189768Y-131598000D01*
X64189500Y-131597000D01*
X64189500Y-130399000D01*
X63708500Y-130399000D01*
X63708500Y-131597000D01*
X63707500Y-131598732D01*
X63706500Y-131599000D01*
X63691500Y-131599000D01*
X63689768Y-131598000D01*
X63689500Y-131597000D01*
X63689500Y-130399000D01*
X63208500Y-130399000D01*
X63208500Y-131597000D01*
X63207500Y-131598732D01*
X63206500Y-131599000D01*
X63191500Y-131599000D01*
X63189768Y-131598000D01*
X63189500Y-131597000D01*
X63189500Y-130399000D01*
X62708500Y-130399000D01*
X62708500Y-131597000D01*
X62707500Y-131598732D01*
X62706500Y-131599000D01*
X62691500Y-131599000D01*
X62689768Y-131598000D01*
X62689500Y-131597000D01*
X62689500Y-130397000D01*
X62690500Y-130395268D01*
X62691500Y-130395000D01*
X73706500Y-130395000D01*
X73708232Y-130396000D01*
G37*
G36*
X79266990Y-85564804D02*
G01*
X79279171Y-85688487D01*
X79315194Y-85807235D01*
X79373689Y-85916671D01*
X79452409Y-86012592D01*
X79465454Y-86023298D01*
X79466158Y-86025170D01*
X79464889Y-86026716D01*
X79463074Y-86026507D01*
X79447977Y-86016419D01*
X79425703Y-86007193D01*
X79402053Y-86002488D01*
X79377947Y-86002488D01*
X79354296Y-86007192D01*
X79332023Y-86016418D01*
X79311975Y-86029813D01*
X79294928Y-86046860D01*
X79281533Y-86066907D01*
X79272307Y-86089181D01*
X79267593Y-86112877D01*
X79266998Y-86124983D01*
X79265914Y-86126664D01*
X79263916Y-86126566D01*
X79263000Y-86124885D01*
X79263000Y-85565000D01*
X79264000Y-85563268D01*
X79266000Y-85563268D01*
X79266990Y-85564804D01*
G37*
G36*
X80536165Y-85563374D02*
G01*
X80536990Y-85564804D01*
X80549171Y-85688487D01*
X80585194Y-85807235D01*
X80642330Y-85914127D01*
X80642264Y-85916126D01*
X80640501Y-85917069D01*
X80639020Y-85916339D01*
X80637321Y-85914269D01*
X80637204Y-85914111D01*
X80630080Y-85903446D01*
X80613034Y-85886398D01*
X80592990Y-85873002D01*
X80570713Y-85863772D01*
X80547065Y-85859066D01*
X80522959Y-85859064D01*
X80499308Y-85863766D01*
X80477034Y-85872990D01*
X80456985Y-85886383D01*
X80439937Y-85903429D01*
X80432805Y-85914100D01*
X80432688Y-85914258D01*
X80430983Y-85916335D01*
X80429111Y-85917039D01*
X80427565Y-85915770D01*
X80427673Y-85914123D01*
X80484807Y-85807235D01*
X80520829Y-85688487D01*
X80533010Y-85564804D01*
X80534175Y-85563178D01*
X80536165Y-85563374D01*
G37*
G36*
X81806165Y-85563374D02*
G01*
X81806990Y-85564804D01*
X81819171Y-85688487D01*
X81855194Y-85807235D01*
X81912330Y-85914127D01*
X81912264Y-85916126D01*
X81910501Y-85917069D01*
X81909020Y-85916339D01*
X81907321Y-85914269D01*
X81907204Y-85914111D01*
X81900080Y-85903446D01*
X81883034Y-85886398D01*
X81862990Y-85873002D01*
X81840713Y-85863772D01*
X81817065Y-85859066D01*
X81792959Y-85859064D01*
X81769308Y-85863766D01*
X81747034Y-85872990D01*
X81726985Y-85886383D01*
X81709937Y-85903429D01*
X81702805Y-85914100D01*
X81702688Y-85914258D01*
X81700983Y-85916335D01*
X81699111Y-85917039D01*
X81697565Y-85915770D01*
X81697673Y-85914123D01*
X81754807Y-85807235D01*
X81790829Y-85688487D01*
X81803010Y-85564804D01*
X81804175Y-85563178D01*
X81806165Y-85563374D01*
G37*
G36*
X81700983Y-84483664D02*
G01*
X81702686Y-84485740D01*
X81702803Y-84485897D01*
X81709927Y-84496560D01*
X81726974Y-84513607D01*
X81747021Y-84527002D01*
X81769295Y-84536229D01*
X81792945Y-84540934D01*
X81817051Y-84540934D01*
X81840701Y-84536230D01*
X81862975Y-84527004D01*
X81883023Y-84513610D01*
X81900070Y-84496563D01*
X81907191Y-84485907D01*
X81907308Y-84485749D01*
X81909015Y-84483669D01*
X81910887Y-84482965D01*
X81912433Y-84484233D01*
X81912325Y-84485881D01*
X81855193Y-84592766D01*
X81819171Y-84711514D01*
X81806990Y-84835196D01*
X81805825Y-84836822D01*
X81803835Y-84836626D01*
X81803010Y-84835196D01*
X81790829Y-84711513D01*
X81754807Y-84592765D01*
X81697673Y-84485875D01*
X81697739Y-84483876D01*
X81699502Y-84482933D01*
X81700983Y-84483664D01*
G37*
G36*
X80430983Y-84483664D02*
G01*
X80432686Y-84485740D01*
X80432803Y-84485897D01*
X80439927Y-84496560D01*
X80456974Y-84513607D01*
X80477021Y-84527002D01*
X80499295Y-84536229D01*
X80522945Y-84540934D01*
X80547051Y-84540934D01*
X80570701Y-84536230D01*
X80592975Y-84527004D01*
X80613023Y-84513610D01*
X80630070Y-84496563D01*
X80637191Y-84485907D01*
X80637308Y-84485749D01*
X80639015Y-84483669D01*
X80640887Y-84482965D01*
X80642433Y-84484233D01*
X80642325Y-84485881D01*
X80585193Y-84592766D01*
X80549171Y-84711514D01*
X80536990Y-84835196D01*
X80535825Y-84836822D01*
X80533835Y-84836626D01*
X80533010Y-84835196D01*
X80520829Y-84711513D01*
X80484807Y-84592765D01*
X80427673Y-84485875D01*
X80427739Y-84483876D01*
X80429502Y-84482933D01*
X80430983Y-84483664D01*
G37*
G36*
X79266990Y-84274918D02*
G01*
X79269372Y-84299105D01*
X79276372Y-84322180D01*
X79287737Y-84343444D01*
X79303032Y-84362081D01*
X79321669Y-84377376D01*
X79342933Y-84388741D01*
X79366008Y-84395741D01*
X79389999Y-84398104D01*
X79413990Y-84395741D01*
X79437065Y-84388741D01*
X79458498Y-84377285D01*
X79460497Y-84377351D01*
X79461440Y-84379114D01*
X79460710Y-84380595D01*
X79452408Y-84387408D01*
X79373688Y-84483330D01*
X79315193Y-84592766D01*
X79279171Y-84711514D01*
X79266990Y-84835196D01*
X79265825Y-84836822D01*
X79263835Y-84836626D01*
X79263000Y-84835000D01*
X79263000Y-84275114D01*
X79264000Y-84273382D01*
X79266000Y-84273382D01*
X79266990Y-84274918D01*
G37*
M02*
