G04 #@! TF.FileFunction,Legend,Top*
%FSLAX46Y46*%
G04 Gerber Fmt 4.6, Leading zero omitted, Abs format (unit mm)*
G04 Created by KiCad (PCBNEW 4.0.2-stable) date 05.06.2016 11:41:23*
%MOMM*%
G01*
G04 APERTURE LIST*
%ADD10C,0.150000*%
%ADD11C,0.304800*%
G04 APERTURE END LIST*
D10*
D11*
X111872485Y-89387438D02*
X112235342Y-91419438D01*
X112525628Y-89968010D01*
X112815914Y-91419438D01*
X113178771Y-89387438D01*
X113686771Y-90838867D02*
X114412485Y-90838867D01*
X113541628Y-91419438D02*
X114049628Y-89387438D01*
X114557628Y-91419438D01*
X114993057Y-91322676D02*
X115210771Y-91419438D01*
X115573628Y-91419438D01*
X115718771Y-91322676D01*
X115791342Y-91225914D01*
X115863914Y-91032390D01*
X115863914Y-90838867D01*
X115791342Y-90645343D01*
X115718771Y-90548581D01*
X115573628Y-90451819D01*
X115283342Y-90355057D01*
X115138200Y-90258295D01*
X115065628Y-90161533D01*
X114993057Y-89968010D01*
X114993057Y-89774486D01*
X115065628Y-89580962D01*
X115138200Y-89484200D01*
X115283342Y-89387438D01*
X115646200Y-89387438D01*
X115863914Y-89484200D01*
X117387914Y-91225914D02*
X117315343Y-91322676D01*
X117097629Y-91419438D01*
X116952486Y-91419438D01*
X116734771Y-91322676D01*
X116589629Y-91129152D01*
X116517057Y-90935629D01*
X116444486Y-90548581D01*
X116444486Y-90258295D01*
X116517057Y-89871248D01*
X116589629Y-89677724D01*
X116734771Y-89484200D01*
X116952486Y-89387438D01*
X117097629Y-89387438D01*
X117315343Y-89484200D01*
X117387914Y-89580962D01*
X117968486Y-90838867D02*
X118694200Y-90838867D01*
X117823343Y-91419438D02*
X118331343Y-89387438D01*
X118839343Y-91419438D01*
X120290772Y-89387438D02*
X120798772Y-91419438D01*
X121306772Y-89387438D01*
X122903344Y-89580962D02*
X122975915Y-89484200D01*
X123121058Y-89387438D01*
X123483915Y-89387438D01*
X123629058Y-89484200D01*
X123701629Y-89580962D01*
X123774201Y-89774486D01*
X123774201Y-89968010D01*
X123701629Y-90258295D01*
X122830772Y-91419438D01*
X123774201Y-91419438D01*
X124427344Y-91225914D02*
X124499916Y-91322676D01*
X124427344Y-91419438D01*
X124354773Y-91322676D01*
X124427344Y-91225914D01*
X124427344Y-91419438D01*
X125443344Y-89387438D02*
X125588487Y-89387438D01*
X125733630Y-89484200D01*
X125806201Y-89580962D01*
X125878772Y-89774486D01*
X125951344Y-90161533D01*
X125951344Y-90645343D01*
X125878772Y-91032390D01*
X125806201Y-91225914D01*
X125733630Y-91322676D01*
X125588487Y-91419438D01*
X125443344Y-91419438D01*
X125298201Y-91322676D01*
X125225630Y-91225914D01*
X125153058Y-91032390D01*
X125080487Y-90645343D01*
X125080487Y-90161533D01*
X125153058Y-89774486D01*
X125225630Y-89580962D01*
X125298201Y-89484200D01*
X125443344Y-89387438D01*
D10*
X32862000Y-62220400D02*
X32162000Y-62220400D01*
X32162000Y-61020400D02*
X32862000Y-61020400D01*
X43480000Y-142250000D02*
X44180000Y-142250000D01*
X44180000Y-143450000D02*
X43480000Y-143450000D01*
X37590000Y-144150000D02*
X36890000Y-144150000D01*
X36890000Y-142950000D02*
X37590000Y-142950000D01*
X115930000Y-139070000D02*
X115930000Y-138370000D01*
X117130000Y-138370000D02*
X117130000Y-139070000D01*
X110320000Y-130130000D02*
X110320000Y-129430000D01*
X111520000Y-129430000D02*
X111520000Y-130130000D01*
X35900000Y-141870000D02*
X35200000Y-141870000D01*
X35200000Y-140670000D02*
X35900000Y-140670000D01*
X94540000Y-130150000D02*
X93840000Y-130150000D01*
X93840000Y-128950000D02*
X94540000Y-128950000D01*
X96990000Y-118320000D02*
X96990000Y-117620000D01*
X98190000Y-117620000D02*
X98190000Y-118320000D01*
X63900000Y-143000000D02*
X63900000Y-143700000D01*
X62700000Y-143700000D02*
X62700000Y-143000000D01*
X75250000Y-137850000D02*
X75250000Y-138550000D01*
X74050000Y-138550000D02*
X74050000Y-137850000D01*
X100400000Y-118130000D02*
X100400000Y-117430000D01*
X101600000Y-117430000D02*
X101600000Y-118130000D01*
X101805000Y-140155000D02*
X102062500Y-140155000D01*
X101805000Y-133805000D02*
X102062500Y-133805000D01*
X114555000Y-133805000D02*
X114297500Y-133805000D01*
X114555000Y-140155000D02*
X114297500Y-140155000D01*
X101805000Y-140155000D02*
X101805000Y-133805000D01*
X114555000Y-140155000D02*
X114555000Y-133805000D01*
X102062500Y-140155000D02*
X102062500Y-141230000D01*
X54175000Y-139325000D02*
X54432500Y-139325000D01*
X54175000Y-132975000D02*
X54432500Y-132975000D01*
X66925000Y-132975000D02*
X66667500Y-132975000D01*
X66925000Y-139325000D02*
X66667500Y-139325000D01*
X54175000Y-139325000D02*
X54175000Y-132975000D01*
X66925000Y-139325000D02*
X66925000Y-132975000D01*
X54432500Y-139325000D02*
X54432500Y-140400000D01*
X76575000Y-137805000D02*
X76832500Y-137805000D01*
X76575000Y-131455000D02*
X76832500Y-131455000D01*
X89325000Y-131455000D02*
X89067500Y-131455000D01*
X89325000Y-137805000D02*
X89067500Y-137805000D01*
X76575000Y-137805000D02*
X76575000Y-131455000D01*
X89325000Y-137805000D02*
X89325000Y-131455000D01*
X76832500Y-137805000D02*
X76832500Y-138880000D01*
X85060000Y-127610000D02*
X85060000Y-126910000D01*
X86260000Y-126910000D02*
X86260000Y-127610000D01*
X57190000Y-129720000D02*
X57190000Y-129020000D01*
X58390000Y-129020000D02*
X58390000Y-129720000D01*
X96080000Y-124430000D02*
X96080000Y-123730000D01*
X97280000Y-123730000D02*
X97280000Y-124430000D01*
X73510000Y-119270000D02*
X73510000Y-118570000D01*
X74710000Y-118570000D02*
X74710000Y-119270000D01*
X75250000Y-133150000D02*
X75250000Y-133850000D01*
X74050000Y-133850000D02*
X74050000Y-133150000D01*
X41180000Y-129610000D02*
X41180000Y-128910000D01*
X42380000Y-128910000D02*
X42380000Y-129610000D01*
X35931400Y-62591200D02*
X35931400Y-63291200D01*
X34731400Y-63291200D02*
X34731400Y-62591200D01*
X117637000Y-99877400D02*
X117637000Y-99177400D01*
X118837000Y-99177400D02*
X118837000Y-99877400D01*
X61807800Y-107649800D02*
X61807800Y-106949800D01*
X63007800Y-106949800D02*
X63007800Y-107649800D01*
X60240000Y-103050000D02*
X59540000Y-103050000D01*
X59540000Y-101850000D02*
X60240000Y-101850000D01*
X117440000Y-110400000D02*
X117440000Y-111100000D01*
X116240000Y-111100000D02*
X116240000Y-110400000D01*
X116300000Y-66350000D02*
X115600000Y-66350000D01*
X115600000Y-65150000D02*
X116300000Y-65150000D01*
X116280000Y-68580000D02*
X115580000Y-68580000D01*
X115580000Y-67380000D02*
X116280000Y-67380000D01*
X116740000Y-61160000D02*
X116040000Y-61160000D01*
X116040000Y-59960000D02*
X116740000Y-59960000D01*
X120107000Y-59979000D02*
X120807000Y-59979000D01*
X120807000Y-61179000D02*
X120107000Y-61179000D01*
X84000000Y-77290000D02*
X84000000Y-76590000D01*
X85200000Y-76590000D02*
X85200000Y-77290000D01*
X31340000Y-118530000D02*
X31340000Y-119230000D01*
X30140000Y-119230000D02*
X30140000Y-118530000D01*
X85130000Y-79990000D02*
X85830000Y-79990000D01*
X85830000Y-81190000D02*
X85130000Y-81190000D01*
X32620000Y-78330000D02*
X32620000Y-77630000D01*
X33820000Y-77630000D02*
X33820000Y-78330000D01*
X42270000Y-85940000D02*
X42270000Y-86640000D01*
X41070000Y-86640000D02*
X41070000Y-85940000D01*
X31055000Y-108650000D02*
X31055000Y-109650000D01*
X29705000Y-109650000D02*
X29705000Y-108650000D01*
X30965000Y-104030000D02*
X30965000Y-105030000D01*
X29615000Y-105030000D02*
X29615000Y-104030000D01*
X29715000Y-114800000D02*
X29715000Y-113800000D01*
X31065000Y-113800000D02*
X31065000Y-114800000D01*
X82665000Y-76925000D02*
X82640000Y-76925000D01*
X82665000Y-81575000D02*
X82640000Y-81575000D01*
X75915000Y-81575000D02*
X75940000Y-81575000D01*
X75915000Y-76925000D02*
X75940000Y-76925000D01*
X82665000Y-76925000D02*
X82665000Y-81575000D01*
X75915000Y-76925000D02*
X75915000Y-81575000D01*
X82640000Y-76925000D02*
X82640000Y-75850000D01*
X75215000Y-123265000D02*
X75190000Y-123265000D01*
X75215000Y-127915000D02*
X75190000Y-127915000D01*
X68465000Y-127915000D02*
X68490000Y-127915000D01*
X68465000Y-123265000D02*
X68490000Y-123265000D01*
X75215000Y-123265000D02*
X75215000Y-127915000D01*
X68465000Y-123265000D02*
X68465000Y-127915000D01*
X75190000Y-123265000D02*
X75190000Y-122190000D01*
X37895000Y-139305000D02*
X38152500Y-139305000D01*
X37895000Y-132955000D02*
X38152500Y-132955000D01*
X50645000Y-132955000D02*
X50387500Y-132955000D01*
X50645000Y-139305000D02*
X50387500Y-139305000D01*
X37895000Y-139305000D02*
X37895000Y-132955000D01*
X50645000Y-139305000D02*
X50645000Y-132955000D01*
X38152500Y-139305000D02*
X38152500Y-140380000D01*
X33155000Y-117865000D02*
X33355000Y-117865000D01*
X33155000Y-113215000D02*
X33355000Y-113215000D01*
X36405000Y-113215000D02*
X36205000Y-113215000D01*
X36405000Y-117865000D02*
X36205000Y-117865000D01*
X33155000Y-117865000D02*
X33155000Y-113215000D01*
X36405000Y-117865000D02*
X36405000Y-113215000D01*
X33355000Y-117865000D02*
X33355000Y-119215000D01*
X102420000Y-122680000D02*
G75*
G03X102420000Y-122680000I-100000J0D01*
G01*
X101820000Y-123330000D02*
X101820000Y-122830000D01*
X98920000Y-123330000D02*
X101820000Y-123330000D01*
X98920000Y-122830000D02*
X98920000Y-123330000D01*
X101820000Y-122830000D02*
X98920000Y-122830000D01*
X101340000Y-128510000D02*
G75*
G03X101340000Y-128510000I-100000J0D01*
G01*
X100740000Y-129160000D02*
X100740000Y-128660000D01*
X97840000Y-129160000D02*
X100740000Y-129160000D01*
X97840000Y-128660000D02*
X97840000Y-129160000D01*
X100740000Y-128660000D02*
X97840000Y-128660000D01*
X42355000Y-77915000D02*
X42330000Y-77915000D01*
X42355000Y-82565000D02*
X42330000Y-82565000D01*
X35605000Y-82565000D02*
X35630000Y-82565000D01*
X35605000Y-77915000D02*
X35630000Y-77915000D01*
X42355000Y-77915000D02*
X42355000Y-82565000D01*
X35605000Y-77915000D02*
X35605000Y-82565000D01*
X42330000Y-77915000D02*
X42330000Y-76840000D01*
X111295000Y-65030000D02*
X43985000Y-65030000D01*
X111295000Y-105035000D02*
X111295000Y-65030000D01*
X43985000Y-105035000D02*
X111295000Y-105035000D01*
X43985000Y-65030000D02*
X43985000Y-105035000D01*
X31717143Y-60325543D02*
X31669524Y-60373162D01*
X31526667Y-60420781D01*
X31431429Y-60420781D01*
X31288571Y-60373162D01*
X31193333Y-60277924D01*
X31145714Y-60182686D01*
X31098095Y-59992210D01*
X31098095Y-59849352D01*
X31145714Y-59658876D01*
X31193333Y-59563638D01*
X31288571Y-59468400D01*
X31431429Y-59420781D01*
X31526667Y-59420781D01*
X31669524Y-59468400D01*
X31717143Y-59516019D01*
X32098095Y-59516019D02*
X32145714Y-59468400D01*
X32240952Y-59420781D01*
X32479048Y-59420781D01*
X32574286Y-59468400D01*
X32621905Y-59516019D01*
X32669524Y-59611257D01*
X32669524Y-59706495D01*
X32621905Y-59849352D01*
X32050476Y-60420781D01*
X32669524Y-60420781D01*
X33526667Y-59420781D02*
X33336190Y-59420781D01*
X33240952Y-59468400D01*
X33193333Y-59516019D01*
X33098095Y-59658876D01*
X33050476Y-59849352D01*
X33050476Y-60230305D01*
X33098095Y-60325543D01*
X33145714Y-60373162D01*
X33240952Y-60420781D01*
X33431429Y-60420781D01*
X33526667Y-60373162D01*
X33574286Y-60325543D01*
X33621905Y-60230305D01*
X33621905Y-59992210D01*
X33574286Y-59896971D01*
X33526667Y-59849352D01*
X33431429Y-59801733D01*
X33240952Y-59801733D01*
X33145714Y-59849352D01*
X33098095Y-59896971D01*
X33050476Y-59992210D01*
X43457143Y-144857143D02*
X43409524Y-144904762D01*
X43266667Y-144952381D01*
X43171429Y-144952381D01*
X43028571Y-144904762D01*
X42933333Y-144809524D01*
X42885714Y-144714286D01*
X42838095Y-144523810D01*
X42838095Y-144380952D01*
X42885714Y-144190476D01*
X42933333Y-144095238D01*
X43028571Y-144000000D01*
X43171429Y-143952381D01*
X43266667Y-143952381D01*
X43409524Y-144000000D01*
X43457143Y-144047619D01*
X44409524Y-144952381D02*
X43838095Y-144952381D01*
X44123809Y-144952381D02*
X44123809Y-143952381D01*
X44028571Y-144095238D01*
X43933333Y-144190476D01*
X43838095Y-144238095D01*
X44885714Y-144952381D02*
X45076190Y-144952381D01*
X45171429Y-144904762D01*
X45219048Y-144857143D01*
X45314286Y-144714286D01*
X45361905Y-144523810D01*
X45361905Y-144142857D01*
X45314286Y-144047619D01*
X45266667Y-144000000D01*
X45171429Y-143952381D01*
X44980952Y-143952381D01*
X44885714Y-144000000D01*
X44838095Y-144047619D01*
X44790476Y-144142857D01*
X44790476Y-144380952D01*
X44838095Y-144476190D01*
X44885714Y-144523810D01*
X44980952Y-144571429D01*
X45171429Y-144571429D01*
X45266667Y-144523810D01*
X45314286Y-144476190D01*
X45361905Y-144380952D01*
X36533334Y-145357143D02*
X36485715Y-145404762D01*
X36342858Y-145452381D01*
X36247620Y-145452381D01*
X36104762Y-145404762D01*
X36009524Y-145309524D01*
X35961905Y-145214286D01*
X35914286Y-145023810D01*
X35914286Y-144880952D01*
X35961905Y-144690476D01*
X36009524Y-144595238D01*
X36104762Y-144500000D01*
X36247620Y-144452381D01*
X36342858Y-144452381D01*
X36485715Y-144500000D01*
X36533334Y-144547619D01*
X37485715Y-145452381D02*
X36914286Y-145452381D01*
X37200000Y-145452381D02*
X37200000Y-144452381D01*
X37104762Y-144595238D01*
X37009524Y-144690476D01*
X36914286Y-144738095D01*
X118639743Y-138518366D02*
X118687362Y-138565985D01*
X118734981Y-138708842D01*
X118734981Y-138804080D01*
X118687362Y-138946938D01*
X118592124Y-139042176D01*
X118496886Y-139089795D01*
X118306410Y-139137414D01*
X118163552Y-139137414D01*
X117973076Y-139089795D01*
X117877838Y-139042176D01*
X117782600Y-138946938D01*
X117734981Y-138804080D01*
X117734981Y-138708842D01*
X117782600Y-138565985D01*
X117830219Y-138518366D01*
X117830219Y-138137414D02*
X117782600Y-138089795D01*
X117734981Y-137994557D01*
X117734981Y-137756461D01*
X117782600Y-137661223D01*
X117830219Y-137613604D01*
X117925457Y-137565985D01*
X118020695Y-137565985D01*
X118163552Y-137613604D01*
X118734981Y-138185033D01*
X118734981Y-137565985D01*
X113133143Y-129960666D02*
X113180762Y-130008285D01*
X113228381Y-130151142D01*
X113228381Y-130246380D01*
X113180762Y-130389238D01*
X113085524Y-130484476D01*
X112990286Y-130532095D01*
X112799810Y-130579714D01*
X112656952Y-130579714D01*
X112466476Y-130532095D01*
X112371238Y-130484476D01*
X112276000Y-130389238D01*
X112228381Y-130246380D01*
X112228381Y-130151142D01*
X112276000Y-130008285D01*
X112323619Y-129960666D01*
X112228381Y-129627333D02*
X112228381Y-129008285D01*
X112609333Y-129341619D01*
X112609333Y-129198761D01*
X112656952Y-129103523D01*
X112704571Y-129055904D01*
X112799810Y-129008285D01*
X113037905Y-129008285D01*
X113133143Y-129055904D01*
X113180762Y-129103523D01*
X113228381Y-129198761D01*
X113228381Y-129484476D01*
X113180762Y-129579714D01*
X113133143Y-129627333D01*
X34733334Y-139657143D02*
X34685715Y-139704762D01*
X34542858Y-139752381D01*
X34447620Y-139752381D01*
X34304762Y-139704762D01*
X34209524Y-139609524D01*
X34161905Y-139514286D01*
X34114286Y-139323810D01*
X34114286Y-139180952D01*
X34161905Y-138990476D01*
X34209524Y-138895238D01*
X34304762Y-138800000D01*
X34447620Y-138752381D01*
X34542858Y-138752381D01*
X34685715Y-138800000D01*
X34733334Y-138847619D01*
X35590477Y-139085714D02*
X35590477Y-139752381D01*
X35352381Y-138704762D02*
X35114286Y-139419048D01*
X35733334Y-139419048D01*
X94023334Y-131807143D02*
X93975715Y-131854762D01*
X93832858Y-131902381D01*
X93737620Y-131902381D01*
X93594762Y-131854762D01*
X93499524Y-131759524D01*
X93451905Y-131664286D01*
X93404286Y-131473810D01*
X93404286Y-131330952D01*
X93451905Y-131140476D01*
X93499524Y-131045238D01*
X93594762Y-130950000D01*
X93737620Y-130902381D01*
X93832858Y-130902381D01*
X93975715Y-130950000D01*
X94023334Y-130997619D01*
X94928096Y-130902381D02*
X94451905Y-130902381D01*
X94404286Y-131378571D01*
X94451905Y-131330952D01*
X94547143Y-131283333D01*
X94785239Y-131283333D01*
X94880477Y-131330952D01*
X94928096Y-131378571D01*
X94975715Y-131473810D01*
X94975715Y-131711905D01*
X94928096Y-131807143D01*
X94880477Y-131854762D01*
X94785239Y-131902381D01*
X94547143Y-131902381D01*
X94451905Y-131854762D01*
X94404286Y-131807143D01*
X96115143Y-118136666D02*
X96162762Y-118184285D01*
X96210381Y-118327142D01*
X96210381Y-118422380D01*
X96162762Y-118565238D01*
X96067524Y-118660476D01*
X95972286Y-118708095D01*
X95781810Y-118755714D01*
X95638952Y-118755714D01*
X95448476Y-118708095D01*
X95353238Y-118660476D01*
X95258000Y-118565238D01*
X95210381Y-118422380D01*
X95210381Y-118327142D01*
X95258000Y-118184285D01*
X95305619Y-118136666D01*
X95210381Y-117279523D02*
X95210381Y-117470000D01*
X95258000Y-117565238D01*
X95305619Y-117612857D01*
X95448476Y-117708095D01*
X95638952Y-117755714D01*
X96019905Y-117755714D01*
X96115143Y-117708095D01*
X96162762Y-117660476D01*
X96210381Y-117565238D01*
X96210381Y-117374761D01*
X96162762Y-117279523D01*
X96115143Y-117231904D01*
X96019905Y-117184285D01*
X95781810Y-117184285D01*
X95686571Y-117231904D01*
X95638952Y-117279523D01*
X95591333Y-117374761D01*
X95591333Y-117565238D01*
X95638952Y-117660476D01*
X95686571Y-117708095D01*
X95781810Y-117755714D01*
X65557143Y-143516666D02*
X65604762Y-143564285D01*
X65652381Y-143707142D01*
X65652381Y-143802380D01*
X65604762Y-143945238D01*
X65509524Y-144040476D01*
X65414286Y-144088095D01*
X65223810Y-144135714D01*
X65080952Y-144135714D01*
X64890476Y-144088095D01*
X64795238Y-144040476D01*
X64700000Y-143945238D01*
X64652381Y-143802380D01*
X64652381Y-143707142D01*
X64700000Y-143564285D01*
X64747619Y-143516666D01*
X64652381Y-143183333D02*
X64652381Y-142516666D01*
X65652381Y-142945238D01*
X73292643Y-138442866D02*
X73340262Y-138490485D01*
X73387881Y-138633342D01*
X73387881Y-138728580D01*
X73340262Y-138871438D01*
X73245024Y-138966676D01*
X73149786Y-139014295D01*
X72959310Y-139061914D01*
X72816452Y-139061914D01*
X72625976Y-139014295D01*
X72530738Y-138966676D01*
X72435500Y-138871438D01*
X72387881Y-138728580D01*
X72387881Y-138633342D01*
X72435500Y-138490485D01*
X72483119Y-138442866D01*
X72816452Y-137871438D02*
X72768833Y-137966676D01*
X72721214Y-138014295D01*
X72625976Y-138061914D01*
X72578357Y-138061914D01*
X72483119Y-138014295D01*
X72435500Y-137966676D01*
X72387881Y-137871438D01*
X72387881Y-137680961D01*
X72435500Y-137585723D01*
X72483119Y-137538104D01*
X72578357Y-137490485D01*
X72625976Y-137490485D01*
X72721214Y-137538104D01*
X72768833Y-137585723D01*
X72816452Y-137680961D01*
X72816452Y-137871438D01*
X72864071Y-137966676D01*
X72911690Y-138014295D01*
X73006929Y-138061914D01*
X73197405Y-138061914D01*
X73292643Y-138014295D01*
X73340262Y-137966676D01*
X73387881Y-137871438D01*
X73387881Y-137680961D01*
X73340262Y-137585723D01*
X73292643Y-137538104D01*
X73197405Y-137490485D01*
X73006929Y-137490485D01*
X72911690Y-137538104D01*
X72864071Y-137585723D01*
X72816452Y-137680961D01*
X102973143Y-118422857D02*
X103020762Y-118470476D01*
X103068381Y-118613333D01*
X103068381Y-118708571D01*
X103020762Y-118851429D01*
X102925524Y-118946667D01*
X102830286Y-118994286D01*
X102639810Y-119041905D01*
X102496952Y-119041905D01*
X102306476Y-118994286D01*
X102211238Y-118946667D01*
X102116000Y-118851429D01*
X102068381Y-118708571D01*
X102068381Y-118613333D01*
X102116000Y-118470476D01*
X102163619Y-118422857D01*
X103068381Y-117470476D02*
X103068381Y-118041905D01*
X103068381Y-117756191D02*
X102068381Y-117756191D01*
X102211238Y-117851429D01*
X102306476Y-117946667D01*
X102354095Y-118041905D01*
X102163619Y-117089524D02*
X102116000Y-117041905D01*
X102068381Y-116946667D01*
X102068381Y-116708571D01*
X102116000Y-116613333D01*
X102163619Y-116565714D01*
X102258857Y-116518095D01*
X102354095Y-116518095D01*
X102496952Y-116565714D01*
X103068381Y-117137143D01*
X103068381Y-116518095D01*
X106973595Y-130844381D02*
X106973595Y-131653905D01*
X107021214Y-131749143D01*
X107068833Y-131796762D01*
X107164071Y-131844381D01*
X107354548Y-131844381D01*
X107449786Y-131796762D01*
X107497405Y-131749143D01*
X107545024Y-131653905D01*
X107545024Y-130844381D01*
X108545024Y-131844381D02*
X107973595Y-131844381D01*
X108259309Y-131844381D02*
X108259309Y-130844381D01*
X108164071Y-130987238D01*
X108068833Y-131082476D01*
X107973595Y-131130095D01*
X62138095Y-130252381D02*
X62138095Y-131061905D01*
X62185714Y-131157143D01*
X62233333Y-131204762D01*
X62328571Y-131252381D01*
X62519048Y-131252381D01*
X62614286Y-131204762D01*
X62661905Y-131157143D01*
X62709524Y-131061905D01*
X62709524Y-130252381D01*
X63138095Y-130347619D02*
X63185714Y-130300000D01*
X63280952Y-130252381D01*
X63519048Y-130252381D01*
X63614286Y-130300000D01*
X63661905Y-130347619D01*
X63709524Y-130442857D01*
X63709524Y-130538095D01*
X63661905Y-130680952D01*
X63090476Y-131252381D01*
X63709524Y-131252381D01*
X79248095Y-128738381D02*
X79248095Y-129547905D01*
X79295714Y-129643143D01*
X79343333Y-129690762D01*
X79438571Y-129738381D01*
X79629048Y-129738381D01*
X79724286Y-129690762D01*
X79771905Y-129643143D01*
X79819524Y-129547905D01*
X79819524Y-128738381D01*
X80200476Y-128738381D02*
X80819524Y-128738381D01*
X80486190Y-129119333D01*
X80629048Y-129119333D01*
X80724286Y-129166952D01*
X80771905Y-129214571D01*
X80819524Y-129309810D01*
X80819524Y-129547905D01*
X80771905Y-129643143D01*
X80724286Y-129690762D01*
X80629048Y-129738381D01*
X80343333Y-129738381D01*
X80248095Y-129690762D01*
X80200476Y-129643143D01*
X84117143Y-127426666D02*
X84164762Y-127474285D01*
X84212381Y-127617142D01*
X84212381Y-127712380D01*
X84164762Y-127855238D01*
X84069524Y-127950476D01*
X83974286Y-127998095D01*
X83783810Y-128045714D01*
X83640952Y-128045714D01*
X83450476Y-127998095D01*
X83355238Y-127950476D01*
X83260000Y-127855238D01*
X83212381Y-127712380D01*
X83212381Y-127617142D01*
X83260000Y-127474285D01*
X83307619Y-127426666D01*
X84212381Y-126950476D02*
X84212381Y-126760000D01*
X84164762Y-126664761D01*
X84117143Y-126617142D01*
X83974286Y-126521904D01*
X83783810Y-126474285D01*
X83402857Y-126474285D01*
X83307619Y-126521904D01*
X83260000Y-126569523D01*
X83212381Y-126664761D01*
X83212381Y-126855238D01*
X83260000Y-126950476D01*
X83307619Y-126998095D01*
X83402857Y-127045714D01*
X83640952Y-127045714D01*
X83736190Y-126998095D01*
X83783810Y-126950476D01*
X83831429Y-126855238D01*
X83831429Y-126664761D01*
X83783810Y-126569523D01*
X83736190Y-126521904D01*
X83640952Y-126474285D01*
X56247143Y-130012857D02*
X56294762Y-130060476D01*
X56342381Y-130203333D01*
X56342381Y-130298571D01*
X56294762Y-130441429D01*
X56199524Y-130536667D01*
X56104286Y-130584286D01*
X55913810Y-130631905D01*
X55770952Y-130631905D01*
X55580476Y-130584286D01*
X55485238Y-130536667D01*
X55390000Y-130441429D01*
X55342381Y-130298571D01*
X55342381Y-130203333D01*
X55390000Y-130060476D01*
X55437619Y-130012857D01*
X56342381Y-129060476D02*
X56342381Y-129631905D01*
X56342381Y-129346191D02*
X55342381Y-129346191D01*
X55485238Y-129441429D01*
X55580476Y-129536667D01*
X55628095Y-129631905D01*
X55342381Y-128441429D02*
X55342381Y-128346190D01*
X55390000Y-128250952D01*
X55437619Y-128203333D01*
X55532857Y-128155714D01*
X55723333Y-128108095D01*
X55961429Y-128108095D01*
X56151905Y-128155714D01*
X56247143Y-128203333D01*
X56294762Y-128250952D01*
X56342381Y-128346190D01*
X56342381Y-128441429D01*
X56294762Y-128536667D01*
X56247143Y-128584286D01*
X56151905Y-128631905D01*
X55961429Y-128679524D01*
X55723333Y-128679524D01*
X55532857Y-128631905D01*
X55437619Y-128584286D01*
X55390000Y-128536667D01*
X55342381Y-128441429D01*
X95137143Y-124722857D02*
X95184762Y-124770476D01*
X95232381Y-124913333D01*
X95232381Y-125008571D01*
X95184762Y-125151429D01*
X95089524Y-125246667D01*
X94994286Y-125294286D01*
X94803810Y-125341905D01*
X94660952Y-125341905D01*
X94470476Y-125294286D01*
X94375238Y-125246667D01*
X94280000Y-125151429D01*
X94232381Y-125008571D01*
X94232381Y-124913333D01*
X94280000Y-124770476D01*
X94327619Y-124722857D01*
X95232381Y-123770476D02*
X95232381Y-124341905D01*
X95232381Y-124056191D02*
X94232381Y-124056191D01*
X94375238Y-124151429D01*
X94470476Y-124246667D01*
X94518095Y-124341905D01*
X95232381Y-122818095D02*
X95232381Y-123389524D01*
X95232381Y-123103810D02*
X94232381Y-123103810D01*
X94375238Y-123199048D01*
X94470476Y-123294286D01*
X94518095Y-123389524D01*
X72567143Y-119562857D02*
X72614762Y-119610476D01*
X72662381Y-119753333D01*
X72662381Y-119848571D01*
X72614762Y-119991429D01*
X72519524Y-120086667D01*
X72424286Y-120134286D01*
X72233810Y-120181905D01*
X72090952Y-120181905D01*
X71900476Y-120134286D01*
X71805238Y-120086667D01*
X71710000Y-119991429D01*
X71662381Y-119848571D01*
X71662381Y-119753333D01*
X71710000Y-119610476D01*
X71757619Y-119562857D01*
X72662381Y-118610476D02*
X72662381Y-119181905D01*
X72662381Y-118896191D02*
X71662381Y-118896191D01*
X71805238Y-118991429D01*
X71900476Y-119086667D01*
X71948095Y-119181905D01*
X71995714Y-117753333D02*
X72662381Y-117753333D01*
X71614762Y-117991429D02*
X72329048Y-118229524D01*
X72329048Y-117610476D01*
X73255143Y-134500857D02*
X73302762Y-134548476D01*
X73350381Y-134691333D01*
X73350381Y-134786571D01*
X73302762Y-134929429D01*
X73207524Y-135024667D01*
X73112286Y-135072286D01*
X72921810Y-135119905D01*
X72778952Y-135119905D01*
X72588476Y-135072286D01*
X72493238Y-135024667D01*
X72398000Y-134929429D01*
X72350381Y-134786571D01*
X72350381Y-134691333D01*
X72398000Y-134548476D01*
X72445619Y-134500857D01*
X73350381Y-133548476D02*
X73350381Y-134119905D01*
X73350381Y-133834191D02*
X72350381Y-133834191D01*
X72493238Y-133929429D01*
X72588476Y-134024667D01*
X72636095Y-134119905D01*
X72350381Y-133215143D02*
X72350381Y-132548476D01*
X73350381Y-132977048D01*
X40237143Y-129902857D02*
X40284762Y-129950476D01*
X40332381Y-130093333D01*
X40332381Y-130188571D01*
X40284762Y-130331429D01*
X40189524Y-130426667D01*
X40094286Y-130474286D01*
X39903810Y-130521905D01*
X39760952Y-130521905D01*
X39570476Y-130474286D01*
X39475238Y-130426667D01*
X39380000Y-130331429D01*
X39332381Y-130188571D01*
X39332381Y-130093333D01*
X39380000Y-129950476D01*
X39427619Y-129902857D01*
X39427619Y-129521905D02*
X39380000Y-129474286D01*
X39332381Y-129379048D01*
X39332381Y-129140952D01*
X39380000Y-129045714D01*
X39427619Y-128998095D01*
X39522857Y-128950476D01*
X39618095Y-128950476D01*
X39760952Y-128998095D01*
X40332381Y-129569524D01*
X40332381Y-128950476D01*
X39332381Y-128331429D02*
X39332381Y-128236190D01*
X39380000Y-128140952D01*
X39427619Y-128093333D01*
X39522857Y-128045714D01*
X39713333Y-127998095D01*
X39951429Y-127998095D01*
X40141905Y-128045714D01*
X40237143Y-128093333D01*
X40284762Y-128140952D01*
X40332381Y-128236190D01*
X40332381Y-128331429D01*
X40284762Y-128426667D01*
X40237143Y-128474286D01*
X40141905Y-128521905D01*
X39951429Y-128569524D01*
X39713333Y-128569524D01*
X39522857Y-128521905D01*
X39427619Y-128474286D01*
X39380000Y-128426667D01*
X39332381Y-128331429D01*
X35770543Y-66824057D02*
X35818162Y-66871676D01*
X35865781Y-67014533D01*
X35865781Y-67109771D01*
X35818162Y-67252629D01*
X35722924Y-67347867D01*
X35627686Y-67395486D01*
X35437210Y-67443105D01*
X35294352Y-67443105D01*
X35103876Y-67395486D01*
X35008638Y-67347867D01*
X34913400Y-67252629D01*
X34865781Y-67109771D01*
X34865781Y-67014533D01*
X34913400Y-66871676D01*
X34961019Y-66824057D01*
X34961019Y-66443105D02*
X34913400Y-66395486D01*
X34865781Y-66300248D01*
X34865781Y-66062152D01*
X34913400Y-65966914D01*
X34961019Y-65919295D01*
X35056257Y-65871676D01*
X35151495Y-65871676D01*
X35294352Y-65919295D01*
X35865781Y-66490724D01*
X35865781Y-65871676D01*
X35865781Y-64919295D02*
X35865781Y-65490724D01*
X35865781Y-65205010D02*
X34865781Y-65205010D01*
X35008638Y-65300248D01*
X35103876Y-65395486D01*
X35151495Y-65490724D01*
X118584143Y-104052257D02*
X118631762Y-104099876D01*
X118679381Y-104242733D01*
X118679381Y-104337971D01*
X118631762Y-104480829D01*
X118536524Y-104576067D01*
X118441286Y-104623686D01*
X118250810Y-104671305D01*
X118107952Y-104671305D01*
X117917476Y-104623686D01*
X117822238Y-104576067D01*
X117727000Y-104480829D01*
X117679381Y-104337971D01*
X117679381Y-104242733D01*
X117727000Y-104099876D01*
X117774619Y-104052257D01*
X117774619Y-103671305D02*
X117727000Y-103623686D01*
X117679381Y-103528448D01*
X117679381Y-103290352D01*
X117727000Y-103195114D01*
X117774619Y-103147495D01*
X117869857Y-103099876D01*
X117965095Y-103099876D01*
X118107952Y-103147495D01*
X118679381Y-103718924D01*
X118679381Y-103099876D01*
X117774619Y-102718924D02*
X117727000Y-102671305D01*
X117679381Y-102576067D01*
X117679381Y-102337971D01*
X117727000Y-102242733D01*
X117774619Y-102195114D01*
X117869857Y-102147495D01*
X117965095Y-102147495D01*
X118107952Y-102195114D01*
X118679381Y-102766543D01*
X118679381Y-102147495D01*
X62866543Y-111691657D02*
X62914162Y-111739276D01*
X62961781Y-111882133D01*
X62961781Y-111977371D01*
X62914162Y-112120229D01*
X62818924Y-112215467D01*
X62723686Y-112263086D01*
X62533210Y-112310705D01*
X62390352Y-112310705D01*
X62199876Y-112263086D01*
X62104638Y-112215467D01*
X62009400Y-112120229D01*
X61961781Y-111977371D01*
X61961781Y-111882133D01*
X62009400Y-111739276D01*
X62057019Y-111691657D01*
X62057019Y-111310705D02*
X62009400Y-111263086D01*
X61961781Y-111167848D01*
X61961781Y-110929752D01*
X62009400Y-110834514D01*
X62057019Y-110786895D01*
X62152257Y-110739276D01*
X62247495Y-110739276D01*
X62390352Y-110786895D01*
X62961781Y-111358324D01*
X62961781Y-110739276D01*
X61961781Y-110405943D02*
X61961781Y-109786895D01*
X62342733Y-110120229D01*
X62342733Y-109977371D01*
X62390352Y-109882133D01*
X62437971Y-109834514D01*
X62533210Y-109786895D01*
X62771305Y-109786895D01*
X62866543Y-109834514D01*
X62914162Y-109882133D01*
X62961781Y-109977371D01*
X62961781Y-110263086D01*
X62914162Y-110358324D01*
X62866543Y-110405943D01*
X59247143Y-104707143D02*
X59199524Y-104754762D01*
X59056667Y-104802381D01*
X58961429Y-104802381D01*
X58818571Y-104754762D01*
X58723333Y-104659524D01*
X58675714Y-104564286D01*
X58628095Y-104373810D01*
X58628095Y-104230952D01*
X58675714Y-104040476D01*
X58723333Y-103945238D01*
X58818571Y-103850000D01*
X58961429Y-103802381D01*
X59056667Y-103802381D01*
X59199524Y-103850000D01*
X59247143Y-103897619D01*
X59628095Y-103897619D02*
X59675714Y-103850000D01*
X59770952Y-103802381D01*
X60009048Y-103802381D01*
X60104286Y-103850000D01*
X60151905Y-103897619D01*
X60199524Y-103992857D01*
X60199524Y-104088095D01*
X60151905Y-104230952D01*
X59580476Y-104802381D01*
X60199524Y-104802381D01*
X61056667Y-104135714D02*
X61056667Y-104802381D01*
X60818571Y-103754762D02*
X60580476Y-104469048D01*
X61199524Y-104469048D01*
X117197143Y-115196857D02*
X117244762Y-115244476D01*
X117292381Y-115387333D01*
X117292381Y-115482571D01*
X117244762Y-115625429D01*
X117149524Y-115720667D01*
X117054286Y-115768286D01*
X116863810Y-115815905D01*
X116720952Y-115815905D01*
X116530476Y-115768286D01*
X116435238Y-115720667D01*
X116340000Y-115625429D01*
X116292381Y-115482571D01*
X116292381Y-115387333D01*
X116340000Y-115244476D01*
X116387619Y-115196857D01*
X116387619Y-114815905D02*
X116340000Y-114768286D01*
X116292381Y-114673048D01*
X116292381Y-114434952D01*
X116340000Y-114339714D01*
X116387619Y-114292095D01*
X116482857Y-114244476D01*
X116578095Y-114244476D01*
X116720952Y-114292095D01*
X117292381Y-114863524D01*
X117292381Y-114244476D01*
X116292381Y-113339714D02*
X116292381Y-113815905D01*
X116768571Y-113863524D01*
X116720952Y-113815905D01*
X116673333Y-113720667D01*
X116673333Y-113482571D01*
X116720952Y-113387333D01*
X116768571Y-113339714D01*
X116863810Y-113292095D01*
X117101905Y-113292095D01*
X117197143Y-113339714D01*
X117244762Y-113387333D01*
X117292381Y-113482571D01*
X117292381Y-113720667D01*
X117244762Y-113815905D01*
X117197143Y-113863524D01*
X118838743Y-66092343D02*
X118791124Y-66139962D01*
X118648267Y-66187581D01*
X118553029Y-66187581D01*
X118410171Y-66139962D01*
X118314933Y-66044724D01*
X118267314Y-65949486D01*
X118219695Y-65759010D01*
X118219695Y-65616152D01*
X118267314Y-65425676D01*
X118314933Y-65330438D01*
X118410171Y-65235200D01*
X118553029Y-65187581D01*
X118648267Y-65187581D01*
X118791124Y-65235200D01*
X118838743Y-65282819D01*
X119219695Y-65282819D02*
X119267314Y-65235200D01*
X119362552Y-65187581D01*
X119600648Y-65187581D01*
X119695886Y-65235200D01*
X119743505Y-65282819D01*
X119791124Y-65378057D01*
X119791124Y-65473295D01*
X119743505Y-65616152D01*
X119172076Y-66187581D01*
X119791124Y-66187581D01*
X120124457Y-65187581D02*
X120791124Y-65187581D01*
X120362552Y-66187581D01*
X115287143Y-70237143D02*
X115239524Y-70284762D01*
X115096667Y-70332381D01*
X115001429Y-70332381D01*
X114858571Y-70284762D01*
X114763333Y-70189524D01*
X114715714Y-70094286D01*
X114668095Y-69903810D01*
X114668095Y-69760952D01*
X114715714Y-69570476D01*
X114763333Y-69475238D01*
X114858571Y-69380000D01*
X115001429Y-69332381D01*
X115096667Y-69332381D01*
X115239524Y-69380000D01*
X115287143Y-69427619D01*
X115668095Y-69427619D02*
X115715714Y-69380000D01*
X115810952Y-69332381D01*
X116049048Y-69332381D01*
X116144286Y-69380000D01*
X116191905Y-69427619D01*
X116239524Y-69522857D01*
X116239524Y-69618095D01*
X116191905Y-69760952D01*
X115620476Y-70332381D01*
X116239524Y-70332381D01*
X116810952Y-69760952D02*
X116715714Y-69713333D01*
X116668095Y-69665714D01*
X116620476Y-69570476D01*
X116620476Y-69522857D01*
X116668095Y-69427619D01*
X116715714Y-69380000D01*
X116810952Y-69332381D01*
X117001429Y-69332381D01*
X117096667Y-69380000D01*
X117144286Y-69427619D01*
X117191905Y-69522857D01*
X117191905Y-69570476D01*
X117144286Y-69665714D01*
X117096667Y-69713333D01*
X117001429Y-69760952D01*
X116810952Y-69760952D01*
X116715714Y-69808571D01*
X116668095Y-69856190D01*
X116620476Y-69951429D01*
X116620476Y-70141905D01*
X116668095Y-70237143D01*
X116715714Y-70284762D01*
X116810952Y-70332381D01*
X117001429Y-70332381D01*
X117096667Y-70284762D01*
X117144286Y-70237143D01*
X117191905Y-70141905D01*
X117191905Y-69951429D01*
X117144286Y-69856190D01*
X117096667Y-69808571D01*
X117001429Y-69760952D01*
X111879143Y-61317143D02*
X111831524Y-61364762D01*
X111688667Y-61412381D01*
X111593429Y-61412381D01*
X111450571Y-61364762D01*
X111355333Y-61269524D01*
X111307714Y-61174286D01*
X111260095Y-60983810D01*
X111260095Y-60840952D01*
X111307714Y-60650476D01*
X111355333Y-60555238D01*
X111450571Y-60460000D01*
X111593429Y-60412381D01*
X111688667Y-60412381D01*
X111831524Y-60460000D01*
X111879143Y-60507619D01*
X112260095Y-60507619D02*
X112307714Y-60460000D01*
X112402952Y-60412381D01*
X112641048Y-60412381D01*
X112736286Y-60460000D01*
X112783905Y-60507619D01*
X112831524Y-60602857D01*
X112831524Y-60698095D01*
X112783905Y-60840952D01*
X112212476Y-61412381D01*
X112831524Y-61412381D01*
X113307714Y-61412381D02*
X113498190Y-61412381D01*
X113593429Y-61364762D01*
X113641048Y-61317143D01*
X113736286Y-61174286D01*
X113783905Y-60983810D01*
X113783905Y-60602857D01*
X113736286Y-60507619D01*
X113688667Y-60460000D01*
X113593429Y-60412381D01*
X113402952Y-60412381D01*
X113307714Y-60460000D01*
X113260095Y-60507619D01*
X113212476Y-60602857D01*
X113212476Y-60840952D01*
X113260095Y-60936190D01*
X113307714Y-60983810D01*
X113402952Y-61031429D01*
X113593429Y-61031429D01*
X113688667Y-60983810D01*
X113736286Y-60936190D01*
X113783905Y-60840952D01*
X124096543Y-61266343D02*
X124048924Y-61313962D01*
X123906067Y-61361581D01*
X123810829Y-61361581D01*
X123667971Y-61313962D01*
X123572733Y-61218724D01*
X123525114Y-61123486D01*
X123477495Y-60933010D01*
X123477495Y-60790152D01*
X123525114Y-60599676D01*
X123572733Y-60504438D01*
X123667971Y-60409200D01*
X123810829Y-60361581D01*
X123906067Y-60361581D01*
X124048924Y-60409200D01*
X124096543Y-60456819D01*
X124429876Y-60361581D02*
X125048924Y-60361581D01*
X124715590Y-60742533D01*
X124858448Y-60742533D01*
X124953686Y-60790152D01*
X125001305Y-60837771D01*
X125048924Y-60933010D01*
X125048924Y-61171105D01*
X125001305Y-61266343D01*
X124953686Y-61313962D01*
X124858448Y-61361581D01*
X124572733Y-61361581D01*
X124477495Y-61313962D01*
X124429876Y-61266343D01*
X125667971Y-60361581D02*
X125763210Y-60361581D01*
X125858448Y-60409200D01*
X125906067Y-60456819D01*
X125953686Y-60552057D01*
X126001305Y-60742533D01*
X126001305Y-60980629D01*
X125953686Y-61171105D01*
X125906067Y-61266343D01*
X125858448Y-61313962D01*
X125763210Y-61361581D01*
X125667971Y-61361581D01*
X125572733Y-61313962D01*
X125525114Y-61266343D01*
X125477495Y-61171105D01*
X125429876Y-60980629D01*
X125429876Y-60742533D01*
X125477495Y-60552057D01*
X125525114Y-60456819D01*
X125572733Y-60409200D01*
X125667971Y-60361581D01*
X84913743Y-73617057D02*
X84961362Y-73664676D01*
X85008981Y-73807533D01*
X85008981Y-73902771D01*
X84961362Y-74045629D01*
X84866124Y-74140867D01*
X84770886Y-74188486D01*
X84580410Y-74236105D01*
X84437552Y-74236105D01*
X84247076Y-74188486D01*
X84151838Y-74140867D01*
X84056600Y-74045629D01*
X84008981Y-73902771D01*
X84008981Y-73807533D01*
X84056600Y-73664676D01*
X84104219Y-73617057D01*
X84008981Y-73283724D02*
X84008981Y-72664676D01*
X84389933Y-72998010D01*
X84389933Y-72855152D01*
X84437552Y-72759914D01*
X84485171Y-72712295D01*
X84580410Y-72664676D01*
X84818505Y-72664676D01*
X84913743Y-72712295D01*
X84961362Y-72759914D01*
X85008981Y-72855152D01*
X85008981Y-73140867D01*
X84961362Y-73236105D01*
X84913743Y-73283724D01*
X84008981Y-72331343D02*
X84008981Y-71712295D01*
X84389933Y-72045629D01*
X84389933Y-71902771D01*
X84437552Y-71807533D01*
X84485171Y-71759914D01*
X84580410Y-71712295D01*
X84818505Y-71712295D01*
X84913743Y-71759914D01*
X84961362Y-71807533D01*
X85008981Y-71902771D01*
X85008981Y-72188486D01*
X84961362Y-72283724D01*
X84913743Y-72331343D01*
X31091143Y-123578857D02*
X31138762Y-123626476D01*
X31186381Y-123769333D01*
X31186381Y-123864571D01*
X31138762Y-124007429D01*
X31043524Y-124102667D01*
X30948286Y-124150286D01*
X30757810Y-124197905D01*
X30614952Y-124197905D01*
X30424476Y-124150286D01*
X30329238Y-124102667D01*
X30234000Y-124007429D01*
X30186381Y-123864571D01*
X30186381Y-123769333D01*
X30234000Y-123626476D01*
X30281619Y-123578857D01*
X30186381Y-123245524D02*
X30186381Y-122626476D01*
X30567333Y-122959810D01*
X30567333Y-122816952D01*
X30614952Y-122721714D01*
X30662571Y-122674095D01*
X30757810Y-122626476D01*
X30995905Y-122626476D01*
X31091143Y-122674095D01*
X31138762Y-122721714D01*
X31186381Y-122816952D01*
X31186381Y-123102667D01*
X31138762Y-123197905D01*
X31091143Y-123245524D01*
X30519714Y-121769333D02*
X31186381Y-121769333D01*
X30138762Y-122007429D02*
X30853048Y-122245524D01*
X30853048Y-121626476D01*
X84726543Y-82754743D02*
X84678924Y-82802362D01*
X84536067Y-82849981D01*
X84440829Y-82849981D01*
X84297971Y-82802362D01*
X84202733Y-82707124D01*
X84155114Y-82611886D01*
X84107495Y-82421410D01*
X84107495Y-82278552D01*
X84155114Y-82088076D01*
X84202733Y-81992838D01*
X84297971Y-81897600D01*
X84440829Y-81849981D01*
X84536067Y-81849981D01*
X84678924Y-81897600D01*
X84726543Y-81945219D01*
X85059876Y-81849981D02*
X85678924Y-81849981D01*
X85345590Y-82230933D01*
X85488448Y-82230933D01*
X85583686Y-82278552D01*
X85631305Y-82326171D01*
X85678924Y-82421410D01*
X85678924Y-82659505D01*
X85631305Y-82754743D01*
X85583686Y-82802362D01*
X85488448Y-82849981D01*
X85202733Y-82849981D01*
X85107495Y-82802362D01*
X85059876Y-82754743D01*
X86583686Y-81849981D02*
X86107495Y-81849981D01*
X86059876Y-82326171D01*
X86107495Y-82278552D01*
X86202733Y-82230933D01*
X86440829Y-82230933D01*
X86536067Y-82278552D01*
X86583686Y-82326171D01*
X86631305Y-82421410D01*
X86631305Y-82659505D01*
X86583686Y-82754743D01*
X86536067Y-82802362D01*
X86440829Y-82849981D01*
X86202733Y-82849981D01*
X86107495Y-82802362D01*
X86059876Y-82754743D01*
X31677143Y-78622857D02*
X31724762Y-78670476D01*
X31772381Y-78813333D01*
X31772381Y-78908571D01*
X31724762Y-79051429D01*
X31629524Y-79146667D01*
X31534286Y-79194286D01*
X31343810Y-79241905D01*
X31200952Y-79241905D01*
X31010476Y-79194286D01*
X30915238Y-79146667D01*
X30820000Y-79051429D01*
X30772381Y-78908571D01*
X30772381Y-78813333D01*
X30820000Y-78670476D01*
X30867619Y-78622857D01*
X30772381Y-78289524D02*
X30772381Y-77670476D01*
X31153333Y-78003810D01*
X31153333Y-77860952D01*
X31200952Y-77765714D01*
X31248571Y-77718095D01*
X31343810Y-77670476D01*
X31581905Y-77670476D01*
X31677143Y-77718095D01*
X31724762Y-77765714D01*
X31772381Y-77860952D01*
X31772381Y-78146667D01*
X31724762Y-78241905D01*
X31677143Y-78289524D01*
X30772381Y-76813333D02*
X30772381Y-77003810D01*
X30820000Y-77099048D01*
X30867619Y-77146667D01*
X31010476Y-77241905D01*
X31200952Y-77289524D01*
X31581905Y-77289524D01*
X31677143Y-77241905D01*
X31724762Y-77194286D01*
X31772381Y-77099048D01*
X31772381Y-76908571D01*
X31724762Y-76813333D01*
X31677143Y-76765714D01*
X31581905Y-76718095D01*
X31343810Y-76718095D01*
X31248571Y-76765714D01*
X31200952Y-76813333D01*
X31153333Y-76908571D01*
X31153333Y-77099048D01*
X31200952Y-77194286D01*
X31248571Y-77241905D01*
X31343810Y-77289524D01*
X42267143Y-90812857D02*
X42314762Y-90860476D01*
X42362381Y-91003333D01*
X42362381Y-91098571D01*
X42314762Y-91241429D01*
X42219524Y-91336667D01*
X42124286Y-91384286D01*
X41933810Y-91431905D01*
X41790952Y-91431905D01*
X41600476Y-91384286D01*
X41505238Y-91336667D01*
X41410000Y-91241429D01*
X41362381Y-91098571D01*
X41362381Y-91003333D01*
X41410000Y-90860476D01*
X41457619Y-90812857D01*
X41362381Y-90479524D02*
X41362381Y-89860476D01*
X41743333Y-90193810D01*
X41743333Y-90050952D01*
X41790952Y-89955714D01*
X41838571Y-89908095D01*
X41933810Y-89860476D01*
X42171905Y-89860476D01*
X42267143Y-89908095D01*
X42314762Y-89955714D01*
X42362381Y-90050952D01*
X42362381Y-90336667D01*
X42314762Y-90431905D01*
X42267143Y-90479524D01*
X41362381Y-89527143D02*
X41362381Y-88860476D01*
X42362381Y-89289048D01*
X29154381Y-108370666D02*
X28678190Y-108704000D01*
X29154381Y-108942095D02*
X28154381Y-108942095D01*
X28154381Y-108561142D01*
X28202000Y-108465904D01*
X28249619Y-108418285D01*
X28344857Y-108370666D01*
X28487714Y-108370666D01*
X28582952Y-108418285D01*
X28630571Y-108465904D01*
X28678190Y-108561142D01*
X28678190Y-108942095D01*
X28154381Y-107513523D02*
X28154381Y-107704000D01*
X28202000Y-107799238D01*
X28249619Y-107846857D01*
X28392476Y-107942095D01*
X28582952Y-107989714D01*
X28963905Y-107989714D01*
X29059143Y-107942095D01*
X29106762Y-107894476D01*
X29154381Y-107799238D01*
X29154381Y-107608761D01*
X29106762Y-107513523D01*
X29059143Y-107465904D01*
X28963905Y-107418285D01*
X28725810Y-107418285D01*
X28630571Y-107465904D01*
X28582952Y-107513523D01*
X28535333Y-107608761D01*
X28535333Y-107799238D01*
X28582952Y-107894476D01*
X28630571Y-107942095D01*
X28725810Y-107989714D01*
X29154381Y-104560666D02*
X28678190Y-104894000D01*
X29154381Y-105132095D02*
X28154381Y-105132095D01*
X28154381Y-104751142D01*
X28202000Y-104655904D01*
X28249619Y-104608285D01*
X28344857Y-104560666D01*
X28487714Y-104560666D01*
X28582952Y-104608285D01*
X28630571Y-104655904D01*
X28678190Y-104751142D01*
X28678190Y-105132095D01*
X28154381Y-104227333D02*
X28154381Y-103560666D01*
X29154381Y-103989238D01*
X32710381Y-114466666D02*
X32234190Y-114800000D01*
X32710381Y-115038095D02*
X31710381Y-115038095D01*
X31710381Y-114657142D01*
X31758000Y-114561904D01*
X31805619Y-114514285D01*
X31900857Y-114466666D01*
X32043714Y-114466666D01*
X32138952Y-114514285D01*
X32186571Y-114561904D01*
X32234190Y-114657142D01*
X32234190Y-115038095D01*
X32138952Y-113895238D02*
X32091333Y-113990476D01*
X32043714Y-114038095D01*
X31948476Y-114085714D01*
X31900857Y-114085714D01*
X31805619Y-114038095D01*
X31758000Y-113990476D01*
X31710381Y-113895238D01*
X31710381Y-113704761D01*
X31758000Y-113609523D01*
X31805619Y-113561904D01*
X31900857Y-113514285D01*
X31948476Y-113514285D01*
X32043714Y-113561904D01*
X32091333Y-113609523D01*
X32138952Y-113704761D01*
X32138952Y-113895238D01*
X32186571Y-113990476D01*
X32234190Y-114038095D01*
X32329429Y-114085714D01*
X32519905Y-114085714D01*
X32615143Y-114038095D01*
X32662762Y-113990476D01*
X32710381Y-113895238D01*
X32710381Y-113704761D01*
X32662762Y-113609523D01*
X32615143Y-113561904D01*
X32519905Y-113514285D01*
X32329429Y-113514285D01*
X32234190Y-113561904D01*
X32186571Y-113609523D01*
X32138952Y-113704761D01*
X78238505Y-73467981D02*
X78238505Y-74277505D01*
X78286124Y-74372743D01*
X78333743Y-74420362D01*
X78428981Y-74467981D01*
X78619458Y-74467981D01*
X78714696Y-74420362D01*
X78762315Y-74372743D01*
X78809934Y-74277505D01*
X78809934Y-73467981D01*
X79809934Y-74467981D02*
X79238505Y-74467981D01*
X79524219Y-74467981D02*
X79524219Y-73467981D01*
X79428981Y-73610838D01*
X79333743Y-73706076D01*
X79238505Y-73753695D01*
X80762315Y-74467981D02*
X80190886Y-74467981D01*
X80476600Y-74467981D02*
X80476600Y-73467981D01*
X80381362Y-73610838D01*
X80286124Y-73706076D01*
X80190886Y-73753695D01*
X75946095Y-123912381D02*
X75946095Y-124721905D01*
X75993714Y-124817143D01*
X76041333Y-124864762D01*
X76136571Y-124912381D01*
X76327048Y-124912381D01*
X76422286Y-124864762D01*
X76469905Y-124817143D01*
X76517524Y-124721905D01*
X76517524Y-123912381D01*
X77136571Y-124340952D02*
X77041333Y-124293333D01*
X76993714Y-124245714D01*
X76946095Y-124150476D01*
X76946095Y-124102857D01*
X76993714Y-124007619D01*
X77041333Y-123960000D01*
X77136571Y-123912381D01*
X77327048Y-123912381D01*
X77422286Y-123960000D01*
X77469905Y-124007619D01*
X77517524Y-124102857D01*
X77517524Y-124150476D01*
X77469905Y-124245714D01*
X77422286Y-124293333D01*
X77327048Y-124340952D01*
X77136571Y-124340952D01*
X77041333Y-124388571D01*
X76993714Y-124436190D01*
X76946095Y-124531429D01*
X76946095Y-124721905D01*
X76993714Y-124817143D01*
X77041333Y-124864762D01*
X77136571Y-124912381D01*
X77327048Y-124912381D01*
X77422286Y-124864762D01*
X77469905Y-124817143D01*
X77517524Y-124721905D01*
X77517524Y-124531429D01*
X77469905Y-124436190D01*
X77422286Y-124388571D01*
X77327048Y-124340952D01*
X35838095Y-133252381D02*
X35838095Y-134061905D01*
X35885714Y-134157143D01*
X35933333Y-134204762D01*
X36028571Y-134252381D01*
X36219048Y-134252381D01*
X36314286Y-134204762D01*
X36361905Y-134157143D01*
X36409524Y-134061905D01*
X36409524Y-133252381D01*
X36933333Y-134252381D02*
X37123809Y-134252381D01*
X37219048Y-134204762D01*
X37266667Y-134157143D01*
X37361905Y-134014286D01*
X37409524Y-133823810D01*
X37409524Y-133442857D01*
X37361905Y-133347619D01*
X37314286Y-133300000D01*
X37219048Y-133252381D01*
X37028571Y-133252381D01*
X36933333Y-133300000D01*
X36885714Y-133347619D01*
X36838095Y-133442857D01*
X36838095Y-133680952D01*
X36885714Y-133776190D01*
X36933333Y-133823810D01*
X37028571Y-133871429D01*
X37219048Y-133871429D01*
X37314286Y-133823810D01*
X37361905Y-133776190D01*
X37409524Y-133680952D01*
X37044381Y-117062095D02*
X37853905Y-117062095D01*
X37949143Y-117014476D01*
X37996762Y-116966857D01*
X38044381Y-116871619D01*
X38044381Y-116681142D01*
X37996762Y-116585904D01*
X37949143Y-116538285D01*
X37853905Y-116490666D01*
X37044381Y-116490666D01*
X38044381Y-115490666D02*
X38044381Y-116062095D01*
X38044381Y-115776381D02*
X37044381Y-115776381D01*
X37187238Y-115871619D01*
X37282476Y-115966857D01*
X37330095Y-116062095D01*
X37044381Y-114871619D02*
X37044381Y-114776380D01*
X37092000Y-114681142D01*
X37139619Y-114633523D01*
X37234857Y-114585904D01*
X37425333Y-114538285D01*
X37663429Y-114538285D01*
X37853905Y-114585904D01*
X37949143Y-114633523D01*
X37996762Y-114681142D01*
X38044381Y-114776380D01*
X38044381Y-114871619D01*
X37996762Y-114966857D01*
X37949143Y-115014476D01*
X37853905Y-115062095D01*
X37663429Y-115109714D01*
X37425333Y-115109714D01*
X37234857Y-115062095D01*
X37139619Y-115014476D01*
X37092000Y-114966857D01*
X37044381Y-114871619D01*
X102508095Y-123912381D02*
X102508095Y-124721905D01*
X102555714Y-124817143D01*
X102603333Y-124864762D01*
X102698571Y-124912381D01*
X102889048Y-124912381D01*
X102984286Y-124864762D01*
X103031905Y-124817143D01*
X103079524Y-124721905D01*
X103079524Y-123912381D01*
X104031905Y-123912381D02*
X103555714Y-123912381D01*
X103508095Y-124388571D01*
X103555714Y-124340952D01*
X103650952Y-124293333D01*
X103889048Y-124293333D01*
X103984286Y-124340952D01*
X104031905Y-124388571D01*
X104079524Y-124483810D01*
X104079524Y-124721905D01*
X104031905Y-124817143D01*
X103984286Y-124864762D01*
X103889048Y-124912381D01*
X103650952Y-124912381D01*
X103555714Y-124864762D01*
X103508095Y-124817143D01*
X98806095Y-132040381D02*
X98806095Y-132849905D01*
X98853714Y-132945143D01*
X98901333Y-132992762D01*
X98996571Y-133040381D01*
X99187048Y-133040381D01*
X99282286Y-132992762D01*
X99329905Y-132945143D01*
X99377524Y-132849905D01*
X99377524Y-132040381D01*
X100282286Y-132373714D02*
X100282286Y-133040381D01*
X100044190Y-131992762D02*
X99806095Y-132707048D01*
X100425143Y-132707048D01*
X38131905Y-74890381D02*
X38131905Y-75699905D01*
X38179524Y-75795143D01*
X38227143Y-75842762D01*
X38322381Y-75890381D01*
X38512858Y-75890381D01*
X38608096Y-75842762D01*
X38655715Y-75795143D01*
X38703334Y-75699905D01*
X38703334Y-74890381D01*
X39703334Y-75890381D02*
X39131905Y-75890381D01*
X39417619Y-75890381D02*
X39417619Y-74890381D01*
X39322381Y-75033238D01*
X39227143Y-75128476D01*
X39131905Y-75176095D01*
X40084286Y-74985619D02*
X40131905Y-74938000D01*
X40227143Y-74890381D01*
X40465239Y-74890381D01*
X40560477Y-74938000D01*
X40608096Y-74985619D01*
X40655715Y-75080857D01*
X40655715Y-75176095D01*
X40608096Y-75318952D01*
X40036667Y-75890381D01*
X40655715Y-75890381D01*
X76689105Y-106538781D02*
X76689105Y-107348305D01*
X76736724Y-107443543D01*
X76784343Y-107491162D01*
X76879581Y-107538781D01*
X77070058Y-107538781D01*
X77165296Y-107491162D01*
X77212915Y-107443543D01*
X77260534Y-107348305D01*
X77260534Y-106538781D01*
X78260534Y-107538781D02*
X77689105Y-107538781D01*
X77974819Y-107538781D02*
X77974819Y-106538781D01*
X77879581Y-106681638D01*
X77784343Y-106776876D01*
X77689105Y-106824495D01*
X78593867Y-106538781D02*
X79212915Y-106538781D01*
X78879581Y-106919733D01*
X79022439Y-106919733D01*
X79117677Y-106967352D01*
X79165296Y-107014971D01*
X79212915Y-107110210D01*
X79212915Y-107348305D01*
X79165296Y-107443543D01*
X79117677Y-107491162D01*
X79022439Y-107538781D01*
X78736724Y-107538781D01*
X78641486Y-107491162D01*
X78593867Y-107443543D01*
M02*
