G04 #@! TF.FileFunction,Legend,Bot*
%FSLAX46Y46*%
G04 Gerber Fmt 4.6, Leading zero omitted, Abs format (unit mm)*
G04 Created by KiCad (PCBNEW 4.0.2-stable) date 14/07/2016 12:59:32*
%MOMM*%
G01*
G04 APERTURE LIST*
%ADD10C,0.152400*%
%ADD11C,0.381000*%
%ADD12C,0.127000*%
%ADD13C,0.002540*%
G04 APERTURE END LIST*
D10*
D11*
X125925000Y-129575000D02*
X125925000Y-123600000D01*
X113725000Y-129575000D02*
X125925000Y-129575000D01*
X113725000Y-123600000D02*
X113725000Y-129575000D01*
X125925000Y-123600000D02*
X113725000Y-123600000D01*
D12*
X125292381Y-124270262D02*
X125292381Y-124723833D01*
X125322619Y-124814548D01*
X125383095Y-124875024D01*
X125473810Y-124905262D01*
X125534286Y-124905262D01*
X124990000Y-124905262D02*
X124990000Y-124270262D01*
X124748095Y-124270262D01*
X124687619Y-124300500D01*
X124657380Y-124330738D01*
X124627142Y-124391214D01*
X124627142Y-124481929D01*
X124657380Y-124542405D01*
X124687619Y-124572643D01*
X124748095Y-124602881D01*
X124990000Y-124602881D01*
X124022380Y-124905262D02*
X124385238Y-124905262D01*
X124203809Y-124905262D02*
X124203809Y-124270262D01*
X124264285Y-124360976D01*
X124324761Y-124421452D01*
X124385238Y-124451690D01*
X123266428Y-124844786D02*
X123236189Y-124875024D01*
X123266428Y-124905262D01*
X123296666Y-124875024D01*
X123266428Y-124844786D01*
X123266428Y-124905262D01*
X123266428Y-124512167D02*
X123236189Y-124542405D01*
X123266428Y-124572643D01*
X123296666Y-124542405D01*
X123266428Y-124512167D01*
X123266428Y-124572643D01*
X122540713Y-124270262D02*
X122147617Y-124270262D01*
X122359284Y-124512167D01*
X122268570Y-124512167D01*
X122208094Y-124542405D01*
X122177856Y-124572643D01*
X122147617Y-124633119D01*
X122147617Y-124784310D01*
X122177856Y-124844786D01*
X122208094Y-124875024D01*
X122268570Y-124905262D01*
X122449998Y-124905262D01*
X122510475Y-124875024D01*
X122540713Y-124844786D01*
X121966189Y-124270262D02*
X121754522Y-124905262D01*
X121542855Y-124270262D01*
X121391665Y-124270262D02*
X120998569Y-124270262D01*
X121210236Y-124512167D01*
X121119522Y-124512167D01*
X121059046Y-124542405D01*
X121028808Y-124572643D01*
X120998569Y-124633119D01*
X120998569Y-124784310D01*
X121028808Y-124844786D01*
X121059046Y-124875024D01*
X121119522Y-124905262D01*
X121300950Y-124905262D01*
X121361427Y-124875024D01*
X121391665Y-124844786D01*
X120272855Y-124875024D02*
X120212378Y-124905262D01*
X120091426Y-124905262D01*
X120030950Y-124875024D01*
X120000712Y-124814548D01*
X120000712Y-124784310D01*
X120030950Y-124723833D01*
X120091426Y-124693595D01*
X120182140Y-124693595D01*
X120242617Y-124663357D01*
X120272855Y-124602881D01*
X120272855Y-124572643D01*
X120242617Y-124512167D01*
X120182140Y-124481929D01*
X120091426Y-124481929D01*
X120030950Y-124512167D01*
X119456426Y-124481929D02*
X119456426Y-124905262D01*
X119728569Y-124481929D02*
X119728569Y-124814548D01*
X119698330Y-124875024D01*
X119637854Y-124905262D01*
X119547140Y-124905262D01*
X119486664Y-124875024D01*
X119456426Y-124844786D01*
X119154045Y-124481929D02*
X119154045Y-125116929D01*
X119154045Y-124512167D02*
X119093568Y-124481929D01*
X118972616Y-124481929D01*
X118912140Y-124512167D01*
X118881902Y-124542405D01*
X118851664Y-124602881D01*
X118851664Y-124784310D01*
X118881902Y-124844786D01*
X118912140Y-124875024D01*
X118972616Y-124905262D01*
X119093568Y-124905262D01*
X119154045Y-124875024D01*
X118579521Y-124481929D02*
X118579521Y-125116929D01*
X118579521Y-124512167D02*
X118519044Y-124481929D01*
X118398092Y-124481929D01*
X118337616Y-124512167D01*
X118307378Y-124542405D01*
X118277140Y-124602881D01*
X118277140Y-124784310D01*
X118307378Y-124844786D01*
X118337616Y-124875024D01*
X118398092Y-124905262D01*
X118519044Y-124905262D01*
X118579521Y-124875024D01*
X117914282Y-124905262D02*
X117974758Y-124875024D01*
X118004997Y-124814548D01*
X118004997Y-124270262D01*
X117732854Y-124481929D02*
X117581663Y-124905262D01*
X117430473Y-124481929D02*
X117581663Y-124905262D01*
X117642139Y-125056452D01*
X117672378Y-125086690D01*
X117732854Y-125116929D01*
X116795472Y-124481929D02*
X116553567Y-124481929D01*
X116704758Y-124905262D02*
X116704758Y-124360976D01*
X116674519Y-124300500D01*
X116614043Y-124270262D01*
X116553567Y-124270262D01*
X116341901Y-124905262D02*
X116341901Y-124481929D01*
X116341901Y-124602881D02*
X116311662Y-124542405D01*
X116281424Y-124512167D01*
X116220948Y-124481929D01*
X116160472Y-124481929D01*
X115858091Y-124905262D02*
X115918567Y-124875024D01*
X115948806Y-124844786D01*
X115979044Y-124784310D01*
X115979044Y-124602881D01*
X115948806Y-124542405D01*
X115918567Y-124512167D01*
X115858091Y-124481929D01*
X115767377Y-124481929D01*
X115706901Y-124512167D01*
X115676663Y-124542405D01*
X115646425Y-124602881D01*
X115646425Y-124784310D01*
X115676663Y-124844786D01*
X115706901Y-124875024D01*
X115767377Y-124905262D01*
X115858091Y-124905262D01*
X115374282Y-124905262D02*
X115374282Y-124481929D01*
X115374282Y-124542405D02*
X115344043Y-124512167D01*
X115283567Y-124481929D01*
X115192853Y-124481929D01*
X115132377Y-124512167D01*
X115102139Y-124572643D01*
X115102139Y-124905262D01*
X115102139Y-124572643D02*
X115071901Y-124512167D01*
X115011424Y-124481929D01*
X114920710Y-124481929D01*
X114860234Y-124512167D01*
X114829996Y-124572643D01*
X114829996Y-124905262D01*
X122570950Y-125921262D02*
X122570950Y-125286262D01*
X122570950Y-125528167D02*
X122510473Y-125497929D01*
X122389521Y-125497929D01*
X122329045Y-125528167D01*
X122298807Y-125558405D01*
X122268569Y-125618881D01*
X122268569Y-125800310D01*
X122298807Y-125860786D01*
X122329045Y-125891024D01*
X122389521Y-125921262D01*
X122510473Y-125921262D01*
X122570950Y-125891024D01*
X121905711Y-125921262D02*
X121966187Y-125891024D01*
X121996426Y-125860786D01*
X122026664Y-125800310D01*
X122026664Y-125618881D01*
X121996426Y-125558405D01*
X121966187Y-125528167D01*
X121905711Y-125497929D01*
X121814997Y-125497929D01*
X121754521Y-125528167D01*
X121724283Y-125558405D01*
X121694045Y-125618881D01*
X121694045Y-125800310D01*
X121724283Y-125860786D01*
X121754521Y-125891024D01*
X121814997Y-125921262D01*
X121905711Y-125921262D01*
X121149759Y-125921262D02*
X121149759Y-125588643D01*
X121179997Y-125528167D01*
X121240473Y-125497929D01*
X121361425Y-125497929D01*
X121421902Y-125528167D01*
X121149759Y-125891024D02*
X121210235Y-125921262D01*
X121361425Y-125921262D01*
X121421902Y-125891024D01*
X121452140Y-125830548D01*
X121452140Y-125770071D01*
X121421902Y-125709595D01*
X121361425Y-125679357D01*
X121210235Y-125679357D01*
X121149759Y-125649119D01*
X120847378Y-125921262D02*
X120847378Y-125497929D01*
X120847378Y-125618881D02*
X120817139Y-125558405D01*
X120786901Y-125528167D01*
X120726425Y-125497929D01*
X120665949Y-125497929D01*
X120182140Y-125921262D02*
X120182140Y-125286262D01*
X120182140Y-125891024D02*
X120242616Y-125921262D01*
X120363568Y-125921262D01*
X120424044Y-125891024D01*
X120454283Y-125860786D01*
X120484521Y-125800310D01*
X120484521Y-125618881D01*
X120454283Y-125558405D01*
X120424044Y-125528167D01*
X120363568Y-125497929D01*
X120242616Y-125497929D01*
X120182140Y-125528167D01*
X119456425Y-125497929D02*
X119335472Y-125921262D01*
X119214520Y-125618881D01*
X119093568Y-125921262D01*
X118972615Y-125497929D01*
X118730711Y-125921262D02*
X118730711Y-125286262D01*
X118458568Y-125921262D02*
X118458568Y-125588643D01*
X118488806Y-125528167D01*
X118549282Y-125497929D01*
X118639996Y-125497929D01*
X118700472Y-125528167D01*
X118730711Y-125558405D01*
X117914282Y-125891024D02*
X117974758Y-125921262D01*
X118095710Y-125921262D01*
X118156187Y-125891024D01*
X118186425Y-125830548D01*
X118186425Y-125588643D01*
X118156187Y-125528167D01*
X118095710Y-125497929D01*
X117974758Y-125497929D01*
X117914282Y-125528167D01*
X117884044Y-125588643D01*
X117884044Y-125649119D01*
X118186425Y-125709595D01*
X117611901Y-125497929D02*
X117611901Y-125921262D01*
X117611901Y-125558405D02*
X117581662Y-125528167D01*
X117521186Y-125497929D01*
X117430472Y-125497929D01*
X117369996Y-125528167D01*
X117339758Y-125588643D01*
X117339758Y-125921262D01*
X116281424Y-125891024D02*
X116341900Y-125921262D01*
X116462852Y-125921262D01*
X116523328Y-125891024D01*
X116553567Y-125860786D01*
X116583805Y-125800310D01*
X116583805Y-125618881D01*
X116553567Y-125558405D01*
X116523328Y-125528167D01*
X116462852Y-125497929D01*
X116341900Y-125497929D01*
X116281424Y-125528167D01*
X115918566Y-125921262D02*
X115979042Y-125891024D01*
X116009281Y-125830548D01*
X116009281Y-125286262D01*
X115585947Y-125921262D02*
X115646423Y-125891024D01*
X115676662Y-125860786D01*
X115706900Y-125800310D01*
X115706900Y-125618881D01*
X115676662Y-125558405D01*
X115646423Y-125528167D01*
X115585947Y-125497929D01*
X115495233Y-125497929D01*
X115434757Y-125528167D01*
X115404519Y-125558405D01*
X115374281Y-125618881D01*
X115374281Y-125800310D01*
X115404519Y-125860786D01*
X115434757Y-125891024D01*
X115495233Y-125921262D01*
X115585947Y-125921262D01*
X115132376Y-125891024D02*
X115071899Y-125921262D01*
X114950947Y-125921262D01*
X114890471Y-125891024D01*
X114860233Y-125830548D01*
X114860233Y-125800310D01*
X114890471Y-125739833D01*
X114950947Y-125709595D01*
X115041661Y-125709595D01*
X115102138Y-125679357D01*
X115132376Y-125618881D01*
X115132376Y-125588643D01*
X115102138Y-125528167D01*
X115041661Y-125497929D01*
X114950947Y-125497929D01*
X114890471Y-125528167D01*
X114346185Y-125891024D02*
X114406661Y-125921262D01*
X114527613Y-125921262D01*
X114588090Y-125891024D01*
X114618328Y-125830548D01*
X114618328Y-125588643D01*
X114588090Y-125528167D01*
X114527613Y-125497929D01*
X114406661Y-125497929D01*
X114346185Y-125528167D01*
X114315947Y-125588643D01*
X114315947Y-125649119D01*
X114618328Y-125709595D01*
X125292381Y-127318262D02*
X125292381Y-127771833D01*
X125322619Y-127862548D01*
X125383095Y-127923024D01*
X125473810Y-127953262D01*
X125534286Y-127953262D01*
X124990000Y-127953262D02*
X124990000Y-127318262D01*
X124748095Y-127318262D01*
X124687619Y-127348500D01*
X124657380Y-127378738D01*
X124627142Y-127439214D01*
X124627142Y-127529929D01*
X124657380Y-127590405D01*
X124687619Y-127620643D01*
X124748095Y-127650881D01*
X124990000Y-127650881D01*
X124385238Y-127378738D02*
X124355000Y-127348500D01*
X124294523Y-127318262D01*
X124143333Y-127318262D01*
X124082857Y-127348500D01*
X124052619Y-127378738D01*
X124022380Y-127439214D01*
X124022380Y-127499690D01*
X124052619Y-127590405D01*
X124415476Y-127953262D01*
X124022380Y-127953262D01*
X123266428Y-127892786D02*
X123236189Y-127923024D01*
X123266428Y-127953262D01*
X123296666Y-127923024D01*
X123266428Y-127892786D01*
X123266428Y-127953262D01*
X123266428Y-127560167D02*
X123236189Y-127590405D01*
X123266428Y-127620643D01*
X123296666Y-127590405D01*
X123266428Y-127560167D01*
X123266428Y-127620643D01*
X122177856Y-127318262D02*
X122480237Y-127318262D01*
X122510475Y-127620643D01*
X122480237Y-127590405D01*
X122419760Y-127560167D01*
X122268570Y-127560167D01*
X122208094Y-127590405D01*
X122177856Y-127620643D01*
X122147617Y-127681119D01*
X122147617Y-127832310D01*
X122177856Y-127892786D01*
X122208094Y-127923024D01*
X122268570Y-127953262D01*
X122419760Y-127953262D01*
X122480237Y-127923024D01*
X122510475Y-127892786D01*
X121966189Y-127318262D02*
X121754522Y-127953262D01*
X121542855Y-127318262D01*
X120877617Y-127923024D02*
X120817140Y-127953262D01*
X120696188Y-127953262D01*
X120635712Y-127923024D01*
X120605474Y-127862548D01*
X120605474Y-127832310D01*
X120635712Y-127771833D01*
X120696188Y-127741595D01*
X120786902Y-127741595D01*
X120847379Y-127711357D01*
X120877617Y-127650881D01*
X120877617Y-127620643D01*
X120847379Y-127560167D01*
X120786902Y-127529929D01*
X120696188Y-127529929D01*
X120635712Y-127560167D01*
X120061188Y-127529929D02*
X120061188Y-127953262D01*
X120333331Y-127529929D02*
X120333331Y-127862548D01*
X120303092Y-127923024D01*
X120242616Y-127953262D01*
X120151902Y-127953262D01*
X120091426Y-127923024D01*
X120061188Y-127892786D01*
X119758807Y-127529929D02*
X119758807Y-128164929D01*
X119758807Y-127560167D02*
X119698330Y-127529929D01*
X119577378Y-127529929D01*
X119516902Y-127560167D01*
X119486664Y-127590405D01*
X119456426Y-127650881D01*
X119456426Y-127832310D01*
X119486664Y-127892786D01*
X119516902Y-127923024D01*
X119577378Y-127953262D01*
X119698330Y-127953262D01*
X119758807Y-127923024D01*
X119184283Y-127529929D02*
X119184283Y-128164929D01*
X119184283Y-127560167D02*
X119123806Y-127529929D01*
X119002854Y-127529929D01*
X118942378Y-127560167D01*
X118912140Y-127590405D01*
X118881902Y-127650881D01*
X118881902Y-127832310D01*
X118912140Y-127892786D01*
X118942378Y-127923024D01*
X119002854Y-127953262D01*
X119123806Y-127953262D01*
X119184283Y-127923024D01*
X118519044Y-127953262D02*
X118579520Y-127923024D01*
X118609759Y-127862548D01*
X118609759Y-127318262D01*
X118337616Y-127529929D02*
X118186425Y-127953262D01*
X118035235Y-127529929D02*
X118186425Y-127953262D01*
X118246901Y-128104452D01*
X118277140Y-128134690D01*
X118337616Y-128164929D01*
X117400234Y-127529929D02*
X117158329Y-127529929D01*
X117309520Y-127953262D02*
X117309520Y-127408976D01*
X117279281Y-127348500D01*
X117218805Y-127318262D01*
X117158329Y-127318262D01*
X116946663Y-127953262D02*
X116946663Y-127529929D01*
X116946663Y-127650881D02*
X116916424Y-127590405D01*
X116886186Y-127560167D01*
X116825710Y-127529929D01*
X116765234Y-127529929D01*
X116462853Y-127953262D02*
X116523329Y-127923024D01*
X116553568Y-127892786D01*
X116583806Y-127832310D01*
X116583806Y-127650881D01*
X116553568Y-127590405D01*
X116523329Y-127560167D01*
X116462853Y-127529929D01*
X116372139Y-127529929D01*
X116311663Y-127560167D01*
X116281425Y-127590405D01*
X116251187Y-127650881D01*
X116251187Y-127832310D01*
X116281425Y-127892786D01*
X116311663Y-127923024D01*
X116372139Y-127953262D01*
X116462853Y-127953262D01*
X115979044Y-127953262D02*
X115979044Y-127529929D01*
X115979044Y-127590405D02*
X115948805Y-127560167D01*
X115888329Y-127529929D01*
X115797615Y-127529929D01*
X115737139Y-127560167D01*
X115706901Y-127620643D01*
X115706901Y-127953262D01*
X115706901Y-127620643D02*
X115676663Y-127560167D01*
X115616186Y-127529929D01*
X115525472Y-127529929D01*
X115464996Y-127560167D01*
X115434758Y-127620643D01*
X115434758Y-127953262D01*
X122570950Y-128334262D02*
X122570950Y-128848310D01*
X122540711Y-128908786D01*
X122510473Y-128939024D01*
X122449997Y-128969262D01*
X122329045Y-128969262D01*
X122268569Y-128939024D01*
X122238330Y-128908786D01*
X122208092Y-128848310D01*
X122208092Y-128334262D01*
X121935950Y-128939024D02*
X121845235Y-128969262D01*
X121694045Y-128969262D01*
X121633569Y-128939024D01*
X121603331Y-128908786D01*
X121573092Y-128848310D01*
X121573092Y-128787833D01*
X121603331Y-128727357D01*
X121633569Y-128697119D01*
X121694045Y-128666881D01*
X121814997Y-128636643D01*
X121875473Y-128606405D01*
X121905712Y-128576167D01*
X121935950Y-128515690D01*
X121935950Y-128455214D01*
X121905712Y-128394738D01*
X121875473Y-128364500D01*
X121814997Y-128334262D01*
X121663807Y-128334262D01*
X121573092Y-128364500D01*
X121089283Y-128636643D02*
X120998569Y-128666881D01*
X120968330Y-128697119D01*
X120938092Y-128757595D01*
X120938092Y-128848310D01*
X120968330Y-128908786D01*
X120998569Y-128939024D01*
X121059045Y-128969262D01*
X121300950Y-128969262D01*
X121300950Y-128334262D01*
X121089283Y-128334262D01*
X121028807Y-128364500D01*
X120998569Y-128394738D01*
X120968330Y-128455214D01*
X120968330Y-128515690D01*
X120998569Y-128576167D01*
X121028807Y-128606405D01*
X121089283Y-128636643D01*
X121300950Y-128636643D01*
X120242616Y-128545929D02*
X120121663Y-128969262D01*
X120000711Y-128666881D01*
X119879759Y-128969262D01*
X119758806Y-128545929D01*
X119516902Y-128969262D02*
X119516902Y-128334262D01*
X119244759Y-128969262D02*
X119244759Y-128636643D01*
X119274997Y-128576167D01*
X119335473Y-128545929D01*
X119426187Y-128545929D01*
X119486663Y-128576167D01*
X119516902Y-128606405D01*
X118700473Y-128939024D02*
X118760949Y-128969262D01*
X118881901Y-128969262D01*
X118942378Y-128939024D01*
X118972616Y-128878548D01*
X118972616Y-128636643D01*
X118942378Y-128576167D01*
X118881901Y-128545929D01*
X118760949Y-128545929D01*
X118700473Y-128576167D01*
X118670235Y-128636643D01*
X118670235Y-128697119D01*
X118972616Y-128757595D01*
X118398092Y-128545929D02*
X118398092Y-128969262D01*
X118398092Y-128606405D02*
X118367853Y-128576167D01*
X118307377Y-128545929D01*
X118216663Y-128545929D01*
X118156187Y-128576167D01*
X118125949Y-128636643D01*
X118125949Y-128969262D01*
X117067615Y-128939024D02*
X117128091Y-128969262D01*
X117249043Y-128969262D01*
X117309519Y-128939024D01*
X117339758Y-128908786D01*
X117369996Y-128848310D01*
X117369996Y-128666881D01*
X117339758Y-128606405D01*
X117309519Y-128576167D01*
X117249043Y-128545929D01*
X117128091Y-128545929D01*
X117067615Y-128576167D01*
X116704757Y-128969262D02*
X116765233Y-128939024D01*
X116795472Y-128878548D01*
X116795472Y-128334262D01*
X116372138Y-128969262D02*
X116432614Y-128939024D01*
X116462853Y-128908786D01*
X116493091Y-128848310D01*
X116493091Y-128666881D01*
X116462853Y-128606405D01*
X116432614Y-128576167D01*
X116372138Y-128545929D01*
X116281424Y-128545929D01*
X116220948Y-128576167D01*
X116190710Y-128606405D01*
X116160472Y-128666881D01*
X116160472Y-128848310D01*
X116190710Y-128908786D01*
X116220948Y-128939024D01*
X116281424Y-128969262D01*
X116372138Y-128969262D01*
X115918567Y-128939024D02*
X115858090Y-128969262D01*
X115737138Y-128969262D01*
X115676662Y-128939024D01*
X115646424Y-128878548D01*
X115646424Y-128848310D01*
X115676662Y-128787833D01*
X115737138Y-128757595D01*
X115827852Y-128757595D01*
X115888329Y-128727357D01*
X115918567Y-128666881D01*
X115918567Y-128636643D01*
X115888329Y-128576167D01*
X115827852Y-128545929D01*
X115737138Y-128545929D01*
X115676662Y-128576167D01*
X115132376Y-128939024D02*
X115192852Y-128969262D01*
X115313804Y-128969262D01*
X115374281Y-128939024D01*
X115404519Y-128878548D01*
X115404519Y-128636643D01*
X115374281Y-128576167D01*
X115313804Y-128545929D01*
X115192852Y-128545929D01*
X115132376Y-128576167D01*
X115102138Y-128636643D01*
X115102138Y-128697119D01*
X115404519Y-128757595D01*
D13*
G36*
X125830180Y-88243000D02*
X125489820Y-88243000D01*
X125489820Y-88497000D01*
X125489820Y-91969180D01*
X117278000Y-91969180D01*
X117278000Y-88497000D01*
X125489820Y-88497000D01*
X125489820Y-88243000D01*
X116940180Y-88243000D01*
X116940180Y-88497000D01*
X116940180Y-91969180D01*
X105340000Y-91969180D01*
X105340000Y-88497000D01*
X116940180Y-88497000D01*
X116940180Y-88243000D01*
X105002180Y-88243000D01*
X105002180Y-92223180D01*
X125830180Y-92223180D01*
X125830180Y-88243000D01*
X125830180Y-88243000D01*
X125830180Y-88243000D01*
G37*
X125830180Y-88243000D02*
X125489820Y-88243000D01*
X125489820Y-88497000D01*
X125489820Y-91969180D01*
X117278000Y-91969180D01*
X117278000Y-88497000D01*
X125489820Y-88497000D01*
X125489820Y-88243000D01*
X116940180Y-88243000D01*
X116940180Y-88497000D01*
X116940180Y-91969180D01*
X105340000Y-91969180D01*
X105340000Y-88497000D01*
X116940180Y-88497000D01*
X116940180Y-88243000D01*
X105002180Y-88243000D01*
X105002180Y-92223180D01*
X125830180Y-92223180D01*
X125830180Y-88243000D01*
X125830180Y-88243000D01*
G36*
X111980180Y-125568000D02*
X111639820Y-125568000D01*
X111639820Y-125822000D01*
X111639820Y-129294180D01*
X103428000Y-129294180D01*
X103428000Y-125822000D01*
X111639820Y-125822000D01*
X111639820Y-125568000D01*
X103090180Y-125568000D01*
X103090180Y-125822000D01*
X103090180Y-129294180D01*
X91490000Y-129294180D01*
X91490000Y-125822000D01*
X103090180Y-125822000D01*
X103090180Y-125568000D01*
X91152180Y-125568000D01*
X91152180Y-129548180D01*
X111980180Y-129548180D01*
X111980180Y-125568000D01*
X111980180Y-125568000D01*
X111980180Y-125568000D01*
G37*
X111980180Y-125568000D02*
X111639820Y-125568000D01*
X111639820Y-125822000D01*
X111639820Y-129294180D01*
X103428000Y-129294180D01*
X103428000Y-125822000D01*
X111639820Y-125822000D01*
X111639820Y-125568000D01*
X103090180Y-125568000D01*
X103090180Y-125822000D01*
X103090180Y-129294180D01*
X91490000Y-129294180D01*
X91490000Y-125822000D01*
X103090180Y-125822000D01*
X103090180Y-125568000D01*
X91152180Y-125568000D01*
X91152180Y-129548180D01*
X111980180Y-129548180D01*
X111980180Y-125568000D01*
X111980180Y-125568000D01*
M02*
