G04 #@! TF.FileFunction,Copper,L2,Bot,Signal*
%FSLAX46Y46*%
G04 Gerber Fmt 4.6, Leading zero omitted, Abs format (unit mm)*
G04 Created by KiCad (PCBNEW 4.0.2-stable) date 14/07/2016 12:59:32*
%MOMM*%
G01*
G04 APERTURE LIST*
%ADD10C,0.152400*%
%ADD11C,1.651000*%
%ADD12R,2.032000X2.032000*%
%ADD13O,2.032000X2.032000*%
%ADD14C,1.407160*%
%ADD15R,1.727200X1.727200*%
%ADD16O,1.727200X1.727200*%
%ADD17R,2.235200X2.235200*%
%ADD18C,0.700000*%
%ADD19C,0.406400*%
%ADD20C,0.203100*%
%ADD21C,0.254000*%
G04 APERTURE END LIST*
D10*
D11*
X79245000Y-127220000D03*
X79245000Y-124680000D03*
X81785000Y-127220000D03*
X81785000Y-124680000D03*
X84325000Y-127220000D03*
X84325000Y-124680000D03*
X86865000Y-127220000D03*
X86865000Y-124680000D03*
X89405000Y-127220000D03*
X89405000Y-124680000D03*
D12*
X102225000Y-86075000D03*
D13*
X102225000Y-88615000D03*
D14*
X89124640Y-86100000D03*
X84725360Y-86100000D03*
D15*
X121975000Y-115750000D03*
D16*
X119435000Y-115750000D03*
X121975000Y-113210000D03*
X119435000Y-113210000D03*
X121975000Y-110670000D03*
X119435000Y-110670000D03*
X121975000Y-108130000D03*
X119435000Y-108130000D03*
X121975000Y-105590000D03*
X119435000Y-105590000D03*
D15*
X111825000Y-100550000D03*
D16*
X111825000Y-98010000D03*
X114365000Y-100550000D03*
X114365000Y-98010000D03*
X116905000Y-100550000D03*
X116905000Y-98010000D03*
X119445000Y-100550000D03*
X119445000Y-98010000D03*
X121985000Y-100550000D03*
X121985000Y-98010000D03*
D12*
X121975000Y-120050000D03*
D13*
X124515000Y-120050000D03*
D17*
X103200000Y-94400000D03*
D18*
X78700000Y-95550000D03*
X108200000Y-115475000D03*
X111625000Y-112900000D03*
X121575000Y-122500000D03*
X119350000Y-119200000D03*
X103300000Y-123150000D03*
X96950000Y-124400000D03*
X96950000Y-122500000D03*
X95450000Y-122500000D03*
X93950000Y-122500000D03*
X92450000Y-122500000D03*
X104550000Y-124400000D03*
X102050000Y-124400000D03*
X99550000Y-124400000D03*
X98250000Y-124400000D03*
X109475000Y-93650000D03*
X107375000Y-93650000D03*
X107375000Y-95750000D03*
X104350000Y-82500000D03*
X101850000Y-82500000D03*
X99350000Y-82500000D03*
X96850000Y-82500000D03*
X94350000Y-82500000D03*
X99475000Y-85125000D03*
X96975000Y-85125000D03*
X79475000Y-82525000D03*
X79475000Y-85025000D03*
X79475000Y-87525000D03*
X79475000Y-90025000D03*
X108850000Y-123775000D03*
X108050000Y-122375000D03*
X109350000Y-122375000D03*
X98850000Y-123250000D03*
X80500000Y-113600000D03*
X80500000Y-111100000D03*
X80500000Y-108600000D03*
X80500000Y-106100000D03*
X83000000Y-106100000D03*
X83000000Y-108600000D03*
X83000000Y-111100000D03*
X83000000Y-113600000D03*
X85500000Y-113600000D03*
X85500000Y-111100000D03*
X85500000Y-108600000D03*
X106000000Y-103050000D03*
X109500000Y-102350000D03*
X107700000Y-102350000D03*
X107700000Y-100550000D03*
X109500000Y-100550000D03*
X121325000Y-103000000D03*
X123025000Y-103000000D03*
X125875000Y-93000000D03*
X125875000Y-108000000D03*
X125875000Y-103000000D03*
X125875000Y-98000000D03*
X96300000Y-90700000D03*
X95550000Y-98400000D03*
X96450000Y-97100000D03*
X94550000Y-97100000D03*
X101600000Y-91550000D03*
X100100000Y-93050000D03*
X94500000Y-93700000D03*
X87550000Y-95800000D03*
X88450000Y-94900000D03*
X89350000Y-94000000D03*
X90250000Y-93100000D03*
X97450000Y-92200000D03*
X95350000Y-92200000D03*
X93250000Y-92200000D03*
X91150000Y-92200000D03*
X116775000Y-95175000D03*
X118075000Y-95175000D03*
X119375000Y-95175000D03*
X120675000Y-95175000D03*
X121975000Y-94375000D03*
X121975000Y-95475000D03*
X87025000Y-119025000D03*
X90575000Y-116875000D03*
X85525000Y-120525000D03*
X85525000Y-119025000D03*
X85525000Y-117525000D03*
X85525000Y-116025000D03*
X95000000Y-118275000D03*
X114225000Y-119850000D03*
X115225000Y-118850000D03*
X115225000Y-116750000D03*
X114125000Y-117850000D03*
X113025000Y-118950000D03*
X111925000Y-120050000D03*
X113050000Y-122375000D03*
X114325000Y-121375000D03*
X114325000Y-122475000D03*
X106425000Y-117975000D03*
X108525000Y-117975000D03*
X115500000Y-108475000D03*
X114600000Y-109375000D03*
X113700000Y-110275000D03*
X106250000Y-106475000D03*
X107750000Y-106475000D03*
X109250000Y-106475000D03*
X110750000Y-106475000D03*
X112250000Y-106475000D03*
X113250000Y-105475000D03*
X114250000Y-104475000D03*
X115250000Y-103475000D03*
X98925000Y-120575000D03*
X98725000Y-116050000D03*
X97075000Y-116050000D03*
X101400000Y-114800000D03*
X100500000Y-114250000D03*
X103650000Y-116125000D03*
X104550000Y-116125000D03*
X104550000Y-115175000D03*
X97475000Y-111650000D03*
X98975000Y-111350000D03*
X98775000Y-109800000D03*
X100075000Y-110250000D03*
X101175000Y-109150000D03*
X99875000Y-108500000D03*
X98575000Y-108500000D03*
X97275000Y-108500000D03*
X97275000Y-109800000D03*
X94000000Y-103575000D03*
X94500000Y-104875000D03*
X94500000Y-106175000D03*
X93000000Y-106175000D03*
X92100000Y-105275000D03*
X92100000Y-103575000D03*
X85500000Y-106100000D03*
X97350000Y-100575000D03*
X98450000Y-100575000D03*
X101950000Y-101200000D03*
X100850000Y-101175000D03*
X99750000Y-101175000D03*
X104200000Y-111850000D03*
X85350000Y-92400000D03*
X85350000Y-91100000D03*
X82650000Y-95000000D03*
X81350000Y-95000000D03*
X85500000Y-104800000D03*
X94050000Y-98400000D03*
X83050000Y-100750000D03*
X81750000Y-100750000D03*
X80450000Y-100750000D03*
X79150000Y-100750000D03*
X92900000Y-110250000D03*
X102600000Y-111850000D03*
X103400000Y-112650000D03*
X80700000Y-116900000D03*
X87500000Y-121100000D03*
X97850000Y-103750000D03*
X92925000Y-114675000D03*
X108650000Y-111475000D03*
X100725000Y-120125000D03*
X112925000Y-126400000D03*
X96900000Y-113100000D03*
X101600000Y-113100000D03*
X93400000Y-107750000D03*
X102150000Y-110250000D03*
X102325000Y-104650000D03*
X101550000Y-104250000D03*
X85125000Y-103350000D03*
X99450000Y-104250000D03*
X100500000Y-104250000D03*
D19*
X85635000Y-88615000D02*
X102225000Y-88615000D01*
X78700000Y-95550000D02*
X85635000Y-88615000D01*
X106425000Y-117250000D02*
X106425000Y-117975000D01*
X108200000Y-115475000D02*
X106425000Y-117250000D01*
X111625000Y-112900000D02*
X106550000Y-117975000D01*
X106550000Y-117975000D02*
X106425000Y-117975000D01*
X115225000Y-118850000D02*
X119000000Y-118850000D01*
X119000000Y-118850000D02*
X119350000Y-119200000D01*
X102050000Y-124400000D02*
X103300000Y-123150000D01*
X96950000Y-124400000D02*
X98250000Y-124400000D01*
X95450000Y-122500000D02*
X96950000Y-122500000D01*
X92450000Y-122500000D02*
X93950000Y-122500000D01*
X99550000Y-124400000D02*
X102050000Y-124400000D01*
X107375000Y-95750000D02*
X107375000Y-93650000D01*
X96975000Y-85125000D02*
X94350000Y-82500000D01*
X101850000Y-82500000D02*
X104350000Y-82500000D01*
X96850000Y-82500000D02*
X99350000Y-82500000D01*
X96975000Y-85125000D02*
X99475000Y-85125000D01*
X79475000Y-85025000D02*
X79475000Y-82525000D01*
X79475000Y-90025000D02*
X79475000Y-87525000D01*
X109350000Y-122375000D02*
X108050000Y-122375000D01*
X98850000Y-120650000D02*
X98850000Y-123250000D01*
X85500000Y-106100000D02*
X85500000Y-108600000D01*
X80500000Y-111100000D02*
X80500000Y-113600000D01*
X80500000Y-106100000D02*
X80500000Y-108600000D01*
X83000000Y-108600000D02*
X83000000Y-106100000D01*
X83000000Y-113600000D02*
X83000000Y-111100000D01*
X85500000Y-111100000D02*
X85500000Y-113600000D01*
X107700000Y-102350000D02*
X109500000Y-102350000D01*
X109500000Y-100550000D02*
X107700000Y-100550000D01*
X80450000Y-100750000D02*
X80450000Y-95900000D01*
X80450000Y-95900000D02*
X81350000Y-95000000D01*
X115250000Y-103475000D02*
X112325000Y-103475000D01*
X111825000Y-102975000D02*
X111825000Y-100550000D01*
X112325000Y-103475000D02*
X111825000Y-102975000D01*
X125875000Y-103000000D02*
X123025000Y-103000000D01*
X116905000Y-102680000D02*
X116905000Y-100550000D01*
X117225000Y-103000000D02*
X116905000Y-102680000D01*
X121325000Y-103000000D02*
X117225000Y-103000000D01*
X121985000Y-98010000D02*
X125865000Y-98010000D01*
X125875000Y-103000000D02*
X125875000Y-108000000D01*
X125865000Y-98010000D02*
X125875000Y-98000000D01*
X101400000Y-114800000D02*
X101550000Y-114800000D01*
X103400000Y-112950000D02*
X103400000Y-112650000D01*
X101550000Y-114800000D02*
X103400000Y-112950000D01*
X98725000Y-116050000D02*
X99525000Y-116050000D01*
X100500000Y-115075000D02*
X100500000Y-114250000D01*
X99525000Y-116050000D02*
X100500000Y-115075000D01*
X94050000Y-98400000D02*
X95550000Y-98400000D01*
X94050000Y-97600000D02*
X94550000Y-97100000D01*
X94050000Y-98400000D02*
X94050000Y-97600000D01*
X95350000Y-92200000D02*
X99250000Y-92200000D01*
X99250000Y-92200000D02*
X100100000Y-93050000D01*
X95350000Y-92200000D02*
X95350000Y-92850000D01*
X95350000Y-92850000D02*
X94500000Y-93700000D01*
X87550000Y-95800000D02*
X88450000Y-94900000D01*
X89350000Y-94000000D02*
X90250000Y-93100000D01*
X95350000Y-92200000D02*
X97450000Y-92200000D01*
X91150000Y-92200000D02*
X93250000Y-92200000D01*
X121975000Y-94375000D02*
X121475000Y-94375000D01*
X119375000Y-95175000D02*
X118075000Y-95175000D01*
X121475000Y-94375000D02*
X120675000Y-95175000D01*
X121975000Y-95475000D02*
X121975000Y-94375000D01*
X85525000Y-119025000D02*
X87025000Y-119025000D01*
X90575000Y-116875000D02*
X86375000Y-116875000D01*
X85525000Y-117525000D02*
X85525000Y-119025000D01*
X86375000Y-116875000D02*
X85525000Y-116025000D01*
X111925000Y-120050000D02*
X107900000Y-120050000D01*
X106425000Y-118575000D02*
X106425000Y-117975000D01*
X107900000Y-120050000D02*
X106425000Y-118575000D01*
X115225000Y-118850000D02*
X114225000Y-119850000D01*
X114125000Y-117850000D02*
X115225000Y-116750000D01*
X111925000Y-120050000D02*
X113025000Y-118950000D01*
X114050000Y-121375000D02*
X114325000Y-121375000D01*
X113050000Y-122375000D02*
X114050000Y-121375000D01*
X114325000Y-121375000D02*
X114325000Y-122475000D01*
X106425000Y-117975000D02*
X108525000Y-117975000D01*
X113700000Y-110275000D02*
X114600000Y-109375000D01*
X106250000Y-106475000D02*
X107750000Y-106475000D01*
X109250000Y-106475000D02*
X110750000Y-106475000D01*
X112250000Y-106475000D02*
X113250000Y-105475000D01*
X114250000Y-104475000D02*
X115250000Y-103475000D01*
X98925000Y-120575000D02*
X98850000Y-120650000D01*
X97075000Y-116050000D02*
X98725000Y-116050000D01*
X101400000Y-114800000D02*
X100850000Y-114250000D01*
X100850000Y-114250000D02*
X100500000Y-114250000D01*
X104550000Y-115175000D02*
X104550000Y-116125000D01*
X97475000Y-111650000D02*
X97775000Y-111350000D01*
X97775000Y-111350000D02*
X98975000Y-111350000D01*
X100075000Y-110250000D02*
X101175000Y-109150000D01*
X99875000Y-108500000D02*
X98575000Y-108500000D01*
X97275000Y-108500000D02*
X97275000Y-109800000D01*
X85500000Y-106100000D02*
X89575000Y-106100000D01*
X94500000Y-106175000D02*
X94500000Y-104875000D01*
X92100000Y-105275000D02*
X93000000Y-106175000D01*
X89575000Y-106100000D02*
X92100000Y-103575000D01*
X99750000Y-101175000D02*
X99050000Y-101175000D01*
X99050000Y-101175000D02*
X98450000Y-100575000D01*
X99750000Y-101175000D02*
X100850000Y-101175000D01*
X104200000Y-111850000D02*
X103400000Y-112650000D01*
X85350000Y-91100000D02*
X85350000Y-92400000D01*
X82650000Y-95000000D02*
X81350000Y-95000000D01*
X81350000Y-101150000D02*
X81750000Y-100750000D01*
X85500000Y-104800000D02*
X82450000Y-104800000D01*
X82450000Y-104800000D02*
X81350000Y-103700000D01*
X81350000Y-103700000D02*
X81350000Y-101150000D01*
X94050000Y-98400000D02*
X89850000Y-98400000D01*
X89850000Y-98400000D02*
X87500000Y-100750000D01*
X87500000Y-100750000D02*
X83050000Y-100750000D01*
X81750000Y-100750000D02*
X80450000Y-100750000D01*
D20*
X84775000Y-114675000D02*
X82925000Y-114675000D01*
X92925000Y-114675000D02*
X84775000Y-114675000D01*
X82925000Y-114675000D02*
X80700000Y-116900000D01*
X92925000Y-114675000D02*
X92925000Y-116563976D01*
X88388976Y-121100000D02*
X87500000Y-121100000D01*
X92925000Y-116563976D02*
X88388976Y-121100000D01*
D19*
X105575000Y-111475000D02*
X108650000Y-111475000D01*
X97850000Y-103750000D02*
X105575000Y-111475000D01*
X102325000Y-119625000D02*
X102325000Y-119650000D01*
X102325000Y-119650000D02*
X101850000Y-120125000D01*
X102325000Y-119525000D02*
X102325000Y-119625000D01*
X102325000Y-119625000D02*
X102825000Y-120125000D01*
X102325000Y-120125000D02*
X102325000Y-119525000D01*
X102325000Y-119525000D02*
X102325000Y-115575000D01*
X102325000Y-115575000D02*
X106425000Y-111475000D01*
X106425000Y-111475000D02*
X108650000Y-111475000D01*
X112925000Y-126400000D02*
X109475000Y-126400000D01*
X109475000Y-126400000D02*
X103200000Y-120125000D01*
X103200000Y-120125000D02*
X102825000Y-120125000D01*
X102825000Y-120125000D02*
X102325000Y-120125000D01*
X102325000Y-120125000D02*
X101850000Y-120125000D01*
X101850000Y-120125000D02*
X100725000Y-120125000D01*
X124515000Y-120050000D02*
X124515000Y-121710000D01*
X119825000Y-126400000D02*
X112925000Y-126400000D01*
X124515000Y-121710000D02*
X119825000Y-126400000D01*
D20*
X87075000Y-122509744D02*
X86495256Y-122509744D01*
X87075000Y-122509744D02*
X87984744Y-122509744D01*
X87984744Y-122509744D02*
X96900000Y-113594488D01*
X96900000Y-113594488D02*
X96900000Y-113100000D01*
X86495256Y-122509744D02*
X84325000Y-124680000D01*
X89405000Y-124680000D02*
X89405000Y-122095000D01*
X89405000Y-122095000D02*
X90630000Y-120870000D01*
X90630000Y-120870000D02*
X98400000Y-113100000D01*
X98400000Y-113100000D02*
X101600000Y-113100000D01*
X82825000Y-122154242D02*
X81770758Y-122154242D01*
X82825000Y-122154242D02*
X87837490Y-122154242D01*
X87837490Y-122154242D02*
X96200000Y-113791732D01*
X96200000Y-113791732D02*
X96200000Y-112900000D01*
X96200000Y-110550000D02*
X93400000Y-107750000D01*
X96200000Y-112900000D02*
X96200000Y-110550000D01*
X81770758Y-122154242D02*
X79245000Y-124680000D01*
X86865000Y-124680000D02*
X86865000Y-124132244D01*
X86865000Y-124132244D02*
X88090000Y-122907244D01*
X88090000Y-122907244D02*
X98252746Y-112744498D01*
X99655502Y-112744498D02*
X102150000Y-110250000D01*
X98252746Y-112744498D02*
X99655502Y-112744498D01*
D19*
X121975000Y-120050000D02*
X121975000Y-115750000D01*
D20*
X110550000Y-98010000D02*
X108292756Y-98010000D01*
X102325000Y-103977756D02*
X102325000Y-104650000D01*
X108292756Y-98010000D02*
X102325000Y-103977756D01*
X110550000Y-98010000D02*
X111825000Y-98010000D01*
X111675000Y-96525000D02*
X109275000Y-96525000D01*
X109275000Y-96525000D02*
X101550000Y-104250000D01*
X115420000Y-96525000D02*
X116905000Y-98010000D01*
X111675000Y-96525000D02*
X115420000Y-96525000D01*
X87850000Y-102300000D02*
X86175000Y-102300000D01*
X86175000Y-102300000D02*
X85125000Y-103350000D01*
X87850000Y-102300000D02*
X97500000Y-102300000D01*
X97500000Y-102300000D02*
X99450000Y-104250000D01*
X103200000Y-101550000D02*
X103200000Y-94400000D01*
X100500000Y-104250000D02*
X103200000Y-101550000D01*
D21*
G36*
X104823000Y-87750000D02*
X104833006Y-87799410D01*
X104861447Y-87841035D01*
X104903841Y-87868315D01*
X104950000Y-87877000D01*
X118350000Y-87877000D01*
X118399410Y-87866994D01*
X118441035Y-87838553D01*
X118468315Y-87796159D01*
X118477000Y-87750000D01*
X118477000Y-81477000D01*
X126373000Y-81477000D01*
X126373000Y-109223000D01*
X124875000Y-109223000D01*
X124825590Y-109233006D01*
X124783965Y-109261447D01*
X124756685Y-109303841D01*
X124748000Y-109349645D01*
X124723000Y-118299645D01*
X124732868Y-118349083D01*
X124761193Y-118390787D01*
X124803511Y-118418185D01*
X124850000Y-118427000D01*
X126373000Y-118427000D01*
X126373000Y-130298000D01*
X77527000Y-130298000D01*
X77527000Y-128246215D01*
X78398390Y-128246215D01*
X78475656Y-128494976D01*
X79022131Y-128692340D01*
X79602535Y-128665553D01*
X80014344Y-128494976D01*
X80091610Y-128246215D01*
X79245000Y-127399605D01*
X78398390Y-128246215D01*
X77527000Y-128246215D01*
X77527000Y-126997131D01*
X77772660Y-126997131D01*
X77799447Y-127577535D01*
X77970024Y-127989344D01*
X78218785Y-128066610D01*
X79065395Y-127220000D01*
X78218785Y-126373390D01*
X77970024Y-126450656D01*
X77772660Y-126997131D01*
X77527000Y-126997131D01*
X77527000Y-124969237D01*
X77784247Y-124969237D01*
X78006126Y-125506226D01*
X78416613Y-125917430D01*
X78479366Y-125943487D01*
X78475656Y-125945024D01*
X78398390Y-126193785D01*
X79245000Y-127040395D01*
X80091610Y-126193785D01*
X80014344Y-125945024D01*
X80010926Y-125943789D01*
X80071226Y-125918874D01*
X80482430Y-125508387D01*
X80514804Y-125430421D01*
X80546126Y-125506226D01*
X80956613Y-125917430D01*
X81034579Y-125949804D01*
X80958774Y-125981126D01*
X80547570Y-126391613D01*
X80521513Y-126454366D01*
X80519976Y-126450656D01*
X80271215Y-126373390D01*
X79424605Y-127220000D01*
X80271215Y-128066610D01*
X80519976Y-127989344D01*
X80521211Y-127985926D01*
X80546126Y-128046226D01*
X80956613Y-128457430D01*
X81493214Y-128680246D01*
X82074237Y-128680753D01*
X82611226Y-128458874D01*
X83022430Y-128048387D01*
X83054804Y-127970421D01*
X83086126Y-128046226D01*
X83496613Y-128457430D01*
X84033214Y-128680246D01*
X84614237Y-128680753D01*
X85151226Y-128458874D01*
X85562430Y-128048387D01*
X85594804Y-127970421D01*
X85626126Y-128046226D01*
X86036613Y-128457430D01*
X86573214Y-128680246D01*
X87154237Y-128680753D01*
X87691226Y-128458874D01*
X87904256Y-128246215D01*
X88558390Y-128246215D01*
X88635656Y-128494976D01*
X89182131Y-128692340D01*
X89762535Y-128665553D01*
X90174344Y-128494976D01*
X90251610Y-128246215D01*
X89405000Y-127399605D01*
X88558390Y-128246215D01*
X87904256Y-128246215D01*
X88102430Y-128048387D01*
X88128487Y-127985634D01*
X88130024Y-127989344D01*
X88378785Y-128066610D01*
X89225395Y-127220000D01*
X89584605Y-127220000D01*
X90431215Y-128066610D01*
X90679976Y-127989344D01*
X90877340Y-127442869D01*
X90850553Y-126862465D01*
X90679976Y-126450656D01*
X90431215Y-126373390D01*
X89584605Y-127220000D01*
X89225395Y-127220000D01*
X88378785Y-126373390D01*
X88130024Y-126450656D01*
X88128789Y-126454074D01*
X88103874Y-126393774D01*
X87693387Y-125982570D01*
X87615421Y-125950196D01*
X87691226Y-125918874D01*
X88102430Y-125508387D01*
X88134804Y-125430421D01*
X88166126Y-125506226D01*
X88576613Y-125917430D01*
X88639366Y-125943487D01*
X88635656Y-125945024D01*
X88558390Y-126193785D01*
X89405000Y-127040395D01*
X90251610Y-126193785D01*
X90174344Y-125945024D01*
X90170926Y-125943789D01*
X90231226Y-125918874D01*
X90642430Y-125508387D01*
X90865246Y-124971786D01*
X90865753Y-124390763D01*
X90643874Y-123853774D01*
X90233387Y-123442570D01*
X90141550Y-123404436D01*
X90141550Y-122400088D01*
X91150820Y-121390819D01*
X91150822Y-121390816D01*
X98705089Y-113836550D01*
X100943480Y-113836550D01*
X101041314Y-113934555D01*
X101403212Y-114084828D01*
X101795069Y-114085170D01*
X102157229Y-113935529D01*
X102434555Y-113658686D01*
X102584828Y-113296788D01*
X102585170Y-112904931D01*
X102435529Y-112542771D01*
X102158686Y-112265445D01*
X101796788Y-112115172D01*
X101404931Y-112114830D01*
X101271800Y-112169838D01*
X102206590Y-111235049D01*
X102345069Y-111235170D01*
X102707229Y-111085529D01*
X102984555Y-110808686D01*
X103134828Y-110446788D01*
X103135026Y-110220420D01*
X104814606Y-111900000D01*
X101732303Y-114982303D01*
X101550604Y-115254234D01*
X101519312Y-115411550D01*
X101486800Y-115575000D01*
X101486800Y-119286800D01*
X101274908Y-119286800D01*
X100921788Y-119140172D01*
X100529931Y-119139830D01*
X100167771Y-119289471D01*
X99890445Y-119566314D01*
X99740172Y-119928212D01*
X99739830Y-120320069D01*
X99889471Y-120682229D01*
X100166314Y-120959555D01*
X100528212Y-121109828D01*
X100920069Y-121110170D01*
X101275765Y-120963200D01*
X102852806Y-120963200D01*
X108882303Y-126992697D01*
X109154234Y-127174396D01*
X109475000Y-127238200D01*
X112375092Y-127238200D01*
X112728212Y-127384828D01*
X113120069Y-127385170D01*
X113475765Y-127238200D01*
X119825000Y-127238200D01*
X120145766Y-127174396D01*
X120417697Y-126992697D01*
X125107697Y-122302697D01*
X125289396Y-122030765D01*
X125353200Y-121710000D01*
X125353200Y-121469765D01*
X125682433Y-121249778D01*
X126040325Y-120714155D01*
X126166000Y-120082345D01*
X126166000Y-120017655D01*
X126040325Y-119385845D01*
X125682433Y-118850222D01*
X125146810Y-118492330D01*
X124515000Y-118366655D01*
X123883190Y-118492330D01*
X123543208Y-118719499D01*
X123455090Y-118582559D01*
X123242890Y-118437569D01*
X122991000Y-118386560D01*
X122813200Y-118386560D01*
X122813200Y-117261040D01*
X122838600Y-117261040D01*
X123073917Y-117216762D01*
X123290041Y-117077690D01*
X123435031Y-116865490D01*
X123486040Y-116613600D01*
X123486040Y-114886400D01*
X123441762Y-114651083D01*
X123302690Y-114434959D01*
X123090490Y-114289969D01*
X123046869Y-114281136D01*
X123064029Y-114269670D01*
X123388885Y-113783489D01*
X123502959Y-113210000D01*
X123388885Y-112636511D01*
X123064029Y-112150330D01*
X122749248Y-111940000D01*
X123064029Y-111729670D01*
X123388885Y-111243489D01*
X123502959Y-110670000D01*
X123388885Y-110096511D01*
X123064029Y-109610330D01*
X122749248Y-109400000D01*
X123064029Y-109189670D01*
X123388885Y-108703489D01*
X123502959Y-108130000D01*
X123388885Y-107556511D01*
X123064029Y-107070330D01*
X122749248Y-106860000D01*
X123064029Y-106649670D01*
X123388885Y-106163489D01*
X123502959Y-105590000D01*
X123388885Y-105016511D01*
X123064029Y-104530330D01*
X122577848Y-104205474D01*
X122004359Y-104091400D01*
X121945641Y-104091400D01*
X121372152Y-104205474D01*
X120885971Y-104530330D01*
X120705000Y-104801172D01*
X120524029Y-104530330D01*
X120037848Y-104205474D01*
X119464359Y-104091400D01*
X119405641Y-104091400D01*
X118832152Y-104205474D01*
X118345971Y-104530330D01*
X118021115Y-105016511D01*
X117907041Y-105590000D01*
X118021115Y-106163489D01*
X118345971Y-106649670D01*
X118660752Y-106860000D01*
X118345971Y-107070330D01*
X118021115Y-107556511D01*
X117907041Y-108130000D01*
X118021115Y-108703489D01*
X118345971Y-109189670D01*
X118660752Y-109400000D01*
X118345971Y-109610330D01*
X118021115Y-110096511D01*
X117907041Y-110670000D01*
X118021115Y-111243489D01*
X118345971Y-111729670D01*
X118660752Y-111940000D01*
X118345971Y-112150330D01*
X118021115Y-112636511D01*
X117907041Y-113210000D01*
X118021115Y-113783489D01*
X118345971Y-114269670D01*
X118660752Y-114480000D01*
X118345971Y-114690330D01*
X118021115Y-115176511D01*
X117907041Y-115750000D01*
X118021115Y-116323489D01*
X118345971Y-116809670D01*
X118832152Y-117134526D01*
X119405641Y-117248600D01*
X119464359Y-117248600D01*
X120037848Y-117134526D01*
X120503442Y-116823426D01*
X120508238Y-116848917D01*
X120647310Y-117065041D01*
X120859510Y-117210031D01*
X121111400Y-117261040D01*
X121136800Y-117261040D01*
X121136800Y-118386560D01*
X120959000Y-118386560D01*
X120723683Y-118430838D01*
X120507559Y-118569910D01*
X120362569Y-118782110D01*
X120311560Y-119034000D01*
X120311560Y-121066000D01*
X120355838Y-121301317D01*
X120494910Y-121517441D01*
X120707110Y-121662431D01*
X120959000Y-121713440D01*
X122991000Y-121713440D01*
X123226317Y-121669162D01*
X123442441Y-121530090D01*
X123544198Y-121381163D01*
X123612683Y-121426923D01*
X119477806Y-125561800D01*
X113474908Y-125561800D01*
X113121788Y-125415172D01*
X112729931Y-125414830D01*
X112374235Y-125561800D01*
X109822194Y-125561800D01*
X103792697Y-119532303D01*
X103520766Y-119350604D01*
X103200000Y-119286800D01*
X103172194Y-119286800D01*
X103163200Y-119277806D01*
X103163200Y-115922194D01*
X106772194Y-112313200D01*
X108100092Y-112313200D01*
X108453212Y-112459828D01*
X108845069Y-112460170D01*
X109207229Y-112310529D01*
X109484555Y-112033686D01*
X109634828Y-111671788D01*
X109635170Y-111279931D01*
X109485529Y-110917771D01*
X109208686Y-110640445D01*
X108846788Y-110490172D01*
X108454931Y-110489830D01*
X108099235Y-110636800D01*
X105922194Y-110636800D01*
X100520412Y-105235018D01*
X100695069Y-105235170D01*
X101025366Y-105098695D01*
X101353212Y-105234828D01*
X101517165Y-105234971D01*
X101766314Y-105484555D01*
X102128212Y-105634828D01*
X102520069Y-105635170D01*
X102882229Y-105485529D01*
X103159555Y-105208686D01*
X103309828Y-104846788D01*
X103310170Y-104454931D01*
X103187163Y-104157231D01*
X106508644Y-100835750D01*
X110326400Y-100835750D01*
X110326400Y-101539909D01*
X110423073Y-101773298D01*
X110601701Y-101951927D01*
X110835090Y-102048600D01*
X111539250Y-102048600D01*
X111698000Y-101889850D01*
X111698000Y-100677000D01*
X110485150Y-100677000D01*
X110326400Y-100835750D01*
X106508644Y-100835750D01*
X108597845Y-98746550D01*
X110529811Y-98746550D01*
X110755526Y-99084356D01*
X110601701Y-99148073D01*
X110423073Y-99326702D01*
X110326400Y-99560091D01*
X110326400Y-100264250D01*
X110485150Y-100423000D01*
X111698000Y-100423000D01*
X111698000Y-100403000D01*
X111952000Y-100403000D01*
X111952000Y-100423000D01*
X111972000Y-100423000D01*
X111972000Y-100677000D01*
X111952000Y-100677000D01*
X111952000Y-101889850D01*
X112110750Y-102048600D01*
X112814910Y-102048600D01*
X113048299Y-101951927D01*
X113226927Y-101773298D01*
X113291263Y-101617977D01*
X113305330Y-101639029D01*
X113791511Y-101963885D01*
X114365000Y-102077959D01*
X114938489Y-101963885D01*
X115424670Y-101639029D01*
X115640664Y-101315772D01*
X115698179Y-101438490D01*
X116130053Y-101832688D01*
X116545974Y-102004958D01*
X116778000Y-101883817D01*
X116778000Y-100677000D01*
X116758000Y-100677000D01*
X116758000Y-100423000D01*
X116778000Y-100423000D01*
X116778000Y-100403000D01*
X117032000Y-100403000D01*
X117032000Y-100423000D01*
X117052000Y-100423000D01*
X117052000Y-100677000D01*
X117032000Y-100677000D01*
X117032000Y-101883817D01*
X117264026Y-102004958D01*
X117679947Y-101832688D01*
X118111821Y-101438490D01*
X118169336Y-101315772D01*
X118385330Y-101639029D01*
X118871511Y-101963885D01*
X119445000Y-102077959D01*
X120018489Y-101963885D01*
X120504670Y-101639029D01*
X120715000Y-101324248D01*
X120925330Y-101639029D01*
X121411511Y-101963885D01*
X121985000Y-102077959D01*
X122558489Y-101963885D01*
X123044670Y-101639029D01*
X123369526Y-101152848D01*
X123483600Y-100579359D01*
X123483600Y-100520641D01*
X123369526Y-99947152D01*
X123044670Y-99460971D01*
X122773839Y-99280008D01*
X123191821Y-98898490D01*
X123439968Y-98369027D01*
X123319469Y-98137000D01*
X122112000Y-98137000D01*
X122112000Y-98157000D01*
X121858000Y-98157000D01*
X121858000Y-98137000D01*
X121838000Y-98137000D01*
X121838000Y-97883000D01*
X121858000Y-97883000D01*
X121858000Y-96676183D01*
X122112000Y-96676183D01*
X122112000Y-97883000D01*
X123319469Y-97883000D01*
X123439968Y-97650973D01*
X123191821Y-97121510D01*
X122759947Y-96727312D01*
X122344026Y-96555042D01*
X122112000Y-96676183D01*
X121858000Y-96676183D01*
X121625974Y-96555042D01*
X121210053Y-96727312D01*
X120778179Y-97121510D01*
X120720664Y-97244228D01*
X120504670Y-96920971D01*
X120018489Y-96596115D01*
X119445000Y-96482041D01*
X118871511Y-96596115D01*
X118385330Y-96920971D01*
X118175000Y-97235752D01*
X117964670Y-96920971D01*
X117478489Y-96596115D01*
X116905000Y-96482041D01*
X116499365Y-96562727D01*
X115940819Y-96004181D01*
X115701865Y-95844517D01*
X115420000Y-95788450D01*
X109275000Y-95788450D01*
X108993135Y-95844517D01*
X108754181Y-96004180D01*
X103936550Y-100821812D01*
X103936550Y-96165040D01*
X104317600Y-96165040D01*
X104552917Y-96120762D01*
X104769041Y-95981690D01*
X104914031Y-95769490D01*
X104965040Y-95517600D01*
X104965040Y-93282400D01*
X104920762Y-93047083D01*
X104781690Y-92830959D01*
X104569490Y-92685969D01*
X104317600Y-92634960D01*
X102082400Y-92634960D01*
X101847083Y-92679238D01*
X101630959Y-92818310D01*
X101485969Y-93030510D01*
X101434960Y-93282400D01*
X101434960Y-95517600D01*
X101479238Y-95752917D01*
X101618310Y-95969041D01*
X101830510Y-96114031D01*
X102082400Y-96165040D01*
X102463450Y-96165040D01*
X102463450Y-101244911D01*
X100443411Y-103264951D01*
X100304931Y-103264830D01*
X99974634Y-103401305D01*
X99646788Y-103265172D01*
X99506688Y-103265050D01*
X98020819Y-101779181D01*
X97781865Y-101619517D01*
X97500000Y-101563450D01*
X86175000Y-101563450D01*
X85939899Y-101610215D01*
X85893134Y-101619517D01*
X85654180Y-101779181D01*
X85068411Y-102364951D01*
X84929931Y-102364830D01*
X84567771Y-102514471D01*
X84290445Y-102791314D01*
X84140172Y-103153212D01*
X84139830Y-103545069D01*
X84289471Y-103907229D01*
X84566314Y-104184555D01*
X84928212Y-104334828D01*
X85320069Y-104335170D01*
X85682229Y-104185529D01*
X85959555Y-103908686D01*
X86109828Y-103546788D01*
X86109950Y-103406688D01*
X86480089Y-103036550D01*
X97170479Y-103036550D01*
X97015445Y-103191314D01*
X96865172Y-103553212D01*
X96864830Y-103945069D01*
X97014471Y-104307229D01*
X97291314Y-104584555D01*
X97646751Y-104732145D01*
X102179632Y-109265026D01*
X101954931Y-109264830D01*
X101592771Y-109414471D01*
X101315445Y-109691314D01*
X101165172Y-110053212D01*
X101165050Y-110193311D01*
X99350414Y-112007948D01*
X98252746Y-112007948D01*
X98018585Y-112054526D01*
X97970880Y-112064015D01*
X97731926Y-112223679D01*
X97574322Y-112381283D01*
X97458686Y-112265445D01*
X97096788Y-112115172D01*
X96936550Y-112115032D01*
X96936550Y-110550000D01*
X96880483Y-110268135D01*
X96868366Y-110250000D01*
X96720820Y-110029181D01*
X94385049Y-107693411D01*
X94385170Y-107554931D01*
X94235529Y-107192771D01*
X93958686Y-106915445D01*
X93596788Y-106765172D01*
X93204931Y-106764830D01*
X92842771Y-106914471D01*
X92565445Y-107191314D01*
X92415172Y-107553212D01*
X92414830Y-107945069D01*
X92564471Y-108307229D01*
X92841314Y-108584555D01*
X93203212Y-108734828D01*
X93343312Y-108734950D01*
X95463450Y-110855089D01*
X95463450Y-113486643D01*
X93790194Y-115159899D01*
X93909828Y-114871788D01*
X93910170Y-114479931D01*
X93760529Y-114117771D01*
X93483686Y-113840445D01*
X93121788Y-113690172D01*
X92729931Y-113689830D01*
X92367771Y-113839471D01*
X92268619Y-113938450D01*
X82925000Y-113938450D01*
X82689899Y-113985215D01*
X82643134Y-113994517D01*
X82404180Y-114154181D01*
X80643411Y-115914951D01*
X80504931Y-115914830D01*
X80142771Y-116064471D01*
X79865445Y-116341314D01*
X79715172Y-116703212D01*
X79714830Y-117095069D01*
X79864471Y-117457229D01*
X80141314Y-117734555D01*
X80503212Y-117884828D01*
X80895069Y-117885170D01*
X81257229Y-117735529D01*
X81534555Y-117458686D01*
X81684828Y-117096788D01*
X81684950Y-116956688D01*
X83230089Y-115411550D01*
X92188450Y-115411550D01*
X92188450Y-116258887D01*
X88120236Y-120327102D01*
X88058686Y-120265445D01*
X87696788Y-120115172D01*
X87304931Y-120114830D01*
X86942771Y-120264471D01*
X86665445Y-120541314D01*
X86515172Y-120903212D01*
X86514830Y-121295069D01*
X86565497Y-121417692D01*
X81770758Y-121417692D01*
X81535657Y-121464457D01*
X81488892Y-121473759D01*
X81249938Y-121633423D01*
X79626398Y-123256964D01*
X79536786Y-123219754D01*
X78955763Y-123219247D01*
X78418774Y-123441126D01*
X78007570Y-123851613D01*
X77784754Y-124388214D01*
X77784247Y-124969237D01*
X77527000Y-124969237D01*
X77527000Y-117452000D01*
X78100000Y-117452000D01*
X78149410Y-117441994D01*
X78191035Y-117413553D01*
X78218315Y-117371159D01*
X78227000Y-117325000D01*
X78227000Y-110875000D01*
X78216994Y-110825590D01*
X78188553Y-110783965D01*
X78146159Y-110756685D01*
X78100000Y-110748000D01*
X77527000Y-110748000D01*
X77527000Y-95745069D01*
X77714830Y-95745069D01*
X77864471Y-96107229D01*
X78141314Y-96384555D01*
X78503212Y-96534828D01*
X78895069Y-96535170D01*
X79257229Y-96385529D01*
X79534555Y-96108686D01*
X79682145Y-95753249D01*
X85982194Y-89453200D01*
X100805235Y-89453200D01*
X101025222Y-89782433D01*
X101560845Y-90140325D01*
X102192655Y-90266000D01*
X102257345Y-90266000D01*
X102889155Y-90140325D01*
X103424778Y-89782433D01*
X103782670Y-89246810D01*
X103908345Y-88615000D01*
X103782670Y-87983190D01*
X103555501Y-87643208D01*
X103692441Y-87555090D01*
X103837431Y-87342890D01*
X103888440Y-87091000D01*
X103888440Y-85059000D01*
X103844162Y-84823683D01*
X103705090Y-84607559D01*
X103492890Y-84462569D01*
X103241000Y-84411560D01*
X101209000Y-84411560D01*
X100973683Y-84455838D01*
X100757559Y-84594910D01*
X100612569Y-84807110D01*
X100561560Y-85059000D01*
X100561560Y-87091000D01*
X100605838Y-87326317D01*
X100744910Y-87542441D01*
X100893837Y-87644198D01*
X100805235Y-87776800D01*
X85635000Y-87776800D01*
X85314234Y-87840604D01*
X85042303Y-88022303D01*
X78496146Y-94568460D01*
X78142771Y-94714471D01*
X77865445Y-94991314D01*
X77715172Y-95353212D01*
X77714830Y-95745069D01*
X77527000Y-95745069D01*
X77527000Y-86365092D01*
X83386548Y-86365092D01*
X83589906Y-86857254D01*
X83966126Y-87234131D01*
X84457932Y-87438347D01*
X84990452Y-87438812D01*
X85482614Y-87235454D01*
X85859491Y-86859234D01*
X86063707Y-86367428D01*
X86063709Y-86365092D01*
X87785828Y-86365092D01*
X87989186Y-86857254D01*
X88365406Y-87234131D01*
X88857212Y-87438347D01*
X89389732Y-87438812D01*
X89881894Y-87235454D01*
X90258771Y-86859234D01*
X90462987Y-86367428D01*
X90463452Y-85834908D01*
X90260094Y-85342746D01*
X89883874Y-84965869D01*
X89392068Y-84761653D01*
X88859548Y-84761188D01*
X88367386Y-84964546D01*
X87990509Y-85340766D01*
X87786293Y-85832572D01*
X87785828Y-86365092D01*
X86063709Y-86365092D01*
X86064172Y-85834908D01*
X85860814Y-85342746D01*
X85484594Y-84965869D01*
X84992788Y-84761653D01*
X84460268Y-84761188D01*
X83968106Y-84964546D01*
X83591229Y-85340766D01*
X83387013Y-85832572D01*
X83386548Y-86365092D01*
X77527000Y-86365092D01*
X77527000Y-81477000D01*
X104823000Y-81477000D01*
X104823000Y-87750000D01*
X104823000Y-87750000D01*
G37*
X104823000Y-87750000D02*
X104833006Y-87799410D01*
X104861447Y-87841035D01*
X104903841Y-87868315D01*
X104950000Y-87877000D01*
X118350000Y-87877000D01*
X118399410Y-87866994D01*
X118441035Y-87838553D01*
X118468315Y-87796159D01*
X118477000Y-87750000D01*
X118477000Y-81477000D01*
X126373000Y-81477000D01*
X126373000Y-109223000D01*
X124875000Y-109223000D01*
X124825590Y-109233006D01*
X124783965Y-109261447D01*
X124756685Y-109303841D01*
X124748000Y-109349645D01*
X124723000Y-118299645D01*
X124732868Y-118349083D01*
X124761193Y-118390787D01*
X124803511Y-118418185D01*
X124850000Y-118427000D01*
X126373000Y-118427000D01*
X126373000Y-130298000D01*
X77527000Y-130298000D01*
X77527000Y-128246215D01*
X78398390Y-128246215D01*
X78475656Y-128494976D01*
X79022131Y-128692340D01*
X79602535Y-128665553D01*
X80014344Y-128494976D01*
X80091610Y-128246215D01*
X79245000Y-127399605D01*
X78398390Y-128246215D01*
X77527000Y-128246215D01*
X77527000Y-126997131D01*
X77772660Y-126997131D01*
X77799447Y-127577535D01*
X77970024Y-127989344D01*
X78218785Y-128066610D01*
X79065395Y-127220000D01*
X78218785Y-126373390D01*
X77970024Y-126450656D01*
X77772660Y-126997131D01*
X77527000Y-126997131D01*
X77527000Y-124969237D01*
X77784247Y-124969237D01*
X78006126Y-125506226D01*
X78416613Y-125917430D01*
X78479366Y-125943487D01*
X78475656Y-125945024D01*
X78398390Y-126193785D01*
X79245000Y-127040395D01*
X80091610Y-126193785D01*
X80014344Y-125945024D01*
X80010926Y-125943789D01*
X80071226Y-125918874D01*
X80482430Y-125508387D01*
X80514804Y-125430421D01*
X80546126Y-125506226D01*
X80956613Y-125917430D01*
X81034579Y-125949804D01*
X80958774Y-125981126D01*
X80547570Y-126391613D01*
X80521513Y-126454366D01*
X80519976Y-126450656D01*
X80271215Y-126373390D01*
X79424605Y-127220000D01*
X80271215Y-128066610D01*
X80519976Y-127989344D01*
X80521211Y-127985926D01*
X80546126Y-128046226D01*
X80956613Y-128457430D01*
X81493214Y-128680246D01*
X82074237Y-128680753D01*
X82611226Y-128458874D01*
X83022430Y-128048387D01*
X83054804Y-127970421D01*
X83086126Y-128046226D01*
X83496613Y-128457430D01*
X84033214Y-128680246D01*
X84614237Y-128680753D01*
X85151226Y-128458874D01*
X85562430Y-128048387D01*
X85594804Y-127970421D01*
X85626126Y-128046226D01*
X86036613Y-128457430D01*
X86573214Y-128680246D01*
X87154237Y-128680753D01*
X87691226Y-128458874D01*
X87904256Y-128246215D01*
X88558390Y-128246215D01*
X88635656Y-128494976D01*
X89182131Y-128692340D01*
X89762535Y-128665553D01*
X90174344Y-128494976D01*
X90251610Y-128246215D01*
X89405000Y-127399605D01*
X88558390Y-128246215D01*
X87904256Y-128246215D01*
X88102430Y-128048387D01*
X88128487Y-127985634D01*
X88130024Y-127989344D01*
X88378785Y-128066610D01*
X89225395Y-127220000D01*
X89584605Y-127220000D01*
X90431215Y-128066610D01*
X90679976Y-127989344D01*
X90877340Y-127442869D01*
X90850553Y-126862465D01*
X90679976Y-126450656D01*
X90431215Y-126373390D01*
X89584605Y-127220000D01*
X89225395Y-127220000D01*
X88378785Y-126373390D01*
X88130024Y-126450656D01*
X88128789Y-126454074D01*
X88103874Y-126393774D01*
X87693387Y-125982570D01*
X87615421Y-125950196D01*
X87691226Y-125918874D01*
X88102430Y-125508387D01*
X88134804Y-125430421D01*
X88166126Y-125506226D01*
X88576613Y-125917430D01*
X88639366Y-125943487D01*
X88635656Y-125945024D01*
X88558390Y-126193785D01*
X89405000Y-127040395D01*
X90251610Y-126193785D01*
X90174344Y-125945024D01*
X90170926Y-125943789D01*
X90231226Y-125918874D01*
X90642430Y-125508387D01*
X90865246Y-124971786D01*
X90865753Y-124390763D01*
X90643874Y-123853774D01*
X90233387Y-123442570D01*
X90141550Y-123404436D01*
X90141550Y-122400088D01*
X91150820Y-121390819D01*
X91150822Y-121390816D01*
X98705089Y-113836550D01*
X100943480Y-113836550D01*
X101041314Y-113934555D01*
X101403212Y-114084828D01*
X101795069Y-114085170D01*
X102157229Y-113935529D01*
X102434555Y-113658686D01*
X102584828Y-113296788D01*
X102585170Y-112904931D01*
X102435529Y-112542771D01*
X102158686Y-112265445D01*
X101796788Y-112115172D01*
X101404931Y-112114830D01*
X101271800Y-112169838D01*
X102206590Y-111235049D01*
X102345069Y-111235170D01*
X102707229Y-111085529D01*
X102984555Y-110808686D01*
X103134828Y-110446788D01*
X103135026Y-110220420D01*
X104814606Y-111900000D01*
X101732303Y-114982303D01*
X101550604Y-115254234D01*
X101519312Y-115411550D01*
X101486800Y-115575000D01*
X101486800Y-119286800D01*
X101274908Y-119286800D01*
X100921788Y-119140172D01*
X100529931Y-119139830D01*
X100167771Y-119289471D01*
X99890445Y-119566314D01*
X99740172Y-119928212D01*
X99739830Y-120320069D01*
X99889471Y-120682229D01*
X100166314Y-120959555D01*
X100528212Y-121109828D01*
X100920069Y-121110170D01*
X101275765Y-120963200D01*
X102852806Y-120963200D01*
X108882303Y-126992697D01*
X109154234Y-127174396D01*
X109475000Y-127238200D01*
X112375092Y-127238200D01*
X112728212Y-127384828D01*
X113120069Y-127385170D01*
X113475765Y-127238200D01*
X119825000Y-127238200D01*
X120145766Y-127174396D01*
X120417697Y-126992697D01*
X125107697Y-122302697D01*
X125289396Y-122030765D01*
X125353200Y-121710000D01*
X125353200Y-121469765D01*
X125682433Y-121249778D01*
X126040325Y-120714155D01*
X126166000Y-120082345D01*
X126166000Y-120017655D01*
X126040325Y-119385845D01*
X125682433Y-118850222D01*
X125146810Y-118492330D01*
X124515000Y-118366655D01*
X123883190Y-118492330D01*
X123543208Y-118719499D01*
X123455090Y-118582559D01*
X123242890Y-118437569D01*
X122991000Y-118386560D01*
X122813200Y-118386560D01*
X122813200Y-117261040D01*
X122838600Y-117261040D01*
X123073917Y-117216762D01*
X123290041Y-117077690D01*
X123435031Y-116865490D01*
X123486040Y-116613600D01*
X123486040Y-114886400D01*
X123441762Y-114651083D01*
X123302690Y-114434959D01*
X123090490Y-114289969D01*
X123046869Y-114281136D01*
X123064029Y-114269670D01*
X123388885Y-113783489D01*
X123502959Y-113210000D01*
X123388885Y-112636511D01*
X123064029Y-112150330D01*
X122749248Y-111940000D01*
X123064029Y-111729670D01*
X123388885Y-111243489D01*
X123502959Y-110670000D01*
X123388885Y-110096511D01*
X123064029Y-109610330D01*
X122749248Y-109400000D01*
X123064029Y-109189670D01*
X123388885Y-108703489D01*
X123502959Y-108130000D01*
X123388885Y-107556511D01*
X123064029Y-107070330D01*
X122749248Y-106860000D01*
X123064029Y-106649670D01*
X123388885Y-106163489D01*
X123502959Y-105590000D01*
X123388885Y-105016511D01*
X123064029Y-104530330D01*
X122577848Y-104205474D01*
X122004359Y-104091400D01*
X121945641Y-104091400D01*
X121372152Y-104205474D01*
X120885971Y-104530330D01*
X120705000Y-104801172D01*
X120524029Y-104530330D01*
X120037848Y-104205474D01*
X119464359Y-104091400D01*
X119405641Y-104091400D01*
X118832152Y-104205474D01*
X118345971Y-104530330D01*
X118021115Y-105016511D01*
X117907041Y-105590000D01*
X118021115Y-106163489D01*
X118345971Y-106649670D01*
X118660752Y-106860000D01*
X118345971Y-107070330D01*
X118021115Y-107556511D01*
X117907041Y-108130000D01*
X118021115Y-108703489D01*
X118345971Y-109189670D01*
X118660752Y-109400000D01*
X118345971Y-109610330D01*
X118021115Y-110096511D01*
X117907041Y-110670000D01*
X118021115Y-111243489D01*
X118345971Y-111729670D01*
X118660752Y-111940000D01*
X118345971Y-112150330D01*
X118021115Y-112636511D01*
X117907041Y-113210000D01*
X118021115Y-113783489D01*
X118345971Y-114269670D01*
X118660752Y-114480000D01*
X118345971Y-114690330D01*
X118021115Y-115176511D01*
X117907041Y-115750000D01*
X118021115Y-116323489D01*
X118345971Y-116809670D01*
X118832152Y-117134526D01*
X119405641Y-117248600D01*
X119464359Y-117248600D01*
X120037848Y-117134526D01*
X120503442Y-116823426D01*
X120508238Y-116848917D01*
X120647310Y-117065041D01*
X120859510Y-117210031D01*
X121111400Y-117261040D01*
X121136800Y-117261040D01*
X121136800Y-118386560D01*
X120959000Y-118386560D01*
X120723683Y-118430838D01*
X120507559Y-118569910D01*
X120362569Y-118782110D01*
X120311560Y-119034000D01*
X120311560Y-121066000D01*
X120355838Y-121301317D01*
X120494910Y-121517441D01*
X120707110Y-121662431D01*
X120959000Y-121713440D01*
X122991000Y-121713440D01*
X123226317Y-121669162D01*
X123442441Y-121530090D01*
X123544198Y-121381163D01*
X123612683Y-121426923D01*
X119477806Y-125561800D01*
X113474908Y-125561800D01*
X113121788Y-125415172D01*
X112729931Y-125414830D01*
X112374235Y-125561800D01*
X109822194Y-125561800D01*
X103792697Y-119532303D01*
X103520766Y-119350604D01*
X103200000Y-119286800D01*
X103172194Y-119286800D01*
X103163200Y-119277806D01*
X103163200Y-115922194D01*
X106772194Y-112313200D01*
X108100092Y-112313200D01*
X108453212Y-112459828D01*
X108845069Y-112460170D01*
X109207229Y-112310529D01*
X109484555Y-112033686D01*
X109634828Y-111671788D01*
X109635170Y-111279931D01*
X109485529Y-110917771D01*
X109208686Y-110640445D01*
X108846788Y-110490172D01*
X108454931Y-110489830D01*
X108099235Y-110636800D01*
X105922194Y-110636800D01*
X100520412Y-105235018D01*
X100695069Y-105235170D01*
X101025366Y-105098695D01*
X101353212Y-105234828D01*
X101517165Y-105234971D01*
X101766314Y-105484555D01*
X102128212Y-105634828D01*
X102520069Y-105635170D01*
X102882229Y-105485529D01*
X103159555Y-105208686D01*
X103309828Y-104846788D01*
X103310170Y-104454931D01*
X103187163Y-104157231D01*
X106508644Y-100835750D01*
X110326400Y-100835750D01*
X110326400Y-101539909D01*
X110423073Y-101773298D01*
X110601701Y-101951927D01*
X110835090Y-102048600D01*
X111539250Y-102048600D01*
X111698000Y-101889850D01*
X111698000Y-100677000D01*
X110485150Y-100677000D01*
X110326400Y-100835750D01*
X106508644Y-100835750D01*
X108597845Y-98746550D01*
X110529811Y-98746550D01*
X110755526Y-99084356D01*
X110601701Y-99148073D01*
X110423073Y-99326702D01*
X110326400Y-99560091D01*
X110326400Y-100264250D01*
X110485150Y-100423000D01*
X111698000Y-100423000D01*
X111698000Y-100403000D01*
X111952000Y-100403000D01*
X111952000Y-100423000D01*
X111972000Y-100423000D01*
X111972000Y-100677000D01*
X111952000Y-100677000D01*
X111952000Y-101889850D01*
X112110750Y-102048600D01*
X112814910Y-102048600D01*
X113048299Y-101951927D01*
X113226927Y-101773298D01*
X113291263Y-101617977D01*
X113305330Y-101639029D01*
X113791511Y-101963885D01*
X114365000Y-102077959D01*
X114938489Y-101963885D01*
X115424670Y-101639029D01*
X115640664Y-101315772D01*
X115698179Y-101438490D01*
X116130053Y-101832688D01*
X116545974Y-102004958D01*
X116778000Y-101883817D01*
X116778000Y-100677000D01*
X116758000Y-100677000D01*
X116758000Y-100423000D01*
X116778000Y-100423000D01*
X116778000Y-100403000D01*
X117032000Y-100403000D01*
X117032000Y-100423000D01*
X117052000Y-100423000D01*
X117052000Y-100677000D01*
X117032000Y-100677000D01*
X117032000Y-101883817D01*
X117264026Y-102004958D01*
X117679947Y-101832688D01*
X118111821Y-101438490D01*
X118169336Y-101315772D01*
X118385330Y-101639029D01*
X118871511Y-101963885D01*
X119445000Y-102077959D01*
X120018489Y-101963885D01*
X120504670Y-101639029D01*
X120715000Y-101324248D01*
X120925330Y-101639029D01*
X121411511Y-101963885D01*
X121985000Y-102077959D01*
X122558489Y-101963885D01*
X123044670Y-101639029D01*
X123369526Y-101152848D01*
X123483600Y-100579359D01*
X123483600Y-100520641D01*
X123369526Y-99947152D01*
X123044670Y-99460971D01*
X122773839Y-99280008D01*
X123191821Y-98898490D01*
X123439968Y-98369027D01*
X123319469Y-98137000D01*
X122112000Y-98137000D01*
X122112000Y-98157000D01*
X121858000Y-98157000D01*
X121858000Y-98137000D01*
X121838000Y-98137000D01*
X121838000Y-97883000D01*
X121858000Y-97883000D01*
X121858000Y-96676183D01*
X122112000Y-96676183D01*
X122112000Y-97883000D01*
X123319469Y-97883000D01*
X123439968Y-97650973D01*
X123191821Y-97121510D01*
X122759947Y-96727312D01*
X122344026Y-96555042D01*
X122112000Y-96676183D01*
X121858000Y-96676183D01*
X121625974Y-96555042D01*
X121210053Y-96727312D01*
X120778179Y-97121510D01*
X120720664Y-97244228D01*
X120504670Y-96920971D01*
X120018489Y-96596115D01*
X119445000Y-96482041D01*
X118871511Y-96596115D01*
X118385330Y-96920971D01*
X118175000Y-97235752D01*
X117964670Y-96920971D01*
X117478489Y-96596115D01*
X116905000Y-96482041D01*
X116499365Y-96562727D01*
X115940819Y-96004181D01*
X115701865Y-95844517D01*
X115420000Y-95788450D01*
X109275000Y-95788450D01*
X108993135Y-95844517D01*
X108754181Y-96004180D01*
X103936550Y-100821812D01*
X103936550Y-96165040D01*
X104317600Y-96165040D01*
X104552917Y-96120762D01*
X104769041Y-95981690D01*
X104914031Y-95769490D01*
X104965040Y-95517600D01*
X104965040Y-93282400D01*
X104920762Y-93047083D01*
X104781690Y-92830959D01*
X104569490Y-92685969D01*
X104317600Y-92634960D01*
X102082400Y-92634960D01*
X101847083Y-92679238D01*
X101630959Y-92818310D01*
X101485969Y-93030510D01*
X101434960Y-93282400D01*
X101434960Y-95517600D01*
X101479238Y-95752917D01*
X101618310Y-95969041D01*
X101830510Y-96114031D01*
X102082400Y-96165040D01*
X102463450Y-96165040D01*
X102463450Y-101244911D01*
X100443411Y-103264951D01*
X100304931Y-103264830D01*
X99974634Y-103401305D01*
X99646788Y-103265172D01*
X99506688Y-103265050D01*
X98020819Y-101779181D01*
X97781865Y-101619517D01*
X97500000Y-101563450D01*
X86175000Y-101563450D01*
X85939899Y-101610215D01*
X85893134Y-101619517D01*
X85654180Y-101779181D01*
X85068411Y-102364951D01*
X84929931Y-102364830D01*
X84567771Y-102514471D01*
X84290445Y-102791314D01*
X84140172Y-103153212D01*
X84139830Y-103545069D01*
X84289471Y-103907229D01*
X84566314Y-104184555D01*
X84928212Y-104334828D01*
X85320069Y-104335170D01*
X85682229Y-104185529D01*
X85959555Y-103908686D01*
X86109828Y-103546788D01*
X86109950Y-103406688D01*
X86480089Y-103036550D01*
X97170479Y-103036550D01*
X97015445Y-103191314D01*
X96865172Y-103553212D01*
X96864830Y-103945069D01*
X97014471Y-104307229D01*
X97291314Y-104584555D01*
X97646751Y-104732145D01*
X102179632Y-109265026D01*
X101954931Y-109264830D01*
X101592771Y-109414471D01*
X101315445Y-109691314D01*
X101165172Y-110053212D01*
X101165050Y-110193311D01*
X99350414Y-112007948D01*
X98252746Y-112007948D01*
X98018585Y-112054526D01*
X97970880Y-112064015D01*
X97731926Y-112223679D01*
X97574322Y-112381283D01*
X97458686Y-112265445D01*
X97096788Y-112115172D01*
X96936550Y-112115032D01*
X96936550Y-110550000D01*
X96880483Y-110268135D01*
X96868366Y-110250000D01*
X96720820Y-110029181D01*
X94385049Y-107693411D01*
X94385170Y-107554931D01*
X94235529Y-107192771D01*
X93958686Y-106915445D01*
X93596788Y-106765172D01*
X93204931Y-106764830D01*
X92842771Y-106914471D01*
X92565445Y-107191314D01*
X92415172Y-107553212D01*
X92414830Y-107945069D01*
X92564471Y-108307229D01*
X92841314Y-108584555D01*
X93203212Y-108734828D01*
X93343312Y-108734950D01*
X95463450Y-110855089D01*
X95463450Y-113486643D01*
X93790194Y-115159899D01*
X93909828Y-114871788D01*
X93910170Y-114479931D01*
X93760529Y-114117771D01*
X93483686Y-113840445D01*
X93121788Y-113690172D01*
X92729931Y-113689830D01*
X92367771Y-113839471D01*
X92268619Y-113938450D01*
X82925000Y-113938450D01*
X82689899Y-113985215D01*
X82643134Y-113994517D01*
X82404180Y-114154181D01*
X80643411Y-115914951D01*
X80504931Y-115914830D01*
X80142771Y-116064471D01*
X79865445Y-116341314D01*
X79715172Y-116703212D01*
X79714830Y-117095069D01*
X79864471Y-117457229D01*
X80141314Y-117734555D01*
X80503212Y-117884828D01*
X80895069Y-117885170D01*
X81257229Y-117735529D01*
X81534555Y-117458686D01*
X81684828Y-117096788D01*
X81684950Y-116956688D01*
X83230089Y-115411550D01*
X92188450Y-115411550D01*
X92188450Y-116258887D01*
X88120236Y-120327102D01*
X88058686Y-120265445D01*
X87696788Y-120115172D01*
X87304931Y-120114830D01*
X86942771Y-120264471D01*
X86665445Y-120541314D01*
X86515172Y-120903212D01*
X86514830Y-121295069D01*
X86565497Y-121417692D01*
X81770758Y-121417692D01*
X81535657Y-121464457D01*
X81488892Y-121473759D01*
X81249938Y-121633423D01*
X79626398Y-123256964D01*
X79536786Y-123219754D01*
X78955763Y-123219247D01*
X78418774Y-123441126D01*
X78007570Y-123851613D01*
X77784754Y-124388214D01*
X77784247Y-124969237D01*
X77527000Y-124969237D01*
X77527000Y-117452000D01*
X78100000Y-117452000D01*
X78149410Y-117441994D01*
X78191035Y-117413553D01*
X78218315Y-117371159D01*
X78227000Y-117325000D01*
X78227000Y-110875000D01*
X78216994Y-110825590D01*
X78188553Y-110783965D01*
X78146159Y-110756685D01*
X78100000Y-110748000D01*
X77527000Y-110748000D01*
X77527000Y-95745069D01*
X77714830Y-95745069D01*
X77864471Y-96107229D01*
X78141314Y-96384555D01*
X78503212Y-96534828D01*
X78895069Y-96535170D01*
X79257229Y-96385529D01*
X79534555Y-96108686D01*
X79682145Y-95753249D01*
X85982194Y-89453200D01*
X100805235Y-89453200D01*
X101025222Y-89782433D01*
X101560845Y-90140325D01*
X102192655Y-90266000D01*
X102257345Y-90266000D01*
X102889155Y-90140325D01*
X103424778Y-89782433D01*
X103782670Y-89246810D01*
X103908345Y-88615000D01*
X103782670Y-87983190D01*
X103555501Y-87643208D01*
X103692441Y-87555090D01*
X103837431Y-87342890D01*
X103888440Y-87091000D01*
X103888440Y-85059000D01*
X103844162Y-84823683D01*
X103705090Y-84607559D01*
X103492890Y-84462569D01*
X103241000Y-84411560D01*
X101209000Y-84411560D01*
X100973683Y-84455838D01*
X100757559Y-84594910D01*
X100612569Y-84807110D01*
X100561560Y-85059000D01*
X100561560Y-87091000D01*
X100605838Y-87326317D01*
X100744910Y-87542441D01*
X100893837Y-87644198D01*
X100805235Y-87776800D01*
X85635000Y-87776800D01*
X85314234Y-87840604D01*
X85042303Y-88022303D01*
X78496146Y-94568460D01*
X78142771Y-94714471D01*
X77865445Y-94991314D01*
X77715172Y-95353212D01*
X77714830Y-95745069D01*
X77527000Y-95745069D01*
X77527000Y-86365092D01*
X83386548Y-86365092D01*
X83589906Y-86857254D01*
X83966126Y-87234131D01*
X84457932Y-87438347D01*
X84990452Y-87438812D01*
X85482614Y-87235454D01*
X85859491Y-86859234D01*
X86063707Y-86367428D01*
X86063709Y-86365092D01*
X87785828Y-86365092D01*
X87989186Y-86857254D01*
X88365406Y-87234131D01*
X88857212Y-87438347D01*
X89389732Y-87438812D01*
X89881894Y-87235454D01*
X90258771Y-86859234D01*
X90462987Y-86367428D01*
X90463452Y-85834908D01*
X90260094Y-85342746D01*
X89883874Y-84965869D01*
X89392068Y-84761653D01*
X88859548Y-84761188D01*
X88367386Y-84964546D01*
X87990509Y-85340766D01*
X87786293Y-85832572D01*
X87785828Y-86365092D01*
X86063709Y-86365092D01*
X86064172Y-85834908D01*
X85860814Y-85342746D01*
X85484594Y-84965869D01*
X84992788Y-84761653D01*
X84460268Y-84761188D01*
X83968106Y-84964546D01*
X83591229Y-85340766D01*
X83387013Y-85832572D01*
X83386548Y-86365092D01*
X77527000Y-86365092D01*
X77527000Y-81477000D01*
X104823000Y-81477000D01*
X104823000Y-87750000D01*
M02*
