M48
;DRILL file {KiCad 4.0.2-stable} date 14/07/2016 12:59:34
;FORMAT={-:-/ absolute / inch / decimal}
FMAT,2
INCH,TZ
T1C0.012
T2C0.035
T3C0.040
%
G90
G05
M72
T1
X3.0984Y-3.7618
X3.1161Y-3.9665
X3.1289Y-3.249
X3.1289Y-3.3474
X3.1289Y-3.4459
X3.1289Y-3.5443
X3.1673Y-3.9665
X3.1693Y-4.1772
X3.1693Y-4.2756
X3.1693Y-4.374
X3.1693Y-4.4724
X3.1772Y-4.6024
X3.2028Y-3.7402
X3.2185Y-3.9665
X3.2539Y-3.7402
X3.2677Y-4.1772
X3.2677Y-4.2756
X3.2677Y-4.374
X3.2677Y-4.4724
X3.2697Y-3.9665
X3.3514Y-4.0689
X3.3602Y-3.5866
X3.3602Y-3.6378
X3.3661Y-4.126
X3.3661Y-4.1772
X3.3661Y-4.2756
X3.3661Y-4.374
X3.3661Y-4.4724
X3.3671Y-4.5679
X3.3671Y-4.627
X3.3671Y-4.686
X3.3671Y-4.7451
X3.4262Y-4.686
X3.4449Y-4.7677
X3.4469Y-3.7717
X3.4823Y-3.7362
X3.5177Y-3.7008
X3.5531Y-3.6654
X3.5659Y-4.6014
X3.5886Y-3.6299
X3.626Y-4.0778
X3.626Y-4.1447
X3.6398Y-4.8228
X3.6575Y-4.3406
X3.6585Y-4.5148
X3.6614Y-4.1801
X3.6713Y-3.6299
X3.6772Y-4.2421
X3.6988Y-4.8228
X3.7008Y-4.0778
X3.7028Y-3.874
X3.7146Y-3.248
X3.7205Y-3.689
X3.7205Y-4.1289
X3.7205Y-4.1801
X3.7224Y-3.8228
X3.7402Y-4.6565
X3.7539Y-3.6299
X3.7579Y-4.8228
X3.7618Y-3.874
X3.7913Y-3.5709
X3.7972Y-3.8228
X3.813Y-3.248
X3.815Y-4.4528
X3.8169Y-4.8228
X3.8169Y-4.8976
X3.8179Y-3.3514
X3.8219Y-4.5689
X3.8297Y-4.2717
X3.8297Y-4.3228
X3.8327Y-3.9596
X3.8366Y-3.6299
X3.8376Y-4.3957
X3.8524Y-4.0846
X3.8681Y-4.8976
X3.876Y-3.9596
X3.8809Y-4.2717
X3.8868Y-4.5689
X3.8888Y-4.3228
X3.8917Y-4.8524
X3.8947Y-4.747
X3.8967Y-4.3839
X3.9114Y-3.248
X3.9154Y-4.1043
X3.9163Y-3.3514
X3.9193Y-4.8976
X3.9272Y-3.9833
X3.9321Y-4.2717
X3.94Y-4.3406
X3.9409Y-3.6634
X3.9567Y-4.1043
X3.9567Y-4.498
X3.9656Y-4.7293
X3.9705Y-3.9833
X3.9833Y-4.2972
X3.9921Y-4.5197
X3.998Y-4.1043
X4.Y-3.6043
X4.Y-4.4528
X4.0098Y-3.248
X4.0138Y-3.9843
X4.0177Y-4.8976
X4.0217Y-4.3406
X4.0285Y-4.1201
X4.0394Y-4.4035
X4.0669Y-4.8484
X4.0709Y-4.435
X4.0807Y-4.5719
X4.1024Y-4.4035
X4.1083Y-3.248
X4.1161Y-4.5344
X4.1161Y-4.5719
X4.1161Y-4.8976
X4.1732Y-4.0571
X4.1831Y-4.1919
X4.19Y-4.6447
X4.2274Y-3.687
X4.2274Y-3.7697
X4.2402Y-3.9587
X4.2402Y-4.0295
X4.2421Y-4.1919
X4.2539Y-4.8179
X4.2598Y-4.5463
X4.2726Y-4.6447
X4.2776Y-4.3888
X4.2854Y-4.873
X4.3012Y-4.1919
X4.3051Y-4.8179
X4.31Y-3.687
X4.311Y-3.9587
X4.311Y-4.0295
X4.3602Y-4.1919
X4.3947Y-4.4449
X4.4065Y-4.7264
X4.4193Y-4.1919
X4.4459Y-4.9764
X4.4498Y-4.6831
X4.4508Y-4.8179
X4.4587Y-4.1526
X4.4764Y-4.3415
X4.4931Y-4.6398
X4.497Y-4.7185
X4.498Y-4.1132
X4.501Y-4.7785
X4.501Y-4.8219
X4.5118Y-4.3061
X4.5364Y-4.5965
X4.5364Y-4.6791
X4.5374Y-4.0738
X4.5472Y-4.2707
X4.5974Y-3.747
X4.6486Y-3.747
X4.6988Y-4.6929
X4.6998Y-3.747
X4.751Y-3.747
X4.7766Y-4.0551
X4.7864Y-4.8228
X4.8022Y-3.7156
X4.8022Y-3.7589
X4.8435Y-4.0551
X4.9557Y-3.6614
X4.9557Y-3.8583
X4.9557Y-4.0551
X4.9557Y-4.252
T2
X3.3356Y-3.3898
X3.5088Y-3.3898
T3
X3.1199Y-4.9087
X3.1199Y-5.0087
X3.2199Y-4.9087
X3.2199Y-5.0087
X3.3199Y-4.9087
X3.3199Y-5.0087
X3.4199Y-4.9087
X3.4199Y-5.0087
X3.5199Y-4.9087
X3.5199Y-5.0087
X4.0246Y-3.3888
X4.0246Y-3.4888
X4.063Y-3.7165
X4.4026Y-3.8587
X4.4026Y-3.9587
X4.5026Y-3.8587
X4.5026Y-3.9587
X4.6026Y-3.8587
X4.6026Y-3.9587
X4.7022Y-4.1571
X4.7022Y-4.2571
X4.7022Y-4.3571
X4.7022Y-4.4571
X4.7022Y-4.5571
X4.7026Y-3.8587
X4.7026Y-3.9587
X4.8022Y-4.1571
X4.8022Y-4.2571
X4.8022Y-4.3571
X4.8022Y-4.4571
X4.8022Y-4.5571
X4.8022Y-4.7264
X4.8026Y-3.8587
X4.8026Y-3.9587
X4.9022Y-4.7264
T0
M30
