M48
; DRILL file KiCad 10.0.0 date 2026-05-18T20:20:30
; FORMAT={-:-/ absolute / inch / decimal}
; #@! TF.CreationDate,2026-05-18T20:20:30+03:00
; #@! TF.GenerationSoftware,Kicad,Pcbnew,10.0.0
; #@! TF.FileFunction,Plated,1,4,PTH
FMAT,2
INCH
; #@! TA.AperFunction,Plated,PTH,ViaDrill
T1C0.0118
; #@! TA.AperFunction,Plated,PTH,ComponentDrill
T2C0.0236
; #@! TA.AperFunction,Plated,PTH,ComponentDrill
T3C0.0354
; #@! TA.AperFunction,Plated,PTH,ComponentDrill
T4C0.0409
%
G90
G05
T1
X0.117Y2.3238
X0.1916Y1.8081
X0.3119Y1.1945
X0.3993Y1.3327
X0.4942Y1.0957
X0.5569Y1.2972
X0.5863Y2.8091
X0.5863Y2.2323
X0.5954Y1.0858
X0.5961Y1.3327
X0.6493Y2.8091
X0.6493Y2.2323
X0.6556Y1.3288
X0.6633Y3.2729
X0.667Y1.1791
X0.6988Y1.2818
X0.71Y1.2192
X0.7389Y1.501
X0.7418Y2.2343
X0.7438Y2.8051
X0.7599Y1.6756
X0.7654Y1.1791
X0.8146Y0.9165
X0.8251Y1.2759
X0.8383Y2.8091
X0.8383Y2.2343
X0.8481Y1.5571
X0.8835Y1.2224
X0.9299Y1.177
X0.9318Y1.5158
X0.9318Y1.4754
X0.9328Y2.2343
X0.9347Y2.8051
X0.978Y1.1083
X0.9957Y2.8091
X0.9957Y2.2323
X1.0019Y1.5765
X1.0174Y1.3524
X1.0235Y0.9215
X1.0676Y1.289
X1.0765Y1.2185
X1.1083Y1.4752
X1.1119Y1.5098
X1.2005Y1.3307
X1.2221Y0.9272
X1.2418Y1.2913
X1.2564Y3.0008
X1.2572Y2.9402
X1.2591Y2.878
X1.2591Y2.8169
X1.2607Y1.8768
X1.2871Y1.4744
X1.3414Y1.5601
X1.3615Y1.8398
X1.4033Y1.7291
X1.4111Y1.3406
X1.419Y0.9272
X1.4435Y1.3809
X1.4556Y1.7094
X1.4583Y2.748
X1.4603Y2.2874
X1.4603Y1.5689
X1.482Y1.4154
X1.4946Y3.1575
X1.4954Y2.9791
X1.5174Y1.7264
X1.5623Y1.3563
X1.5713Y3.1602
X1.5765Y0.9193
X1.5981Y1.6181
X1.6147Y1.3993
X1.6201Y1.3475
X1.6206Y2.8315
X1.6276Y1.7224
X1.6316Y0.9744
X1.6459Y0.915
X1.6465Y3.0969
X1.6473Y2.8787
X1.6505Y2.9284
X1.6749Y1.5679
X1.6788Y1.7224
X1.687Y0.9785
X1.6938Y3.2224
X1.7221Y1.7229
X1.7536Y1.002
X1.7537Y0.9272
X1.7552Y1.6705
X1.7694Y1.3602
X1.7733Y2.9295
X1.793Y1.6969
X1.7943Y2.2869
X1.8087Y0.9158
X1.8245Y1.0335
X1.8451Y1.6338
X1.8554Y2.5128
X1.856Y1.7264
X1.8639Y0.9941
X1.8642Y1.4277
X1.8718Y2.0137
X1.8904Y1.3425
X1.8981Y2.8307
X1.8997Y2.9764
X1.9034Y2.8731
X1.9052Y1.0335
X1.9252Y0.9248
X1.9386Y2.2697
X1.9386Y2.2067
X1.9387Y2.4272
X1.9387Y2.1437
X1.9387Y2.3327
X1.9701Y2.1122
X1.9701Y2.0807
X1.9701Y2.3012
X1.9702Y2.3326
X1.9702Y2.4272
X1.9702Y2.3957
X1.9702Y2.3642
X1.9702Y2.1752
X1.9716Y2.2369
X2.0017Y2.0807
X2.0056Y1.3445
X2.0115Y1.7126
X2.0158Y2.0051
X2.0272Y1.6289
X2.0332Y2.4587
X2.0332Y2.4272
X2.035Y2.1416
X2.0438Y2.8358
X2.0446Y3.0154
X2.0646Y2.3957
X2.0646Y2.1437
X2.0646Y2.4272
X2.0646Y2.3642
X2.0646Y2.3327
X2.0646Y2.3012
X2.0646Y2.2697
X2.0647Y2.4587
X2.0647Y2.0807
X2.0647Y2.2067
X2.0869Y1.9817
X2.0961Y2.4272
X2.0961Y2.1437
X2.0961Y2.3957
X2.0961Y2.2382
X2.0961Y2.3012
X2.0961Y2.2067
X2.0962Y2.3642
X2.0962Y2.3327
X2.0962Y2.2697
X2.0962Y2.1122
X2.0981Y1.9331
X2.1214Y1.9521
X2.1276Y2.4587
X2.1276Y2.3957
X2.1276Y2.3012
X2.1276Y2.2697
X2.1276Y2.2382
X2.1276Y2.2067
X2.1276Y2.1437
X2.1276Y2.1122
X2.1276Y1.0628
X2.1277Y2.3642
X2.1277Y2.0807
X2.1383Y2.8173
X2.1527Y2.0133
X2.1591Y2.4272
X2.1591Y2.1437
X2.1591Y2.3957
X2.1591Y2.3642
X2.1591Y2.3327
X2.1591Y2.3012
X2.1591Y2.2697
X2.1591Y2.2382
X2.1591Y2.2067
X2.1591Y2.1122
X2.1591Y2.0492
X2.1663Y1.5525
X2.1906Y2.3957
X2.1906Y2.3327
X2.1906Y2.3642
X2.1906Y2.3012
X2.1906Y2.2697
X2.1906Y2.2382
X2.1906Y2.1437
X2.1906Y2.0807
X2.1906Y2.4587
X2.1907Y2.1122
X2.1907Y2.2067
X2.2221Y2.3327
X2.2221Y2.0808
X2.2221Y2.4272
X2.2221Y2.3957
X2.2221Y2.2697
X2.2221Y2.2382
X2.2221Y2.2067
X2.2221Y2.3012
X2.2222Y2.3642
X2.2222Y2.1122
X2.2367Y2.8169
X2.2415Y1.9986
X2.2495Y1.0829
X2.2537Y2.4587
X2.2537Y2.1122
X2.2615Y0.9075
X2.2772Y3.2736
X2.2851Y2.1752
X2.2851Y2.3642
X2.2851Y2.3012
X2.2851Y2.2382
X2.2851Y2.4272
X2.2852Y2.4587
X2.2852Y2.1122
X2.2852Y2.3957
X2.2911Y1.1142
X2.293Y0.9547
X2.3166Y2.1437
X2.3166Y2.2067
X2.3166Y2.4272
X2.3166Y2.3327
X2.3166Y2.2697
X2.3167Y2.2382
X2.3323Y1.5165
X2.3359Y2.8154
X2.3442Y0.9232
X2.3599Y1.0217
X2.3786Y1.4951
X2.3811Y2.0218
X2.3962Y2.5041
X2.3993Y0.9154
X2.4007Y2.2924
X2.4111Y1.0374
X2.4162Y1.5343
X2.4502Y1.0754
X2.4618Y1.3909
X2.4623Y1.1476
X2.4662Y0.9154
X2.473Y1.4851
X2.5017Y0.9626
X2.5245Y1.6827
X2.5324Y2.8165
X2.5406Y1.4532
X2.541Y0.9232
X2.5425Y1.0969
X2.5489Y3.2894
X2.5725Y1.3819
X2.5947Y0.8954
X2.5961Y0.9469
X2.6119Y1.1004
X2.6249Y1.6768
X2.6306Y2.8161
X2.6552Y1.565
X2.6552Y0.9469
X2.6646Y1.6953
X2.6663Y1.1789
X2.667Y1.2618
X2.669Y1.0682
X2.6972Y1.564
X2.7221Y1.3209
X2.729Y2.8173
X2.73Y1.6516
X2.7326Y1.1965
X2.7379Y0.9902
X2.7654Y1.4075
X2.7665Y1.2205
X2.7782Y1.5069
X2.781Y1.3274
X2.7863Y3.1189
X2.792Y1.1915
X2.802Y2.235
X2.806Y2.0272
X2.8196Y1.2215
X2.8245Y2.8181
X2.8288Y2.0634
X2.8314Y1.0796
X2.837Y1.0234
X2.8395Y1.5071
X2.8481Y2.7087
X2.8517Y2.2504
X2.8526Y1.1865
X2.8762Y0.9119
X2.8792Y1.2221
X2.8914Y2.8154
X2.8991Y1.3274
X2.9113Y1.1282
X2.914Y1.1879
X2.9213Y2.063
X2.9374Y1.2204
X2.945Y2.8161
X2.9485Y1.5079
X2.9663Y1.0619
X2.9976Y1.3274
X3.005Y1.151
X3.0095Y1.0098
X3.0253Y2.7598
X3.041Y2.8543
X3.0421Y1.1872
X3.0448Y2.0522
X3.0548Y1.5087
X3.0631Y1.9713
X3.0646Y1.9122
X3.067Y3.2039
X3.0955Y1.0604
X3.0965Y0.9134
X3.106Y1.9098
X3.109Y0.991
X3.1117Y1.3274
X3.1158Y1.1161
X3.1168Y1.5089
X3.1731Y1.1154
X3.1749Y1.3228
X3.1867Y3.3091
X3.1985Y1.5532
X3.1989Y3.2504
X3.2145Y1.0768
X3.2241Y2.1429
X3.2328Y2.8945
X3.2406Y2.8547
X3.2541Y1.029
X3.2587Y2.8945
X3.267Y1.4465
X3.2694Y1.2776
X3.2772Y1.3957
X3.2997Y2.8701
X3.3036Y1.6252
X3.3107Y2.1831
X3.3127Y2.748
X3.3139Y2.6067
X3.3206Y0.9311
X3.3339Y2.9402
X3.3351Y2.9032
X3.3481Y3.3012
X3.3639Y3.198
X3.3757Y2.748
X3.3757Y2.185
X3.3847Y2.9709
X3.3918Y3.2449
X3.4251Y0.935
X3.4702Y2.75
X3.4702Y2.1831
X3.5517Y3.2878
X3.5646Y2.748
X3.5646Y2.185
X3.6536Y3.5311
X3.6591Y2.75
X3.6591Y2.187
X3.6997Y1.9579
X3.7221Y2.75
X3.7221Y2.1831
X3.8052Y1.5469
X3.8615Y3.5287
T3
X1.4938Y3.4291
X1.5438Y3.4291
X1.5938Y3.4291
X1.6438Y3.4291
T4
X0.1001Y3.476
X0.1001Y3.376
X0.1001Y3.276
X0.1001Y3.176
X0.1001Y3.076
X0.1001Y2.976
X0.1001Y2.876
X0.1001Y2.776
T2
G00X3.6599Y3.2902
M15
G01X3.7032Y3.2902
M16
G05
G00X3.6599Y2.95
M15
G01X3.7032Y2.95
M16
G05
G00X3.8343Y3.2902
M15
G01X3.858Y3.2902
M16
G05
G00X3.8343Y2.95
M15
G01X3.858Y2.95
M16
G05
M30
