%TF.GenerationSoftware,KiCad,Pcbnew,10.0.0*%
%TF.CreationDate,2026-05-18T20:20:30+03:00*%
%TF.ProjectId,wasca,77617363-612e-46b6-9963-61645f706362,1.6*%
%TF.SameCoordinates,Original*%
%TF.FileFunction,Paste,Bot*%
%TF.FilePolarity,Positive*%
%FSLAX46Y46*%
G04 Gerber Fmt 4.6, Leading zero omitted, Abs format (unit mm)*
G04 Created by KiCad (PCBNEW 10.0.0) date 2026-05-18 20:20:30*
%MOMM*%
%LPD*%
G01*
G04 APERTURE LIST*
G04 Aperture macros list*
%AMRoundRect*
0 Rectangle with rounded corners*
0 $1 Rounding radius*
0 $2 $3 $4 $5 $6 $7 $8 $9 X,Y pos of 4 corners*
0 Add a 4 corners polygon primitive as box body*
4,1,4,$2,$3,$4,$5,$6,$7,$8,$9,$2,$3,0*
0 Add four circle primitives for the rounded corners*
1,1,$1+$1,$2,$3*
1,1,$1+$1,$4,$5*
1,1,$1+$1,$6,$7*
1,1,$1+$1,$8,$9*
0 Add four rect primitives between the rounded corners*
20,1,$1+$1,$2,$3,$4,$5,0*
20,1,$1+$1,$4,$5,$6,$7,0*
20,1,$1+$1,$6,$7,$8,$9,0*
20,1,$1+$1,$8,$9,$2,$3,0*%
G04 Aperture macros list end*
%ADD10R,0.701040X7.000240*%
%ADD11R,0.701040X5.999480*%
%ADD12RoundRect,0.237500X0.300000X0.237500X-0.300000X0.237500X-0.300000X-0.237500X0.300000X-0.237500X0*%
%ADD13RoundRect,0.237500X0.237500X-0.250000X0.237500X0.250000X-0.237500X0.250000X-0.237500X-0.250000X0*%
%ADD14RoundRect,0.237500X0.237500X-0.300000X0.237500X0.300000X-0.237500X0.300000X-0.237500X-0.300000X0*%
%ADD15RoundRect,0.150000X-0.150000X0.512500X-0.150000X-0.512500X0.150000X-0.512500X0.150000X0.512500X0*%
%ADD16RoundRect,0.237500X-0.237500X0.250000X-0.237500X-0.250000X0.237500X-0.250000X0.237500X0.250000X0*%
%ADD17RoundRect,0.237500X-0.300000X-0.237500X0.300000X-0.237500X0.300000X0.237500X-0.300000X0.237500X0*%
%ADD18RoundRect,0.075000X0.075000X-0.662500X0.075000X0.662500X-0.075000X0.662500X-0.075000X-0.662500X0*%
%ADD19RoundRect,0.140000X0.170000X-0.140000X0.170000X0.140000X-0.170000X0.140000X-0.170000X-0.140000X0*%
%ADD20RoundRect,0.250000X0.475000X0.250000X-0.475000X0.250000X-0.475000X-0.250000X0.475000X-0.250000X0*%
%ADD21RoundRect,0.237500X0.250000X0.237500X-0.250000X0.237500X-0.250000X-0.237500X0.250000X-0.237500X0*%
%ADD22RoundRect,0.237500X-0.237500X0.300000X-0.237500X-0.300000X0.237500X-0.300000X0.237500X0.300000X0*%
%ADD23RoundRect,0.237500X-0.250000X-0.237500X0.250000X-0.237500X0.250000X0.237500X-0.250000X0.237500X0*%
%ADD24RoundRect,0.140000X0.140000X0.170000X-0.140000X0.170000X-0.140000X-0.170000X0.140000X-0.170000X0*%
%ADD25RoundRect,0.140000X-0.140000X-0.170000X0.140000X-0.170000X0.140000X0.170000X-0.140000X0.170000X0*%
%ADD26RoundRect,0.250000X0.250000X-0.475000X0.250000X0.475000X-0.250000X0.475000X-0.250000X-0.475000X0*%
%ADD27RoundRect,0.162500X0.650000X0.162500X-0.650000X0.162500X-0.650000X-0.162500X0.650000X-0.162500X0*%
%ADD28RoundRect,0.162500X-0.650000X-0.162500X0.650000X-0.162500X0.650000X0.162500X-0.650000X0.162500X0*%
%ADD29RoundRect,0.250000X-0.350000X0.450000X-0.350000X-0.450000X0.350000X-0.450000X0.350000X0.450000X0*%
%ADD30RoundRect,0.140000X-0.170000X0.140000X-0.170000X-0.140000X0.170000X-0.140000X0.170000X0.140000X0*%
%ADD31R,0.997699X0.508000*%
%ADD32RoundRect,0.250000X0.250000X-0.300000X0.250000X0.300000X-0.250000X0.300000X-0.250000X-0.300000X0*%
%ADD33RoundRect,0.150000X-0.512500X-0.150000X0.512500X-0.150000X0.512500X0.150000X-0.512500X0.150000X0*%
%ADD34RoundRect,0.250000X-0.412500X-0.650000X0.412500X-0.650000X0.412500X0.650000X-0.412500X0.650000X0*%
%ADD35RoundRect,0.250000X0.375000X0.850000X-0.375000X0.850000X-0.375000X-0.850000X0.375000X-0.850000X0*%
%ADD36RoundRect,0.249999X-0.395001X-0.395001X0.395001X-0.395001X0.395001X0.395001X-0.395001X0.395001X0*%
%ADD37RoundRect,0.050000X-0.387500X-0.050000X0.387500X-0.050000X0.387500X0.050000X-0.387500X0.050000X0*%
%ADD38RoundRect,0.050000X-0.050000X-0.387500X0.050000X-0.387500X0.050000X0.387500X-0.050000X0.387500X0*%
G04 APERTURE END LIST*
D10*
%TO.C,CN2*%
X13997940Y18470880D03*
X14996160Y18470880D03*
D11*
X15997180Y18970000D03*
X16997180Y18970000D03*
X17998440Y18970880D03*
X18996660Y18970880D03*
X19997420Y18970880D03*
D10*
X20998180Y18470880D03*
D11*
X21996400Y18970880D03*
X22997160Y18970880D03*
X23997920Y18970880D03*
X24996140Y18970880D03*
D10*
X25996900Y18470880D03*
D11*
X26997660Y18970880D03*
X27998420Y18970880D03*
X28996640Y18970880D03*
X29997400Y18970880D03*
D10*
X30998160Y18470880D03*
D11*
X31996380Y18970880D03*
X32997140Y18970880D03*
X33997900Y18970880D03*
X34996120Y18970880D03*
D10*
X35996880Y18470880D03*
D11*
X36997640Y18970880D03*
X37998400Y18970880D03*
X38996620Y18970880D03*
D10*
X39997380Y18470880D03*
D11*
X40998140Y18970880D03*
D10*
X41996360Y18470880D03*
D11*
X42997120Y18970880D03*
X43997880Y18970880D03*
X44996100Y18970880D03*
X45996860Y18970880D03*
X46997620Y18970880D03*
X47998380Y18970880D03*
D10*
X48996600Y18470880D03*
D11*
X56997600Y18970880D03*
X57998360Y18970880D03*
X58996580Y18970880D03*
X59997340Y18970880D03*
D10*
X60998100Y18470880D03*
D11*
X61996320Y18970880D03*
X62997080Y18970880D03*
X63997840Y18970880D03*
X64996060Y18970880D03*
D10*
X65996820Y18470880D03*
D11*
X66997580Y18970880D03*
X67998340Y18970880D03*
X68996560Y18970880D03*
X69997320Y18970880D03*
X70998080Y18970880D03*
X71996300Y18970880D03*
X72997060Y18970880D03*
D10*
X73997820Y18470880D03*
D11*
X74996040Y18970880D03*
X75996800Y18970880D03*
X76997560Y18970880D03*
X77998320Y18970880D03*
D10*
X78996540Y18470880D03*
D11*
X79997300Y18970880D03*
X80998060Y18970880D03*
X81996280Y18970880D03*
X82997040Y18970880D03*
D10*
X83997800Y18470880D03*
X84996020Y18470880D03*
D11*
X85996780Y18970880D03*
D10*
X86997540Y18470880D03*
%TD*%
D12*
%TO.C,C14*%
X37079540Y41000100D03*
X35354540Y41000100D03*
%TD*%
D13*
%TO.C,R14*%
X40042040Y81650100D03*
X40042040Y83475100D03*
%TD*%
D12*
%TO.C,C16*%
X48854540Y35150100D03*
X47129540Y35150100D03*
%TD*%
D14*
%TO.C,C27*%
X65742040Y36912600D03*
X65742040Y38637600D03*
%TD*%
D15*
%TO.C,U4*%
X18041540Y36311600D03*
X18991540Y36311600D03*
X19941540Y36311600D03*
X19941540Y34036600D03*
X18991540Y34036600D03*
X18041540Y34036600D03*
%TD*%
%TO.C,U6*%
X27183040Y36291100D03*
X28133040Y36291100D03*
X29083040Y36291100D03*
X29083040Y34016100D03*
X28133040Y34016100D03*
X27183040Y34016100D03*
%TD*%
D14*
%TO.C,C19*%
X27180540Y38305600D03*
X27180540Y40030600D03*
%TD*%
%TO.C,C18*%
X22608540Y38051600D03*
X22608540Y39776600D03*
%TD*%
%TO.C,C17*%
X17973040Y38242100D03*
X17973040Y39967100D03*
%TD*%
D12*
%TO.C,C11*%
X21326041Y31724600D03*
X19601041Y31724600D03*
%TD*%
%TO.C,C10*%
X26215540Y31851600D03*
X24490540Y31851600D03*
%TD*%
%TO.C,C9*%
X16881040Y31851600D03*
X15156040Y31851600D03*
%TD*%
D14*
%TO.C,C46*%
X64322040Y72985100D03*
X64322040Y74710100D03*
%TD*%
D16*
%TO.C,R23*%
X73102040Y74820100D03*
X73102040Y72995100D03*
%TD*%
%TO.C,R24*%
X71372040Y74850100D03*
X71372040Y73025100D03*
%TD*%
%TO.C,R25*%
X59782040Y74840100D03*
X59782040Y73015100D03*
%TD*%
%TO.C,R27*%
X56492040Y74850100D03*
X56492040Y73025100D03*
%TD*%
D15*
%TO.C,U5*%
X22611040Y36291100D03*
X23561040Y36291100D03*
X24511040Y36291100D03*
X24511040Y34016100D03*
X23561040Y34016100D03*
X22611040Y34016100D03*
%TD*%
D17*
%TO.C,C25*%
X41604540Y41125100D03*
X43329540Y41125100D03*
%TD*%
D16*
%TO.C,R26*%
X58142040Y74840100D03*
X58142040Y73015100D03*
%TD*%
D13*
%TO.C,R11*%
X41992040Y81750100D03*
X41992040Y83575100D03*
%TD*%
D18*
%TO.C,U10*%
X63642040Y33837600D03*
X63142040Y33837600D03*
X62642040Y33837600D03*
X62142040Y33837600D03*
X61642040Y33837600D03*
X61142040Y33837600D03*
X60642040Y33837600D03*
X60142040Y33837600D03*
X59642040Y33837600D03*
X59142040Y33837600D03*
X58642040Y33837600D03*
X58142040Y33837600D03*
X57642040Y33837600D03*
X57142040Y33837600D03*
X56642040Y33837600D03*
X56142040Y33837600D03*
X55642040Y33837600D03*
X55142040Y33837600D03*
X54642040Y33837600D03*
X54142040Y33837600D03*
X53642040Y33837600D03*
X53142040Y33837600D03*
X52642040Y33837600D03*
X52142040Y33837600D03*
X52142040Y41262600D03*
X52642040Y41262600D03*
X53142040Y41262600D03*
X53642040Y41262600D03*
X54142040Y41262600D03*
X54642040Y41262600D03*
X55142040Y41262600D03*
X55642040Y41262600D03*
X56142040Y41262600D03*
X56642040Y41262600D03*
X57142040Y41262600D03*
X57642040Y41262600D03*
X58142040Y41262600D03*
X58642040Y41262600D03*
X59142040Y41262600D03*
X59642040Y41262600D03*
X60142040Y41262600D03*
X60642040Y41262600D03*
X61142040Y41262600D03*
X61642040Y41262600D03*
X62142040Y41262600D03*
X62642040Y41262600D03*
X63142040Y41262600D03*
X63642040Y41262600D03*
%TD*%
D13*
%TO.C,R15*%
X38017040Y81725100D03*
X38017040Y83550100D03*
%TD*%
D14*
%TO.C,C32*%
X93922040Y51415100D03*
X93922040Y53140100D03*
%TD*%
D13*
%TO.C,R16*%
X77807040Y45695100D03*
X77807040Y47520100D03*
%TD*%
D19*
%TO.C,C59*%
X57212040Y60560100D03*
X57212040Y61520100D03*
%TD*%
D20*
%TO.C,SW2*%
X98042040Y88020100D03*
X92892040Y88020100D03*
X98042040Y86320100D03*
X92892040Y86320100D03*
%TD*%
D17*
%TO.C,C7*%
X86352040Y66990100D03*
X88077040Y66990100D03*
%TD*%
D21*
%TO.C,R2*%
X88112040Y64190100D03*
X86287040Y64190100D03*
%TD*%
D22*
%TO.C,C30*%
X94017040Y47440100D03*
X94017040Y45715100D03*
%TD*%
D23*
%TO.C,R30*%
X33192040Y73080100D03*
X35017040Y73080100D03*
%TD*%
D24*
%TO.C,C52*%
X51712040Y60180100D03*
X50752040Y60180100D03*
%TD*%
D25*
%TO.C,C58*%
X56162040Y55270100D03*
X57122040Y55270100D03*
%TD*%
D24*
%TO.C,C50*%
X53212040Y55270100D03*
X52252040Y55270100D03*
%TD*%
D21*
%TO.C,R33*%
X51917040Y73120100D03*
X50092040Y73120100D03*
%TD*%
D26*
%TO.C,SW1*%
X92732040Y60575100D03*
X92732040Y65725100D03*
X91032040Y60575100D03*
X91032040Y65725100D03*
%TD*%
D17*
%TO.C,C22*%
X86627040Y72740100D03*
X88352040Y72740100D03*
%TD*%
D27*
%TO.C,U17*%
X46729540Y75655100D03*
X46729540Y74385100D03*
X46729540Y73115100D03*
X46729540Y71845100D03*
X39554540Y71845100D03*
X39554540Y73115100D03*
X39554540Y74385100D03*
X39554540Y75655100D03*
%TD*%
D24*
%TO.C,C51*%
X51692040Y58050100D03*
X50732040Y58050100D03*
%TD*%
D23*
%TO.C,R31*%
X33167040Y71520100D03*
X34992040Y71520100D03*
%TD*%
D28*
%TO.C,U3*%
X74717040Y64670100D03*
X74717040Y65940100D03*
X74717040Y67210100D03*
X74717040Y68480100D03*
X81892040Y68480100D03*
X81892040Y67210100D03*
X81892040Y65940100D03*
X81892040Y64670100D03*
%TD*%
D29*
%TO.C,Y1*%
X74962040Y85490100D03*
X74962040Y83290100D03*
X73262040Y83290100D03*
X73262040Y85490100D03*
%TD*%
D30*
%TO.C,C57*%
X51222040Y55950100D03*
X51222040Y54990100D03*
%TD*%
%TO.C,C49*%
X57212040Y59590100D03*
X57212040Y58630100D03*
%TD*%
D31*
%TO.C,U13*%
X90157040Y47600102D03*
X90157040Y46650101D03*
X90157040Y45700100D03*
X87457538Y45700100D03*
X87457538Y47600102D03*
%TD*%
D17*
%TO.C,C26*%
X81912040Y83420100D03*
X83637040Y83420100D03*
%TD*%
D32*
%TO.C,Y2*%
X50612040Y49700100D03*
X50612040Y51600100D03*
X52112040Y51600100D03*
X52112040Y49700100D03*
%TD*%
D21*
%TO.C,R29*%
X51917040Y75600100D03*
X50092040Y75600100D03*
%TD*%
D33*
%TO.C,U15*%
X89092040Y51280100D03*
X89092040Y53180100D03*
X91367040Y52230100D03*
%TD*%
D12*
%TO.C,C12*%
X70177040Y83290100D03*
X68452040Y83290100D03*
%TD*%
D24*
%TO.C,C56*%
X51702040Y59110100D03*
X50742040Y59110100D03*
%TD*%
D21*
%TO.C,R21*%
X89007040Y83490100D03*
X87182040Y83490100D03*
%TD*%
D23*
%TO.C,R32*%
X33187040Y76200100D03*
X35012040Y76200100D03*
%TD*%
D34*
%TO.C,C44*%
X89962040Y42880100D03*
X93087040Y42880100D03*
%TD*%
D24*
%TO.C,C53*%
X51742040Y57000100D03*
X50782040Y57000100D03*
%TD*%
D35*
%TO.C,L1*%
X85587040Y43170100D03*
X83437040Y43170100D03*
%TD*%
D30*
%TO.C,C55*%
X57212040Y57670100D03*
X57212040Y56710100D03*
%TD*%
D17*
%TO.C,C24*%
X83072040Y71600100D03*
X84797040Y71600100D03*
%TD*%
D14*
%TO.C,C42*%
X83017040Y45705100D03*
X83017040Y47430100D03*
%TD*%
D23*
%TO.C,R34*%
X33187040Y74680100D03*
X35012040Y74680100D03*
%TD*%
D13*
%TO.C,R9*%
X81337040Y45695100D03*
X81337040Y47520100D03*
%TD*%
D17*
%TO.C,C13*%
X73262040Y88240100D03*
X74987040Y88240100D03*
%TD*%
D36*
%TO.C,U9*%
X80469540Y78850100D03*
X80469540Y77250100D03*
X82069540Y78850100D03*
X82069540Y77250100D03*
D37*
X77832040Y75450100D03*
X77832040Y75850100D03*
X77832040Y76250100D03*
X77832040Y76650100D03*
X77832040Y77050100D03*
X77832040Y77450100D03*
X77832040Y77850100D03*
X77832040Y78250100D03*
X77832040Y78650100D03*
X77832040Y79050100D03*
X77832040Y79450100D03*
X77832040Y79850100D03*
X77832040Y80250100D03*
X77832040Y80650100D03*
D38*
X78669540Y81487600D03*
X79069540Y81487600D03*
X79469540Y81487600D03*
X79869540Y81487600D03*
X80269540Y81487600D03*
X80669540Y81487600D03*
X81069540Y81487600D03*
X81469540Y81487600D03*
X81869540Y81487600D03*
X82269540Y81487600D03*
X82669540Y81487600D03*
X83069540Y81487600D03*
X83469540Y81487600D03*
X83869540Y81487600D03*
D37*
X84707040Y80650100D03*
X84707040Y80250100D03*
X84707040Y79850100D03*
X84707040Y79450100D03*
X84707040Y79050100D03*
X84707040Y78650100D03*
X84707040Y78250100D03*
X84707040Y77850100D03*
X84707040Y77450100D03*
X84707040Y77050100D03*
X84707040Y76650100D03*
X84707040Y76250100D03*
X84707040Y75850100D03*
X84707040Y75450100D03*
D38*
X83869540Y74612600D03*
X83469540Y74612600D03*
X83069540Y74612600D03*
X82669540Y74612600D03*
X82269540Y74612600D03*
X81869540Y74612600D03*
X81469540Y74612600D03*
X81069540Y74612600D03*
X80669540Y74612600D03*
X80269540Y74612600D03*
X79869540Y74612600D03*
X79469540Y74612600D03*
X79069540Y74612600D03*
X78669540Y74612600D03*
%TD*%
D24*
%TO.C,C54*%
X55162040Y55270100D03*
X54202040Y55270100D03*
%TD*%
D13*
%TO.C,R8*%
X81922040Y51405100D03*
X81922040Y53230100D03*
%TD*%
D21*
%TO.C,R28*%
X54667040Y47640100D03*
X52842040Y47640100D03*
%TD*%
D13*
%TO.C,R12*%
X79637040Y45705100D03*
X79637040Y47530100D03*
%TD*%
D22*
%TO.C,C41*%
X86622040Y53200100D03*
X86622040Y51475100D03*
%TD*%
M02*
