%TF.GenerationSoftware,KiCad,Pcbnew,10.0.0*%
%TF.CreationDate,2026-05-18T20:20:30+03:00*%
%TF.ProjectId,wasca,77617363-612e-46b6-9963-61645f706362,1.6*%
%TF.SameCoordinates,Original*%
%TF.FileFunction,Soldermask,Top*%
%TF.FilePolarity,Negative*%
%FSLAX46Y46*%
G04 Gerber Fmt 4.6, Leading zero omitted, Abs format (unit mm)*
G04 Created by KiCad (PCBNEW 10.0.0) date 2026-05-18 20:20:30*
%MOMM*%
%LPD*%
G01*
G04 APERTURE LIST*
G04 Aperture macros list*
%AMRoundRect*
0 Rectangle with rounded corners*
0 $1 Rounding radius*
0 $2 $3 $4 $5 $6 $7 $8 $9 X,Y pos of 4 corners*
0 Add a 4 corners polygon primitive as box body*
4,1,4,$2,$3,$4,$5,$6,$7,$8,$9,$2,$3,0*
0 Add four circle primitives for the rounded corners*
1,1,$1+$1,$2,$3*
1,1,$1+$1,$4,$5*
1,1,$1+$1,$6,$7*
1,1,$1+$1,$8,$9*
0 Add four rect primitives between the rounded corners*
20,1,$1+$1,$2,$3,$4,$5,0*
20,1,$1+$1,$4,$5,$6,$7,0*
20,1,$1+$1,$6,$7,$8,$9,0*
20,1,$1+$1,$8,$9,$2,$3,0*%
G04 Aperture macros list end*
%ADD10C,0.002540*%
%ADD11R,0.701040X7.000240*%
%ADD12R,0.701040X5.999480*%
%ADD13RoundRect,0.075000X0.075000X-0.662500X0.075000X0.662500X-0.075000X0.662500X-0.075000X-0.662500X0*%
%ADD14RoundRect,0.237500X0.300000X0.237500X-0.300000X0.237500X-0.300000X-0.237500X0.300000X-0.237500X0*%
%ADD15RoundRect,0.237500X0.237500X-0.300000X0.237500X0.300000X-0.237500X0.300000X-0.237500X-0.300000X0*%
%ADD16RoundRect,0.237500X-0.237500X0.300000X-0.237500X-0.300000X0.237500X-0.300000X0.237500X0.300000X0*%
%ADD17RoundRect,0.237500X-0.300000X-0.237500X0.300000X-0.237500X0.300000X0.237500X-0.300000X0.237500X0*%
%ADD18RoundRect,0.150000X-0.150000X0.512500X-0.150000X-0.512500X0.150000X-0.512500X0.150000X0.512500X0*%
%ADD19C,0.500000*%
%ADD20RoundRect,0.175000X-0.175000X-0.625000X0.175000X-0.625000X0.175000X0.625000X-0.175000X0.625000X0*%
%ADD21RoundRect,0.300000X-0.300000X-0.400000X0.300000X-0.400000X0.300000X0.400000X-0.300000X0.400000X0*%
%ADD22RoundRect,0.300000X-0.300000X-0.800000X0.300000X-0.800000X0.300000X0.800000X-0.300000X0.800000X0*%
%ADD23RoundRect,0.350000X-0.450000X0.350000X-0.450000X-0.350000X0.450000X-0.350000X0.450000X0.350000X0*%
%ADD24RoundRect,0.150000X0.587500X0.150000X-0.587500X0.150000X-0.587500X-0.150000X0.587500X-0.150000X0*%
%ADD25R,1.070000X1.800000*%
%ADD26O,1.070000X1.800000*%
%ADD27R,1.100000X2.000000*%
%ADD28R,1.560000X1.560000*%
%ADD29C,1.560000*%
%ADD30RoundRect,0.237500X-0.237500X0.250000X-0.237500X-0.250000X0.237500X-0.250000X0.237500X0.250000X0*%
%ADD31RoundRect,0.237500X0.250000X0.237500X-0.250000X0.237500X-0.250000X-0.237500X0.250000X-0.237500X0*%
%ADD32RoundRect,0.237500X-0.250000X-0.237500X0.250000X-0.237500X0.250000X0.237500X-0.250000X0.237500X0*%
%ADD33RoundRect,0.250000X-0.412500X-0.650000X0.412500X-0.650000X0.412500X0.650000X-0.412500X0.650000X0*%
%ADD34C,1.000000*%
%ADD35RoundRect,0.237500X0.237500X-0.250000X0.237500X0.250000X-0.237500X0.250000X-0.237500X-0.250000X0*%
%ADD36C,0.325120*%
%ADD37R,0.458000X1.510000*%
%ADD38R,1.450000X0.600000*%
%ADD39R,1.450000X0.300000*%
%ADD40O,2.100000X1.000000*%
%ADD41O,1.600000X1.000000*%
%ADD42C,1.500000*%
%ADD43RoundRect,0.250000X0.375000X0.850000X-0.375000X0.850000X-0.375000X-0.850000X0.375000X-0.850000X0*%
%ADD44R,0.997699X0.508000*%
%ADD45R,1.000000X1.500000*%
%ADD46R,0.700000X1.500000*%
%ADD47R,1.500000X2.800000*%
%ADD48RoundRect,0.218750X-0.218750X-0.256250X0.218750X-0.256250X0.218750X0.256250X-0.218750X0.256250X0*%
G04 APERTURE END LIST*
D10*
%TO.C,VACHE1*%
X11173270Y61151990D02*
X11358690Y61098650D01*
X11437430Y61024990D01*
X11480610Y60847190D01*
X11373930Y60715110D01*
X11125010Y60633830D01*
X10858310Y60616050D01*
X10517950Y60643990D01*
X10322370Y60730350D01*
X10302050Y60750670D01*
X10223310Y60925930D01*
X10302050Y61058010D01*
X10525570Y61139290D01*
X10858310Y61167230D01*
X11173270Y61151990D01*
G36*
X11173270Y61151990D02*
G01*
X11358690Y61098650D01*
X11437430Y61024990D01*
X11480610Y60847190D01*
X11373930Y60715110D01*
X11125010Y60633830D01*
X10858310Y60616050D01*
X10517950Y60643990D01*
X10322370Y60730350D01*
X10302050Y60750670D01*
X10223310Y60925930D01*
X10302050Y61058010D01*
X10525570Y61139290D01*
X10858310Y61167230D01*
X11173270Y61151990D01*
G37*
X10611930Y62051150D02*
X10868470Y62038450D01*
X11023410Y62005430D01*
X11109770Y61952090D01*
X11152950Y61893670D01*
X11221530Y61710790D01*
X11191050Y61588870D01*
X11046270Y61512670D01*
X10766870Y61472030D01*
X10357930Y61461870D01*
X9931210Y61474570D01*
X9631490Y61507590D01*
X9481630Y61563470D01*
X9479090Y61563470D01*
X9397810Y61726030D01*
X9377490Y61860650D01*
X9385110Y61949550D01*
X9425750Y62005430D01*
X9534970Y62038450D01*
X9740710Y62051150D01*
X10073450Y62056230D01*
X10220770Y62056230D01*
X10611930Y62051150D01*
G36*
X10611930Y62051150D02*
G01*
X10868470Y62038450D01*
X11023410Y62005430D01*
X11109770Y61952090D01*
X11152950Y61893670D01*
X11221530Y61710790D01*
X11191050Y61588870D01*
X11046270Y61512670D01*
X10766870Y61472030D01*
X10357930Y61461870D01*
X9931210Y61474570D01*
X9631490Y61507590D01*
X9481630Y61563470D01*
X9479090Y61563470D01*
X9397810Y61726030D01*
X9377490Y61860650D01*
X9385110Y61949550D01*
X9425750Y62005430D01*
X9534970Y62038450D01*
X9740710Y62051150D01*
X10073450Y62056230D01*
X10220770Y62056230D01*
X10611930Y62051150D01*
G37*
X7581710Y61947010D02*
X7599490Y61926690D01*
X7772210Y61840330D01*
X7873810Y61850490D01*
X8026210Y61842870D01*
X8221790Y61715870D01*
X8369110Y61581250D01*
X8569770Y61362810D01*
X8668830Y61177390D01*
X8699310Y60956410D01*
X8699310Y60900530D01*
X8676450Y60646530D01*
X8587550Y60481430D01*
X8452930Y60367130D01*
X8226870Y60229970D01*
X8077010Y60209650D01*
X7965250Y60313790D01*
X7932230Y60369670D01*
X7838250Y60547470D01*
X7650290Y60369670D01*
X7467410Y60235050D01*
X7299770Y60214730D01*
X7106730Y60318870D01*
X6900990Y60494130D01*
X6702870Y60699870D01*
X6608890Y60882750D01*
X6583490Y61116430D01*
X6583490Y61151990D01*
X6608890Y61418690D01*
X6710490Y61621890D01*
X6862890Y61784450D01*
X7142290Y61992730D01*
X7386130Y62048610D01*
X7581710Y61947010D01*
G36*
X7581710Y61947010D02*
G01*
X7599490Y61926690D01*
X7772210Y61840330D01*
X7873810Y61850490D01*
X8026210Y61842870D01*
X8221790Y61715870D01*
X8369110Y61581250D01*
X8569770Y61362810D01*
X8668830Y61177390D01*
X8699310Y60956410D01*
X8699310Y60900530D01*
X8676450Y60646530D01*
X8587550Y60481430D01*
X8452930Y60367130D01*
X8226870Y60229970D01*
X8077010Y60209650D01*
X7965250Y60313790D01*
X7932230Y60369670D01*
X7838250Y60547470D01*
X7650290Y60369670D01*
X7467410Y60235050D01*
X7299770Y60214730D01*
X7106730Y60318870D01*
X6900990Y60494130D01*
X6702870Y60699870D01*
X6608890Y60882750D01*
X6583490Y61116430D01*
X6583490Y61151990D01*
X6608890Y61418690D01*
X6710490Y61621890D01*
X6862890Y61784450D01*
X7142290Y61992730D01*
X7386130Y62048610D01*
X7581710Y61947010D01*
G37*
%TD*%
D11*
%TO.C,CN2*%
X13997940Y18470880D03*
X14996160Y18470880D03*
D12*
X15997180Y18970000D03*
X16997680Y18970880D03*
X17998440Y18970880D03*
X18996660Y18970880D03*
D11*
X19997180Y18470000D03*
X20998180Y18470880D03*
D12*
X21996400Y18970880D03*
X22997160Y18970880D03*
X23997920Y18970880D03*
X24996140Y18970880D03*
D11*
X25996900Y18470880D03*
D12*
X26997660Y18970880D03*
X27998420Y18970880D03*
X28996640Y18970880D03*
X29997400Y18970880D03*
D11*
X30998160Y18470880D03*
D12*
X31996380Y18970880D03*
X32997140Y18970880D03*
X33997900Y18970880D03*
X34996120Y18970880D03*
D11*
X35996880Y18470880D03*
D12*
X36997640Y18970880D03*
X37998400Y18970880D03*
X38996620Y18970880D03*
D11*
X39997380Y18470880D03*
D12*
X40998140Y18970880D03*
D11*
X41996360Y18470880D03*
D12*
X42997120Y18970880D03*
X43997880Y18970880D03*
X44996100Y18970880D03*
X45996860Y18970880D03*
X46997620Y18970880D03*
X47998380Y18970880D03*
D11*
X48996600Y18470880D03*
D12*
X56997600Y18970880D03*
X57998360Y18970880D03*
X58996580Y18970880D03*
X59997340Y18970880D03*
D11*
X60998100Y18470880D03*
D12*
X61996320Y18970880D03*
X62997080Y18970880D03*
X63997840Y18970880D03*
X64996060Y18970880D03*
D11*
X65996820Y18470880D03*
D12*
X66997580Y18970880D03*
X67998340Y18970880D03*
X68996560Y18970880D03*
X69997320Y18970880D03*
X70998080Y18970880D03*
X71996300Y18970880D03*
X72997060Y18970880D03*
D11*
X73997820Y18470880D03*
D12*
X74996040Y18970880D03*
X75996800Y18970880D03*
X76997560Y18970880D03*
X77998320Y18970880D03*
D11*
X78996540Y18470880D03*
D12*
X79997300Y18970880D03*
X80998060Y18970880D03*
X81996280Y18970880D03*
X82997040Y18970880D03*
D11*
X83997800Y18470880D03*
X84996020Y18470880D03*
D12*
X85996780Y18970880D03*
D11*
X86997540Y18470880D03*
%TD*%
D13*
%TO.C,U8*%
X69119040Y32266600D03*
X69619040Y32266600D03*
X70119040Y32266600D03*
X70619040Y32266600D03*
X71119040Y32266600D03*
X71619040Y32266600D03*
X72119040Y32266600D03*
X72619040Y32266600D03*
X73119040Y32266600D03*
X73619040Y32266600D03*
X74119040Y32266600D03*
X74619040Y32266600D03*
X75119040Y32266600D03*
X75619040Y32266600D03*
X76119040Y32266600D03*
X76619040Y32266600D03*
X77119040Y32266600D03*
X77619040Y32266600D03*
X78119040Y32266600D03*
X78619040Y32266600D03*
X79119040Y32266600D03*
X79619040Y32266600D03*
X80119040Y32266600D03*
X80619040Y32266600D03*
X80619040Y39691600D03*
X80119040Y39691600D03*
X79619040Y39691600D03*
X79119040Y39691600D03*
X78619040Y39691600D03*
X78119040Y39691600D03*
X77619040Y39691600D03*
X77119040Y39691600D03*
X76619040Y39691600D03*
X76119040Y39691600D03*
X75619040Y39691600D03*
X75119040Y39691600D03*
X74619040Y39691600D03*
X74119040Y39691600D03*
X73619040Y39691600D03*
X73119040Y39691600D03*
X72619040Y39691600D03*
X72119040Y39691600D03*
X71619040Y39691600D03*
X71119040Y39691600D03*
X70619040Y39691600D03*
X70119040Y39691600D03*
X69619040Y39691600D03*
X69119040Y39691600D03*
%TD*%
D14*
%TO.C,C29*%
X90802040Y41390100D03*
X89077040Y41390100D03*
%TD*%
D15*
%TO.C,C28*%
X82997040Y37910600D03*
X82997040Y39635600D03*
%TD*%
D14*
%TO.C,C3*%
X13261540Y33820100D03*
X11536540Y33820100D03*
%TD*%
%TO.C,C8*%
X86159540Y32550100D03*
X84434540Y32550100D03*
%TD*%
D16*
%TO.C,C15*%
X66614040Y34569600D03*
X66614040Y32844600D03*
%TD*%
D17*
%TO.C,C4*%
X63979540Y41475100D03*
X65704540Y41475100D03*
%TD*%
D18*
%TO.C,U1*%
X61792040Y42387600D03*
X60842040Y42387600D03*
X59892040Y42387600D03*
X59892040Y40112600D03*
X60842040Y40112600D03*
X61792040Y40112600D03*
%TD*%
%TO.C,U2*%
X19746040Y36143600D03*
X18796040Y36143600D03*
X17846040Y36143600D03*
X17846040Y33868600D03*
X18796040Y33868600D03*
X19746040Y33868600D03*
%TD*%
D17*
%TO.C,C5*%
X19763540Y38138100D03*
X21488540Y38138100D03*
%TD*%
D15*
%TO.C,C47*%
X6452040Y70667600D03*
X6452040Y72392600D03*
%TD*%
D19*
%TO.C,CN3*%
X69122040Y86750100D03*
X61142040Y86750100D03*
D20*
X61992040Y76250100D03*
X63092040Y76250100D03*
X64192040Y76250100D03*
X65292040Y76250100D03*
X66392040Y76250100D03*
X67492040Y76250100D03*
X68592040Y76250100D03*
X69692040Y76250100D03*
X70792040Y76250100D03*
D21*
X71942040Y76750100D03*
D22*
X71942040Y86350100D03*
X56442040Y86350100D03*
D23*
X57342040Y76750100D03*
%TD*%
D24*
%TO.C,D1*%
X91667040Y36860100D03*
X91667040Y38760100D03*
X89792040Y37810100D03*
%TD*%
D25*
%TO.C,D3*%
X37942040Y87100100D03*
D26*
X39212040Y87100100D03*
X40482040Y87100100D03*
X41752040Y87100100D03*
%TD*%
D27*
%TO.C,D2*%
X41642040Y89450100D03*
X39942040Y89450100D03*
X38242040Y89450100D03*
X38242040Y84650100D03*
X39942040Y84650100D03*
X41642040Y84650100D03*
%TD*%
D15*
%TO.C,C2*%
X21783040Y33733600D03*
X21783040Y35458600D03*
%TD*%
D17*
%TO.C,C1*%
X64454539Y39450100D03*
X66179539Y39450100D03*
%TD*%
D28*
%TO.C,CN5*%
X2542040Y70510100D03*
D29*
X2542040Y73050100D03*
X2542040Y75590100D03*
X2542040Y78130100D03*
X2542040Y80670100D03*
X2542040Y83210100D03*
X2542040Y85750100D03*
X2542040Y88290100D03*
%TD*%
D30*
%TO.C,R3*%
X18032040Y41235101D03*
X18032040Y39410101D03*
%TD*%
D13*
%TO.C,U7*%
X34092040Y37937600D03*
X34592040Y37937600D03*
X35092040Y37937600D03*
X35592040Y37937600D03*
X36092040Y37937600D03*
X36592040Y37937600D03*
X37092040Y37937600D03*
X37592040Y37937600D03*
X38092040Y37937600D03*
X38592040Y37937600D03*
X39092040Y37937600D03*
X39592040Y37937600D03*
X40092040Y37937600D03*
X40592040Y37937600D03*
X41092040Y37937600D03*
X41592040Y37937600D03*
X42092040Y37937600D03*
X42592040Y37937600D03*
X43092040Y37937600D03*
X43592040Y37937600D03*
X44092040Y37937600D03*
X44592040Y37937600D03*
X45092040Y37937600D03*
X45592040Y37937600D03*
X45592040Y45362600D03*
X45092040Y45362600D03*
X44592040Y45362600D03*
X44092040Y45362600D03*
X43592040Y45362600D03*
X43092040Y45362600D03*
X42592040Y45362600D03*
X42092040Y45362600D03*
X41592040Y45362600D03*
X41092040Y45362600D03*
X40592040Y45362600D03*
X40092040Y45362600D03*
X39592040Y45362600D03*
X39092040Y45362600D03*
X38592040Y45362600D03*
X38092040Y45362600D03*
X37592040Y45362600D03*
X37092040Y45362600D03*
X36592040Y45362600D03*
X36092040Y45362600D03*
X35592040Y45362600D03*
X35092040Y45362600D03*
X34592040Y45362600D03*
X34092040Y45362600D03*
%TD*%
D31*
%TO.C,R1*%
X88677040Y76650100D03*
X86852040Y76650100D03*
%TD*%
D32*
%TO.C,R19*%
X74732040Y50340100D03*
X76557040Y50340100D03*
%TD*%
D30*
%TO.C,R10*%
X83302040Y45980100D03*
X83302040Y44155100D03*
%TD*%
D33*
%TO.C,C45*%
X92427040Y48400100D03*
X95552040Y48400100D03*
%TD*%
D15*
%TO.C,C31*%
X96402040Y44150100D03*
X96402040Y45875100D03*
%TD*%
D34*
%TO.C,TP8*%
X72762040Y50210100D03*
%TD*%
D35*
%TO.C,R18*%
X55372040Y46135100D03*
X55372040Y47960100D03*
%TD*%
D36*
%TO.C,U16*%
X48042040Y63650100D03*
X48842040Y63650100D03*
X49642040Y63650100D03*
X50442040Y63650100D03*
X51242040Y63650100D03*
X52042040Y63650100D03*
X52842040Y63650100D03*
X53642040Y63650100D03*
X54442040Y63650100D03*
X55242039Y63650100D03*
X56042039Y63650100D03*
X56842039Y63650100D03*
X57642039Y63650100D03*
X58442039Y63650100D03*
X59242039Y63650100D03*
X60042039Y63650100D03*
X48042040Y62850100D03*
X48842040Y62850100D03*
X49642040Y62850100D03*
X50442040Y62850100D03*
X51242040Y62850100D03*
X52042040Y62850100D03*
X52842040Y62850100D03*
X53642040Y62850100D03*
X54442040Y62850100D03*
X55242039Y62850100D03*
X56042039Y62850100D03*
X56842039Y62850100D03*
X57642039Y62850100D03*
X58442039Y62850100D03*
X59242039Y62850100D03*
X60042039Y62850100D03*
X48042040Y62050100D03*
X48842040Y62050100D03*
X49642040Y62050100D03*
X50442040Y62050100D03*
X51242040Y62050100D03*
X52042040Y62050100D03*
X52842040Y62050100D03*
X53642040Y62050100D03*
X54442040Y62050100D03*
X55242039Y62050100D03*
X56042039Y62050100D03*
X56842039Y62050100D03*
X57642039Y62050100D03*
X58442039Y62050100D03*
X59242039Y62050100D03*
X60042039Y62050100D03*
X48042040Y61250100D03*
X48842040Y61250100D03*
X49642040Y61250100D03*
X50442040Y61250100D03*
X51242040Y61250100D03*
X52042040Y61250100D03*
X52842040Y61250100D03*
X53642040Y61250100D03*
X54442040Y61250100D03*
X55242039Y61250100D03*
X56042039Y61250100D03*
X56842039Y61250100D03*
X57642039Y61250100D03*
X58442039Y61250100D03*
X59242039Y61250100D03*
X60042039Y61250100D03*
X48042040Y60450100D03*
X48842040Y60450100D03*
X49642040Y60450100D03*
X50442040Y60450100D03*
X51242040Y60450100D03*
X52042040Y60450100D03*
X52842040Y60450100D03*
X53642040Y60450100D03*
X54442040Y60450100D03*
X55242039Y60450100D03*
X56042039Y60450100D03*
X56842039Y60450100D03*
X57642039Y60450100D03*
X58442039Y60450100D03*
X59242039Y60450100D03*
X60042039Y60450100D03*
X48042040Y59650100D03*
X48842040Y59650100D03*
X49642040Y59650100D03*
X50442040Y59650100D03*
X51242040Y59650100D03*
X52042040Y59650100D03*
X52842040Y59650100D03*
X53642040Y59650100D03*
X54442040Y59650100D03*
X55242039Y59650100D03*
X56042039Y59650100D03*
X56842039Y59650100D03*
X57642039Y59650100D03*
X58442039Y59650100D03*
X59242039Y59650100D03*
X60042039Y59650100D03*
X48042040Y58850100D03*
X48842040Y58850100D03*
X49642040Y58850100D03*
X50442040Y58850100D03*
X51242040Y58850100D03*
X52042040Y58850100D03*
X52842040Y58850100D03*
X53642040Y58850100D03*
X54442040Y58850100D03*
X55242039Y58850100D03*
X56042039Y58850100D03*
X56842039Y58850100D03*
X57642039Y58850100D03*
X58442039Y58850100D03*
X59242039Y58850100D03*
X60042039Y58850100D03*
X48042040Y58050100D03*
X48842040Y58050100D03*
X49642040Y58050100D03*
X50442040Y58050100D03*
X51242040Y58050100D03*
X52042040Y58050100D03*
X52842040Y58050100D03*
X53642040Y58050100D03*
X54442040Y58050100D03*
X55242039Y58050100D03*
X56042039Y58050100D03*
X56842039Y58050100D03*
X57642039Y58050100D03*
X58442039Y58050100D03*
X59242039Y58050100D03*
X60042039Y58050100D03*
X48042040Y57250100D03*
X48842040Y57250100D03*
X49642040Y57250100D03*
X50442040Y57250100D03*
X51242040Y57250100D03*
X52042040Y57250100D03*
X52842040Y57250100D03*
X53642040Y57250100D03*
X54442040Y57250100D03*
X55242039Y57250100D03*
X56042039Y57250100D03*
X56842039Y57250100D03*
X57642039Y57250100D03*
X58442039Y57250100D03*
X59242039Y57250100D03*
X60042039Y57250100D03*
X48042040Y56450101D03*
X48842040Y56450101D03*
X49642040Y56450101D03*
X50442040Y56450101D03*
X51242040Y56450101D03*
X52042040Y56450101D03*
X52842040Y56450101D03*
X53642040Y56450101D03*
X54442040Y56450101D03*
X55242039Y56450101D03*
X56042039Y56450101D03*
X56842039Y56450101D03*
X57642039Y56450101D03*
X58442039Y56450101D03*
X59242039Y56450101D03*
X60042039Y56450101D03*
X48042040Y55650101D03*
X48842040Y55650101D03*
X49642040Y55650101D03*
X50442040Y55650101D03*
X51242040Y55650101D03*
X52042040Y55650101D03*
X52842040Y55650101D03*
X53642040Y55650101D03*
X54442040Y55650101D03*
X55242039Y55650101D03*
X56042039Y55650101D03*
X56842039Y55650101D03*
X57642039Y55650101D03*
X58442039Y55650101D03*
X59242039Y55650101D03*
X60042039Y55650101D03*
X48042040Y54850101D03*
X48842040Y54850101D03*
X49642040Y54850101D03*
X50442040Y54850101D03*
X51242040Y54850101D03*
X52042040Y54850101D03*
X52842040Y54850101D03*
X53642040Y54850101D03*
X54442040Y54850101D03*
X55242039Y54850101D03*
X56042039Y54850101D03*
X56842039Y54850101D03*
X57642039Y54850101D03*
X58442039Y54850101D03*
X59242039Y54850101D03*
X60042039Y54850101D03*
X48042040Y54050101D03*
X48842040Y54050101D03*
X49642040Y54050101D03*
X50442040Y54050101D03*
X51242040Y54050101D03*
X52042040Y54050101D03*
X52842040Y54050101D03*
X53642040Y54050101D03*
X54442040Y54050101D03*
X55242039Y54050101D03*
X56042039Y54050101D03*
X56842039Y54050101D03*
X57642039Y54050101D03*
X58442039Y54050101D03*
X59242039Y54050101D03*
X60042039Y54050101D03*
X48042040Y53250101D03*
X48842040Y53250101D03*
X49642040Y53250101D03*
X50442040Y53250101D03*
X51242040Y53250101D03*
X52042040Y53250101D03*
X52842040Y53250101D03*
X53642040Y53250101D03*
X54442040Y53250101D03*
X55242039Y53250101D03*
X56042039Y53250101D03*
X56842039Y53250101D03*
X57642039Y53250101D03*
X58442039Y53250101D03*
X59242039Y53250101D03*
X60042039Y53250101D03*
X48042040Y52450101D03*
X48842040Y52450101D03*
X49642040Y52450101D03*
X50442040Y52450101D03*
X51242040Y52450101D03*
X52042040Y52450101D03*
X52842040Y52450101D03*
X53642040Y52450101D03*
X54442040Y52450101D03*
X55242039Y52450101D03*
X56042039Y52450101D03*
X56842039Y52450101D03*
X57642039Y52450101D03*
X58442039Y52450101D03*
X59242039Y52450101D03*
X60042039Y52450101D03*
X48042040Y51650101D03*
X48842040Y51650101D03*
X49642040Y51650101D03*
X50442040Y51650101D03*
X51242040Y51650101D03*
X52042040Y51650101D03*
X52842040Y51650101D03*
X53642040Y51650101D03*
X54442040Y51650101D03*
X55242039Y51650101D03*
X56042039Y51650101D03*
X56842039Y51650101D03*
X57642039Y51650101D03*
X58442039Y51650101D03*
X59242039Y51650101D03*
X60042039Y51650101D03*
%TD*%
D14*
%TO.C,C48*%
X36664540Y75640100D03*
X34939540Y75640100D03*
%TD*%
D37*
%TO.C,U11*%
X94542040Y68400100D03*
X93742040Y68400100D03*
X92942040Y68400100D03*
X92142040Y68400100D03*
X91342040Y68400100D03*
X90542040Y68400100D03*
X89742040Y68400100D03*
X88942040Y68400100D03*
X88142040Y68400100D03*
X87342040Y68400100D03*
X86542040Y68400100D03*
X85742040Y68400100D03*
X84942040Y68400100D03*
X84142040Y68400100D03*
X83342040Y68400100D03*
X82542040Y68400100D03*
X81742040Y68400100D03*
X80942040Y68400100D03*
X80142040Y68400100D03*
X79342040Y68400100D03*
X78542040Y68400100D03*
X77742040Y68400100D03*
X76942040Y68400100D03*
X76142040Y68400100D03*
X75342040Y68400100D03*
X74542040Y68400100D03*
X73742040Y68400100D03*
X73742040Y56900100D03*
X74542040Y56900100D03*
X75342040Y56900100D03*
X76142040Y56900100D03*
X76942040Y56900100D03*
X77742040Y56900100D03*
X78542040Y56900100D03*
X79342040Y56900100D03*
X80142040Y56900100D03*
X80942040Y56900100D03*
X81742040Y56900100D03*
X82542040Y56900100D03*
X83342040Y56900100D03*
X84142040Y56900100D03*
X84942040Y56900100D03*
X85742040Y56900100D03*
X86542040Y56900100D03*
X87342040Y56900100D03*
X88142040Y56900100D03*
X88942040Y56900100D03*
X89742040Y56900100D03*
X90542040Y56900100D03*
X91342040Y56900100D03*
X92142040Y56900100D03*
X92942040Y56900100D03*
X93742040Y56900100D03*
X94542040Y56900100D03*
%TD*%
D38*
%TO.C,CN1*%
X92597040Y76000100D03*
X92597040Y76800100D03*
D39*
X92597040Y78000100D03*
X92597040Y79000100D03*
X92597040Y79500100D03*
X92597040Y80500100D03*
D38*
X92597040Y81700100D03*
X92597040Y82500100D03*
X92597040Y82500100D03*
X92597040Y81700100D03*
D39*
X92597040Y81000100D03*
X92597040Y80000100D03*
X92597040Y78500100D03*
X92597040Y77500100D03*
D38*
X92597040Y76800100D03*
X92597040Y76000100D03*
D40*
X93512040Y74930100D03*
D41*
X97692040Y74930100D03*
D40*
X93512040Y83570100D03*
D41*
X97692040Y83570100D03*
%TD*%
D35*
%TO.C,R35*%
X84982040Y37830100D03*
X84982040Y39655100D03*
%TD*%
D17*
%TO.C,C23*%
X79432040Y80600100D03*
X81157040Y80600100D03*
%TD*%
D42*
%TO.C,TP1*%
X83702040Y79840100D03*
%TD*%
D30*
%TO.C,R7*%
X86432040Y73220100D03*
X86432040Y71395100D03*
%TD*%
D31*
%TO.C,R6*%
X88642040Y79750100D03*
X86817040Y79750100D03*
%TD*%
D42*
%TO.C,TP4*%
X97082040Y71490100D03*
%TD*%
D34*
%TO.C,TP9*%
X53372040Y46470100D03*
%TD*%
D31*
%TO.C,R5*%
X88642040Y78250100D03*
X86817040Y78250100D03*
%TD*%
D14*
%TO.C,C39*%
X94637040Y71230100D03*
X92912040Y71230100D03*
%TD*%
D43*
%TO.C,L2*%
X87332040Y48640100D03*
X85182040Y48640100D03*
%TD*%
D34*
%TO.C,TP10*%
X72822040Y52410100D03*
%TD*%
D44*
%TO.C,U14*%
X92041791Y44150099D03*
X92041791Y45100100D03*
X92041791Y46050101D03*
X89342289Y46050101D03*
X89342289Y44150099D03*
%TD*%
D16*
%TO.C,C43*%
X85072040Y45932600D03*
X85072040Y44207600D03*
%TD*%
D31*
%TO.C,R22*%
X79752040Y45150100D03*
X77927040Y45150100D03*
%TD*%
D14*
%TO.C,C6*%
X96632040Y52640100D03*
X94907040Y52640100D03*
%TD*%
%TO.C,C34*%
X23362040Y73230100D03*
X21637040Y73230100D03*
%TD*%
D35*
%TO.C,R17*%
X79612040Y50155100D03*
X79612040Y51980100D03*
%TD*%
D17*
%TO.C,C33*%
X88732040Y71140100D03*
X90457040Y71140100D03*
%TD*%
D37*
%TO.C,U12*%
X14892040Y58213100D03*
X15692040Y58213100D03*
X16492040Y58213100D03*
X17292040Y58213100D03*
X18092040Y58213100D03*
X18892040Y58213100D03*
X19692040Y58213100D03*
X20492040Y58213100D03*
X21292040Y58213100D03*
X22092040Y58213100D03*
X22892040Y58213100D03*
X23692040Y58213100D03*
X24492040Y58213100D03*
X25292040Y58213100D03*
X26092040Y58213100D03*
X26892040Y58213100D03*
X27692040Y58213100D03*
X28492040Y58213100D03*
X29292040Y58213100D03*
X30092040Y58213100D03*
X30892040Y58213100D03*
X31692040Y58213100D03*
X32492040Y58213100D03*
X33292040Y58213100D03*
X34092040Y58213100D03*
X34892040Y58213100D03*
X35692040Y58213100D03*
X35692040Y69713100D03*
X34892040Y69713100D03*
X34092040Y69713100D03*
X33292040Y69713100D03*
X32492040Y69713100D03*
X31692040Y69713100D03*
X30892040Y69713100D03*
X30092040Y69713100D03*
X29292040Y69713100D03*
X28492040Y69713100D03*
X27692040Y69713100D03*
X26892040Y69713100D03*
X26092040Y69713100D03*
X25292040Y69713100D03*
X24492040Y69713100D03*
X23692040Y69713100D03*
X22892040Y69713100D03*
X22092040Y69713100D03*
X21292040Y69713100D03*
X20492040Y69713100D03*
X19692040Y69713100D03*
X18892040Y69713100D03*
X18092040Y69713100D03*
X17292040Y69713100D03*
X16492040Y69713100D03*
X15692040Y69713100D03*
X14892040Y69713100D03*
%TD*%
D31*
%TO.C,R20*%
X76562040Y48710100D03*
X74737040Y48710100D03*
%TD*%
D17*
%TO.C,C21*%
X86877040Y75040100D03*
X88602040Y75040100D03*
%TD*%
%TO.C,C20*%
X82362040Y82610100D03*
X84087040Y82610100D03*
%TD*%
D45*
%TO.C,CN4*%
X56817040Y72850100D03*
X59317040Y72850100D03*
X61817040Y72850100D03*
X64317040Y72850100D03*
X66817040Y72850100D03*
X69317040Y72850100D03*
X71742040Y72850100D03*
X73442040Y72850100D03*
X54317040Y72850100D03*
D46*
X74742040Y72850100D03*
D47*
X77342040Y74650100D03*
X52242040Y74650100D03*
X50042040Y89150100D03*
X77342040Y89150100D03*
D46*
X75942040Y72850100D03*
%TD*%
D42*
%TO.C,TP2*%
X90152040Y31710100D03*
%TD*%
D34*
%TO.C,TP11*%
X57482040Y47860100D03*
%TD*%
D31*
%TO.C,R4*%
X88647040Y81370100D03*
X86822040Y81370100D03*
%TD*%
D34*
%TO.C,TP12*%
X75122040Y52410100D03*
%TD*%
D30*
%TO.C,R13*%
X81512040Y45980100D03*
X81512040Y44155100D03*
%TD*%
D32*
%TO.C,R36*%
X85062040Y41410100D03*
X86887040Y41410100D03*
%TD*%
D17*
%TO.C,C37*%
X90567040Y53830100D03*
X92292040Y53830100D03*
%TD*%
D42*
%TO.C,TP7*%
X81522040Y48310100D03*
%TD*%
D17*
%TO.C,C40*%
X16759540Y54890100D03*
X18484540Y54890100D03*
%TD*%
D14*
%TO.C,C36*%
X18564540Y73230100D03*
X16839540Y73230100D03*
%TD*%
D42*
%TO.C,TP3*%
X87452040Y37810100D03*
%TD*%
D48*
%TO.C,D4*%
X75002040Y46990100D03*
X76577040Y46990100D03*
%TD*%
D14*
%TO.C,C38*%
X25284540Y54890100D03*
X23559540Y54890100D03*
%TD*%
%TO.C,C35*%
X85767040Y53860100D03*
X84042040Y53860100D03*
%TD*%
G36*
X87934161Y22199918D02*
G01*
X87980654Y22146262D01*
X87992040Y22093920D01*
X87992040Y14096000D01*
X87972038Y14027879D01*
X87918382Y13981386D01*
X87866040Y13970000D01*
X56125380Y13970000D01*
X56057259Y13990002D01*
X56010766Y14043658D01*
X55999380Y14096000D01*
X55999380Y22093920D01*
X56019382Y22162041D01*
X56073038Y22208534D01*
X56125380Y22219920D01*
X87866040Y22219920D01*
X87934161Y22199918D01*
G37*
G36*
X49934161Y22199918D02*
G01*
X49980654Y22146262D01*
X49992040Y22093920D01*
X49992040Y14096000D01*
X49972038Y14027879D01*
X49918382Y13981386D01*
X49866040Y13970000D01*
X13125720Y13970000D01*
X13057599Y13990002D01*
X13011106Y14043658D01*
X12999720Y14096000D01*
X12999720Y22093920D01*
X13019722Y22162041D01*
X13073378Y22208534D01*
X13125720Y22219920D01*
X49866040Y22219920D01*
X49934161Y22199918D01*
G37*
M02*
