%TF.GenerationSoftware,KiCad,Pcbnew,7.0.7*%
%TF.CreationDate,2023-09-18T11:19:49+03:00*%
%TF.ProjectId,wasca,77617363-612e-46b6-9963-61645f706362,1.6*%
%TF.SameCoordinates,Original*%
%TF.FileFunction,Legend,Bot*%
%TF.FilePolarity,Positive*%
%FSLAX46Y46*%
G04 Gerber Fmt 4.6, Leading zero omitted, Abs format (unit mm)*
G04 Created by KiCad (PCBNEW 7.0.7) date 2023-09-18 11:19:49*
%MOMM*%
%LPD*%
G01*
G04 APERTURE LIST*
G04 Aperture macros list*
%AMRoundRect*
0 Rectangle with rounded corners*
0 $1 Rounding radius*
0 $2 $3 $4 $5 $6 $7 $8 $9 X,Y pos of 4 corners*
0 Add a 4 corners polygon primitive as box body*
4,1,4,$2,$3,$4,$5,$6,$7,$8,$9,$2,$3,0*
0 Add four circle primitives for the rounded corners*
1,1,$1+$1,$2,$3*
1,1,$1+$1,$4,$5*
1,1,$1+$1,$6,$7*
1,1,$1+$1,$8,$9*
0 Add four rect primitives between the rounded corners*
20,1,$1+$1,$2,$3,$4,$5,0*
20,1,$1+$1,$4,$5,$6,$7,0*
20,1,$1+$1,$6,$7,$8,$9,0*
20,1,$1+$1,$8,$9,$2,$3,0*%
G04 Aperture macros list end*
%ADD10C,0.150000*%
%ADD11C,0.120000*%
%ADD12C,0.010000*%
%ADD13C,0.127000*%
%ADD14C,0.200000*%
%ADD15R,0.701040X7.000240*%
%ADD16R,0.701040X5.999480*%
%ADD17C,0.500000*%
%ADD18R,1.700000X1.700000*%
%ADD19O,1.700000X1.700000*%
%ADD20R,1.070000X1.800000*%
%ADD21O,1.070000X1.800000*%
%ADD22R,1.560000X1.560000*%
%ADD23C,1.560000*%
%ADD24C,1.100000*%
%ADD25C,1.600000*%
%ADD26RoundRect,0.237500X0.300000X0.237500X-0.300000X0.237500X-0.300000X-0.237500X0.300000X-0.237500X0*%
%ADD27RoundRect,0.237500X0.237500X-0.250000X0.237500X0.250000X-0.237500X0.250000X-0.237500X-0.250000X0*%
%ADD28RoundRect,0.237500X0.237500X-0.300000X0.237500X0.300000X-0.237500X0.300000X-0.237500X-0.300000X0*%
%ADD29RoundRect,0.150000X-0.150000X0.512500X-0.150000X-0.512500X0.150000X-0.512500X0.150000X0.512500X0*%
%ADD30RoundRect,0.237500X-0.300000X-0.237500X0.300000X-0.237500X0.300000X0.237500X-0.300000X0.237500X0*%
%ADD31RoundRect,0.075000X0.075000X-0.662500X0.075000X0.662500X-0.075000X0.662500X-0.075000X-0.662500X0*%
%ADD32R,4.500000X4.600000*%
%ADD33R,0.350000X2.000000*%
%ADD34C,0.614000*%
G04 APERTURE END LIST*
D10*
X63717857Y-130179580D02*
X63765476Y-130227200D01*
X63765476Y-130227200D02*
X63908333Y-130274819D01*
X63908333Y-130274819D02*
X64003571Y-130274819D01*
X64003571Y-130274819D02*
X64146428Y-130227200D01*
X64146428Y-130227200D02*
X64241666Y-130131961D01*
X64241666Y-130131961D02*
X64289285Y-130036723D01*
X64289285Y-130036723D02*
X64336904Y-129846247D01*
X64336904Y-129846247D02*
X64336904Y-129703390D01*
X64336904Y-129703390D02*
X64289285Y-129512914D01*
X64289285Y-129512914D02*
X64241666Y-129417676D01*
X64241666Y-129417676D02*
X64146428Y-129322438D01*
X64146428Y-129322438D02*
X64003571Y-129274819D01*
X64003571Y-129274819D02*
X63908333Y-129274819D01*
X63908333Y-129274819D02*
X63765476Y-129322438D01*
X63765476Y-129322438D02*
X63717857Y-129370057D01*
X63336904Y-129370057D02*
X63289285Y-129322438D01*
X63289285Y-129322438D02*
X63194047Y-129274819D01*
X63194047Y-129274819D02*
X62955952Y-129274819D01*
X62955952Y-129274819D02*
X62860714Y-129322438D01*
X62860714Y-129322438D02*
X62813095Y-129370057D01*
X62813095Y-129370057D02*
X62765476Y-129465295D01*
X62765476Y-129465295D02*
X62765476Y-129560533D01*
X62765476Y-129560533D02*
X62813095Y-129703390D01*
X62813095Y-129703390D02*
X63384523Y-130274819D01*
X63384523Y-130274819D02*
X62765476Y-130274819D01*
X62384523Y-129370057D02*
X62336904Y-129322438D01*
X62336904Y-129322438D02*
X62241666Y-129274819D01*
X62241666Y-129274819D02*
X62003571Y-129274819D01*
X62003571Y-129274819D02*
X61908333Y-129322438D01*
X61908333Y-129322438D02*
X61860714Y-129370057D01*
X61860714Y-129370057D02*
X61813095Y-129465295D01*
X61813095Y-129465295D02*
X61813095Y-129560533D01*
X61813095Y-129560533D02*
X61860714Y-129703390D01*
X61860714Y-129703390D02*
X62432142Y-130274819D01*
X62432142Y-130274819D02*
X61813095Y-130274819D01*
X67429819Y-92144641D02*
X66953628Y-91811308D01*
X67429819Y-91573213D02*
X66429819Y-91573213D01*
X66429819Y-91573213D02*
X66429819Y-91954165D01*
X66429819Y-91954165D02*
X66477438Y-92049403D01*
X66477438Y-92049403D02*
X66525057Y-92097022D01*
X66525057Y-92097022D02*
X66620295Y-92144641D01*
X66620295Y-92144641D02*
X66763152Y-92144641D01*
X66763152Y-92144641D02*
X66858390Y-92097022D01*
X66858390Y-92097022D02*
X66906009Y-92049403D01*
X66906009Y-92049403D02*
X66953628Y-91954165D01*
X66953628Y-91954165D02*
X66953628Y-91573213D01*
X67429819Y-93097022D02*
X67429819Y-92525594D01*
X67429819Y-92811308D02*
X66429819Y-92811308D01*
X66429819Y-92811308D02*
X66572676Y-92716070D01*
X66572676Y-92716070D02*
X66667914Y-92620832D01*
X66667914Y-92620832D02*
X66715533Y-92525594D01*
X67429819Y-94049403D02*
X67429819Y-93477975D01*
X67429819Y-93763689D02*
X66429819Y-93763689D01*
X66429819Y-93763689D02*
X66572676Y-93668451D01*
X66572676Y-93668451D02*
X66667914Y-93573213D01*
X66667914Y-93573213D02*
X66715533Y-93477975D01*
X75016666Y-136029580D02*
X75064285Y-136077200D01*
X75064285Y-136077200D02*
X75207142Y-136124819D01*
X75207142Y-136124819D02*
X75302380Y-136124819D01*
X75302380Y-136124819D02*
X75445237Y-136077200D01*
X75445237Y-136077200D02*
X75540475Y-135981961D01*
X75540475Y-135981961D02*
X75588094Y-135886723D01*
X75588094Y-135886723D02*
X75635713Y-135696247D01*
X75635713Y-135696247D02*
X75635713Y-135553390D01*
X75635713Y-135553390D02*
X75588094Y-135362914D01*
X75588094Y-135362914D02*
X75540475Y-135267676D01*
X75540475Y-135267676D02*
X75445237Y-135172438D01*
X75445237Y-135172438D02*
X75302380Y-135124819D01*
X75302380Y-135124819D02*
X75207142Y-135124819D01*
X75207142Y-135124819D02*
X75064285Y-135172438D01*
X75064285Y-135172438D02*
X75016666Y-135220057D01*
X74635713Y-135220057D02*
X74588094Y-135172438D01*
X74588094Y-135172438D02*
X74492856Y-135124819D01*
X74492856Y-135124819D02*
X74254761Y-135124819D01*
X74254761Y-135124819D02*
X74159523Y-135172438D01*
X74159523Y-135172438D02*
X74111904Y-135220057D01*
X74111904Y-135220057D02*
X74064285Y-135315295D01*
X74064285Y-135315295D02*
X74064285Y-135410533D01*
X74064285Y-135410533D02*
X74111904Y-135553390D01*
X74111904Y-135553390D02*
X74683332Y-136124819D01*
X74683332Y-136124819D02*
X74064285Y-136124819D01*
X94389580Y-134308333D02*
X94437200Y-134260714D01*
X94437200Y-134260714D02*
X94484819Y-134117857D01*
X94484819Y-134117857D02*
X94484819Y-134022619D01*
X94484819Y-134022619D02*
X94437200Y-133879762D01*
X94437200Y-133879762D02*
X94341961Y-133784524D01*
X94341961Y-133784524D02*
X94246723Y-133736905D01*
X94246723Y-133736905D02*
X94056247Y-133689286D01*
X94056247Y-133689286D02*
X93913390Y-133689286D01*
X93913390Y-133689286D02*
X93722914Y-133736905D01*
X93722914Y-133736905D02*
X93627676Y-133784524D01*
X93627676Y-133784524D02*
X93532438Y-133879762D01*
X93532438Y-133879762D02*
X93484819Y-134022619D01*
X93484819Y-134022619D02*
X93484819Y-134117857D01*
X93484819Y-134117857D02*
X93532438Y-134260714D01*
X93532438Y-134260714D02*
X93580057Y-134308333D01*
X94484819Y-135260714D02*
X94484819Y-134689286D01*
X94484819Y-134975000D02*
X93484819Y-134975000D01*
X93484819Y-134975000D02*
X93627676Y-134879762D01*
X93627676Y-134879762D02*
X93722914Y-134784524D01*
X93722914Y-134784524D02*
X93770533Y-134689286D01*
X42754819Y-135588095D02*
X43564342Y-135588095D01*
X43564342Y-135588095D02*
X43659580Y-135635714D01*
X43659580Y-135635714D02*
X43707200Y-135683333D01*
X43707200Y-135683333D02*
X43754819Y-135778571D01*
X43754819Y-135778571D02*
X43754819Y-135969047D01*
X43754819Y-135969047D02*
X43707200Y-136064285D01*
X43707200Y-136064285D02*
X43659580Y-136111904D01*
X43659580Y-136111904D02*
X43564342Y-136159523D01*
X43564342Y-136159523D02*
X42754819Y-136159523D01*
X43754819Y-136683333D02*
X43754819Y-136873809D01*
X43754819Y-136873809D02*
X43707200Y-136969047D01*
X43707200Y-136969047D02*
X43659580Y-137016666D01*
X43659580Y-137016666D02*
X43516723Y-137111904D01*
X43516723Y-137111904D02*
X43326247Y-137159523D01*
X43326247Y-137159523D02*
X42945295Y-137159523D01*
X42945295Y-137159523D02*
X42850057Y-137111904D01*
X42850057Y-137111904D02*
X42802438Y-137064285D01*
X42802438Y-137064285D02*
X42754819Y-136969047D01*
X42754819Y-136969047D02*
X42754819Y-136778571D01*
X42754819Y-136778571D02*
X42802438Y-136683333D01*
X42802438Y-136683333D02*
X42850057Y-136635714D01*
X42850057Y-136635714D02*
X42945295Y-136588095D01*
X42945295Y-136588095D02*
X43183390Y-136588095D01*
X43183390Y-136588095D02*
X43278628Y-136635714D01*
X43278628Y-136635714D02*
X43326247Y-136683333D01*
X43326247Y-136683333D02*
X43373866Y-136778571D01*
X43373866Y-136778571D02*
X43373866Y-136969047D01*
X43373866Y-136969047D02*
X43326247Y-137064285D01*
X43326247Y-137064285D02*
X43278628Y-137111904D01*
X43278628Y-137111904D02*
X43183390Y-137159523D01*
X57129819Y-135311905D02*
X57939342Y-135311905D01*
X57939342Y-135311905D02*
X58034580Y-135359524D01*
X58034580Y-135359524D02*
X58082200Y-135407143D01*
X58082200Y-135407143D02*
X58129819Y-135502381D01*
X58129819Y-135502381D02*
X58129819Y-135692857D01*
X58129819Y-135692857D02*
X58082200Y-135788095D01*
X58082200Y-135788095D02*
X58034580Y-135835714D01*
X58034580Y-135835714D02*
X57939342Y-135883333D01*
X57939342Y-135883333D02*
X57129819Y-135883333D01*
X58129819Y-136883333D02*
X58129819Y-136311905D01*
X58129819Y-136597619D02*
X57129819Y-136597619D01*
X57129819Y-136597619D02*
X57272676Y-136502381D01*
X57272676Y-136502381D02*
X57367914Y-136407143D01*
X57367914Y-136407143D02*
X57415533Y-136311905D01*
X57225057Y-137264286D02*
X57177438Y-137311905D01*
X57177438Y-137311905D02*
X57129819Y-137407143D01*
X57129819Y-137407143D02*
X57129819Y-137645238D01*
X57129819Y-137645238D02*
X57177438Y-137740476D01*
X57177438Y-137740476D02*
X57225057Y-137788095D01*
X57225057Y-137788095D02*
X57320295Y-137835714D01*
X57320295Y-137835714D02*
X57415533Y-137835714D01*
X57415533Y-137835714D02*
X57558390Y-137788095D01*
X57558390Y-137788095D02*
X58129819Y-137216667D01*
X58129819Y-137216667D02*
X58129819Y-137835714D01*
X56534580Y-132532142D02*
X56582200Y-132484523D01*
X56582200Y-132484523D02*
X56629819Y-132341666D01*
X56629819Y-132341666D02*
X56629819Y-132246428D01*
X56629819Y-132246428D02*
X56582200Y-132103571D01*
X56582200Y-132103571D02*
X56486961Y-132008333D01*
X56486961Y-132008333D02*
X56391723Y-131960714D01*
X56391723Y-131960714D02*
X56201247Y-131913095D01*
X56201247Y-131913095D02*
X56058390Y-131913095D01*
X56058390Y-131913095D02*
X55867914Y-131960714D01*
X55867914Y-131960714D02*
X55772676Y-132008333D01*
X55772676Y-132008333D02*
X55677438Y-132103571D01*
X55677438Y-132103571D02*
X55629819Y-132246428D01*
X55629819Y-132246428D02*
X55629819Y-132341666D01*
X55629819Y-132341666D02*
X55677438Y-132484523D01*
X55677438Y-132484523D02*
X55725057Y-132532142D01*
X55629819Y-133436904D02*
X55629819Y-132960714D01*
X55629819Y-132960714D02*
X56106009Y-132913095D01*
X56106009Y-132913095D02*
X56058390Y-132960714D01*
X56058390Y-132960714D02*
X56010771Y-133055952D01*
X56010771Y-133055952D02*
X56010771Y-133294047D01*
X56010771Y-133294047D02*
X56058390Y-133389285D01*
X56058390Y-133389285D02*
X56106009Y-133436904D01*
X56106009Y-133436904D02*
X56201247Y-133484523D01*
X56201247Y-133484523D02*
X56439342Y-133484523D01*
X56439342Y-133484523D02*
X56534580Y-133436904D01*
X56534580Y-133436904D02*
X56582200Y-133389285D01*
X56582200Y-133389285D02*
X56629819Y-133294047D01*
X56629819Y-133294047D02*
X56629819Y-133055952D01*
X56629819Y-133055952D02*
X56582200Y-132960714D01*
X56582200Y-132960714D02*
X56534580Y-132913095D01*
X55629819Y-134103571D02*
X55629819Y-134198809D01*
X55629819Y-134198809D02*
X55677438Y-134294047D01*
X55677438Y-134294047D02*
X55725057Y-134341666D01*
X55725057Y-134341666D02*
X55820295Y-134389285D01*
X55820295Y-134389285D02*
X56010771Y-134436904D01*
X56010771Y-134436904D02*
X56248866Y-134436904D01*
X56248866Y-134436904D02*
X56439342Y-134389285D01*
X56439342Y-134389285D02*
X56534580Y-134341666D01*
X56534580Y-134341666D02*
X56582200Y-134294047D01*
X56582200Y-134294047D02*
X56629819Y-134198809D01*
X56629819Y-134198809D02*
X56629819Y-134103571D01*
X56629819Y-134103571D02*
X56582200Y-134008333D01*
X56582200Y-134008333D02*
X56534580Y-133960714D01*
X56534580Y-133960714D02*
X56439342Y-133913095D01*
X56439342Y-133913095D02*
X56248866Y-133865476D01*
X56248866Y-133865476D02*
X56010771Y-133865476D01*
X56010771Y-133865476D02*
X55820295Y-133913095D01*
X55820295Y-133913095D02*
X55725057Y-133960714D01*
X55725057Y-133960714D02*
X55677438Y-134008333D01*
X55677438Y-134008333D02*
X55629819Y-134103571D01*
X49859580Y-129532142D02*
X49907200Y-129484523D01*
X49907200Y-129484523D02*
X49954819Y-129341666D01*
X49954819Y-129341666D02*
X49954819Y-129246428D01*
X49954819Y-129246428D02*
X49907200Y-129103571D01*
X49907200Y-129103571D02*
X49811961Y-129008333D01*
X49811961Y-129008333D02*
X49716723Y-128960714D01*
X49716723Y-128960714D02*
X49526247Y-128913095D01*
X49526247Y-128913095D02*
X49383390Y-128913095D01*
X49383390Y-128913095D02*
X49192914Y-128960714D01*
X49192914Y-128960714D02*
X49097676Y-129008333D01*
X49097676Y-129008333D02*
X49002438Y-129103571D01*
X49002438Y-129103571D02*
X48954819Y-129246428D01*
X48954819Y-129246428D02*
X48954819Y-129341666D01*
X48954819Y-129341666D02*
X49002438Y-129484523D01*
X49002438Y-129484523D02*
X49050057Y-129532142D01*
X49288152Y-130389285D02*
X49954819Y-130389285D01*
X48907200Y-130151190D02*
X49621485Y-129913095D01*
X49621485Y-129913095D02*
X49621485Y-130532142D01*
X48954819Y-131341666D02*
X48954819Y-131151190D01*
X48954819Y-131151190D02*
X49002438Y-131055952D01*
X49002438Y-131055952D02*
X49050057Y-131008333D01*
X49050057Y-131008333D02*
X49192914Y-130913095D01*
X49192914Y-130913095D02*
X49383390Y-130865476D01*
X49383390Y-130865476D02*
X49764342Y-130865476D01*
X49764342Y-130865476D02*
X49859580Y-130913095D01*
X49859580Y-130913095D02*
X49907200Y-130960714D01*
X49907200Y-130960714D02*
X49954819Y-131055952D01*
X49954819Y-131055952D02*
X49954819Y-131246428D01*
X49954819Y-131246428D02*
X49907200Y-131341666D01*
X49907200Y-131341666D02*
X49859580Y-131389285D01*
X49859580Y-131389285D02*
X49764342Y-131436904D01*
X49764342Y-131436904D02*
X49526247Y-131436904D01*
X49526247Y-131436904D02*
X49431009Y-131389285D01*
X49431009Y-131389285D02*
X49383390Y-131341666D01*
X49383390Y-131341666D02*
X49335771Y-131246428D01*
X49335771Y-131246428D02*
X49335771Y-131055952D01*
X49335771Y-131055952D02*
X49383390Y-130960714D01*
X49383390Y-130960714D02*
X49431009Y-130913095D01*
X49431009Y-130913095D02*
X49526247Y-130865476D01*
X45234580Y-129257142D02*
X45282200Y-129209523D01*
X45282200Y-129209523D02*
X45329819Y-129066666D01*
X45329819Y-129066666D02*
X45329819Y-128971428D01*
X45329819Y-128971428D02*
X45282200Y-128828571D01*
X45282200Y-128828571D02*
X45186961Y-128733333D01*
X45186961Y-128733333D02*
X45091723Y-128685714D01*
X45091723Y-128685714D02*
X44901247Y-128638095D01*
X44901247Y-128638095D02*
X44758390Y-128638095D01*
X44758390Y-128638095D02*
X44567914Y-128685714D01*
X44567914Y-128685714D02*
X44472676Y-128733333D01*
X44472676Y-128733333D02*
X44377438Y-128828571D01*
X44377438Y-128828571D02*
X44329819Y-128971428D01*
X44329819Y-128971428D02*
X44329819Y-129066666D01*
X44329819Y-129066666D02*
X44377438Y-129209523D01*
X44377438Y-129209523D02*
X44425057Y-129257142D01*
X44663152Y-130114285D02*
X45329819Y-130114285D01*
X44282200Y-129876190D02*
X44996485Y-129638095D01*
X44996485Y-129638095D02*
X44996485Y-130257142D01*
X44663152Y-131066666D02*
X45329819Y-131066666D01*
X44282200Y-130828571D02*
X44996485Y-130590476D01*
X44996485Y-130590476D02*
X44996485Y-131209523D01*
X48692857Y-142484580D02*
X48740476Y-142532200D01*
X48740476Y-142532200D02*
X48883333Y-142579819D01*
X48883333Y-142579819D02*
X48978571Y-142579819D01*
X48978571Y-142579819D02*
X49121428Y-142532200D01*
X49121428Y-142532200D02*
X49216666Y-142436961D01*
X49216666Y-142436961D02*
X49264285Y-142341723D01*
X49264285Y-142341723D02*
X49311904Y-142151247D01*
X49311904Y-142151247D02*
X49311904Y-142008390D01*
X49311904Y-142008390D02*
X49264285Y-141817914D01*
X49264285Y-141817914D02*
X49216666Y-141722676D01*
X49216666Y-141722676D02*
X49121428Y-141627438D01*
X49121428Y-141627438D02*
X48978571Y-141579819D01*
X48978571Y-141579819D02*
X48883333Y-141579819D01*
X48883333Y-141579819D02*
X48740476Y-141627438D01*
X48740476Y-141627438D02*
X48692857Y-141675057D01*
X47788095Y-141579819D02*
X48264285Y-141579819D01*
X48264285Y-141579819D02*
X48311904Y-142056009D01*
X48311904Y-142056009D02*
X48264285Y-142008390D01*
X48264285Y-142008390D02*
X48169047Y-141960771D01*
X48169047Y-141960771D02*
X47930952Y-141960771D01*
X47930952Y-141960771D02*
X47835714Y-142008390D01*
X47835714Y-142008390D02*
X47788095Y-142056009D01*
X47788095Y-142056009D02*
X47740476Y-142151247D01*
X47740476Y-142151247D02*
X47740476Y-142389342D01*
X47740476Y-142389342D02*
X47788095Y-142484580D01*
X47788095Y-142484580D02*
X47835714Y-142532200D01*
X47835714Y-142532200D02*
X47930952Y-142579819D01*
X47930952Y-142579819D02*
X48169047Y-142579819D01*
X48169047Y-142579819D02*
X48264285Y-142532200D01*
X48264285Y-142532200D02*
X48311904Y-142484580D01*
X46788095Y-142579819D02*
X47359523Y-142579819D01*
X47073809Y-142579819D02*
X47073809Y-141579819D01*
X47073809Y-141579819D02*
X47169047Y-141722676D01*
X47169047Y-141722676D02*
X47264285Y-141817914D01*
X47264285Y-141817914D02*
X47359523Y-141865533D01*
X53092857Y-142309580D02*
X53140476Y-142357200D01*
X53140476Y-142357200D02*
X53283333Y-142404819D01*
X53283333Y-142404819D02*
X53378571Y-142404819D01*
X53378571Y-142404819D02*
X53521428Y-142357200D01*
X53521428Y-142357200D02*
X53616666Y-142261961D01*
X53616666Y-142261961D02*
X53664285Y-142166723D01*
X53664285Y-142166723D02*
X53711904Y-141976247D01*
X53711904Y-141976247D02*
X53711904Y-141833390D01*
X53711904Y-141833390D02*
X53664285Y-141642914D01*
X53664285Y-141642914D02*
X53616666Y-141547676D01*
X53616666Y-141547676D02*
X53521428Y-141452438D01*
X53521428Y-141452438D02*
X53378571Y-141404819D01*
X53378571Y-141404819D02*
X53283333Y-141404819D01*
X53283333Y-141404819D02*
X53140476Y-141452438D01*
X53140476Y-141452438D02*
X53092857Y-141500057D01*
X52235714Y-141738152D02*
X52235714Y-142404819D01*
X52473809Y-141357200D02*
X52711904Y-142071485D01*
X52711904Y-142071485D02*
X52092857Y-142071485D01*
X51807142Y-141404819D02*
X51140476Y-141404819D01*
X51140476Y-141404819D02*
X51569047Y-142404819D01*
X39942857Y-141084580D02*
X39990476Y-141132200D01*
X39990476Y-141132200D02*
X40133333Y-141179819D01*
X40133333Y-141179819D02*
X40228571Y-141179819D01*
X40228571Y-141179819D02*
X40371428Y-141132200D01*
X40371428Y-141132200D02*
X40466666Y-141036961D01*
X40466666Y-141036961D02*
X40514285Y-140941723D01*
X40514285Y-140941723D02*
X40561904Y-140751247D01*
X40561904Y-140751247D02*
X40561904Y-140608390D01*
X40561904Y-140608390D02*
X40514285Y-140417914D01*
X40514285Y-140417914D02*
X40466666Y-140322676D01*
X40466666Y-140322676D02*
X40371428Y-140227438D01*
X40371428Y-140227438D02*
X40228571Y-140179819D01*
X40228571Y-140179819D02*
X40133333Y-140179819D01*
X40133333Y-140179819D02*
X39990476Y-140227438D01*
X39990476Y-140227438D02*
X39942857Y-140275057D01*
X39085714Y-140513152D02*
X39085714Y-141179819D01*
X39323809Y-140132200D02*
X39561904Y-140846485D01*
X39561904Y-140846485D02*
X38942857Y-140846485D01*
X38085714Y-140179819D02*
X38561904Y-140179819D01*
X38561904Y-140179819D02*
X38609523Y-140656009D01*
X38609523Y-140656009D02*
X38561904Y-140608390D01*
X38561904Y-140608390D02*
X38466666Y-140560771D01*
X38466666Y-140560771D02*
X38228571Y-140560771D01*
X38228571Y-140560771D02*
X38133333Y-140608390D01*
X38133333Y-140608390D02*
X38085714Y-140656009D01*
X38085714Y-140656009D02*
X38038095Y-140751247D01*
X38038095Y-140751247D02*
X38038095Y-140989342D01*
X38038095Y-140989342D02*
X38085714Y-141084580D01*
X38085714Y-141084580D02*
X38133333Y-141132200D01*
X38133333Y-141132200D02*
X38228571Y-141179819D01*
X38228571Y-141179819D02*
X38466666Y-141179819D01*
X38466666Y-141179819D02*
X38561904Y-141132200D01*
X38561904Y-141132200D02*
X38609523Y-141084580D01*
X50904819Y-131661905D02*
X51714342Y-131661905D01*
X51714342Y-131661905D02*
X51809580Y-131709524D01*
X51809580Y-131709524D02*
X51857200Y-131757143D01*
X51857200Y-131757143D02*
X51904819Y-131852381D01*
X51904819Y-131852381D02*
X51904819Y-132042857D01*
X51904819Y-132042857D02*
X51857200Y-132138095D01*
X51857200Y-132138095D02*
X51809580Y-132185714D01*
X51809580Y-132185714D02*
X51714342Y-132233333D01*
X51714342Y-132233333D02*
X50904819Y-132233333D01*
X51904819Y-133233333D02*
X51904819Y-132661905D01*
X51904819Y-132947619D02*
X50904819Y-132947619D01*
X50904819Y-132947619D02*
X51047676Y-132852381D01*
X51047676Y-132852381D02*
X51142914Y-132757143D01*
X51142914Y-132757143D02*
X51190533Y-132661905D01*
X50904819Y-133852381D02*
X50904819Y-133947619D01*
X50904819Y-133947619D02*
X50952438Y-134042857D01*
X50952438Y-134042857D02*
X51000057Y-134090476D01*
X51000057Y-134090476D02*
X51095295Y-134138095D01*
X51095295Y-134138095D02*
X51285771Y-134185714D01*
X51285771Y-134185714D02*
X51523866Y-134185714D01*
X51523866Y-134185714D02*
X51714342Y-134138095D01*
X51714342Y-134138095D02*
X51809580Y-134090476D01*
X51809580Y-134090476D02*
X51857200Y-134042857D01*
X51857200Y-134042857D02*
X51904819Y-133947619D01*
X51904819Y-133947619D02*
X51904819Y-133852381D01*
X51904819Y-133852381D02*
X51857200Y-133757143D01*
X51857200Y-133757143D02*
X51809580Y-133709524D01*
X51809580Y-133709524D02*
X51714342Y-133661905D01*
X51714342Y-133661905D02*
X51523866Y-133614286D01*
X51523866Y-133614286D02*
X51285771Y-133614286D01*
X51285771Y-133614286D02*
X51095295Y-133661905D01*
X51095295Y-133661905D02*
X51000057Y-133709524D01*
X51000057Y-133709524D02*
X50952438Y-133757143D01*
X50952438Y-133757143D02*
X50904819Y-133852381D01*
X69967857Y-132914580D02*
X70015476Y-132962200D01*
X70015476Y-132962200D02*
X70158333Y-133009819D01*
X70158333Y-133009819D02*
X70253571Y-133009819D01*
X70253571Y-133009819D02*
X70396428Y-132962200D01*
X70396428Y-132962200D02*
X70491666Y-132866961D01*
X70491666Y-132866961D02*
X70539285Y-132771723D01*
X70539285Y-132771723D02*
X70586904Y-132581247D01*
X70586904Y-132581247D02*
X70586904Y-132438390D01*
X70586904Y-132438390D02*
X70539285Y-132247914D01*
X70539285Y-132247914D02*
X70491666Y-132152676D01*
X70491666Y-132152676D02*
X70396428Y-132057438D01*
X70396428Y-132057438D02*
X70253571Y-132009819D01*
X70253571Y-132009819D02*
X70158333Y-132009819D01*
X70158333Y-132009819D02*
X70015476Y-132057438D01*
X70015476Y-132057438D02*
X69967857Y-132105057D01*
X69586904Y-132105057D02*
X69539285Y-132057438D01*
X69539285Y-132057438D02*
X69444047Y-132009819D01*
X69444047Y-132009819D02*
X69205952Y-132009819D01*
X69205952Y-132009819D02*
X69110714Y-132057438D01*
X69110714Y-132057438D02*
X69063095Y-132105057D01*
X69063095Y-132105057D02*
X69015476Y-132200295D01*
X69015476Y-132200295D02*
X69015476Y-132295533D01*
X69015476Y-132295533D02*
X69063095Y-132438390D01*
X69063095Y-132438390D02*
X69634523Y-133009819D01*
X69634523Y-133009819D02*
X69015476Y-133009819D01*
X68063095Y-133009819D02*
X68634523Y-133009819D01*
X68348809Y-133009819D02*
X68348809Y-132009819D01*
X68348809Y-132009819D02*
X68444047Y-132152676D01*
X68444047Y-132152676D02*
X68539285Y-132247914D01*
X68539285Y-132247914D02*
X68634523Y-132295533D01*
X69404819Y-92269641D02*
X68928628Y-91936308D01*
X69404819Y-91698213D02*
X68404819Y-91698213D01*
X68404819Y-91698213D02*
X68404819Y-92079165D01*
X68404819Y-92079165D02*
X68452438Y-92174403D01*
X68452438Y-92174403D02*
X68500057Y-92222022D01*
X68500057Y-92222022D02*
X68595295Y-92269641D01*
X68595295Y-92269641D02*
X68738152Y-92269641D01*
X68738152Y-92269641D02*
X68833390Y-92222022D01*
X68833390Y-92222022D02*
X68881009Y-92174403D01*
X68881009Y-92174403D02*
X68928628Y-92079165D01*
X68928628Y-92079165D02*
X68928628Y-91698213D01*
X69404819Y-93222022D02*
X69404819Y-92650594D01*
X69404819Y-92936308D02*
X68404819Y-92936308D01*
X68404819Y-92936308D02*
X68547676Y-92841070D01*
X68547676Y-92841070D02*
X68642914Y-92745832D01*
X68642914Y-92745832D02*
X68690533Y-92650594D01*
X68404819Y-93841070D02*
X68404819Y-93936308D01*
X68404819Y-93936308D02*
X68452438Y-94031546D01*
X68452438Y-94031546D02*
X68500057Y-94079165D01*
X68500057Y-94079165D02*
X68595295Y-94126784D01*
X68595295Y-94126784D02*
X68785771Y-94174403D01*
X68785771Y-94174403D02*
X69023866Y-94174403D01*
X69023866Y-94174403D02*
X69214342Y-94126784D01*
X69214342Y-94126784D02*
X69309580Y-94079165D01*
X69309580Y-94079165D02*
X69357200Y-94031546D01*
X69357200Y-94031546D02*
X69404819Y-93936308D01*
X69404819Y-93936308D02*
X69404819Y-93841070D01*
X69404819Y-93841070D02*
X69357200Y-93745832D01*
X69357200Y-93745832D02*
X69309580Y-93698213D01*
X69309580Y-93698213D02*
X69214342Y-93650594D01*
X69214342Y-93650594D02*
X69023866Y-93602975D01*
X69023866Y-93602975D02*
X68785771Y-93602975D01*
X68785771Y-93602975D02*
X68595295Y-93650594D01*
X68595295Y-93650594D02*
X68500057Y-93698213D01*
X68500057Y-93698213D02*
X68452438Y-93745832D01*
X68452438Y-93745832D02*
X68404819Y-93841070D01*
X93361904Y-138204819D02*
X93361904Y-139014342D01*
X93361904Y-139014342D02*
X93314285Y-139109580D01*
X93314285Y-139109580D02*
X93266666Y-139157200D01*
X93266666Y-139157200D02*
X93171428Y-139204819D01*
X93171428Y-139204819D02*
X92980952Y-139204819D01*
X92980952Y-139204819D02*
X92885714Y-139157200D01*
X92885714Y-139157200D02*
X92838095Y-139109580D01*
X92838095Y-139109580D02*
X92790476Y-139014342D01*
X92790476Y-139014342D02*
X92790476Y-138204819D01*
X91790476Y-139204819D02*
X92361904Y-139204819D01*
X92076190Y-139204819D02*
X92076190Y-138204819D01*
X92076190Y-138204819D02*
X92171428Y-138347676D01*
X92171428Y-138347676D02*
X92266666Y-138442914D01*
X92266666Y-138442914D02*
X92361904Y-138490533D01*
X65454819Y-92144642D02*
X64978628Y-91811309D01*
X65454819Y-91573214D02*
X64454819Y-91573214D01*
X64454819Y-91573214D02*
X64454819Y-91954166D01*
X64454819Y-91954166D02*
X64502438Y-92049404D01*
X64502438Y-92049404D02*
X64550057Y-92097023D01*
X64550057Y-92097023D02*
X64645295Y-92144642D01*
X64645295Y-92144642D02*
X64788152Y-92144642D01*
X64788152Y-92144642D02*
X64883390Y-92097023D01*
X64883390Y-92097023D02*
X64931009Y-92049404D01*
X64931009Y-92049404D02*
X64978628Y-91954166D01*
X64978628Y-91954166D02*
X64978628Y-91573214D01*
X65454819Y-93097023D02*
X65454819Y-92525595D01*
X65454819Y-92811309D02*
X64454819Y-92811309D01*
X64454819Y-92811309D02*
X64597676Y-92716071D01*
X64597676Y-92716071D02*
X64692914Y-92620833D01*
X64692914Y-92620833D02*
X64740533Y-92525595D01*
X65454819Y-93573214D02*
X65454819Y-93763690D01*
X65454819Y-93763690D02*
X65407200Y-93858928D01*
X65407200Y-93858928D02*
X65359580Y-93906547D01*
X65359580Y-93906547D02*
X65216723Y-94001785D01*
X65216723Y-94001785D02*
X65026247Y-94049404D01*
X65026247Y-94049404D02*
X64645295Y-94049404D01*
X64645295Y-94049404D02*
X64550057Y-94001785D01*
X64550057Y-94001785D02*
X64502438Y-93954166D01*
X64502438Y-93954166D02*
X64454819Y-93858928D01*
X64454819Y-93858928D02*
X64454819Y-93668452D01*
X64454819Y-93668452D02*
X64502438Y-93573214D01*
X64502438Y-93573214D02*
X64550057Y-93525595D01*
X64550057Y-93525595D02*
X64645295Y-93477976D01*
X64645295Y-93477976D02*
X64883390Y-93477976D01*
X64883390Y-93477976D02*
X64978628Y-93525595D01*
X64978628Y-93525595D02*
X65026247Y-93573214D01*
X65026247Y-93573214D02*
X65073866Y-93668452D01*
X65073866Y-93668452D02*
X65073866Y-93858928D01*
X65073866Y-93858928D02*
X65026247Y-93954166D01*
X65026247Y-93954166D02*
X64978628Y-94001785D01*
X64978628Y-94001785D02*
X64883390Y-94049404D01*
X53904819Y-99488095D02*
X54714342Y-99488095D01*
X54714342Y-99488095D02*
X54809580Y-99535714D01*
X54809580Y-99535714D02*
X54857200Y-99583333D01*
X54857200Y-99583333D02*
X54904819Y-99678571D01*
X54904819Y-99678571D02*
X54904819Y-99869047D01*
X54904819Y-99869047D02*
X54857200Y-99964285D01*
X54857200Y-99964285D02*
X54809580Y-100011904D01*
X54809580Y-100011904D02*
X54714342Y-100059523D01*
X54714342Y-100059523D02*
X53904819Y-100059523D01*
X53904819Y-100964285D02*
X53904819Y-100773809D01*
X53904819Y-100773809D02*
X53952438Y-100678571D01*
X53952438Y-100678571D02*
X54000057Y-100630952D01*
X54000057Y-100630952D02*
X54142914Y-100535714D01*
X54142914Y-100535714D02*
X54333390Y-100488095D01*
X54333390Y-100488095D02*
X54714342Y-100488095D01*
X54714342Y-100488095D02*
X54809580Y-100535714D01*
X54809580Y-100535714D02*
X54857200Y-100583333D01*
X54857200Y-100583333D02*
X54904819Y-100678571D01*
X54904819Y-100678571D02*
X54904819Y-100869047D01*
X54904819Y-100869047D02*
X54857200Y-100964285D01*
X54857200Y-100964285D02*
X54809580Y-101011904D01*
X54809580Y-101011904D02*
X54714342Y-101059523D01*
X54714342Y-101059523D02*
X54476247Y-101059523D01*
X54476247Y-101059523D02*
X54381009Y-101011904D01*
X54381009Y-101011904D02*
X54333390Y-100964285D01*
X54333390Y-100964285D02*
X54285771Y-100869047D01*
X54285771Y-100869047D02*
X54285771Y-100678571D01*
X54285771Y-100678571D02*
X54333390Y-100583333D01*
X54333390Y-100583333D02*
X54381009Y-100535714D01*
X54381009Y-100535714D02*
X54476247Y-100488095D01*
D11*
%TO.C,C22*%
X63221267Y-131760000D02*
X62928733Y-131760000D01*
X63221267Y-130740000D02*
X62928733Y-130740000D01*
%TO.C,R11*%
X66377500Y-89942224D02*
X66377500Y-89432776D01*
X67422500Y-89942224D02*
X67422500Y-89432776D01*
%TO.C,C2*%
X74996267Y-137610000D02*
X74703733Y-137610000D01*
X74996267Y-136590000D02*
X74703733Y-136590000D01*
%TO.C,C1*%
X92090000Y-134621267D02*
X92090000Y-134328733D01*
X93110000Y-134621267D02*
X93110000Y-134328733D01*
%TO.C,U9*%
X47409500Y-137076000D02*
X47409500Y-136276000D01*
X47409500Y-137076000D02*
X47409500Y-137876000D01*
X44289500Y-137076000D02*
X44289500Y-135276000D01*
X44289500Y-137076000D02*
X44289500Y-137876000D01*
%TO.C,U12*%
X56551000Y-137096500D02*
X56551000Y-136296500D01*
X56551000Y-137096500D02*
X56551000Y-137896500D01*
X53431000Y-137096500D02*
X53431000Y-135296500D01*
X53431000Y-137096500D02*
X53431000Y-137896500D01*
%TO.C,C50*%
X53528500Y-133228267D02*
X53528500Y-132935733D01*
X54548500Y-133228267D02*
X54548500Y-132935733D01*
%TO.C,C46*%
X48956500Y-133482267D02*
X48956500Y-133189733D01*
X49976500Y-133482267D02*
X49976500Y-133189733D01*
%TO.C,C44*%
X44321000Y-133291767D02*
X44321000Y-132999233D01*
X45341000Y-133291767D02*
X45341000Y-132999233D01*
%TO.C,C51*%
X47467768Y-141035500D02*
X47175234Y-141035500D01*
X47467768Y-140015500D02*
X47175234Y-140015500D01*
%TO.C,C47*%
X52357267Y-140908500D02*
X52064733Y-140908500D01*
X52357267Y-139888500D02*
X52064733Y-139888500D01*
%TO.C,C45*%
X43022767Y-140908500D02*
X42730233Y-140908500D01*
X43022767Y-139888500D02*
X42730233Y-139888500D01*
%TO.C,U10*%
X51979000Y-137096500D02*
X51979000Y-136296500D01*
X51979000Y-137096500D02*
X51979000Y-137896500D01*
X48859000Y-137096500D02*
X48859000Y-135296500D01*
X48859000Y-137096500D02*
X48859000Y-137896500D01*
%TO.C,C21*%
X69178733Y-130615000D02*
X69471267Y-130615000D01*
X69178733Y-131635000D02*
X69471267Y-131635000D01*
%TO.C,R10*%
X68327500Y-89842224D02*
X68327500Y-89332776D01*
X69372500Y-89842224D02*
X69372500Y-89332776D01*
%TO.C,CHAMFER_WARN2*%
D12*
X101291334Y-171643000D02*
X100910334Y-171643000D01*
X100910334Y-170334129D01*
X100910185Y-170193098D01*
X100908728Y-169875545D01*
X100905878Y-169588160D01*
X100901841Y-169341843D01*
X100896820Y-169147494D01*
X100891017Y-169016011D01*
X100884638Y-168958295D01*
X100880817Y-168946671D01*
X100888872Y-168912033D01*
X100948106Y-168895534D01*
X101075138Y-168891333D01*
X101291334Y-168891333D01*
X101291334Y-171643000D01*
G36*
X101291334Y-171643000D02*
G01*
X100910334Y-171643000D01*
X100910334Y-170334129D01*
X100910185Y-170193098D01*
X100908728Y-169875545D01*
X100905878Y-169588160D01*
X100901841Y-169341843D01*
X100896820Y-169147494D01*
X100891017Y-169016011D01*
X100884638Y-168958295D01*
X100880817Y-168946671D01*
X100888872Y-168912033D01*
X100948106Y-168895534D01*
X101075138Y-168891333D01*
X101291334Y-168891333D01*
X101291334Y-171643000D01*
G37*
X128863481Y-171225317D02*
X128919031Y-171253647D01*
X129012897Y-171303321D01*
X129057407Y-171329637D01*
X129054318Y-171349902D01*
X129022604Y-171432462D01*
X128964778Y-171562622D01*
X128888073Y-171723557D01*
X128834055Y-171831013D01*
X128758580Y-171971679D01*
X128700321Y-172068705D01*
X128668731Y-172105623D01*
X128619631Y-172097078D01*
X128522414Y-172053824D01*
X128417794Y-171990233D01*
X128334185Y-171924186D01*
X128300000Y-171873565D01*
X128300012Y-171872512D01*
X128320939Y-171794571D01*
X128373739Y-171669215D01*
X128446507Y-171520765D01*
X128527338Y-171373541D01*
X128604327Y-171251864D01*
X128686128Y-171135895D01*
X128863481Y-171225317D01*
G36*
X128863481Y-171225317D02*
G01*
X128919031Y-171253647D01*
X129012897Y-171303321D01*
X129057407Y-171329637D01*
X129054318Y-171349902D01*
X129022604Y-171432462D01*
X128964778Y-171562622D01*
X128888073Y-171723557D01*
X128834055Y-171831013D01*
X128758580Y-171971679D01*
X128700321Y-172068705D01*
X128668731Y-172105623D01*
X128619631Y-172097078D01*
X128522414Y-172053824D01*
X128417794Y-171990233D01*
X128334185Y-171924186D01*
X128300000Y-171873565D01*
X128300012Y-171872512D01*
X128320939Y-171794571D01*
X128373739Y-171669215D01*
X128446507Y-171520765D01*
X128527338Y-171373541D01*
X128604327Y-171251864D01*
X128686128Y-171135895D01*
X128863481Y-171225317D01*
G37*
X126748627Y-171085077D02*
X126753714Y-171096041D01*
X126781269Y-171170971D01*
X126818164Y-171283166D01*
X126848414Y-171372559D01*
X126908705Y-171535455D01*
X126974358Y-171700504D01*
X127022070Y-171820685D01*
X127056105Y-171917957D01*
X127064218Y-171959292D01*
X127049978Y-171966146D01*
X126975109Y-171994574D01*
X126860667Y-172034501D01*
X126795087Y-172055887D01*
X126710423Y-172072946D01*
X126647280Y-172056302D01*
X126592350Y-171994755D01*
X126532325Y-171877104D01*
X126453897Y-171692150D01*
X126452351Y-171688422D01*
X126386382Y-171538670D01*
X126325033Y-171414813D01*
X126281401Y-171343333D01*
X126249587Y-171300765D01*
X126225667Y-171251969D01*
X126225997Y-171250189D01*
X126268506Y-171221452D01*
X126363949Y-171182002D01*
X126486004Y-171140240D01*
X126608350Y-171104566D01*
X126704665Y-171083378D01*
X126748627Y-171085077D01*
G36*
X126748627Y-171085077D02*
G01*
X126753714Y-171096041D01*
X126781269Y-171170971D01*
X126818164Y-171283166D01*
X126848414Y-171372559D01*
X126908705Y-171535455D01*
X126974358Y-171700504D01*
X127022070Y-171820685D01*
X127056105Y-171917957D01*
X127064218Y-171959292D01*
X127049978Y-171966146D01*
X126975109Y-171994574D01*
X126860667Y-172034501D01*
X126795087Y-172055887D01*
X126710423Y-172072946D01*
X126647280Y-172056302D01*
X126592350Y-171994755D01*
X126532325Y-171877104D01*
X126453897Y-171692150D01*
X126452351Y-171688422D01*
X126386382Y-171538670D01*
X126325033Y-171414813D01*
X126281401Y-171343333D01*
X126249587Y-171300765D01*
X126225667Y-171251969D01*
X126225997Y-171250189D01*
X126268506Y-171221452D01*
X126363949Y-171182002D01*
X126486004Y-171140240D01*
X126608350Y-171104566D01*
X126704665Y-171083378D01*
X126748627Y-171085077D01*
G37*
X108361000Y-172489666D02*
X107937667Y-172489666D01*
X107937667Y-172193333D01*
X107006334Y-172193333D01*
X107006334Y-171770000D01*
X107429667Y-171770000D01*
X107937667Y-171770000D01*
X107937667Y-170796333D01*
X107429667Y-170796333D01*
X107429667Y-171770000D01*
X107006334Y-171770000D01*
X107006334Y-170415333D01*
X107472000Y-170415333D01*
X107472000Y-169653333D01*
X106752334Y-169653333D01*
X106752334Y-169230000D01*
X107472000Y-169230000D01*
X107472000Y-168851498D01*
X107471171Y-168775861D01*
X107463168Y-168614879D01*
X107448392Y-168498368D01*
X107428977Y-168446406D01*
X107398463Y-168416407D01*
X107417966Y-168378134D01*
X107503445Y-168351188D01*
X107643832Y-168341000D01*
X107853000Y-168341000D01*
X107853000Y-169230000D01*
X108488000Y-169230000D01*
X108488000Y-169653333D01*
X107853000Y-169653333D01*
X107853000Y-170415333D01*
X108361000Y-170415333D01*
X108361000Y-170796333D01*
X108361000Y-172489666D01*
G36*
X108361000Y-172489666D02*
G01*
X107937667Y-172489666D01*
X107937667Y-172193333D01*
X107006334Y-172193333D01*
X107006334Y-171770000D01*
X107429667Y-171770000D01*
X107937667Y-171770000D01*
X107937667Y-170796333D01*
X107429667Y-170796333D01*
X107429667Y-171770000D01*
X107006334Y-171770000D01*
X107006334Y-170415333D01*
X107472000Y-170415333D01*
X107472000Y-169653333D01*
X106752334Y-169653333D01*
X106752334Y-169230000D01*
X107472000Y-169230000D01*
X107472000Y-168851498D01*
X107471171Y-168775861D01*
X107463168Y-168614879D01*
X107448392Y-168498368D01*
X107428977Y-168446406D01*
X107398463Y-168416407D01*
X107417966Y-168378134D01*
X107503445Y-168351188D01*
X107643832Y-168341000D01*
X107853000Y-168341000D01*
X107853000Y-169230000D01*
X108488000Y-169230000D01*
X108488000Y-169653333D01*
X107853000Y-169653333D01*
X107853000Y-170415333D01*
X108361000Y-170415333D01*
X108361000Y-170796333D01*
X108361000Y-172489666D01*
G37*
X100570813Y-168425666D02*
X100581823Y-170362416D01*
X100592834Y-172299166D01*
X100796007Y-172312154D01*
X100813071Y-172313293D01*
X100927561Y-172326989D01*
X100976713Y-172352131D01*
X100977934Y-172396821D01*
X100957501Y-172471212D01*
X100928922Y-172584916D01*
X100922714Y-172609695D01*
X100900455Y-172661355D01*
X100855733Y-172688706D01*
X100767816Y-172699462D01*
X100615972Y-172701333D01*
X100544142Y-172701622D01*
X100438877Y-172700037D01*
X100355413Y-172688659D01*
X100291135Y-172659173D01*
X100243428Y-172603259D01*
X100209676Y-172512602D01*
X100187264Y-172378883D01*
X100173578Y-172193785D01*
X100166001Y-171948990D01*
X100161920Y-171636182D01*
X100158718Y-171247042D01*
X100155676Y-170901736D01*
X100152028Y-170515189D01*
X100148178Y-170130980D01*
X100144341Y-169769691D01*
X100140727Y-169451903D01*
X100137551Y-169198198D01*
X100127167Y-168425562D01*
X100570813Y-168425666D01*
G36*
X100570813Y-168425666D02*
G01*
X100581823Y-170362416D01*
X100592834Y-172299166D01*
X100796007Y-172312154D01*
X100813071Y-172313293D01*
X100927561Y-172326989D01*
X100976713Y-172352131D01*
X100977934Y-172396821D01*
X100957501Y-172471212D01*
X100928922Y-172584916D01*
X100922714Y-172609695D01*
X100900455Y-172661355D01*
X100855733Y-172688706D01*
X100767816Y-172699462D01*
X100615972Y-172701333D01*
X100544142Y-172701622D01*
X100438877Y-172700037D01*
X100355413Y-172688659D01*
X100291135Y-172659173D01*
X100243428Y-172603259D01*
X100209676Y-172512602D01*
X100187264Y-172378883D01*
X100173578Y-172193785D01*
X100166001Y-171948990D01*
X100161920Y-171636182D01*
X100158718Y-171247042D01*
X100155676Y-170901736D01*
X100152028Y-170515189D01*
X100148178Y-170130980D01*
X100144341Y-169769691D01*
X100140727Y-169451903D01*
X100137551Y-169198198D01*
X100127167Y-168425562D01*
X100570813Y-168425666D01*
G37*
X117674334Y-171643000D02*
X117674334Y-172786000D01*
X117462667Y-172786000D01*
X117377720Y-172784997D01*
X117292886Y-172774312D01*
X117257863Y-172742977D01*
X117251000Y-172680166D01*
X117251000Y-172574333D01*
X116620938Y-172574333D01*
X116543149Y-172574369D01*
X116321431Y-172575536D01*
X116167549Y-172579614D01*
X116068421Y-172588301D01*
X116010964Y-172603295D01*
X115982096Y-172626295D01*
X115968734Y-172659000D01*
X115942200Y-172709551D01*
X115877364Y-172736672D01*
X115752130Y-172743666D01*
X115557667Y-172743666D01*
X115557667Y-172193333D01*
X115981000Y-172193333D01*
X117251000Y-172193333D01*
X117251000Y-171643000D01*
X115981000Y-171643000D01*
X115981000Y-172193333D01*
X115557667Y-172193333D01*
X115557667Y-171304333D01*
X115981000Y-171304333D01*
X117251000Y-171304333D01*
X117251000Y-170796333D01*
X115981000Y-170796333D01*
X115981000Y-171304333D01*
X115557667Y-171304333D01*
X115557667Y-170415333D01*
X117674334Y-170415333D01*
X117674334Y-170796333D01*
X117674334Y-171643000D01*
G36*
X117674334Y-171643000D02*
G01*
X117674334Y-172786000D01*
X117462667Y-172786000D01*
X117377720Y-172784997D01*
X117292886Y-172774312D01*
X117257863Y-172742977D01*
X117251000Y-172680166D01*
X117251000Y-172574333D01*
X116620938Y-172574333D01*
X116543149Y-172574369D01*
X116321431Y-172575536D01*
X116167549Y-172579614D01*
X116068421Y-172588301D01*
X116010964Y-172603295D01*
X115982096Y-172626295D01*
X115968734Y-172659000D01*
X115942200Y-172709551D01*
X115877364Y-172736672D01*
X115752130Y-172743666D01*
X115557667Y-172743666D01*
X115557667Y-172193333D01*
X115981000Y-172193333D01*
X117251000Y-172193333D01*
X117251000Y-171643000D01*
X115981000Y-171643000D01*
X115981000Y-172193333D01*
X115557667Y-172193333D01*
X115557667Y-171304333D01*
X115981000Y-171304333D01*
X117251000Y-171304333D01*
X117251000Y-170796333D01*
X115981000Y-170796333D01*
X115981000Y-171304333D01*
X115557667Y-171304333D01*
X115557667Y-170415333D01*
X117674334Y-170415333D01*
X117674334Y-170796333D01*
X117674334Y-171643000D01*
G37*
X102481393Y-170380464D02*
X102624834Y-170394166D01*
X102637437Y-170658750D01*
X102650041Y-170923333D01*
X103238667Y-170923333D01*
X103238667Y-171346666D01*
X102646000Y-171346666D01*
X102646000Y-172015187D01*
X102988488Y-172045504D01*
X103330976Y-172075822D01*
X103303222Y-172223763D01*
X103302957Y-172225171D01*
X103272099Y-172358788D01*
X103236949Y-172473019D01*
X103212195Y-172526701D01*
X103157700Y-172571815D01*
X103088384Y-172538430D01*
X103086133Y-172536869D01*
X103024426Y-172516102D01*
X102894616Y-172482903D01*
X102710093Y-172440373D01*
X102484245Y-172391612D01*
X102230460Y-172339722D01*
X102163580Y-172326389D01*
X101900249Y-172273151D01*
X101707416Y-172231857D01*
X101574663Y-172199231D01*
X101491575Y-172171996D01*
X101447735Y-172146876D01*
X101432726Y-172120594D01*
X101436132Y-172089874D01*
X101448353Y-172033001D01*
X101460089Y-171922921D01*
X101462572Y-171894115D01*
X101486618Y-171863882D01*
X101553251Y-171857473D01*
X101682917Y-171870034D01*
X101754367Y-171879041D01*
X101923991Y-171902298D01*
X102063917Y-171923735D01*
X102222667Y-171950411D01*
X102222667Y-171346666D01*
X101583028Y-171346666D01*
X101608834Y-170944500D01*
X101915750Y-170932062D01*
X102222667Y-170919624D01*
X102222667Y-170718278D01*
X102220436Y-170655780D01*
X102203099Y-170537327D01*
X102174211Y-170468476D01*
X102166746Y-170426556D01*
X102226273Y-170394242D01*
X102336790Y-170377264D01*
X102481393Y-170380464D01*
G36*
X102481393Y-170380464D02*
G01*
X102624834Y-170394166D01*
X102637437Y-170658750D01*
X102650041Y-170923333D01*
X103238667Y-170923333D01*
X103238667Y-171346666D01*
X102646000Y-171346666D01*
X102646000Y-172015187D01*
X102988488Y-172045504D01*
X103330976Y-172075822D01*
X103303222Y-172223763D01*
X103302957Y-172225171D01*
X103272099Y-172358788D01*
X103236949Y-172473019D01*
X103212195Y-172526701D01*
X103157700Y-172571815D01*
X103088384Y-172538430D01*
X103086133Y-172536869D01*
X103024426Y-172516102D01*
X102894616Y-172482903D01*
X102710093Y-172440373D01*
X102484245Y-172391612D01*
X102230460Y-172339722D01*
X102163580Y-172326389D01*
X101900249Y-172273151D01*
X101707416Y-172231857D01*
X101574663Y-172199231D01*
X101491575Y-172171996D01*
X101447735Y-172146876D01*
X101432726Y-172120594D01*
X101436132Y-172089874D01*
X101448353Y-172033001D01*
X101460089Y-171922921D01*
X101462572Y-171894115D01*
X101486618Y-171863882D01*
X101553251Y-171857473D01*
X101682917Y-171870034D01*
X101754367Y-171879041D01*
X101923991Y-171902298D01*
X102063917Y-171923735D01*
X102222667Y-171950411D01*
X102222667Y-171346666D01*
X101583028Y-171346666D01*
X101608834Y-170944500D01*
X101915750Y-170932062D01*
X102222667Y-170919624D01*
X102222667Y-170718278D01*
X102220436Y-170655780D01*
X102203099Y-170537327D01*
X102174211Y-170468476D01*
X102166746Y-170426556D01*
X102226273Y-170394242D01*
X102336790Y-170377264D01*
X102481393Y-170380464D01*
G37*
X103871187Y-168577427D02*
X103877842Y-168614624D01*
X103970646Y-169012791D01*
X104097097Y-169395397D01*
X104249757Y-169745189D01*
X104421187Y-170044913D01*
X104603951Y-170277313D01*
X104736097Y-170414460D01*
X104605450Y-170594813D01*
X104553105Y-170661522D01*
X104473457Y-170743253D01*
X104418406Y-170775166D01*
X104379190Y-170755184D01*
X104302069Y-170682134D01*
X104213088Y-170573931D01*
X104064167Y-170372696D01*
X104053434Y-171547598D01*
X104053166Y-171576307D01*
X104049576Y-171883199D01*
X104045034Y-172162492D01*
X104039824Y-172402774D01*
X104034229Y-172592631D01*
X104028531Y-172720650D01*
X104023013Y-172775416D01*
X104015127Y-172786897D01*
X103941207Y-172817067D01*
X103811496Y-172828333D01*
X103619667Y-172828333D01*
X103619667Y-171291633D01*
X103619428Y-171061883D01*
X103617378Y-170647351D01*
X103613152Y-170312669D01*
X103606652Y-170054607D01*
X103597784Y-169869932D01*
X103586450Y-169755414D01*
X103572556Y-169707821D01*
X103548265Y-169663300D01*
X103567435Y-169598330D01*
X103639127Y-169568666D01*
X103652989Y-169565370D01*
X103665218Y-169527765D01*
X103647942Y-169437892D01*
X103599375Y-169282916D01*
X103551615Y-169131853D01*
X103494364Y-168928231D01*
X103452412Y-168753750D01*
X103426122Y-168646399D01*
X103391514Y-168548204D01*
X103362666Y-168510333D01*
X103352748Y-168508927D01*
X103323334Y-168466952D01*
X103324023Y-168460771D01*
X103374147Y-168410890D01*
X103494815Y-168361830D01*
X103673645Y-168318826D01*
X103821328Y-168291121D01*
X103871187Y-168577427D01*
G36*
X103871187Y-168577427D02*
G01*
X103877842Y-168614624D01*
X103970646Y-169012791D01*
X104097097Y-169395397D01*
X104249757Y-169745189D01*
X104421187Y-170044913D01*
X104603951Y-170277313D01*
X104736097Y-170414460D01*
X104605450Y-170594813D01*
X104553105Y-170661522D01*
X104473457Y-170743253D01*
X104418406Y-170775166D01*
X104379190Y-170755184D01*
X104302069Y-170682134D01*
X104213088Y-170573931D01*
X104064167Y-170372696D01*
X104053434Y-171547598D01*
X104053166Y-171576307D01*
X104049576Y-171883199D01*
X104045034Y-172162492D01*
X104039824Y-172402774D01*
X104034229Y-172592631D01*
X104028531Y-172720650D01*
X104023013Y-172775416D01*
X104015127Y-172786897D01*
X103941207Y-172817067D01*
X103811496Y-172828333D01*
X103619667Y-172828333D01*
X103619667Y-171291633D01*
X103619428Y-171061883D01*
X103617378Y-170647351D01*
X103613152Y-170312669D01*
X103606652Y-170054607D01*
X103597784Y-169869932D01*
X103586450Y-169755414D01*
X103572556Y-169707821D01*
X103548265Y-169663300D01*
X103567435Y-169598330D01*
X103639127Y-169568666D01*
X103652989Y-169565370D01*
X103665218Y-169527765D01*
X103647942Y-169437892D01*
X103599375Y-169282916D01*
X103551615Y-169131853D01*
X103494364Y-168928231D01*
X103452412Y-168753750D01*
X103426122Y-168646399D01*
X103391514Y-168548204D01*
X103362666Y-168510333D01*
X103352748Y-168508927D01*
X103323334Y-168466952D01*
X103324023Y-168460771D01*
X103374147Y-168410890D01*
X103494815Y-168361830D01*
X103673645Y-168318826D01*
X103821328Y-168291121D01*
X103871187Y-168577427D01*
G37*
X108806753Y-168271398D02*
X108821447Y-168322352D01*
X108851358Y-168435020D01*
X108887982Y-168578440D01*
X108891020Y-168590494D01*
X109027918Y-169059025D01*
X109194016Y-169506882D01*
X109380533Y-169912751D01*
X109578691Y-170255316D01*
X109687437Y-170419643D01*
X109614722Y-170650321D01*
X109579884Y-170748397D01*
X109534819Y-170844018D01*
X109500914Y-170881000D01*
X109497974Y-170880479D01*
X109452229Y-170839858D01*
X109378549Y-170747176D01*
X109291411Y-170620436D01*
X109123000Y-170359873D01*
X109123000Y-171565881D01*
X109122967Y-171625240D01*
X109121671Y-171932320D01*
X109118680Y-172209496D01*
X109114245Y-172445815D01*
X109108616Y-172630326D01*
X109102044Y-172752075D01*
X109094778Y-172800111D01*
X109081642Y-172807255D01*
X109001905Y-172822329D01*
X108883112Y-172828333D01*
X108699667Y-172828333D01*
X108699667Y-171285665D01*
X108699588Y-171165713D01*
X108697832Y-170743860D01*
X108693839Y-170389612D01*
X108687701Y-170106376D01*
X108679509Y-169897561D01*
X108669356Y-169766578D01*
X108657334Y-169716833D01*
X108627926Y-169690450D01*
X108621613Y-169636786D01*
X108678500Y-169611000D01*
X108688581Y-169611030D01*
X108725911Y-169607524D01*
X108736381Y-169583399D01*
X108719737Y-169518850D01*
X108675726Y-169394072D01*
X108663776Y-169359472D01*
X108616998Y-169212011D01*
X108561704Y-169025180D01*
X108507459Y-168830990D01*
X108483292Y-168745661D01*
X108432318Y-168588767D01*
X108385931Y-168473429D01*
X108351837Y-168420003D01*
X108328512Y-168400292D01*
X108335197Y-168354497D01*
X108422136Y-168308824D01*
X108586299Y-168265275D01*
X108674706Y-168249259D01*
X108769217Y-168245493D01*
X108806753Y-168271398D01*
G36*
X108806753Y-168271398D02*
G01*
X108821447Y-168322352D01*
X108851358Y-168435020D01*
X108887982Y-168578440D01*
X108891020Y-168590494D01*
X109027918Y-169059025D01*
X109194016Y-169506882D01*
X109380533Y-169912751D01*
X109578691Y-170255316D01*
X109687437Y-170419643D01*
X109614722Y-170650321D01*
X109579884Y-170748397D01*
X109534819Y-170844018D01*
X109500914Y-170881000D01*
X109497974Y-170880479D01*
X109452229Y-170839858D01*
X109378549Y-170747176D01*
X109291411Y-170620436D01*
X109123000Y-170359873D01*
X109123000Y-171565881D01*
X109122967Y-171625240D01*
X109121671Y-171932320D01*
X109118680Y-172209496D01*
X109114245Y-172445815D01*
X109108616Y-172630326D01*
X109102044Y-172752075D01*
X109094778Y-172800111D01*
X109081642Y-172807255D01*
X109001905Y-172822329D01*
X108883112Y-172828333D01*
X108699667Y-172828333D01*
X108699667Y-171285665D01*
X108699588Y-171165713D01*
X108697832Y-170743860D01*
X108693839Y-170389612D01*
X108687701Y-170106376D01*
X108679509Y-169897561D01*
X108669356Y-169766578D01*
X108657334Y-169716833D01*
X108627926Y-169690450D01*
X108621613Y-169636786D01*
X108678500Y-169611000D01*
X108688581Y-169611030D01*
X108725911Y-169607524D01*
X108736381Y-169583399D01*
X108719737Y-169518850D01*
X108675726Y-169394072D01*
X108663776Y-169359472D01*
X108616998Y-169212011D01*
X108561704Y-169025180D01*
X108507459Y-168830990D01*
X108483292Y-168745661D01*
X108432318Y-168588767D01*
X108385931Y-168473429D01*
X108351837Y-168420003D01*
X108328512Y-168400292D01*
X108335197Y-168354497D01*
X108422136Y-168308824D01*
X108586299Y-168265275D01*
X108674706Y-168249259D01*
X108769217Y-168245493D01*
X108806753Y-168271398D01*
G37*
X103323334Y-169018333D02*
X103085971Y-169018333D01*
X102961410Y-169022394D01*
X102882529Y-169039161D01*
X102868847Y-169071250D01*
X102879238Y-169102714D01*
X102910441Y-169205888D01*
X102954732Y-169357357D01*
X103006155Y-169536916D01*
X103123224Y-169949666D01*
X103268465Y-169949666D01*
X103336661Y-169952357D01*
X103391450Y-169973101D01*
X103392206Y-170023750D01*
X103386316Y-170044533D01*
X103358187Y-170148324D01*
X103324222Y-170277750D01*
X103318018Y-170301100D01*
X103276584Y-170416223D01*
X103232577Y-170455357D01*
X103178722Y-170425916D01*
X103158003Y-170417063D01*
X103065006Y-170393547D01*
X102912202Y-170361965D01*
X102714618Y-170325340D01*
X102487278Y-170286699D01*
X101827557Y-170179232D01*
X101784224Y-170294034D01*
X101740891Y-170408835D01*
X101569029Y-170322214D01*
X101518203Y-170296386D01*
X101426405Y-170248403D01*
X101384104Y-170224205D01*
X101386295Y-170185241D01*
X101424395Y-170085277D01*
X101493826Y-169939542D01*
X101587824Y-169762121D01*
X101699626Y-169567099D01*
X101897173Y-169234999D01*
X102059920Y-169318026D01*
X102102722Y-169340821D01*
X102188540Y-169394215D01*
X102222667Y-169428224D01*
X102216342Y-169448244D01*
X102178105Y-169526376D01*
X102116739Y-169636147D01*
X102074486Y-169709424D01*
X102046060Y-169777043D01*
X102058106Y-169820407D01*
X102121546Y-169847885D01*
X102247304Y-169867845D01*
X102446302Y-169888657D01*
X102733436Y-169917493D01*
X102642859Y-169690163D01*
X102611460Y-169611061D01*
X102535348Y-169417756D01*
X102466266Y-169240583D01*
X102380250Y-169018333D01*
X101503000Y-169018333D01*
X101503000Y-168637333D01*
X103323334Y-168637333D01*
X103323334Y-169018333D01*
G36*
X103323334Y-169018333D02*
G01*
X103085971Y-169018333D01*
X102961410Y-169022394D01*
X102882529Y-169039161D01*
X102868847Y-169071250D01*
X102879238Y-169102714D01*
X102910441Y-169205888D01*
X102954732Y-169357357D01*
X103006155Y-169536916D01*
X103123224Y-169949666D01*
X103268465Y-169949666D01*
X103336661Y-169952357D01*
X103391450Y-169973101D01*
X103392206Y-170023750D01*
X103386316Y-170044533D01*
X103358187Y-170148324D01*
X103324222Y-170277750D01*
X103318018Y-170301100D01*
X103276584Y-170416223D01*
X103232577Y-170455357D01*
X103178722Y-170425916D01*
X103158003Y-170417063D01*
X103065006Y-170393547D01*
X102912202Y-170361965D01*
X102714618Y-170325340D01*
X102487278Y-170286699D01*
X101827557Y-170179232D01*
X101784224Y-170294034D01*
X101740891Y-170408835D01*
X101569029Y-170322214D01*
X101518203Y-170296386D01*
X101426405Y-170248403D01*
X101384104Y-170224205D01*
X101386295Y-170185241D01*
X101424395Y-170085277D01*
X101493826Y-169939542D01*
X101587824Y-169762121D01*
X101699626Y-169567099D01*
X101897173Y-169234999D01*
X102059920Y-169318026D01*
X102102722Y-169340821D01*
X102188540Y-169394215D01*
X102222667Y-169428224D01*
X102216342Y-169448244D01*
X102178105Y-169526376D01*
X102116739Y-169636147D01*
X102074486Y-169709424D01*
X102046060Y-169777043D01*
X102058106Y-169820407D01*
X102121546Y-169847885D01*
X102247304Y-169867845D01*
X102446302Y-169888657D01*
X102733436Y-169917493D01*
X102642859Y-169690163D01*
X102611460Y-169611061D01*
X102535348Y-169417756D01*
X102466266Y-169240583D01*
X102380250Y-169018333D01*
X101503000Y-169018333D01*
X101503000Y-168637333D01*
X103323334Y-168637333D01*
X103323334Y-169018333D01*
G37*
X119029000Y-169145333D02*
X119664000Y-169145333D01*
X119664000Y-169526333D01*
X119029000Y-169526333D01*
X119029000Y-170662112D01*
X119345599Y-170736750D01*
X119372825Y-170743231D01*
X119526924Y-170782319D01*
X119646207Y-170816475D01*
X119706769Y-170838935D01*
X119709861Y-170841903D01*
X119713140Y-170897664D01*
X119692553Y-170997899D01*
X119656584Y-171117192D01*
X119613710Y-171230126D01*
X119572414Y-171311281D01*
X119541176Y-171335242D01*
X119475785Y-171302656D01*
X119351616Y-171247451D01*
X119220453Y-171193473D01*
X119123100Y-171158019D01*
X119026700Y-171128564D01*
X119038434Y-171756198D01*
X119050167Y-172383833D01*
X119249741Y-172396674D01*
X119347395Y-172404104D01*
X119416661Y-172421509D01*
X119436255Y-172462868D01*
X119425994Y-172544841D01*
X119404799Y-172655835D01*
X119386499Y-172733083D01*
X119363424Y-172755428D01*
X119261951Y-172778416D01*
X119079224Y-172786000D01*
X119019727Y-172785908D01*
X118890844Y-172781583D01*
X118793770Y-172763325D01*
X118723752Y-172721030D01*
X118676037Y-172644596D01*
X118645870Y-172523919D01*
X118628497Y-172348898D01*
X118619166Y-172109428D01*
X118613122Y-171795408D01*
X118599410Y-170982843D01*
X118283775Y-170862334D01*
X118243760Y-170846878D01*
X118100280Y-170788245D01*
X117995591Y-170740428D01*
X117950055Y-170712564D01*
X117948242Y-170693729D01*
X117959528Y-170614227D01*
X117983318Y-170505964D01*
X118011689Y-170403047D01*
X118036715Y-170339584D01*
X118037392Y-170339125D01*
X118083607Y-170349195D01*
X118186366Y-170382684D01*
X118325110Y-170432937D01*
X118605667Y-170538539D01*
X118605667Y-169526333D01*
X118013000Y-169526333D01*
X118013000Y-169145333D01*
X118612258Y-169145333D01*
X118600766Y-168690250D01*
X118589275Y-168235166D01*
X118809138Y-168222371D01*
X119029000Y-168209575D01*
X119029000Y-169145333D01*
G36*
X119029000Y-169145333D02*
G01*
X119664000Y-169145333D01*
X119664000Y-169526333D01*
X119029000Y-169526333D01*
X119029000Y-170662112D01*
X119345599Y-170736750D01*
X119372825Y-170743231D01*
X119526924Y-170782319D01*
X119646207Y-170816475D01*
X119706769Y-170838935D01*
X119709861Y-170841903D01*
X119713140Y-170897664D01*
X119692553Y-170997899D01*
X119656584Y-171117192D01*
X119613710Y-171230126D01*
X119572414Y-171311281D01*
X119541176Y-171335242D01*
X119475785Y-171302656D01*
X119351616Y-171247451D01*
X119220453Y-171193473D01*
X119123100Y-171158019D01*
X119026700Y-171128564D01*
X119038434Y-171756198D01*
X119050167Y-172383833D01*
X119249741Y-172396674D01*
X119347395Y-172404104D01*
X119416661Y-172421509D01*
X119436255Y-172462868D01*
X119425994Y-172544841D01*
X119404799Y-172655835D01*
X119386499Y-172733083D01*
X119363424Y-172755428D01*
X119261951Y-172778416D01*
X119079224Y-172786000D01*
X119019727Y-172785908D01*
X118890844Y-172781583D01*
X118793770Y-172763325D01*
X118723752Y-172721030D01*
X118676037Y-172644596D01*
X118645870Y-172523919D01*
X118628497Y-172348898D01*
X118619166Y-172109428D01*
X118613122Y-171795408D01*
X118599410Y-170982843D01*
X118283775Y-170862334D01*
X118243760Y-170846878D01*
X118100280Y-170788245D01*
X117995591Y-170740428D01*
X117950055Y-170712564D01*
X117948242Y-170693729D01*
X117959528Y-170614227D01*
X117983318Y-170505964D01*
X118011689Y-170403047D01*
X118036715Y-170339584D01*
X118037392Y-170339125D01*
X118083607Y-170349195D01*
X118186366Y-170382684D01*
X118325110Y-170432937D01*
X118605667Y-170538539D01*
X118605667Y-169526333D01*
X118013000Y-169526333D01*
X118013000Y-169145333D01*
X118612258Y-169145333D01*
X118600766Y-168690250D01*
X118589275Y-168235166D01*
X118809138Y-168222371D01*
X119029000Y-168209575D01*
X119029000Y-169145333D01*
G37*
X117759000Y-169943521D02*
X117647458Y-170031260D01*
X117619220Y-170051972D01*
X117574947Y-170075514D01*
X117515615Y-170092801D01*
X117429621Y-170104792D01*
X117305366Y-170112447D01*
X117131249Y-170116727D01*
X116895668Y-170118591D01*
X116587023Y-170119000D01*
X116498393Y-170118998D01*
X116169620Y-170117917D01*
X115912791Y-170112022D01*
X115717601Y-170097194D01*
X115573744Y-170069311D01*
X115470915Y-170024252D01*
X115398808Y-169957896D01*
X115347119Y-169866121D01*
X115305541Y-169744807D01*
X115263770Y-169589833D01*
X115256805Y-169563280D01*
X115229153Y-169447190D01*
X115232292Y-169386428D01*
X115276029Y-169357787D01*
X115370173Y-169338062D01*
X115383318Y-169335553D01*
X115500681Y-169309749D01*
X115581840Y-169286488D01*
X115612585Y-169282341D01*
X115642570Y-169320720D01*
X115643108Y-169331182D01*
X115658006Y-169419033D01*
X115686893Y-169536916D01*
X115730980Y-169695666D01*
X117335667Y-169695666D01*
X117335667Y-169279775D01*
X117155750Y-169252683D01*
X117113851Y-169246090D01*
X116970137Y-169221465D01*
X116783705Y-169187704D01*
X116570302Y-169147860D01*
X116345679Y-169104987D01*
X116125584Y-169062140D01*
X115925766Y-169022371D01*
X115761975Y-168988735D01*
X115649960Y-168964286D01*
X115605469Y-168952077D01*
X115605739Y-168930850D01*
X115640024Y-168858933D01*
X115701204Y-168761100D01*
X115772711Y-168661415D01*
X115837975Y-168583941D01*
X115880428Y-168552742D01*
X115901796Y-168555488D01*
X115992164Y-168578993D01*
X116113261Y-168618723D01*
X116227118Y-168655614D01*
X116404538Y-168706177D01*
X116607239Y-168759081D01*
X116813890Y-168809184D01*
X117003158Y-168851345D01*
X117153711Y-168880423D01*
X117244217Y-168891278D01*
X117273972Y-168890486D01*
X117312416Y-168877485D01*
X117331061Y-168834192D01*
X117334896Y-168742529D01*
X117328911Y-168584416D01*
X117314556Y-168277500D01*
X117759000Y-168251908D01*
X117759000Y-169943521D01*
G36*
X117759000Y-169943521D02*
G01*
X117647458Y-170031260D01*
X117619220Y-170051972D01*
X117574947Y-170075514D01*
X117515615Y-170092801D01*
X117429621Y-170104792D01*
X117305366Y-170112447D01*
X117131249Y-170116727D01*
X116895668Y-170118591D01*
X116587023Y-170119000D01*
X116498393Y-170118998D01*
X116169620Y-170117917D01*
X115912791Y-170112022D01*
X115717601Y-170097194D01*
X115573744Y-170069311D01*
X115470915Y-170024252D01*
X115398808Y-169957896D01*
X115347119Y-169866121D01*
X115305541Y-169744807D01*
X115263770Y-169589833D01*
X115256805Y-169563280D01*
X115229153Y-169447190D01*
X115232292Y-169386428D01*
X115276029Y-169357787D01*
X115370173Y-169338062D01*
X115383318Y-169335553D01*
X115500681Y-169309749D01*
X115581840Y-169286488D01*
X115612585Y-169282341D01*
X115642570Y-169320720D01*
X115643108Y-169331182D01*
X115658006Y-169419033D01*
X115686893Y-169536916D01*
X115730980Y-169695666D01*
X117335667Y-169695666D01*
X117335667Y-169279775D01*
X117155750Y-169252683D01*
X117113851Y-169246090D01*
X116970137Y-169221465D01*
X116783705Y-169187704D01*
X116570302Y-169147860D01*
X116345679Y-169104987D01*
X116125584Y-169062140D01*
X115925766Y-169022371D01*
X115761975Y-168988735D01*
X115649960Y-168964286D01*
X115605469Y-168952077D01*
X115605739Y-168930850D01*
X115640024Y-168858933D01*
X115701204Y-168761100D01*
X115772711Y-168661415D01*
X115837975Y-168583941D01*
X115880428Y-168552742D01*
X115901796Y-168555488D01*
X115992164Y-168578993D01*
X116113261Y-168618723D01*
X116227118Y-168655614D01*
X116404538Y-168706177D01*
X116607239Y-168759081D01*
X116813890Y-168809184D01*
X117003158Y-168851345D01*
X117153711Y-168880423D01*
X117244217Y-168891278D01*
X117273972Y-168890486D01*
X117312416Y-168877485D01*
X117331061Y-168834192D01*
X117334896Y-168742529D01*
X117328911Y-168584416D01*
X117314556Y-168277500D01*
X117759000Y-168251908D01*
X117759000Y-169943521D01*
G37*
X121471820Y-168436685D02*
X121747437Y-168493548D01*
X122076851Y-168550747D01*
X122441238Y-168605841D01*
X122821776Y-168656390D01*
X123199641Y-168699955D01*
X123556009Y-168734093D01*
X123872058Y-168756366D01*
X124128963Y-168764333D01*
X124194636Y-168764355D01*
X124353365Y-168767887D01*
X124444332Y-168785159D01*
X124480410Y-168827158D01*
X124474471Y-168904869D01*
X124439386Y-169029278D01*
X124388772Y-169198214D01*
X123814970Y-169170633D01*
X123793796Y-169169606D01*
X123558629Y-169157041D01*
X123334820Y-169143203D01*
X123146778Y-169129702D01*
X123018917Y-169118148D01*
X122796667Y-169093244D01*
X122796667Y-169738000D01*
X124363000Y-169738000D01*
X124363000Y-170119000D01*
X122796667Y-170119000D01*
X122796667Y-170796333D01*
X124786334Y-170796333D01*
X124786334Y-171177333D01*
X122796667Y-171177333D01*
X122796667Y-172278000D01*
X123337998Y-172278000D01*
X123296327Y-172457916D01*
X123286081Y-172501698D01*
X123257707Y-172618549D01*
X123238656Y-172690750D01*
X123193962Y-172720669D01*
X123077285Y-172738066D01*
X122882662Y-172743666D01*
X122732600Y-172742593D01*
X122599267Y-172732419D01*
X122503831Y-172702356D01*
X122439955Y-172641608D01*
X122401304Y-172539377D01*
X122381541Y-172384869D01*
X122374330Y-172167286D01*
X122373334Y-171875833D01*
X122373334Y-171177333D01*
X120383667Y-171177333D01*
X120383667Y-170796333D01*
X122376895Y-170796333D01*
X122364531Y-170468250D01*
X122352167Y-170140166D01*
X121579584Y-170128628D01*
X120807000Y-170117090D01*
X120807000Y-169738000D01*
X122376758Y-169738000D01*
X122364463Y-169391461D01*
X122352167Y-169044922D01*
X121844167Y-168968645D01*
X121653279Y-168940149D01*
X121439797Y-168908646D01*
X121258473Y-168882267D01*
X121135084Y-168864786D01*
X121068024Y-168853892D01*
X120971805Y-168830062D01*
X120934000Y-168807717D01*
X120950384Y-168773575D01*
X121006992Y-168689095D01*
X121090067Y-168577909D01*
X121100244Y-168564921D01*
X121196827Y-168454165D01*
X121269077Y-168403802D01*
X121333484Y-168401912D01*
X121471820Y-168436685D01*
G36*
X121471820Y-168436685D02*
G01*
X121747437Y-168493548D01*
X122076851Y-168550747D01*
X122441238Y-168605841D01*
X122821776Y-168656390D01*
X123199641Y-168699955D01*
X123556009Y-168734093D01*
X123872058Y-168756366D01*
X124128963Y-168764333D01*
X124194636Y-168764355D01*
X124353365Y-168767887D01*
X124444332Y-168785159D01*
X124480410Y-168827158D01*
X124474471Y-168904869D01*
X124439386Y-169029278D01*
X124388772Y-169198214D01*
X123814970Y-169170633D01*
X123793796Y-169169606D01*
X123558629Y-169157041D01*
X123334820Y-169143203D01*
X123146778Y-169129702D01*
X123018917Y-169118148D01*
X122796667Y-169093244D01*
X122796667Y-169738000D01*
X124363000Y-169738000D01*
X124363000Y-170119000D01*
X122796667Y-170119000D01*
X122796667Y-170796333D01*
X124786334Y-170796333D01*
X124786334Y-171177333D01*
X122796667Y-171177333D01*
X122796667Y-172278000D01*
X123337998Y-172278000D01*
X123296327Y-172457916D01*
X123286081Y-172501698D01*
X123257707Y-172618549D01*
X123238656Y-172690750D01*
X123193962Y-172720669D01*
X123077285Y-172738066D01*
X122882662Y-172743666D01*
X122732600Y-172742593D01*
X122599267Y-172732419D01*
X122503831Y-172702356D01*
X122439955Y-172641608D01*
X122401304Y-172539377D01*
X122381541Y-172384869D01*
X122374330Y-172167286D01*
X122373334Y-171875833D01*
X122373334Y-171177333D01*
X120383667Y-171177333D01*
X120383667Y-170796333D01*
X122376895Y-170796333D01*
X122364531Y-170468250D01*
X122352167Y-170140166D01*
X121579584Y-170128628D01*
X120807000Y-170117090D01*
X120807000Y-169738000D01*
X122376758Y-169738000D01*
X122364463Y-169391461D01*
X122352167Y-169044922D01*
X121844167Y-168968645D01*
X121653279Y-168940149D01*
X121439797Y-168908646D01*
X121258473Y-168882267D01*
X121135084Y-168864786D01*
X121068024Y-168853892D01*
X120971805Y-168830062D01*
X120934000Y-168807717D01*
X120950384Y-168773575D01*
X121006992Y-168689095D01*
X121090067Y-168577909D01*
X121100244Y-168564921D01*
X121196827Y-168454165D01*
X121269077Y-168403802D01*
X121333484Y-168401912D01*
X121471820Y-168436685D01*
G37*
X129661141Y-169787840D02*
X129701519Y-169804735D01*
X129841696Y-169864287D01*
X129942945Y-169908707D01*
X129985597Y-169929414D01*
X129980824Y-169955205D01*
X129946789Y-170038210D01*
X129890013Y-170156374D01*
X129781000Y-170371501D01*
X129559084Y-170284628D01*
X129434242Y-170231449D01*
X129268589Y-170152228D01*
X129101268Y-170065153D01*
X128951970Y-169980941D01*
X128840383Y-169910307D01*
X128786197Y-169863968D01*
X128745089Y-169824732D01*
X128700343Y-169846670D01*
X128673229Y-169939083D01*
X128659834Y-170055500D01*
X128268250Y-170067671D01*
X127876667Y-170079843D01*
X127876667Y-170542333D01*
X129574639Y-170542333D01*
X129561737Y-170743416D01*
X129548834Y-170944500D01*
X128712750Y-170955978D01*
X127876667Y-170967456D01*
X127876667Y-172191649D01*
X128776250Y-172203074D01*
X129675834Y-172214500D01*
X129688737Y-172415583D01*
X129701639Y-172616666D01*
X125633000Y-172616666D01*
X125633000Y-172193333D01*
X127453334Y-172193333D01*
X127453334Y-170965666D01*
X125802334Y-170965666D01*
X125802334Y-170542333D01*
X127453334Y-170542333D01*
X127453334Y-170076666D01*
X126691334Y-170076666D01*
X126691334Y-169907333D01*
X126690695Y-169869487D01*
X126681915Y-169775591D01*
X126666119Y-169738000D01*
X126663014Y-169738422D01*
X126608297Y-169765909D01*
X126521309Y-169823159D01*
X126453633Y-169865480D01*
X126312802Y-169941975D01*
X126139980Y-170028598D01*
X125961686Y-170112571D01*
X125804440Y-170181116D01*
X125694759Y-170221453D01*
X125667169Y-170226448D01*
X125616155Y-170209388D01*
X125562987Y-170142799D01*
X125493514Y-170011946D01*
X125435486Y-169889376D01*
X125408558Y-169812288D01*
X125415371Y-169772960D01*
X125452923Y-169752176D01*
X125524342Y-169727085D01*
X125702667Y-169653333D01*
X126811511Y-169653333D01*
X128479589Y-169653333D01*
X128209573Y-169367101D01*
X128167556Y-169321826D01*
X128028463Y-169162879D01*
X127903445Y-169007799D01*
X127815387Y-168884600D01*
X127691217Y-168688329D01*
X127493439Y-168949588D01*
X127375203Y-169094668D01*
X127210369Y-169276725D01*
X127053586Y-169432090D01*
X126811511Y-169653333D01*
X125702667Y-169653333D01*
X126070152Y-169501348D01*
X126538688Y-169242180D01*
X126929717Y-168949729D01*
X127243003Y-168624144D01*
X127314874Y-168524870D01*
X127370902Y-168423329D01*
X127383656Y-168361333D01*
X127379763Y-168348407D01*
X127388770Y-168315064D01*
X127440687Y-168289016D01*
X127549327Y-168265374D01*
X127728500Y-168239247D01*
X127897834Y-168216830D01*
X128046000Y-168476429D01*
X128150969Y-168642557D01*
X128431926Y-168980228D01*
X128782885Y-169288222D01*
X129195430Y-169559704D01*
X129386562Y-169653333D01*
X129661141Y-169787840D01*
G36*
X129661141Y-169787840D02*
G01*
X129701519Y-169804735D01*
X129841696Y-169864287D01*
X129942945Y-169908707D01*
X129985597Y-169929414D01*
X129980824Y-169955205D01*
X129946789Y-170038210D01*
X129890013Y-170156374D01*
X129781000Y-170371501D01*
X129559084Y-170284628D01*
X129434242Y-170231449D01*
X129268589Y-170152228D01*
X129101268Y-170065153D01*
X128951970Y-169980941D01*
X128840383Y-169910307D01*
X128786197Y-169863968D01*
X128745089Y-169824732D01*
X128700343Y-169846670D01*
X128673229Y-169939083D01*
X128659834Y-170055500D01*
X128268250Y-170067671D01*
X127876667Y-170079843D01*
X127876667Y-170542333D01*
X129574639Y-170542333D01*
X129561737Y-170743416D01*
X129548834Y-170944500D01*
X128712750Y-170955978D01*
X127876667Y-170967456D01*
X127876667Y-172191649D01*
X128776250Y-172203074D01*
X129675834Y-172214500D01*
X129688737Y-172415583D01*
X129701639Y-172616666D01*
X125633000Y-172616666D01*
X125633000Y-172193333D01*
X127453334Y-172193333D01*
X127453334Y-170965666D01*
X125802334Y-170965666D01*
X125802334Y-170542333D01*
X127453334Y-170542333D01*
X127453334Y-170076666D01*
X126691334Y-170076666D01*
X126691334Y-169907333D01*
X126690695Y-169869487D01*
X126681915Y-169775591D01*
X126666119Y-169738000D01*
X126663014Y-169738422D01*
X126608297Y-169765909D01*
X126521309Y-169823159D01*
X126453633Y-169865480D01*
X126312802Y-169941975D01*
X126139980Y-170028598D01*
X125961686Y-170112571D01*
X125804440Y-170181116D01*
X125694759Y-170221453D01*
X125667169Y-170226448D01*
X125616155Y-170209388D01*
X125562987Y-170142799D01*
X125493514Y-170011946D01*
X125435486Y-169889376D01*
X125408558Y-169812288D01*
X125415371Y-169772960D01*
X125452923Y-169752176D01*
X125524342Y-169727085D01*
X125702667Y-169653333D01*
X126811511Y-169653333D01*
X128479589Y-169653333D01*
X128209573Y-169367101D01*
X128167556Y-169321826D01*
X128028463Y-169162879D01*
X127903445Y-169007799D01*
X127815387Y-168884600D01*
X127691217Y-168688329D01*
X127493439Y-168949588D01*
X127375203Y-169094668D01*
X127210369Y-169276725D01*
X127053586Y-169432090D01*
X126811511Y-169653333D01*
X125702667Y-169653333D01*
X126070152Y-169501348D01*
X126538688Y-169242180D01*
X126929717Y-168949729D01*
X127243003Y-168624144D01*
X127314874Y-168524870D01*
X127370902Y-168423329D01*
X127383656Y-168361333D01*
X127379763Y-168348407D01*
X127388770Y-168315064D01*
X127440687Y-168289016D01*
X127549327Y-168265374D01*
X127728500Y-168239247D01*
X127897834Y-168216830D01*
X128046000Y-168476429D01*
X128150969Y-168642557D01*
X128431926Y-168980228D01*
X128782885Y-169288222D01*
X129195430Y-169559704D01*
X129386562Y-169653333D01*
X129661141Y-169787840D01*
G37*
X106855834Y-170096113D02*
X106997591Y-170388027D01*
X106890963Y-170549152D01*
X106856467Y-170597414D01*
X106789983Y-170669210D01*
X106746772Y-170687062D01*
X106736831Y-170678436D01*
X106687873Y-170611323D01*
X106628753Y-170507840D01*
X106619131Y-170489015D01*
X106585290Y-170423754D01*
X106561100Y-170393818D01*
X106541157Y-170408717D01*
X106520059Y-170477958D01*
X106492403Y-170611049D01*
X106452784Y-170817500D01*
X106423921Y-170946171D01*
X106367415Y-171152817D01*
X106305436Y-171343712D01*
X106206971Y-171615924D01*
X106333162Y-171775253D01*
X106404234Y-171855568D01*
X106581446Y-172016835D01*
X106790173Y-172171943D01*
X106999571Y-172296751D01*
X107029389Y-172312521D01*
X107096306Y-172362037D01*
X107120108Y-172425447D01*
X107103547Y-172523838D01*
X107049377Y-172678299D01*
X107009842Y-172750885D01*
X106963015Y-172786000D01*
X106907492Y-172770471D01*
X106792845Y-172708795D01*
X106647876Y-172612215D01*
X106490596Y-172493736D01*
X106339013Y-172366362D01*
X106211140Y-172243097D01*
X105987446Y-172005457D01*
X105830140Y-172180188D01*
X105742422Y-172270065D01*
X105614521Y-172387130D01*
X105476608Y-172503111D01*
X105346518Y-172603686D01*
X105242088Y-172674534D01*
X105181151Y-172701333D01*
X105163694Y-172693693D01*
X105117265Y-172626357D01*
X105069790Y-172507745D01*
X105031074Y-172360143D01*
X105030622Y-172357860D01*
X105030192Y-172282512D01*
X105074052Y-172217861D01*
X105178137Y-172140062D01*
X105276965Y-172066996D01*
X105419749Y-171946840D01*
X105556294Y-171819008D01*
X105765622Y-171609680D01*
X105647480Y-171255923D01*
X105641194Y-171236976D01*
X105565587Y-170981870D01*
X105506613Y-170718704D01*
X105459370Y-170421952D01*
X105418954Y-170066083D01*
X105390928Y-169780333D01*
X105766989Y-169780333D01*
X105796407Y-170104967D01*
X105817172Y-170289482D01*
X105852339Y-170532842D01*
X105891112Y-170750550D01*
X105897572Y-170781745D01*
X105932670Y-170934449D01*
X105964781Y-171049793D01*
X105987655Y-171104837D01*
X106010390Y-171090481D01*
X106041764Y-171008786D01*
X106077071Y-170874209D01*
X106112956Y-170702875D01*
X106146066Y-170510910D01*
X106173045Y-170314437D01*
X106190540Y-170129583D01*
X106213935Y-169780333D01*
X105766989Y-169780333D01*
X105390928Y-169780333D01*
X105016667Y-169780333D01*
X105016667Y-169357000D01*
X105583946Y-169356999D01*
X106151225Y-169356999D01*
X106071505Y-169050083D01*
X106067594Y-169034933D01*
X106029141Y-168875168D01*
X106001725Y-168742088D01*
X105991059Y-168663166D01*
X105978827Y-168610466D01*
X105919204Y-168531156D01*
X105891479Y-168509826D01*
X105873700Y-168473946D01*
X105929788Y-168435606D01*
X105940840Y-168430246D01*
X106045807Y-168398139D01*
X106175901Y-168377116D01*
X106340302Y-168362166D01*
X106416023Y-168734060D01*
X106443242Y-168861145D01*
X106559706Y-169308509D01*
X106700388Y-169729923D01*
X106721787Y-169780333D01*
X106855834Y-170096113D01*
G36*
X106855834Y-170096113D02*
G01*
X106997591Y-170388027D01*
X106890963Y-170549152D01*
X106856467Y-170597414D01*
X106789983Y-170669210D01*
X106746772Y-170687062D01*
X106736831Y-170678436D01*
X106687873Y-170611323D01*
X106628753Y-170507840D01*
X106619131Y-170489015D01*
X106585290Y-170423754D01*
X106561100Y-170393818D01*
X106541157Y-170408717D01*
X106520059Y-170477958D01*
X106492403Y-170611049D01*
X106452784Y-170817500D01*
X106423921Y-170946171D01*
X106367415Y-171152817D01*
X106305436Y-171343712D01*
X106206971Y-171615924D01*
X106333162Y-171775253D01*
X106404234Y-171855568D01*
X106581446Y-172016835D01*
X106790173Y-172171943D01*
X106999571Y-172296751D01*
X107029389Y-172312521D01*
X107096306Y-172362037D01*
X107120108Y-172425447D01*
X107103547Y-172523838D01*
X107049377Y-172678299D01*
X107009842Y-172750885D01*
X106963015Y-172786000D01*
X106907492Y-172770471D01*
X106792845Y-172708795D01*
X106647876Y-172612215D01*
X106490596Y-172493736D01*
X106339013Y-172366362D01*
X106211140Y-172243097D01*
X105987446Y-172005457D01*
X105830140Y-172180188D01*
X105742422Y-172270065D01*
X105614521Y-172387130D01*
X105476608Y-172503111D01*
X105346518Y-172603686D01*
X105242088Y-172674534D01*
X105181151Y-172701333D01*
X105163694Y-172693693D01*
X105117265Y-172626357D01*
X105069790Y-172507745D01*
X105031074Y-172360143D01*
X105030622Y-172357860D01*
X105030192Y-172282512D01*
X105074052Y-172217861D01*
X105178137Y-172140062D01*
X105276965Y-172066996D01*
X105419749Y-171946840D01*
X105556294Y-171819008D01*
X105765622Y-171609680D01*
X105647480Y-171255923D01*
X105641194Y-171236976D01*
X105565587Y-170981870D01*
X105506613Y-170718704D01*
X105459370Y-170421952D01*
X105418954Y-170066083D01*
X105390928Y-169780333D01*
X105766989Y-169780333D01*
X105796407Y-170104967D01*
X105817172Y-170289482D01*
X105852339Y-170532842D01*
X105891112Y-170750550D01*
X105897572Y-170781745D01*
X105932670Y-170934449D01*
X105964781Y-171049793D01*
X105987655Y-171104837D01*
X106010390Y-171090481D01*
X106041764Y-171008786D01*
X106077071Y-170874209D01*
X106112956Y-170702875D01*
X106146066Y-170510910D01*
X106173045Y-170314437D01*
X106190540Y-170129583D01*
X106213935Y-169780333D01*
X105766989Y-169780333D01*
X105390928Y-169780333D01*
X105016667Y-169780333D01*
X105016667Y-169357000D01*
X105583946Y-169356999D01*
X106151225Y-169356999D01*
X106071505Y-169050083D01*
X106067594Y-169034933D01*
X106029141Y-168875168D01*
X106001725Y-168742088D01*
X105991059Y-168663166D01*
X105978827Y-168610466D01*
X105919204Y-168531156D01*
X105891479Y-168509826D01*
X105873700Y-168473946D01*
X105929788Y-168435606D01*
X105940840Y-168430246D01*
X106045807Y-168398139D01*
X106175901Y-168377116D01*
X106340302Y-168362166D01*
X106416023Y-168734060D01*
X106443242Y-168861145D01*
X106559706Y-169308509D01*
X106700388Y-169729923D01*
X106721787Y-169780333D01*
X106855834Y-170096113D01*
G37*
X99018172Y-169601329D02*
X99338330Y-169820334D01*
X99360273Y-169834553D01*
X99380412Y-169870821D01*
X99365261Y-169935754D01*
X99312250Y-170052213D01*
X99275401Y-170121618D01*
X99214977Y-170211021D01*
X99171169Y-170246000D01*
X99105824Y-170223581D01*
X98993074Y-170154955D01*
X98856689Y-170053378D01*
X98716274Y-169932366D01*
X98575380Y-169801500D01*
X98575723Y-169822666D01*
X98590090Y-170711666D01*
X98592311Y-170844728D01*
X98597889Y-171118163D01*
X98604718Y-171325793D01*
X98614163Y-171481025D01*
X98627584Y-171597267D01*
X98646343Y-171687926D01*
X98671803Y-171766410D01*
X98705326Y-171846127D01*
X98837376Y-172062696D01*
X99036106Y-172275643D01*
X99266360Y-172480865D01*
X99151388Y-172654599D01*
X99110398Y-172713760D01*
X99044891Y-172796043D01*
X99005796Y-172828333D01*
X98988313Y-172824072D01*
X98909829Y-172777882D01*
X98799960Y-172694378D01*
X98678774Y-172590426D01*
X98566334Y-172482893D01*
X98482708Y-172388645D01*
X98405081Y-172276495D01*
X98301055Y-172087294D01*
X98229239Y-171905746D01*
X98201930Y-171759416D01*
X98201000Y-171643000D01*
X95788000Y-171643000D01*
X95788000Y-172362666D01*
X96261109Y-172362666D01*
X96231338Y-172542583D01*
X96223511Y-172587411D01*
X96200823Y-172695812D01*
X96182786Y-172754250D01*
X96182682Y-172754417D01*
X96133304Y-172770332D01*
X96023155Y-172781675D01*
X95875878Y-172786000D01*
X95835233Y-172785779D01*
X95672860Y-172776516D01*
X95562169Y-172749315D01*
X95476210Y-172698260D01*
X95364667Y-172610521D01*
X95364667Y-171304333D01*
X95788000Y-171304333D01*
X96761667Y-171304333D01*
X96761667Y-170711666D01*
X97185000Y-170711666D01*
X97185000Y-171304333D01*
X98158667Y-171304333D01*
X98158667Y-170711666D01*
X97185000Y-170711666D01*
X96761667Y-170711666D01*
X95788000Y-170711666D01*
X95788000Y-171304333D01*
X95364667Y-171304333D01*
X95364667Y-170373000D01*
X95788000Y-170373000D01*
X96761667Y-170373000D01*
X96761667Y-169822666D01*
X97185000Y-169822666D01*
X97185000Y-170373000D01*
X98158667Y-170373000D01*
X98158667Y-169822666D01*
X97185000Y-169822666D01*
X96761667Y-169822666D01*
X95788000Y-169822666D01*
X95788000Y-170373000D01*
X95364667Y-170373000D01*
X95364667Y-169484000D01*
X96598099Y-169484000D01*
X96512659Y-169364010D01*
X96498515Y-169345034D01*
X96416172Y-169245803D01*
X96300244Y-169115849D01*
X96175915Y-168983311D01*
X96724574Y-168983311D01*
X96752148Y-169044894D01*
X96827818Y-169142103D01*
X96944402Y-169282916D01*
X97108218Y-169484000D01*
X98250396Y-169484000D01*
X98160540Y-169367583D01*
X98141874Y-169343109D01*
X98052226Y-169221323D01*
X97960884Y-169092416D01*
X97851083Y-168933666D01*
X97258858Y-168933666D01*
X97238930Y-168933654D01*
X97002275Y-168932526D01*
X96842453Y-168935106D01*
X96752281Y-168949375D01*
X96724574Y-168983311D01*
X96175915Y-168983311D01*
X96171110Y-168978189D01*
X96120504Y-168925380D01*
X96015296Y-168813487D01*
X95942315Y-168732808D01*
X95915000Y-168698045D01*
X95933397Y-168679365D01*
X96004919Y-168624181D01*
X96111930Y-168548243D01*
X96198380Y-168490370D01*
X96277152Y-168448238D01*
X96324044Y-168447529D01*
X96360014Y-168482709D01*
X96373710Y-168497889D01*
X96415953Y-168521320D01*
X96489448Y-168537122D01*
X96607542Y-168546685D01*
X96783583Y-168551403D01*
X97030917Y-168552666D01*
X97131191Y-168552507D01*
X97349228Y-168550113D01*
X97498559Y-168543946D01*
X97590820Y-168532851D01*
X97637644Y-168515676D01*
X97650667Y-168491270D01*
X97638417Y-168450628D01*
X97576936Y-168388612D01*
X97540821Y-168362083D01*
X97538688Y-168318551D01*
X97615447Y-168276043D01*
X97773949Y-168232299D01*
X97974900Y-168187041D01*
X98150299Y-168528603D01*
X98192918Y-168608668D01*
X98429662Y-168978311D01*
X98710015Y-169314927D01*
X98891931Y-169484000D01*
X99018172Y-169601329D01*
G36*
X99018172Y-169601329D02*
G01*
X99338330Y-169820334D01*
X99360273Y-169834553D01*
X99380412Y-169870821D01*
X99365261Y-169935754D01*
X99312250Y-170052213D01*
X99275401Y-170121618D01*
X99214977Y-170211021D01*
X99171169Y-170246000D01*
X99105824Y-170223581D01*
X98993074Y-170154955D01*
X98856689Y-170053378D01*
X98716274Y-169932366D01*
X98575380Y-169801500D01*
X98575723Y-169822666D01*
X98590090Y-170711666D01*
X98592311Y-170844728D01*
X98597889Y-171118163D01*
X98604718Y-171325793D01*
X98614163Y-171481025D01*
X98627584Y-171597267D01*
X98646343Y-171687926D01*
X98671803Y-171766410D01*
X98705326Y-171846127D01*
X98837376Y-172062696D01*
X99036106Y-172275643D01*
X99266360Y-172480865D01*
X99151388Y-172654599D01*
X99110398Y-172713760D01*
X99044891Y-172796043D01*
X99005796Y-172828333D01*
X98988313Y-172824072D01*
X98909829Y-172777882D01*
X98799960Y-172694378D01*
X98678774Y-172590426D01*
X98566334Y-172482893D01*
X98482708Y-172388645D01*
X98405081Y-172276495D01*
X98301055Y-172087294D01*
X98229239Y-171905746D01*
X98201930Y-171759416D01*
X98201000Y-171643000D01*
X95788000Y-171643000D01*
X95788000Y-172362666D01*
X96261109Y-172362666D01*
X96231338Y-172542583D01*
X96223511Y-172587411D01*
X96200823Y-172695812D01*
X96182786Y-172754250D01*
X96182682Y-172754417D01*
X96133304Y-172770332D01*
X96023155Y-172781675D01*
X95875878Y-172786000D01*
X95835233Y-172785779D01*
X95672860Y-172776516D01*
X95562169Y-172749315D01*
X95476210Y-172698260D01*
X95364667Y-172610521D01*
X95364667Y-171304333D01*
X95788000Y-171304333D01*
X96761667Y-171304333D01*
X96761667Y-170711666D01*
X97185000Y-170711666D01*
X97185000Y-171304333D01*
X98158667Y-171304333D01*
X98158667Y-170711666D01*
X97185000Y-170711666D01*
X96761667Y-170711666D01*
X95788000Y-170711666D01*
X95788000Y-171304333D01*
X95364667Y-171304333D01*
X95364667Y-170373000D01*
X95788000Y-170373000D01*
X96761667Y-170373000D01*
X96761667Y-169822666D01*
X97185000Y-169822666D01*
X97185000Y-170373000D01*
X98158667Y-170373000D01*
X98158667Y-169822666D01*
X97185000Y-169822666D01*
X96761667Y-169822666D01*
X95788000Y-169822666D01*
X95788000Y-170373000D01*
X95364667Y-170373000D01*
X95364667Y-169484000D01*
X96598099Y-169484000D01*
X96512659Y-169364010D01*
X96498515Y-169345034D01*
X96416172Y-169245803D01*
X96300244Y-169115849D01*
X96175915Y-168983311D01*
X96724574Y-168983311D01*
X96752148Y-169044894D01*
X96827818Y-169142103D01*
X96944402Y-169282916D01*
X97108218Y-169484000D01*
X98250396Y-169484000D01*
X98160540Y-169367583D01*
X98141874Y-169343109D01*
X98052226Y-169221323D01*
X97960884Y-169092416D01*
X97851083Y-168933666D01*
X97258858Y-168933666D01*
X97238930Y-168933654D01*
X97002275Y-168932526D01*
X96842453Y-168935106D01*
X96752281Y-168949375D01*
X96724574Y-168983311D01*
X96175915Y-168983311D01*
X96171110Y-168978189D01*
X96120504Y-168925380D01*
X96015296Y-168813487D01*
X95942315Y-168732808D01*
X95915000Y-168698045D01*
X95933397Y-168679365D01*
X96004919Y-168624181D01*
X96111930Y-168548243D01*
X96198380Y-168490370D01*
X96277152Y-168448238D01*
X96324044Y-168447529D01*
X96360014Y-168482709D01*
X96373710Y-168497889D01*
X96415953Y-168521320D01*
X96489448Y-168537122D01*
X96607542Y-168546685D01*
X96783583Y-168551403D01*
X97030917Y-168552666D01*
X97131191Y-168552507D01*
X97349228Y-168550113D01*
X97498559Y-168543946D01*
X97590820Y-168532851D01*
X97637644Y-168515676D01*
X97650667Y-168491270D01*
X97638417Y-168450628D01*
X97576936Y-168388612D01*
X97540821Y-168362083D01*
X97538688Y-168318551D01*
X97615447Y-168276043D01*
X97773949Y-168232299D01*
X97974900Y-168187041D01*
X98150299Y-168528603D01*
X98192918Y-168608668D01*
X98429662Y-168978311D01*
X98710015Y-169314927D01*
X98891931Y-169484000D01*
X99018172Y-169601329D01*
G37*
X113102334Y-169227394D02*
X114139500Y-169251166D01*
X114145793Y-169611000D01*
X114151159Y-169917916D01*
X114162817Y-170584666D01*
X113971242Y-170584666D01*
X113888882Y-170582009D01*
X113804467Y-170562914D01*
X113779667Y-170521166D01*
X113769215Y-170495829D01*
X113725922Y-170476720D01*
X113636784Y-170465062D01*
X113488875Y-170459247D01*
X113269267Y-170457666D01*
X113142960Y-170457266D01*
X112963592Y-170457491D01*
X112855882Y-170465890D01*
X112811385Y-170490638D01*
X112821654Y-170539911D01*
X112878245Y-170621884D01*
X112972712Y-170744731D01*
X113075923Y-170881000D01*
X114711000Y-170881000D01*
X114711000Y-171219666D01*
X113338706Y-171219666D01*
X113507241Y-171399583D01*
X113575892Y-171473430D01*
X113645856Y-171549939D01*
X113686207Y-171594065D01*
X113768910Y-171686842D01*
X113862044Y-171794185D01*
X113673529Y-171897166D01*
X113599840Y-171936475D01*
X113517650Y-171971154D01*
X113469580Y-171967638D01*
X113431257Y-171929146D01*
X113428858Y-171926012D01*
X113398153Y-171896187D01*
X113353242Y-171882743D01*
X113277052Y-171886344D01*
X113152510Y-171907653D01*
X112962542Y-171947331D01*
X112839372Y-171975626D01*
X112696540Y-172014378D01*
X112605352Y-172046987D01*
X112581542Y-172068449D01*
X112664413Y-172116014D01*
X112818073Y-172170763D01*
X113023727Y-172226813D01*
X113264852Y-172280503D01*
X113524927Y-172328170D01*
X113787429Y-172366152D01*
X114035838Y-172390788D01*
X114118972Y-172397538D01*
X114276819Y-172415602D01*
X114390884Y-172435950D01*
X114440777Y-172455331D01*
X114444982Y-172466960D01*
X114448062Y-172547130D01*
X114435078Y-172663471D01*
X114406239Y-172834169D01*
X114124703Y-172805857D01*
X113769274Y-172761041D01*
X113326976Y-172679583D01*
X112917912Y-172575541D01*
X112559060Y-172453377D01*
X112267396Y-172317556D01*
X112046291Y-172193902D01*
X111565823Y-172379598D01*
X111389290Y-172449431D01*
X111178059Y-172536715D01*
X110993509Y-172616796D01*
X110861968Y-172678493D01*
X110761126Y-172727649D01*
X110668409Y-172767982D01*
X110628893Y-172778262D01*
X110621504Y-172768210D01*
X110576251Y-172707126D01*
X110506102Y-172612670D01*
X110474582Y-172569140D01*
X110416168Y-172480491D01*
X110393000Y-172432220D01*
X110403809Y-172417596D01*
X110478470Y-172371971D01*
X110612779Y-172307839D01*
X110793342Y-172231043D01*
X111006769Y-172147426D01*
X111239667Y-172062831D01*
X111312506Y-172037397D01*
X111470718Y-171982087D01*
X111592551Y-171939406D01*
X111656222Y-171916981D01*
X111668554Y-171887901D01*
X111625199Y-171809119D01*
X111517731Y-171679614D01*
X111417881Y-171563673D01*
X111316949Y-171436350D01*
X111250799Y-171341078D01*
X111191583Y-171240833D01*
X111645027Y-171240833D01*
X111897430Y-171498486D01*
X112149834Y-171756139D01*
X112608792Y-171660417D01*
X112768549Y-171626372D01*
X112927139Y-171590833D01*
X113037599Y-171564001D01*
X113082506Y-171549939D01*
X113079023Y-171534502D01*
X113037055Y-171469922D01*
X112962214Y-171375624D01*
X112827167Y-171216066D01*
X112236097Y-171228449D01*
X111645027Y-171240833D01*
X111191583Y-171240833D01*
X111179079Y-171219666D01*
X110139000Y-171219666D01*
X110139000Y-170882278D01*
X111372399Y-170871056D01*
X112605797Y-170859833D01*
X112469361Y-170713807D01*
X112421335Y-170661491D01*
X112369513Y-170593251D01*
X112367400Y-170551089D01*
X112408221Y-170512724D01*
X112424161Y-170494591D01*
X112407179Y-170479095D01*
X112343438Y-170468481D01*
X112223464Y-170461922D01*
X112037784Y-170458592D01*
X111776925Y-170457666D01*
X111533090Y-170458479D01*
X111336580Y-170461851D01*
X111203268Y-170468797D01*
X111121936Y-170480327D01*
X111081365Y-170497447D01*
X111070334Y-170521166D01*
X111067261Y-170539422D01*
X111018743Y-170574181D01*
X110901000Y-170584666D01*
X110731667Y-170584666D01*
X110731667Y-170119000D01*
X111070334Y-170119000D01*
X111747667Y-170119000D01*
X111747667Y-169611000D01*
X112128667Y-169611000D01*
X112128667Y-170119000D01*
X112763667Y-170119000D01*
X112763667Y-169611000D01*
X113102334Y-169611000D01*
X113102334Y-170119000D01*
X113779667Y-170119000D01*
X113779667Y-169611000D01*
X113102334Y-169611000D01*
X112763667Y-169611000D01*
X112128667Y-169611000D01*
X111747667Y-169611000D01*
X111070334Y-169611000D01*
X111070334Y-170119000D01*
X110731667Y-170119000D01*
X110731667Y-169230000D01*
X111747667Y-169230000D01*
X112128667Y-169230000D01*
X112763667Y-169230000D01*
X112763667Y-168849000D01*
X112128667Y-168849000D01*
X112128667Y-169230000D01*
X111747667Y-169230000D01*
X111747667Y-168849000D01*
X110308334Y-168849000D01*
X110308334Y-168468000D01*
X114584000Y-168468000D01*
X114584000Y-168849000D01*
X113102334Y-168849000D01*
X113102334Y-169227394D01*
G36*
X113102334Y-169227394D02*
G01*
X114139500Y-169251166D01*
X114145793Y-169611000D01*
X114151159Y-169917916D01*
X114162817Y-170584666D01*
X113971242Y-170584666D01*
X113888882Y-170582009D01*
X113804467Y-170562914D01*
X113779667Y-170521166D01*
X113769215Y-170495829D01*
X113725922Y-170476720D01*
X113636784Y-170465062D01*
X113488875Y-170459247D01*
X113269267Y-170457666D01*
X113142960Y-170457266D01*
X112963592Y-170457491D01*
X112855882Y-170465890D01*
X112811385Y-170490638D01*
X112821654Y-170539911D01*
X112878245Y-170621884D01*
X112972712Y-170744731D01*
X113075923Y-170881000D01*
X114711000Y-170881000D01*
X114711000Y-171219666D01*
X113338706Y-171219666D01*
X113507241Y-171399583D01*
X113575892Y-171473430D01*
X113645856Y-171549939D01*
X113686207Y-171594065D01*
X113768910Y-171686842D01*
X113862044Y-171794185D01*
X113673529Y-171897166D01*
X113599840Y-171936475D01*
X113517650Y-171971154D01*
X113469580Y-171967638D01*
X113431257Y-171929146D01*
X113428858Y-171926012D01*
X113398153Y-171896187D01*
X113353242Y-171882743D01*
X113277052Y-171886344D01*
X113152510Y-171907653D01*
X112962542Y-171947331D01*
X112839372Y-171975626D01*
X112696540Y-172014378D01*
X112605352Y-172046987D01*
X112581542Y-172068449D01*
X112664413Y-172116014D01*
X112818073Y-172170763D01*
X113023727Y-172226813D01*
X113264852Y-172280503D01*
X113524927Y-172328170D01*
X113787429Y-172366152D01*
X114035838Y-172390788D01*
X114118972Y-172397538D01*
X114276819Y-172415602D01*
X114390884Y-172435950D01*
X114440777Y-172455331D01*
X114444982Y-172466960D01*
X114448062Y-172547130D01*
X114435078Y-172663471D01*
X114406239Y-172834169D01*
X114124703Y-172805857D01*
X113769274Y-172761041D01*
X113326976Y-172679583D01*
X112917912Y-172575541D01*
X112559060Y-172453377D01*
X112267396Y-172317556D01*
X112046291Y-172193902D01*
X111565823Y-172379598D01*
X111389290Y-172449431D01*
X111178059Y-172536715D01*
X110993509Y-172616796D01*
X110861968Y-172678493D01*
X110761126Y-172727649D01*
X110668409Y-172767982D01*
X110628893Y-172778262D01*
X110621504Y-172768210D01*
X110576251Y-172707126D01*
X110506102Y-172612670D01*
X110474582Y-172569140D01*
X110416168Y-172480491D01*
X110393000Y-172432220D01*
X110403809Y-172417596D01*
X110478470Y-172371971D01*
X110612779Y-172307839D01*
X110793342Y-172231043D01*
X111006769Y-172147426D01*
X111239667Y-172062831D01*
X111312506Y-172037397D01*
X111470718Y-171982087D01*
X111592551Y-171939406D01*
X111656222Y-171916981D01*
X111668554Y-171887901D01*
X111625199Y-171809119D01*
X111517731Y-171679614D01*
X111417881Y-171563673D01*
X111316949Y-171436350D01*
X111250799Y-171341078D01*
X111191583Y-171240833D01*
X111645027Y-171240833D01*
X111897430Y-171498486D01*
X112149834Y-171756139D01*
X112608792Y-171660417D01*
X112768549Y-171626372D01*
X112927139Y-171590833D01*
X113037599Y-171564001D01*
X113082506Y-171549939D01*
X113079023Y-171534502D01*
X113037055Y-171469922D01*
X112962214Y-171375624D01*
X112827167Y-171216066D01*
X112236097Y-171228449D01*
X111645027Y-171240833D01*
X111191583Y-171240833D01*
X111179079Y-171219666D01*
X110139000Y-171219666D01*
X110139000Y-170882278D01*
X111372399Y-170871056D01*
X112605797Y-170859833D01*
X112469361Y-170713807D01*
X112421335Y-170661491D01*
X112369513Y-170593251D01*
X112367400Y-170551089D01*
X112408221Y-170512724D01*
X112424161Y-170494591D01*
X112407179Y-170479095D01*
X112343438Y-170468481D01*
X112223464Y-170461922D01*
X112037784Y-170458592D01*
X111776925Y-170457666D01*
X111533090Y-170458479D01*
X111336580Y-170461851D01*
X111203268Y-170468797D01*
X111121936Y-170480327D01*
X111081365Y-170497447D01*
X111070334Y-170521166D01*
X111067261Y-170539422D01*
X111018743Y-170574181D01*
X110901000Y-170584666D01*
X110731667Y-170584666D01*
X110731667Y-170119000D01*
X111070334Y-170119000D01*
X111747667Y-170119000D01*
X111747667Y-169611000D01*
X112128667Y-169611000D01*
X112128667Y-170119000D01*
X112763667Y-170119000D01*
X112763667Y-169611000D01*
X113102334Y-169611000D01*
X113102334Y-170119000D01*
X113779667Y-170119000D01*
X113779667Y-169611000D01*
X113102334Y-169611000D01*
X112763667Y-169611000D01*
X112128667Y-169611000D01*
X111747667Y-169611000D01*
X111070334Y-169611000D01*
X111070334Y-170119000D01*
X110731667Y-170119000D01*
X110731667Y-169230000D01*
X111747667Y-169230000D01*
X112128667Y-169230000D01*
X112763667Y-169230000D01*
X112763667Y-168849000D01*
X112128667Y-168849000D01*
X112128667Y-169230000D01*
X111747667Y-169230000D01*
X111747667Y-168849000D01*
X110308334Y-168849000D01*
X110308334Y-168468000D01*
X114584000Y-168468000D01*
X114584000Y-168849000D01*
X113102334Y-168849000D01*
X113102334Y-169227394D01*
G37*
D11*
%TO.C,U1*%
X78390000Y-137860000D02*
X78590000Y-137860000D01*
X90910000Y-137860000D02*
X90910000Y-139150000D01*
X91110000Y-137860000D02*
X90910000Y-137860000D01*
X78390000Y-134700000D02*
X78390000Y-137860000D01*
X78390000Y-134700000D02*
X78390000Y-131540000D01*
X91110000Y-134700000D02*
X91110000Y-137860000D01*
X91110000Y-134700000D02*
X91110000Y-131540000D01*
X78390000Y-131540000D02*
X78590000Y-131540000D01*
X91110000Y-131540000D02*
X90910000Y-131540000D01*
D10*
%TO.C,CN4*%
X103209000Y-128282000D02*
X104209000Y-128282000D01*
X104209000Y-128282000D02*
X104209000Y-126482000D01*
X36409000Y-127682000D02*
X36409000Y-116282000D01*
X39209000Y-127682000D02*
X36409000Y-127682000D01*
X104809000Y-127682000D02*
X107609000Y-127682000D01*
X107609000Y-127682000D02*
X107609000Y-116282000D01*
X38009000Y-117682000D02*
X39209000Y-117682000D01*
X104809000Y-117682000D02*
X106009000Y-117682000D01*
X106009000Y-117682000D02*
X106009000Y-113282000D01*
X36409000Y-116282000D02*
X36009000Y-115882000D01*
X107609000Y-116282000D02*
X108009000Y-115882000D01*
X36009000Y-115882000D02*
X36009000Y-104482000D01*
X108009000Y-115882000D02*
X108009000Y-104282000D01*
X38009000Y-113282000D02*
X38009000Y-117682000D01*
X39209000Y-108082000D02*
X39209000Y-97482000D01*
X104809000Y-108082000D02*
X104809000Y-97482000D01*
X36009000Y-104482000D02*
X34409000Y-98682000D01*
X108009000Y-104282000D02*
X109609000Y-98682000D01*
X34409000Y-98682000D02*
X34409000Y-97482000D01*
X109609000Y-98682000D02*
X109609000Y-97482000D01*
X34409000Y-97482000D02*
X39209000Y-97482000D01*
X109609000Y-97482000D02*
X104809000Y-97482000D01*
D11*
%TO.C,R19*%
X64352500Y-89867224D02*
X64352500Y-89357776D01*
X65397500Y-89867224D02*
X65397500Y-89357776D01*
D13*
%TO.C,U6*%
X50760000Y-108460000D02*
X52785000Y-108460000D01*
X50760000Y-108460000D02*
X50760000Y-106935000D01*
X58860000Y-108460000D02*
X56835000Y-108460000D01*
X58860000Y-108460000D02*
X58860000Y-106935000D01*
X50760000Y-102360000D02*
X50760000Y-103885000D01*
X50760000Y-102360000D02*
X52785000Y-102360000D01*
X58860000Y-102360000D02*
X58860000Y-103885000D01*
X58860000Y-102360000D02*
X56835000Y-102360000D01*
D14*
X56910000Y-108960000D02*
G75*
G03*
X56910000Y-108960000I-100000J0D01*
G01*
%TD*%
%LPC*%
D15*
%TO.C,CN1*%
X40855900Y-153779220D03*
X41854120Y-153779220D03*
D16*
X42855140Y-153280100D03*
X43855140Y-153280100D03*
X44856400Y-153279220D03*
X45854620Y-153279220D03*
X46855380Y-153279220D03*
D15*
X47856140Y-153779220D03*
D16*
X48854360Y-153279220D03*
X49855120Y-153279220D03*
X50855880Y-153279220D03*
X51854100Y-153279220D03*
D15*
X52854860Y-153779220D03*
D16*
X53855620Y-153279220D03*
X54856380Y-153279220D03*
X55854600Y-153279220D03*
X56855360Y-153279220D03*
D15*
X57856120Y-153779220D03*
D16*
X58854340Y-153279220D03*
X59855100Y-153279220D03*
X60855860Y-153279220D03*
X61854080Y-153279220D03*
D15*
X62854840Y-153779220D03*
D16*
X63855600Y-153279220D03*
X64856360Y-153279220D03*
X65854580Y-153279220D03*
D15*
X66855340Y-153779220D03*
D16*
X67856100Y-153279220D03*
D15*
X68854320Y-153779220D03*
D16*
X69855080Y-153279220D03*
X70855840Y-153279220D03*
X71854060Y-153279220D03*
X72854820Y-153279220D03*
X73855580Y-153279220D03*
X74856340Y-153279220D03*
D15*
X75854560Y-153779220D03*
D16*
X83855560Y-153279220D03*
X84856320Y-153279220D03*
X85854540Y-153279220D03*
X86855300Y-153279220D03*
D15*
X87856060Y-153779220D03*
D16*
X88854280Y-153279220D03*
X89855040Y-153279220D03*
X90855800Y-153279220D03*
X91854020Y-153279220D03*
D15*
X92854780Y-153779220D03*
D16*
X93855540Y-153279220D03*
X94856300Y-153279220D03*
X95854520Y-153279220D03*
X96855280Y-153279220D03*
X97856040Y-153279220D03*
X98854260Y-153279220D03*
X99855020Y-153279220D03*
D15*
X100855780Y-153779220D03*
D16*
X101854000Y-153279220D03*
X102854760Y-153279220D03*
X103855520Y-153279220D03*
X104856280Y-153279220D03*
D15*
X105854500Y-153779220D03*
D16*
X106855260Y-153279220D03*
X107856020Y-153279220D03*
X108854240Y-153279220D03*
X109855000Y-153279220D03*
D15*
X110855760Y-153779220D03*
X111853980Y-153779220D03*
D16*
X112854740Y-153279220D03*
D15*
X113855500Y-153779220D03*
%TD*%
D17*
%TO.C,CN2*%
X95980000Y-85500000D03*
X88000000Y-85500000D03*
%TD*%
D18*
%TO.C,CN3*%
X118237000Y-118173500D03*
D19*
X118237000Y-120713500D03*
X115697000Y-118173500D03*
X115697000Y-120713500D03*
%TD*%
D20*
%TO.C,D1*%
X64800000Y-85150000D03*
D21*
X66070000Y-85150000D03*
X67340000Y-85150000D03*
X68610000Y-85150000D03*
%TD*%
D22*
%TO.C,U13*%
X29400000Y-101740000D03*
D23*
X29400000Y-99200000D03*
X29400000Y-96660000D03*
X29400000Y-94120000D03*
X29400000Y-91580000D03*
X29400000Y-89040000D03*
X29400000Y-86500000D03*
X29400000Y-83960000D03*
%TD*%
D18*
%TO.C,CN6*%
X30275000Y-131440000D03*
D19*
X30275000Y-128900000D03*
%TD*%
D24*
%TO.C,CN5*%
X102050000Y-96600000D03*
D25*
X81050000Y-96600000D03*
%TD*%
D26*
%TO.C,C22*%
X63937500Y-131250000D03*
X62212500Y-131250000D03*
%TD*%
D27*
%TO.C,R11*%
X66900000Y-90600000D03*
X66900000Y-88775000D03*
%TD*%
D26*
%TO.C,C2*%
X75712500Y-137100000D03*
X73987500Y-137100000D03*
%TD*%
D28*
%TO.C,C1*%
X92600000Y-135337500D03*
X92600000Y-133612500D03*
%TD*%
D29*
%TO.C,U9*%
X44899500Y-135938500D03*
X45849500Y-135938500D03*
X46799500Y-135938500D03*
X46799500Y-138213500D03*
X45849500Y-138213500D03*
X44899500Y-138213500D03*
%TD*%
%TO.C,U12*%
X54041000Y-135959000D03*
X54991000Y-135959000D03*
X55941000Y-135959000D03*
X55941000Y-138234000D03*
X54991000Y-138234000D03*
X54041000Y-138234000D03*
%TD*%
D28*
%TO.C,C50*%
X54038500Y-133944500D03*
X54038500Y-132219500D03*
%TD*%
%TO.C,C46*%
X49466500Y-134198500D03*
X49466500Y-132473500D03*
%TD*%
%TO.C,C44*%
X44831000Y-134008000D03*
X44831000Y-132283000D03*
%TD*%
D26*
%TO.C,C51*%
X48184001Y-140525500D03*
X46459001Y-140525500D03*
%TD*%
%TO.C,C47*%
X53073500Y-140398500D03*
X51348500Y-140398500D03*
%TD*%
%TO.C,C45*%
X43739000Y-140398500D03*
X42014000Y-140398500D03*
%TD*%
D29*
%TO.C,U10*%
X49469000Y-135959000D03*
X50419000Y-135959000D03*
X51369000Y-135959000D03*
X51369000Y-138234000D03*
X50419000Y-138234000D03*
X49469000Y-138234000D03*
%TD*%
D30*
%TO.C,C21*%
X68462500Y-131125000D03*
X70187500Y-131125000D03*
%TD*%
D27*
%TO.C,R10*%
X68850000Y-90500000D03*
X68850000Y-88675000D03*
%TD*%
D31*
%TO.C,U1*%
X90500000Y-138412500D03*
X90000000Y-138412500D03*
X89500000Y-138412500D03*
X89000000Y-138412500D03*
X88500000Y-138412500D03*
X88000000Y-138412500D03*
X87500000Y-138412500D03*
X87000000Y-138412500D03*
X86500000Y-138412500D03*
X86000000Y-138412500D03*
X85500000Y-138412500D03*
X85000000Y-138412500D03*
X84500000Y-138412500D03*
X84000000Y-138412500D03*
X83500000Y-138412500D03*
X83000000Y-138412500D03*
X82500000Y-138412500D03*
X82000000Y-138412500D03*
X81500000Y-138412500D03*
X81000000Y-138412500D03*
X80500000Y-138412500D03*
X80000000Y-138412500D03*
X79500000Y-138412500D03*
X79000000Y-138412500D03*
X79000000Y-130987500D03*
X79500000Y-130987500D03*
X80000000Y-130987500D03*
X80500000Y-130987500D03*
X81000000Y-130987500D03*
X81500000Y-130987500D03*
X82000000Y-130987500D03*
X82500000Y-130987500D03*
X83000000Y-130987500D03*
X83500000Y-130987500D03*
X84000000Y-130987500D03*
X84500000Y-130987500D03*
X85000000Y-130987500D03*
X85500000Y-130987500D03*
X86000000Y-130987500D03*
X86500000Y-130987500D03*
X87000000Y-130987500D03*
X87500000Y-130987500D03*
X88000000Y-130987500D03*
X88500000Y-130987500D03*
X89000000Y-130987500D03*
X89500000Y-130987500D03*
X90000000Y-130987500D03*
X90500000Y-130987500D03*
%TD*%
D32*
%TO.C,CN4*%
X39459000Y-110682000D03*
X104559000Y-110682000D03*
D33*
X103659000Y-126782000D03*
X103359000Y-118582001D03*
X103059000Y-126782000D03*
X102759000Y-118582001D03*
X102459000Y-126782000D03*
X102159000Y-118582001D03*
X101859000Y-126782000D03*
X101559000Y-118582001D03*
X101259000Y-126782000D03*
X100959000Y-118582001D03*
X100659000Y-126782000D03*
X100359000Y-118582001D03*
X100059000Y-126782000D03*
X99759000Y-118582001D03*
X99459000Y-126782000D03*
X99159000Y-118582001D03*
X98859000Y-126782000D03*
X98559000Y-118582001D03*
X98259000Y-126782000D03*
X97959000Y-118582001D03*
X97659000Y-126782000D03*
X97359000Y-118582001D03*
X97059000Y-126782000D03*
X96759000Y-118582001D03*
X96459000Y-126782000D03*
X96159000Y-118582001D03*
X95859000Y-126782000D03*
X95559000Y-118582001D03*
X95259000Y-126782000D03*
X94959000Y-118582001D03*
X94659000Y-126782000D03*
X94359000Y-118582001D03*
X94059000Y-126782000D03*
X93759000Y-118582001D03*
X93459000Y-126782000D03*
X93159000Y-118582001D03*
X92859000Y-126782000D03*
X92559000Y-118582001D03*
X92259000Y-126782000D03*
X91959000Y-118582001D03*
X88059000Y-126782000D03*
X87759000Y-118582001D03*
X87459000Y-126782000D03*
X87159000Y-118582001D03*
X86859000Y-126782000D03*
X86559000Y-118582001D03*
X86259000Y-126782000D03*
X85959000Y-118582001D03*
X85659000Y-126782000D03*
X85359000Y-118582001D03*
X85059000Y-126782000D03*
X84759000Y-118582001D03*
X84459000Y-126782000D03*
X84159000Y-118582001D03*
X83859000Y-126782000D03*
X83559000Y-118582001D03*
X83259000Y-126782000D03*
X82959000Y-118582001D03*
X82659000Y-126782000D03*
X82359000Y-118582001D03*
X82059000Y-126782000D03*
X81759000Y-118582001D03*
X81459000Y-126782000D03*
X81159000Y-118582001D03*
X80859000Y-126782000D03*
X80559000Y-118582001D03*
X80259000Y-126782000D03*
X79959000Y-118582001D03*
X79659000Y-126782000D03*
X79359000Y-118582001D03*
X79059000Y-126782000D03*
X78759000Y-118582001D03*
X78459000Y-126782000D03*
X78159000Y-118582001D03*
X77859000Y-126782000D03*
X77559000Y-118582001D03*
X77259000Y-126782000D03*
X76959000Y-118582001D03*
X76659000Y-126782000D03*
X76359000Y-118582001D03*
X76059000Y-126782000D03*
X75759000Y-118582001D03*
X75459000Y-126782000D03*
X75159000Y-118582001D03*
X74859000Y-126782000D03*
X74559000Y-118582001D03*
X74259000Y-126782000D03*
X73959000Y-118582001D03*
X73659000Y-126782000D03*
X73359000Y-118582001D03*
X73059000Y-126782000D03*
X72759000Y-118582001D03*
X72459000Y-126782000D03*
X72159000Y-118582001D03*
X71859000Y-126782000D03*
X71559000Y-118582001D03*
X71259000Y-126782000D03*
X70959000Y-118582001D03*
X70659000Y-126782000D03*
X70359000Y-118582001D03*
X70059000Y-126782000D03*
X69759000Y-118582001D03*
X69459000Y-126782000D03*
X69159000Y-118582001D03*
X68859000Y-126782000D03*
X68559000Y-118582001D03*
X68259000Y-126782000D03*
X67959000Y-118582001D03*
X67659000Y-126782000D03*
X67359000Y-118582001D03*
X67059000Y-126782000D03*
X66759000Y-118582001D03*
X66459000Y-126782000D03*
X66159000Y-118582001D03*
X65859000Y-126782000D03*
X65559000Y-118582001D03*
X65259000Y-126782000D03*
X64959000Y-118582001D03*
X64659000Y-126782000D03*
X64359000Y-118582001D03*
X64059000Y-126782000D03*
X63759000Y-118582001D03*
X63459000Y-126782000D03*
X63159000Y-118582001D03*
X62859000Y-126782000D03*
X62559000Y-118582001D03*
X62259000Y-126782000D03*
X61959000Y-118582001D03*
X61659000Y-126782000D03*
X61359000Y-118582001D03*
X61059000Y-126782000D03*
X60759000Y-118582001D03*
X60459000Y-126782000D03*
X60159000Y-118582001D03*
X59859000Y-126782000D03*
X59559000Y-118582001D03*
X59259000Y-126782000D03*
X58959000Y-118582001D03*
X58659000Y-126782000D03*
X58359000Y-118582001D03*
X58059000Y-126782000D03*
X57759000Y-118582001D03*
X57459000Y-126782000D03*
X57159000Y-118582001D03*
X56859000Y-126782000D03*
X56559000Y-118582001D03*
X56259000Y-126782000D03*
X55959000Y-118582001D03*
X55659000Y-126782000D03*
X55359000Y-118582001D03*
X55059000Y-126782000D03*
X54759000Y-118582001D03*
X54459000Y-126782000D03*
X54159000Y-118582001D03*
X53859000Y-126782000D03*
X53559000Y-118582001D03*
X53259000Y-126782000D03*
X52959000Y-118582001D03*
X52659000Y-126782000D03*
X52359000Y-118582001D03*
X52059000Y-126782000D03*
X51759000Y-118582001D03*
X51459000Y-126782000D03*
X51159000Y-118582001D03*
X50859000Y-126782000D03*
X50559000Y-118582001D03*
X50259000Y-126782000D03*
X49959000Y-118582001D03*
X49659000Y-126782000D03*
X49359000Y-118582001D03*
X49059000Y-126782000D03*
X48759000Y-118582001D03*
X48459000Y-126782000D03*
X48159000Y-118582001D03*
X47859000Y-126782000D03*
X47559000Y-118582001D03*
X47259000Y-126782000D03*
X46959000Y-118582001D03*
X46659000Y-126782000D03*
X46359000Y-118582001D03*
X46059000Y-126782000D03*
X45759000Y-118582001D03*
X45459000Y-126782000D03*
X45159000Y-118582001D03*
X44859000Y-126782000D03*
X44559000Y-118582001D03*
X44259000Y-126782000D03*
X43959000Y-118582001D03*
X43659000Y-126782000D03*
X43359000Y-118582001D03*
X43059000Y-126782000D03*
X42759000Y-118582001D03*
X42459000Y-126782000D03*
X42159000Y-118582001D03*
X41859000Y-126782000D03*
X41559000Y-118582001D03*
X41259000Y-126782000D03*
X40959000Y-118582001D03*
X40659000Y-126782000D03*
X40359000Y-118582001D03*
%TD*%
D27*
%TO.C,R19*%
X64875000Y-90525000D03*
X64875000Y-88700000D03*
%TD*%
D34*
%TO.C,U6*%
X56810000Y-106410000D03*
X56810000Y-105410000D03*
X56810000Y-104410000D03*
X56810000Y-103410000D03*
X55810000Y-107410000D03*
X55810000Y-106410000D03*
X55810000Y-105410000D03*
X55810000Y-104410000D03*
X55810000Y-103410000D03*
X54810000Y-107410000D03*
X54810000Y-106410000D03*
X54810000Y-105410000D03*
X54810000Y-104410000D03*
X54810000Y-103410000D03*
X53810000Y-107410000D03*
X53810000Y-106410000D03*
X53810000Y-105410000D03*
X53810000Y-104410000D03*
X53810000Y-103410000D03*
X52810000Y-107410000D03*
X52810000Y-106410000D03*
X52810000Y-105410000D03*
X52810000Y-104410000D03*
X52810000Y-103410000D03*
%TD*%
G36*
X76792121Y-150050182D02*
G01*
X76838614Y-150103838D01*
X76850000Y-150156180D01*
X76850000Y-158154100D01*
X76829998Y-158222221D01*
X76776342Y-158268714D01*
X76724000Y-158280100D01*
X39983680Y-158280100D01*
X39915559Y-158260098D01*
X39869066Y-158206442D01*
X39857680Y-158154100D01*
X39857680Y-150156180D01*
X39877682Y-150088059D01*
X39931338Y-150041566D01*
X39983680Y-150030180D01*
X76724000Y-150030180D01*
X76792121Y-150050182D01*
G37*
G36*
X114792121Y-150050182D02*
G01*
X114838614Y-150103838D01*
X114850000Y-150156180D01*
X114850000Y-158154100D01*
X114829998Y-158222221D01*
X114776342Y-158268714D01*
X114724000Y-158280100D01*
X82983340Y-158280100D01*
X82915219Y-158260098D01*
X82868726Y-158206442D01*
X82857340Y-158154100D01*
X82857340Y-150156180D01*
X82877342Y-150088059D01*
X82930998Y-150041566D01*
X82983340Y-150030180D01*
X114724000Y-150030180D01*
X114792121Y-150050182D01*
G37*
%LPD*%
M02*
