M48
; DRILL file {KiCad 7.0.7} date Mon Sep 18 11:20:04 2023
; FORMAT={-:-/ absolute / inch / decimal}
; #@! TF.CreationDate,2023-09-18T11:20:04+03:00
; #@! TF.GenerationSoftware,Kicad,Pcbnew,7.0.7
; #@! TF.FileFunction,Plated,1,2,PTH
FMAT,2
INCH
; #@! TA.AperFunction,Plated,PTH,ViaDrill
T1C0.0118
; #@! TA.AperFunction,Plated,PTH,ComponentDrill
T2C0.0354
; #@! TA.AperFunction,Plated,PTH,ComponentDrill
T3C0.0394
; #@! TA.AperFunction,Plated,PTH,ComponentDrill
T4C0.0409
%
G90
G05
T1
X1.1744Y-4.4577
X1.249Y-4.9734
X1.3693Y-5.587
X1.4567Y-5.4488
X1.5516Y-5.6858
X1.6143Y-5.4843
X1.6528Y-5.6957
X1.6535Y-5.4488
X1.6585Y-3.5709
X1.6654Y-4.1024
X1.713Y-5.4527
X1.7236Y-4.8464
X1.7244Y-5.6024
X1.7562Y-5.4997
X1.7674Y-5.5623
X1.7963Y-5.2805
X1.8169Y-4.123
X1.8209Y-4.7296
X1.8228Y-5.6024
X1.8701Y-5.2441
X1.872Y-5.865
X1.8825Y-5.5056
X1.9055Y-5.2244
X1.9249Y-4.746
X1.9409Y-4.1102
X1.9409Y-5.5591
X1.9488Y-4.563
X1.9803Y-4.2687
X1.9873Y-5.6045
X1.9892Y-5.2657
X1.9892Y-5.3061
X1.9911Y-4.4744
X2.0157Y-4.2963
X2.0246Y-4.5787
X2.0256Y-4.0827
X2.0346Y-4.1398
X2.0354Y-5.6732
X2.0404Y-4.375
X2.0492Y-4.2726
X2.0551Y-5.2795
X2.0593Y-5.205
X2.0748Y-5.4291
X2.0809Y-5.86
X2.0827Y-4.4872
X2.0925Y-4.2913
X2.1059Y-4.3291
X2.1102Y-4.4134
X2.125Y-5.4925
X2.1339Y-5.563
X2.1405Y-4.3408
X2.1634Y-4.5148
X2.1654Y-5.315
X2.1693Y-5.2717
X2.1772Y-4.3307
X2.2067Y-5.0551
X2.2071Y-4.3056
X2.2303Y-4.9311
X2.2343Y-4.2795
X2.2496Y-4.9014
X2.2579Y-5.2744
X2.2579Y-5.4508
X2.2677Y-4.2598
X2.2736Y-4.8366
X2.2795Y-5.8543
X2.2844Y-4.8933
X2.2854Y-5.1614
X2.2953Y-4.378
X2.2972Y-4.1634
X2.2992Y-5.4902
X2.3031Y-4.5886
X2.3138Y-4.2697
X2.3228Y-4.8209
X2.3445Y-5.3071
X2.3563Y-5.4291
X2.3583Y-4.561
X2.363Y-4.337
X2.3638Y-4.1666
X2.376Y-4.8051
X2.381Y-4.1161
X2.3939Y-5.0837
X2.3988Y-5.2339
X2.4154Y-4.9252
X2.4173Y-4.1614
X2.4193Y-4.7894
X2.4267Y-4.8904
X2.4291Y-4.5709
X2.4498Y-4.1093
X2.4567Y-4.1575
X2.4585Y-4.8747
X2.4607Y-5.0524
X2.4685Y-5.4409
X2.4705Y-4.7913
X2.4764Y-4.2756
X2.4764Y-5.8543
X2.4938Y-4.8774
X2.4961Y-4.7618
X2.5Y-4.6063
X2.5009Y-5.4006
X2.5098Y-4.1556
X2.513Y-5.0721
X2.5177Y-4.9035
X2.5177Y-5.2126
X2.5206Y-4.1048
X2.5275Y-4.2768
X2.5335Y-4.7323
X2.5347Y-4.5681
X2.5394Y-5.3661
X2.5407Y-4.8765
X2.5452Y-4.1545
X2.5531Y-4.5118
X2.5705Y-4.898
X2.5709Y-4.4547
X2.5748Y-5.0551
X2.5787Y-4.2777
X2.5787Y-4.1102
X2.5977Y-4.8753
X2.6067Y-4.5532
X2.6088Y-4.1613
X2.6197Y-5.4252
X2.624Y-4.4518
X2.6298Y-4.2756
X2.6339Y-5.8622
X2.6364Y-4.8962
X2.6457Y-4.1634
X2.6555Y-5.1634
X2.6713Y-4.8727
X2.6721Y-5.3822
X2.6775Y-5.434
X2.681Y-4.2736
X2.685Y-5.0591
X2.689Y-4.7402
X2.689Y-5.8071
X2.6949Y-4.5955
X2.7003Y-4.8933
X2.7033Y-5.8665
X2.7047Y-4.1083
X2.7106Y-4.1555
X2.7323Y-5.2136
X2.7355Y-4.8671
X2.7362Y-5.0591
X2.7444Y-5.803
X2.752Y-4.3071
X2.7632Y-4.8893
X2.7795Y-5.0586
X2.7894Y-4.2677
X2.8051Y-4.122
X2.8066Y-4.7512
X2.811Y-5.7795
X2.8111Y-5.8543
X2.815Y-4.874
X2.8268Y-5.4213
X2.8287Y-5.1142
X2.8419Y-4.7887
X2.8497Y-4.8948
X2.8504Y-5.0846
X2.8583Y-4.9292
X2.8661Y-5.8657
X2.8819Y-5.748
X2.8907Y-4.4478
X2.8934Y-4.7905
X2.9025Y-5.1477
X2.9026Y-5.0679
X2.9213Y-5.7874
X2.9216Y-5.3538
X2.9232Y-4.8898
X2.9456Y-3.6962
X2.9456Y-4.7857
X2.9478Y-5.439
X2.9626Y-5.748
X2.963Y-4.5811
X2.9826Y-5.8567
X2.9922Y-4.7599
X3.0171Y-5.1966
X3.0315Y-4.6066
X3.045Y-4.7736
X3.061Y-3.5886
X3.063Y-5.437
X3.0689Y-5.0689
X3.0729Y-4.5639
X3.0846Y-5.1526
X3.1142Y-4.7856
X3.1244Y-4.5521
X3.1388Y-3.9902
X3.1539Y-4.7427
X3.1608Y-4.5904
X3.185Y-5.7187
X3.2004Y-4.5567
X3.2237Y-5.229
X3.2244Y-3.624
X3.2264Y-4.0285
X3.246Y-4.5296
X3.2747Y-4.4855
X3.3002Y-4.0492
X3.3069Y-5.6986
X3.3117Y-5.2344
X3.3189Y-5.874
X3.3217Y-4.4603
X3.3287Y-4.3327
X3.3346Y-3.5079
X3.3485Y-5.6673
X3.3494Y-3.9665
X3.3504Y-4.4035
X3.3504Y-5.8268
X3.372Y-4.0453
X3.3819Y-5.0669
X3.3897Y-5.265
X3.4016Y-5.8583
X3.4173Y-5.7598
X3.436Y-5.2864
X3.4469Y-3.9754
X3.4567Y-5.8661
X3.4606Y-3.6535
X3.4616Y-4.0423
X3.4685Y-5.7441
X3.4705Y-4.3533
X3.5076Y-5.7061
X3.5192Y-5.3906
X3.5197Y-5.6339
X3.5236Y-5.8661
X3.5304Y-5.2964
X3.5384Y-5.2234
X3.5394Y-4.3002
X3.5591Y-5.8189
X3.5762Y-5.3127
X3.5984Y-5.8583
X3.5999Y-5.6846
X3.6063Y-3.4921
X3.6299Y-5.3996
X3.6427Y-4.2057
X3.6521Y-5.8861
X3.6535Y-5.8346
X3.6693Y-5.6811
X3.688Y-3.9774
X3.7126Y-5.2165
X3.7126Y-5.8346
X3.7237Y-5.6026
X3.7244Y-5.5197
X3.7264Y-5.7133
X3.7384Y-5.1424
X3.7539Y-3.8642
X3.7546Y-5.2175
X3.7726Y-4.1683
X3.7795Y-5.4606
X3.79Y-5.585
X3.7933Y-4.0187
X3.7953Y-5.7913
X3.8228Y-5.374
X3.8239Y-5.561
X3.8307Y-5.1142
X3.8356Y-5.2746
X3.8384Y-5.4541
X3.8494Y-5.59
X3.877Y-5.56
X3.8819Y-3.9754
X3.8878Y-5.1575
X3.8888Y-5.7019
X3.8907Y-4.1909
X3.8944Y-5.7581
X3.91Y-5.595
X3.926Y-5.1214
X3.9336Y-5.8696
X3.9366Y-5.5594
X3.9498Y-3.9715
X3.9565Y-5.4541
X3.9575Y-3.6239
X3.9687Y-5.6533
X3.9714Y-5.5936
X3.9783Y-3.752
X3.9837Y-5.0591
X3.9948Y-5.5611
X4.0059Y-5.2736
X4.0236Y-5.7196
X4.0244Y-5.1115
X4.055Y-5.4541
X4.0571Y-4.002
X4.0624Y-5.6305
X4.0669Y-5.7717
X4.0671Y-5.0586
X4.0995Y-5.5943
X4.1227Y-5.1245
X4.1529Y-5.7211
X4.1539Y-5.8681
X4.1664Y-5.7905
X4.1691Y-5.4541
X4.1732Y-5.6654
X4.1742Y-5.2726
X4.1825Y-5.0354
X4.2008Y-5.0866
X4.2305Y-5.6661
X4.2323Y-5.4587
X4.2559Y-5.2283
X4.2598Y-5.1457
X4.2719Y-5.7047
X4.285Y-3.7303
X4.3115Y-5.7525
X4.3199Y-4.1516
X4.3268Y-5.5039
X4.3346Y-5.3858
X4.378Y-5.8504
X4.38Y-5.32
X4.4685Y-3.5354
X4.4764Y-3.7992
X4.4808Y-3.6954
X4.4825Y-5.8465
X4.52Y-5.32
X4.5512Y-4.5
X4.6102Y-3.6417
X4.6437Y-5.5685
X4.8059Y-3.6996
X4.8236Y-4.6748
X4.8626Y-5.2346
X4.8799Y-4.1772
T2
X2.5512Y-3.3524
X2.6012Y-3.3524
X2.6512Y-3.3524
X2.7012Y-3.3524
T3
X1.1919Y-5.0748
X1.1919Y-5.1748
X4.555Y-4.6525
X4.555Y-4.7525
X4.655Y-4.6525
X4.655Y-4.7525
T4
X1.1575Y-3.3055
X1.1575Y-3.4055
X1.1575Y-3.5055
X1.1575Y-3.6055
X1.1575Y-3.7055
X1.1575Y-3.8055
X1.1575Y-3.9055
X1.1575Y-4.0055
T0
M30
